<svg width="60" height="60" viewBox="0 0 60 60" fill="none" xmlns="http://www.w3.org/2000/svg">
<path d="M46.224 30C46.224 21.702 50.055 17.04 53.055 17.04H57C54.996 13.863 53.337 12 46.026 12H16.002C4.8 12 0 22.323 0 30C0 37.677 4.8 48 16.002 48H46.026C53.34 48 54.996 46.137 57 42.96H53.055C50.055 42.96 46.224 38.298 46.224 30ZM38.064 35.385C37.572 36.135 36.036 35.433 36.036 35.433L27.165 31.419C27.165 31.419 26.373 33.429 25.764 34.842C25.149 36.255 24.681 37.854 22.137 36.066C19.59 34.272 11.394 26.316 11.394 26.316C11.394 26.316 10.359 25.464 10.875 24.663C11.364 23.907 12.903 24.615 12.903 24.615L21.771 28.623C21.771 28.623 22.566 26.619 23.175 25.206C23.79 23.796 24.258 22.188 26.802 23.982C29.349 25.77 37.542 33.732 37.542 33.732C37.542 33.732 38.577 34.581 38.064 35.385ZM56.622 23.784H54.375C52.698 23.784 51.06 26.046 51.06 29.721C51.06 33.402 52.701 35.661 54.375 35.661H56.622C58.302 35.661 60 33.399 60 29.721C60 26.043 58.302 23.784 56.622 23.784Z" fill="#FC0000"/>
</svg>
