<svg width="60" height="60" viewBox="0 0 60 60" fill="none" xmlns="http://www.w3.org/2000/svg">
<path d="M5 25C6.95 15.46 14.175 7.825 23.515 5.225C24.3 5.0075 24.69 4.8975 24.9025 5.13C25.115 5.365 24.9575 5.75 24.6475 6.525L22.5 11.25M35 5C44.54 6.95 52.175 14.175 54.775 23.515C54.9925 24.3 55.1025 24.69 54.87 24.9025C54.635 25.115 54.25 24.9575 53.475 24.6475L48.75 22.5M55 35C53.05 44.54 45.825 52.175 36.485 54.775C35.7 54.9925 35.31 55.1025 35.0975 54.87C34.885 54.635 35.0425 54.25 35.3525 53.475L37.5 48.75M25 55C15.46 53.05 7.825 45.825 5.225 36.485C5.0075 35.7 4.8975 35.31 5.13 35.0975C5.365 34.885 5.75 35.0425 6.525 35.3525L11.25 37.5" stroke="#FC0000" stroke-width="3.75" stroke-linecap="round"/>
<path d="M21.5327 29.1624L30.2802 17.9324C30.9652 17.0549 32.2477 17.6024 32.2477 18.7724V27.4624C32.2477 28.1624 32.7477 28.7324 33.3702 28.7324H37.6252C38.5902 28.7324 39.1052 30.0174 38.4677 30.8374L29.7202 42.0674C29.0352 42.9449 27.7527 42.3974 27.7527 41.2274V32.5374C27.7527 31.8374 27.2527 31.2674 26.6302 31.2674H22.3752C21.4102 31.2674 20.8927 29.9824 21.5327 29.1624Z" stroke="#FC0000" stroke-width="3.75" stroke-linecap="round" stroke-linejoin="round"/>
</svg>
