<svg width="60" height="60" viewBox="0 0 60 60" fill="none" xmlns="http://www.w3.org/2000/svg">
<path d="M17.5003 34.2751C19.0918 35.7832 21.2114 36.607 23.4036 36.5696C25.5959 36.5322 27.6861 35.6366 29.2253 34.0751L34.5753 28.7251C34.8064 28.5107 35.11 28.3916 35.4253 28.3916C35.7405 28.3916 36.0441 28.5107 36.2753 28.7251L45.2003 37.6751C45.2598 37.728 45.3065 37.7938 45.3368 37.8674C45.3671 37.9411 45.3803 38.0206 45.3753 38.1001C45.3769 38.1792 45.3622 38.2577 45.3321 38.3308C45.302 38.404 45.2571 38.4701 45.2003 38.5251L40.9503 42.7501C40.6484 43.1002 40.4495 43.5272 40.3757 43.9835C40.302 44.4399 40.3561 44.9078 40.5323 45.3352C40.7084 45.7626 40.9996 46.1328 41.3735 46.4046C41.7474 46.6765 42.1894 46.8393 42.6503 46.8751H57.1253C57.7883 46.8751 58.4242 46.6117 58.8931 46.1429C59.3619 45.674 59.6253 45.0381 59.6253 44.3751V30.0001C59.5862 29.5438 59.4225 29.107 59.1521 28.7373C58.8817 28.3677 58.515 28.0795 58.0919 27.904C57.6689 27.7286 57.2058 27.6728 56.7532 27.7426C56.3005 27.8125 55.8758 28.0053 55.5253 28.3001L51.1753 32.5001C51.0597 32.6073 50.9079 32.6668 50.7503 32.6668C50.5927 32.6668 50.4409 32.6073 50.3253 32.5001L41.4003 23.6251C39.7909 22.0877 37.6509 21.2298 35.4253 21.2298C33.1996 21.2298 31.0596 22.0877 29.4503 23.6251L24.1253 28.9751C23.9012 29.1935 23.6007 29.3157 23.2878 29.3157C22.9749 29.3157 22.6744 29.1935 22.4503 28.9751L6.55029 13.9751C5.85962 13.3444 4.9493 13.0095 4.01458 13.0422C3.07985 13.0749 2.19517 13.4727 1.55029 14.1501C0.919608 14.8408 0.584709 15.7511 0.617424 16.6858C0.65014 17.6205 1.04786 18.5052 1.72529 19.1501L17.5003 34.2751Z" fill="#FC0000"/>
</svg>
