<svg width="126" height="316" viewBox="0 0 126 316" fill="none" xmlns="http://www.w3.org/2000/svg">
<g clip-path="url(#clip0_830_306)">
<path d="M63 199.121L77.5258 242.88L77.6031 243.117H124.861L86.8346 270.162L86.6272 270.31L86.7045 270.547L101.23 314.306L63.2039 287.261L62.9965 287.113L62.7891 287.261L24.7627 314.306L39.2884 270.547L39.3658 270.31L39.1584 270.162L1.13549 243.117H48.3934L48.4707 242.88L62.9965 199.121M63 198.006L48.1403 242.773H0.0527344L38.9545 270.44L24.0948 315.207L62.9965 287.54L101.898 315.207L87.0385 270.44L125.94 242.773H77.8527L62.993 198.006H63Z" fill="#DDC099"/>
<path d="M63 198.006V262.794L101.902 315.207" stroke="#DDC099" stroke-miterlimit="10"/>
<path d="M38.958 270.44L63 262.794L125.944 242.773" stroke="#DDC099" stroke-miterlimit="10"/>
<path d="M0.0527344 242.773L63 262.794L24.0983 315.207" stroke="#DDC099" stroke-miterlimit="10"/>
<path d="M48.1406 242.773L63.0003 262.794L77.8601 242.773" stroke="#DDC099" stroke-miterlimit="10"/>
<path d="M63 198.099V1.12329" stroke="#DDC099" stroke-miterlimit="10"/>
</g>
<defs>
<clipPath id="clip0_830_306">
<rect width="126" height="315.311" fill="white"/>
</clipPath>
</defs>
</svg>
