<svg width="237" height="603" viewBox="0 0 237 603" fill="none" xmlns="http://www.w3.org/2000/svg">
<g clip-path="url(#clip0_830_290)">
<path d="M118.561 380.188L145.829 464.102L145.974 464.557H234.685L163.303 516.42L162.914 516.704L163.059 517.159L190.326 601.073L118.944 549.211L118.554 548.927L118.165 549.211L46.7826 601.073L74.0501 517.159L74.1952 516.704L73.8059 516.42L2.42999 464.557H91.1418L91.2869 464.102L118.554 380.188M118.561 378.05L90.6666 463.898H0.397461L73.4231 516.954L45.5287 602.802L118.554 549.745L191.58 602.802L163.686 516.954L236.711 463.898H146.442L118.548 378.05H118.561Z" fill="#DDC099"/>
<path d="M118.561 378.05V502.291L191.587 602.802" stroke="#DDC099" stroke-miterlimit="10"/>
<path d="M73.4297 516.954L118.561 502.291L236.718 463.897" stroke="#DDC099" stroke-miterlimit="10"/>
<path d="M0.397461 463.897L118.561 502.291L45.5353 602.802" stroke="#DDC099" stroke-miterlimit="10"/>
<path d="M90.667 463.897L118.561 502.291L146.456 463.897" stroke="#DDC099" stroke-miterlimit="10"/>
<path d="M118.561 378.228V0.49646" stroke="#DDC099" stroke-miterlimit="10"/>
</g>
<defs>
<clipPath id="clip0_830_290">
<rect width="236.525" height="603" fill="white" transform="translate(0.298828)"/>
</clipPath>
</defs>
</svg>
