<svg width="126" height="227" viewBox="0 0 126 227" fill="none" xmlns="http://www.w3.org/2000/svg">
<g clip-path="url(#clip0_830_298)">
<path d="M63 110.041L77.5258 153.8L77.6031 154.037H124.861L86.8346 181.082L86.6272 181.23L86.7045 181.467L101.23 225.226L63.2039 198.181L62.9965 198.034L62.7891 198.181L24.7627 225.226L39.2884 181.467L39.3658 181.23L39.1584 181.082L1.13549 154.037H48.3934L48.4707 153.8L62.9965 110.041M63 108.926L48.1403 153.693H0.0527344L38.9545 181.361L24.0948 226.128L62.9965 198.46L101.898 226.128L87.0385 181.361L125.94 153.693H77.8527L62.993 108.926H63Z" fill="#DDC099"/>
<path d="M63 108.926V173.714L101.902 226.128" stroke="#DDC099" stroke-miterlimit="10"/>
<path d="M38.958 181.361L63 173.714L125.944 153.693" stroke="#DDC099" stroke-miterlimit="10"/>
<path d="M0.0527344 153.693L63 173.714L24.0983 226.128" stroke="#DDC099" stroke-miterlimit="10"/>
<path d="M48.1406 153.693L63.0003 173.714L77.8601 153.693" stroke="#DDC099" stroke-miterlimit="10"/>
<path d="M63 109.027L63 0.369751" stroke="#DDC099" stroke-miterlimit="10"/>
</g>
<defs>
<clipPath id="clip0_830_298">
<rect width="126" height="226.231" fill="white"/>
</clipPath>
</defs>
</svg>
