<svg width="46" height="32" viewBox="0 0 46 32" fill="none" xmlns="http://www.w3.org/2000/svg">
<g clip-path="url(#clip0_2244_58)">
<path d="M46 27.8389V29.6078C46 30.9092 44.919 32 43.6293 32H2.37075C1.08103 32 0 30.9092 0 29.6078V27.8389H46Z" fill="#EC741E"/>
<path d="M43.1617 4.26639V22.3217C43.1617 24.6633 41.2543 26.588 38.9336 26.588H7.32088C5.00022 26.588 3.09277 24.6633 3.09277 22.3217V4.26639C3.09277 1.92472 5.00022 0 7.32088 0H38.9336C41.2543 0 43.1617 1.92472 43.1617 4.26639ZM39.5013 22.1153V4.26639C39.5013 3.74414 39.1423 3.38194 38.6248 3.38194H7.37514C6.85759 3.38194 6.49863 3.79889 6.49863 4.26639V22.1153C6.49863 22.6375 6.91185 22.9997 7.37514 22.9997H15.0592C16.0901 20.6075 17.6386 18.8386 19.2873 17.7436C19.905 17.2761 20.5269 17.015 21.0904 16.7539C21.6581 16.5475 22.2758 16.4422 22.8434 16.4422C23.5154 16.4422 24.1832 16.5981 24.9053 16.9097C25.523 17.1161 26.1449 17.4825 26.7084 17.95C28.307 19.0956 29.7512 20.8139 30.732 23.0503H38.6206C39.1381 23.0503 39.4971 22.6333 39.4971 22.1153H39.5013Z" fill="#EC741E"/>
<path d="M22.8978 4.94446C25.6818 4.94446 28.0024 7.23559 28.0024 10.0953C28.0024 12.955 25.6818 15.2461 22.8978 15.2461C20.1138 15.2461 17.8433 12.955 17.8433 10.0953C17.8433 7.28613 20.0596 4.995 22.8978 4.94446Z" fill="#EC741E"/>
</g>
<defs>
<clipPath id="clip0_2244_58">
<rect width="46" height="32" fill="white"/>
</clipPath>
</defs>
</svg>
