<svg width="43" height="43" viewBox="0 0 43 43" fill="none" xmlns="http://www.w3.org/2000/svg">
<g clip-path="url(#clip0_2244_71)">
<path d="M28.2192 4.03076H14.7807C11.0715 4.03076 8.06152 7.04076 8.06152 10.75V26.8768C8.06152 29.913 10.1031 32.4519 12.8738 33.2857L10.4433 38.9692H13.3711L15.6707 33.5923H27.333L29.6326 38.9692H32.5603L30.1299 33.2857C32.8968 32.4519 34.9421 29.913 34.9421 26.8768V10.75C34.9421 7.04076 31.9321 4.03076 28.2229 4.03076H28.2192ZM14.7807 6.7192H28.2192C29.9653 6.7192 31.4423 7.84841 32.0069 9.40763H11.0042C11.5539 7.84841 13.0346 6.7192 14.792 6.7192H14.777H14.7807ZM32.25 25.5308H28.2192V28.2192H32.0069C31.4573 29.7784 29.9766 30.9076 28.2192 30.9076H14.7807C13.0346 30.9076 11.5576 29.7784 10.993 28.2192H14.7807V25.5308H10.75V22.8423H32.25V25.5308ZM32.25 20.1539H10.75V12.0923H32.25V20.1539Z" fill="#EC741E"/>
</g>
<defs>
<clipPath id="clip0_2244_71">
<rect width="43" height="43" fill="white"/>
</clipPath>
</defs>
</svg>
