<svg width="35" height="36" viewBox="0 0 35 36" fill="none" xmlns="http://www.w3.org/2000/svg">
<g clip-path="url(#clip0_2244_51)">
<path d="M32.5 17.3793H15V14.8966H20C21.3792 14.8966 22.5 13.7834 22.5 12.4138V2.48276C22.5 1.1131 21.3792 0 20 0H5C3.62083 0 2.5 1.1131 2.5 2.48276V12.4138C2.5 13.7834 3.62083 14.8966 5 14.8966H10V17.3793H2.5C1.12083 17.3793 0 18.4924 0 19.8621V34.7586C0 35.4455 0.558333 36 1.25 36C1.94167 36 2.5 35.4455 2.5 34.7586V21.1034H20V28.5517C20 29.2386 20.5583 29.7931 21.25 29.7931H32.5V34.7586C32.5 35.4455 33.0583 36 33.75 36C34.4417 36 35 35.4455 35 34.7586V19.8621C35 18.4924 33.8792 17.3793 32.5 17.3793ZM5 12.4138V2.48276H20V12.4138H5ZM24.375 25.4483C23.3375 25.4483 22.5 24.6166 22.5 23.5862C22.5 22.5559 23.3375 21.7241 24.375 21.7241C25.4125 21.7241 26.25 22.5559 26.25 23.5862C26.25 24.6166 25.4125 25.4483 24.375 25.4483Z" fill="#EC741E"/>
</g>
<defs>
<clipPath id="clip0_2244_51">
<rect width="35" height="36" fill="white"/>
</clipPath>
</defs>
</svg>
