<svg width="41" height="35" viewBox="0 0 41 35" fill="none" xmlns="http://www.w3.org/2000/svg">
<g clip-path="url(#clip0_2244_76)">
<path d="M6.35987 35C9.35097 35 11.8486 32.8981 12.5223 30.0854H28.4777C29.1558 32.8981 31.6491 35 34.6402 35C38.1462 35 41 32.118 41 28.5773C41 25.0365 38.1462 22.1545 34.6402 22.1545C31.6491 22.1545 29.1515 24.2564 28.4777 27.0691H19.5559V20.7504C19.5559 17.2746 17.8694 14.0156 15.0499 12.0264L13.6982 11.0729L15.8095 4.6632C16.1357 3.67509 17.0497 3.00768 18.0797 3.00768H20.0408C20.8648 3.00768 21.5342 2.3316 21.5342 1.49951C21.5342 0.66741 20.8648 -0.00866699 20.0408 -0.00866699H18.0797C15.758 -0.00866699 13.7067 1.48217 12.9729 3.70542L6.88342 22.2022C6.70747 22.1892 6.53582 22.1502 6.35558 22.1502C2.84951 22.1502 -0.00427246 25.0322 -0.00427246 28.5729C-0.00427246 32.1137 2.84951 34.9957 6.35558 34.9957L6.35987 35ZM34.6445 25.1709C36.5026 25.1709 38.0175 26.7007 38.0175 28.5773C38.0175 30.4538 36.5026 31.9837 34.6445 31.9837C32.7863 31.9837 31.28 30.4625 31.2714 28.5859C31.2714 28.5859 31.2714 28.5816 31.2714 28.5773C31.2714 28.5729 31.2714 28.5729 31.2714 28.5686C31.2757 26.6964 32.7863 25.1709 34.6445 25.1709ZM12.7197 14.0589L13.3463 14.501C15.3675 15.9268 16.5734 18.2628 16.5734 20.7504V27.0691H12.5266C12.1318 25.4222 11.1104 24.0267 9.72861 23.1513L12.7197 14.0589ZM6.35987 25.1709C8.21375 25.1709 9.72432 26.6921 9.73291 28.5643C9.73291 28.5686 9.73291 28.5729 9.73291 28.5773C9.73291 28.5816 9.73291 28.5859 9.73291 28.5903C9.72432 30.4625 8.21804 31.9793 6.35987 31.9793C4.50169 31.9793 2.98683 30.4495 2.98683 28.5729C2.98683 26.6964 4.50169 25.1665 6.35987 25.1665V25.1709Z" fill="#EC741E"/>
</g>
<defs>
<clipPath id="clip0_2244_76">
<rect width="41" height="35" fill="white"/>
</clipPath>
</defs>
</svg>
