<svg width="34" height="34" viewBox="0 0 34 34" fill="none" xmlns="http://www.w3.org/2000/svg">
<g clip-path="url(#clip0_2244_53)">
<path d="M33.9857 16.4622C33.5896 7.56647 26.4349 0.340519 17.6709 0.0145362C12.9855 -0.166565 8.58564 1.53941 5.22418 4.80648C1.85915 8.07355 0 12.5033 0 17.2228C0 23.4672 3.36146 29.2407 8.72838 32.2904C9.87385 32.9424 11.0907 33.4531 12.3039 33.8153C12.7322 33.924 13.1639 33.9964 13.6278 33.9964C14.6306 33.9964 15.6297 33.6704 16.4897 33.0149C17.7065 32.1057 18.3846 30.6895 18.3846 29.1646V24.8073C21.1751 24.1554 23.284 21.6127 23.284 18.5992V15.3321C23.9977 15.2959 24.5722 14.7164 24.5722 13.9883C24.5722 13.2241 23.9656 12.6083 23.2126 12.6083H21.2107V9.92079C21.2107 9.19638 20.6398 8.61324 19.9225 8.61324C19.2053 8.61324 18.6343 9.19276 18.6343 9.92079V12.6083H15.3442V9.92079C15.3442 9.19638 14.7733 8.61324 14.056 8.61324C13.3388 8.61324 12.7678 9.19276 12.7678 9.92079V12.6083H10.766C10.013 12.6083 9.40638 13.2241 9.40638 13.9883C9.40638 14.7526 9.97733 15.3321 10.6946 15.3321V18.5992C10.6946 21.6489 12.8035 24.1916 15.594 24.8073V29.1646C15.594 29.7804 15.3086 30.3997 14.8054 30.7619C14.3023 31.1242 13.6956 31.269 13.089 31.0879C12.0506 30.7982 11.0514 30.3635 10.0844 29.8166C5.57746 27.2739 2.78694 22.4458 2.78694 17.2156C2.78694 13.2567 4.32494 9.55496 7.15113 6.8312C9.94165 4.07121 13.6635 2.655 17.5602 2.79988C24.8577 3.12586 30.8669 9.15292 31.1881 16.5962C31.4736 23.1303 27.3948 29.0487 21.2785 31.0119C20.5256 31.2292 20.1331 32.0297 20.3472 32.7903C20.5613 33.5545 21.3499 33.953 22.0993 33.7356C29.3967 31.3379 34.2962 24.2604 33.975 16.4513L33.9857 16.4622ZM14.6341 19.693C14.2773 19.693 14.0632 19.2584 14.2773 18.9686L17.5317 14.5389C17.8172 14.1405 18.4274 14.4302 18.3203 14.9011L17.7494 17.7335H19.3587C19.7156 17.7335 19.9297 18.1681 19.7156 18.4579L16.4612 22.8877C16.1757 23.2861 15.5655 22.9963 15.6725 22.5255L16.2435 19.693H14.6341Z" fill="#EC741E"/>
</g>
<defs>
<clipPath id="clip0_2244_53">
<rect width="34" height="34" fill="white"/>
</clipPath>
</defs>
</svg>
