<svg width="36" height="33" viewBox="0 0 36 33" fill="none" xmlns="http://www.w3.org/2000/svg">
<g clip-path="url(#clip0_2244_80)">
<path d="M35.0324 5.11705L18.4556 0.0793447C18.1691 -0.0282386 17.8873 -0.0282386 17.5444 0.0793447L0.967641 5.11705C0.399269 5.27608 0 5.80465 0 6.38934V26.6431C0 27.2277 0.399269 27.7049 0.967641 27.9153L17.5444 32.953C17.7135 33.0045 17.8309 33.0045 18 33.0045C18.1691 33.0045 18.2865 33.0045 18.4556 32.953L35.0324 27.8639C35.6007 27.7049 36 27.1763 36 26.5916V6.38934C36 5.80465 35.6007 5.32754 35.0324 5.11705ZM16.5767 29.8752L2.85125 25.6888V8.19019L8.31889 9.832V19.7437C8.31889 20.4874 8.94363 21.0674 9.74217 21.0674C10.5407 21.0674 11.1654 20.4827 11.1654 19.7437V10.7301L16.6331 12.3719V29.8659H16.5767V29.8752ZM18 10.0472L14.1247 8.88246L16.8586 7.9797C17.6007 7.71308 18 6.97403 17.7135 6.28175C17.4269 5.59416 16.6331 5.27608 15.8909 5.48657L9.79854 7.55404L5.98434 6.38934L18.0047 2.73151L30.0251 6.38934L18.0047 10.0472H18ZM33.1534 25.6888L27.6858 27.3307V21.6054C27.6858 20.8616 27.0611 20.2816 26.2625 20.2816C25.464 20.2816 24.8956 20.8663 24.8956 21.6054V28.2334L19.428 29.8752V12.3766L33.1534 8.19019V25.6842V25.6888Z" fill="#EC741E"/>
</g>
<defs>
<clipPath id="clip0_2244_80">
<rect width="36" height="33" fill="white"/>
</clipPath>
</defs>
</svg>
