<svg width="22" height="34" viewBox="0 0 22 34" fill="none" xmlns="http://www.w3.org/2000/svg">
<g clip-path="url(#clip0_2244_55)">
<path d="M21.992 8.15782C21.992 8.15782 21.992 8.14222 21.992 8.13442C21.992 8.13442 21.992 8.12662 21.992 8.12272C21.9048 3.63436 17.0124 0 11.0019 0C4.99147 0 0.0950939 3.63436 0.00787093 8.12272C0.00787093 8.12272 0.00787093 8.13052 0.00787093 8.13442C0.00787093 8.14222 0.00787093 8.15002 0.00787093 8.15782C0.00787093 8.18511 0.00390625 8.21631 0.00390625 8.24361C0.00390625 8.2709 0.00787093 8.2943 0.00787093 8.3216C0.00787093 8.33329 0.00787093 8.34499 0.00787093 8.35669C0.0475177 10.5248 1.17745 12.5526 3.21133 14.0773C3.50075 14.2918 3.66727 14.6037 3.66727 14.9235V24.7269C3.66727 26.0684 4.54346 27.2109 5.76062 27.636V30.9077C5.76062 32.6118 7.17204 34 8.90461 34H13.0953C14.8278 34 16.2393 32.6118 16.2393 30.9077V29.8782C16.2393 29.3089 15.7714 28.8487 15.1926 28.8487C14.6137 28.8487 14.1459 29.3089 14.1459 29.8782V30.9077C14.1459 31.477 13.6741 31.9371 13.0992 31.9371H8.90857C8.32973 31.9371 7.8619 31.4731 7.8619 30.9077H10.4826C11.0614 30.9077 11.5292 30.4475 11.5292 29.8782C11.5292 29.3089 11.0614 28.8487 10.4826 28.8487H7.8619V27.8192H15.1966C16.9291 27.8192 18.3405 26.431 18.3405 24.7269V14.9235C18.3405 14.5998 18.5071 14.2918 18.7965 14.0734C20.8343 12.5487 21.9643 10.5209 21.9999 8.35279C21.9999 8.34109 21.9999 8.3294 21.9999 8.3177C21.9999 8.2904 22.0039 8.267 22.0039 8.23971C22.0039 8.21241 21.9999 8.18121 21.9999 8.15392L21.992 8.15782ZM10.998 2.05895C15.4582 2.05895 19.1533 4.34798 19.7916 7.32332L15.2719 7.79126C12.4332 8.08372 9.55482 8.08372 6.72007 7.79126L2.20034 7.32332C2.84262 4.34798 6.53373 2.05895 10.994 2.05895H10.998ZM17.5159 12.4317C16.7031 13.04 16.2353 13.9486 16.2353 14.9196V24.723C16.2353 25.2923 15.7635 25.7525 15.1886 25.7525H6.80729C6.22845 25.7525 5.76062 25.2885 5.76062 24.723V14.9196C5.76062 13.9486 5.29279 13.04 4.48003 12.4317C3.33027 11.5699 2.56905 10.5209 2.25584 9.40177L6.50201 9.84241C7.99273 9.99839 9.49535 10.0725 10.998 10.0725C12.5006 10.0725 14.0032 9.99449 15.4939 9.84241L19.7401 9.40177C19.4269 10.5248 18.6656 11.5738 17.5159 12.4356V12.4317Z" fill="#EC741E"/>
</g>
<defs>
<clipPath id="clip0_2244_55">
<rect width="22" height="34" fill="white"/>
</clipPath>
</defs>
</svg>
