<svg width="37" height="37" viewBox="0 0 37 37" fill="none" xmlns="http://www.w3.org/2000/svg">
<g clip-path="url(#clip0_2244_67)">
<path fill-rule="evenodd" clip-rule="evenodd" d="M18.5033 32.5719C26.2723 32.5719 32.5719 26.2723 32.5719 18.5033C32.5719 10.7343 26.2723 4.42814 18.5033 4.42814C10.7343 4.42814 4.42814 10.7277 4.42814 18.5033C4.42814 26.2789 10.7277 32.5719 18.4967 32.5719H18.5033ZM18.5033 37C28.7236 37 37 28.717 37 18.4967C37 8.2764 28.717 0 18.5033 0C8.28958 0 0 8.28299 0 18.5033C0 28.7236 8.28299 37.0066 18.5033 37.0066V37Z" fill="#EC741E"/>
<path fill-rule="evenodd" clip-rule="evenodd" d="M19.4984 9.52832C20.1112 9.52832 20.6054 10.0225 20.6054 10.6354V26.3645C20.6054 26.9773 20.1112 27.4715 19.4984 27.4715H17.2843C16.6715 27.4715 16.1772 26.9773 16.1772 26.3645V10.6354C16.1772 10.0225 16.6715 9.52832 17.2843 9.52832H19.4984Z" fill="#EC741E"/>
</g>
<defs>
<clipPath id="clip0_2244_67">
<rect width="37" height="37" fill="white"/>
</clipPath>
</defs>
</svg>
