<svg width="31" height="18" viewBox="0 0 31 18" fill="none" xmlns="http://www.w3.org/2000/svg">
<path d="M12.648 12.872H4.99201L3.45601 17H0.864014L7.24801 0.296021H10.512L16.896 17H14.184L12.648 12.872ZM11.808 10.664L8.83201 2.69602L5.83201 10.664H11.808Z" fill="#EC741E"/>
<path d="M27.7736 17L27.4616 15.344C26.2616 16.64 24.8216 17.288 23.1416 17.288C21.9576 17.288 20.9896 16.968 20.2376 16.328C19.4856 15.672 19.1096 14.808 19.1096 13.736C19.1096 12.344 19.6536 11.296 20.7416 10.592C21.8296 9.87202 23.2936 9.51202 25.1336 9.51202C25.8856 9.51202 26.5896 9.54402 27.2456 9.60802V8.93602C27.2456 8.13602 27.0216 7.52002 26.5736 7.08802C26.1416 6.65602 25.5256 6.44002 24.7256 6.44002C23.8456 6.44002 23.0376 6.56802 22.3016 6.82402C21.5816 7.08002 20.8216 7.48802 20.0216 8.04802V5.64802C20.7576 5.12002 21.5176 4.74402 22.3016 4.52002C23.1016 4.29602 23.9976 4.18402 24.9896 4.18402C26.4936 4.18402 27.6776 4.58402 28.5416 5.38402C29.4056 6.16802 29.8376 7.25602 29.8376 8.64802V14.216L30.3656 17H27.7736ZM23.5976 15.224C24.2856 15.224 24.9176 15.08 25.4936 14.792C26.0856 14.488 26.6696 14.048 27.2456 13.472V11.432H24.9896C23.9816 11.432 23.1976 11.592 22.6376 11.912C22.0776 12.232 21.7976 12.776 21.7976 13.544C21.7976 14.072 21.9576 14.488 22.2776 14.792C22.5976 15.08 23.0376 15.224 23.5976 15.224Z" fill="#EC741E"/>
<rect x="1.1" y="0.1" width="28.8" height="16.8" stroke="#EC741E" stroke-width="0.2"/>
</svg>
