<svg width="29" height="21" viewBox="0 0 29 21" fill="none" xmlns="http://www.w3.org/2000/svg">
<path d="M21.9824 5.51274C21.9343 5.49732 21.8958 5.46998 21.8741 5.43583C21.2636 4.40091 20.2358 3.51713 18.9197 2.89557C17.6037 2.274 16.0581 1.94238 14.4773 1.94238C12.8965 1.94238 11.3509 2.274 10.0349 2.89557C8.7188 3.51713 7.69097 4.40091 7.08052 5.43583C7.0588 5.46998 7.02027 5.49732 6.97216 5.51274C5.65987 5.94384 4.54774 6.63131 3.76592 7.49467C2.9841 8.35804 2.56494 9.36159 2.5575 10.3879C2.54666 13.2903 5.86145 15.7098 9.94777 15.7868C11.3032 15.8135 12.6436 15.5797 13.8271 15.11V18.4016C13.8271 18.524 13.8956 18.6413 14.0176 18.7279C14.1395 18.8144 14.3049 18.863 14.4773 18.863C14.6497 18.863 14.8151 18.8144 14.937 18.7279C15.059 18.6413 15.1275 18.524 15.1275 18.4016V15.1084C16.2535 15.5546 17.5221 15.7881 18.8118 15.7868H19.0079C23.0931 15.7098 26.4079 13.2919 26.3971 10.3894C26.3898 9.36291 25.9707 8.35911 25.1889 7.49548C24.4071 6.63184 23.2949 5.9441 21.9824 5.51274ZM18.9743 14.8639C17.6773 14.8897 16.4012 14.6278 15.3236 14.1148C15.2608 14.0859 15.1953 14.0602 15.1275 14.0379V10.6924L19.9691 8.97432C20.1234 8.91966 20.2408 8.82372 20.2955 8.70762C20.3501 8.59152 20.3376 8.46475 20.2606 8.35522C20.1835 8.24569 20.0484 8.16236 19.8848 8.12356C19.7212 8.08476 19.5426 8.09368 19.3882 8.14834L15.1275 9.65649V7.32697C15.1275 7.20459 15.059 7.08722 14.937 7.00069C14.8151 6.91415 14.6497 6.86553 14.4773 6.86553C14.3049 6.86553 14.1395 6.91415 14.0176 7.00069C13.8956 7.08722 13.8271 7.20459 13.8271 7.32697V11.5023L9.56634 9.99027C9.41201 9.9356 9.2334 9.92669 9.06981 9.96549C8.90622 10.0043 8.77105 10.0876 8.69403 10.1971C8.617 10.3067 8.60444 10.4334 8.65911 10.5495C8.71378 10.6656 8.83119 10.7616 8.98552 10.8162L13.8271 12.5344V14.034C13.7593 14.0564 13.6938 14.0821 13.631 14.1109C12.5543 14.6257 11.278 14.8889 9.98028 14.8639C8.56064 14.8384 7.19499 14.4725 6.10584 13.8258C5.01669 13.179 4.26825 12.2896 3.98247 11.3023C3.6967 10.3151 3.89044 9.28822 4.53212 8.3891C5.17381 7.48999 6.2256 6.77161 7.51613 6.35102C7.86095 6.2381 8.13355 6.03749 8.28008 5.78883C8.79157 4.92177 9.65273 4.18135 10.7553 3.66061C11.858 3.13987 13.1529 2.86204 14.4773 2.86204C15.8017 2.86204 17.0966 3.13987 18.1992 3.66061C19.3019 4.18135 20.163 4.92177 20.6745 5.78883C20.8215 6.03691 21.094 6.23693 21.4385 6.34949C22.7302 6.7696 23.7832 7.48796 24.4258 8.38739C25.0683 9.28683 25.2625 10.3143 24.9766 11.3021C24.6908 12.2899 23.9417 13.1798 22.8516 13.8267C21.7615 14.4735 20.3948 14.8391 18.9743 14.8639Z" fill="#EC741E" stroke="#EC741E" stroke-width="0.5"/>
</svg>
