<svg width="7" height="7" viewBox="0 0 7 7" fill="none" xmlns="http://www.w3.org/2000/svg">
<path d="M0.646447 5.89645C0.451184 6.09171 0.451184 6.40829 0.646447 6.60355C0.841709 6.79882 1.15829 6.79882 1.35355 6.60355L0.646447 5.89645ZM7 0.75C7 0.473858 6.77614 0.25 6.5 0.25H2C1.72386 0.25 1.5 0.473858 1.5 0.75C1.5 1.02614 1.72386 1.25 2 1.25H6V5.25C6 5.52614 6.22386 5.75 6.5 5.75C6.77614 5.75 7 5.52614 7 5.25V0.75ZM1.35355 6.60355L6.85355 1.10355L6.14645 0.396447L0.646447 5.89645L1.35355 6.60355Z" fill="#314552"/>
</svg>
