<svg width="7" height="7" viewBox="0 0 7 7" fill="none" xmlns="http://www.w3.org/2000/svg">
<path d="M0.396447 5.89645C0.201184 6.09171 0.201184 6.40829 0.396447 6.60355C0.591709 6.79882 0.908291 6.79882 1.10355 6.60355L0.396447 5.89645ZM6.75 0.75C6.75 0.473858 6.52614 0.25 6.25 0.25H1.75C1.47386 0.25 1.25 0.473858 1.25 0.75C1.25 1.02614 1.47386 1.25 1.75 1.25H5.75V5.25C5.75 5.52614 5.97386 5.75 6.25 5.75C6.52614 5.75 6.75 5.52614 6.75 5.25V0.75ZM1.10355 6.60355L6.60355 1.10355L5.89645 0.396447L0.396447 5.89645L1.10355 6.60355Z" fill="white"/>
</svg>
