<svg width="49" height="36" viewBox="0 0 49 36" fill="none" xmlns="http://www.w3.org/2000/svg">
<path d="M25.2336 8.08676C25.0792 8.02228 24.9032 7.98828 24.724 7.98828C24.5448 7.98828 24.3689 8.02228 24.2144 8.08676L6.26144 15.5818L7.28061 16.8116L24.724 9.52914L42.1674 16.8123L43.1866 15.5825L36.7852 12.9104V9.415C36.7852 9.22581 36.6793 9.04437 36.4908 8.91059C36.3023 8.77682 36.0466 8.70166 35.7801 8.70166H32.7648C32.4982 8.70166 32.2426 8.77682 32.0541 8.91059C31.8656 9.04437 31.7597 9.22581 31.7597 9.415V10.811L25.2336 8.08676ZM14.6731 18.6884H25.7291V22.9685H14.6731V18.6884Z" fill="#EC741E"/>
<path fill-rule="evenodd" clip-rule="evenodd" d="M24.724 10.8418L10.6527 16.5485V26.5353H5.62723C5.36066 26.5353 5.10501 26.6105 4.91652 26.7442C4.72803 26.878 4.62213 27.0594 4.62213 27.2486C4.62213 27.4378 4.72803 27.6193 4.91652 27.753C5.10501 27.8868 5.36066 27.962 5.62723 27.962H41.8106C42.0772 27.962 42.3329 27.8868 42.5213 27.753C42.7098 27.6193 42.8157 27.4378 42.8157 27.2486C42.8157 27.0594 42.7098 26.878 42.5213 26.7442C42.3329 26.6105 42.0772 26.5353 41.8106 26.5353H38.7953V16.5485L24.724 10.8418ZM24.724 12.4846L12.6629 17.3767V26.5353H28.7444V18.6885H34.775V26.5353H36.7852V17.376L24.724 12.4846Z" fill="#EC741E"/>
</svg>
