<svg width="27" height="27" viewBox="0 0 27 27" fill="none" xmlns="http://www.w3.org/2000/svg">
<g clip-path="url(#clip0_2407_179)">
<path d="M26.8275 6.11996C26.77 5.75496 26.603 5.41604 26.3485 5.14815C26.094 4.88026 25.7641 4.69606 25.4025 4.61996L21 3.65246C20.5279 3.5495 20.0392 3.54911 19.5669 3.65133C19.0946 3.75355 18.6498 3.95599 18.2625 4.24496L5.25 13.725L1.605 13.575C1.31198 13.5645 1.02311 13.6466 0.779419 13.8096C0.535723 13.9726 0.349591 14.2083 0.247461 14.4832C0.14533 14.758 0.132394 15.058 0.210489 15.3406C0.288584 15.6232 0.45374 15.8741 0.682498 16.0575L4.4325 19.005C4.8825 19.5525 5.1825 19.4475 12.63 15.39L13.3275 22.455C13.3391 22.6477 13.4052 22.8332 13.518 22.9898C13.6309 23.1465 13.7859 23.2679 13.965 23.34C14.0937 23.3915 14.2314 23.4169 14.37 23.415C14.6489 23.4064 14.9154 23.2972 15.12 23.1075L16.9125 21.4725C17.091 21.3071 17.2119 21.089 17.2575 20.85L18.9 11.925C21.5775 10.425 24.1125 9.01496 25.92 7.98746C26.2434 7.80556 26.5035 7.52929 26.6657 7.19558C26.8279 6.86187 26.8843 6.48661 26.8275 6.11996ZM25.1775 6.68246C23.3025 7.74746 20.6775 9.23996 17.8575 10.785L17.55 10.9575L15.8025 20.46L14.7 21.465L13.875 12.99L12.8775 13.5C7.5 16.5 5.7075 17.37 5.0925 17.64L1.8675 15.0825L5.6775 15.2475L19.1775 5.45246C19.3895 5.29339 19.6328 5.18107 19.8913 5.12289C20.1499 5.06472 20.4178 5.06202 20.6775 5.11496L25.065 6.05996C25.1326 6.07222 25.1945 6.10575 25.2418 6.15567C25.289 6.20558 25.319 6.26928 25.3275 6.33746C25.3429 6.40345 25.3367 6.47266 25.3097 6.53481C25.2826 6.59697 25.2363 6.64875 25.1775 6.68246Z" fill="#EC741E"/>
<path d="M5.25001 9.40507L7.92001 10.1551L9.15001 9.26257L6.15001 8.39257L7.50001 7.56757L11.6025 7.44757L13.3275 6.19507L7.50001 6.37507C7.31629 6.36513 7.1337 6.40947 6.97501 6.50257L5.00251 7.65007C4.83943 7.74667 4.7086 7.88939 4.62651 8.06023C4.54442 8.23107 4.51474 8.42239 4.54121 8.61008C4.56767 8.79776 4.64911 8.97341 4.77525 9.11488C4.90138 9.25636 5.06658 9.35733 5.25001 9.40507Z" fill="#EC741E"/>
</g>
<defs>
<clipPath id="clip0_2407_179">
<rect width="27" height="27" fill="white"/>
</clipPath>
</defs>
</svg>
