<svg width="90" height="95" viewBox="0 0 90 95" fill="none" xmlns="http://www.w3.org/2000/svg">
<g id="Capa_1" clip-path="url(#clip0_626_93)">
<path id="Vector" d="M1.62024 40.4L12.2202 45.65L12.0202 48.88C11.9202 50.09 12.8302 51.1 13.9402 51.2L14.2402 51.2C15.2502 51.3 16.1602 51.3 17.1702 51.2L17.4702 51.2C18.4802 51 19.2902 50.19 19.3902 49.28L21.1102 50.19L20.9102 54.13C20.8102 55.34 21.7202 56.35 22.8302 56.45L23.1302 56.45C24.1402 56.55 25.0502 56.55 26.0602 56.45L26.3602 56.45C27.5702 56.25 28.3802 55.24 28.2802 54.13L28.2802 53.73L37.8802 58.48L37.8802 82.72C37.7702 89.08 41.0102 94.24 45.0502 94.24C49.0902 94.24 52.2202 89.09 52.2202 82.83L52.2202 58.49L61.7202 53.74L61.7202 54.14C61.6202 55.25 62.4302 56.26 63.6402 56.46L63.9402 56.46C64.9502 56.56 65.8602 56.56 66.8702 56.46L67.1702 56.46C68.2802 56.36 69.1902 55.35 69.0902 54.14L68.8902 50.2L70.6102 49.29C70.7102 50.2 71.5202 51.01 72.5302 51.21L72.8302 51.21C73.8402 51.31 74.7502 51.31 75.7602 51.21L76.0602 51.21C77.1702 51.11 78.0802 50.1 77.9802 48.89L77.7702 45.76L88.3702 40.51C89.3802 40.01 89.9902 38.99 89.9902 37.89C89.9902 36.07 88.4702 34.76 86.6602 34.86L52.2102 38.5L52.2102 29.91C52.2102 25.06 51.9102 20.52 51.4002 16.48L62.8102 4.85999C63.1102 4.45999 63.2102 3.84999 63.0102 3.23999C62.7102 2.22999 61.8002 1.71999 61.0902 2.02999L49.2702 5.76999C48.0602 2.12999 46.6502 0.00998309 45.0302 0.00998295C43.4102 0.00998281 42.0002 2.12999 40.7902 5.76998L28.9702 2.02999C28.2602 1.72998 27.3502 2.22998 27.0502 3.23998C26.8502 3.84999 26.9502 4.44998 27.2502 4.85999L38.6602 16.48C38.1602 20.52 37.8502 25.07 37.8502 29.91L37.8502 38.5L3.30024 34.76C1.48025 34.66 -0.0297572 35.97 -0.0297573 37.79C-0.0297574 38.9 0.580235 39.91 1.59024 40.41L1.62024 40.4Z" fill="#D1D1D1"/>
</g>
<defs>
<clipPath id="clip0_626_93">
<rect width="90" height="94.24" fill="white" transform="translate(90 94.24) rotate(-180)"/>
</clipPath>
</defs>
</svg>
