<svg width="1440" height="1610" viewBox="0 0 1440 1610" fill="none" xmlns="http://www.w3.org/2000/svg">
<g clip-path="url(#clip0_593_8763)">
<rect width="1440" height="1606" fill="#F4F3F2"/>
<g clip-path="url(#clip1_593_8763)">
<path d="M1021.73 464.626L1008.15 451.05L1021.73 437.473L1010.63 426.372L997.05 439.948L983.474 426.372L972.372 437.473L985.948 451.05L972.372 464.626L983.474 475.728L997.05 462.151L1010.63 475.728L1021.73 464.626Z" fill="#FFFFFD"/>
</g>
<g clip-path="url(#clip2_593_8763)">
<path d="M574.519 1483.84H562.919V1472.24H553.434V1483.84H541.834V1493.33H553.434V1504.93H562.919V1493.33H574.519V1483.84Z" fill="#FFFFFD"/>
</g>
<g clip-path="url(#clip3_593_8763)">
<path d="M1359.13 1513.55L1349.58 1513.76L1349.36 1504.21L1341.55 1504.39L1341.77 1513.94L1332.21 1514.15L1332.39 1521.96L1341.94 1521.75L1342.15 1531.3L1349.96 1531.13L1349.75 1521.58L1359.3 1521.36L1359.13 1513.55Z" fill="#FFFFFD"/>
</g>
<g clip-path="url(#clip4_593_8763)">
<path d="M554.04 974.84H553.918L549.29 982.89L549.351 983.012L549.108 983.439L562.687 1007.04L551.787 1025.95H521.645L505.509 1054.01L521.645 1082.06H553.979L570.116 1054.01L557.937 1032.72L569.994 1011.74H593.438L606.53 1034.43H638.863L655 1006.37L638.863 978.316H611.523L598.126 955.018H565.488L554.04 974.84ZM526.699 1073.28L515.556 1053.94L526.699 1034.61H548.986L560.129 1053.94L548.986 1073.28H526.699ZM571.09 964.959H592.402L603.059 983.439L592.402 1001.92H571.09L560.434 983.439L571.09 964.959ZM644.953 1006.43L633.809 1025.77H611.523L600.745 1007.1L612.314 987.038H633.809L644.953 1006.43Z" fill="#FFFFFD"/>
<path d="M583.573 832H550.874L537.477 855.298H510.137L494 883.293L510.137 911.349H542.471L555.562 888.66H579.006L591.063 909.641L578.823 930.866L594.96 958.921H627.294L643.43 930.866L627.294 902.81H597.152L586.252 883.903L599.831 860.3L599.588 859.873L599.649 859.751L595.021 851.7H594.899L583.573 832ZM600.014 950.2L588.871 930.866L600.014 911.532H622.301L633.444 930.866L622.301 950.2H600.014ZM588.566 860.3L577.91 878.78H556.598L545.88 860.3L556.537 841.819H577.849L588.566 860.3ZM515.191 863.959H536.686L548.255 884.025L537.538 902.688H515.191L504.047 883.293L515.191 863.959Z" fill="#FFFFFD"/>
</g>
<g clip-path="url(#clip5_593_8763)">
<path opacity="0.59" d="M1000.06 113.325C1028.97 88.1101 1077.04 57.1398 1115.41 79.9652C1140.42 94.8406 1148.9 125.469 1150.66 152.733C1152.85 187.215 1144.95 222.282 1132.28 254.179C1119.85 285.442 1100.83 315.583 1073.53 335.872C1046.52 355.966 1013.08 359.38 982.36 345.968C886.121 302.561 941.017 164.731 1000.06 113.325Z" fill="white"/>
</g>
<g clip-path="url(#clip6_593_8763)">
<path d="M1011.79 1397.14H1011.9L1016.11 1389.84L1016.06 1389.73L1016.28 1389.35L1003.93 1367.95L1013.84 1350.81H1041.26L1055.94 1325.38L1041.26 1300H1011.85L997.168 1325.43L1008.3 1344.67L997.334 1363.69H976.007L964.096 1343.07H934.68L920 1368.5L934.68 1393.94H959.554L971.741 1415.06H1001.43L1011.79 1397.14ZM1036.72 1307.85L1046.86 1325.43L1036.72 1342.96H1016.45L1006.31 1325.43L1016.45 1307.91H1036.72V1307.85ZM996.337 1406.1H976.948L967.254 1389.35L976.948 1372.59H996.337L1006.03 1389.35L996.337 1406.1ZM929.141 1368.5L939.278 1350.98H959.554L969.303 1367.84L958.778 1386.03H939.278L929.141 1368.5Z" fill="#FFFFFD"/>
</g>
<g clip-path="url(#clip7_593_8763)">
<path d="M130.485 695.701C133.068 695.701 135.461 694.751 137.285 693.194L151.378 701.323C151.15 702.197 150.998 703.146 150.998 704.096C150.998 708.654 153.924 712.529 157.988 713.973V730.155C153.924 731.598 150.998 735.473 150.998 740.031C150.998 740.297 150.998 740.601 151.036 740.867L137.285 748.806C135.461 747.249 133.068 746.299 130.485 746.299C124.711 746.299 120 751.009 120 756.821C120 762.595 124.711 767.305 130.485 767.305C136.259 767.305 140.97 762.595 140.97 756.821C140.97 756.175 140.894 755.53 140.78 754.922L153.886 747.362C155.785 749.376 158.482 750.591 161.445 750.591C164.408 750.591 167.106 749.338 169.005 747.362L182.111 754.922C181.997 755.53 181.921 756.175 181.921 756.821C181.921 761.379 184.846 765.254 188.911 766.697V783.639C184.846 785.083 181.921 788.957 181.921 793.516C181.921 799.29 186.632 804 192.406 804C198.18 804 202.891 799.29 202.891 793.516C202.891 788.957 199.965 785.083 195.901 783.639V766.697C199.965 765.254 202.891 761.379 202.891 756.821C202.891 756.175 202.815 755.53 202.701 754.922L215.807 747.362C217.706 749.376 220.403 750.591 223.366 750.591C226.329 750.591 229.027 749.338 230.964 747.362L244.07 754.922C243.956 755.53 243.88 756.175 243.88 756.821C243.88 762.595 248.591 767.305 254.365 767.305C260.139 767.305 264.85 762.595 264.85 756.821C264.85 756.175 264.774 755.53 264.66 754.922L277.766 747.362C279.665 749.376 282.362 750.591 285.325 750.591C291.1 750.591 295.81 745.881 295.81 740.107C295.81 735.549 292.885 731.674 288.82 730.231V713.973C292.885 712.529 295.81 708.654 295.81 704.096C295.81 698.322 291.1 693.612 285.325 693.612C283.046 693.612 280.957 694.334 279.247 695.549L264.622 687.116C264.736 686.508 264.812 685.863 264.812 685.217C264.812 679.443 260.101 674.733 254.327 674.733C248.553 674.733 243.842 679.443 243.842 685.217C243.842 685.863 243.918 686.508 244.032 687.116L229.406 695.549C227.697 694.334 225.608 693.612 223.328 693.612C221.049 693.612 218.96 694.334 217.25 695.549L202.815 687.116C202.929 686.508 203.005 685.863 203.005 685.217C203.005 680.659 200.079 676.784 196.015 675.341V658.361C200.079 656.917 203.005 653.043 203.005 648.484C203.005 642.71 198.294 638 192.52 638C186.746 638 182.035 642.71 182.035 648.484C182.035 653.043 184.96 656.917 189.025 658.361V675.303C184.96 676.746 182.035 680.621 182.035 685.179C182.035 685.825 182.111 686.47 182.225 687.078L167.599 695.511C165.89 694.296 163.801 693.574 161.521 693.574C159.242 693.574 157.153 694.296 155.443 695.511L140.818 687.078C140.932 686.47 141.008 685.825 141.008 685.179C141.008 679.367 136.297 674.695 130.523 674.695C124.711 674.695 120 679.405 120 685.217C120 690.991 124.711 695.701 130.485 695.701ZM199.32 748.844C197.496 747.286 195.103 746.337 192.52 746.337C189.937 746.337 187.543 747.286 185.72 748.844L171.968 740.905C172.006 740.639 172.006 740.335 172.006 740.069C172.006 735.511 169.081 731.636 165.016 730.193V713.973C169.081 712.529 172.006 708.654 172.006 704.096C172.006 703.146 171.892 702.197 171.626 701.323L185.72 693.194C187.543 694.751 189.937 695.701 192.52 695.701C195.103 695.701 197.496 694.751 199.32 693.194L213.413 701.323C213.185 702.197 213.033 703.146 213.033 704.096C213.033 708.654 215.959 712.529 220.023 713.973V730.155C215.959 731.598 213.033 735.473 213.033 740.031C213.033 740.297 213.033 740.601 213.071 740.867L199.32 748.844ZM261.317 748.844C259.493 747.286 257.1 746.337 254.517 746.337C251.934 746.337 249.54 747.286 247.717 748.844L233.965 740.905C234.003 740.639 234.003 740.335 234.003 740.069C234.003 735.511 231.078 731.636 227.013 730.193V713.973C231.078 712.529 234.003 708.654 234.003 704.096C234.003 703.146 233.851 702.197 233.623 701.323L247.717 693.194C249.54 694.751 251.934 695.701 254.517 695.701C257.1 695.701 259.493 694.751 261.317 693.194L275.41 701.323C275.182 702.197 275.03 703.146 275.03 704.096C275.03 708.654 277.956 712.529 282.02 713.973V730.155C277.956 731.598 275.03 735.473 275.03 740.031C275.03 740.297 275.03 740.601 275.068 740.867L261.317 748.844Z" fill="#FFFFFD"/>
</g>
<g clip-path="url(#clip8_593_8763)">
<path opacity="0.59" d="M108.331 1090.44C113.331 1119.57 114.421 1163.62 84.0053 1179.74C64.1916 1190.22 40.5806 1183.53 21.97 1173.76C-1.60342 1161.4 -21.5299 1142.12 -37.4335 1121C-53.0363 1100.29 -65.2178 1075.67 -67.624 1049.59C-69.9926 1023.74 -58.8263 1000.36 -37.6967 985.515C29.4518 939.514 98.1418 1030.95 108.331 1090.44Z" fill="white"/>
</g>
<path d="M-2 231C168 231 441 245 420 452C405.732 592.643 716.103 767.601 937 785C1157.9 802.399 1503.35 1124.17 1234 1164C950 1206 615 894.001 -23 1585" stroke="#EBEAE8" stroke-width="60"/>
<g clip-path="url(#clip9_593_8763)">
<path opacity="0.59" d="M1146.29 911.755C1110.98 869.519 1105.79 812.225 1117.91 760.209C1132.1 699.375 1166 644.66 1213.05 603.774C1261.05 562.047 1323.42 534.69 1387.54 534C1421.02 533.64 1454.56 540.929 1485.61 553.288C1515.97 565.377 1543.79 583.585 1566.14 607.493C1588.76 631.671 1604.03 661.608 1611.89 693.675C1618.55 720.793 1616.78 748.69 1609.22 775.448C1596.08 822.034 1561.55 867 1510.96 873.959C1491.94 876.269 1474.72 868.199 1457.38 861.66C1448.83 858.42 1440.13 855.901 1430.95 855.541C1425.28 855.331 1419.34 856.32 1413.79 857.52C1395.19 861.6 1379.17 873.569 1366.18 886.918C1352.31 901.136 1340.7 917.275 1327.62 932.184C1315.2 946.312 1301.01 959.691 1283.13 966.47C1261.92 974.54 1239 970.91 1218.39 962.841C1190.87 952.072 1165.28 934.463 1146.29 911.755Z" fill="white"/>
</g>
</g>
<defs>
<clipPath id="clip0_593_8763">
<rect width="1440" height="1610" fill="white"/>
</clipPath>
<clipPath id="clip1_593_8763">
<rect width="54.1" height="54.1" fill="white" transform="translate(997.05 412.795) rotate(45)"/>
</clipPath>
<clipPath id="clip2_593_8763">
<rect width="32.6846" height="32.6846" fill="white" transform="translate(541.834 1472.24)"/>
</clipPath>
<clipPath id="clip3_593_8763">
<rect width="26.924" height="26.924" fill="white" transform="translate(1332 1504.6) rotate(-1.27228)"/>
</clipPath>
<clipPath id="clip4_593_8763">
<rect width="161" height="250" fill="white" transform="translate(494 832)"/>
</clipPath>
<clipPath id="clip5_593_8763">
<rect width="221" height="282" fill="white" transform="translate(921 96)"/>
</clipPath>
<clipPath id="clip6_593_8763">
<rect width="136" height="115" fill="white" transform="translate(920 1300)"/>
</clipPath>
<clipPath id="clip7_593_8763">
<rect width="176" height="166" fill="white" transform="translate(120 638)"/>
</clipPath>
<clipPath id="clip8_593_8763">
<rect width="179" height="212" fill="white" transform="translate(-68 973)"/>
</clipPath>
<clipPath id="clip9_593_8763">
<rect width="504" height="437" fill="white" transform="translate(1112 534)"/>
</clipPath>
</defs>
</svg>
