<?xml version="1.0" encoding="utf-8"?>
<!-- Generator: Adobe Illustrator 25.1.0, SVG Export Plug-In . SVG Version: 6.00 Build 0)  -->
<svg version="1.1" id="Capa_1" xmlns="http://www.w3.org/2000/svg" xmlns:xlink="http://www.w3.org/1999/xlink" x="0px" y="0px"
	 viewBox="0 0 1440 660" style="enable-background:new 0 0 1440 660;" xml:space="preserve">
<style type="text/css">
	.st0{opacity:0.15;clip-path:url(#SVGID_2_);fill:#006DFF;}
</style>
<g>
	<defs>
		<rect id="SVGID_1_" width="1440" height="660"/>
	</defs>
	<clipPath id="SVGID_2_">
		<use xlink:href="#SVGID_1_"  style="overflow:visible;"/>
	</clipPath>
	<path class="st0" d="M1423.8,282.2c-18.6,4.7-34.6,18.5-47.6,33.9c-13.9,16.4-25.5,35-38.6,52.2c-12.4,16.3-26.6,31.7-44.5,39.6
		c-21.2,9.3-44.1,5.1-64.7-4.2c-27.5-12.4-53.1-32.7-72.1-58.9c-35.3-48.7-40.5-114.8-28.4-174.9c13.2-65.1,43.2-124,85-169.9H0v139
		c59.9-20.1,116.1,71.1,125.3,132.6c5,33.6,6.1,84.4-24.3,103c-19.8,12.1-43.4,4.4-62-6.9c-14.4-8.7-27.3-20.3-38.9-33.6v205.8
		c0,0,504,128.1,734,64.1s706,19,706,19V279.9C1434.6,279.8,1429,280.8,1423.8,282.2z M802.3,364.5c-12.4,30.1-31.4,59.1-58.7,78.6
		c-27,19.3-60.5,22.6-91.2,9.7C556.1,411.1,611,278.5,670.1,229c28.9-24.3,77-54.1,115.4-32.1c25,14.3,33.5,43.8,35.2,70
		C822.9,300.1,815,333.9,802.3,364.5z"/>
</g>
</svg>
