<svg width="212" height="23" viewBox="0 0 212 23" fill="none" xmlns="http://www.w3.org/2000/svg">
<path d="M173.714 1.72888H165.07V2.78124L167.325 3.30742V19.3183C167.024 19.6942 166.573 20.1452 165.747 20.1452C164.243 20.1452 163.341 18.8673 162.965 18.0404L160.785 14.1317C159.883 12.478 158.906 11.7263 156.801 11.5008V11.2753C159.733 11.2001 162.289 9.17056 162.289 6.31416C162.289 3.00674 159.282 1.65371 155.749 1.65371H147.856V2.70607L150.412 3.23225V19.5438L147.481 20.1452L140.114 0C139.212 1.05236 138.31 1.87921 137.483 2.25506L137.784 3.08191L131.019 19.5438L128.989 20.07V21.1224H135.078V20.07L133.048 19.5438L135.303 13.5303H141.542L143.722 19.4686L141.392 20.07V21.1224H156.35V20.07L153.87 19.5438V12.027C155.599 12.1021 156.35 12.929 157.177 14.5075L160.109 19.7693C161.086 21.4982 162.589 22.4002 164.393 22.4002C165.822 22.4002 166.874 21.5734 167.175 21.2727H173.865C179.578 21.2727 184.163 16.9129 184.163 11.5008C184.238 5.78798 179.803 1.72888 173.714 1.72888ZM135.829 12.1021L138.46 5.18663L141.016 12.1021H135.829ZM155.223 10.5988C154.922 10.5988 154.321 10.5988 153.87 10.5988V3.30742H155.524C157.628 3.30742 158.981 4.88595 158.906 6.76517C158.831 8.71955 157.478 10.5988 155.223 10.5988ZM173.564 19.619H170.783V3.30742H173.639C178.074 3.30742 180.78 6.38933 180.78 11.4256C180.78 16.4619 177.924 19.619 173.564 19.619Z" fill="white"/>
<path d="M31.3453 19.619L24.1291 0C23.2271 1.05236 22.325 1.87921 21.4982 2.25506L21.7989 3.08191L15.0337 19.5438L13.6055 20.07L13.1545 21.1224H19.0928V20.07L17.0632 19.5438L19.3183 13.5303H25.5573L27.8123 19.5438L25.4821 20.1452V21.1975H33.5251V20.1452L31.3453 19.619ZM19.9196 12.1021L22.5505 5.11146L25.1063 12.027H19.9196V12.1021Z" fill="white"/>
<path d="M14.1317 16.2364L13.4552 15.8606L9.17056 19.6942H5.63764V3.30742L7.74236 2.78124V1.72888H0V2.78124L2.17989 3.30742V19.5438L0 20.1452V21.1975H12.1773L14.1317 16.2364Z" fill="white"/>
<path d="M48.0326 1.72888V2.78124L50.3629 3.30742L45.3266 16.3867L39.9145 3.30742L42.4702 2.78124V1.72888H33.8258V2.78124L36.3064 3.30742L43.9735 21.874H44.8004L52.4676 3.38259H52.5428L54.9481 2.78124V1.72888H48.0326Z" fill="white"/>
<path d="M125.005 1.72888V2.78124L127.335 3.30742C127.335 3.30742 127.486 13.0042 127.411 15.4096C127.335 18.266 125.08 20.1452 122.149 20.1452C119.142 20.1452 116.962 18.3411 116.887 15.1089V3.30742L119.142 2.78124V1.72888H111.325V2.78124L113.58 3.30742V15.3344C113.73 19.4687 117.037 22.1747 121.322 22.1747C125.607 22.1747 128.914 19.6942 129.064 15.3344L129.215 3.38259L131.47 2.85641V1.72888H125.005Z" fill="white"/>
<path d="M209.795 19.5438L202.654 0C201.752 1.05236 200.85 1.87921 200.023 2.25506L200.324 3.08191L193.559 19.619L192.431 20.07L190.853 19.5438V3.30742L193.258 2.78124V1.72888H185.065V2.78124L187.395 3.30742V19.5438L185.14 20.07V21.1224H197.618V20.07L195.588 19.5438L197.844 13.5303H204.083L206.262 19.4686L203.932 20.07V21.1224H211.975V20.07L209.795 19.5438ZM198.37 12.1021L201.001 5.18663L203.556 12.1021H198.37Z" fill="white"/>
<path d="M83.0612 1.72888V2.78124L85.4666 3.30742L85.6169 16.0861L73.3645 1.72888H68.1778V2.78124L70.5081 3.30742L70.7336 3.38258L70.5081 19.5438L68.1027 20.1452L60.7361 0C59.8341 1.05236 58.9321 1.87921 58.1052 2.25506L58.4059 3.08191L51.6408 19.5438L49.6112 20.1452V21.1975H55.6999V20.1452L53.6703 19.619L55.9254 13.6055H62.1643L64.3442 19.5438L62.014 20.1452V21.1975H74.8678V20.1452L72.3873 19.5438L72.2369 5.4873L86.2183 21.9492H87.1203L87.2706 3.38258L89.6008 2.8564V1.72888H83.0612ZM56.5267 12.1021L59.1576 5.18663L61.7133 12.1021H56.5267Z" fill="white"/>
<path d="M103.582 11.2001V12.2525L105.762 12.7787V19.0928C104.71 19.9949 102.981 20.5962 101.327 20.5962C96.8922 20.5962 94.0358 16.8378 94.0358 11.6511C94.0358 6.61485 96.8171 2.33024 101.402 2.33024C104.334 2.33024 106.965 4.43496 107.942 7.66721L108.543 7.29137V1.20271L108.017 0.902039L106.814 2.40541C105.537 1.72889 103.432 1.05238 101.402 1.05238C95.3889 1.05238 90.4277 5.93833 90.4277 11.8015C90.4277 17.8901 94.7123 22.1747 100.575 22.1747C102.981 22.1747 105.161 21.4231 106.89 20.07L108.619 21.1975H109.145V12.8538L110.949 12.1773V11.2753H103.582V11.2001Z" fill="white"/>
</svg>
