<svg width="258" height="25" viewBox="0 0 258 25" fill="none" xmlns="http://www.w3.org/2000/svg">
<path d="M105.3 1.6001C105.2 3.2001 103.9 4.3001 103.2 5.7001C102.9 6.5001 102.2 7.0001 101.7 7.8001C101.2 8.3001 100.8 8.8001 100.4 9.3001C100.5 9.7001 100.9 9.8001 101.1 10.1001C101.6 10.4001 101.7 11.0001 102.1 11.4001C102.4 11.4001 102.4 11.8001 102.7 11.7001C103.3 12.4001 103.8 13.0001 104.3 13.8001C104.4 14.1001 104.5 14.3001 104.7 14.5001C105.1 15.1001 105.4 15.7001 105.9 16.3001C106 17.0001 106.5 17.4001 106.7 18.1001C107 18.4001 107.1 18.8001 107.3 19.2001C107.7 20.0001 107.9 20.8001 108.3 21.6001C108.4 21.8001 108.3 21.9001 108.2 22.1001C108 22.2001 107.9 22.0001 107.7 22.0001C106.8 21.7001 105.9 21.2001 105 20.6001C104.1 19.9001 103.1 19.3001 102.2 18.6001C101.9 18.5001 101.7 18.1001 101.4 17.9001C100.5 17.4001 99.9 16.6001 99 16.1001C98.6 15.8001 98.2 15.5001 97.8 15.2001C97.5 15.2001 97.4 14.8001 97.1 14.7001C96.5 14.3001 95.9 13.8001 95.2 13.4001C95.1 13.5001 95.2 13.6001 95.1 13.7001C94.7 14.1001 94.8 14.8001 94.5 15.3001C94.5 16.0001 94 16.5001 93.8 17.1001C93.3 18.1001 92.8 19.1001 92.2 20.0001C91.5 21.0001 91 22.2001 90 23.0001C89.8 23.3001 89.5 23.4001 89.2 23.6001C89.1 23.6001 88.9 23.6001 88.9 23.4001C88.8 23.2001 88.9 22.8001 88.8 22.6001C88.9 22.3001 88.9 21.9001 88.9 21.5001L88.8 21.3001C88.8 20.8001 89.1 20.4001 89 19.8001C89.1 19.5001 89.2 19.1001 89.2 18.8001C89.4 18.4001 89.5 17.9001 89.5 17.4001C89.6 17.1001 89.7 16.8001 89.7 16.4001C89.8 16.1001 89.8 15.7001 90.1 15.5001C90.1 15.3001 90.1 15.1001 90.1 14.9001C90.4 13.9001 90.8 13.0001 91 12.1001C91 12.0001 90.9 12.0001 90.9 12.0001C90.2 12.0001 89.6 12.1001 89 11.9001C88 11.9001 86.9 11.7001 85.9 11.5001C85.5 11.4001 85 11.5001 84.6 11.2001C84.4 11.2001 84.1 11.3001 83.9 11.1001C83.4 10.9001 82.9 10.9001 82.4 10.6001C82 10.6001 81.8 10.4001 81.5 10.4001C81.2 10.4001 81 10.2001 80.8 10.0001V9.9001C81.4 9.1001 82.3 8.9001 83.1 8.6001C84 8.5001 85 8.5001 85.8 8.3001C86.3 8.2001 86.9 8.4001 87.5 8.3001C88.5 8.3001 89.4 8.5001 90.4 8.5001C90.7 8.5001 91 8.7001 91.3 8.7001V8.6001L90.4 7.3001C90.1 6.5001 89.4 5.8001 89.2 4.9001C89 4.7001 89.2 4.3001 89 4.0001C89 3.9001 89.1 3.8001 89.1 3.7001C89.3 3.6001 89.5 3.8001 89.7 3.6001C90.3 3.7001 90.8 3.9001 91.4 4.1001C92 4.3001 92.6 4.6001 93.2 5.0001C93.9 5.5001 94.7 5.8001 95.2 6.6001C95.3 6.7001 95.6 6.8001 95.7 6.7001C95.9 6.7001 95.9 6.5001 96 6.4001C96.7 5.9001 97.5 5.7001 98.2 5.2001C98.5 4.9001 98.9 4.9001 99.1 4.5001C99.3 4.4001 99.5 4.3001 99.7 4.2001C100.1 3.9001 100.5 3.6001 100.9 3.4001C101.1 3.4001 101.3 3.2001 101.5 3.1001C102.2 2.7001 103 2.4001 103.6 1.9001C103.7 1.5001 104.2 1.6001 104.5 1.5001C105 1.5001 105.2 1.4001 105.3 1.6001Z" fill="white"/>
<path d="M88.2 12.9C88.4 13.1 88.4 13.4 88.6 13.6L88.7 14.3L88.3 15C87.6 15.3 86.7 15.5 86.1 14.9C85.8 14.6 85.7 14.1 85.8 13.7L86 13C86.1 12.9 86.3 12.9 86.4 12.7C86.7 12.5 87.1 12.5 87.5 12.5C87.7 12.6 88.1 12.5 88.2 12.9Z" fill="white"/>
<path d="M86.5 17.1003C86.7 17.1003 86.9 17.3003 87.1 17.2003C87.4 17.3003 87.3 17.6003 87.6 17.7003C87.8 18.1003 88 18.6003 88.1 19.1003C88 19.4003 88.3 19.5003 88.2 19.8003H88.3C88.3 20.1003 88.3 20.4003 88.2 20.6003C88.2 21.1003 88 21.5003 87.8 21.9003C87.7 22.0003 87.6 22.3003 87.4 22.2003C87 22.3003 87 22.9003 86.5 22.8003C86.2 23.0003 85.8 22.9003 85.5 22.9003C85.3 22.8003 85 22.8003 84.9 22.6003C84.6 22.5003 84.2 22.2003 83.9 21.9003C83.8 21.6003 83.5 21.5003 83.5 21.2003C83.6 20.9003 83.4 20.5003 83.5 20.2003L83.4 19.6003L83.6 18.6003C84 18.4003 83.9 18.0003 84.2 17.8003C84.4 17.3003 85 17.2003 85.4 16.9003C85.6 16.9003 85.8 17.0003 85.9 16.8003C86.1 17.1003 86.3 17.3003 86.5 17.1003Z" fill="white"/>
<path d="M257 20.7002H112.5V20.9002H257V20.7002Z" fill="white"/>
<path d="M257.3 20.3003H112.1V21.2003H257.3V20.3003Z" fill="white"/>
<path d="M195.9 4.59997C196.4 6.19997 195.2 7.29997 194.8 8.69997C194.7 8.89997 194.4 8.79997 194.2 8.79997L194.1 8.69997C194.3 7.59997 195.1 6.59997 194.6 5.49997C194.5 4.99997 193.7 4.99997 193.9 4.49997C194 4.29997 194 3.99997 194.3 3.99997C195 3.89997 195.8 3.89997 195.9 4.59997Z" fill="white"/>
<path d="M196.9 5.1C197.5 5 199 4.5 199.5 4H199.9C199.9 5 199.8 6.7 199.8 8.4V15.4C199.8 16 199.9 16.3 200.5 16.4V16.8C199.9 16.8 199.4 16.7 198.8 16.7C198.3 16.7 197.7 16.8 197.2 16.8V16.4C197.8 16.3 197.9 16 197.9 15.6V9.7C197.9 8.7 197.8 7.3 197.8 6.6C197.8 5.9 197.4 5.4 196.9 5.4V5.1Z" fill="white"/>
<path d="M205.5 12.9002C205.3 12.9002 204.9 12.8002 204.6 12.8002C203.8 12.8002 202.9 13.2002 202.9 14.4002C202.9 15.2002 203.6 15.9002 204.3 15.9002C204.9 15.9002 205.2 15.8002 205.5 15.6002V12.9002ZM201.9 11.2002V9.5002C202.7 9.3002 203.4 9.2002 204.3 9.2002C205.9 9.2002 207.4 9.6002 207.4 11.4002C207.4 12.0002 207.3 13.0002 207.3 14.0002V14.6002C207.3 15.4002 207.4 15.7002 207.8 15.7002C207.9 15.7002 208.1 15.7002 208.2 15.6002L208.5 15.9002L207.1 17.0002C206.4 16.9002 205.8 16.6002 205.6 16.1002C205 16.6002 204.4 17.0002 203.6 17.0002C202.3 17.0002 201.1 16.2002 201.1 14.9002C201.1 13.0002 203 12.3002 204.7 12.3002C205 12.3002 205.3 12.4002 205.6 12.4002C205.6 11.4002 205.5 10.3002 204.3 10.3002C203.4 10.3002 202.9 10.6002 202.5 11.3002H201.9V11.2002Z" fill="white"/>
<path d="M223.4 6.9002H222.6C222 5.2002 220.2 4.5002 218.5 4.5002C215.2 4.5002 213.8 7.1002 213.8 10.2002C213.8 15.4002 217.7 16.3002 219.2 16.3002C220.7 16.3002 222.1 15.7002 222.9 14.4002L223.5 14.6002L222.9 16.6002C221.4 16.9002 220.4 17.0002 219.2 17.0002C213.6 17.0002 211.1 13.6002 211.1 10.3002C211.1 6.5002 214.1 3.7002 218.4 3.7002C220.9 3.7002 221.8 4.1002 223.2 4.4002L223.4 6.9002Z" fill="white"/>
<path d="M229.2 12.9002C229 12.9002 228.6 12.8002 228.3 12.8002C227.4 12.8002 226.6 13.2002 226.6 14.4002C226.6 15.2002 227.3 15.9002 228 15.9002C228.6 15.9002 228.9 15.8002 229.2 15.6002V12.9002ZM225.6 11.2002V9.5002C226.4 9.3002 227.1 9.2002 228 9.2002C229.6 9.2002 231.1 9.6002 231.1 11.4002C231.1 12.0002 231 13.0002 231 14.0002V14.6002C231 15.4002 231.2 15.7002 231.6 15.7002C231.7 15.7002 231.9 15.7002 232 15.6002L232.3 15.9002L230.9 17.0002C230.2 16.9002 229.6 16.6002 229.4 16.1002C228.8 16.6002 228.2 17.0002 227.4 17.0002C226.1 17.0002 224.9 16.2002 224.9 14.9002C224.9 13.0002 226.8 12.3002 228.5 12.3002C228.8 12.3002 229.1 12.4002 229.4 12.4002C229.4 11.4002 229.3 10.3002 228.1 10.3002C227.2 10.3002 226.7 10.6002 226.3 11.3002H225.6V11.2002Z" fill="white"/>
<path d="M234.3 6.1001C234.8 6.1001 235.3 6.5001 235.3 7.0001C235.3 7.5001 234.8 7.9001 234.3 7.9001C233.8 7.9001 233.3 7.5001 233.3 7.0001C233.2 6.5001 233.7 6.1001 234.3 6.1001ZM235.2 9.1001C235.2 9.9001 235.3 11.4001 235.3 12.9001V15.5001C235.3 16.1001 235.6 16.2001 236 16.3001V16.7001C235.4 16.7001 234.9 16.6001 234.3 16.6001C233.8 16.6001 233.3 16.6001 232.8 16.7001V16.3001C233.2 16.2001 233.5 16.1001 233.5 15.5001V13.3001C233.5 12.0001 233.4 11.3001 233.2 10.9001C233.1 10.5001 232.9 10.4001 232.4 10.3001V10.0001C233.3 9.8001 234.2 9.5001 234.8 9.1001H235.2Z" fill="white"/>
<path d="M236.9 16.4003C237.5 16.3003 237.9 15.9003 238.1 15.6003L239.9 13.4003L237.8 10.6003C237.4 10.2003 237.3 10.0003 236.8 9.80029V9.30029C237.4 9.30029 237.9 9.40029 238.5 9.40029C239.1 9.40029 239.6 9.40029 240.2 9.30029V9.70029C240 9.80029 239.8 9.80029 239.8 10.1003C239.8 10.2003 239.9 10.5003 240 10.7003L241 12.1003L241.9 10.9003C242.1 10.6003 242.2 10.4003 242.2 10.3003C242.2 10.0003 242 9.80029 241.7 9.70029V9.30029C242.2 9.30029 242.7 9.40029 243.2 9.40029C243.7 9.40029 244.2 9.40029 244.7 9.30029V9.70029C244 9.90029 243.6 10.3003 243.2 10.8003L241.6 12.7003L243.6 15.4003C243.9 15.8003 244.3 16.2003 244.8 16.4003V16.8003C244.2 16.8003 243.7 16.7003 243.2 16.7003C242.6 16.7003 242.1 16.7003 241.6 16.8003V16.4003C241.8 16.4003 242 16.2003 242 16.0003C242 15.9003 241.8 15.6003 241.7 15.4003L240.7 14.0003L239.7 15.3003C239.6 15.5003 239.4 15.8003 239.4 16.0003C239.4 16.3003 239.5 16.4003 239.8 16.4003V16.8003C239.3 16.8003 238.8 16.7003 238.3 16.7003C237.9 16.7003 237.5 16.7003 237.1 16.8003V16.4003" fill="white"/>
<path d="M249.6 12.9002C249.4 12.9002 249 12.8002 248.7 12.8002C247.8 12.8002 247 13.2002 247 14.4002C247 15.2002 247.7 15.9002 248.4 15.9002C249 15.9002 249.3 15.8002 249.6 15.6002V12.9002ZM246 11.2002V9.5002C246.8 9.3002 247.5 9.2002 248.4 9.2002C250.1 9.2002 251.5 9.6002 251.5 11.4002C251.5 12.0002 251.4 13.0002 251.4 14.0002V14.6002C251.4 15.4002 251.5 15.7002 251.9 15.7002C252 15.7002 252.2 15.7002 252.3 15.6002L252.6 15.9002L251.2 17.0002C250.5 16.9002 249.9 16.6002 249.7 16.1002C249.1 16.6002 248.5 17.0002 247.7 17.0002C246.4 17.0002 245.2 16.2002 245.2 14.9002C245.2 13.0002 247.1 12.3002 248.8 12.3002C249.1 12.3002 249.4 12.4002 249.7 12.4002C249.7 11.4002 249.6 10.3002 248.4 10.3002C247.5 10.3002 247 10.6002 246.6 11.3002H246V11.2002Z" fill="white"/>
<path d="M111.6 4.3H119C119.4 4.3 119.8 4.2 120.3 4C120.3 4.5 120.3 4.9 120.3 5.3C120.3 5.7 120.3 6 120.3 6.4H119.6C119.3 5.6 118.7 5.2 117.7 5.2H115C115 6.7 115 8.3 114.9 10H117.5C118.2 10 118.9 9.8 119 9H119.6C119.6 9.5 119.6 10 119.6 10.5C119.6 11 119.6 11.4 119.6 11.9H119C118.8 11.1 118.2 10.8 117.5 10.8H115C115 12.2 115 13.8 115 15.4C115 16 115.4 16.4 116.1 16.4V16.8C115.4 16.8 114.7 16.7 114 16.7C113.3 16.7 112.6 16.8 111.9 16.8V16.4C112.6 16.3 112.9 16 112.9 15.2V11.6C112.9 9.4 112.6 6.8 112.6 5.7C112.6 5.1 112.2 4.9 111.5 4.7V4.3" fill="white"/>
<path d="M121.6 9.30029C122.1 9.40029 122.7 9.40029 123.2 9.40029C123.7 9.40029 124.2 9.40029 124.7 9.30029V9.70029C124.1 9.80029 123.9 10.0003 123.9 10.5003C123.9 10.9003 124 11.7003 124 12.4003V13.8003C124 15.2003 124.7 15.8003 126 15.8003C126.5 15.8003 127 15.7003 127.4 15.4003V10.5003C127.4 10.1003 127.3 9.80029 126.7 9.70029V9.30029C127.3 9.40029 127.8 9.40029 128.4 9.40029C128.8 9.40029 129.3 9.40029 129.8 9.30029V9.70029C129.4 9.80029 129.2 10.0003 129.2 10.5003V15.0003C129.2 15.7003 129.4 16.0003 129.8 16.0003C130 16.0003 130.1 15.9003 130.3 15.9003L130.4 16.2003C130.2 16.3003 128.8 17.0003 128.7 17.0003C128.5 17.0003 127.7 16.3003 127.5 16.1003C127 16.5003 125.8 17.0003 125.1 17.0003C123.3 17.0003 122.3 15.7003 122.3 14.1003V12.4003C122.3 11.7003 122.2 11.0003 122.2 10.6003C122.2 10.0003 122.1 9.80029 121.6 9.80029V9.30029Z" fill="white"/>
<path d="M130.9 10.0001C132 9.8001 132.7 9.5001 133.4 9.1001H133.8C133.8 9.4001 133.8 9.7001 133.8 10.0001C134.5 9.6001 135.3 9.1001 136.1 9.1001C137.9 9.1001 138.7 10.2001 138.7 11.7001V15.5001C138.7 16.1001 138.8 16.2001 139.4 16.3001V16.7001C138.9 16.7001 138.5 16.6001 138 16.6001C137.4 16.6001 136.8 16.7001 136.2 16.7001V16.3001C136.7 16.2001 136.9 16.1001 136.9 15.5001V12.4001C136.9 11.4001 136.7 10.1001 135.4 10.1001C135 10.1001 133.8 10.3001 133.8 10.9001C133.8 11.6001 133.8 12.6001 133.8 14.0001V15.5001C133.8 16.2001 134 16.3001 134.5 16.3001V16.7001C134 16.7001 133.4 16.6001 132.9 16.6001C132.4 16.6001 131.8 16.7001 131.3 16.7001V16.3001C131.8 16.1001 132 16.1001 132 15.5001V13.7001C132 12.7001 131.9 11.7001 131.9 11.1001C131.9 10.6001 131.6 10.3001 131.1 10.3001V10.0001" fill="white"/>
<path d="M146.2 12.3C146.2 10.6 145.7 9.9 144.2 9.9C142.7 9.9 142.2 11.4 142.2 12.7C142.2 14.2 143.1 16 144.7 16C145.2 16 145.7 15.8 146.2 15.4V12.3ZM148.1 4C148.1 5.4 148 7.4 148 10V14.5C148 15.1 148.1 15.5 148.6 15.5C148.9 15.5 149 15.4 149.1 15.4L149.4 15.7C148.8 16.1 148.1 16.6 147.7 17C147.1 16.8 146.6 16.3 146.3 15.8L145.2 16.7C144.9 16.9 144.5 17 143.9 17C141.6 17 140.2 15.3 140.2 13.1C140.2 10.6 141.9 9.2 144.3 9.2C144.9 9.2 145.6 9.4 146.2 9.7V6.9C146.2 5.9 145.7 5.6 145.3 5.6V5.2C146.2 5 147.3 4.5 147.8 4H148.1Z" fill="white"/>
<path d="M154 12.9002C153.8 12.9002 153.4 12.8002 153.1 12.8002C152.3 12.8002 151.4 13.2002 151.4 14.4002C151.4 15.2002 152.1 15.9002 152.8 15.9002C153.4 15.9002 153.7 15.8002 154 15.6002V12.9002ZM150.4 11.2002V9.5002C151.2 9.3002 151.9 9.2002 152.8 9.2002C154.4 9.2002 155.9 9.6002 155.9 11.4002C155.9 12.0002 155.8 13.0002 155.8 14.0002V14.6002C155.8 15.4002 156 15.7002 156.4 15.7002C156.5 15.7002 156.7 15.7002 156.8 15.6002L157.1 15.9002L155.7 17.0002C155 16.9002 154.4 16.6002 154.2 16.1002C153.6 16.6002 153 17.0002 152.2 17.0002C150.9 17.0002 149.7 16.2002 149.7 14.9002C149.7 13.0002 151.6 12.3002 153.3 12.3002C153.6 12.3002 153.9 12.4002 154.2 12.4002C154.2 11.4002 154.1 10.3002 152.9 10.3002C152 10.3002 151.5 10.6002 151.1 11.3002H150.4V11.2002Z" fill="white"/>
<path d="M164.5 11.4002H164C163.6 10.5002 162.9 9.9002 161.9 9.9002C160.2 9.9002 159.5 11.4002 159.5 12.9002C159.5 14.4002 160.6 16.1002 162.5 16.1002C163.3 16.1002 164 15.8002 164.5 15.2002L164.9 15.3002L164.3 16.6002C163.6 16.8002 162.8 17.0002 161.7 17.0002C158.7 17.0002 157.4 14.8002 157.4 13.1002C157.4 11.4002 158.7 9.2002 161.7 9.2002C162.6 9.2002 163.5 9.4002 164.3 9.7002L164.5 11.4002Z" fill="white"/>
<path d="M167.2 6.1001C167.7 6.1001 168.2 6.5001 168.2 7.0001C168.2 7.5001 167.7 7.9001 167.2 7.9001C166.7 7.9001 166.2 7.5001 166.2 7.0001C166.2 6.5001 166.7 6.1001 167.2 6.1001ZM168.1 9.1001C168.1 9.9001 168.2 11.4001 168.2 12.9001V15.5001C168.2 16.1001 168.5 16.2001 168.9 16.3001V16.7001C168.3 16.7001 167.8 16.6001 167.2 16.6001C166.7 16.6001 166.2 16.6001 165.7 16.7001V16.3001C166.1 16.2001 166.3 16.1001 166.3 15.5001V13.3001C166.3 12.0001 166.2 11.3001 166 10.9001C165.9 10.5001 165.7 10.4001 165.2 10.3001V10.0001C166.1 9.8001 167 9.5001 167.6 9.1001H168.1Z" fill="white"/>
<path d="M174.1 9.1C177.1 9.1 178.4 11.3 178.4 13C178.4 14.7 177.1 16.9 174.1 16.9C171.1 16.9 169.8 14.7 169.8 13C169.9 11.3 171.1 9.1 174.1 9.1ZM174.1 16.2C175.8 16.2 176.4 14.7 176.4 13C176.4 11.3 175.8 9.8 174.1 9.8C172.4 9.8 171.8 11.3 171.8 13C171.9 14.7 172.4 16.2 174.1 16.2ZM173 8.1L175.6 5.3C175.8 5.1 176 5 176.3 5C176.7 5 176.9 5.2 176.9 5.7C176.9 6 176.6 6.3 176.3 6.4L173.9 8.1H173Z" fill="white"/>
<path d="M179.4 10.0001C180.5 9.8001 181.2 9.5001 181.9 9.1001H182.3C182.3 9.4001 182.3 9.7001 182.3 10.0001C182.9 9.6001 183.8 9.1001 184.6 9.1001C186.4 9.1001 187.2 10.2001 187.2 11.7001V15.5001C187.2 16.1001 187.3 16.2001 187.9 16.3001V16.7001C187.4 16.7001 187 16.6001 186.5 16.6001C185.9 16.6001 185.3 16.7001 184.7 16.7001V16.3001C185.2 16.2001 185.4 16.1001 185.4 15.5001V12.4001C185.4 11.4001 185.2 10.1001 183.9 10.1001C183.5 10.1001 182.3 10.3001 182.3 10.9001C182.3 11.6001 182.3 12.6001 182.3 14.0001V15.5001C182.3 16.2001 182.5 16.3001 183 16.3001V16.7001C182.5 16.7001 181.9 16.6001 181.4 16.6001C180.9 16.6001 180.3 16.7001 179.8 16.7001V16.3001C180.3 16.1001 180.5 16.1001 180.5 15.5001V13.7001C180.5 12.7001 180.4 11.7001 180.4 11.1001C180.4 10.6001 180.1 10.3001 179.6 10.3001V10.0001" fill="white"/>
<path d="M193.4 4.59997C193.9 6.19997 192.7 7.29997 192.3 8.69997C192.2 8.89997 191.9 8.79997 191.7 8.79997L191.6 8.69997C191.8 7.59997 192.6 6.59997 192.1 5.49997C192 4.99997 191.2 4.99997 191.4 4.49997C191.5 4.29997 191.5 3.99997 191.8 3.99997C192.4 3.89997 193.2 3.89997 193.4 4.59997Z" fill="white"/>
<path d="M257 4.59997C257.5 6.19997 256.3 7.29997 255.9 8.69997C255.8 8.89997 255.5 8.79997 255.3 8.79997V8.69997C255.5 7.59997 256.3 6.59997 255.8 5.49997C255.7 4.99997 254.9 4.99997 255.1 4.49997C255.2 4.29997 255.2 3.99997 255.5 3.99997C256 3.89997 256.8 3.89997 257 4.59997Z" fill="white"/>
<path d="M254.4 4.59997C254.9 6.19997 253.7 7.29997 253.3 8.69997C253.2 8.89997 252.9 8.79997 252.7 8.79997L252.6 8.69997C252.8 7.59997 253.6 6.59997 253.1 5.49997C253 4.99997 252.2 4.99997 252.4 4.49997C252.5 4.29997 252.5 3.99997 252.8 3.99997C253.4 3.89997 254.2 3.89997 254.4 4.59997Z" fill="white"/>
<path d="M1.30001 12.3002C1.30001 11.7002 1.40001 11.1002 1.60001 10.5002C1.80001 10.0002 2.00001 9.5002 2.30001 9.1002C2.60001 8.7002 3.10001 8.4002 3.50001 8.1002C4.00001 7.9002 4.60001 7.7002 5.20001 7.7002C5.90001 7.7002 6.50001 7.8002 7.00001 8.1002C7.50001 8.3002 7.90001 8.7002 8.30001 9.1002C8.60001 9.5002 8.90001 10.0002 9.10001 10.6002C9.30001 11.2002 9.40001 11.7002 9.40001 12.4002C9.40001 13.0002 9.30001 13.6002 9.10001 14.2002C8.90001 14.7002 8.70001 15.2002 8.30001 15.6002C7.90001 16.0002 7.50001 16.3002 7.00001 16.6002C6.50001 16.8002 5.90001 17.0002 5.20001 17.0002C4.50001 17.0002 4.00001 16.9002 3.40001 16.6002C2.90001 16.4002 2.50001 16.0002 2.10001 15.6002C1.70001 15.2002 1.50001 14.7002 1.30001 14.2002C1.10001 13.7002 1.30001 12.9002 1.30001 12.3002ZM5.40001 16.1002C6.00001 16.1002 6.40001 16.0002 6.80001 15.8002C7.20001 15.6002 7.50001 15.3002 7.80001 15.0002C8.10001 14.6002 8.30001 14.2002 8.40001 13.8002C8.50001 13.4002 8.60001 12.9002 8.60001 12.3002C8.60001 11.7002 8.50001 11.2002 8.40001 10.7002C8.30001 10.2002 8.00001 9.8002 7.70001 9.5002C7.40001 9.2002 7.10001 8.9002 6.70001 8.7002C6.30001 8.5002 5.80001 8.4002 5.30001 8.4002C4.70001 8.4002 4.30001 8.5002 3.90001 8.7002C3.50001 9.0002 3.20001 9.3002 2.90001 9.6002C2.60001 10.0002 2.40001 10.4002 2.30001 10.8002C2.20001 11.3002 2.10001 11.7002 2.10001 12.3002C2.10001 12.8002 2.20001 13.3002 2.30001 13.8002C2.40001 14.3002 2.60001 14.7002 2.90001 15.0002C3.20001 15.3002 3.50001 15.6002 3.90001 15.8002C4.30001 16.0002 4.80001 16.1002 5.40001 16.1002Z" fill="white"/>
<path d="M10.3 11.0003V10.4003H11.2V9.40029C11.2 8.90029 11.3 8.50029 11.5 8.20029C11.7 7.90029 12 7.80029 12.5 7.80029C12.6 7.80029 12.7 7.80029 12.8 7.80029C12.9 7.80029 13 7.80029 13.1 7.80029V8.50029C12.9 8.50029 12.8 8.40029 12.7 8.40029C12.5 8.40029 12.4 8.40029 12.3 8.50029C12.2 8.60029 12.1 8.70029 12.1 8.80029C12.1 8.90029 12 9.00029 12 9.20029C12 9.30029 12 9.50029 12 9.60029V10.4003H13.2V11.0003H12V16.6003H11.3V11.0003H10.3Z" fill="white"/>
<path d="M15 16.6003H14.3V10.4003H15V11.6003C15.2 11.1003 15.5 10.8003 15.8 10.6003C16.1 10.4003 16.5 10.3003 17.1 10.3003V11.0003C16.7 11.0003 16.4 11.1003 16.1 11.2003C15.8 11.3003 15.6 11.5003 15.5 11.8003C15.3 12.0003 15.2 12.3003 15.2 12.6003C15.1 12.9003 15.1 13.2003 15.1 13.6003V16.6003H15Z" fill="white"/>
<path d="M18.7 13.7002C18.7 14.0002 18.7 14.4002 18.8 14.7002C18.9 15.0002 19 15.3002 19.2 15.5002C19.4 15.7002 19.6 15.9002 19.9 16.0002C20.2 16.1002 20.5 16.2002 20.8 16.2002C21.3 16.2002 21.7 16.1002 22 15.8002C22.3 15.5002 22.6 15.2002 22.7 14.7002H23.5C23.4 15.0002 23.3 15.3002 23.2 15.5002C23.1 15.7002 22.9 16.0002 22.7 16.2002C22.5 16.4002 22.2 16.5002 21.9 16.6002C21.6 16.7002 21.3 16.8002 20.9 16.8002C20.4 16.8002 20 16.7002 19.6 16.5002C19.2 16.3002 18.9 16.1002 18.7 15.8002C18.5 15.5002 18.3 15.2002 18.2 14.8002C18.1 14.4002 18 14.0002 18 13.5002C18 13.0002 18.1 12.6002 18.2 12.2002C18.3 11.8002 18.5 11.4002 18.8 11.2002C19 10.9002 19.3 10.7002 19.7 10.5002C20.1 10.3002 20.5 10.2002 20.9 10.2002C21.8 10.2002 22.4 10.5002 22.9 11.1002C23.4 11.7002 23.6 12.5002 23.6 13.7002H18.7V13.7002ZM22.7 13.1002C22.7 12.8002 22.7 12.5002 22.6 12.2002C22.5 11.9002 22.4 11.7002 22.2 11.5002C22 11.3002 21.8 11.1002 21.6 11.0002C21.4 10.9002 21.1 10.8002 20.7 10.8002C20.3 10.8002 20.1 10.9002 19.9 11.0002C19.7 11.1002 19.4 11.3002 19.3 11.5002C19.1 11.7002 19 11.9002 18.9 12.2002C18.8 12.5002 18.7 12.7002 18.7 13.0002H22.7V13.1002Z" fill="white"/>
<path d="M29.3 12.4003C29.2 11.9003 29 11.6003 28.6 11.3003C28.3 11.0003 27.9 10.9003 27.4 10.9003C27 10.9003 26.7 11.0003 26.5 11.1003C26.2 11.3003 26 11.5003 25.9 11.7003C25.7 12.0003 25.6 12.2003 25.5 12.6003C25.4 12.9003 25.4 13.2003 25.4 13.6003C25.4 13.9003 25.4 14.2003 25.5 14.6003C25.6 14.9003 25.7 15.2003 25.9 15.4003C26.1 15.6003 26.3 15.8003 26.5 16.0003C26.8 16.1003 27.1 16.2003 27.5 16.2003C28 16.2003 28.5 16.1003 28.8 15.8003C29.1 15.5003 29.3 15.1003 29.4 14.6003H30.2C30.1 14.9003 30 15.3003 29.9 15.5003C29.8 15.8003 29.6 16.0003 29.4 16.2003C29.2 16.4003 28.9 16.6003 28.6 16.7003C28.3 16.8003 27.9 16.9003 27.6 16.9003C27.1 16.9003 26.7 16.8003 26.3 16.6003C25.9 16.4003 25.6 16.2003 25.4 15.9003C25.2 15.6003 25 15.3003 24.9 14.9003C24.8 14.5003 24.7 14.1003 24.7 13.6003C24.7 13.2003 24.8 12.8003 24.9 12.4003C25 12.0003 25.2 11.7003 25.4 11.3003C25.6 11.0003 25.9 10.8003 26.3 10.6003C26.7 10.4003 27.1 10.3003 27.5 10.3003C28.2 10.3003 28.8 10.5003 29.2 10.8003C29.6 11.1003 29.9 11.7003 30 12.4003H29.3V12.4003Z" fill="white"/>
<path d="M31.6 9V8H32.4V9H31.6ZM31.7 16.6V10.4H32.4V16.6H31.7Z" fill="white"/>
<path d="M39 8H39.7V16.6H39V15.5C38.9 15.7 38.8 15.9 38.6 16C38.4 16.2 38.3 16.3 38.1 16.4C37.9 16.5 37.7 16.6 37.5 16.6C37.3 16.7 37.1 16.7 36.9 16.7C36.4 16.7 36 16.6 35.6 16.4C35.2 16.2 35 16 34.7 15.7C34.4 15.4 34.3 15.1 34.2 14.7C34.1 14.4 34 14 34 13.5C34 13.1 34.1 12.7 34.2 12.3C34.3 11.9 34.5 11.5 34.7 11.3C34.9 11.1 35.2 10.8 35.6 10.6C35.9 10.4 36.4 10.3 36.8 10.3C37.2 10.3 37.7 10.4 38.1 10.6C38.5 10.8 38.8 11.1 39.1 11.5V8H39ZM39 13.5C39 13.1 39 12.8 38.9 12.5C38.8 12.2 38.7 11.9 38.5 11.7C38.3 11.5 38.1 11.3 37.8 11.1C37.5 11 37.2 10.9 36.9 10.9C36.5 10.9 36.2 11 35.9 11.1C35.6 11.2 35.4 11.5 35.2 11.7C35 12 34.9 12.3 34.8 12.6C34.7 12.9 34.7 13.3 34.7 13.7C34.7 14.1 34.8 14.4 34.9 14.7C35 15 35.2 15.3 35.3 15.5C35.5 15.7 35.7 15.9 36 16C36.3 16.1 36.5 16.2 36.8 16.2C37.1 16.2 37.4 16.1 37.7 16C38 15.9 38.2 15.7 38.4 15.4C38.6 15.2 38.7 14.9 38.8 14.6C39 14.2 39 13.9 39 13.5Z" fill="white"/>
<path d="M44 16.8003C43.6 16.8003 43.2 16.7003 42.9 16.6003C42.6 16.5003 42.2 16.3003 42 16.0003C41.7 15.7003 41.5 15.4003 41.4 15.0003C41.2 14.6003 41.2 14.1003 41.2 13.6003C41.2 13.1003 41.3 12.7003 41.4 12.3003C41.5 11.9003 41.7 11.6003 41.9 11.3003C42.1 11.0003 42.4 10.8003 42.8 10.6003C43.2 10.4003 43.6 10.3003 44.1 10.3003C44.6 10.3003 45 10.4003 45.4 10.6003C45.8 10.8003 46.1 11.0003 46.3 11.3003C46.5 11.6003 46.7 11.9003 46.8 12.3003C46.9 12.7003 47 13.1003 47 13.6003C47 14.1003 46.9 14.5003 46.8 14.9003C46.7 15.3003 46.5 15.6003 46.2 15.9003C45.9 16.2003 45.6 16.4003 45.3 16.6003C44.9 16.7003 44.5 16.8003 44 16.8003ZM46.1 13.5003C46.1 13.1003 46.1 12.8003 46 12.5003C45.9 12.2003 45.8 11.9003 45.6 11.7003C45.4 11.5003 45.2 11.3003 45 11.1003C44.7 11.0003 44.4 10.9003 44 10.9003C43.6 10.9003 43.3 11.0003 43 11.1003C42.7 11.2003 42.5 11.4003 42.3 11.7003C42.1 12.0003 42 12.2003 41.9 12.5003C41.8 12.8003 41.8 13.1003 41.8 13.5003C41.8 13.9003 41.8 14.2003 41.9 14.6003C42 14.9003 42.1 15.2003 42.3 15.4003C42.5 15.6003 42.7 15.8003 43 15.9003C43.3 16.0003 43.6 16.1003 43.9 16.1003C44.3 16.1003 44.6 16.0003 44.9 15.9003C45.2 15.8003 45.4 15.6003 45.6 15.3003C45.8 15.0003 45.9 14.8003 46 14.5003C46.1 14.2003 46.1 13.8003 46.1 13.5003Z" fill="white"/>
<path d="M52.4 19.1003H51.7V10.4003H52.4V11.5003C52.5 11.3003 52.6 11.1003 52.8 11.0003C53 10.8003 53.1 10.7003 53.3 10.6003C53.5 10.5003 53.7 10.4003 53.9 10.4003C54.1 10.3003 54.3 10.3003 54.5 10.3003C55 10.3003 55.4 10.4003 55.8 10.6003C56.2 10.8003 56.4 11.0003 56.7 11.3003C57 11.6003 57.1 11.9003 57.2 12.3003C57.3 12.7003 57.4 13.1003 57.4 13.6003C57.4 14.0003 57.3 14.4003 57.2 14.8003C57.1 15.2003 56.9 15.6003 56.7 15.9003C56.5 16.2003 56.2 16.4003 55.8 16.6003C55.5 16.8003 55 16.9003 54.6 16.9003C54.2 16.9003 53.7 16.8003 53.3 16.6003C52.9 16.4003 52.6 16.1003 52.3 15.7003V19.1003H52.4ZM52.4 13.5003C52.4 13.9003 52.4 14.2003 52.5 14.5003C52.6 14.8003 52.7 15.1003 52.9 15.3003C53.1 15.5003 53.3 15.7003 53.6 15.9003C53.9 16.0003 54.2 16.1003 54.5 16.1003C54.9 16.1003 55.2 16.0003 55.5 15.9003C55.8 15.8003 56 15.6003 56.2 15.3003C56.4 15.0003 56.5 14.7003 56.6 14.4003C56.7 14.1003 56.7 13.7003 56.7 13.3003C56.7 12.9003 56.6 12.6003 56.5 12.3003C56.4 12.0003 56.2 11.7003 56 11.5003C55.8 11.3003 55.6 11.1003 55.3 11.0003C55 10.9003 54.8 10.8003 54.5 10.8003C54.2 10.8003 53.9 10.9003 53.6 11.0003C53.3 11.1003 53.1 11.3003 52.9 11.6003C52.7 11.8003 52.6 12.1003 52.5 12.4003C52.4 12.8003 52.4 13.2003 52.4 13.5003Z" fill="white"/>
<path d="M61.4 16.8003C61 16.8003 60.6 16.7003 60.3 16.6003C60 16.5003 59.6 16.3003 59.4 16.0003C59.1 15.7003 58.9 15.4003 58.8 15.0003C58.6 14.6003 58.6 14.1003 58.6 13.6003C58.6 13.1003 58.7 12.7003 58.8 12.3003C58.9 11.9003 59.1 11.6003 59.3 11.3003C59.5 11.0003 59.8 10.8003 60.2 10.6003C60.6 10.4003 61 10.3003 61.5 10.3003C62 10.3003 62.4 10.4003 62.8 10.6003C63.2 10.8003 63.5 11.0003 63.7 11.3003C63.9 11.6003 64.1 11.9003 64.2 12.3003C64.3 12.7003 64.4 13.1003 64.4 13.6003C64.4 14.1003 64.3 14.5003 64.2 14.9003C64.1 15.3003 63.9 15.6003 63.6 15.9003C63.3 16.2003 63 16.4003 62.7 16.6003C62.2 16.7003 61.8 16.8003 61.4 16.8003ZM63.5 13.5003C63.5 13.1003 63.5 12.8003 63.4 12.5003C63.3 12.2003 63.2 11.9003 63 11.7003C62.8 11.5003 62.6 11.3003 62.4 11.1003C62.1 11.0003 61.8 10.9003 61.4 10.9003C61 10.9003 60.7 11.0003 60.4 11.1003C60.1 11.2003 59.9 11.4003 59.7 11.7003C59.5 12.0003 59.4 12.2003 59.3 12.5003C59.2 12.8003 59.2 13.1003 59.2 13.5003C59.2 13.9003 59.2 14.2003 59.3 14.6003C59.4 14.9003 59.5 15.2003 59.7 15.4003C59.9 15.6003 60.1 15.8003 60.4 15.9003C60.7 16.0003 61 16.1003 61.3 16.1003C61.7 16.1003 62 16.0003 62.3 15.9003C62.6 15.8003 62.8 15.6003 63 15.3003C63.2 15.0003 63.3 14.8003 63.4 14.5003C63.4 14.2003 63.5 13.8003 63.5 13.5003Z" fill="white"/>
<path d="M66.3 16.6003H65.6V10.4003H66.3V11.6003C66.5 11.1003 66.8 10.8003 67.1 10.6003C67.4 10.4003 67.8 10.3003 68.4 10.3003V11.0003C68 11.0003 67.7 11.1003 67.4 11.2003C67.1 11.3003 66.9 11.5003 66.8 11.8003C66.6 12.0003 66.5 12.3003 66.5 12.6003C66.4 12.9003 66.4 13.2003 66.4 13.6003V16.6003H66.3Z" fill="white"/>
</svg>
