<svg width="73" height="26" viewBox="0 0 73 26" fill="none" xmlns="http://www.w3.org/2000/svg">
<path d="M65.0968 0C66.5634 0 67.7634 0.299999 68.6968 0.9C69.6301 1.5 70.3968 2.26667 70.9968 3.2C71.7301 4.26667 72.1968 5.43334 72.3968 6.7C72.5968 7.96667 72.6968 9 72.6968 9.8C72.6968 13.0667 71.8634 16.0333 70.1968 18.7C68.5301 21.3667 65.9301 23.5333 62.3968 25.2L61.4968 23.4C63.5634 22.5333 65.3301 21.1667 66.7968 19.3C68.3301 17.4333 69.0968 15.5333 69.0968 13.6C69.0968 12.8 68.9968 12.1 68.7968 11.5C67.7301 12.3667 66.4968 12.8 65.0968 12.8C63.3634 12.8 61.8634 12.2333 60.5968 11.1C59.3301 9.96667 58.6968 8.4 58.6968 6.4C58.6968 4.53334 59.3301 3 60.5968 1.8C61.8634 0.600001 63.3634 0 65.0968 0ZM48.0968 0C49.5634 0 50.7634 0.299999 51.6968 0.9C52.6301 1.5 53.3968 2.26667 53.9968 3.2C54.7301 4.26667 55.1968 5.43334 55.3968 6.7C55.5968 7.96667 55.6968 9 55.6968 9.8C55.6968 13.0667 54.8634 16.0333 53.1968 18.7C51.5301 21.3667 48.9301 23.5333 45.3968 25.2L44.4968 23.4C46.5634 22.5333 48.3301 21.1667 49.7968 19.3C51.3301 17.4333 52.0968 15.5333 52.0968 13.6C52.0968 12.8 51.9968 12.1 51.7968 11.5C50.7301 12.3667 49.4968 12.8 48.0968 12.8C46.3634 12.8 44.8634 12.2333 43.5968 11.1C42.3301 9.96667 41.6968 8.4 41.6968 6.4C41.6968 4.53334 42.3301 3 43.5968 1.8C44.8634 0.600001 46.3634 0 48.0968 0Z" fill="#97F0C7"/>
<path d="M7.6 25.2C6.13333 25.2 4.93333 24.9 4 24.3C3.06667 23.7 2.3 22.9333 1.7 22C0.966666 20.9333 0.5 19.7667 0.3 18.5C0.0999998 17.2333 0 16.2 0 15.4C0 12.1333 0.833334 9.16667 2.5 6.50001C4.16667 3.83334 6.76667 1.66667 10.3 0L11.2 1.8C9.13333 2.66667 7.33333 4.03334 5.8 5.9C4.33333 7.76667 3.6 9.66667 3.6 11.6C3.6 12.4 3.7 13.1 3.9 13.7C4.96667 12.8333 6.2 12.4 7.6 12.4C9.33333 12.4 10.8333 12.9667 12.1 14.1C13.3667 15.2333 14 16.8 14 18.8C14 20.6667 13.3667 22.2 12.1 23.4C10.8333 24.6 9.33333 25.2 7.6 25.2ZM24.6 25.2C23.1333 25.2 21.9333 24.9 21 24.3C20.0667 23.7 19.3 22.9333 18.7 22C17.9667 20.9333 17.5 19.7667 17.3 18.5C17.1 17.2333 17 16.2 17 15.4C17 12.1333 17.8333 9.16667 19.5 6.50001C21.1667 3.83334 23.7667 1.66667 27.3 0L28.2 1.8C26.1333 2.66667 24.3333 4.03334 22.8 5.9C21.3333 7.76667 20.6 9.66667 20.6 11.6C20.6 12.4 20.7 13.1 20.9 13.7C21.9667 12.8333 23.2 12.4 24.6 12.4C26.3333 12.4 27.8333 12.9667 29.1 14.1C30.3667 15.2333 31 16.8 31 18.8C31 20.6667 30.3667 22.2 29.1 23.4C27.8333 24.6 26.3333 25.2 24.6 25.2Z" fill="#97F0C7"/>
</svg>
