<svg width="54" height="54" viewBox="0 0 54 54" fill="none" xmlns="http://www.w3.org/2000/svg">
<circle cx="27" cy="27" r="27" fill="#1700F4" fill-opacity="0.16"/>
<path d="M21 26C20.4477 26 20 26.4477 20 27C20 27.5523 20.4477 28 21 28V26ZM33.7071 27.7071C34.0976 27.3166 34.0976 26.6834 33.7071 26.2929L27.3431 19.9289C26.9526 19.5384 26.3195 19.5384 25.9289 19.9289C25.5384 20.3195 25.5384 20.9526 25.9289 21.3431L31.5858 27L25.9289 32.6569C25.5384 33.0474 25.5384 33.6805 25.9289 34.0711C26.3195 34.4616 26.9526 34.4616 27.3431 34.0711L33.7071 27.7071ZM21 28H33V26H21V28Z" fill="#1700F4"/>
</svg>
