<svg width="84" height="28" viewBox="0 0 84 28" fill="none" xmlns="http://www.w3.org/2000/svg">
<path d="M27.878 12.084H31.906C36.146 12.932 38.266 15.476 38.266 19.716C38.266 22.1187 37.4533 24.062 35.828 25.546C34.2027 27.03 32.1887 27.772 29.786 27.772C26.9593 27.772 24.698 26.7473 23.002 24.698C21.3767 22.6487 20.564 19.9987 20.564 16.748C20.564 11.872 22.1187 7.95001 25.228 4.98201C28.3374 2.014 32.754 0.353333 38.478 0V3.498C31.906 4.346 28.3727 7.208 27.878 12.084ZM7.314 12.084H11.448C15.6173 13.0027 17.702 15.5467 17.702 19.716C17.702 22.1187 16.8893 24.062 15.264 25.546C13.6387 27.03 11.6247 27.772 9.22202 27.772C6.39535 27.772 4.13402 26.7473 2.43802 24.698C0.812686 22.6487 0 19.9987 0 16.748C0 11.872 1.55467 7.95001 4.664 4.98201C7.77333 2.014 12.2254 0.353333 18.02 0V3.498C11.3774 4.41667 7.80866 7.27867 7.314 12.084Z" fill="#90FFBB"/>
<path d="M55.184 15.688H51.05C46.8807 14.7693 44.796 12.2253 44.796 8.056C44.796 5.65334 45.6087 3.71 47.234 2.226C48.8593 0.742 50.8734 0 53.276 0C56.1027 0 58.3287 1.02467 59.954 3.074C61.65 5.12334 62.498 7.77334 62.498 11.024C62.498 15.9 60.908 19.8573 57.728 22.896C54.6187 25.864 50.202 27.4893 44.478 27.772V24.38C51.1207 23.3907 54.6894 20.4933 55.184 15.688ZM75.748 15.688H71.614C67.374 14.84 65.254 12.296 65.254 8.056C65.254 5.65334 66.0667 3.71 67.692 2.226C69.3174 0.742 71.3313 0 73.734 0C76.6313 0 78.8927 1.02467 80.518 3.074C82.214 5.12334 83.062 7.77334 83.062 11.024C83.062 15.9 81.472 19.8573 78.292 22.896C75.1827 25.864 70.766 27.4893 65.042 27.772V24.38C71.5434 23.3907 75.112 20.4933 75.748 15.688Z" fill="#90FFBB"/>
</svg>
