<svg width="61" height="61" viewBox="0 0 61 61" fill="none" xmlns="http://www.w3.org/2000/svg">
<path d="M27.6406 19.0625C27.6406 18.497 27.8083 17.9441 28.1225 17.4739C28.4367 17.0037 28.8833 16.6372 29.4058 16.4208C29.9282 16.2044 30.5032 16.1477 31.0578 16.2581C31.6125 16.3684 32.122 16.6407 32.5219 17.0406C32.9218 17.4405 33.1941 17.95 33.3044 18.5047C33.4148 19.0593 33.3581 19.6343 33.1417 20.1567C32.9253 20.6792 32.5588 21.1258 32.0886 21.44C31.6184 21.7542 31.0655 21.9219 30.5 21.9219C29.7416 21.9219 29.0144 21.6206 28.4781 21.0844C27.9419 20.5481 27.6406 19.8209 27.6406 19.0625ZM23.1323 35.2013C18.5979 30.3451 16.2031 24.7646 16.2031 19.0625C16.2031 15.2707 17.7094 11.6343 20.3906 8.95308C23.0718 6.2719 26.7082 4.76563 30.5 4.76562C34.2918 4.76563 37.9282 6.2719 40.6094 8.95308C43.2906 11.6343 44.7969 15.2707 44.7969 19.0625C44.7969 24.7646 42.4021 30.3451 37.8677 35.2013C35.8412 37.3943 33.5224 39.2977 30.9766 40.8581C30.8317 40.9417 30.6673 40.9858 30.5 40.9858C30.3327 40.9858 30.1683 40.9417 30.0234 40.8581C27.4776 39.2977 25.1588 37.3943 23.1323 35.2013ZM18.1094 19.0625C18.1094 30.2832 28.1768 37.4102 30.5 38.9113C32.8232 37.4149 42.8906 30.2832 42.8906 19.0625C42.8906 15.7763 41.5852 12.6247 39.2615 10.301C36.9378 7.97731 33.7862 6.67188 30.5 6.67188C27.2138 6.67188 24.0622 7.97731 21.7385 10.301C19.4148 12.6247 18.1094 15.7763 18.1094 19.0625ZM47.9851 36.071C47.7478 35.9838 47.4855 35.9944 47.2561 36.1006C47.0266 36.2067 46.8487 36.3996 46.7615 36.6369C46.6743 36.8742 46.6849 37.1365 46.791 37.3659C46.8972 37.5954 47.0901 37.7733 47.3274 37.8605C51.7761 39.5023 54.3281 41.673 54.3281 43.8438C54.3281 47.9875 44.754 52.4219 30.5 52.4219C16.246 52.4219 6.67188 47.9875 6.67188 43.8438C6.67188 41.6825 9.22387 39.5023 13.6726 37.8605C13.9099 37.7733 14.1028 37.5954 14.2089 37.3659C14.3151 37.1365 14.3257 36.8742 14.2385 36.6369C14.1513 36.3996 13.9734 36.2067 13.7439 36.1006C13.5145 35.9944 13.2522 35.9838 13.0149 36.071C7.6941 38.0345 4.76562 40.7961 4.76562 43.8438C4.76562 46.8127 7.56066 49.522 12.6289 51.4688C17.416 53.3107 23.7614 54.3281 30.5 54.3281C37.2386 54.3281 43.5793 53.3154 48.3711 51.4688C53.4441 49.5172 56.2344 46.808 56.2344 43.8438C56.2344 40.7961 53.3059 38.0345 47.9851 36.071Z" fill="white"/>
</svg>
