<svg width="69" height="61" viewBox="0 0 69 61" fill="none" xmlns="http://www.w3.org/2000/svg">
<path d="M49.6117 33.0793L56.5009 26.1443C56.673 25.9711 56.8816 25.8803 57.1267 25.872C57.3718 25.8637 57.5804 25.958 57.7525 26.155C57.9175 26.3366 58 26.5484 58 26.7905C58 27.0325 57.9175 27.2402 57.7525 27.4135L50.6565 34.5692C50.3712 34.8564 50.0383 35 49.6576 35C49.277 35 48.9434 34.8558 48.657 34.5674L45.2328 31.1177C45.0678 30.9516 44.9912 30.7475 45.0029 30.5054C45.0136 30.2633 45.1019 30.0592 45.2681 29.8931C45.4343 29.7269 45.6388 29.6439 45.8816 29.6439C46.1243 29.6439 46.3247 29.7269 46.4826 29.8931L49.6117 33.0793ZM49.6117 20.2097L56.5009 13.2728C56.673 13.0996 56.8816 13.0088 57.1267 13.0005C57.3718 12.9922 57.5804 13.0865 57.7525 13.2835C57.9175 13.4651 58 13.6769 58 13.919C58 14.1611 57.9175 14.3688 57.7525 14.542L50.6565 21.6978C50.3712 21.985 50.0383 22.1285 49.6576 22.1285C49.277 22.1285 48.9434 21.985 48.657 21.6978L45.231 18.2463C45.066 18.0801 44.9894 17.876 45.0012 17.6339C45.0118 17.3919 45.1002 17.1877 45.2664 17.0216C45.4325 16.8555 45.637 16.7724 45.8798 16.7724C46.1226 16.7724 46.3229 16.8555 46.4808 17.0216L49.6117 20.2097Z" fill="white"/>
<path d="M20.3333 33.0416H26.6875M20.3333 22.8749H36.8542M20.3333 43.2083H24.1458M50.3962 8.06209C47.4199 5.08325 42.6263 5.08325 33.0417 5.08325H27.9583C18.3737 5.08325 13.5801 5.08325 10.6038 8.06209C7.62754 11.0409 7.625 15.832 7.625 25.4166V35.5833C7.625 45.1679 7.625 49.9615 10.6038 52.9378C13.5827 55.914 18.3737 55.9166 27.9583 55.9166H33.0417C42.6263 55.9166 47.4199 55.9166 50.3962 52.9378C52.7955 50.541 53.2606 46.9699 53.3521 40.6666" stroke="white" stroke-width="2" stroke-linecap="round"/>
</svg>
