<svg width="61" height="62" viewBox="0 0 61 62" fill="none" xmlns="http://www.w3.org/2000/svg">
<path d="M52.748 57.2151H25.252C22.9134 57.2151 21 55.1901 21 52.7151C21 50.2401 22.9134 48.2151 25.252 48.2151H52.748C55.0866 48.2151 57 50.2401 57 52.7151C57 55.1901 55.0866 57.2151 52.748 57.2151ZM25.252 48.8901C23.2677 48.8901 21.7087 50.6151 21.7087 52.6401C21.7087 54.6651 23.3386 56.3901 25.252 56.3901H52.748C54.7323 56.3901 56.2913 54.6651 56.2913 52.6401C56.2913 50.6151 54.6614 48.8901 52.748 48.8901H25.252Z" fill="white" stroke="white" stroke-width="0.7"/>
<path d="M52.6482 45.2151H25.3518C25.1407 45.2151 25 45.0827 25 44.8841V33.8945C25 33.8283 25 33.6959 25.1407 33.6959L32.9497 26.3475C33.0201 26.2813 33.0905 26.2151 33.1608 26.2151H52.6482C52.8593 26.2151 53 26.3475 53 26.5461V44.8841C53 45.0827 52.8593 45.2151 52.6482 45.2151ZM25.7035 44.5531H52.2965V26.8771H33.3015L25.7035 34.0269V44.5531Z" fill="white" stroke="white" stroke-width="0.7"/>
<path d="M9.35343 42.2151C9.14137 42.2151 9 42.0733 9 41.8606V4.56957C9 4.35688 9.14137 4.21509 9.35343 4.21509H14.8669C15.0083 4.21509 15.079 4.28598 15.1496 4.35688L29.9229 25.98C30.0643 26.1218 29.9936 26.3345 29.8523 26.4763C29.7109 26.6181 29.4988 26.5472 29.3575 26.4054L14.7255 4.92404H9.77754V41.9315C9.70686 42.0733 9.56548 42.2151 9.35343 42.2151Z" fill="white" stroke="white" stroke-width="0.7"/>
<path d="M21.6047 32.2151C21.4576 32.2151 21.3105 32.1448 21.2369 32.0042L9.02758 4.73344C8.95403 4.59287 9.02758 4.31173 9.24823 4.24145C9.39533 4.17116 9.61598 4.24144 9.76308 4.4523L21.9724 31.7231C22.046 31.8637 21.9724 32.0745 21.7518 32.2151C21.7518 32.2151 21.6782 32.2151 21.6047 32.2151Z" fill="white" stroke="white" stroke-width="0.7"/>
<path d="M36.8763 41.2151H25.3473C25.1389 41.2151 25 41.0745 25 40.8636C25 40.6527 25.1389 40.5121 25.3473 40.5121H36.5985L40.3489 26.4523C40.4183 26.2415 40.6267 26.1712 40.7656 26.2414C40.974 26.3117 41.0434 26.4523 40.974 26.6632L37.2235 40.9339C37.1541 41.0745 37.0152 41.2151 36.8763 41.2151Z" fill="white" stroke="white" stroke-width="0.7"/>
<path d="M9.5 57.2151C7.025 57.2151 5 55.3742 5 53.1242C5 50.8742 6.8 49.1696 9.125 49.0333V45.556C9.125 45.3515 9.275 45.2151 9.5 45.2151C9.725 45.2151 9.875 45.3515 9.875 45.556V49.306C9.875 49.5105 9.725 49.6469 9.5 49.6469C7.4 49.6469 5.75 51.2151 5.75 53.056C5.75 54.8969 7.475 56.4651 9.5 56.4651C11.525 56.4651 13.25 54.8969 13.25 53.056C13.25 52.8515 13.4 52.7151 13.625 52.7151C13.85 52.7151 14 52.8515 14 53.056C14 55.3742 11.975 57.2151 9.5 57.2151Z" fill="white" stroke="white" stroke-width="0.7"/>
</svg>
