<svg width="61" height="62" viewBox="0 0 61 62" fill="none" xmlns="http://www.w3.org/2000/svg">
<path d="M22.9704 4C22.7435 4.04209 22.5479 4.22122 22.4869 4.44288L13.8215 35.8657C13.7132 36.2333 14.0363 36.6586 14.4211 36.6551H23.4733L17.5352 56.1789C17.4363 56.4503 17.5606 56.7839 17.8132 56.9257C18.0659 57.0674 18.417 57.0004 18.599 56.7757L47.0711 25.3529C47.38 24.9992 47.0777 24.3347 46.6069 24.3324H35.1562L43.4541 4.8472C43.6038 4.47888 43.2922 4.00828 42.8932 4C36.2553 4 29.5997 4 22.9704 4ZM23.5507 5.2323H41.9647L33.6668 24.6983C33.5008 25.0702 33.8189 25.5616 34.2277 25.5647H45.1949L19.5468 53.8684L24.924 36.2123C25.0322 35.8447 24.7092 35.4194 24.3244 35.4228H15.2334L23.5507 5.2323Z" fill="white"/>
</svg>
