<svg width="61" height="61" viewBox="0 0 61 61" fill="none" xmlns="http://www.w3.org/2000/svg">
<path d="M46.2074 20.4349L47.3842 19.2555C48.3212 18.3182 49.5921 17.7915 50.9175 17.7913C52.2428 17.791 53.514 18.3173 54.4513 19.2543C55.3886 20.1913 55.9153 21.4622 55.9156 22.7876C55.9158 24.1129 55.3895 25.384 54.4526 26.3214L53.2758 27.5007M46.2074 20.4349C46.2074 20.4349 46.3548 22.9359 48.5635 25.1446C50.7722 27.3533 53.2758 27.5007 53.2758 27.5007M46.2074 20.4349L35.3799 31.2624C34.6428 31.9944 34.2768 32.3629 33.9616 32.767C33.5889 33.2449 33.272 33.7583 33.0111 34.3073C32.7899 34.7699 32.6273 35.2604 32.2994 36.244L31.2497 39.3957L30.9091 40.4149M53.2758 27.5007L42.4483 38.3282C41.7112 39.0653 41.3452 39.4313 40.9411 39.7465C40.4632 40.1192 39.9498 40.4361 39.4008 40.697C38.9382 40.9182 38.4477 41.0808 37.4641 41.4087L34.3124 42.4584L33.2932 42.799M30.9091 40.4149L30.5711 41.4367C30.4923 41.6738 30.4811 41.9282 30.5387 42.1714C30.5962 42.4146 30.7203 42.6369 30.897 42.8136C31.0737 42.9903 31.2961 43.1144 31.5392 43.172C31.7824 43.2295 32.0368 43.2183 32.274 43.1396L33.2932 42.799M30.9091 40.4149L33.2932 42.799" stroke="white" stroke-width="2"/>
<path d="M20.3333 33.0416H26.6875M20.3333 22.8749H36.8542M20.3333 43.2083H24.1458M50.3962 8.06209C47.4199 5.08325 42.6263 5.08325 33.0417 5.08325H27.9583C18.3737 5.08325 13.5801 5.08325 10.6038 8.06209C7.62754 11.0409 7.625 15.832 7.625 25.4166V35.5833C7.625 45.1679 7.625 49.9615 10.6038 52.9378C13.5827 55.914 18.3737 55.9166 27.9583 55.9166H33.0417C42.6263 55.9166 47.4199 55.9166 50.3962 52.9378C52.7955 50.541 53.2606 46.9699 53.3521 40.6666" stroke="white" stroke-width="2" stroke-linecap="round"/>
</svg>
