<svg width="135" height="61" viewBox="0 0 135 61" fill="none" xmlns="http://www.w3.org/2000/svg">
<g clip-path="url(#clip0_1201_232)">
<path d="M130.252 27.9772H135V4.62307H130.252V27.9711V27.9772ZM123.145 27.9772H127.893V4.62307H123.145V27.9711V27.9772ZM110.481 17.2248C110.644 15.2531 111.452 13.6181 113.55 13.6181C115.648 13.6181 116.2 15.351 116.293 17.2248H110.481ZM121.047 20.1884C121.082 17.8371 120.721 15.3878 119.367 13.4161C118.013 11.4444 115.654 10.3544 113.358 10.3544C108.256 10.3544 105.379 14.4754 105.379 19.5761C105.379 24.6768 108.575 28.3262 113.486 28.3262C119.042 28.3262 120.948 23.2194 120.948 22.3683L116.554 22.0254C116.554 23.6236 115.102 24.7502 113.649 24.7502C111.58 24.7502 110.481 23.0847 110.481 21.0395L110.516 20.1884H121.047ZM98.8528 20.7701C98.8528 21.6213 98.8179 22.5397 98.4343 23.3235C98.045 24.1073 97.2372 24.7196 96.3655 24.7196C94.006 24.7196 93.7503 21.5539 93.7503 19.6802C93.7503 17.6044 93.8491 13.857 96.5631 13.857C98.7249 13.857 98.8586 16.7165 98.8586 18.3821V20.764L98.8528 20.7701ZM103.601 27.9833V4.62307H98.8528V12.5221C97.8183 10.9239 96.5921 10.3422 94.7499 10.3422C89.9671 10.3422 88.7408 15.4123 88.7408 19.5332C88.7408 23.6542 90.031 28.314 94.6511 28.314C96.749 28.314 98.1089 27.12 99.0097 25.283H99.0736V27.9711H103.595L103.601 27.9833ZM82.1216 20.3966C82.1216 21.6213 82.1565 22.6438 81.4765 23.7338C80.9303 24.6217 80.0527 25.1605 79.088 25.1605C77.763 25.1605 76.9901 24.242 76.9901 22.8827C76.9901 20.366 80.3201 19.919 82.1274 19.7169V20.3966H82.1216ZM87.288 27.9833C87.0323 27.1322 86.9625 26.2811 86.9625 25.3993V17.335C86.9625 15.2592 87.1253 13.3548 85.4458 11.922C84.1207 10.7647 81.924 10.3544 80.2445 10.3544C76.7867 10.3544 72.9105 11.5791 72.4281 15.7674L76.9204 16.2083C76.9204 14.506 78.2454 13.6916 79.7622 13.6916C80.4712 13.6916 81.2789 13.9304 81.7032 14.506C82.1855 15.1551 82.1216 16.0368 82.1216 16.7839V17.1941C80.1167 17.3962 77.5015 17.537 75.6302 18.2841C73.4684 19.1352 71.9458 20.8681 71.9458 23.4215C71.9458 26.6913 74.2064 28.3201 77.1121 28.3201C79.5646 28.3201 80.9884 27.3343 82.3424 25.2891C82.3076 26.1708 82.3773 27.0955 82.5691 27.9772H87.288V27.9833ZM55.9875 27.9833H58.5736C58.8642 27.0648 59.056 26.079 59.6371 25.3258C60.8343 27.4016 61.9617 28.3201 64.3211 28.3201C69.2609 28.3201 70.9752 23.8624 70.9752 19.3373C70.9752 15.2531 69.5514 10.3483 64.8732 10.3483C63.031 10.3483 61.6769 11.1627 60.8691 12.865H60.7413V4.62307H55.9933V27.9711L55.9875 27.9833ZM60.7994 18.2473C60.7994 16.4104 61.1248 13.7896 63.4146 13.7896C66.0297 13.7896 66.0297 17.3962 66.0297 19.3373C66.0297 21.2784 66.0297 24.8176 63.3506 24.8176C62.4789 24.8176 61.799 24.3767 61.3457 23.6236C60.8284 22.7724 60.7994 21.6825 60.7994 20.7273V18.2412V18.2473ZM48.5256 20.3905C48.5256 21.6151 48.5605 22.6377 47.8805 23.7277C47.3343 24.6155 46.4567 25.1544 45.492 25.1544C44.167 25.1544 43.3941 24.2359 43.3941 22.8765C43.3941 20.3599 46.7241 19.9129 48.5314 19.7108V20.3905H48.5256ZM53.692 27.9772C53.4363 27.1261 53.3666 26.2749 53.3666 25.3932V17.3288C53.3666 15.2531 53.5293 13.3487 51.8498 11.9159C50.5247 10.7586 48.328 10.3483 46.6485 10.3483C43.1907 10.3483 39.3145 11.573 38.8321 15.7613L43.3244 16.2022C43.3244 14.4999 44.6494 13.6855 46.1662 13.6855C46.8752 13.6855 47.6829 13.9243 48.1072 14.4999C48.5895 15.149 48.5256 16.0307 48.5256 16.7778V17.188C46.5207 17.3901 43.9055 17.5309 42.0342 18.278C39.8724 19.1291 38.3498 20.862 38.3498 23.4154C38.3498 26.6852 40.6104 28.314 43.5161 28.314C45.9686 28.314 47.3924 27.3281 48.7464 25.283C48.7116 26.1647 48.7813 27.0893 48.9731 27.9711H53.692V27.9772ZM36.5715 9.76661C35.2174 5.71913 32.0501 4.28629 28.1739 4.28629C26.1399 4.28629 24.2337 4.7639 22.6182 6.19062C21.0374 7.58673 20.2297 9.49107 20.2297 11.6709C20.2297 16.7778 24.1059 18.0024 28.0461 18.8535C29.4001 19.1597 31.9223 19.5332 31.9223 21.4743C31.9223 23.4154 29.9522 23.991 28.4645 23.991C26.169 23.991 24.4895 23.1398 23.8444 20.6905L19.0616 21.8478C20.0611 26.4097 23.8444 28.314 28.0112 28.314C30.2428 28.314 32.6604 27.8731 34.4387 26.4097C36.153 25.0135 37.1817 22.8337 37.1817 20.5558C37.1817 18.278 36.0833 16.3001 34.2759 15.0449C32.7243 13.9549 30.3009 13.4773 28.4935 13.0732C27.2325 12.8344 25.2972 12.4241 25.2972 10.7218C25.2972 8.91548 26.9768 8.54196 28.3657 8.54196C30.3358 8.54196 31.5329 9.32574 32.178 11.2974L36.5715 9.76661ZM8.78691 8.30315H7.39217V6.27635H8.63582C8.9845 6.27635 9.51916 6.23349 9.81554 6.41106C10.1003 6.58864 10.2514 6.91317 10.2514 7.24995C10.2514 7.56224 10.1235 7.89902 9.87947 8.08884C9.57146 8.33377 9.14722 8.30315 8.79272 8.30315M8.81597 12.1792H7.39217V9.95031H8.90314C9.2344 9.95031 9.64701 9.95031 9.94339 10.1279C10.2398 10.3055 10.4432 10.6667 10.4432 11.0219C10.4432 11.4015 10.2746 11.7812 9.98407 11.9832C9.66444 12.2098 9.1879 12.1853 8.81597 12.1853M12.3668 7.06625C12.3668 6.19062 11.9948 5.51094 11.2916 5.03945C10.6873 4.63531 9.97245 4.63531 9.28089 4.63531H5.34653V13.8998H9.28089C10.0364 13.8998 10.8965 13.8998 11.5357 13.3977C12.1517 12.9262 12.6108 12.2098 12.6108 11.4015C12.6108 10.2014 11.867 9.31961 10.7802 9.09305V9.06856C11.7043 8.82363 12.3668 8.12558 12.3668 7.07237M8.79272 18.5413C3.93435 18.5229 0 14.3774 0 9.2645C0 4.15158 3.93435 0 8.79272 0C13.6511 0 17.5854 4.14545 17.5854 9.2645C17.5854 14.3836 13.6511 18.529 8.79272 18.529M99.4107 44.4121V61H102.816V55.4584H102.863C103.351 56.5545 104.414 57.0689 105.577 57.0689C109.005 57.0689 110.075 53.7011 110.075 50.6455C110.075 49.1331 109.935 47.639 109.191 46.3225C108.401 44.908 107.291 44.1733 105.716 44.1733C104.141 44.1733 103.281 44.8836 102.653 46.249H102.607V44.4182H99.4107V44.4121ZM102.816 49.8618C102.816 49.127 102.816 48.3738 103.165 47.7125C103.467 47.1002 104.025 46.7144 104.693 46.7144C106.408 46.7144 106.501 49.2801 106.501 50.5476C106.501 51.8151 106.431 54.5277 104.67 54.5277C104.066 54.5277 103.467 54.1358 103.142 53.597C102.746 52.9112 102.816 51.8641 102.816 51.0803V49.8618ZM97.243 56.8239V44.4182H93.8375V51.0864C93.8375 51.7232 93.884 52.4274 93.6515 52.9908C93.3493 53.7256 92.6984 54.1848 91.9371 54.1848C90.7342 54.1848 90.6412 53.2296 90.6412 52.2315V44.4182H87.2357V52.2315C87.2357 53.4316 87.1659 54.6012 87.8168 55.6728C88.491 56.7933 89.508 57.0627 90.6935 57.0627C92.2916 57.0627 93.5004 56.2545 94.0525 54.693H94.099V56.8178H97.2546L97.243 56.8239ZM85.376 44.3937H82.848V40.5115L79.8784 40.7565L79.5762 44.3937H77.5131V47.2533H79.4367V52.7213C79.4367 53.9399 79.4367 55.4339 80.3898 56.2606C81.1569 56.9219 82.4529 57.0689 83.4292 57.0689C84.0568 57.0689 84.8879 56.9709 85.562 56.7994V54.0868C85.1668 54.1358 84.7251 54.1848 84.4287 54.1848C82.9701 54.1848 82.8539 53.8174 82.8539 52.1825V47.2471H85.3818V44.3876L85.376 44.3937ZM69.9582 44.4182V56.8239H73.3637V52.0845C73.3637 49.8863 73.6892 47.6635 76.2869 47.8105V44.2222L75.7058 44.1733C74.2238 44.0508 73.5265 45.4163 73.1778 46.7389H73.1313V44.4182H69.9582ZM64.3037 51.3803C64.3037 52.2621 64.3269 52.9908 63.8388 53.7745C63.4436 54.4114 62.8218 54.7971 62.1244 54.7971C61.1713 54.7971 60.6192 54.1358 60.6192 53.1622C60.6192 51.3559 63.0077 51.0374 64.3037 50.8905V51.3803ZM68.0114 56.8239C67.8254 56.2116 67.7789 55.6054 67.7789 54.9686V49.1821C67.7789 47.6941 67.8952 46.3225 66.6922 45.2999C65.7391 44.4672 64.1642 44.1794 62.9613 44.1794C60.4798 44.1794 57.7019 45.0611 57.3532 48.0615L60.5728 48.3799C60.5728 47.1614 61.52 46.5736 62.6126 46.5736C63.124 46.5736 63.7051 46.745 64.0015 47.1614C64.3502 47.6268 64.3037 48.2575 64.3037 48.7963V49.0902C62.8683 49.2372 60.9912 49.3352 59.6429 49.874C58.0913 50.4863 56.9987 51.7294 56.9987 53.5602C56.9987 55.9054 58.6201 57.075 60.7064 57.075C62.4673 57.075 63.4901 56.3647 64.4606 54.9012C64.4374 55.538 64.4839 56.1932 64.6233 56.83H68.0056L68.0114 56.8239ZM55.7028 44.3937H53.1748V40.5115L50.2051 40.7565L49.9029 44.3937H47.8399V47.2533H49.7635V52.7213C49.7635 53.9399 49.7635 55.4339 50.7107 56.2606C51.4778 56.9219 52.7738 57.0689 53.7501 57.0689C54.3777 57.0689 55.2088 56.9709 55.8829 56.7994V54.0868C55.4877 54.1358 55.0461 54.1848 54.7497 54.1848C53.291 54.1848 53.1748 53.8174 53.1748 52.1825V47.2471H55.7028V44.3876V44.3937ZM46.7822 43.7569C45.8117 40.8483 43.5394 39.8257 40.7557 39.8257C39.297 39.8257 37.9255 40.1686 36.769 41.1912C35.6358 42.1954 35.0547 43.5609 35.0547 45.1224C35.0547 48.7841 37.8384 49.6658 40.6627 50.2782C41.6332 50.4986 43.4464 50.768 43.4464 52.158C43.4464 53.548 42.0342 53.9644 40.9649 53.9644C39.3203 53.9644 38.1115 53.352 37.6524 51.5947L34.2236 52.4274C34.9443 55.7034 37.6524 57.0689 40.6453 57.0689C42.2434 57.0689 43.9811 56.7505 45.2596 55.7034C46.4858 54.6992 47.2297 53.1377 47.2297 51.5028C47.2297 49.8679 46.4393 48.4473 45.1433 47.5472C44.0334 46.7634 42.2899 46.4266 40.994 46.1327C40.0874 45.9612 38.6984 45.6673 38.6984 44.4488C38.6984 43.1568 39.9014 42.8874 40.901 42.8874C42.3132 42.8874 43.1733 43.4507 43.6382 44.8652L46.7938 43.7691L46.7822 43.7569ZM24.042 49.6903H26.7792C27.3836 49.6903 28.1216 49.6903 28.6563 50.0087C29.1909 50.3271 29.557 50.9823 29.557 51.6192C29.557 52.305 29.2548 52.9846 28.7202 53.352C28.139 53.7684 27.2848 53.7194 26.6106 53.7194H24.0362V49.6903H24.042ZM24.042 43.0466H26.291C26.9186 43.0466 27.8892 42.9731 28.4238 43.2915C28.9352 43.6099 29.2142 44.1977 29.2142 44.804C29.2142 45.3673 28.9817 45.9796 28.54 46.3164C27.9821 46.7573 27.2208 46.7083 26.57 46.7083H24.042V43.0466ZM20.3343 40.0645V56.8178H27.4533C28.819 56.8178 30.3765 56.8178 31.5329 55.9116C32.6429 55.0543 33.4798 53.7623 33.4798 52.2988C33.4798 50.1251 32.1373 48.5391 30.1672 48.1228V48.0738C31.8351 47.6329 33.0439 46.3654 33.0439 44.461C33.0439 42.8751 32.3698 41.6505 31.0971 40.7993C30.0103 40.0645 28.7086 40.0645 27.4591 40.0645H20.3401H20.3343Z" fill="#1D1D1B"/>
</g>
<defs>
<clipPath id="clip0_1201_232">
<rect width="135" height="61" fill="white"/>
</clipPath>
</defs>
</svg>
