<svg width="153" height="117" viewBox="0 0 153 117" fill="none" xmlns="http://www.w3.org/2000/svg">
<g id="s" clip-path="url(#clip0_6039_61)">
<path id="Vector" fill-rule="evenodd" clip-rule="evenodd" d="M69.1536 5.37942C69.7104 6.51289 70.1235 7.75432 70.6444 8.92378C71.6503 11.2627 72.6921 13.4937 73.7339 15.9046C74.165 16.9121 75.099 18.2975 74.4164 19.4489C73.195 18.9272 73.0513 17.3079 72.5843 16.2464C72.0814 15.0769 71.5784 13.8535 71.0935 12.702C70.1415 10.3991 68.471 8.2221 68.471 5.61331C68.7045 5.54134 68.7943 5.32544 69.1536 5.37942Z" fill="white"/>
<path id="Vector_2" fill-rule="evenodd" clip-rule="evenodd" d="M85.481 14.1774C83.9363 13.7636 83.8824 11.7665 83.3076 10.5251C82.6969 9.1397 81.7808 8.00623 81.2599 6.74681C82.2838 5.2535 83.6489 8.56397 84.2237 9.84138C84.996 11.4786 85.8402 13.0799 85.481 14.1774Z" fill="white"/>
<path id="Vector_3" fill-rule="evenodd" clip-rule="evenodd" d="M86.6305 8.58203C87.0257 9.28371 87.9957 10.9569 87.0796 11.5507C86.1456 11.4967 85.0858 8.61801 86.6305 8.58203Z" fill="white"/>
<path id="Vector_4" fill-rule="evenodd" clip-rule="evenodd" d="M105.688 33.5006C104.503 33.2667 104.808 32.2591 104.539 31.4495C103.569 28.4449 101.431 24.5047 99.8505 21.3922C99.4195 20.5465 97.3898 17.9737 98.5932 17.7398C99.3656 17.5779 100.713 20.4026 101.108 21.1763C101.755 22.4717 102.617 23.839 103.156 24.9545C103.82 26.3219 104.305 27.8332 104.862 29.1826C105.419 30.496 106.353 32.1512 105.67 33.5366L105.688 33.5006Z" fill="white"/>
<path id="Vector_5" fill-rule="evenodd" clip-rule="evenodd" d="M108.544 33.8423C107.646 33.9862 107.448 32.9247 107.179 32.349C105.796 29.4163 104.251 26.0879 102.617 22.9753C102.204 22.2017 100.066 18.8732 101.359 18.6393C102.024 18.5134 103.191 21.554 103.533 22.1837C104.88 24.7925 106.065 27.1854 107.305 29.8481C107.88 31.1075 108.957 32.4389 108.562 33.8423H108.544Z" fill="white"/>
<path id="Vector_6" fill-rule="evenodd" clip-rule="evenodd" d="M110.825 32.475C109.568 32.3671 109.191 30.6399 108.652 29.6143C107.52 27.4553 106.425 25.2783 105.347 22.8674C104.772 21.59 104.054 20.4386 103.856 19.2151C103.928 19.0532 104.036 18.9273 104.197 18.8733C105.095 18.8733 105.796 21.0683 106.245 22.0758C107.359 24.5767 108.311 26.7177 109.55 29.0566C110.143 30.1541 111.31 31.2516 110.807 32.493L110.825 32.475Z" fill="white"/>
<path id="Vector_7" fill-rule="evenodd" clip-rule="evenodd" d="M112.19 28.013C111.005 28.1569 110.807 26.8975 110.358 26.1778C109.478 24.7565 108.598 23.4611 107.628 21.8238C107.413 21.464 105.724 19.0711 107.053 18.8552C107.646 18.7472 108.275 20.6724 108.544 21.1401C109.478 22.7594 110.466 24.0728 111.4 25.6021C111.831 26.3038 112.514 27.1854 112.19 27.995V28.013Z" fill="white"/>
<path id="Vector_8" fill-rule="evenodd" clip-rule="evenodd" d="M67.3394 27.4373C67.6627 26.1239 68.489 27.0775 69.2793 27.4373C71.291 28.3549 74.2009 28.6968 75.6738 29.9562C77.3083 29.9022 77.8831 31.2516 78.9788 32.0072C79.6254 32.457 80.5235 32.547 81.2599 32.9248C82.3915 33.5005 82.9484 34.688 83.8824 35.1018C84.6368 35.4436 87.7262 35.9474 87.7622 36.7031C87.8161 37.8725 86.0378 37.0449 85.7145 36.919C84.7805 36.5771 83.9722 36.4692 83.3256 36.1273C82.194 35.5336 81.9425 34.67 80.9366 34.0763C80.1463 33.6085 79.1763 33.4286 78.4219 32.9428C77.7035 32.457 77.2005 31.6834 76.4821 31.3415C76.1408 31.1796 75.7456 31.2696 75.3504 31.1076C74.9194 30.9457 74.6499 30.5139 74.2009 30.316C71.9556 29.2905 68.938 29.1645 67.3574 27.4553L67.3394 27.4373Z" fill="white"/>
<path id="Vector_9" fill-rule="evenodd" clip-rule="evenodd" d="M63.9087 32.583C63.9446 32.0613 64.1781 31.7014 64.5912 31.7914C65.9384 32.0433 67.5011 32.637 69.0458 33.1588C70.5367 33.6625 72.2071 33.8784 73.6081 34.4182C74.2009 34.6341 74.5422 35.1738 75.099 35.4437C75.9252 35.8575 76.9132 35.9475 77.7214 36.3613C79.2302 37.1349 80.6492 38.8621 82.176 39.6717C82.8945 39.8157 83.4513 40.5174 84.3494 40.9312C85.014 41.237 86.2174 41.1471 86.1815 41.9567C86.1456 42.7303 85.2475 42.8023 84.5829 42.6404C84.1159 42.5324 83.7207 41.7768 83.0921 41.381C82.661 41.1291 82.0862 41.0391 81.727 40.8052C81.3498 40.5713 81.0264 40.0676 80.5774 39.7797C80.0565 39.4199 79.338 39.2399 78.871 38.8621C78.3142 38.4123 77.9549 37.7646 77.1646 37.3688C76.5898 37.0809 75.7636 36.865 75.117 36.5592C74.4164 36.2353 73.8237 35.7496 73.2848 35.5337C69.9798 34.1663 66.6209 34.1303 63.9267 32.565L63.9087 32.583Z" fill="white"/>
<path id="Vector_10" fill-rule="evenodd" clip-rule="evenodd" d="M125.195 36.1273H125.536C125.931 37.5667 123.902 38.3043 123.147 39.3299C121.082 41.0571 119.321 43.1261 117.561 45.1592C112.37 51.1864 106.91 57.0877 101.234 62.773C99.3297 64.6802 97.4257 66.5153 95.6475 68.4944C93.8513 70.4735 92.4143 72.7584 90.6181 74.7735C87.9238 77.7961 85.5528 80.9087 82.9663 84.1472C82.1939 85.1187 81.4395 86.5041 80.1104 86.8999C79.7332 85.3166 81.3857 84.3451 82.158 83.3555C84.7625 80.0271 87.4029 76.6986 90.1511 73.4061C93.7794 69.0701 97.3 64.5002 101.449 60.722C109.855 53.0755 116.447 43.7018 124.728 36.1453C124.979 36.3073 125.159 35.8575 125.177 36.1453L125.195 36.1273Z" fill="white"/>
<path id="Vector_11" fill-rule="evenodd" clip-rule="evenodd" d="M82.176 47.4442C81.3138 48.0199 80.9366 47.1563 80.2361 46.8685C78.4578 46.1668 76.9131 45.9329 75.4402 44.8174C74.8654 44.3856 74.5062 43.558 73.7338 43.2161C73.195 42.9823 72.6022 42.9463 72.1352 42.7664C70.7701 42.2266 70.1953 41.327 68.8302 40.3735C67.1598 39.204 64.5732 38.7902 62.2023 37.9806C61.5017 37.7467 59.7774 37.4768 60.3701 36.4873C61.4658 36.1814 63.4955 37.099 65.2738 37.6207C66.6748 38.0345 68.3273 38.6463 69.387 39.3299C70.3031 39.9237 70.8958 40.6793 71.776 41.1651C73.5183 42.1007 75.3863 42.3885 76.3383 44.0258C77.0388 44.1157 77.3262 44.6915 78.0447 45.0513C79.5715 45.807 82.2658 45.5011 82.158 47.4442H82.176Z" fill="white"/>
<path id="Vector_12" fill-rule="evenodd" clip-rule="evenodd" d="M75.2068 52.14C73.9674 52.3739 72.7819 51.6722 71.6683 50.9885C70.7522 50.4308 70.1774 49.3693 69.3871 49.0454C68.6686 48.7576 67.2855 48.9015 66.2976 48.7036C65.2019 48.4697 64.2679 47.75 63.1004 47.3362C60.5498 46.4186 59.2745 46.0588 56.9394 44.4755C56.203 43.9718 54.4966 42.8923 54.5505 42.4245C54.6403 41.6328 55.4306 41.9927 55.3588 41.9747C56.9035 42.5864 58.3764 44.3316 60.3881 45.2852C61.2503 45.699 62.4897 45.8969 63.5854 46.3107C64.5733 46.6885 65.5253 47.3722 66.4413 47.5701C67.7166 47.84 69.0817 47.6601 69.9798 48.0199C70.7342 48.3258 71.1833 49.1894 71.9197 49.7291C73.0693 50.5567 75.1349 50.6467 75.2247 52.122L75.2068 52.14Z" fill="white"/>
<path id="Vector_13" fill-rule="evenodd" clip-rule="evenodd" d="M58.538 48.1278C59.4541 48.0019 59.7954 50.5387 60.1366 51.5642C62.1843 57.5555 64.1062 63.6187 65.7228 69.9697C66.0461 71.2651 66.3874 72.5426 66.7466 73.748C67.0879 74.8995 67.8423 76.0869 67.537 77.2924C66.0641 77.1664 66.0102 75.2953 65.7049 74.3237C63.765 68.0986 62.5435 61.9454 60.3342 55.6843C59.5978 53.5973 58.2686 50.3228 58.1608 48.4877C58.2327 48.3257 58.3404 48.1998 58.5021 48.1458L58.538 48.1278Z" fill="white"/>
<path id="Vector_14" fill-rule="evenodd" clip-rule="evenodd" d="M70.5367 76.0329C69.5308 75.9429 69.5667 74.6115 69.3871 73.9818C68.3453 70.0057 67.1239 66.1015 65.7408 61.9814C65.1481 60.2182 64.4475 58.545 64.5912 56.9617C64.6631 56.7998 64.7709 56.6738 64.9325 56.6199C65.8665 56.404 65.7588 57.9872 65.9564 58.9048C66.5132 61.3157 67.555 63.9965 68.2375 66.2274C69.0099 68.7283 69.8361 71.0312 70.5187 73.55C70.7163 74.2697 71.2012 75.4212 70.5187 76.0689L70.5367 76.0329Z" fill="white"/>
<path id="Vector_15" fill-rule="evenodd" clip-rule="evenodd" d="M73.7338 72.8304C72.5124 72.6685 72.4046 71.0132 72.0274 69.9697C70.8779 66.7852 69.2613 62.4312 68.938 58.545C69.0098 58.3831 69.1176 58.2571 69.2793 58.2031C70.3929 58.1312 70.357 60.722 70.6444 61.8554C71.3629 64.6262 72.0095 66.8571 72.9255 69.412C73.3387 70.5814 74.4523 71.7689 73.7159 72.8484L73.7338 72.8304Z" fill="white"/>
<path id="Vector_16" fill-rule="evenodd" clip-rule="evenodd" d="M75.6738 71.1213C74.6679 70.6895 74.8296 69.3041 74.6499 68.3686C74.129 65.6698 72.4765 62.0535 72.6023 59.2288C72.6741 59.0668 72.7819 58.9589 72.9435 58.8869C73.9494 58.653 73.8596 60.956 74.0751 61.9815C74.614 64.3924 75.3325 65.7957 75.7815 68.0447C75.9971 69.0522 76.5539 70.4556 75.6738 71.1393V71.1213Z" fill="white"/>
<path id="Vector_17" fill-rule="evenodd" clip-rule="evenodd" d="M77.9549 67.9186C77.0029 67.7747 77.416 67.037 77.2724 66.3173C76.9131 64.4822 75.6199 62.1613 76.2485 60.7039C77.3083 60.488 77.1646 61.6755 77.3801 62.647C77.6316 63.7085 78.2782 65.1119 78.404 65.8495C78.5477 66.6412 78.6375 67.7387 77.9549 67.9006V67.9186Z" fill="white"/>
<path id="Vector_18" fill-rule="evenodd" clip-rule="evenodd" d="M61.6275 72.4884C60.6216 72.3625 60.5318 70.6893 60.1367 69.5198C59.8133 68.5663 58.4482 65.9395 59.5619 65.7416C60.3522 65.5976 60.945 68.3324 61.1605 68.9441C61.6095 70.2035 62.328 71.5349 61.6095 72.4884H61.6275Z" fill="white"/>
<g id="Vector_19">
<mask id="path-19-inside-1_6039_61" fill="white">
<path fill-rule="evenodd" clip-rule="evenodd" d="M70.4109 2.00123e-05C72.9794 0.287887 76.8413 1.85316 79.1943 2.62681C86.5048 5.0197 92.1089 8.20423 98.8267 11.0829C101.575 12.2524 104.179 13.098 106.694 14.5193C110.43 16.6064 114.777 19.1792 118.8 21.1583C122.285 22.8675 125.859 24.3068 128.841 26.6457C128.679 27.3834 129.129 27.6892 129.075 28.247C128.985 29.0566 128.302 29.0926 128.051 29.9562C127.997 30.1541 127.907 31.4135 127.943 31.6654C127.997 32.0972 128.392 32.547 128.518 33.1587C128.733 34.3102 128.302 35.1018 128.859 35.5516C129.47 36.0734 131.679 35.2817 132.505 35.2098C133.601 35.1198 134.607 35.3537 135.703 35.4437C137.643 35.6056 138.882 35.4437 140.265 36.1273C141.037 36.5052 141.953 37.2608 142.78 37.9625C144.935 39.7977 146.641 41.165 147.001 44.9433C147.593 51.0425 144.917 55.5224 141.971 58.437C137.678 62.6831 131.715 66.5873 129.182 71.9308C127.602 75.2773 127.027 81.5204 130.098 84.1652C130.548 84.0392 130.943 83.8593 131.589 83.9313C132.236 84.615 133.888 84.7769 135.02 85.2987C136.098 85.8024 137.211 86.8279 138.451 87.5836C140.93 89.1129 144.145 90.6242 146.103 92.8372C147.18 94.0786 148.456 96.0217 149.3 97.4071C150.072 98.6665 150.773 100.214 151.347 101.761C152.174 103.992 153.269 105.467 152.946 108.382C152.749 110.091 151.707 112.052 150.773 113.294C149.569 114.913 147.773 116.1 145.977 116.964C144.54 116.856 143.283 117.108 141.522 116.964C137.014 116.604 134.122 113.923 130.907 111.009C127.692 108.112 125.105 105.179 123.381 102.085C121.692 99.0803 120.058 94.1865 121.782 89.8505C122.752 87.4217 124.405 85.1007 127.26 84.471C126.255 82.42 125.195 79.3614 125.662 75.5472C125.949 73.2442 127.314 70.4735 128.518 68.5664C130.422 65.5618 133.565 63.2768 136.277 60.5601C137.571 59.2647 138.972 58.0053 140.265 56.6739C141.594 55.3245 143.049 53.8492 143.696 52.2119C145.025 48.8475 145.42 43.7918 143.354 41.3449C142.42 40.2474 139.906 38.1244 138.11 37.6746C134.93 36.901 131.625 37.6207 128.751 38.1424C128.679 38.7182 128.859 39.024 128.859 39.5098C130.763 39.4198 134.535 38.5202 134.679 40.8772C134.751 41.9387 132.523 43.6659 131.607 44.6554C130.332 46.0228 129.093 46.9044 127.961 47.8579C125.285 50.1249 123.453 52.4638 121.225 54.7128C118.98 56.9977 116.986 59.5345 114.723 61.8015C107.951 68.5844 102.329 76.7886 96.1144 84.0932C94.0488 86.5221 91.7677 88.807 89.72 91.2899C88.6962 92.5313 87.7083 93.8627 86.6305 95.0681C85.1217 96.7594 83.3974 98.1987 82.3017 100.214C79.0506 100.25 76.8053 98.3606 74.4344 97.3531C73.1591 96.8133 71.8478 96.2376 70.5546 95.7518C63.9086 93.233 56.7957 90.8041 50.1318 88.4292C48.7308 87.9254 47.3298 87.6376 45.9108 87.1698C44.4379 86.684 42.9111 86.0003 41.1149 85.4606C36.373 84.0033 31.3616 82.492 26.6196 80.6568C23.4763 79.4514 20.3868 78.2279 17.1537 77.2204C13.9385 76.2308 10.5976 75.4032 7.45421 74.1258C7.14885 73.73 7.18478 72.9563 7.34644 72.4166C4.09532 71.1212 0.664584 67.3249 0.16165 62.7011C-0.19759 59.5345 0.305345 56.0621 2.10154 54.4609C2.46078 54.155 3.0176 53.7772 3.70016 53.8852C3.87978 53.5253 3.772 52.8956 4.1492 52.7517C7.077 50.4128 10.2563 48.4157 13.0583 45.8968C14.4414 44.6374 16.0221 43.6299 17.3872 42.3525C20.6203 39.3659 24.5899 37.2608 28.2362 34.5801C30.2839 33.0688 32.2238 31.3416 34.0559 29.6683C45.2282 19.485 57.8914 10.5432 69.6744 0.863621C69.8361 0.449812 70.1415 0.179937 70.4827 -0.0539551L70.4109 2.00123e-05ZM70.7522 2.8607C72.5124 5.2536 73.4824 8.36616 74.7397 11.3168C75.7097 13.5478 76.6437 15.8507 77.5957 17.8298C77.901 18.4595 78.5477 19.2511 78.1704 20.0068C76.6257 19.7909 76.1228 17.6319 75.6558 16.4624C74.4703 13.4758 73.2129 10.5971 72.0095 7.77243C71.3808 6.31511 70.4109 4.94774 70.3031 3.31049C67.3573 5.19962 65.0403 7.95235 62.2023 9.94943C55.4845 14.6812 49.0541 20.0788 42.4621 25.2784C37.5405 29.1466 33.4272 34.0763 28.2003 37.4048C26.4041 38.5382 24.8055 39.9956 23.0632 41.0571C20.1354 42.8562 17.4051 45.0512 14.8366 47.3362C12.2501 49.6571 9.34021 51.4923 6.8435 53.8492C16.3993 56.5119 24.8953 61.0099 33.3194 65.058C36.1754 66.4254 38.9775 68.0986 41.8873 69.1781C45.5336 70.5275 49.2517 71.6609 52.8441 73.2982C54.5864 74.0898 56.167 75.2413 57.8734 76.1589C59.7954 77.1844 61.9328 77.9221 63.9266 78.9116C65.9384 79.9011 67.9681 80.8007 69.9798 81.6643C74.3446 76.8426 79.338 72.6685 84.1338 68.2785C86.5407 66.0835 88.768 63.6906 91.2108 61.5316C93.6716 59.3726 95.9169 57.0517 98.2878 54.7847C100.623 52.5538 103.048 50.4487 105.365 48.1458C107.682 45.8249 110.502 44.0617 112.891 41.8667C115.28 39.6717 117.417 37.1529 119.734 34.8859C122.069 32.601 124.818 30.6939 126.578 27.9051C123.686 25.7281 120.255 24.4148 116.986 22.7595C114.561 21.5181 112.137 20.0788 109.909 18.8733C109.047 18.4235 108.113 18.1716 107.287 17.7398C105.491 16.7683 103.91 15.5808 102.042 14.7712C100.515 14.1055 98.8986 13.6557 97.3538 12.9361C95.8809 12.2524 94.4081 11.5327 92.8993 10.885C88.2291 8.85194 84.1338 6.56699 79.0865 5.05569C80.2181 7.57452 81.9963 9.89545 83.3076 12.3783C83.7027 13.134 84.0081 14.0156 84.4571 14.7892C84.8164 15.4369 85.8043 16.1925 85.2475 17.0741C84.4032 17.5059 84.2596 16.4624 83.9901 16.0486C81.691 12.3603 79.4996 8.25821 77.4879 4.49794C76.7514 4.35401 75.7995 3.83225 75.2067 3.92221C77.1107 7.25067 77.8292 11.6766 79.6613 15.0051C80.1463 15.8867 81.2958 16.3365 81.0264 17.5239C79.6074 17.5959 78.7991 15.9766 78.2782 14.8971C76.5 11.0829 75.53 6.22515 73.3746 3.00463C72.5304 2.95066 71.3808 2.14103 70.7522 2.89668V2.8607ZM76.015 85.5145C78.2782 82.5459 80.5594 79.6313 82.9843 77.0585C86.2893 73.5321 89.7559 69.8618 93.1507 66.6593C100.3 59.8944 105.868 51.6902 112.783 45.0512C110.322 46.8864 108.077 49.4052 105.706 51.5642C104.359 52.7877 103.245 54.155 101.934 55.4504C100.695 56.6919 99.2398 57.6994 98.0543 58.9948C96.9946 60.1463 96.2581 61.5136 95.1984 62.6471C94.1746 63.7626 93.0789 64.8421 91.8934 65.8496C84.8343 71.7869 78.6375 78.9476 73.0513 86.1982C74.4164 86.1982 73.5722 88.4112 74.5421 88.825C75.099 88.9869 76.3383 88.3932 76.8233 89.0589C77.0927 89.7246 76.6257 90.0844 76.7155 90.8941C77.3442 91.2179 77.8471 91.092 78.7632 91.4698C79.5356 91.7757 80.5235 92.8552 80.8109 92.8372C81.1342 92.8372 82.8046 90.7681 83.4333 90.1024C84.4751 88.987 85.2475 87.9974 85.948 87.1338C87.8519 84.7769 89.3428 83.0857 90.9773 81.1965C94.0129 77.6342 96.7431 74.0538 99.4194 70.4555C99.8326 69.9157 100.371 69.5919 100.785 69.0881C101.072 68.7283 101.27 68.0806 101.467 67.8287C102.347 66.7312 103.694 65.6157 104.772 64.5182C106.479 62.809 108.059 61.0638 109.568 59.3726C110.089 58.7969 110.628 58.2391 111.167 57.6634C114.382 54.227 117.435 50.5387 120.525 47.1383C122.662 44.7993 125.033 42.8023 126.686 40.2834C126.542 39.9596 126.56 39.4918 126.578 39.024C124.405 40.8951 122.59 43.1801 120.65 45.3211C116.699 49.6751 113.035 54.173 109.011 58.3471C106.999 60.4341 105.347 62.917 103.425 65.094C99.5991 69.412 96.33 74.3777 92.3604 78.5877C91.3725 79.6313 90.2229 80.5668 89.1632 81.5564C86.9898 83.5894 85.1577 85.7664 83.2357 87.9614C82.4274 88.879 81.3138 90.7861 79.9307 90.3723C80.4157 88.951 81.6012 87.9254 82.5532 86.8279C85.5169 83.4275 88.8578 80.5309 91.9113 77.3463C93.9231 75.2413 95.7552 72.7584 97.4975 70.3655C100.156 66.7492 103.317 63.4927 106.065 60.0743C108.867 56.5659 111.993 53.4174 114.849 50.0169C118.657 45.465 122.95 41.3449 126.722 36.7571C126.003 35.7135 126.829 33.1407 125.464 32.7629C125.554 33.5186 125.195 33.8604 124.89 34.2562C124.135 35.1918 123.057 35.8755 122.141 36.7751C120.345 38.5382 118.477 40.2834 116.896 42.1546C116.088 43.1081 115.208 44.0617 114.382 45.0152C112.729 46.9044 110.753 48.4876 109.137 50.3948C104.215 56.1521 99.8146 62.3952 94.3003 67.4329C92.4322 69.1421 90.8157 70.9593 89.0554 72.8124C87.3311 74.6116 85.3552 76.2488 83.6848 78.066C81.0084 80.9986 78.4758 84.3451 76.033 87.3317C75.6917 87.7455 75.4941 88.6271 74.7756 88.5911C73.68 87.3497 75.4402 86.3782 76.033 85.6225L76.015 85.5145ZM131.033 41.6148C130.009 41.3269 129.488 42.3525 128.644 42.4244C127.979 42.4784 127.314 41.8127 127.045 41.8487C126.758 41.8847 126.201 42.9462 125.68 43.5579C125.105 44.2236 124.476 44.6554 124.081 45.0512C119.77 49.3692 116.304 53.9751 112.334 58.0772C109.209 61.2977 106.461 64.5182 103.317 67.6848C101.27 69.7358 99.7248 72.2727 97.8388 74.5396C96.0067 76.7706 94.3362 79.1995 92.3604 81.5204C90.6001 83.5894 88.6962 85.6765 86.6485 88.1593C85.8582 89.1129 84.8703 90.3003 83.7925 91.4698C82.8944 92.4594 81.3138 94.3665 80.4875 94.4384C79.338 94.5464 78.2243 92.9451 77.3981 92.4953C75.4043 91.3978 73.2489 91.3619 70.7881 90.7861C66.9622 89.8865 63.2261 88.1054 59.49 87.1338C56.9214 86.4501 54.4786 85.4606 51.964 84.7409C49.3056 83.9853 46.5754 83.4635 43.8631 82.7978C38.8158 81.5384 34.2175 79.0735 29.1343 77.6522C25.2186 76.5547 21.1771 75.6551 17.1537 74.6835C15.1958 74.1978 13.4355 73.2082 11.334 73.3162C14.4234 74.1078 17.459 74.9534 20.4587 75.943C23.3685 76.9145 26.0987 78.2819 29.0265 79.1455C31.9902 80.0091 34.8462 81.1786 37.8099 82.1141C42.2286 83.5175 46.3957 84.7049 50.7066 86.2342C51.946 86.666 53.2033 87.2777 54.4786 87.7275C57.0831 88.6451 59.7056 89.4727 62.2382 90.4623C67.3933 92.4953 72.692 93.9886 77.5418 96.2916C78.6375 96.8133 79.6074 97.6589 80.8468 97.8928C85.2654 93.9347 88.4267 88.861 92.6119 84.633C96.815 80.3689 100.012 75.2773 103.91 70.7973C105.868 68.5484 107.7 66.2274 109.73 64.0505C115.819 57.5015 121.531 50.7366 128.105 44.7274C129.129 44.0797 129.919 43.1981 130.727 42.3345C130.979 41.8847 131.751 41.8307 131.068 41.6508L131.033 41.6148ZM11.4058 58.0772C13.5792 58.635 15.3754 59.4986 17.3333 60.2542C17.5309 60.0203 16.8483 59.8404 16.525 59.6785C13.6152 58.1672 9.68149 57.0157 6.14298 56.0262C5.99929 57.0517 5.24488 57.5015 5.46043 58.8868C15.6269 62.0354 25.1827 66.4254 35.7084 68.8362C34.4151 68.6743 33.5529 67.5588 32.4034 67.0011C32.0082 66.8032 31.4514 66.8212 31.0383 66.6593C29.6372 66.1015 28.326 65.2199 26.925 64.6082C23.2607 62.9889 18.896 62.1253 15.2856 60.722C14.5492 60.4341 13.8666 59.9663 13.1122 59.6965C11.9088 59.2647 10.1844 59.2107 8.89116 58.7789C8.31638 58.581 7.25662 58.1672 7.29255 57.2856C8.62173 57.0517 10.0587 57.7354 11.4058 58.0952V58.0772ZM6.8435 69.6279C6.48426 66.8932 2.87391 65.1659 4.79584 61.9634C3.34092 61.1898 3.05353 58.3471 3.43073 56.476C0.880128 61.1358 3.21518 67.7388 6.86146 69.6279H6.8435ZM7.52605 63.5647C8.71154 63.4747 10.7412 64.3743 12.3219 64.8241C13.9744 65.2919 15.5191 66.0116 16.8842 66.3174C20.4587 67.0911 23.7277 67.5768 26.925 68.4944C29.9067 69.34 33.0141 70.5095 36.0496 71.571C42.2645 73.748 48.174 76.0329 53.9757 77.8501C50.0779 76.4287 46.6113 73.9279 42.5698 72.3626C39.2828 71.0852 35.7802 70.3475 32.2956 69.286C27.4818 67.7927 22.9374 66.2275 18.3751 64.5902C14.5671 63.2408 10.8131 61.6936 6.8435 60.704C7.93918 62.0174 6.6998 63.3308 6.60999 64.1404C6.75369 63.6007 7.09497 63.6007 7.52605 63.5647ZM86.7383 69.0522C88.5884 66.9111 91.4264 65.13 92.8993 62.9889C90.9773 65.058 88.2471 66.9291 86.7383 69.0522ZM8.31638 66.6593C8.33434 67.3969 8.56785 67.9187 8.99894 68.1526C9.53779 68.4404 9.66353 68.0086 10.7053 67.9187C11.9088 67.8287 13.8846 68.4584 15.5012 68.9442C23.5122 71.3191 30.9485 72.4526 38.223 75.3492C41.2766 76.5547 44.4738 77.2744 47.0064 78.2099C47.5094 78.3898 47.9764 78.8216 48.4973 79.0195C50.1678 79.6133 51.9999 79.9731 53.7422 80.5129C55.4845 81.0526 56.9753 82.0422 58.4302 82.5639C59.9031 83.1037 60.5318 83.2656 61.7353 83.8233C62.4178 84.1472 63.1183 84.2371 63.7829 84.507C65.0223 85.0288 66.9622 86.3782 67.8962 86.792C69.0997 87.3317 72.5484 87.9074 72.4585 88.7351C72.3508 89.8326 70.5187 89.0049 70.4109 88.969C68.1117 88.2493 65.5432 87.4217 63.5674 86.9179C60.2803 86.0543 57.5322 84.7229 54.4427 84.3991C61.1425 86.1443 66.9622 88.789 74.0751 90.1204C73.8057 89.5087 72.5124 88.933 72.71 87.4936C71.9736 87.3497 71.6143 86.8459 71.2192 86.3602C66.0641 83.9673 60.2983 82.384 55.3588 79.9551C53.4728 79.0195 51.5508 78.4798 49.5391 77.6702C45.4617 75.9969 41.1688 74.6476 36.7502 73.2082C32.8704 71.9488 28.9906 70.2216 24.7695 69.322C18.5547 67.9906 12.8787 66.2634 6.96923 64.7521C6.89739 64.7521 6.82554 64.7521 6.86146 64.8601C7.38236 65.4538 7.93918 65.9936 8.3523 66.6952L8.31638 66.6593ZM15.9682 70.9953C18.393 71.7149 21.0514 71.8409 23.62 72.5965C25.2725 73.0823 26.9968 73.9099 28.6314 74.6476C30.3737 75.4392 32.2238 75.7451 34.002 76.3568C35.7982 76.9865 37.4327 77.6882 39.2469 78.1919C43.0548 79.2355 46.737 80.3869 50.2037 81.6283C53.7601 82.9058 57.3885 83.6794 60.8192 84.8309C61.1784 84.597 59.7235 84.2911 59.4541 83.9133C58.8613 83.8593 58.4482 83.6254 57.8555 83.5714C54.8738 81.7003 51.2994 81.2505 48.0482 80.0271C38.2769 76.3568 28.2003 72.9923 17.2255 70.7614C15.3215 70.2576 13.3278 69.2501 11.2801 69.2681C13.0045 69.5019 14.3336 70.5095 15.9682 70.9953ZM22.1291 74.7735C24.3564 75.3852 25.8832 75.4752 28.1823 76.0329C28.6314 76.1409 31.1101 77.0405 30.0144 76.4827C27.5716 75.2413 24.9671 74.1798 22.0214 73.5141C17.4949 72.4706 13.4535 71.553 9.57372 69.8618C9.89703 70.2576 9.69945 71.1932 9.915 71.6969C14.639 72.5425 18.0697 73.658 22.1291 74.7915V74.7735ZM77.9549 76.8246C75.4762 78.9296 73.1411 81.3765 71.3449 84.1472C71.9915 84.1112 72.2969 84.4171 72.6022 84.7229C76.6078 79.7392 81.0623 74.5936 85.2654 70.2036C82.7867 72.3806 80.4696 74.7015 77.9549 76.8426V76.8246ZM52.8441 75.907C52.2334 75.7091 51.5508 74.9894 50.9042 75.2233C51.5508 75.3852 52.3232 76.0149 52.8441 75.907ZM32.8704 77.2923C32.6728 77.2564 32.583 77.4183 32.8704 77.4003C37.8458 79.8112 43.6296 82.0062 49.8804 82.7798C44.4558 80.7108 38.1692 79.5053 32.8704 77.2923ZM55.5743 78.7677C56.2748 79.0016 57.0651 79.7932 57.8555 79.5593C57.1729 79.3434 55.8258 78.6417 55.5743 78.7677ZM66.6568 82.9957C67.7525 83.6794 69.0278 84.2012 70.3031 84.7049C70.3031 84.4351 70.1055 84.3631 70.1953 84.0212C68.6147 84.1472 67.9142 82.8158 66.6568 82.9957ZM134.912 94.8882C136.493 93.6108 138.954 93.233 139.133 90.5522C136.349 89.6886 135.092 86.4141 131.374 87.2418C130.889 87.1518 130.727 86.1443 130.116 86.5581C132.11 88.933 133.942 91.4878 134.912 94.9062V94.8882ZM123.83 97.7489C125.321 97.3351 126.829 97.8748 128.284 97.515C129.829 97.1372 131.284 96.0577 132.847 95.9138C131.553 92.1715 129.973 88.7171 126.686 86.9899C123.866 88.6991 122.519 93.6288 123.83 97.7309V97.7489ZM74.9732 90.2104C75.2606 90.2823 75.566 90.4443 75.548 89.9765C75.2606 89.9765 75.081 90.0305 74.9732 90.2104ZM135.828 97.0652C134.661 97.7489 133.583 98.0008 132.182 98.4326C129.793 99.1882 128.051 100.196 124.997 99.9259C125.788 101.779 126.919 103.254 128.087 104.73C128.949 104.388 128.823 102.481 129.793 102.553C131.176 102.661 129.38 105.125 128.877 105.755C129.326 106.115 129.524 106.727 130.134 106.889C131.068 105.539 131.32 103.506 132.883 102.769C133.781 103.65 132.595 104.568 132.2 105.287C131.715 106.169 131.356 107.141 130.943 107.914C131.428 108.292 131.805 108.796 132.308 109.174C132.793 108.094 133.206 107.446 133.906 106.205C134.122 105.827 135.056 103.416 135.739 103.452C136.888 103.542 135.541 105.935 135.289 106.421C134.607 107.698 133.709 108.868 133.008 109.839C133.565 110.235 133.924 110.829 134.499 111.207C135.146 109.749 136.475 107.788 136.888 106.403C137.068 105.809 136.816 104.982 137.571 105.036C138.235 105.09 138.181 106.007 138.02 106.637C137.643 108.094 136.08 110.811 135.164 111.89C135.936 112.232 136.565 112.7 137.211 113.15C137.445 111.854 138.002 110.613 138.577 109.497C139.133 108.418 139.313 106.781 140.624 106.421C140.786 106.493 140.894 106.601 140.965 106.763C140.049 109.12 139.115 111.477 137.894 113.51C138.379 113.78 138.936 113.995 139.493 114.193C139.924 113.078 141.091 111.567 141.432 110.307C141.558 109.839 141.217 108.634 142.115 108.706C142.905 108.778 142.726 110.235 142.564 110.757C142.241 111.926 141.001 113.312 140.732 114.409C141.486 114.697 142.402 114.787 143.48 114.751C143.57 114.427 143.606 114.049 143.714 113.726C144.666 113.42 144.612 109.533 145.761 109.605C146.749 109.677 145.995 111.441 145.761 112.124C145.348 113.276 144.917 113.762 144.737 114.751C145.33 114.769 145.636 114.517 146.103 114.409C146.282 113.114 147.108 112.448 147.593 111.441C147.755 108.562 149.515 111.045 148.617 112.25C149.426 110.757 150.719 109.551 150.791 107.554C150.827 106.169 149.893 104.262 149.3 102.643C147.737 98.2527 144.396 93.6828 141.199 91.9016C140.786 94.1866 137.84 95.8598 135.828 97.0472V97.0652Z"/>
</mask>
<path fill-rule="evenodd" clip-rule="evenodd" d="M70.4109 2.00123e-05C72.9794 0.287887 76.8413 1.85316 79.1943 2.62681C86.5048 5.0197 92.1089 8.20423 98.8267 11.0829C101.575 12.2524 104.179 13.098 106.694 14.5193C110.43 16.6064 114.777 19.1792 118.8 21.1583C122.285 22.8675 125.859 24.3068 128.841 26.6457C128.679 27.3834 129.129 27.6892 129.075 28.247C128.985 29.0566 128.302 29.0926 128.051 29.9562C127.997 30.1541 127.907 31.4135 127.943 31.6654C127.997 32.0972 128.392 32.547 128.518 33.1587C128.733 34.3102 128.302 35.1018 128.859 35.5516C129.47 36.0734 131.679 35.2817 132.505 35.2098C133.601 35.1198 134.607 35.3537 135.703 35.4437C137.643 35.6056 138.882 35.4437 140.265 36.1273C141.037 36.5052 141.953 37.2608 142.78 37.9625C144.935 39.7977 146.641 41.165 147.001 44.9433C147.593 51.0425 144.917 55.5224 141.971 58.437C137.678 62.6831 131.715 66.5873 129.182 71.9308C127.602 75.2773 127.027 81.5204 130.098 84.1652C130.548 84.0392 130.943 83.8593 131.589 83.9313C132.236 84.615 133.888 84.7769 135.02 85.2987C136.098 85.8024 137.211 86.8279 138.451 87.5836C140.93 89.1129 144.145 90.6242 146.103 92.8372C147.18 94.0786 148.456 96.0217 149.3 97.4071C150.072 98.6665 150.773 100.214 151.347 101.761C152.174 103.992 153.269 105.467 152.946 108.382C152.749 110.091 151.707 112.052 150.773 113.294C149.569 114.913 147.773 116.1 145.977 116.964C144.54 116.856 143.283 117.108 141.522 116.964C137.014 116.604 134.122 113.923 130.907 111.009C127.692 108.112 125.105 105.179 123.381 102.085C121.692 99.0803 120.058 94.1865 121.782 89.8505C122.752 87.4217 124.405 85.1007 127.26 84.471C126.255 82.42 125.195 79.3614 125.662 75.5472C125.949 73.2442 127.314 70.4735 128.518 68.5664C130.422 65.5618 133.565 63.2768 136.277 60.5601C137.571 59.2647 138.972 58.0053 140.265 56.6739C141.594 55.3245 143.049 53.8492 143.696 52.2119C145.025 48.8475 145.42 43.7918 143.354 41.3449C142.42 40.2474 139.906 38.1244 138.11 37.6746C134.93 36.901 131.625 37.6207 128.751 38.1424C128.679 38.7182 128.859 39.024 128.859 39.5098C130.763 39.4198 134.535 38.5202 134.679 40.8772C134.751 41.9387 132.523 43.6659 131.607 44.6554C130.332 46.0228 129.093 46.9044 127.961 47.8579C125.285 50.1249 123.453 52.4638 121.225 54.7128C118.98 56.9977 116.986 59.5345 114.723 61.8015C107.951 68.5844 102.329 76.7886 96.1144 84.0932C94.0488 86.5221 91.7677 88.807 89.72 91.2899C88.6962 92.5313 87.7083 93.8627 86.6305 95.0681C85.1217 96.7594 83.3974 98.1987 82.3017 100.214C79.0506 100.25 76.8053 98.3606 74.4344 97.3531C73.1591 96.8133 71.8478 96.2376 70.5546 95.7518C63.9086 93.233 56.7957 90.8041 50.1318 88.4292C48.7308 87.9254 47.3298 87.6376 45.9108 87.1698C44.4379 86.684 42.9111 86.0003 41.1149 85.4606C36.373 84.0033 31.3616 82.492 26.6196 80.6568C23.4763 79.4514 20.3868 78.2279 17.1537 77.2204C13.9385 76.2308 10.5976 75.4032 7.45421 74.1258C7.14885 73.73 7.18478 72.9563 7.34644 72.4166C4.09532 71.1212 0.664584 67.3249 0.16165 62.7011C-0.19759 59.5345 0.305345 56.0621 2.10154 54.4609C2.46078 54.155 3.0176 53.7772 3.70016 53.8852C3.87978 53.5253 3.772 52.8956 4.1492 52.7517C7.077 50.4128 10.2563 48.4157 13.0583 45.8968C14.4414 44.6374 16.0221 43.6299 17.3872 42.3525C20.6203 39.3659 24.5899 37.2608 28.2362 34.5801C30.2839 33.0688 32.2238 31.3416 34.0559 29.6683C45.2282 19.485 57.8914 10.5432 69.6744 0.863621C69.8361 0.449812 70.1415 0.179937 70.4827 -0.0539551L70.4109 2.00123e-05ZM70.7522 2.8607C72.5124 5.2536 73.4824 8.36616 74.7397 11.3168C75.7097 13.5478 76.6437 15.8507 77.5957 17.8298C77.901 18.4595 78.5477 19.2511 78.1704 20.0068C76.6257 19.7909 76.1228 17.6319 75.6558 16.4624C74.4703 13.4758 73.2129 10.5971 72.0095 7.77243C71.3808 6.31511 70.4109 4.94774 70.3031 3.31049C67.3573 5.19962 65.0403 7.95235 62.2023 9.94943C55.4845 14.6812 49.0541 20.0788 42.4621 25.2784C37.5405 29.1466 33.4272 34.0763 28.2003 37.4048C26.4041 38.5382 24.8055 39.9956 23.0632 41.0571C20.1354 42.8562 17.4051 45.0512 14.8366 47.3362C12.2501 49.6571 9.34021 51.4923 6.8435 53.8492C16.3993 56.5119 24.8953 61.0099 33.3194 65.058C36.1754 66.4254 38.9775 68.0986 41.8873 69.1781C45.5336 70.5275 49.2517 71.6609 52.8441 73.2982C54.5864 74.0898 56.167 75.2413 57.8734 76.1589C59.7954 77.1844 61.9328 77.9221 63.9266 78.9116C65.9384 79.9011 67.9681 80.8007 69.9798 81.6643C74.3446 76.8426 79.338 72.6685 84.1338 68.2785C86.5407 66.0835 88.768 63.6906 91.2108 61.5316C93.6716 59.3726 95.9169 57.0517 98.2878 54.7847C100.623 52.5538 103.048 50.4487 105.365 48.1458C107.682 45.8249 110.502 44.0617 112.891 41.8667C115.28 39.6717 117.417 37.1529 119.734 34.8859C122.069 32.601 124.818 30.6939 126.578 27.9051C123.686 25.7281 120.255 24.4148 116.986 22.7595C114.561 21.5181 112.137 20.0788 109.909 18.8733C109.047 18.4235 108.113 18.1716 107.287 17.7398C105.491 16.7683 103.91 15.5808 102.042 14.7712C100.515 14.1055 98.8986 13.6557 97.3538 12.9361C95.8809 12.2524 94.4081 11.5327 92.8993 10.885C88.2291 8.85194 84.1338 6.56699 79.0865 5.05569C80.2181 7.57452 81.9963 9.89545 83.3076 12.3783C83.7027 13.134 84.0081 14.0156 84.4571 14.7892C84.8164 15.4369 85.8043 16.1925 85.2475 17.0741C84.4032 17.5059 84.2596 16.4624 83.9901 16.0486C81.691 12.3603 79.4996 8.25821 77.4879 4.49794C76.7514 4.35401 75.7995 3.83225 75.2067 3.92221C77.1107 7.25067 77.8292 11.6766 79.6613 15.0051C80.1463 15.8867 81.2958 16.3365 81.0264 17.5239C79.6074 17.5959 78.7991 15.9766 78.2782 14.8971C76.5 11.0829 75.53 6.22515 73.3746 3.00463C72.5304 2.95066 71.3808 2.14103 70.7522 2.89668V2.8607ZM76.015 85.5145C78.2782 82.5459 80.5594 79.6313 82.9843 77.0585C86.2893 73.5321 89.7559 69.8618 93.1507 66.6593C100.3 59.8944 105.868 51.6902 112.783 45.0512C110.322 46.8864 108.077 49.4052 105.706 51.5642C104.359 52.7877 103.245 54.155 101.934 55.4504C100.695 56.6919 99.2398 57.6994 98.0543 58.9948C96.9946 60.1463 96.2581 61.5136 95.1984 62.6471C94.1746 63.7626 93.0789 64.8421 91.8934 65.8496C84.8343 71.7869 78.6375 78.9476 73.0513 86.1982C74.4164 86.1982 73.5722 88.4112 74.5421 88.825C75.099 88.9869 76.3383 88.3932 76.8233 89.0589C77.0927 89.7246 76.6257 90.0844 76.7155 90.8941C77.3442 91.2179 77.8471 91.092 78.7632 91.4698C79.5356 91.7757 80.5235 92.8552 80.8109 92.8372C81.1342 92.8372 82.8046 90.7681 83.4333 90.1024C84.4751 88.987 85.2475 87.9974 85.948 87.1338C87.8519 84.7769 89.3428 83.0857 90.9773 81.1965C94.0129 77.6342 96.7431 74.0538 99.4194 70.4555C99.8326 69.9157 100.371 69.5919 100.785 69.0881C101.072 68.7283 101.27 68.0806 101.467 67.8287C102.347 66.7312 103.694 65.6157 104.772 64.5182C106.479 62.809 108.059 61.0638 109.568 59.3726C110.089 58.7969 110.628 58.2391 111.167 57.6634C114.382 54.227 117.435 50.5387 120.525 47.1383C122.662 44.7993 125.033 42.8023 126.686 40.2834C126.542 39.9596 126.56 39.4918 126.578 39.024C124.405 40.8951 122.59 43.1801 120.65 45.3211C116.699 49.6751 113.035 54.173 109.011 58.3471C106.999 60.4341 105.347 62.917 103.425 65.094C99.5991 69.412 96.33 74.3777 92.3604 78.5877C91.3725 79.6313 90.2229 80.5668 89.1632 81.5564C86.9898 83.5894 85.1577 85.7664 83.2357 87.9614C82.4274 88.879 81.3138 90.7861 79.9307 90.3723C80.4157 88.951 81.6012 87.9254 82.5532 86.8279C85.5169 83.4275 88.8578 80.5309 91.9113 77.3463C93.9231 75.2413 95.7552 72.7584 97.4975 70.3655C100.156 66.7492 103.317 63.4927 106.065 60.0743C108.867 56.5659 111.993 53.4174 114.849 50.0169C118.657 45.465 122.95 41.3449 126.722 36.7571C126.003 35.7135 126.829 33.1407 125.464 32.7629C125.554 33.5186 125.195 33.8604 124.89 34.2562C124.135 35.1918 123.057 35.8755 122.141 36.7751C120.345 38.5382 118.477 40.2834 116.896 42.1546C116.088 43.1081 115.208 44.0617 114.382 45.0152C112.729 46.9044 110.753 48.4876 109.137 50.3948C104.215 56.1521 99.8146 62.3952 94.3003 67.4329C92.4322 69.1421 90.8157 70.9593 89.0554 72.8124C87.3311 74.6116 85.3552 76.2488 83.6848 78.066C81.0084 80.9986 78.4758 84.3451 76.033 87.3317C75.6917 87.7455 75.4941 88.6271 74.7756 88.5911C73.68 87.3497 75.4402 86.3782 76.033 85.6225L76.015 85.5145ZM131.033 41.6148C130.009 41.3269 129.488 42.3525 128.644 42.4244C127.979 42.4784 127.314 41.8127 127.045 41.8487C126.758 41.8847 126.201 42.9462 125.68 43.5579C125.105 44.2236 124.476 44.6554 124.081 45.0512C119.77 49.3692 116.304 53.9751 112.334 58.0772C109.209 61.2977 106.461 64.5182 103.317 67.6848C101.27 69.7358 99.7248 72.2727 97.8388 74.5396C96.0067 76.7706 94.3362 79.1995 92.3604 81.5204C90.6001 83.5894 88.6962 85.6765 86.6485 88.1593C85.8582 89.1129 84.8703 90.3003 83.7925 91.4698C82.8944 92.4594 81.3138 94.3665 80.4875 94.4384C79.338 94.5464 78.2243 92.9451 77.3981 92.4953C75.4043 91.3978 73.2489 91.3619 70.7881 90.7861C66.9622 89.8865 63.2261 88.1054 59.49 87.1338C56.9214 86.4501 54.4786 85.4606 51.964 84.7409C49.3056 83.9853 46.5754 83.4635 43.8631 82.7978C38.8158 81.5384 34.2175 79.0735 29.1343 77.6522C25.2186 76.5547 21.1771 75.6551 17.1537 74.6835C15.1958 74.1978 13.4355 73.2082 11.334 73.3162C14.4234 74.1078 17.459 74.9534 20.4587 75.943C23.3685 76.9145 26.0987 78.2819 29.0265 79.1455C31.9902 80.0091 34.8462 81.1786 37.8099 82.1141C42.2286 83.5175 46.3957 84.7049 50.7066 86.2342C51.946 86.666 53.2033 87.2777 54.4786 87.7275C57.0831 88.6451 59.7056 89.4727 62.2382 90.4623C67.3933 92.4953 72.692 93.9886 77.5418 96.2916C78.6375 96.8133 79.6074 97.6589 80.8468 97.8928C85.2654 93.9347 88.4267 88.861 92.6119 84.633C96.815 80.3689 100.012 75.2773 103.91 70.7973C105.868 68.5484 107.7 66.2274 109.73 64.0505C115.819 57.5015 121.531 50.7366 128.105 44.7274C129.129 44.0797 129.919 43.1981 130.727 42.3345C130.979 41.8847 131.751 41.8307 131.068 41.6508L131.033 41.6148ZM11.4058 58.0772C13.5792 58.635 15.3754 59.4986 17.3333 60.2542C17.5309 60.0203 16.8483 59.8404 16.525 59.6785C13.6152 58.1672 9.68149 57.0157 6.14298 56.0262C5.99929 57.0517 5.24488 57.5015 5.46043 58.8868C15.6269 62.0354 25.1827 66.4254 35.7084 68.8362C34.4151 68.6743 33.5529 67.5588 32.4034 67.0011C32.0082 66.8032 31.4514 66.8212 31.0383 66.6593C29.6372 66.1015 28.326 65.2199 26.925 64.6082C23.2607 62.9889 18.896 62.1253 15.2856 60.722C14.5492 60.4341 13.8666 59.9663 13.1122 59.6965C11.9088 59.2647 10.1844 59.2107 8.89116 58.7789C8.31638 58.581 7.25662 58.1672 7.29255 57.2856C8.62173 57.0517 10.0587 57.7354 11.4058 58.0952V58.0772ZM6.8435 69.6279C6.48426 66.8932 2.87391 65.1659 4.79584 61.9634C3.34092 61.1898 3.05353 58.3471 3.43073 56.476C0.880128 61.1358 3.21518 67.7388 6.86146 69.6279H6.8435ZM7.52605 63.5647C8.71154 63.4747 10.7412 64.3743 12.3219 64.8241C13.9744 65.2919 15.5191 66.0116 16.8842 66.3174C20.4587 67.0911 23.7277 67.5768 26.925 68.4944C29.9067 69.34 33.0141 70.5095 36.0496 71.571C42.2645 73.748 48.174 76.0329 53.9757 77.8501C50.0779 76.4287 46.6113 73.9279 42.5698 72.3626C39.2828 71.0852 35.7802 70.3475 32.2956 69.286C27.4818 67.7927 22.9374 66.2275 18.3751 64.5902C14.5671 63.2408 10.8131 61.6936 6.8435 60.704C7.93918 62.0174 6.6998 63.3308 6.60999 64.1404C6.75369 63.6007 7.09497 63.6007 7.52605 63.5647ZM86.7383 69.0522C88.5884 66.9111 91.4264 65.13 92.8993 62.9889C90.9773 65.058 88.2471 66.9291 86.7383 69.0522ZM8.31638 66.6593C8.33434 67.3969 8.56785 67.9187 8.99894 68.1526C9.53779 68.4404 9.66353 68.0086 10.7053 67.9187C11.9088 67.8287 13.8846 68.4584 15.5012 68.9442C23.5122 71.3191 30.9485 72.4526 38.223 75.3492C41.2766 76.5547 44.4738 77.2744 47.0064 78.2099C47.5094 78.3898 47.9764 78.8216 48.4973 79.0195C50.1678 79.6133 51.9999 79.9731 53.7422 80.5129C55.4845 81.0526 56.9753 82.0422 58.4302 82.5639C59.9031 83.1037 60.5318 83.2656 61.7353 83.8233C62.4178 84.1472 63.1183 84.2371 63.7829 84.507C65.0223 85.0288 66.9622 86.3782 67.8962 86.792C69.0997 87.3317 72.5484 87.9074 72.4585 88.7351C72.3508 89.8326 70.5187 89.0049 70.4109 88.969C68.1117 88.2493 65.5432 87.4217 63.5674 86.9179C60.2803 86.0543 57.5322 84.7229 54.4427 84.3991C61.1425 86.1443 66.9622 88.789 74.0751 90.1204C73.8057 89.5087 72.5124 88.933 72.71 87.4936C71.9736 87.3497 71.6143 86.8459 71.2192 86.3602C66.0641 83.9673 60.2983 82.384 55.3588 79.9551C53.4728 79.0195 51.5508 78.4798 49.5391 77.6702C45.4617 75.9969 41.1688 74.6476 36.7502 73.2082C32.8704 71.9488 28.9906 70.2216 24.7695 69.322C18.5547 67.9906 12.8787 66.2634 6.96923 64.7521C6.89739 64.7521 6.82554 64.7521 6.86146 64.8601C7.38236 65.4538 7.93918 65.9936 8.3523 66.6952L8.31638 66.6593ZM15.9682 70.9953C18.393 71.7149 21.0514 71.8409 23.62 72.5965C25.2725 73.0823 26.9968 73.9099 28.6314 74.6476C30.3737 75.4392 32.2238 75.7451 34.002 76.3568C35.7982 76.9865 37.4327 77.6882 39.2469 78.1919C43.0548 79.2355 46.737 80.3869 50.2037 81.6283C53.7601 82.9058 57.3885 83.6794 60.8192 84.8309C61.1784 84.597 59.7235 84.2911 59.4541 83.9133C58.8613 83.8593 58.4482 83.6254 57.8555 83.5714C54.8738 81.7003 51.2994 81.2505 48.0482 80.0271C38.2769 76.3568 28.2003 72.9923 17.2255 70.7614C15.3215 70.2576 13.3278 69.2501 11.2801 69.2681C13.0045 69.5019 14.3336 70.5095 15.9682 70.9953ZM22.1291 74.7735C24.3564 75.3852 25.8832 75.4752 28.1823 76.0329C28.6314 76.1409 31.1101 77.0405 30.0144 76.4827C27.5716 75.2413 24.9671 74.1798 22.0214 73.5141C17.4949 72.4706 13.4535 71.553 9.57372 69.8618C9.89703 70.2576 9.69945 71.1932 9.915 71.6969C14.639 72.5425 18.0697 73.658 22.1291 74.7915V74.7735ZM77.9549 76.8246C75.4762 78.9296 73.1411 81.3765 71.3449 84.1472C71.9915 84.1112 72.2969 84.4171 72.6022 84.7229C76.6078 79.7392 81.0623 74.5936 85.2654 70.2036C82.7867 72.3806 80.4696 74.7015 77.9549 76.8426V76.8246ZM52.8441 75.907C52.2334 75.7091 51.5508 74.9894 50.9042 75.2233C51.5508 75.3852 52.3232 76.0149 52.8441 75.907ZM32.8704 77.2923C32.6728 77.2564 32.583 77.4183 32.8704 77.4003C37.8458 79.8112 43.6296 82.0062 49.8804 82.7798C44.4558 80.7108 38.1692 79.5053 32.8704 77.2923ZM55.5743 78.7677C56.2748 79.0016 57.0651 79.7932 57.8555 79.5593C57.1729 79.3434 55.8258 78.6417 55.5743 78.7677ZM66.6568 82.9957C67.7525 83.6794 69.0278 84.2012 70.3031 84.7049C70.3031 84.4351 70.1055 84.3631 70.1953 84.0212C68.6147 84.1472 67.9142 82.8158 66.6568 82.9957ZM134.912 94.8882C136.493 93.6108 138.954 93.233 139.133 90.5522C136.349 89.6886 135.092 86.4141 131.374 87.2418C130.889 87.1518 130.727 86.1443 130.116 86.5581C132.11 88.933 133.942 91.4878 134.912 94.9062V94.8882ZM123.83 97.7489C125.321 97.3351 126.829 97.8748 128.284 97.515C129.829 97.1372 131.284 96.0577 132.847 95.9138C131.553 92.1715 129.973 88.7171 126.686 86.9899C123.866 88.6991 122.519 93.6288 123.83 97.7309V97.7489ZM74.9732 90.2104C75.2606 90.2823 75.566 90.4443 75.548 89.9765C75.2606 89.9765 75.081 90.0305 74.9732 90.2104ZM135.828 97.0652C134.661 97.7489 133.583 98.0008 132.182 98.4326C129.793 99.1882 128.051 100.196 124.997 99.9259C125.788 101.779 126.919 103.254 128.087 104.73C128.949 104.388 128.823 102.481 129.793 102.553C131.176 102.661 129.38 105.125 128.877 105.755C129.326 106.115 129.524 106.727 130.134 106.889C131.068 105.539 131.32 103.506 132.883 102.769C133.781 103.65 132.595 104.568 132.2 105.287C131.715 106.169 131.356 107.141 130.943 107.914C131.428 108.292 131.805 108.796 132.308 109.174C132.793 108.094 133.206 107.446 133.906 106.205C134.122 105.827 135.056 103.416 135.739 103.452C136.888 103.542 135.541 105.935 135.289 106.421C134.607 107.698 133.709 108.868 133.008 109.839C133.565 110.235 133.924 110.829 134.499 111.207C135.146 109.749 136.475 107.788 136.888 106.403C137.068 105.809 136.816 104.982 137.571 105.036C138.235 105.09 138.181 106.007 138.02 106.637C137.643 108.094 136.08 110.811 135.164 111.89C135.936 112.232 136.565 112.7 137.211 113.15C137.445 111.854 138.002 110.613 138.577 109.497C139.133 108.418 139.313 106.781 140.624 106.421C140.786 106.493 140.894 106.601 140.965 106.763C140.049 109.12 139.115 111.477 137.894 113.51C138.379 113.78 138.936 113.995 139.493 114.193C139.924 113.078 141.091 111.567 141.432 110.307C141.558 109.839 141.217 108.634 142.115 108.706C142.905 108.778 142.726 110.235 142.564 110.757C142.241 111.926 141.001 113.312 140.732 114.409C141.486 114.697 142.402 114.787 143.48 114.751C143.57 114.427 143.606 114.049 143.714 113.726C144.666 113.42 144.612 109.533 145.761 109.605C146.749 109.677 145.995 111.441 145.761 112.124C145.348 113.276 144.917 113.762 144.737 114.751C145.33 114.769 145.636 114.517 146.103 114.409C146.282 113.114 147.108 112.448 147.593 111.441C147.755 108.562 149.515 111.045 148.617 112.25C149.426 110.757 150.719 109.551 150.791 107.554C150.827 106.169 149.893 104.262 149.3 102.643C147.737 98.2527 144.396 93.6828 141.199 91.9016C140.786 94.1866 137.84 95.8598 135.828 97.0472V97.0652Z" fill="white" stroke="white" stroke-width="2" mask="url(#path-19-inside-1_6039_61)"/>
</g>
</g>
<defs>
<clipPath id="clip0_6039_61">
<rect width="153" height="117" fill="white"/>
</clipPath>
</defs>
</svg>
