<svg width="92" height="88" viewBox="0 0 92 88" fill="none" xmlns="http://www.w3.org/2000/svg">
<g clip-path="url(#clip0_6039_43)">
<path fill-rule="evenodd" clip-rule="evenodd" d="M61.5152 25.8562C60.0882 23.9836 63.7117 20.7099 64.1454 23.2484C64.2713 23.9697 63.0961 27.1879 61.5152 25.8562Z" fill="#10218B"/>
<path fill-rule="evenodd" clip-rule="evenodd" d="M72.5955 22.5824C73.8966 21.6115 75.2117 28.9217 73.8546 29.0326C73.0292 29.102 73.281 28.1865 73.1691 26.7716C73.0711 25.5787 71.9519 23.0679 72.5955 22.5824Z" fill="#10218B"/>
<path fill-rule="evenodd" clip-rule="evenodd" d="M59.2348 32.4311C58.3814 32.5559 57.9617 32.2646 57.6399 31.8624C57.472 30.2949 58.5772 29.9897 58.6612 28.6858C59.1508 27.5761 61.5991 26.5774 61.6271 28.4639C61.6271 29.0465 61.0535 29.4071 60.7177 29.9342C60.1022 30.9052 59.8224 32.1537 59.2348 32.4311Z" fill="#10218B"/>
<path fill-rule="evenodd" clip-rule="evenodd" d="M53.6387 38.0908C53.0511 38.715 50.9665 38.7011 50.0991 38.3127C49.7913 37.9104 49.7913 37.0088 50.0991 36.6204C51.4422 36.1626 54.534 35.8297 53.6387 38.0908Z" fill="#10218B"/>
<path fill-rule="evenodd" clip-rule="evenodd" d="M47.9306 68.6492C48.0565 69.4954 47.7627 69.9115 47.357 70.2305C45.6502 70.7299 45.3284 68.6215 46.3357 68.0805C47.1891 67.9556 47.6088 68.2469 47.9306 68.6492Z" fill="#10218B"/>
<path fill-rule="evenodd" clip-rule="evenodd" d="M41.3132 71.5902C41.5651 69.9534 44.0833 71.2989 45.1885 71.4792C45.7342 71.5625 47.0632 71.2989 47.1332 72.048C47.2731 73.5738 43.8735 72.2005 43.02 72.048C42.2926 71.9231 41.5091 72.2144 41.3132 71.5902Z" fill="#10218B"/>
<path fill-rule="evenodd" clip-rule="evenodd" d="M3.98723 50.3115C2.18249 35.372 6.75731 23.6646 14.0322 15.3417C21.1113 7.22697 31.3942 0.693554 44.9647 0.0554712C50.7287 -0.221956 55.4854 0.540969 60.382 1.41487C64.663 3.14879 68.7482 4.66077 72.3717 7.07439C73.5189 7.83731 74.4562 9.07187 75.9112 9.33542C76.9465 11 78.5414 12.1791 79.9124 13.5246C83.8577 17.4363 87.2153 22.4023 89.3838 28.2421C92.3078 36.1072 92.9653 47.3291 90.4191 56.3178C87.9568 64.9458 83.354 70.6746 77.8559 76.1261C73.7707 80.1765 68.8181 83.2421 62.7883 85.2951C60.1302 86.1967 56.6886 86.6683 54.3382 88.0139C53.247 87.8335 53.0231 87.6255 51.82 87.5561C47.8327 87.3342 43.9434 87.7087 40.5158 87.2232C32.4294 86.0719 25.2944 82.5763 19.9641 78.1652C19.0548 77.4161 17.7257 75.6822 16.7743 75.4464C14.6338 74.9332 12.6472 75.6683 10.9544 75.4464C9.44344 75.2522 8.61801 74.6002 7.52677 73.7541C6.99514 73.3379 6.37957 73.1715 6.0438 72.7415C5.83395 72.4641 5.73602 71.9231 5.4702 71.4931C4.8966 70.5775 3.77738 69.2043 3.30171 68.2055C2.32239 66.1526 1.62288 63.6696 0.909375 61.1866C0.671541 60.3543 0.209862 59.6469 0.11193 58.9256C-0.447681 54.7087 1.42701 51.9622 4.00122 50.3253L3.98723 50.3115ZM45.986 2.31651C45.6502 2.81587 45.0766 3.07943 44.503 3.32912C44.1533 3.70364 43.9714 4.42495 43.5937 4.91045C43.2579 5.35434 42.3765 5.67338 42.6843 6.04791H46.1119C46.4337 5.14627 46.2239 3.3846 47.1332 3.44009C48.1685 3.50944 47.483 5.20175 47.2451 6.04791C49.3437 5.89532 51.1204 5.43756 53.0651 5.14627C52.2117 4.50818 50.0852 5.14627 49.9872 3.78687C51.778 2.73265 53.8066 4.70238 55.6953 4.68851C56.8005 4.68851 57.6679 4.11978 58.6612 3.6759C54.9118 2.76039 50.8266 2.15005 45.986 2.31651ZM34.9197 4.46657C34.9197 5.61789 36.2488 5.49305 37.0882 5.82596C39.1588 4.71625 41.3412 3.70364 43.3698 2.53845C40.306 2.92685 37.2561 3.34299 34.9197 4.46657ZM60.382 4.24463C59.6825 4.86884 58.4513 4.97981 57.6399 5.49305C61.3194 6.99116 64.3552 8.94702 67.2232 11.1526C68.1886 11.8878 68.9301 12.9697 70.1892 13.3026C70.5529 14.0656 71.1265 14.6343 71.896 14.9949C72.9173 14.0794 74.1904 13.4275 74.6381 11.9432C70.6369 8.64185 66.0061 5.93693 60.368 4.24463H60.382ZM42.1107 4.46657C41.1174 4.92432 40.4039 5.64564 39.3686 6.04791H40.7397C41.2013 5.65951 42.2226 4.67464 42.1107 4.46657ZM32.2895 5.36821H33.7725V4.79948C33.129 4.85497 32.6253 5.0353 32.2895 5.36821ZM55.2336 5.93693C54.2543 5.95081 53.0231 6.35308 51.806 6.50566C50.2251 6.69986 48.6861 7.22697 47.1332 7.29633C46.9513 8.03151 46.9374 9.51575 47.1332 10.2371C48.924 9.39091 53.3729 8.43378 55.1217 10.0151C57.6259 7.9899 60.7737 10.7503 60.4799 13.9823C61.3613 14.8007 61.9069 15.8411 63.334 15.5637C64.3972 16.063 64.0754 17.9218 64.705 18.8512C66.9155 18.2408 68.7342 17.256 70.3011 16.0214C69.8114 14.6204 68.8601 14.1627 67.7829 13.1917C65.8242 11.4161 63.5998 10.1261 61.5012 8.66959C61.1235 10.3896 58.2275 8.48927 60.354 7.9899C58.5353 7.6986 57.2622 5.92306 55.2196 5.95081L55.2336 5.93693ZM44.503 11.0277C45.1046 11.0971 45.3425 10.8058 45.7622 10.6948C45.7342 9.48801 45.7622 8.36442 45.8741 7.29633H43.8175C44.573 8.01764 44.559 9.50188 44.503 11.0277ZM27.1551 12.9559C29.3656 11.1803 31.59 9.43252 33.7725 7.62924C31.2403 6.97729 28.9878 8.53088 26.8054 7.85118C23.6436 9.69608 20.8455 11.9016 18.2433 14.3014C18.4951 15.425 17.7397 15.5359 17.5578 16.2295C18.2293 16.2295 18.5371 15.4388 18.9288 14.9811C20.2439 13.4552 21.587 11.7074 23.2658 10.6809C23.8254 10.5422 23.6436 11.1248 24.0633 11.1387C25.0426 10.3758 25.2664 8.86379 26.8054 8.65572C26.8333 8.82218 26.9872 8.84992 27.0292 8.98864C25.5043 12.1513 22.2026 14.1627 20.7476 17.0202C21.573 17.256 22.1886 16.604 22.6922 16.1185C23.4617 15.3556 24.1892 14.3846 24.9726 13.5107C25.7701 12.6368 26.6934 11.749 27.365 10.9029C27.7567 10.4035 27.8686 9.47413 28.736 9.54349C29.7433 10.8474 27.337 12.0958 27.1411 12.942L27.1551 12.9559ZM35.1436 8.32281C34.3461 8.40604 34.0943 9.58511 33.087 9.57123C31.3802 11.749 29.3656 14.1488 27.6028 16.2434C26.9872 16.9647 25.9939 17.6999 26.1198 18.3934C26.8613 18.8234 27.1131 17.8247 27.379 17.4918C29.1557 15.2585 31.1703 13.2471 32.9751 11.1526C33.7166 10.2787 34.2202 9.05799 35.3674 8.66959C36.1928 9.70995 34.7658 10.7226 34.2202 11.3884C32.1357 13.8991 29.7573 16.3543 27.9386 18.8512C29.2537 19.8083 30.4848 17.797 31.2543 16.9231C33.4507 14.4401 36.1928 11.8323 37.6478 9.33542C36.5985 9.18284 36.0249 8.22571 35.1436 8.32281ZM40.7397 8.43378C39.1867 9.40478 37.6478 11.4439 36.4027 13.1917C35.0596 15.0782 33.6606 16.8953 32.5274 18.3934C32.8771 19.2396 31.7439 19.6835 32.1776 19.8638C32.9331 20.2938 33.3388 19.3228 33.5487 18.9622C35.1855 16.174 37.2281 13.8714 39.2567 11.6103C40.0821 10.6948 40.5578 9.39091 41.761 8.89154C42.6563 9.82092 41.4112 10.6948 40.9635 11.2635C39.1308 13.6494 37.0602 16.0076 35.2555 18.1715C35.2135 18.6292 35.6332 18.6292 35.4793 19.1841C35.2275 19.6002 34.3181 19.8777 34.444 20.3216C35.5213 20.1551 35.955 18.9622 36.5006 18.2825C38.3613 15.9937 40.5298 14.1072 42.3206 11.8323C42.2506 10.7226 42.5304 9.27993 41.9708 8.65572C41.6071 8.4754 40.9215 8.30894 40.7117 8.43378H40.7397ZM46.7975 12.8449V14.773C47.3151 14.6343 47.9447 13.8991 48.6302 13.3026C49.1898 12.8033 50.1551 11.6242 50.7987 12.7339C49.7914 14.5649 47.3711 14.9949 46.7975 17.256C48.2664 16.063 50.0572 14.2181 51.5961 12.8449C52.1417 12.3455 52.9112 12.0265 53.0791 11.3745C50.4909 11.3745 48.4483 11.9155 46.7975 12.8449ZM55.9191 12.1652C55.3035 12.3039 54.604 12.7339 53.8625 12.3871C51.3723 14.5649 49.0359 16.8953 46.6715 19.1841C46.8254 19.7528 46.3358 20.2799 46.6715 20.6545C49.6934 17.7692 52.9812 15.1475 55.9191 12.1652ZM52.5055 16.9231C51.3023 18.005 50.1691 19.0315 49.0779 19.9748C48.7281 20.2799 48.0146 20.7516 48.2804 20.9874H49.3017C52.1977 18.4212 54.618 15.3833 57.6399 12.9559C57.472 12.7894 57.4301 12.4704 57.1782 12.3871C56.101 14.0378 54.1423 15.4388 52.4915 16.9231H52.5055ZM72.8194 15.7856C75.9252 19.9054 77.4361 25.6204 79.7865 30.5031C81.7032 29.5044 83.6198 28.4918 84.0116 25.9811C84.3333 25.8146 84.9069 25.8978 85.0329 25.5233C85.0329 24.1639 84.1235 22.9849 83.438 21.9029C81.2835 18.4905 78.7232 15.4527 75.7853 12.9559C75.7853 12.8865 75.7713 12.8171 75.6734 12.8449C75.0018 14.1072 73.8406 14.884 72.8194 15.7856ZM22.3565 13.1917C22.4824 12.9559 22.4824 12.9559 22.2445 13.0807C21.8528 13.7188 20.7895 14.2736 20.7616 14.8978C21.2512 14.2875 21.7269 13.6633 22.3565 13.2055V13.1917ZM42.6843 13.1917C40.8096 15.7579 37.8717 17.8524 36.5146 20.5435C37.0882 20.4741 37.396 20.6545 37.8857 20.6545C39.7743 18.005 42.1247 15.7995 44.2792 13.4136C43.5797 13.5107 43.16 13.3165 42.6843 13.1917ZM23.042 17.6028C23.6156 17.6444 23.9374 17.9218 24.5249 17.9357C25.6861 16.6318 27.2251 15.1059 27.9526 13.7465C26.4696 15.1753 24.2032 15.8411 23.042 17.6028ZM51.1344 21.0012C52.8273 20.1551 53.5548 18.3379 55.2476 17.4918C55.7932 17.4779 55.7792 18.0189 56.5067 17.8386C56.9264 17.464 56.6606 16.4098 56.7305 15.6885C57.0803 15.0088 58.2975 14.6065 58.1016 13.7604C55.8911 16.285 53.4148 18.546 51.1344 21.0012ZM40.6277 19.0731C40.1661 19.628 39.3406 20.3077 39.4805 20.7654C39.9002 20.9458 40.5578 20.9041 41.0754 20.9874C41.8169 20.4741 42.5164 19.5309 43.3558 18.6154C44.573 17.2837 46.2239 16.2572 45.4124 13.9685C43.9155 15.5914 42.0268 17.3808 40.6138 19.0593L40.6277 19.0731ZM19.2786 16.6873C19.5864 16.2434 20.3279 15.6192 20.2999 15.2169C20.0341 15.7024 19.1387 16.174 19.2786 16.6873ZM62.2007 18.6154C62.1028 16.9092 61.1235 16.063 60.0322 15.3279C59.2908 16.1047 58.5912 16.9231 58.899 18.7263C58.4374 19.8499 56.6886 19.7112 56.045 20.6545C58.2415 20.1135 61.0535 20.1828 62.9002 19.2951C62.6065 19.1425 62.3686 18.9067 62.2147 18.6154H62.2007ZM71.6721 18.6154C70.9866 18.5044 71.1545 17.5473 70.6369 17.256C69.07 18.3102 67.4191 19.2812 65.3905 19.8638C67.517 23.9836 69.3777 28.3531 69.9513 34.0126C73.365 33.541 76.2749 32.5838 78.7372 31.1828C77.9958 28.797 76.6107 26.5637 75.6594 24.1639C75.1138 22.7907 74.9039 21.3342 74.1764 20.0857C73.4909 18.8928 72.6934 17.8802 71.896 16.7982C72.1478 17.3253 72.5675 18.4767 71.6721 18.6015V18.6154ZM17.5718 22.1248C18.5651 20.8209 19.6144 19.5448 20.4258 18.0466C18.8449 17.5195 19.2926 20.2522 18.2573 20.0857C17.208 19.9054 18.1174 18.1437 18.4812 17.7137C18.1454 17.5889 17.8236 17.464 17.334 17.4918C17.4599 18.9899 17.0681 21.0012 17.5578 22.1387L17.5718 22.1248ZM8.54806 29.6015C9.55536 30.3644 10.7445 30.9748 12.3114 31.1828C12.927 28.2421 14.1721 25.9395 15.9629 24.1639C14.7457 22.9987 15.3753 19.9886 15.0535 17.9357C12.3954 21.3342 10.017 25.0101 8.54806 29.5876V29.6015ZM42.9082 21.0012C43.7756 21.1677 44.0414 20.2522 44.3911 19.8638C44.7968 19.4338 45.5243 19.1147 45.5383 18.3934C45.5103 18.3102 45.5383 18.1715 45.4264 18.1715C44.615 19.1425 43.6357 19.947 42.9221 21.0012H42.9082ZM22.1326 18.5044C20.9714 20.1828 19.6423 21.6948 18.705 23.5952C19.1667 23.8865 19.3485 24.4691 19.8522 24.7326C20.9854 22.6381 22.5383 20.9735 23.7275 18.9622C23.1399 18.8651 22.7622 18.5599 22.1326 18.5044ZM23.9653 20.6545C22.986 21.9861 22.1606 23.1374 21.3352 24.3859C20.9574 24.9685 20.2859 25.7869 20.6496 26.425C22.1326 23.8865 24.1892 21.9306 25.7841 19.517C24.9447 19.1425 24.3571 20.0996 23.9653 20.6406V20.6545ZM27.0432 19.8638C25.5742 21.9168 23.8674 23.7339 22.4824 25.8562C22.2305 25.8701 22.6363 26.1475 22.4824 26.425C22.0627 26.8411 21.8248 27.4376 20.9994 27.4376C21.2512 29.6292 20.146 31.0025 20.6496 33.0971C21.1393 33.2497 21.6849 33.3468 22.3565 33.319C22.6922 32.778 22.8601 32.0845 23.3777 31.7377C24.0213 31.7654 24.0633 32.1261 24.2871 31.5157C24.1192 31.1273 23.2239 31.8209 23.1539 30.947C24.1052 28.7553 26.6794 27.5901 27.0292 25.1765C25.6861 26.8688 24.5809 28.7831 22.6922 29.9344C22.4964 29.7541 22.2305 29.6431 22.2305 29.2547C24.5249 26.3695 27.0152 23.6646 29.3096 20.7654C28.834 20.1828 27.9106 20.0441 27.0292 19.8638H27.0432ZM53.9884 22.2358C53.7086 23.2623 54.0444 24.372 53.6387 25.2875C53.3449 25.9949 52.6594 26.3279 52.2676 26.8688C50.6168 29.116 52.3516 31.4186 51.5821 34.7894C57.5839 34.9004 63.236 34.6507 68.8181 34.3316C68.1606 28.686 66.5517 23.9836 64.0195 20.1828C61.2214 21.4035 57.0943 21.3064 53.9745 22.2219L53.9884 22.2358ZM29.2117 23.942C30.0791 22.9432 31.0724 22.0832 31.8419 21.0012C30.0651 20.599 29.7573 23.1374 29.2117 23.942ZM30.6947 24.1639C28.792 26.2446 26.5256 27.9508 25.896 30.8499C28.2883 28.2005 30.6947 25.5649 33.3108 23.1513C33.143 22.1526 33.9264 22.0971 33.9964 21.3342C32.4015 21.4174 31.632 23.1236 30.6807 24.1639H30.6947ZM34.57 23.4842C31.7159 26.2862 28.75 29.4212 26.1198 32.3203C25.7841 32.6948 25.1265 33.0832 25.2105 33.6797C25.952 33.541 26.3297 32.8058 26.8054 32.3203C30.3029 28.8524 33.8844 25.454 36.9623 21.6809C35.4374 21.2925 34.542 22.0277 34.57 23.4981V23.4842ZM38.4593 21.9029C37.1861 23.1652 36.2488 24.7743 35.1436 26.203C34.8218 26.3001 34.8498 26.0366 34.57 26.092C32.5973 28.4086 29.9672 30.8083 27.8406 32.889C27.6168 33.111 27.1271 33.4577 27.267 33.7907C27.393 34.0542 27.9805 33.8323 28.3023 33.9016C31.3522 31.1135 34.0243 27.9508 37.0882 25.1904C37.438 25.1072 37.5079 25.3014 37.7737 25.3014C38.4173 24.0668 39.4526 23.1929 40.1661 22.0139C39.4665 22.0971 39.1028 21.8613 38.4593 21.9029ZM41.5371 22.2358C40.4039 23.5952 39.3966 25.0933 38.2214 26.425C37.8857 26.4527 37.8717 26.1753 37.5359 26.203C35.1156 28.9357 32.2895 31.2661 29.9951 34.1236H31.1423C31.9538 33.0139 32.9751 32.0845 33.8844 31.0719C34.7938 30.0593 35.5353 28.7276 36.8504 28.1311C37.2141 28.1311 37.354 28.3947 37.312 28.8108C38.795 27.9785 40.236 27.1047 41.8729 26.4388V25.5372C42.2646 24.9685 42.8802 24.4136 43.4678 23.8449C43.9854 23.3316 44.7968 22.6936 44.7269 22.2635C43.3838 22.2635 42.7403 23.6368 41.9848 24.4136C41.2013 25.2181 40.7397 26.1614 39.8163 26.4527C39.6484 26.3972 39.5365 26.2724 39.4665 26.1198C39.4665 25.2043 40.1801 24.5801 40.7257 23.9697C41.2153 23.401 42.2086 22.6658 42.0967 22.2774H41.5231L41.5371 22.2358ZM46.6715 23.7062C47.0633 23.1513 47.6509 22.7907 48.0426 22.2358H46.5596C46.6296 22.6936 46.4057 23.4426 46.6715 23.7062ZM46.5596 25.6343C46.1959 27.1879 47.7208 28.1173 48.2664 29.3657C48.3923 28.6999 48.868 28.3808 49.0639 27.7844C48.0706 27.6179 48.826 26.2862 48.7281 25.8562C46.028 25.8562 49.6655 22.9432 50.0992 22.2358C49.3017 22.971 46.8254 24.5107 46.5596 25.6343ZM49.0779 25.7453C49.8473 24.7326 50.6308 23.7339 51.5961 22.9155C51.5961 22.7768 51.5541 22.6519 51.3723 22.6936C50.7287 23.7617 49.0079 24.3581 49.0919 25.7453H49.0779ZM43.5937 26.203H45.1886C45.1466 25.4123 45.5243 24.4136 45.1886 23.7062C44.3352 24.3997 44.4891 25.4678 43.5937 26.203ZM18.8169 28.1311C18.719 27.174 17.5858 25.2875 16.6484 25.0794C15.1655 26.8134 13.9063 28.7831 13.4586 31.5296C15.0395 31.9596 16.7464 32.2648 18.3692 32.6671C17.9075 31.0025 18.9568 29.4212 18.8309 28.145L18.8169 28.1311ZM84.3473 28.797C82.9763 29.8234 81.6332 30.8638 80.2342 31.8625C81.7311 35.7604 82.9623 39.9495 82.7384 45.5536C85.2987 43.0706 87.3832 40.116 88.0967 35.8159C88.2506 35.5939 88.7822 35.7465 88.7822 35.3581C88.1107 32.0151 87.1874 28.9357 85.7044 26.4111C85.1588 27.1185 84.5012 27.715 84.3333 28.7831L84.3473 28.797ZM41.0894 29.3796C40.278 29.7818 38.9769 30.1702 38.809 30.8499C38.3473 32.6116 40.5298 33.4716 41.2013 34.2484C41.4672 34.5397 41.2573 34.9975 41.7749 35.0391C42.9641 34.9697 44.4331 35.1778 45.4264 34.9281C45.1046 33.0832 45.5243 30.5309 45.2026 28.6999C43.7476 27.7011 42.0128 28.9218 41.0894 29.3796ZM32.5274 34.4704C33.5347 34.6784 34.3181 33.5687 34.9197 32.889C35.8431 31.8487 36.7524 30.739 36.7524 29.4905C35.4933 31.2938 33.7585 32.6255 32.5274 34.4704ZM49.5256 32.0845C49.5256 31.3077 49.2597 30.7667 49.1758 30.0454H48.7141C48.854 30.8499 49.2038 31.4464 49.5116 32.0845H49.5256ZM7.97446 30.8499C6.57543 35.2333 5.70804 40.1437 5.91789 46.1362C7.02312 46.8436 8.31023 47.3846 9.68127 47.8285C9.44344 41.7528 10.2269 36.6759 11.7378 32.3203C10.2549 32.0429 9.27555 31.2938 7.97446 30.8499ZM46.5596 34.9142H48.2664C48.2524 34.2484 47.6089 33.9016 47.3571 33.3329C47.0493 32.6255 47.1192 31.7377 46.5596 31.1828V34.9142ZM79.2129 32.3203C77.59 32.9306 76.3309 33.9155 74.4142 34.2484C73.5468 35.6217 74.4142 38.7011 72.7074 39.2282C71.9799 38.1601 72.9313 36.0517 73.0572 34.7062C72.0779 34.8726 71.0566 34.9836 70.2032 35.2749C70.6648 37.4943 71.1685 39.686 71.0006 42.5158C71.0566 42.5851 71.9799 42.1412 72.0359 42.7377C71.0985 44.7907 70.9167 47.5927 70.7768 50.4363C71.812 50.2976 72.5395 49.8953 73.5189 49.9785C73.9386 50.0202 74.3023 50.3253 74.778 50.3253C75.8133 50.2976 77.2123 49.3682 78.2056 48.855C79.3668 48.2446 80.5 47.6898 81.4094 47.0378C81.885 40.9483 80.8078 36.3985 79.2409 32.3203H79.2129ZM34.9197 34.8033C36.2208 34.8033 36.3607 33.6658 36.9763 32.9861C36.8644 32.8335 36.8644 32.57 36.6265 32.5284C36.2068 33.3606 35.0596 34.0542 34.9197 34.7894V34.8033ZM13.1089 32.6532C11.0803 36.5372 10.8145 42.1551 10.9404 48.1614C14.2561 49.5902 18.9568 49.6456 23.3777 49.9647C22.958 47.232 22.4124 44 22.9161 41.0176C21.1113 39.034 19.2926 37.0643 18.5791 33.9987C16.9002 33.4023 14.8996 33.1248 13.0949 32.6393L13.1089 32.6532ZM37.0882 34.9142C37.452 34.831 37.6898 34.5952 37.7737 34.2345C37.354 34.2762 37.2561 34.6229 37.0882 34.9142ZM20.9854 34.5813C21.2093 34.8588 21.2932 35.2472 21.559 35.483C21.6569 35.2055 21.7129 34.8726 21.6709 34.4704C21.2652 34.5675 21.0833 34.1791 20.9854 34.5813ZM22.0207 36.2736C22.4544 36.6343 22.6223 37.2585 23.042 37.633C23.1259 36.6482 23.5037 35.3859 23.3917 34.5813H23.042C22.6922 35.1362 22.9021 36.2598 22.0207 36.2736ZM26.0079 34.9142C25.4763 36.1627 23.1819 38.2434 24.8607 39.5611C25.2245 37.6192 26.1198 36.2043 27.253 35.0252C26.8473 34.9697 26.5116 34.8587 25.9939 34.9142H26.0079ZM28.75 35.1501C27.4909 36.5094 26.2877 37.9105 25.896 40.1299C28.5961 40.227 31.4921 40.7541 34.1083 40.2408C34.6679 38.6179 35.7451 37.4943 36.5006 36.0517C34.57 36.7036 34.3741 39.0895 32.7372 40.0189C30.9465 39.034 34.584 36.9256 34.444 35.8297C31.9118 36.2598 32.4294 39.7137 29.7573 40.0189C29.2117 38.0769 32.0797 37.0782 32.2756 35.4968C30.0371 35.8436 29.8133 38.1879 28.1624 39.1173C27.9246 38.9647 27.5888 38.9369 27.5888 38.5485C27.8266 37.9382 28.2464 37.314 28.736 36.7453C29.1697 36.2181 30.0091 35.691 29.8832 35.2749C29.5894 35.1639 29.1837 35.1362 28.736 35.1639L28.75 35.1501ZM46.6715 36.1627C46.6995 37.6053 46.8534 38.9231 46.7835 40.4628C50.4629 39.9495 53.3869 38.1047 57.0523 37.9798C57.1922 39.5889 56.7165 41.5448 56.4787 43.4174C56.2409 45.3871 55.8492 47.3291 55.6813 49.1879C57.2482 49.2572 57.542 47.8146 58.5353 47.1488C59.5286 46.483 61.2914 45.9281 62.9842 46.4691C63.9355 46.7743 64.8589 47.9533 65.9501 48.6192C67.1673 49.3682 68.2725 49.7427 69.4897 50.2005C69.8394 45.6368 70.0633 39.4224 69.028 35.483C61.9349 36.0656 53.5268 36.0517 46.6575 36.1627H46.6715ZM35.3814 40.4628C36.4866 39.4086 36.7664 37.5359 38.1235 36.7314C38.5712 36.6343 38.5292 37.0088 38.809 37.0782C38.823 36.6759 39.1308 36.5649 39.1448 36.1765H37.8857C36.9763 37.5359 36.0809 38.9092 35.3814 40.4767V40.4628ZM41.5371 36.2736C40.7956 37.9243 39.9282 39.7276 41.0754 41.6002C42.6843 41.3783 44.1393 41.0038 45.6363 40.6986C45.4124 39.4086 45.5663 37.7579 45.5243 36.2875C44.2932 35.9546 42.9501 36.4401 41.5231 36.2875L41.5371 36.2736ZM86.8656 42.0441C86.306 43.0151 85.9702 44.111 85.4945 44.6519C84.9909 45.2068 84.2074 45.5258 83.7877 46.0113C82.7804 47.1488 82.7524 47.5927 82.6405 49.4098C82.5146 51.4905 81.6752 54.5145 81.8431 56.3178C81.927 57.2055 82.5146 57.9685 82.4167 58.9256C82.3047 60.0214 81.1995 61.1311 81.5073 62.657C81.0596 63.628 79.8425 63.5586 79.115 64.3493C78.2895 65.2371 77.9258 66.9155 77.1703 68.0807C76.7646 68.7188 76.4848 69.3569 76.135 69.8979C75.7433 70.5082 74.9459 70.9382 75.1138 71.3682C78.1776 70.4804 80.3741 68.7327 82.6545 67.0681C87.2433 60.5485 91.4544 48.7024 89.0481 37.0782C88.7962 39.6028 87.9568 40.227 86.8796 42.058L86.8656 42.0441ZM36.6265 41.2535C37.2561 41.4893 37.8297 42.3077 38.6831 41.9332C38.851 41.1564 37.8857 41.517 37.8857 40.9205C38.0256 40.1992 38.5012 39.1866 38.1095 38.3127C37.41 39.0895 37.424 40.5738 36.6265 41.2535ZM24.6369 50.0895C27.5049 50.4086 30.8066 50.3115 33.4228 50.8802C34.2762 50.256 35.4513 49.9508 36.1648 49.1879C35.8291 48.7995 34.9477 48.3556 34.3321 47.8285C33.7026 47.2736 30.8625 45.0126 31.0164 44.2081C31.2543 43.0567 33.7305 43.459 34.556 42.6267C31.2543 42.5019 26.6934 42.8625 23.9374 41.8361C23.8394 44.9155 24.0633 47.662 24.6229 50.1034L24.6369 50.0895ZM45.986 43.6255C45.7901 45.1236 45.8741 47.2043 45.8741 48.9521C45.8741 50.4363 45.7482 51.9899 46.4477 52.9193C46.9933 51.8096 46.5316 50.3392 46.4477 48.7301C46.3638 46.8991 46.7415 44.3745 46.1119 43.2925C46.1119 43.4313 45.972 43.4451 46 43.6255H45.986ZM43.4818 44.6519C44.1533 46.5939 44.1673 49.3405 44.1673 51.8928C44.1673 52.7251 43.8735 53.9042 44.629 54.3758C45.1886 53.2245 45.0347 51.5321 44.9787 50.0756C44.8808 47.9117 44.545 45.6784 43.8315 44.3052H43.4958V44.6519H43.4818ZM40.6277 45.1097C40.4319 47.773 40.9775 50.9218 41.0894 53.488C41.1314 54.4313 40.6977 56.6368 41.7749 56.6507C42.1527 56.0958 41.719 55.4577 41.663 54.7226C41.3972 51.6431 41.4252 47.9256 41.0894 44.7629H40.7397C40.7397 44.9155 40.5998 44.9155 40.6277 45.1097ZM47.2451 45.3316C47.7768 47.2598 46.7135 51.1437 48.3923 51.6709C47.8327 49.7705 48.1125 47.0378 47.7068 44.9987H47.3711C47.3711 45.1374 47.2311 45.1513 47.2591 45.3316H47.2451ZM42.6843 51.7818C42.7263 52.8638 42.3346 54.14 43.2579 54.6116C43.3419 52.2535 43.188 48.1891 42.6843 45.6646C42.1667 47.3014 42.6004 49.7427 42.6843 51.7818ZM7.86254 56.082H12.885C12.0596 53.5851 10.5487 51.7541 9.91911 49.063C8.52008 48.7163 7.27495 48.2169 6.15573 47.5927C6.29563 50.4086 6.89721 53.71 7.86254 56.082ZM81.1575 48.4943C79.3388 49.6734 77.1843 50.5057 75.2257 51.546C76.1071 52.8777 78.5134 52.628 79.5627 53.4741C80.0803 53.8903 80.3461 54.7919 80.8218 54.5977C80.9757 52.739 81.7172 50.2837 81.1715 48.4804L81.1575 48.4943ZM39.4805 48.9521C38.9769 50.7831 39.3686 54.5284 39.2567 57.2194C39.2007 58.4956 38.6271 59.8134 39.7184 60.396C40.3899 59.8272 39.8723 58.8562 39.8303 58.024C39.6904 55.2358 39.9422 51.768 39.8303 48.744C39.8023 48.6608 39.7324 48.6053 39.6065 48.633C39.6065 48.7717 39.4666 48.7856 39.4945 48.9659L39.4805 48.9521ZM58.4374 50.7692C59.6125 51.435 60.34 49.5485 61.0675 48.7301C59.7524 48.5221 59.0809 49.9231 58.4374 50.7692ZM59.9203 52.2396C61.9349 52.2396 62.2007 50.5057 63.5718 49.8676C63.278 49.3266 62.7464 49.0214 62.2007 48.744C62.1028 50.5057 60.1302 50.9912 59.9203 52.2535V52.2396ZM14.2561 56.082C17.9775 55.7352 21.4751 55.1664 24.5249 54.1538C24.2312 53.1135 24.0073 52.0176 23.6156 51.1021C19.1947 50.8802 14.7038 50.7276 11.2902 49.5208C12.1156 51.8789 13.3048 53.8625 14.2561 56.082ZM63.236 51.7818C64.2013 51.7541 64.8169 51.3796 65.1807 50.7692C64.8169 50.5334 64.4392 50.2976 64.0335 50.0895C64.1454 51.0328 63.5578 51.2825 63.236 51.7818ZM25.6721 53.8209C27.7707 53.2938 29.6454 52.5586 31.4921 51.7818C29.5055 51.4073 26.9593 51.6015 24.9866 51.2131C25.1405 52.1564 25.4483 52.947 25.6721 53.8209ZM55.4714 51.5599C55.3455 51.8234 55.4015 52.2396 55.2476 52.4615C56.059 52.2118 56.6046 51.6986 57.1922 51.2131C56.5207 51.2131 56.115 51.5044 55.4854 51.546L55.4714 51.5599ZM37.5499 52.5725C37.452 54.0706 37.2981 56.7478 37.438 58.6898C37.5079 59.6746 37.5359 60.7982 38.0116 61.4086C38.2074 59.0088 37.9836 55.111 37.8996 52.2396H37.5639V52.5725H37.5499ZM73.393 63.5586C72.5256 64.3493 71.6302 65.1538 70.7628 65.9306C69.9094 66.7074 68.958 67.5536 68.4824 68.5385C69.2239 67.6923 70.0633 66.9432 70.8747 66.1665C71.6442 65.4313 72.3717 64.3493 73.6168 64.1274C73.6448 64.2938 73.7987 64.3216 73.8406 64.4603C73.0012 66.4994 71.0146 67.401 69.6156 68.8714C69.6855 69.1488 69.7835 69.3846 69.7275 69.773C68.7622 71.0076 67.0554 71.4931 66.5377 73.1715C69.9374 72.4086 72.4136 71.0908 73.9526 68.9823C75.0438 67.4981 74.9739 65.4451 76.1211 63.8915C76.8765 62.8651 78.1496 62.2825 79.1989 61.6305C79.129 60.2711 80.0943 59.4666 80.1083 58.454C80.1083 57.5523 79.045 56.1236 78.2756 55.4023C77.4221 54.5977 75.5055 54.8474 74.4003 54.0429C73.6448 53.5019 73.6308 52.9054 72.9173 52.2396C72.2597 52.5309 71.4063 52.628 70.413 52.5725C70.1752 53.0164 70.3571 53.8764 70.3011 54.5006C72.4696 54.2093 70.511 55.6936 70.3011 56.4287C69.9094 57.7465 70.469 59.1198 70.0773 60.0492C71.5183 59.2862 72.2737 57.8436 73.9526 57.3304C74.4142 57.3304 74.1764 58.0239 74.4142 58.232C76.6107 57.7465 74.5821 59.3972 74.0645 59.9243C72.7214 61.3253 70.5949 63.5864 69.3777 64.5712C69.4757 65.0429 69.0839 65.6255 69.2658 65.8197C71.2804 63.7112 73.7567 62.005 75.7713 60.0492C76.4708 59.3833 77.0304 58.2875 78.1636 58.232C78.1916 58.3985 78.3455 58.4262 78.3875 58.5788C77.3802 60.7705 75.1138 61.9634 73.365 63.5586H73.393ZM64.9428 52.6835C62.8723 55.2635 60.6618 57.8298 58.6612 60.3821C58.0037 61.2144 57.5 62.4073 56.3808 62.7541C55.5274 61.8108 56.8704 60.826 57.4021 60.1463C59.0389 58.0933 60.7597 56.0403 62.3127 54.14C62.5505 53.8487 63.0961 53.3077 62.8863 52.8915C61.7251 52.947 61.0256 53.9874 60.368 54.7087C58.2695 57.0252 56.3528 59.314 54.3242 61.6166C54.1843 61.7415 53.9185 61.7415 53.6387 61.7276C53.8066 62.8096 53.0091 62.9205 52.2676 63.087C51.4142 62.6154 50.8826 61.8247 49.7494 61.6166C49.3437 64.918 52.7853 64.4187 52.7153 67.3871C53.4568 66.7629 53.5967 65.5561 54.4221 65.0151C54.7719 64.9319 54.8419 65.1261 55.1077 65.1261C58.0876 61.2976 62.1448 57.7604 65.2646 54.14C65.7263 53.6129 66.3838 52.9748 66.2859 52.5586C65.7123 52.4754 65.4884 52.7528 64.9148 52.6696L64.9428 52.6835ZM57.0663 68.4275C56.1709 69.5788 55.1636 70.6192 54.1004 71.604C54.0584 72.2005 53.163 72.9912 52.7293 72.1728C53.3589 69.773 55.5973 68.9823 56.7305 67.082C56.8285 66.3468 57.2202 65.9029 57.6399 65.5006C57.3181 64.5435 58.0456 63.9332 58.5493 63.4615C58.899 63.3783 58.969 63.5725 59.2348 63.5725C61.7111 61.3253 64.0475 58.7175 66.3139 56.3316C67.4331 55.1526 68.8321 54.2648 69.1679 52.6002C68.0627 52.4477 67.6569 52.9886 67.3352 53.6129C66.9155 54.7919 66.2999 55.7629 65.6283 56.6646C65.1247 56.7894 65.0547 56.4704 64.719 56.4426C61.7111 59.6469 58.7032 62.8512 55.6953 66.0694C55.3455 66.1526 55.3595 65.8751 55.0097 65.9584C54.59 67.4981 52.7993 68.3997 53.3029 70.1475C53.0791 70.5221 52.5614 70.6192 52.0438 70.7163C52.2117 72.1866 52.4076 74.1841 54.3242 73.546C54.9398 71.4376 57.3321 70.4943 58.0876 68.8991C57.5979 69.343 57.444 68.4968 57.0663 68.4414V68.4275ZM35.7172 53.3632C35.6052 55.1248 35.4793 57.8298 35.6052 59.9243C35.6752 61.256 35.6332 62.6709 36.2908 63.4338C36.3467 60.285 36.1509 56.401 36.0669 53.0164H35.7172V53.3493V53.3632ZM54.2123 57.5523C54.2263 58.662 53.4148 59.5498 53.7506 60.6179C55.6673 58.024 58.0176 55.86 60.0322 53.377C56.6326 53.2661 56.9964 57.4414 54.2123 57.5662V57.5523ZM54.674 56.3178C55.3175 55.3745 56.2269 54.6948 56.7305 53.599C55.0377 53.4325 54.646 55.1526 54.674 56.3178ZM63.236 61.4086C61.3054 63.2257 59.011 64.8903 57.8638 67.401C60.5499 64.6406 63.6138 61.6166 66.3139 58.6898C67.2652 57.6633 68.6363 56.9142 69.056 55.5271C69.028 55.4439 69.056 55.3052 68.944 55.3052C66.9015 57.2194 65.2646 59.5082 63.236 61.4224V61.4086ZM34.0103 56.4287C34.0523 58.3014 34.0103 60.6734 34.2342 62.3102C34.3041 62.7957 34.3461 63.6557 35.0316 63.6696C34.9197 61.5889 34.458 58.884 34.57 56.1929C34.4021 56.1652 34.3741 56.0126 34.2342 55.971C34.2342 56.1929 33.9264 56.1097 34.0103 56.4287ZM27.7287 56.9975C27.365 58.8424 27.7427 61.145 27.8406 63.3367C27.8826 64.3909 27.7707 65.5422 27.8406 66.5132C27.8826 67.1513 27.8127 68.3165 28.6381 68.4414C28.82 67.6507 28.4562 66.6936 28.4142 65.6116C28.2743 62.4905 28.2464 59.425 28.0645 56.6646H27.7147V57.0113L27.7287 56.9975ZM22.4684 57.7881C22.7902 60.5763 22.8741 64.0303 23.042 66.9571C23.1259 68.2888 23.1539 69.7453 23.8394 70.6885C24.1892 69.5094 23.6855 68.1501 23.6156 66.7213C23.4617 63.6973 23.3638 60.3127 22.8181 57.6633C22.7902 57.5385 22.6922 57.483 22.5943 57.4414C22.5943 57.5801 22.4544 57.5939 22.4824 57.7743L22.4684 57.7881ZM25.896 57.7881C26.1898 60.6318 26.3157 64.599 26.4696 67.3039C26.5116 67.9559 26.1758 68.9546 26.8193 69.343C27.1411 65.7781 26.8753 60.8398 26.2457 57.4552H25.91V57.7881H25.896ZM29.3236 58.0101C29.0718 59.9659 29.2537 62.9067 29.4355 64.6822C29.5195 65.4451 29.5055 66.5826 30.233 66.7213C29.8552 64.2661 30.0091 60.3127 29.4355 57.6633C29.4355 57.8159 29.2956 57.8159 29.3236 58.0101ZM58.7731 68.4275C59.2208 68.1917 59.3327 67.6229 60.1442 67.7478C60.1721 67.9142 60.326 67.942 60.368 68.0807C59.9763 69.3153 58.8011 69.9811 57.9757 70.7995C57.1223 71.6456 56.2269 72.4641 55.5833 73.5183C56.3388 73.5599 56.4787 74.2118 57.4161 74.087C58.4793 72.9912 59.4447 71.7844 60.382 70.5775C60.312 70.3001 60.2141 70.0643 60.2701 69.6759C62.1728 67.5397 64.4951 65.2509 66.6636 63.1147C67.3072 62.4767 68.5803 61.686 68.8321 60.9647C69.1819 59.9521 68.9161 58.8701 69.056 57.7881C65.7543 61.1728 61.1655 65.2926 58.7871 68.4275H58.7731ZM24.5249 58.232C24.2451 60.4237 24.6369 64.0996 24.6369 66.7213C24.6369 67.512 24.2591 68.8159 25.2105 69.0933C25.3364 66.0832 25.0566 61.3808 24.8747 57.8852H24.5249V58.2182V58.232ZM31.8419 65.8197C32.1217 63.8222 31.1144 61.2005 31.2683 58.5788C31.2403 58.454 31.1423 58.3985 31.0444 58.3569C30.4708 60.7982 30.9325 64.0996 31.8419 65.8197ZM33.1989 65.3619C32.8631 63.4615 33.059 60.063 32.1776 58.343C32.1496 60.1463 31.9538 64.4187 33.1989 65.3619ZM47.469 64.8071C45.5103 67.1929 44.0414 61.9496 47.2451 62.1992C47.0773 60.6318 47.0353 58.9395 45.6503 58.5788C44.0833 61.5889 40.5438 63.2535 38.9209 65.8197C40.6417 66.6381 43.062 66.7768 43.9434 68.4275C43.3698 69.2736 42.6563 68.4275 42.1107 68.2055C40.7676 67.6368 39.0468 67.1513 37.7737 66.5132C36.6825 67.5536 35.4933 68.4691 34.2342 69.343C35.899 70.9382 37.326 72.7692 39.0329 74.3228C41.9848 74.6002 45.0766 74.739 48.3923 74.6557C48.0846 71.3821 48.0566 67.831 47.483 64.8071H47.469ZM69.9653 62.4212C70.427 61.9079 71.1685 61.4086 71.7841 60.8398C72.3157 60.3682 73.1691 59.4527 73.0432 59.1475C72.1898 60.3405 70.0353 60.8537 69.9653 62.435V62.4212ZM20.6496 60.9508C20.3419 63.1841 20.7756 65.5561 20.9994 67.6229C21.1393 69.0101 20.8315 70.7995 21.9088 71.3543C21.7549 68.1362 21.1253 64.4325 20.9994 60.826C20.9714 60.7011 20.8735 60.6456 20.7756 60.604C20.7756 60.7427 20.6357 60.7566 20.6636 60.9369L20.6496 60.9508ZM19.0548 61.6305C18.9428 64.2938 19.2646 67.6646 19.4045 70.2308C19.4325 70.8134 19.0967 71.6734 19.7543 72.034C20.3279 68.7465 19.6144 64.7793 19.4045 61.5057C19.3765 61.3808 19.2786 61.3253 19.1807 61.2837C19.1807 61.4363 19.0408 61.4363 19.0687 61.6305H19.0548ZM15.3893 62.768C15.1794 63.8222 15.2774 65.889 15.2774 67.5258C15.2774 69.1627 14.9556 71.0492 15.851 71.826C15.9209 69.5094 15.893 65.2787 15.7391 62.435H15.3893V62.7818V62.768ZM13.2208 65.5977C13.3327 67.1791 12.983 69.0933 13.1089 70.5775C13.1648 71.2295 13.1369 72.4502 13.9063 72.6166C14.5359 72.1034 13.9763 71.3266 13.9063 70.5775C13.6545 68.0668 14.0602 64.6406 13.2208 62.657C12.7451 63.6419 13.1509 64.6267 13.2208 65.5977ZM16.8863 63.2118C16.7883 64.4464 17.0541 65.7364 17.1101 67.1791C17.194 69.0378 16.7603 71.4098 18.0195 72.1589C17.8516 69.454 17.6557 65.8058 17.334 62.8789H16.9842C16.9842 63.0315 16.9282 63.1286 16.8723 63.2257L16.8863 63.2118ZM62.2007 71.0214C61.2214 70.3972 62.8163 69.1627 63.3479 68.6494C64.0335 67.9697 64.691 67.4149 65.1807 66.9571C66.6217 65.5977 68.0766 64.6961 68.4964 63.2257C66.3419 64.9319 64.1314 67.5675 61.879 69.5649C61.781 70.9659 61.0395 71.6734 60.396 72.5057C59.9623 73.0605 59.3047 73.5322 59.3747 73.976C60.1162 73.9205 60.438 73.005 61.1934 73.6431C61.9629 72.4363 63.25 71.604 64.3972 70.4666C65.6563 69.232 67.7129 67.7755 67.8248 66.0555C65.8242 67.5952 64.5371 69.9395 62.2287 71.0353L62.2007 71.0214ZM49.5256 74.6419C50.0012 74.6557 50.2391 74.4477 50.7847 74.5309C50.3929 73.4628 50.0012 72.9912 49.8753 71.8121C49.6934 70.1198 50.7147 68.1778 50.5608 67.401C50.379 66.4716 49.3297 66.5132 48.854 65.8197C49.1758 68.6633 49.4976 71.5208 49.5395 74.6557L49.5256 74.6419ZM33.1989 70.0088C31.8698 70.6469 30.4988 71.2572 29.3236 72.0479C29.8273 72.4224 30.3029 72.8108 30.8066 73.1854C33.1849 73.2131 34.7378 74.0454 36.9763 74.198C36.1928 72.7831 34.444 71.3543 33.2129 70.0088H33.1989ZM64.4811 72.0479C63.8376 72.6028 62.6904 73.0466 62.8863 73.7402C64.0894 72.6721 66.0481 71.7427 66.3139 70.1198C65.7683 70.6469 65.1667 71.4376 64.4951 72.0479H64.4811ZM73.0432 73.1715C70.8047 74.9193 68.7062 76.8058 66.6496 78.72C64.5231 80.7037 62.1168 82.0908 59.5706 83.6999C68.2585 81.2585 74.6661 76.5561 79.8984 70.6885C79.9264 70.5498 80.0803 70.4527 79.7865 70.4666C77.9398 71.7705 75.5055 72.4918 73.0572 73.1854L73.0432 73.1715ZM38.795 80.7591C37.6618 79.9407 36.3327 79.3581 35.1436 78.4981C34.3041 77.9016 33.4787 76.9861 32.6393 76.2371C31.8139 75.5019 30.8346 74.4199 29.8972 74.087C29.0858 73.7957 26.2458 73.4628 25.5602 73.5183C23.8534 73.6431 22.1606 74.8499 20.202 74.8777C20.9155 75.8348 21.9647 76.6948 23.056 77.4855C25.2944 79.0807 27.6588 80.4956 30.247 81.6746C31.5341 82.2572 33.1849 83.0757 34.472 83.256C36.9903 83.6305 39.6065 83.0895 42.3485 83.145C41.0894 82.6595 40.0262 81.6469 38.809 80.773L38.795 80.7591ZM65.8522 74.9886C66.0061 74.7251 66.4258 74.7251 66.5377 74.4199C66.076 74.3089 65.6004 74.7667 65.8522 74.9886ZM35.8291 77.5965C39.6904 79.053 41.4112 82.6318 46.0979 83.256C44.6989 81.2446 42.4185 79.2194 40.3899 77.3745C39.7044 76.7503 39.0468 75.6822 38.3333 75.4464C36.6125 74.8777 34.8218 75.4464 32.9751 74.6557C33.7026 75.8625 35.0736 76.4313 35.8291 77.5965ZM63.6837 75.3216C62.7603 74.3367 61.1235 75.1412 60.6058 75.8903C60.1302 76.0151 60.1582 75.6545 59.8084 75.6683C58.899 76.6255 58.2415 77.8184 57.4161 78.8449C56.9544 78.9559 57.0663 78.512 56.6186 78.6229C56.1989 79.9823 55.4574 81.0088 54.9118 82.2434C55.6673 82.1601 56.087 81.3695 56.5067 80.884C56.9824 80.3291 57.5 79.8298 57.9897 79.3026C58.969 78.2762 59.6965 76.8474 61.1794 76.3619C62.1448 77.2219 60.2001 78.4842 59.4726 79.3026C58.5773 80.3014 57.7938 81.1337 57.3041 81.7856C58.6892 81.203 59.1089 79.6494 60.2701 78.8449C62.0748 77.9849 63.9355 76.5977 64.3832 74.7667C64.3133 75.1135 63.9775 75.1828 63.6977 75.3354L63.6837 75.3216ZM58.0876 75.2106C58.1156 76.0013 57.3881 76.029 57.2902 76.6809C57.8638 76.2648 58.3674 75.7793 58.6612 75.0996C58.3814 75.058 58.4094 75.3077 58.0876 75.2106ZM48.7281 78.3871C48.6442 77.5687 48.4203 76.889 48.5043 75.9042C46.0979 76.029 42.6703 75.6683 40.4039 75.6822C42.3765 77.3884 45.5243 77.9294 48.7421 78.401L48.7281 78.3871ZM49.7634 75.7793C49.7074 76.8058 49.7914 77.7074 49.9872 78.4981C51.6661 78.5536 53.3029 78.5397 54.4361 78.0403C54.7439 77.3606 55.1217 76.7642 55.1217 75.7793C53.6947 76.14 51.5402 75.4048 49.7494 75.7793H49.7634ZM62.2007 80.6482C63.6277 79.9546 65.1107 78.72 65.8522 77.7074C64.733 78.7894 63.1661 79.4136 62.2007 80.6482ZM45.5383 80.8701C46.6715 82.1047 47.6788 83.5473 49.7634 82.7982C49.5675 81.6469 49.2737 80.5649 48.854 79.6356C47.0213 79.372 45.2166 79.0946 43.7196 78.4981C44.1113 79.0668 44.7269 79.9685 45.5523 80.8701H45.5383ZM50.2111 79.7465C50.4909 80.6343 50.7287 81.5775 50.8966 82.5763H52.1557C52.4915 81.5775 53.6527 80.2182 53.5268 79.5246C52.6314 79.802 51.4002 79.7604 50.2111 79.7465ZM51.0085 85.1702H51.2324C51.2603 85.2535 51.3303 85.2951 51.4562 85.2812C51.4982 84.7957 51.3443 84.116 51.5681 83.8108C51.4002 83.8247 51.1484 83.7692 51.1065 83.9218C51.3583 84.1854 51.2464 85.0315 50.9945 85.1702H51.0085ZM49.1898 84.1576C49.4976 84.3102 49.7914 84.4628 50.0992 84.6154C50.1831 84.2686 49.9033 84.2825 49.9872 83.9357C49.6375 83.9357 49.3577 83.9912 49.1898 84.1576ZM47.469 85.2812C45.6083 84.2547 41.9848 84.3796 39.2567 84.6015C41.8589 84.8928 44.629 85.6141 47.469 85.2812Z" fill="#10218B"/>
</g>
<defs>
<clipPath id="clip0_6039_43">
<rect width="92" height="88" fill="white"/>
</clipPath>
</defs>
</svg>
