<svg width="720" height="720" viewBox="0 0 720 720" fill="none" xmlns="http://www.w3.org/2000/svg">
<rect width="724" height="720" fill="#10218B"/>
<g clip-path="url(#clip0_6126_4)">
<path d="M1073.32 548.441L796.488 648.234C792.725 649.59 788.507 648.596 785.737 645.698L507.706 353.496C502.681 348.213 504.738 339.494 511.597 337.016L788.425 237.223C792.188 235.867 796.406 236.861 799.176 239.759L1077.21 531.961C1082.23 537.244 1080.18 545.963 1073.32 548.441Z" fill="#4D49FC"/>
<path d="M524.276 268.827V344.344L759.34 591.395L994.918 518.309L712.084 228.398L524.276 268.827Z" fill="#FFFBF2"/>
<path d="M1054.6 447.538L792.538 542.013C788.776 543.369 784.557 542.375 781.788 539.476L518.304 262.563C513.28 257.28 515.336 248.56 522.196 246.082L784.253 151.596C788.016 150.24 792.234 151.234 795.004 154.132L1058.49 431.046C1063.51 436.329 1061.46 445.048 1054.6 447.526V447.538Z" fill="#4D49FC"/>
<path d="M590.544 747.045L307.709 849L29 556.085L311.834 454.118L590.544 747.045Z" fill="#FFC9C1"/>
<path d="M517.077 416.506C516.061 415.443 514.507 415.069 513.116 415.56L452.305 437.124L443.506 432.764V442.956C443.518 443.845 443.845 444.745 444.534 445.458L723.769 738.933L798.615 712.402L517.077 416.518V416.506Z" fill="#FFC9C1"/>
<path d="M798.615 701.613L723.769 728.145L444.534 434.67C442.665 432.706 443.436 429.468 445.995 428.568L513.128 404.772C514.518 404.281 516.072 404.655 517.089 405.718L798.626 701.602L798.615 701.613Z" fill="#FF7237"/>
<path d="M343.888 415.606C342.357 414.695 340.581 416.366 341.387 417.956L347.814 427.774L353.598 422L343.876 415.606H343.888Z" fill="#414042"/>
<path d="M375.894 436.645L353.61 422L347.814 427.774L362.795 450.671L375.894 436.645Z" fill="#FCE8CA"/>
<path d="M364.092 452.342L627.738 729.431C630.438 732.271 634.551 733.265 638.244 731.967C638.244 731.967 638.255 731.967 638.267 731.967L362.105 441.729C360.703 445.166 361.217 449.338 364.103 452.365L364.092 452.342Z" fill="#00B6FF"/>
<path d="M643.046 716.621L379.4 439.532C375.812 435.768 371.711 434.775 368.006 436.072C367.866 436.119 367.737 436.189 367.597 436.247L643.981 726.719C645.582 723.213 645.15 718.842 643.046 716.621Z" fill="#00B6FF"/>
<path d="M643.981 726.72L367.597 436.248C364.945 437.311 363.052 439.333 362.082 441.706L638.244 731.944C640.955 730.986 642.906 729.034 643.97 726.708L643.981 726.72Z" fill="#FF01E6"/>
<path d="M499.771 418.458L513.116 413.608L516.622 417.243L503.382 422.222L499.771 418.458Z" fill="#FFC9C1"/>
<path d="M514.553 433.933L527.898 429.083L531.404 432.706L518.176 437.685L514.553 433.933Z" fill="#FFC9C1"/>
<path d="M529.347 449.408L542.68 444.546L546.186 448.181L532.958 453.16L529.347 449.408Z" fill="#FFC9C1"/>
<path d="M544.129 464.872L557.462 460.021L560.968 463.656L547.74 468.635L544.129 464.872Z" fill="#FFC9C1"/>
<path d="M558.911 480.347L572.256 475.496L575.762 479.119L562.534 484.098L558.911 480.347Z" fill="#FFC9C1"/>
<path d="M573.693 495.821L587.038 490.959L590.544 494.594L577.316 499.573L573.693 495.821Z" fill="#FFC9C1"/>
<path d="M588.487 511.285L601.82 506.434L605.326 510.069L592.098 515.048L588.487 511.285Z" fill="#FFC9C1"/>
<path d="M603.269 526.76L616.614 521.909L620.108 525.533L606.88 530.512L603.269 526.76Z" fill="#FFC9C1"/>
<path d="M618.051 542.235L631.396 537.373L634.902 541.008L621.674 545.987L618.051 542.235Z" fill="#FFC9C1"/>
<path d="M632.833 557.698L646.178 552.848L649.684 556.471L636.456 561.462L632.833 557.698Z" fill="#FFC9C1"/>
<path d="M401.836 393.036C398.926 394.17 395.666 393.34 393.516 390.944L368.31 362.671C366.464 360.602 365.844 357.902 366.253 355.389H366.125V379.104L366.242 379.163C365.856 381.652 366.487 384.329 368.31 386.374L393.516 414.648C395.666 417.055 398.914 417.874 401.836 416.74L427.392 406.817V383.102L401.836 393.025V393.036Z" fill="#4D49FC"/>
<path d="M487.057 352.49C487.688 356.336 485.795 360.438 481.998 361.911L429.846 382.155V405.87L481.998 385.626C484.837 384.527 486.602 381.944 487.057 379.116H487.186V352.49H487.057Z" fill="#24CB71"/>
<path d="M395.783 339.365L371.302 348.867C368.462 349.966 366.697 352.549 366.242 355.389L408.917 354.361L395.783 339.365Z" fill="#4D49FC"/>
<path d="M368.31 362.671L393.516 390.944C395.666 393.352 398.914 394.17 401.836 393.036L427.392 383.113V378.695C427.392 376.603 426.632 374.593 425.253 373.015L408.917 354.361L366.242 355.389C365.844 357.89 366.452 360.602 368.298 362.671H368.31Z" fill="#4D49FC"/>
<path d="M487.057 352.491C486.8 350.924 486.134 349.393 485.001 348.119L459.795 319.846C457.645 317.438 454.397 316.62 451.475 317.754L398.225 338.43L412.119 354.291L427.111 371.402C428.876 373.424 429.857 376.007 429.857 378.695V382.167L482.009 361.923C485.807 360.45 487.689 356.336 487.069 352.502L487.057 352.491Z" fill="#24CB71"/>
<path d="M427.1 371.402L412.107 354.291L398.213 338.43L397.43 338.734L395.783 339.377L408.917 354.372L425.253 373.027C426.632 374.593 427.392 376.615 427.392 378.707V406.84L428.151 406.548L429.834 405.893V378.707C429.834 376.019 428.864 373.436 427.088 371.414L427.1 371.402Z" fill="#FFFBF2"/>
</g>
<defs>
<clipPath id="clip0_6126_4">
<rect width="695" height="569" fill="white" transform="translate(29 151)"/>
</clipPath>
</defs>
</svg>
