<svg width="1440" height="536" viewBox="0 0 1440 536" fill="none" xmlns="http://www.w3.org/2000/svg">
<rect x="-6" width="1452" height="536" fill="#10218B"/>
<g clip-path="url(#clip0_6132_21)">
<path d="M587.738 78.4177H531.175C529.674 78.4177 528.457 79.6355 528.457 81.1378V204.678C528.457 206.181 529.674 207.398 531.175 207.398H587.738C589.24 207.398 590.457 206.181 590.457 204.678V81.1378C590.457 79.6355 589.24 78.4177 587.738 78.4177Z" fill="#FF01E6"/>
<path d="M585.026 88.0535H533.887V197.762H585.026V88.0535Z" fill="#10218B"/>
<path d="M561.027 204.846C562.436 204.846 563.578 203.703 563.578 202.294C563.578 200.884 562.436 199.741 561.027 199.741C559.618 199.741 558.476 200.884 558.476 202.294C558.476 203.703 559.618 204.846 561.027 204.846Z" fill="white"/>
<path d="M553.34 83.6584H567.01" stroke="white" stroke-miterlimit="10"/>
<path d="M569.609 82.9714H568.925C568.735 82.9714 568.58 83.1257 568.58 83.316V84.0005C568.58 84.1908 568.735 84.3451 568.925 84.3451H569.609C569.799 84.3451 569.953 84.1908 569.953 84.0005V83.316C569.953 83.1257 569.799 82.9714 569.609 82.9714Z" fill="white"/>
<path d="M555.341 97.0659H542.219C541.546 97.0659 541 97.6119 541 98.2854V116.018C541 116.691 541.546 117.237 542.219 117.237H555.341C556.014 117.237 556.56 116.691 556.56 116.018V98.2854C556.56 97.6119 556.014 97.0659 555.341 97.0659Z" fill="#0A1B6D"/>
<path d="M577.154 97.0659H564.032C563.359 97.0659 562.813 97.6119 562.813 98.2854V116.018C562.813 116.691 563.359 117.237 564.032 117.237H577.154C577.828 117.237 578.373 116.691 578.373 116.018V98.2854C578.373 97.6119 577.828 97.0659 577.154 97.0659Z" fill="#0A1B6D"/>
<path d="M555.341 121.347H542.219C541.546 121.347 541 121.893 541 122.567V140.299C541 140.973 541.546 141.519 542.219 141.519H555.341C556.014 141.519 556.56 140.973 556.56 140.299V122.567C556.56 121.893 556.014 121.347 555.341 121.347Z" fill="#0A1B6D"/>
<path d="M577.154 121.347H564.032C563.359 121.347 562.813 121.893 562.813 122.567V140.299C562.813 140.973 563.359 141.519 564.032 141.519H577.154C577.828 141.519 578.373 140.973 578.373 140.299V122.567C578.373 121.893 577.828 121.347 577.154 121.347Z" fill="#0A1B6D"/>
<path d="M555.341 146.358H542.219C541.546 146.358 541 146.904 541 147.577V165.31C541 165.983 541.546 166.529 542.219 166.529H555.341C556.014 166.529 556.56 165.983 556.56 165.31V147.577C556.56 146.904 556.014 146.358 555.341 146.358Z" fill="#0A1B6D"/>
<path d="M577.154 146.358H564.032C563.359 146.358 562.813 146.904 562.813 147.577V165.31C562.813 165.983 563.359 166.529 564.032 166.529H577.154C577.828 166.529 578.373 165.983 578.373 165.31V147.577C578.373 146.904 577.828 146.358 577.154 146.358Z" fill="#0A1B6D"/>
<path d="M555.341 170.469H542.219C541.546 170.469 541 171.015 541 171.688V189.421C541 190.095 541.546 190.64 542.219 190.64H555.341C556.014 190.64 556.56 190.095 556.56 189.421V171.688C556.56 171.015 556.014 170.469 555.341 170.469Z" fill="#0A1B6D"/>
<path d="M577.154 170.469H564.032C563.359 170.469 562.813 171.015 562.813 171.688V189.421C562.813 190.095 563.359 190.64 564.032 190.64H577.154C577.828 190.64 578.373 190.095 578.373 189.421V171.688C578.373 171.015 577.828 170.469 577.154 170.469Z" fill="#0A1B6D"/>
<path d="M539.3 424.853C539.3 424.853 473.722 274.427 520.915 240.932C552.458 218.544 585.892 267.899 625.798 241.789C661.325 218.544 611.795 159.985 671.072 144.667C733.378 128.567 784.424 258.962 836.705 240.932C900.144 219.054 963.248 263.466 908.715 425.141L539.302 424.853H539.3Z" fill="#0A1B6D"/>
<path d="M574.655 382.532V359.699H561.553C560.522 355.626 558.952 351.765 556.924 348.198L566.285 338.832L550.148 322.686L541.137 331.7C537.093 329.159 532.634 327.221 527.886 326.018V312.535H505.064V326.018C500.653 327.135 496.494 328.885 492.683 331.166L484.205 322.683L468.067 338.829L476.545 347.311C474.266 351.124 472.517 355.286 471.4 359.699H458.298V382.532H471.4C472.603 387.283 474.538 391.743 477.08 395.79L468.069 404.804L484.207 420.95L493.569 411.582C497.135 413.61 500.993 415.181 505.064 416.213V429.695H527.886V416.213C532.297 415.095 536.457 413.345 540.267 411.065L550.148 420.95L566.285 404.804L556.405 394.919C558.684 391.107 560.433 386.945 561.55 382.532H574.652H574.655ZM517.838 391.932C490.585 393.552 487.961 352.232 515.115 350.299C542.367 348.678 544.991 389.998 517.838 391.932Z" fill="#FF7237"/>
<path d="M966.757 369.228C944.414 365.914 948.059 395.851 916.21 395.851C887.09 395.851 877.774 281.851 856.586 314.437C747.968 481.503 811.04 243.389 724.66 240.363C685.601 238.994 659.574 280.663 649.974 354.44C636.061 421.136 603.797 303.571 570.592 314.501C549.488 321.448 558.82 403.44 524.039 402.173C492.212 401.012 494.584 365.914 472.24 369.226C448.184 372.796 441 425.783 441 425.783H998C998 425.783 990.814 372.796 966.757 369.231V369.228Z" fill="#1730AD"/>
<path d="M951.666 383.008V376.162H945.619C945.212 371.329 943.947 366.742 941.981 362.548L947.212 359.527L943.791 353.599L938.555 356.623C935.848 352.745 932.472 349.369 928.596 346.658L931.618 341.42L925.693 337.997L922.673 343.231C918.482 341.264 913.896 339.999 909.066 339.591V333.541H902.224V339.591C897.394 339.999 892.808 341.264 888.617 343.231L885.597 337.997L879.672 341.42L882.695 346.658C878.818 349.367 875.445 352.745 872.735 356.623L867.499 353.599L864.078 359.527L869.309 362.548C867.343 366.742 866.079 371.329 865.671 376.162H859.624V383.008H865.671C866.079 387.84 867.343 392.428 869.309 396.621L864.078 399.643L867.499 405.57L872.735 402.547C875.442 406.425 878.818 409.8 882.695 412.511L879.672 417.749L885.597 421.172L888.617 415.938C892.808 417.906 897.394 419.171 902.224 419.579V425.629H909.066V419.579C913.896 419.171 918.482 417.906 922.673 415.938L925.693 421.172L931.618 417.749L928.596 412.511C932.472 409.802 935.845 406.425 938.555 402.547L943.791 405.57L947.212 399.643L941.981 396.621C943.947 392.428 945.212 387.84 945.619 383.008H951.666ZM905.647 405.679C871.362 405.094 871.367 354.071 905.647 353.488C939.93 354.073 939.926 405.097 905.647 405.679Z" fill="#24CB71"/>
<path d="M946.972 401.633C926.416 400.219 929.771 413.001 900.47 413.001C873.682 413.001 874.418 384.352 856.491 378.263C823.476 367.05 796.26 423.799 783.461 395.318C759.151 319.748 688.252 281.849 655.543 395.318C642.745 423.799 612.812 372.98 582.514 378.263C563.863 381.516 565.323 413.001 538.534 413.001C509.233 413.001 512.588 400.219 492.033 401.633C469.902 403.156 463.291 425.783 463.291 425.783H975.718C975.718 425.783 969.107 403.156 946.976 401.633H946.972Z" fill="#0A1B6D"/>
<path d="M441.415 425.783C441.415 425.783 437.506 441.38 453.696 445.286C475.84 450.628 605.82 464.661 574.244 475.326C556.419 481.347 583.343 489.52 670.165 492.531C756.988 495.541 905.967 483.747 855.868 466.296C805.768 448.844 1009.89 462.082 997.454 425.783H441.415Z" fill="#0A1B6D"/>
<path d="M609.511 449.447H814.434C814.434 437.125 809.441 425.973 801.373 417.897C793.303 409.825 782.154 404.829 769.84 404.829H654.107C629.478 404.829 609.511 424.806 609.511 449.447Z" fill="#4D49FC"/>
<path d="M965.649 215.874H758.691C758.691 244.536 801.199 267.997 855.004 269.921V280.969C848.896 283.129 844.057 287.973 841.898 294.084H738.913C735.75 282.159 724.889 273.369 711.975 273.369C699.061 273.369 688.197 282.159 685.035 294.084H582.054C579.895 287.973 575.053 283.129 568.945 280.969V269.919C622.751 267.992 665.256 244.532 665.256 215.871H458.298C458.298 244.532 500.803 267.992 554.609 269.919V280.969C546.258 283.923 540.274 291.888 540.274 301.254C540.274 313.134 549.901 322.765 561.775 322.765C571.136 322.765 579.097 316.779 582.049 308.424H685.032C686.992 315.811 691.904 321.997 698.431 325.63V404.825H654.102C629.473 404.825 609.506 424.801 609.506 449.443H804.706C802.551 442.348 798.675 436.006 793.57 430.894C785.5 422.822 774.351 417.827 762.038 417.827H725.505V325.63C732.034 321.997 736.946 315.813 738.906 308.424H841.891C844.843 316.779 852.805 322.765 862.166 322.765C874.042 322.765 883.667 313.134 883.667 301.252C883.667 291.886 877.683 283.918 869.332 280.967V269.919C923.14 267.994 965.645 244.534 965.645 215.871L965.649 215.874Z" fill="#4D49FC"/>
<path d="M869.334 291.625C872.515 299.955 873.372 311.561 862.168 322.77C874.044 322.77 883.669 313.138 883.669 301.256C883.669 291.89 877.685 283.923 869.334 280.971V269.921C923.142 267.997 965.647 244.536 965.647 215.874H934.957C934.957 215.874 915.609 247.78 869.334 267.224C867.014 268.198 864.624 269.144 862.168 270.05V279.745C862.168 279.745 866.604 284.478 869.334 291.623V291.625Z" fill="#4D49FC"/>
<path d="M568.943 291.625C572.124 299.955 572.98 311.561 561.777 322.77C573.653 322.77 583.277 313.138 583.277 301.256C583.277 291.89 577.294 283.923 568.943 280.971V269.921C622.751 267.997 665.256 244.536 665.256 215.874H634.566C634.566 215.874 615.218 247.78 568.943 267.224C566.623 268.198 564.233 269.144 561.777 270.05V279.745C561.777 279.745 566.213 284.478 568.943 291.623V291.625Z" fill="#4D49FC"/>
<path d="M711.975 329.144V417.833H725.512V325.637C734.062 320.879 739.846 311.747 739.846 301.258C739.846 285.858 727.367 273.373 711.975 273.373C711.975 273.373 723.593 285.332 724.161 301.258C724.472 309.822 721.583 319.53 711.975 329.146V329.144Z" fill="#4D49FC"/>
<path d="M739.774 333.253C738.886 336.007 740.732 334.568 736.597 334.953C735.732 335.035 733.904 335.031 734.758 333.219C735.431 331.15 734.622 325.49 735.03 323.357C736.881 313.821 744.303 319.227 739.774 333.253Z" fill="#FFC9C1"/>
<path d="M744.463 326.569C744.099 328.183 743.834 329.148 743.813 329.246C743.813 329.246 738.564 329.79 731.821 328.044C732.678 319.041 734.413 302.324 728.321 296.115C726.876 294.928 723.237 291.779 720.493 289.771C713.547 285.491 702.985 281.672 700.692 274.489C704.788 273.253 713.357 270.671 717.494 269.425C749.47 276.189 749.661 305.604 744.463 326.569Z" fill="#10218B"/>
<path d="M732.633 317.552C733.052 302.594 731.998 297.469 720.491 289.771L716.089 276.132C730.99 282.434 742.474 299.513 732.633 317.552Z" fill="#10218B"/>
<path d="M719.553 340.625C718.053 342.941 719.841 343.637 716.662 342.347C714.585 341.33 713.892 341.065 714.752 339.165C715.466 336.878 716.338 332.451 716.884 330.123C718.33 323.012 727.66 328.103 719.551 340.625H719.553Z" fill="#FFC9C1"/>
<path d="M732.694 315.147C730.319 323.638 727.068 330.18 724.25 336.803C724.25 336.803 715.788 336.49 712.016 331.621C714.494 325.095 718.969 312.375 716.497 302.299C715.475 298.593 712.448 292.636 701.965 288.388C688.906 283.095 692.169 271.075 692.169 271.075C697.783 262.418 705.654 271.32 708.135 272.247C728.946 280.885 739.731 295.635 732.694 315.149V315.147Z" fill="#10218B"/>
<path d="M721.416 334.282C736.459 301.284 731.658 289.676 705.461 274.835C705.246 274.729 705.434 274.35 705.658 274.493C731.405 288.882 737.705 301.891 721.416 334.282Z" fill="#10218B"/>
<path d="M740.351 327.126C744.713 304.754 748.118 283.596 716.644 271.907C716.411 271.841 716.529 271.438 716.776 271.535C747.697 282.937 746.083 304.879 740.351 327.126Z" fill="#10218B"/>
<path d="M725.308 334.357C724.932 335.209 724.578 336.025 724.25 336.803C724.25 336.803 715.788 336.49 712.016 331.621C712.016 331.621 712.376 330.755 712.911 329.284C712.911 329.284 717.072 334.708 725.31 334.357H725.308Z" fill="#5654AE"/>
<path d="M744.463 326.569C744.099 328.183 743.834 329.148 743.813 329.246C743.813 329.246 738.564 329.79 731.821 328.044C731.883 327.421 731.969 326.607 732.062 325.646C732.062 325.646 738.704 327.759 744.461 326.567L744.463 326.569Z" fill="#5654AE"/>
<path d="M734.268 336.651C734.307 337.268 734.619 337.97 735.335 337.948L748.403 337.83C749.079 337.825 749.552 337.143 749.305 336.515C748.784 335.094 746.611 332.66 739.921 332.791C739.031 332.809 737.882 333.108 734.953 332.737C734.953 332.737 733.962 334.323 734.268 336.649V336.651Z" fill="#00B6FF"/>
<path d="M712.965 342.638C712.811 343.236 712.892 344 713.579 344.202L726.044 348.13C726.688 348.334 727.347 347.833 727.308 347.16C727.252 345.648 726.33 342.678 719.515 340.706C718.658 340.459 717.496 340.387 714.823 339.129C714.823 339.129 713.391 340.332 712.965 342.64V342.638Z" fill="#00B6FF"/>
<path d="M697.464 245.019C682.413 233.715 679.559 218.689 684.779 201.226C685.544 198.783 689.264 199.692 688.827 202.208C687.359 216.343 692.835 227.813 706.343 234.291C706.338 234.289 704.514 249.154 697.466 245.021L697.464 245.019Z" fill="#FFC9C1"/>
<path d="M689.389 195.535C688.644 195.457 688.748 197.23 688.306 197.751C687.679 196.725 687.341 195.51 687.334 195.507C687.203 194.023 687.153 192.533 687.171 191.042C686.047 189.074 686.093 194.777 685.995 195.337C685.988 195.337 685.982 195.34 685.973 195.342C685.515 193.85 685.137 192.329 684.892 190.788C683.292 189.025 684.724 195.217 684.799 195.804C684.797 195.804 684.792 195.809 684.79 195.811C684.122 194.48 683.616 193.068 683.267 191.62C681.498 189.986 683.44 196.165 683.705 196.702C683.7 196.706 683.696 196.711 683.693 196.715C683.016 195.748 682.463 194.691 681.969 193.617C680.102 192.332 682.542 197.436 682.837 197.903C682.88 198.327 683.698 200.786 684.561 201.986C685.071 202.693 688.44 202.976 688.832 202.212C689.584 200.741 689.69 199.12 689.638 198.728C689.52 197.822 690.157 196.017 689.394 195.539L689.389 195.535Z" fill="#FFC9C1"/>
<path d="M706.784 233.268C705.844 242.963 698.825 248.993 696.417 250.117C696.315 250.162 696.224 250.203 696.138 250.233C691.784 248.381 689.088 243.539 686.514 239.813C685.846 238.858 685.25 237.884 684.722 236.891L684.717 236.884C678.879 225.997 680.832 213.136 683.986 204.13C685.88 204.971 688.657 204.257 688.657 204.257C688.859 222.753 698.118 229.358 706.787 233.268H706.784Z" fill="#FF7237"/>
<path d="M683.501 205.642C685.673 206.644 688.596 205.812 688.689 205.785C688.671 205.286 688.66 204.776 688.657 204.257C688.657 204.257 685.88 204.971 683.983 204.128C683.983 204.128 683.788 204.676 683.503 205.64L683.501 205.642Z" fill="#E8C0A6"/>
<path d="M713.493 246.327C732.177 244.065 742.157 232.482 746.367 214.747C746.926 212.249 743.249 211.175 742.37 213.571C736.495 226.396 728.258 234.994 713.334 233.826C713.339 233.826 713.352 233.824 713.357 233.822C705.183 233.949 705.323 246.379 713.493 246.325V246.327Z" fill="#FFC9C1"/>
<path d="M745.528 207.439C746.213 207.745 745.236 209.23 745.361 209.901C746.416 209.328 747.316 208.441 747.325 208.444C748.179 207.224 748.968 205.959 749.697 204.658C751.652 203.516 748.764 208.432 748.569 208.965C748.576 208.969 748.58 208.974 748.587 208.979C749.729 207.915 750.816 206.787 751.8 205.576C754.067 204.849 749.731 209.495 749.373 209.967C749.373 209.969 749.378 209.974 749.378 209.976C750.621 209.158 751.766 208.187 752.792 207.108C755.141 206.578 750.37 210.957 749.874 211.291C749.874 211.297 749.876 211.302 749.878 211.309C750.948 210.808 751.954 210.171 752.921 209.489C755.18 209.309 750.515 212.51 750.028 212.766C749.779 213.111 748.374 214.233 746.249 215.244C745.46 215.618 742.225 214.416 742.372 213.573C742.511 212.782 743.51 210.463 743.668 210.103C743.865 209.346 744.631 207.473 745.531 207.442L745.528 207.439Z" fill="#FFC9C1"/>
<path d="M745.834 216.839C744.957 221.955 740.474 233.765 732.241 241.898C732.161 241.98 732.073 242.066 731.976 242.154C731.602 242.519 731.219 242.875 730.829 243.222C725.892 247.612 720.58 249.704 720.58 249.704L719.737 248.138L711.794 233.407C722.603 234.894 733.845 228.037 740.9 216.363C741.163 215.942 741.416 215.525 741.654 215.117C741.654 215.117 742.991 216.803 745.834 216.837V216.839Z" fill="#FF7237"/>
<path d="M740.897 216.363C742.37 218.122 745.49 218.39 745.49 218.39C745.73 217.408 745.834 216.839 745.834 216.839C742.991 216.808 741.654 215.119 741.654 215.119C741.416 215.529 741.165 215.944 740.9 216.363H740.897Z" fill="#E8C0A6"/>
<path d="M711.787 233.405C712.17 230.716 711.852 226.802 711.522 225.199C710.93 222.021 705.883 223.107 706.63 226.235C706.796 226.138 707.156 231.877 706.755 233.457C702.011 234.737 716.035 239.763 711.787 233.407V233.405Z" fill="#FFC9C1"/>
<path d="M706.589 225.972C706.594 226.008 706.599 226.047 706.603 226.083C706.61 226.135 706.619 226.185 706.63 226.235C706.748 226.16 706.988 229.329 706.929 231.621C709.059 232.659 711.474 232.294 711.916 232.217C712.079 229.796 711.782 226.781 711.617 225.652C711.565 225.387 711.529 225.231 711.522 225.199C711.506 225.127 711.488 225.056 711.467 224.988C711.248 224.263 710.717 223.701 710.056 223.42C709.598 223.225 709.079 223.166 708.556 223.277C708.039 223.388 707.593 223.651 707.256 224.011C707.24 224.025 707.226 224.041 707.213 224.054C706.759 224.564 706.515 225.256 706.589 225.974V225.972Z" fill="#FFC9C1"/>
<path d="M715.808 219.546C715.808 219.546 715.357 216.581 714.154 214.659L712.568 215.72L715.808 219.546Z" fill="black"/>
<path d="M731.976 242.154C731.602 242.519 731.219 242.875 730.829 243.222C725.892 247.612 720.58 249.704 720.58 249.704L719.737 248.138L720.901 242.227C720.901 242.227 723.069 245.933 725.192 245.604C727.184 245.298 730.521 243.466 731.978 242.154H731.976Z" fill="#FF7237"/>
<path d="M696.415 250.117C696.313 250.162 696.222 250.203 696.136 250.233C691.782 248.381 689.085 243.539 686.512 239.813C685.843 238.858 685.248 237.884 684.72 236.891C684.878 237.088 690.023 243.464 693.986 243.979L696.415 250.117Z" fill="#FF7237"/>
<path d="M717.025 228.232C715.283 230.555 712.244 231.557 709.682 231.355C708.885 231.306 708.107 231.131 707.394 230.809C707.151 230.7 706.92 230.578 706.698 230.437H706.696C695.934 222.166 706.707 204.808 714.415 217.655C716.916 221.228 720.65 222.821 717.027 228.232H717.025Z" fill="#FFC9C1"/>
<path d="M714.995 225.161L711.476 223.921C711.476 223.921 711.519 225.743 712.888 226.054C714.195 226.353 714.995 225.161 714.995 225.161Z" fill="#F9F8F3"/>
<path d="M714.562 210.305C713.065 208.131 709.385 207.333 706.744 210.626C704.709 213.163 702.187 213.485 702.554 215.817C698.159 218.574 701.177 223.417 701.177 223.417L703.486 222.824C705.874 220.294 705.364 217.116 705.364 217.116C705.966 217.064 706.592 216.955 707.129 216.737C708.796 216.064 711.322 215.507 713.366 215.962C715.409 216.418 716.239 212.737 714.564 210.307L714.562 210.305Z" fill="black"/>
<path d="M701.095 225.353C701.51 226.525 702.613 227.203 703.556 226.867C704.498 226.532 704.927 225.312 704.51 224.141C704.095 222.969 702.992 222.291 702.049 222.626C701.107 222.962 700.679 224.181 701.095 225.353Z" fill="#FFC9C1"/>
<path d="M724.784 271.381C724.784 271.381 712.283 276.583 691.886 272.805C691.886 272.805 691.874 272.261 691.87 271.318C691.843 267.29 691.879 255.961 693.048 248.249C693.048 248.249 694.246 241.73 695.73 238.641C700.237 229.263 706.782 233.266 706.782 233.266C708.062 236.671 711.621 239.631 711.621 239.631C712.614 236.306 711.825 233.568 711.791 233.407C716.966 235.152 721.32 239.624 722.571 248.619C723.158 252.83 725.779 263.142 725.648 268.398C725.611 269.874 725.358 270.95 724.782 271.383L724.784 271.381Z" fill="#FF7237"/>
<path d="M713.595 233.454C713.595 233.454 714.15 238.57 712.002 241.338C712.002 241.338 706.623 238.863 705.189 232.471C705.189 232.471 705.955 232.552 706.782 233.266C706.782 233.266 709.027 237.149 711.422 239.135C711.422 239.135 712.242 237.061 711.791 233.405C711.791 233.405 712.756 233.112 713.595 233.452V233.454Z" fill="white"/>
<path d="M687.538 237.82C687.579 237.881 687.62 237.94 687.665 238.001C687.624 237.936 687.581 237.874 687.538 237.82Z" fill="#A523A2"/>
<path d="M724.784 271.381C724.784 271.381 712.283 276.583 691.886 272.805C691.886 272.805 691.874 272.261 691.87 271.318L692.169 271.075C692.169 271.075 715.858 274.457 725.648 268.398C725.611 269.874 725.358 270.951 724.782 271.383L724.784 271.381Z" fill="white"/>
<path d="M683.662 449.447C683.662 449.447 683.977 407.01 655.045 391.977C626.113 376.944 611.851 402.497 618.981 422.584C618.981 422.584 609.388 409.202 590.675 410.204C571.961 411.205 575.146 428.335 581.118 433.512C581.118 433.512 567.183 422.292 542.497 429.695C517.811 437.098 542.497 449.447 542.497 449.447H683.662Z" fill="#1730AD"/>
<path d="M741.192 449.447C741.192 449.447 740.877 407.01 769.809 391.977C798.74 376.944 813.002 402.497 805.873 422.584C805.873 422.584 815.465 409.202 834.179 410.204C852.893 411.205 849.707 428.335 843.735 433.512C843.735 433.512 857.671 422.292 882.357 429.695C907.043 437.098 882.357 449.447 882.357 449.447H741.192Z" fill="#1730AD"/>
<path d="M554.611 452.101C554.611 452.101 557.488 438.023 577.131 443.091C596.774 448.16 597.036 432.463 609.513 431.162C621.99 429.86 629.953 441.967 640.04 434.083C650.126 426.2 653.312 415.22 670.299 414.658C687.287 414.095 691.591 431.903 705.366 431.164C719.141 430.425 727.408 412.132 744.991 410.16C765.062 407.907 774.884 419.993 781.785 433.374C788.686 446.754 811.249 426.553 824.256 431.164C837.262 435.774 835.14 442.531 843.368 443.094C851.597 443.656 865.399 433.802 873.628 438.306C881.856 442.81 875.22 452.104 875.22 452.104H554.611V452.101Z" fill="#10218B"/>
<path d="M924.35 185.597H831.202C829.109 185.597 827.344 184.038 827.085 181.961L820.527 129.519C820.216 127.041 822.149 124.852 824.643 124.852H930.909C933.405 124.852 935.336 127.041 935.025 129.519L928.466 181.961C928.206 184.038 926.441 185.597 924.35 185.597Z" fill="#FFC9C1"/>
<path d="M904.135 68.2613L837.803 106.902C836.974 107.385 836.693 108.449 837.176 109.279L860.579 149.493C861.062 150.322 862.125 150.603 862.955 150.12L929.286 111.48C930.116 110.997 930.397 109.932 929.914 109.102L906.511 68.8889C906.028 68.0591 904.964 67.7782 904.135 68.2613Z" fill="white"/>
<path d="M845.67 108.368L865.539 142.507" stroke="#4D49FC" stroke-miterlimit="10"/>
<path d="M854.979 102.944L874.851 137.083" stroke="#4D49FC" stroke-miterlimit="10"/>
<path d="M864.289 97.5195L884.16 131.659" stroke="#4D49FC" stroke-miterlimit="10"/>
<path d="M873.598 92.0952L893.47 126.234" stroke="#4D49FC" stroke-miterlimit="10"/>
<path d="M882.91 86.6709L902.779 120.81" stroke="#4D49FC" stroke-miterlimit="10"/>
<path d="M892.219 81.2468L912.091 115.388" stroke="#4D49FC" stroke-miterlimit="10"/>
<path d="M901.528 75.8225L921.4 109.964" stroke="#4D49FC" stroke-miterlimit="10"/>
<path d="M839.698 137.72V137.119C839.698 134.827 837.84 132.969 835.55 132.969H817.774C815.347 132.969 813.44 135.043 813.639 137.461L818.709 198.805C818.888 200.959 820.685 202.614 822.844 202.614H932.755C934.894 202.614 936.684 200.986 936.885 198.855L941.856 146.413C942.087 143.976 940.173 141.87 937.726 141.87H843.849C841.558 141.87 839.7 140.011 839.7 137.72H839.698Z" fill="#FF7237"/>
</g>
<defs>
<clipPath id="clip0_6132_21">
<rect width="557" height="425" fill="white" transform="translate(441 68)"/>
</clipPath>
</defs>
</svg>
