<svg width="100" height="100" viewBox="0 0 100 100" fill="none" xmlns="http://www.w3.org/2000/svg">
<g id="Pencil">
<path id="Vector" fill-rule="evenodd" clip-rule="evenodd" d="M63.6585 1.57453C59.2912 2.59918 56.2181 5.34891 50.5024 13.4906C48.8848 15.809 47.2673 17.6962 46.8897 17.6962C45.7576 17.6962 42.6303 19.6371 41.3903 22.3331C40.7432 23.7353 39.5031 25.5683 38.6406 26.485C35.6212 30.421 39.7189 30.5827 32.8173 39.4794C22.3572 53.0668 18.1512 59.8067 17.7736 63.4731C17.3424 68.0025 9.79406 92.05 11.3037 96.2019C12.3279 99.1133 15.779 99.7067 20.7934 98.1966C29.7976 95.5006 45.9197 83.6388 48.9932 80.997C52.9292 77.5997 63.9823 58.0812 65.3303 58.0274C66.8399 57.9733 69.9672 56.4636 70.5064 55.9244C72.9869 53.4443 80.0502 41.5283 80.6969 38.4548C80.9665 37.161 80.589 35.9746 80.589 34.465C80.589 33.5483 81.9374 31.4457 84.5792 28.1563C89.8632 21.6322 89.9169 21.4706 86.7897 15.0002C81.1823 3.73131 73.6336 -0.690167 63.6585 1.57453ZM70.7222 4.27051C75.3591 5.40306 79.7806 9.28493 82.4224 14.4073C84.9567 19.4217 84.4712 20.6618 76.2221 30.7448C76.0062 30.9602 75.3591 29.5585 74.3886 28.1026C70.668 22.3873 64.5215 18.2354 56.2719 17.3729C53.0909 17.0491 52.3358 18.2892 57.8895 10.7409C59.8308 8.09863 60.9629 6.64273 61.8255 5.72643C63.2814 4.27051 66.4086 3.24588 70.7222 4.27051ZM58.1053 21.201C65.5999 23.6273 68.2417 25.1908 72.6094 33.3324C75.4129 38.5627 75.1433 37.9698 71.9623 41.7979C70.7218 43.3075 70.6143 43.3075 70.2368 42.3371C68.9429 38.7244 67.8646 36.7834 64.7911 33.8179C59.1295 28.9651 57.5661 30.2594 62.1493 35.5434C67.3791 41.6362 68.4575 45.141 66.4624 49.6699C65.2765 52.3122 64.4135 53.2285 64.144 52.0963C60.7471 39.5332 53.2526 34.1954 44.8413 33.4404C41.3365 33.117 40.8511 32.3082 42.7924 30.1514C43.9783 28.8572 45.7038 29.4506 49.9095 29.9898C51.7967 30.2594 51.9046 27.6713 49.8016 27.1321C47.0518 26.4308 46.1351 25.5145 48.2377 22.2794C50.1791 19.4217 52.0125 19.2059 58.1053 21.201ZM53.0367 23.789C52.0125 24.4361 51.7425 25.7841 55.2472 27.0242C58.5903 28.2105 60.3158 27.3475 60.3158 25.8379C60.3158 25.2449 59.8846 24.3282 58.4287 24.0049C56.4877 23.5194 53.6301 23.4115 53.0367 23.789ZM47.7527 36.7834C48.3456 37.161 48.3998 37.2147 46.4047 40.1803C41.4982 47.4594 39.5031 50.2629 38.0472 51.9346C37.2384 52.8514 35.4054 55.6011 33.9495 58.0275C29.2584 66.0074 25.1611 68.5417 23.3814 64.5515C22.7347 63.1498 22.896 61.5322 23.7048 60.2917C26.0232 56.7332 38.5868 36.9451 41.6599 36.1363C44.1942 35.4355 46.836 36.1905 47.7527 36.7834ZM54.0613 39.9644C58.0511 44.1163 58.5903 46.7585 55.4631 50.5867C49.6399 57.7579 40.4736 70.1052 36.8071 72.7474C34.327 74.5266 33.1407 69.3501 33.842 66.1154C34.7583 61.7476 38.4247 55.8707 46.5126 45.2489C51.1495 39.0481 51.9583 37.8081 54.0613 39.9644ZM59.615 53.2826C59.7766 54.4685 60.4238 56.0861 59.1295 57.8658C58.2128 59.1596 55.2472 64.0661 52.875 68.0021C48.7773 74.9037 43.3854 79.4869 42.9541 78.301C42.4149 76.8451 45.488 69.9435 48.3456 66.0074C55.5168 56.3561 58.9137 48.5378 59.615 53.2826ZM29.6359 70.5364C29.7976 74.7962 32.3319 76.6292 36.5375 75.4971C39.2335 74.7962 39.2335 74.7421 38.1551 77.2764C37.6701 78.4085 37.4005 80.0261 37.508 80.889C37.7776 82.6146 37.1846 82.83 33.0332 85.4722C32.4398 85.8493 31.6848 85.6876 31.3077 85.0947C29.1509 81.8053 26.1312 80.134 22.7343 79.5948C19.3375 79.0556 19.5533 79.649 20.5775 74.257L21.4405 69.6739C22.1414 69.6739 24.7294 70.2668 27.1558 69.1884C28.1804 68.7572 29.2588 68.3259 29.2588 68.3259C29.2588 68.3259 29.6359 69.3501 29.6359 70.5364Z" fill="#10218B"/>
</g>
</svg>
