<svg width="100" height="100" viewBox="0 0 100 100" fill="none" xmlns="http://www.w3.org/2000/svg">
<g id="Smartphone">
<path id="Vector" fill-rule="evenodd" clip-rule="evenodd" d="M41.7033 1.76739C29.2827 3.02537 27.2386 4.38784 24.5133 13.2974C11.3065 56.2718 10.7825 83.4718 10.8874 81.6897C10.7298 84.2579 11.3588 86.7735 12.6168 89.027C15.6564 94.3724 18.696 96.3116 26.1382 97.674C43.4849 100.871 60.1509 97.674 68.8506 94.5299C76.5021 91.7523 74.196 90.0752 76.0829 84.153C81.6904 66.9107 90.8097 27.2902 88.8705 13.5067C88.5562 11.3059 87.6651 11.1483 86.7219 10.3622C83.3675 7.63727 81.9528 3.86377 77.603 2.60579C68.0645 -0.0665084 46.3152 1.29554 41.7033 1.76739ZM71.3139 4.85969L74.3009 5.38377C75.454 5.64582 76.2927 6.64134 76.2927 7.79442V11.5153C76.2927 27.9192 67.593 65.3907 61.0419 77.0256C56.0631 85.9347 54.7529 86.5114 38.5588 86.8257C18.3291 87.2449 15.0797 85.7775 15.6564 76.7635C16.1278 68.9022 21.0018 42.9602 24.461 30.0678C25.0896 27.7616 26.2427 23.0975 27.0811 19.6909C29.7541 8.89484 37.2485 3.23477 40.2882 9.62872C40.9694 11.0961 41.8604 11.8822 44.4282 12.2492C48.9356 12.8255 64.2387 11.5153 64.1865 11.5153C65.7061 11.4104 66.964 10.4149 67.4877 8.99974C68.2216 7.00829 69.4796 4.54499 71.3139 4.85969ZM65.2346 6.32704C64.815 7.27034 64.1338 8.26587 63.2428 8.47567C61.6705 8.84259 58.7884 8.99974 53.7047 9.15689L44.2188 9.31404C43.747 9.31404 43.2756 9.10464 43.0135 8.73769L41.5457 6.85114C41.1266 5.69807 41.2315 5.59317 43.2229 5.33152C45.634 4.96459 60.9897 4.54499 64.7628 4.70214C65.6016 4.70214 66.0208 4.44007 65.2346 6.32704ZM70.947 86.1967C70.6327 87.1927 69.322 87.3498 68.7457 86.5637C68.0118 85.5681 67.1212 84.3102 66.2828 82.9477C65.7587 82.1089 65.6538 81.1134 66.0208 80.2224C73.9343 59.4164 76.6593 48.2011 81.6908 11.8822C81.743 11.5675 81.9528 11.3581 82.2671 11.3059C82.5814 11.2532 82.8435 11.3581 83.0006 11.6202L84.6778 14.1884C85.3067 15.1839 85.6737 16.337 85.621 17.5423C85.3067 32.7931 74.2486 76.0297 70.947 86.1967ZM65.811 91.9617C65.1297 92.2238 61.7754 93.1148 58.6835 93.796C46.4201 96.5736 28.8109 95.7875 21.9977 93.534C21.5263 93.3768 16.3376 88.1886 18.5911 88.3457C19.6393 88.4506 24.3561 89.289 26.4525 89.5511C37.4057 90.7564 50.8222 90.2323 58.0545 87.6118C61.8803 86.1967 61.4611 83.4191 62.4566 84.3624C62.5615 84.4151 68.8506 90.7564 65.811 91.9617Z" fill="white"/>
</g>
</svg>
