<svg width="570" height="585" viewBox="0 0 570 585" fill="none" xmlns="http://www.w3.org/2000/svg">
<path d="M176 57H212" stroke="#0A1B6D" stroke-width="15" stroke-linecap="round"/>
<path d="M195 34H212" stroke="#0A1B6D" stroke-width="15" stroke-linecap="round"/>
<path d="M40 80H57" stroke="#0A1B6D" stroke-width="15" stroke-linecap="round"/>
<path d="M40 34.5H76" stroke="#0A1B6D" stroke-width="15" stroke-linecap="round"/>
<path d="M103 34H170" stroke="#0A1B6D" stroke-width="15" stroke-linecap="round"/>
<path d="M40 58H149" stroke="#0A1B6D" stroke-width="15" stroke-linecap="round"/>
<path d="M84 80L212 80" stroke="#0A1B6D" stroke-width="15" stroke-linecap="round"/>
<path d="M518 259H554" stroke="#0A1B6D" stroke-width="15" stroke-linecap="round"/>
<path d="M537 236H554" stroke="#0A1B6D" stroke-width="15" stroke-linecap="round"/>
<path d="M382 282H399" stroke="#0A1B6D" stroke-width="15" stroke-linecap="round"/>
<path d="M382 236.5H418" stroke="#0A1B6D" stroke-width="15" stroke-linecap="round"/>
<path d="M445 236H512" stroke="#0A1B6D" stroke-width="15" stroke-linecap="round"/>
<path d="M382 260H491" stroke="#0A1B6D" stroke-width="15" stroke-linecap="round"/>
<path d="M426 282L554 282" stroke="#0A1B6D" stroke-width="15" stroke-linecap="round"/>
<path d="M77.5814 214H96" stroke="#0A1B6D" stroke-width="15" stroke-linecap="round"/>
<path d="M92 191L96 191" stroke="#0A1B6D" stroke-width="15" stroke-linecap="round"/>
<path d="M8 237H16.6977" stroke="#0A1B6D" stroke-width="15" stroke-linecap="round"/>
<path d="M8 191H21" stroke="#0A1B6D" stroke-width="15" stroke-linecap="round"/>
<path d="M40.2326 191H74.5116" stroke="#0A1B6D" stroke-width="15" stroke-linecap="round"/>
<path d="M8 215H59" stroke="#0A1B6D" stroke-width="15" stroke-linecap="round"/>
<path d="M34 237L96 237" stroke="#0A1B6D" stroke-width="15" stroke-linecap="round"/>
<path d="M543.581 82H562" stroke="#0A1B6D" stroke-width="15" stroke-linecap="round"/>
<path d="M558 59L562 59" stroke="#0A1B6D" stroke-width="15" stroke-linecap="round"/>
<path d="M474 105H482.698" stroke="#0A1B6D" stroke-width="15" stroke-linecap="round"/>
<path d="M474 59H487" stroke="#0A1B6D" stroke-width="15" stroke-linecap="round"/>
<path d="M506.233 59H540.512" stroke="#0A1B6D" stroke-width="15" stroke-linecap="round"/>
<path d="M474 83H525" stroke="#0A1B6D" stroke-width="15" stroke-linecap="round"/>
<path d="M500 105L562 105" stroke="#0A1B6D" stroke-width="15" stroke-linecap="round"/>
<path d="M173.581 524H192" stroke="#0A1B6D" stroke-width="15" stroke-linecap="round"/>
<path d="M183.302 501H192" stroke="#0A1B6D" stroke-width="15" stroke-linecap="round"/>
<path d="M104 547H112.698" stroke="#0A1B6D" stroke-width="15" stroke-linecap="round"/>
<path d="M104 501.5H122.419" stroke="#0A1B6D" stroke-width="15" stroke-linecap="round"/>
<path d="M136.233 501H170.512" stroke="#0A1B6D" stroke-width="15" stroke-linecap="round"/>
<path d="M104 525H159.767" stroke="#0A1B6D" stroke-width="15" stroke-linecap="round"/>
<path d="M126.512 547L192 547" stroke="#0A1B6D" stroke-width="15" stroke-linecap="round"/>
<path d="M138.837 361H165" stroke="#0A1B6D" stroke-width="15" stroke-linecap="round"/>
<path d="M40 384H88" stroke="#0A1B6D" stroke-width="15" stroke-linecap="round"/>
<path d="M40 362H119.215" stroke="#0A1B6D" stroke-width="15" stroke-linecap="round"/>
<path d="M108 384L165 384" stroke="#0A1B6D" stroke-width="15" stroke-linecap="round"/>
<path d="M471.837 446H498" stroke="#0A1B6D" stroke-width="15" stroke-linecap="round"/>
<path d="M373 469H385.355" stroke="#0A1B6D" stroke-width="15" stroke-linecap="round"/>
<path d="M373 447H452.215" stroke="#0A1B6D" stroke-width="15" stroke-linecap="round"/>
<path d="M404.977 469L498 469" stroke="#0A1B6D" stroke-width="15" stroke-linecap="round"/>
<g clip-path="url(#clip0_6032_51)">
<path d="M433.995 178.142L431.38 190.439L410.07 213.327C407.509 216.081 407.651 220.399 410.426 222.976C413.183 225.535 417.506 225.392 420.085 222.62L468.325 170.804L463.594 166.397L458.329 161.51L453.597 157.103L434.013 178.142H433.995Z" fill="#24CB71"/>
<path d="M490.573 139.292L493.625 136.061C493.845 135.829 494.222 135.818 494.455 136.037L510.82 151.465C511.053 151.685 511.064 152.061 510.844 152.294L507.792 155.525C507.572 155.758 507.195 155.769 506.962 155.549L490.61 140.133C490.377 139.914 490.366 139.537 490.586 139.304L490.573 139.292Z" fill="#FFC9C1"/>
<path d="M487.981 144.287L491.033 141.056C491.253 140.823 491.63 140.812 491.863 141.032L505.952 154.313C506.184 154.533 506.195 154.91 505.976 155.142L502.924 158.373C502.704 158.606 502.327 158.617 502.094 158.397L488.005 145.116C487.773 144.896 487.762 144.52 487.981 144.287Z" fill="#FFC9C1"/>
<path d="M507.238 121.647L510.29 118.416C510.51 118.183 510.887 118.172 511.12 118.392L527.485 133.82C527.718 134.039 527.729 134.416 527.509 134.649L524.457 137.879C524.238 138.112 523.86 138.123 523.628 137.904L507.275 122.488C507.042 122.268 507.032 121.892 507.251 121.659L507.238 121.647Z" fill="#FFC9C1"/>
<path d="M504.647 126.659L507.699 123.428C507.918 123.196 508.295 123.185 508.528 123.404L522.617 136.686C522.85 136.905 522.86 137.282 522.641 137.515L519.589 140.746C519.369 140.978 518.992 140.989 518.759 140.77L504.658 127.476C504.425 127.257 504.414 126.88 504.634 126.647L504.647 126.659Z" fill="#FFC9C1"/>
<path d="M537.377 109.782L514.912 109.018C514.591 109.018 514.342 108.805 514.342 108.591V106.992L514.236 105.393C514.218 105.162 514.449 104.966 514.769 104.931L537.146 102.674C537.466 102.639 537.769 102.958 537.804 103.367L537.964 106.21V109.053C537.964 109.462 537.68 109.8 537.36 109.782H537.377Z" fill="#FFC9C1"/>
<path d="M535.101 116.517L516.05 113.034C515.73 112.98 515.498 112.749 515.534 112.536C515.641 112.056 515.676 111.505 515.748 110.972C515.819 110.439 515.836 109.888 515.872 109.338C515.872 109.107 516.157 108.911 516.477 108.929L535.848 109.497C536.168 109.497 536.417 109.835 536.399 110.244C536.364 111.168 536.31 112.092 536.203 113.034C536.097 113.975 536.008 114.9 535.83 115.877C535.759 116.303 535.439 116.588 535.118 116.517H535.101Z" fill="#FFC9C1"/>
<path d="M523.523 75.8838L505.92 89.8569C505.666 90.0583 505.624 90.4272 505.825 90.6808L508.592 94.1589C508.794 94.4125 509.163 94.4547 509.417 94.2533L527.02 80.2801C527.274 80.0787 527.316 79.7098 527.114 79.4562L524.348 75.9781C524.146 75.7245 523.777 75.6823 523.523 75.8838Z" fill="#FFC9C1"/>
<path d="M510.519 93.1228L525.699 81.0732C525.95 80.8742 526.325 80.9171 526.524 81.1675L529.29 84.6457C529.489 84.8961 529.446 85.2706 529.196 85.4696L514.03 97.5081C513.779 97.7071 513.404 97.6643 513.205 97.4138L510.438 93.9357C510.239 93.6853 510.282 93.3107 510.533 93.1118L510.519 93.1228Z" fill="#FFC9C1"/>
<path d="M490.809 70.8578L508.412 56.8847C508.663 56.6857 509.037 56.7286 509.237 56.979L512.003 60.4572C512.202 60.7076 512.159 61.0821 511.909 61.2811L494.305 75.2542C494.055 75.4532 493.68 75.4103 493.481 75.1599L490.714 71.6818C490.515 71.4313 490.558 71.0568 490.809 70.8578Z" fill="#FFC9C1"/>
<path d="M495.379 74.1279L510.545 62.0893C510.796 61.8903 511.171 61.9332 511.37 62.1836L514.136 65.6618C514.335 65.9122 514.292 66.2867 514.042 66.4857L498.876 78.5242C498.625 78.7232 498.25 78.6804 498.051 78.4299L495.284 74.9518C495.085 74.7014 495.128 74.3269 495.379 74.1279Z" fill="#FFC9C1"/>
<path d="M475.7 51.852L493.304 37.8789C493.554 37.6799 493.929 37.7228 494.128 37.9732L496.895 41.4513C497.094 41.7018 497.051 42.0763 496.801 42.2752L479.197 56.2484C478.947 56.4474 478.572 56.4045 478.372 56.1541L475.606 52.6759C475.407 52.4255 475.45 52.051 475.7 51.852Z" fill="#FFC9C1"/>
<path d="M480.282 55.1181L495.448 43.0796C495.699 42.8806 496.073 42.9234 496.273 43.1739L499.039 46.652C499.238 46.9024 499.195 47.2769 498.945 47.4759L483.779 59.5145C483.528 59.7135 483.153 59.6706 482.954 59.4202L480.187 55.942C479.988 55.6916 480.031 55.3171 480.282 55.1181Z" fill="#FFC9C1"/>
<path d="M460.571 32.853L478.175 18.8798C478.425 18.6809 478.8 18.7237 478.999 18.9742L481.766 22.4523C481.965 22.7027 481.922 23.0772 481.672 23.2762L464.068 37.2493C463.818 37.4483 463.443 37.4055 463.244 37.155L460.477 33.6769C460.278 33.4265 460.321 33.052 460.571 32.853Z" fill="#FFC9C1"/>
<path d="M465.185 36.1259L480.351 24.0874C480.601 23.8884 480.976 23.9312 481.175 24.1817L483.942 27.6598C484.141 27.9102 484.098 28.2848 483.847 28.4837L468.681 40.5223C468.431 40.7213 468.056 40.6784 467.857 40.428L465.09 36.9498C464.891 36.6994 464.934 36.3249 465.185 36.1259Z" fill="#FFC9C1"/>
<path d="M460.517 2.4879L452.139 23.3319C452.014 23.634 451.854 23.8472 451.783 23.8117C451.409 23.7051 451.071 23.6162 450.769 23.5984C450.698 23.5984 450.662 23.3497 450.662 23.012L451.071 0.550987C451.071 0.23113 451.552 -0.053187 452.139 0.000122428C454.807 0.160051 457.368 0.728685 459.805 1.58164C460.321 1.7771 460.641 2.18581 460.517 2.4879Z" fill="#FFC9C1"/>
<path d="M467.24 8.33436L454.682 23.0655C454.469 23.3143 454.22 23.4565 454.113 23.3854C453.668 22.9945 453.135 22.7279 452.637 22.4969C452.53 22.4614 452.53 22.177 452.637 21.875L459.645 3.82083C459.752 3.51874 460.25 3.4299 460.73 3.62536C462.936 4.6027 465.035 5.79328 466.867 7.30371C467.276 7.62357 467.436 8.08559 467.223 8.33436H467.24Z" fill="#FFC9C1"/>
<path d="M423.801 11.1112L427.692 8.96151C427.972 8.80674 428.335 8.91102 428.49 9.19093L439.37 28.8472C439.525 29.1271 439.42 29.4894 439.14 29.6441L435.248 31.7938C434.968 31.9486 434.606 31.8443 434.451 31.5644L423.562 11.8926C423.407 11.6127 423.512 11.2504 423.792 11.0956L423.801 11.1112Z" fill="#FFC9C1"/>
<path d="M429.29 9.85493L433.182 7.70525C433.462 7.55048 433.825 7.65476 433.98 7.93467L443.353 24.8695C443.508 25.1495 443.404 25.5117 443.123 25.6665L439.232 27.8161C438.952 27.9709 438.589 27.8666 438.434 27.5867L429.061 10.6518C428.906 10.3719 429.01 10.0097 429.29 9.85493Z" fill="#FFC9C1"/>
<path d="M402.537 22.8539L406.429 20.7042C406.709 20.5494 407.071 20.6537 407.226 20.9336L418.106 40.5899C418.261 40.8698 418.157 41.232 417.876 41.3868L413.985 43.5365C413.705 43.6913 413.342 43.587 413.187 43.3071L402.299 23.6352C402.144 23.3553 402.248 22.9931 402.528 22.8383L402.537 22.8539Z" fill="#FFC9C1"/>
<path d="M408.027 21.5799L411.918 19.4303C412.199 19.2755 412.561 19.3798 412.716 19.6597L422.09 36.5945C422.244 36.8745 422.14 37.2367 421.86 37.3915L417.968 39.5412C417.688 39.6959 417.325 39.5917 417.171 39.3117L407.788 22.3613C407.634 22.0814 407.738 21.7192 408.018 21.5644L408.027 21.5799Z" fill="#FFC9C1"/>
<path d="M381.282 34.5947L385.174 32.445C385.454 32.2902 385.816 32.3945 385.971 32.6744L396.851 52.3307C397.006 52.6106 396.902 52.9728 396.621 53.1276L392.73 55.2773C392.45 55.4321 392.087 55.3278 391.932 55.0479L381.052 35.3916C380.897 35.1117 381.002 34.7494 381.282 34.5947Z" fill="#FFC9C1"/>
<path d="M386.79 33.3383L390.681 31.1886C390.961 31.0339 391.324 31.1381 391.479 31.4181L400.852 48.3529C401.007 48.6328 400.903 48.9951 400.623 49.1499L396.731 51.2995C396.451 51.4543 396.088 51.35 395.933 51.0701L386.56 34.1352C386.405 33.8553 386.509 33.4931 386.79 33.3383Z" fill="#FFC9C1"/>
<path d="M363.919 44.1857L360.027 46.3354C359.743 46.4921 359.64 46.8489 359.797 47.1323L370.677 66.7886C370.834 67.072 371.191 67.1747 371.475 67.018L375.366 64.8683C375.65 64.7116 375.753 64.3548 375.596 64.0714L364.716 44.4151C364.56 44.1317 364.202 44.029 363.919 44.1857Z" fill="#FFC9C1"/>
<path d="M365.535 45.079L369.426 42.9294C369.706 42.7746 370.069 42.8789 370.224 43.1588L379.597 60.0936C379.752 60.3736 379.648 60.7358 379.368 60.8906L375.476 63.0403C375.196 63.195 374.833 63.0908 374.678 62.8108L365.305 45.876C365.15 45.5961 365.254 45.2338 365.535 45.079Z" fill="#FFC9C1"/>
<path d="M338.772 58.0761L342.664 55.9264C342.944 55.7717 343.306 55.8759 343.461 56.1558L354.341 75.8121C354.496 76.092 354.392 76.4543 354.111 76.6091L350.22 78.7587C349.94 78.9135 349.577 78.8092 349.422 78.5293L338.542 58.873C338.387 58.5931 338.492 58.2309 338.772 58.0761Z" fill="#FFC9C1"/>
<path d="M344.264 56.8286L348.156 54.6789C348.436 54.5241 348.798 54.6284 348.953 54.9083L358.327 71.8432C358.482 72.1231 358.377 72.4853 358.097 72.6401L354.205 74.7898C353.925 74.9446 353.563 74.8403 353.408 74.5604L344.034 57.6255C343.879 57.3456 343.984 56.9833 344.264 56.8286Z" fill="#FFC9C1"/>
<path d="M482.228 148.115L485.28 144.884C485.5 144.651 485.877 144.641 486.11 144.86L502.462 160.276C502.695 160.495 502.706 160.872 502.486 161.105L499.434 164.336C499.214 164.568 498.837 164.579 498.604 164.36L482.252 148.944C482.019 148.724 482.008 148.348 482.228 148.115Z" fill="#FF7237"/>
<path d="M479.649 153.122L482.701 149.891C482.921 149.658 483.298 149.647 483.531 149.867L497.619 163.148C497.852 163.368 497.863 163.744 497.643 163.977L494.591 167.208C494.372 167.441 493.994 167.452 493.762 167.232L479.66 153.939C479.427 153.719 479.417 153.342 479.636 153.11L479.649 153.122Z" fill="#FF7237"/>
<path d="M501.957 127.226L498.905 130.457C498.683 130.692 498.694 131.063 498.929 131.286L515.282 146.701C515.517 146.924 515.889 146.913 516.111 146.677L519.164 143.446C519.386 143.211 519.375 142.84 519.139 142.617L502.787 127.202C502.551 126.98 502.18 126.99 501.957 127.226Z" fill="#FF7237"/>
<path d="M496.314 135.477L499.366 132.246C499.586 132.013 499.963 132.002 500.196 132.222L514.284 145.503C514.517 145.723 514.528 146.099 514.309 146.332L511.256 149.563C511.037 149.796 510.66 149.807 510.427 149.587L496.325 136.294C496.093 136.074 496.082 135.697 496.301 135.465L496.314 135.477Z" fill="#FF7237"/>
<path d="M533.357 126.521L513.631 115.717C513.346 115.557 513.133 115.468 513.151 115.344C513.204 115.148 513.328 115.042 513.417 114.669L513.577 114.206L513.72 113.602C513.755 113.425 514.058 113.336 514.378 113.407L536.328 118.258C536.648 118.329 536.808 118.756 536.702 119.2L536.31 120.764L535.777 122.398C535.456 123.447 534.905 124.673 534.354 125.828C534.14 126.308 533.642 126.645 533.357 126.503V126.521Z" fill="#FF7237"/>
<path d="M527.096 131.941L513.008 118.649C512.777 118.436 512.759 118.063 512.973 117.832L513.577 117.192L512.848 118.045C513.346 117.441 513.88 116.854 514.431 116.303L514.627 116.108H514.609L514.556 116.143C514.52 116.161 514.502 116.179 514.485 116.215C514.449 116.232 514.396 116.392 514.413 116.339C514.413 116.303 514.431 116.268 514.449 116.232C514.467 116.197 514.734 116.303 515.018 116.463L532.166 125.49C532.45 125.633 532.45 126.183 532.13 126.699L531.241 128.12C530.938 128.582 530.458 129.151 530.031 129.631L529.373 130.377L529.035 130.732L528.857 130.91C528.857 130.91 528.893 130.892 528.893 130.875C529.035 130.75 529.142 130.59 529.231 130.413L528.501 131.266L527.897 131.905C527.683 132.136 527.31 132.154 527.078 131.923L527.096 131.941Z" fill="#FF7237"/>
<path d="M535.456 94.0732L513.987 100.737C513.684 100.826 513.382 100.79 513.328 100.63C513.222 100.222 513.097 100.026 513.008 99.7951C512.99 99.7596 512.955 99.6352 512.955 99.6529H512.937C512.937 99.6529 512.937 99.6529 512.955 99.6529C513.097 99.5463 513.239 99.4397 513.417 99.2975L531.17 85.4904C531.419 85.2949 531.952 85.5259 532.344 86.0413C532.753 86.6632 533.126 87.3029 533.5 87.9426L534.033 88.92C534.211 89.2576 534.3 89.4886 534.442 89.7907C534.941 90.9102 535.439 92.0652 535.741 93.0781C535.901 93.5401 535.759 93.9844 535.456 94.0732Z" fill="#FF7237"/>
<path d="M535.439 101.448L516.228 103.935C515.908 103.971 515.623 103.811 515.605 103.58L515.338 102.034L514.983 100.648C514.929 100.47 515.125 100.257 515.427 100.15L533.891 94.2685C534.193 94.1619 534.567 94.4462 534.709 94.8905C534.994 95.8856 535.207 96.8274 535.439 97.8047L535.937 100.648C535.99 101.057 535.759 101.412 535.439 101.448Z" fill="#FF7237"/>
<path d="M498.35 80.3412L515.953 66.3681C516.204 66.1691 516.579 66.212 516.778 66.4624L519.544 69.9406C519.743 70.191 519.701 70.5655 519.45 70.7645L501.847 84.7376C501.596 84.9366 501.221 84.8937 501.022 84.6433L498.255 81.1652C498.056 80.9147 498.099 80.5402 498.35 80.3412Z" fill="#FF7237"/>
<path d="M502.949 83.6249L518.115 71.5864C518.366 71.3874 518.741 71.4303 518.94 71.6807L521.706 75.1588C521.905 75.4093 521.862 75.7838 521.612 75.9828L506.446 88.0213C506.195 88.2203 505.82 88.1774 505.621 87.927L502.854 84.4489C502.655 84.1984 502.698 83.8239 502.949 83.6249Z" fill="#FF7237"/>
<path d="M500.856 47.3759L483.253 61.3491C482.999 61.5505 482.957 61.9194 483.158 62.173L485.925 65.6511C486.126 65.9047 486.496 65.9469 486.749 65.7454L504.353 51.7723C504.607 51.5708 504.649 51.202 504.447 50.9484L501.681 47.4703C501.479 47.2167 501.11 47.1745 500.856 47.3759Z" fill="#FF7237"/>
<path d="M487.852 64.6331L503.032 52.5835C503.282 52.3845 503.657 52.4273 503.857 52.6778L506.623 56.1559C506.822 56.4063 506.779 56.7809 506.529 56.9798L491.362 69.0184C491.112 69.2174 490.737 69.1745 490.538 68.9241L487.771 65.4459C487.572 65.1955 487.615 64.821 487.866 64.622L487.852 64.6331Z" fill="#FF7237"/>
<path d="M468.141 42.3503L485.759 28.3662C486.009 28.1672 486.384 28.2101 486.583 28.4605L489.35 31.9386C489.549 32.1891 489.506 32.5636 489.255 32.7626L471.652 46.7357C471.402 46.9347 471.027 46.8918 470.827 46.6414L468.061 43.1632C467.862 42.9128 467.905 42.5383 468.155 42.3393L468.141 42.3503Z" fill="#FF7237"/>
<path d="M472.741 45.6342L487.907 33.5957C488.157 33.3967 488.532 33.4396 488.731 33.69L491.498 37.1681C491.697 37.4186 491.654 37.7931 491.404 37.992L476.237 50.0306C475.987 50.2296 475.612 50.1867 475.413 49.9363L472.646 46.4581C472.447 46.2077 472.49 45.8332 472.741 45.6342Z" fill="#FF7237"/>
<path d="M474.142 13.7893L456.532 27.7564C456.283 27.9518 455.91 27.9163 455.714 27.6675L454.931 26.6724L454.362 25.8905C454.237 25.7484 454.131 25.6062 454.042 25.4463C453.917 25.3219 453.793 25.1975 453.686 25.0554C453.615 24.9843 453.722 24.7533 453.953 24.5045L469.588 8.35173C469.802 8.12072 470.318 8.22734 470.691 8.61827C471.296 9.27576 471.883 9.93324 472.452 10.6085C472.986 11.3015 473.502 12.0123 474.017 12.7409L473.448 11.959L474.231 12.9541C474.427 13.2029 474.391 13.5761 474.142 13.7715V13.7893Z" fill="#FF7237"/>
<path d="M457.615 26.6282L472.795 14.5786C473.045 14.3796 473.42 14.4225 473.619 14.6729L476.386 18.151C476.585 18.4015 476.542 18.776 476.291 18.975L461.125 31.0135C460.875 31.2125 460.5 31.1696 460.301 30.9192L457.534 27.441C457.335 27.1906 457.378 26.8161 457.628 26.6171L457.615 26.6282Z" fill="#FF7237"/>
<path d="M439.634 3.0565L449.453 23.2785C449.595 23.5806 449.666 23.7939 449.648 23.8294C449.613 23.865 449.559 23.9005 449.506 23.9005L448.652 24.4158L445.895 25.944C445.61 26.1039 445.255 25.9973 445.095 25.713L434.208 6.0596C434.048 5.77528 434.155 5.41989 434.44 5.25996L437.197 3.73175L436.343 4.24708C437.019 3.8206 437.73 3.4119 438.424 3.00319C438.94 2.7011 439.527 2.75441 439.652 3.03873L439.634 3.0565Z" fill="#FF7237"/>
<path d="M449.204 2.13237L450.324 21.4482C450.324 21.768 450.289 22.0523 450.2 22.0523C449.791 22.0701 449.435 22.1767 449.115 22.3366C449.043 22.3722 448.866 22.1412 448.723 21.8569L440.025 4.56683C439.883 4.28251 440.167 3.85604 440.701 3.60726C443.067 2.5233 445.646 1.84805 448.19 1.61704C448.741 1.56373 449.204 1.79474 449.221 2.1146L449.204 2.13237Z" fill="#FF7237"/>
<path d="M413.168 16.9872L417.059 14.8376C417.339 14.6828 417.702 14.7871 417.857 15.067L428.745 34.7388C428.9 35.0187 428.796 35.381 428.516 35.5357L424.624 37.6854C424.344 37.8402 423.981 37.7359 423.826 37.456L412.947 17.7997C412.792 17.5198 412.896 17.1576 413.176 17.0028L413.168 16.9872Z" fill="#FF7237"/>
<path d="M418.66 15.7216L422.551 13.5719C422.831 13.4172 423.194 13.5214 423.349 13.8014L432.722 30.7362C432.877 31.0161 432.773 31.3784 432.493 31.5332L428.601 33.6828C428.321 33.8376 427.958 33.7333 427.803 33.4534L418.43 16.5185C418.275 16.2386 418.379 15.8764 418.66 15.7216Z" fill="#FF7237"/>
<path d="M391.897 28.7363L395.789 26.5866C396.069 26.4318 396.432 26.5361 396.586 26.816L407.475 46.4878C407.63 46.7677 407.525 47.13 407.245 47.2848L403.354 49.4344C403.073 49.5892 402.711 49.4849 402.556 49.205L391.676 29.5487C391.521 29.2688 391.626 28.9066 391.906 28.7518L391.897 28.7363Z" fill="#FF7237"/>
<path d="M397.405 27.4623L401.296 25.3127C401.576 25.1579 401.939 25.2622 402.094 25.5421L411.467 42.4769C411.622 42.7569 411.518 43.1191 411.238 43.2739L407.346 45.4236C407.066 45.5783 406.703 45.4741 406.548 45.1941L397.175 28.2593C397.02 27.9794 397.124 27.6171 397.405 27.4623Z" fill="#FF7237"/>
<path d="M370.642 40.477L374.534 38.3273C374.814 38.1725 375.177 38.2768 375.331 38.5567L386.22 58.2286C386.375 58.5085 386.27 58.8707 385.99 59.0255L382.099 61.1752C381.818 61.3299 381.456 61.2257 381.301 60.9457L370.421 41.2895C370.266 41.0096 370.37 40.6473 370.651 40.4925L370.642 40.477Z" fill="#FF7237"/>
<path d="M376.141 39.205L380.033 37.0553C380.313 36.9006 380.675 37.0048 380.83 37.2848L390.204 54.2196C390.359 54.4995 390.254 54.8618 389.974 55.0166L386.083 57.1662C385.802 57.321 385.44 57.2167 385.285 56.9368L375.911 40.0019C375.756 39.722 375.861 39.3598 376.141 39.205Z" fill="#FF7237"/>
<path d="M353.288 50.0524L349.396 52.2021C349.113 52.3588 349.01 52.7156 349.167 52.999L360.046 72.6553C360.203 72.9387 360.56 73.0414 360.844 72.8847L364.736 70.735C365.019 70.5783 365.122 70.2215 364.965 69.9381L354.086 50.2818C353.929 49.9984 353.572 49.8957 353.288 50.0524Z" fill="#FF7237"/>
<path d="M354.886 50.9457L358.778 48.7961C359.058 48.6413 359.42 48.7456 359.575 49.0255L368.957 65.9759C369.112 66.2558 369.008 66.6181 368.728 66.7728L364.836 68.9225C364.556 69.0773 364.193 68.973 364.038 68.6931L354.665 51.7582C354.51 51.4783 354.614 51.1161 354.895 50.9613L354.886 50.9457Z" fill="#FF7237"/>
<path d="M328.141 63.9608L332.033 61.8111C332.313 61.6564 332.676 61.7606 332.831 62.0405L343.71 81.6968C343.865 81.9767 343.761 82.339 343.481 82.4937L339.589 84.6434C339.309 84.7982 338.946 84.6939 338.791 84.414L327.903 64.7422C327.748 64.4623 327.852 64.1 328.133 63.9453L328.141 63.9608Z" fill="#FF7237"/>
<path d="M333.631 62.6865L337.523 60.5368C337.803 60.382 338.165 60.4863 338.32 60.7662L347.694 77.7011C347.849 77.981 347.744 78.3432 347.464 78.498L343.573 80.6477C343.292 80.8025 342.93 80.6982 342.775 80.4183L333.401 63.4834C333.246 63.2035 333.351 62.8412 333.631 62.6865Z" fill="#FF7237"/>
<path d="M385.239 63.687H177.122C165.333 63.687 155.777 73.234 155.777 85.0108V563.356C155.777 575.133 165.333 584.68 177.122 584.68H385.239C397.027 584.68 406.584 575.133 406.584 563.356V85.0108C406.584 73.234 397.027 63.687 385.239 63.687Z" fill="#4D49FC"/>
<path d="M384.616 102.603H177.745V545.747H384.616V102.603Z" fill="#10218B"/>
<path d="M287.531 574.356C293.228 574.356 297.848 569.742 297.848 564.049C297.848 558.357 293.228 553.743 287.531 553.743C281.833 553.743 277.214 558.357 277.214 564.049C277.214 569.742 281.833 574.356 287.531 574.356Z" fill="white"/>
<path d="M256.438 84.8511H311.74" stroke="white" stroke-miterlimit="10"/>
<path d="M320.936 82.0786H320.794C319.3 82.0786 318.09 83.2879 318.09 84.7796V84.9218C318.09 86.4135 319.3 87.6228 320.794 87.6228H320.936C322.429 87.6228 323.64 86.4135 323.64 84.9218V84.7796C323.64 83.2879 322.429 82.0786 320.936 82.0786Z" fill="white"/>
<path d="M261.881 139.013H218.069C212.784 139.013 208.5 143.293 208.5 148.573V210.928C208.5 216.208 212.784 220.488 218.069 220.488H261.881C267.166 220.488 271.45 216.208 271.45 210.928V148.573C271.45 143.293 267.166 139.013 261.881 139.013Z" fill="#0A1B6D"/>
<path d="M350.126 139.013H306.315C301.029 139.013 296.745 143.293 296.745 148.573V210.928C296.745 216.208 301.029 220.488 306.315 220.488H350.126C355.411 220.488 359.696 216.208 359.696 210.928V148.573C359.696 143.293 355.411 139.013 350.126 139.013Z" fill="#0A1B6D"/>
<path d="M261.881 237.085H218.069C212.784 237.085 208.5 241.365 208.5 246.645V308.999C208.5 314.279 212.784 318.56 218.069 318.56H261.881C267.166 318.56 271.45 314.279 271.45 308.999V246.645C271.45 241.365 267.166 237.085 261.881 237.085Z" fill="#0A1B6D"/>
<path d="M350.126 237.085H306.315C301.029 237.085 296.745 241.365 296.745 246.645V308.999C296.745 314.279 301.029 318.56 306.315 318.56H350.126C355.411 318.56 359.696 314.279 359.696 308.999V246.645C359.696 241.365 355.411 237.085 350.126 237.085Z" fill="#0A1B6D"/>
<path d="M261.881 338.124H218.069C212.784 338.124 208.5 342.404 208.5 347.684V410.038C208.5 415.318 212.784 419.599 218.069 419.599H261.881C267.166 419.599 271.45 415.318 271.45 410.038V347.684C271.45 342.404 267.166 338.124 261.881 338.124Z" fill="#0A1B6D"/>
<path d="M350.126 338.124H306.315C301.029 338.124 296.745 342.404 296.745 347.684V410.038C296.745 415.318 301.029 419.599 306.315 419.599H350.126C355.411 419.599 359.696 415.318 359.696 410.038V347.684C359.696 342.404 355.411 338.124 350.126 338.124Z" fill="#0A1B6D"/>
<path d="M261.881 435.503H218.069C212.784 435.503 208.5 439.783 208.5 445.063V507.417C208.5 512.697 212.784 516.977 218.069 516.977H261.881C267.166 516.977 271.45 512.697 271.45 507.417V445.063C271.45 439.783 267.166 435.503 261.881 435.503Z" fill="#0A1B6D"/>
<path d="M350.126 435.503H306.315C301.029 435.503 296.745 439.783 296.745 445.063V507.417C296.745 512.697 301.029 516.977 306.315 516.977H350.126C355.411 516.977 359.696 512.697 359.696 507.417V445.063C359.696 439.783 355.411 435.503 350.126 435.503Z" fill="#0A1B6D"/>
<path d="M459.485 368.315H284.009C280.06 368.315 276.733 365.383 276.253 361.473L263.891 262.815C263.304 258.16 266.95 254.037 271.646 254.037H471.847C476.543 254.037 480.19 258.16 479.603 262.815L467.24 361.473C466.742 365.383 463.434 368.315 459.485 368.315Z" fill="#FFC9C1"/>
<path d="M412.421 152.786L305.387 215.044C298.875 218.831 296.67 227.175 300.461 233.68L334.114 291.42C337.906 297.925 346.258 300.128 352.769 296.341L459.804 234.083C466.316 230.295 468.521 221.952 464.73 215.447L431.077 157.706C427.285 151.201 418.933 148.998 412.421 152.786Z" fill="white"/>
<path d="M311.259 223.046L348.685 287.267" stroke="#4D49FC" stroke-miterlimit="10"/>
<path d="M328.798 212.829L366.241 277.049" stroke="#4D49FC" stroke-miterlimit="10"/>
<path d="M346.337 202.629L383.78 266.849" stroke="#4D49FC" stroke-miterlimit="10"/>
<path d="M363.876 192.429L401.319 256.649" stroke="#4D49FC" stroke-miterlimit="10"/>
<path d="M381.414 182.229L418.858 246.449" stroke="#4D49FC" stroke-miterlimit="10"/>
<path d="M398.953 172.029L436.396 236.249" stroke="#4D49FC" stroke-miterlimit="10"/>
<path d="M416.492 161.812L453.935 226.032" stroke="#4D49FC" stroke-miterlimit="10"/>
<path d="M300.018 278.258V277.12C300.018 272.802 296.513 269.319 292.209 269.319H258.714C254.143 269.319 250.55 273.229 250.923 277.778L260.475 393.175C260.813 397.226 264.193 400.336 268.266 400.336H475.334C479.372 400.336 482.733 397.28 483.107 393.264L492.463 294.606C492.89 290.021 489.297 286.058 484.69 286.058H307.826C303.504 286.058 300.018 282.558 300.018 278.258Z" fill="#FF7237"/>
<path d="M296.104 285.294C296.104 285.294 289.736 281.065 273.549 280.674C257.363 280.283 252.115 292.171 252.115 292.171C252.115 292.171 265.314 318.008 293.223 314.277C316.365 311.185 320.047 286.076 320.047 286.076L296.122 285.294H296.104Z" fill="#B73400"/>
<path d="M128.028 575.884H134.147C134.841 575.884 135.499 576.044 136.121 576.346C137.42 577.004 140.106 578.212 143.645 578.923C148.128 579.811 156.559 576.311 162.056 582.175C163.052 583.241 162.34 584.982 160.882 584.982H126L128.028 575.884Z" fill="#00B6FF"/>
<path d="M154.051 424.645C152.806 429.727 152.522 438.63 152.557 447.675C152.61 459.705 153.215 471.984 152.895 475.787C152.308 482.433 136.121 497.75 134.68 511.024C133.24 524.316 128.028 574.285 128.028 576.613C128.028 578.941 133.809 577.483 134.68 576.613C135.339 575.955 174.578 488.386 192.757 447.799C198.254 435.538 201.811 427.542 201.811 427.542L154.051 424.645Z" fill="#FFC9C1"/>
<path d="M194.038 425.498C194.305 430.722 196.6 439.341 199.232 447.977C202.736 459.492 206.863 471.078 207.628 474.809C208.98 481.349 197.88 500.647 200.317 513.796C202.754 526.946 212.146 576.31 212.804 578.514C213.462 580.717 218.585 577.679 219.172 576.612C219.617 575.777 232.015 480.655 237.743 436.551C239.468 423.223 240.589 414.552 240.589 414.552L194.02 425.498H194.038Z" fill="#FFC9C1"/>
<path d="M346.212 233.975C346.212 233.975 348.809 228.626 350.695 225.606C352.58 222.585 358.077 221.856 361.403 224.308C364.729 226.761 364 231.949 360.389 234.704C356.778 237.458 350.41 239.626 350.41 239.626L346.212 233.993V233.975Z" fill="#F6DECD"/>
<path d="M196.03 189.852L192.384 180.541L186.727 235.574H203.928V226.92V210.003L196.03 189.852Z" fill="#FFC9C1"/>
<path d="M353.185 237.689L348.276 232.927C346.871 231.559 344.647 231.487 343.153 232.767L296.193 272.944C294.539 274.366 292.191 274.65 290.234 273.655C278.441 267.631 237.849 246.929 230.699 243.233C222.321 238.897 203.946 235.575 203.946 235.575H184.824C175.094 235.575 167.445 239.004 163.372 247.836C160.295 254.517 158.32 262.194 158.445 273.246C158.729 300.114 164.173 326.129 164.173 326.129L144.659 428.075C144.072 431.114 146.189 434.01 149.249 434.383C157.2 435.343 173.44 436.871 197.418 437.066C223.406 437.28 245.302 432.482 255.05 429.923C258.021 429.141 259.711 426.049 258.768 423.135L225.469 319.199L231.268 283.269L280.576 304.326C287.335 306.831 294.806 306.689 301.476 303.899C306.048 301.998 310.05 298.924 313.092 295.015L353.523 242.718C354.697 241.19 354.555 239.022 353.167 237.671L353.185 237.689Z" fill="#FF7237"/>
<path d="M221.147 183.349C221.147 175.409 214.708 168.973 206.765 168.973C198.823 168.973 192.384 175.409 192.384 183.349V201.101C192.384 209.04 198.823 215.477 206.765 215.477C214.708 215.477 221.147 209.04 221.147 201.101V183.349Z" fill="#FFC9C1"/>
<path d="M214.032 572.952L216.682 573.094C218.123 573.165 219.51 573.609 220.702 574.409C222.41 575.546 225.238 577.199 228.226 577.874C232.993 578.94 238.49 577.785 241.531 578.798C243.026 579.296 244.858 580.806 246.352 582.21C247.419 583.223 246.726 585.018 245.249 585.018H212.929C211.275 585.018 210.029 583.507 210.332 581.89L211.666 574.871C211.879 573.734 212.893 572.934 214.049 573.005L214.032 572.952Z" fill="#00B6FF"/>
<path d="M223.37 186.37C223.37 186.37 214.796 198.116 202.541 195.806L200.477 243.304H166.094C166.094 243.304 160.579 171.088 190.463 165.49C208.98 162.025 223.388 170.572 223.388 186.37H223.37Z" fill="black"/>
<path d="M167.125 326.414C167.125 326.414 197.204 332.189 223.37 321.793" stroke="white" stroke-linecap="round" stroke-linejoin="round"/>
<path d="M474.017 215.335L461.94 218.818L440.63 241.705C438.068 244.459 433.746 244.619 430.971 242.061C428.214 239.502 428.054 235.184 430.615 232.411L478.856 180.595L483.587 185.002L488.852 189.888L493.584 194.295L474 215.335H474.017Z" fill="#24CB71"/>
<path d="M457.118 151.745L463.95 144.406C466.118 142.077 469.788 141.943 472.12 144.109L506.782 176.31C509.114 178.476 509.247 182.142 507.079 184.472L500.247 191.811L457.118 151.745Z" fill="#24CB71"/>
<path d="M451.047 147.283L445.535 153.203C444.083 154.762 444.171 157.202 445.732 158.653L494.233 203.725C495.794 205.175 498.236 205.087 499.688 203.528L505.201 197.608C506.653 196.048 506.564 193.609 505.004 192.158L456.502 147.086C454.942 145.636 452.499 145.724 451.047 147.283Z" fill="#24CB71"/>
<path d="M463.523 165.988L476.099 177.663" stroke="#4D49FC" stroke-width="0.77" stroke-linecap="round" stroke-linejoin="round"/>
<path d="M488.497 189.177L501.073 200.87" stroke="#4D49FC" stroke-width="0.77" stroke-linecap="round" stroke-linejoin="round"/>
<path d="M497.889 193.069L503.474 198.275" stroke="#4D49FC" stroke-width="0.77" stroke-linecap="round" stroke-linejoin="round"/>
</g>
<defs>
<clipPath id="clip0_6032_51">
<rect width="412" height="585" fill="white" transform="translate(126)"/>
</clipPath>
</defs>
</svg>
