<svg width="91" height="58" viewBox="0 0 91 58" fill="none" xmlns="http://www.w3.org/2000/svg">
<path d="M88.7488 25.3527C85.3767 17.2878 84.0427 19.7551 85.8955 24.1743C86.9331 26.6785 87.0813 27.3045 86.5996 27.1204C78.6326 23.9533 62.5134 28.9985 52.7308 37.8L48.0617 41.9982C47.8394 38.2787 47.7282 36.1428 47.543 34.9644C47.3948 33.9332 45.7276 33.6386 45.5423 34.7802C45.32 36.1428 45.3571 38.5733 45.3571 42.4401L44.208 41.1512C38.5014 34.7066 21.8267 32.9021 6.07775 37.0634C3.4468 37.7631 3.4468 38.4629 6.00362 29.2931C9.44981 16.809 10.4503 10.7327 11.1173 8.30219C11.4138 7.1974 23.5309 6.97645 28.0888 7.97075C32.3502 8.89141 41.7994 13.1264 43.1704 14.6731C43.6151 15.1887 43.9856 17.3246 44.5785 22.7381C45.4678 30.8398 45.5794 30.2874 46.2835 30.5821C47.5433 31.0608 46.913 23.9533 46.4313 15.0046L51.286 11.5429C62.7732 3.36749 72.7778 4.14084 74.5565 3.80939L76.9284 7.38153C82.1903 15.2623 82.9681 18.2084 83.6722 16.4408C83.9316 15.7779 77.2986 2.41001 76.261 1.48935C74.2971 -0.241497 57.9185 -0.830715 46.7277 10.1067C43.8004 12.9791 44.1342 12.8686 42.5779 11.6902C32.5358 4.06717 10.0427 1.26837 8.7828 7.49202C8.00464 11.2851 2.66864 26.4943 0.74175 36.5111C0.260016 39.0889 0.222965 39.7518 0.630572 40.5619C1.11231 41.5194 1.37169 41.5931 2.92802 41.2985C3.59503 41.188 3.70618 41.4458 3.96559 44.0972C4.26202 46.896 5.00313 48.59 5.74424 48.1481C6.26303 47.8535 6.1148 48.5164 5.52191 49.2897C4.11379 51.1311 5.67014 54.8505 7.78231 54.7032C8.7087 54.6296 8.96808 54.8137 9.30159 55.7343C9.85742 57.2442 10.5615 57.3915 12.1178 56.3236C13.7482 55.2188 16.6757 53.4143 21.567 52.2727C26.4583 51.1311 41.8364 52.2727 43.3557 52.9724C44.2821 53.4143 44.7638 53.4879 44.9491 53.1933C45.0973 52.9724 46.3572 52.6777 47.8024 52.5673C52.6566 52.1622 60.4016 51.2784 63.8849 50.6891C69.0726 49.8053 78.8183 50.0999 82.0421 51.2415C85.6365 52.4936 86.7482 51.2047 84.3396 48.59C83.4873 47.6694 83.4498 47.5589 84.1169 47.743C89.3417 49.1056 90.3055 47.3011 87.2299 41.8508C85.8588 39.4203 85.8585 39.5308 87.8224 39.5308C90.1569 39.5308 90.0461 38.647 87.304 34.5224C84.8213 30.803 84.8213 30.7662 87.7857 31.7605C91.3431 32.9389 91.4909 31.9078 88.7488 25.3527ZM19.8254 46.8961C15.3417 47.3011 11.1914 49.4739 10.7838 49.6212C10.1539 49.8053 9.74625 49.4002 10.0056 48.4427C10.1539 47.8535 10.3391 47.1538 10.3762 46.8592C10.6726 44.9443 23.1974 43.0661 29.1263 44.0604C34.9441 45.0179 35.7963 45.423 40.7989 47.1907C32.276 46.6014 24.6056 46.4541 19.8254 46.8961ZM44.4674 44.8706C25.7913 39.6045 18.4547 39.4203 8.48637 43.8763C7.15235 44.5023 6.00362 44.9443 5.96657 44.8706C5.89247 44.7601 5.67014 42.6979 5.41074 40.5988C14.4153 38.426 21.604 36.4374 30.4233 37.579C33.0542 37.9105 36.6116 39.2362 39.3166 40.8566C43.9486 43.6553 46.0978 45.3493 44.4674 44.8706ZM55.3246 40.12C65.5891 31.3186 72.8149 28.6302 81.0783 30.5821C81.9306 30.7662 85.3026 34.9644 84.9321 35.3326C84.858 35.4063 84.0798 35.2958 83.1905 35.0748C76.261 33.565 72.3335 34.1542 63.0326 38.1682C60.5869 39.2362 58.0297 40.3042 57.3627 40.5619C54.6206 41.6299 47.9506 46.4542 55.3246 40.12ZM82.7087 42.5874C78.225 41.7404 73.0743 41.8877 68.4423 42.9557C64.9591 43.7658 54.3612 45.9386 54.0277 45.644C53.8424 45.4966 59.1047 42.8452 61.7356 41.4458C67.0717 38.6101 73.4819 37.6527 81.0783 38.5365C82.7087 38.7206 82.9311 38.9048 84.3021 40.8197C86.1178 43.3607 86.192 43.2502 82.7087 42.5874Z" fill="#10218B"/>
</svg>
