<svg width="100" height="44" viewBox="0 0 100 44" fill="none" xmlns="http://www.w3.org/2000/svg">
<path d="M19.2006 33.2059C20.623 33.0562 20.6978 33.0936 20.9224 34.3663C23.3554 47.4293 43.3055 45.1461 45.439 31.559C45.8882 28.7518 46.6742 27.6289 48.2837 27.6289C48.92 27.6289 49.182 27.8535 49.182 28.34C49.182 37.4355 63.9294 43.6489 69.8433 37.0238C71.9394 34.7031 74.3353 30.3613 74.5598 28.5272L74.747 26.8429L76.9176 26.6183C80.698 26.1691 80.6609 25.982 75.4956 18.0468C66.5124 4.27263 59.5501 -1.37927 55.6948 1.91455C54.5345 2.92515 54.6468 2.88773 54.3848 11.1972C54.3848 11.7586 54.7594 12.2452 55.2834 12.3949C57.5667 12.9564 60.1864 11.0475 58.24 10.1866C57.4166 9.81225 57.3791 9.69998 57.6037 7.19218C57.9406 3.52403 58.2026 3.41175 60.673 6.06928C66.3623 12.2078 70.0683 15.6139 71.6403 18.6083C72.052 19.3569 72.0146 19.4692 71.6403 19.0574C71.1912 18.6457 68.683 18.3837 68.683 18.758C68.683 18.8329 69.207 19.7686 69.8433 20.7792C75.9444 30.6233 64.9026 43.312 57.0797 35.4517C51.2032 29.5752 56.3689 18.1217 64.9029 18.1217C67.261 18.1217 67.6727 17.71 66.1381 16.924C61.8711 14.7156 54.4222 18.1966 51.1284 23.9608L50.0433 25.8697L47.4232 25.9445C45.926 25.982 44.8031 25.8697 44.8031 25.6451C44.8031 24.8965 42.9316 23.4368 41.9958 23.4368C40.7981 23.4368 40.7977 23.811 41.958 25.4954C46.9736 32.8691 37.2419 43.7986 29.3816 39.6064C19.5001 34.3288 26.9116 18.3463 37.6914 21.7524C40.7981 22.7256 41.2843 22.7256 40.91 21.7524C38.3273 15.0524 25.0401 19.7686 21.9708 28.4523C21.1474 30.8104 21.0721 30.8853 19.7995 30.8853C18.7141 30.8853 18.5269 30.773 18.7515 30.2115C18.9012 29.8372 19.7995 26.2814 20.8101 22.239C23.9542 9.51283 27.8095 1.39053 28.8201 5.50783C29.4564 8.1279 29.5313 13.2932 28.9324 13.2932C27.3604 13.2932 27.3604 15.7636 28.9699 16.1379C32.4134 16.9988 33.6112 7.26703 30.4296 4.38493C26.8738 1.16595 22.6071 4.31005 20.2865 11.9832C19.725 13.8547 18.6766 17.1111 17.9655 19.2446C14.2973 30.2115 14.6342 33.6177 19.2006 33.2059Z" fill="#10218B"/>
</svg>
