<svg width="109" height="38" viewBox="0 0 109 38" fill="none" xmlns="http://www.w3.org/2000/svg">
<path d="M63.965 37.9401C62.2316 37.5068 61.105 36.1201 60.585 33.7801C63.0983 32.3934 65.655 30.3134 68.255 27.5401C70.855 24.7668 72.675 21.7334 73.715 18.4401H73.325C70.0316 18.4401 67.4316 17.6168 65.525 15.9701C63.705 14.2368 62.795 12.0268 62.795 9.34011C62.795 6.82678 63.705 4.70345 65.525 2.97011C67.4316 1.23678 69.685 0.370117 72.285 0.370117C75.405 0.370117 77.875 1.49678 79.695 3.75011C81.515 5.91678 82.425 8.56011 82.425 11.6801C82.425 16.9668 80.735 21.6901 77.355 25.8501C73.975 30.0101 69.5116 34.0401 63.965 37.9401ZM89.965 37.9401C88.2316 37.5068 87.105 36.1201 86.585 33.7801C89.0983 32.3934 91.655 30.3134 94.255 27.5401C96.855 24.7668 98.675 21.7334 99.715 18.4401H99.325C96.0316 18.4401 93.4316 17.6168 91.525 15.9701C89.705 14.2368 88.795 12.0268 88.795 9.34011C88.795 6.82678 89.705 4.70345 91.525 2.97011C93.4316 1.23678 95.685 0.370117 98.285 0.370117C101.405 0.370117 103.875 1.49678 105.695 3.75011C107.515 5.91678 108.425 8.56011 108.425 11.6801C108.425 16.9668 106.735 21.6901 103.355 25.8501C99.975 30.0101 95.5116 34.0401 89.965 37.9401Z" fill="#EBFAFF"/>
<path d="M19.3555 0.370117C21.0888 0.80345 22.2155 2.19011 22.7355 4.53011C20.2222 5.91678 17.6655 7.99678 15.0655 10.7701C12.4655 13.5434 10.6455 16.5768 9.60551 19.8701H9.99551C13.2888 19.8701 15.8455 20.7368 17.6655 22.4701C19.5722 24.1168 20.5255 26.2834 20.5255 28.9701C20.5255 31.4834 19.5722 33.6068 17.6655 35.3401C15.8455 37.0734 13.6355 37.9401 11.0355 37.9401C7.91551 37.9401 5.44551 36.8568 3.62551 34.6901C1.80551 32.4368 0.895508 29.7501 0.895508 26.6301C0.895508 21.3434 2.58551 16.6201 5.96551 12.4601C9.34551 8.30011 13.8088 4.27011 19.3555 0.370117ZM45.3555 0.370117C47.0888 0.80345 48.2155 2.19011 48.7355 4.53011C46.2222 5.91678 43.6655 7.99678 41.0655 10.7701C38.4655 13.5434 36.6455 16.5768 35.6055 19.8701H35.9955C39.2888 19.8701 41.8455 20.7368 43.6655 22.4701C45.5722 24.1168 46.5255 26.2834 46.5255 28.9701C46.5255 31.4834 45.5722 33.6068 43.6655 35.3401C41.8455 37.0734 39.6355 37.9401 37.0355 37.9401C33.9155 37.9401 31.4455 36.8568 29.6255 34.6901C27.8055 32.4368 26.8955 29.7501 26.8955 26.6301C26.8955 21.3434 28.5855 16.6201 31.9655 12.4601C35.3455 8.30011 39.8088 4.27011 45.3555 0.370117Z" fill="#EBFAFF"/>
</svg>
