<svg width="242" height="39" viewBox="0 0 242 39" fill="none" xmlns="http://www.w3.org/2000/svg">
<rect width="242" height="39" rx="19.5" fill="#FC0000"/>
<path d="M33.8761 29.7301H37.827M31.9007 22.816H39.8025M28.9375 16.8897C28.9375 15.0559 29.6659 13.2973 30.9626 12.0007C32.2592 10.704 34.0179 9.97559 35.8516 9.97559C37.6853 9.97559 39.4439 10.704 40.7406 12.0007C42.0372 13.2973 42.7657 15.0559 42.7657 16.8897C42.7665 18.0029 42.4973 19.0998 41.9812 20.0862C41.4651 21.0726 40.7175 21.9192 39.8025 22.5533L39.2671 25.0878C39.1963 25.555 38.9603 25.9812 38.602 26.2893C38.2437 26.5974 37.7869 26.7668 37.3144 26.7669H34.3888C33.9163 26.7668 33.4594 26.5974 33.1012 26.2893C32.7429 25.9812 32.5069 25.555 32.436 25.0878L31.9007 22.5642C30.9853 21.9278 30.2377 21.0793 29.7217 20.0911C29.2057 19.1029 28.9366 18.0045 28.9375 16.8897Z" stroke="white" stroke-width="2" stroke-linecap="round" stroke-linejoin="round"/>
<path d="M84.1407 11.5589C84.6553 10.908 84.1704 9.97561 83.315 9.97561H76.6814C76.5018 9.9743 76.3249 10.0192 76.1676 10.1061C76.0104 10.1929 75.8781 10.3187 75.7836 10.4715L70.764 18.8237C70.3679 19.4815 70.8657 20.3023 71.6608 20.3023H75.0477L71.8574 28.2683C71.3961 29.2758 72.6426 30.1973 73.4802 29.4684L86.4283 17.2166H79.6634L84.1407 11.5589Z" stroke="white" stroke-width="2" stroke-linecap="round" stroke-linejoin="round"/>
<path d="M163.861 12.9388V16.8897M163.861 12.9388V11.951C163.861 11.4271 163.653 10.9247 163.282 10.5542C162.912 10.1837 162.41 9.97559 161.886 9.97559H159.91V10.9633C159.91 11.4872 160.118 11.9897 160.489 12.3602C160.859 12.7306 161.362 12.9388 161.886 12.9388H163.861ZM163.861 12.9388C163.861 12.4148 164.069 11.9124 164.44 11.5419C164.81 11.1714 165.313 10.9633 165.837 10.9633H167.812V11.951C167.812 12.475 167.604 12.9774 167.233 13.3479C166.863 13.7184 166.36 13.9265 165.837 13.9265H163.861V12.9388ZM159.91 16.8897H167.812M166.824 16.8897V26.7669C166.824 27.5528 166.512 28.3065 165.956 28.8622C165.401 29.4179 164.647 29.7301 163.861 29.7301C163.075 29.7301 162.321 29.4179 161.766 28.8622C161.21 28.3065 160.898 27.5528 160.898 26.7669V16.8897H166.824Z" stroke="white" stroke-width="2" stroke-linecap="round" stroke-linejoin="round"/>
<path d="M198.633 16.8895C198.633 16.3656 198.841 15.8631 199.211 15.4927C199.582 15.1222 200.084 14.9141 200.608 14.9141H211.473C211.997 14.9141 212.5 15.1222 212.87 15.4927C213.241 15.8631 213.449 16.3656 213.449 16.8895V17.3834C213.449 17.5144 213.501 17.64 213.593 17.7326C213.686 17.8252 213.812 17.8772 213.943 17.8772C214.074 17.8772 214.199 17.9293 214.292 18.0219C214.384 18.1145 214.436 18.2401 214.436 18.3711V21.3343C214.436 21.4653 214.384 21.5909 214.292 21.6835C214.199 21.7761 214.074 21.8281 213.943 21.8281C213.812 21.8281 213.686 21.8802 213.593 21.9728C213.501 22.0654 213.449 22.191 213.449 22.322V22.8159C213.449 23.3398 213.241 23.8423 212.87 24.2127C212.5 24.5832 211.997 24.7913 211.473 24.7913H206.041" stroke="white" stroke-width="2" stroke-linecap="round" stroke-linejoin="round"/>
<path d="M197.645 24.7916H199.949C202.494 24.7916 204.559 22.5169 204.559 19.7117V18.8652H202.254C199.709 18.8652 197.645 21.14 197.645 23.9451V24.7916ZM197.645 24.7916V27.7548" stroke="white" stroke-width="2" stroke-linecap="round" stroke-linejoin="round"/>
<path d="M112.415 11.9023H114.98C115.137 11.9026 115.263 12.0278 115.263 12.1846V19.9258L116.736 19.1328L122.957 15.7832V19.9258L124.431 19.1328L130.651 15.7832V26.9326C130.651 27.4422 130.237 27.8555 129.728 27.8555H113.057C112.547 27.8555 112.133 27.4422 112.133 26.9326V12.1846C112.133 12.0277 112.258 11.9024 112.415 11.9023Z" stroke="white" stroke-width="2"/>
</svg>
