<svg width="32" height="32" viewBox="0 0 32 32" fill="none" xmlns="http://www.w3.org/2000/svg">
<path d="M28 9.33325C28.3398 9.33363 28.6667 9.46376 28.9138 9.69705C29.1609 9.93034 29.3096 10.2492 29.3296 10.5884C29.3495 10.9277 29.2391 11.2618 29.021 11.5224C28.8029 11.783 28.4935 11.9504 28.156 11.9906L28 11.9999V25.3333C28.3398 25.3336 28.6667 25.4638 28.9138 25.6971C29.1609 25.9303 29.3096 26.2492 29.3296 26.5884C29.3495 26.9277 29.2391 27.2618 29.021 27.5224C28.8029 27.783 28.4935 27.9504 28.156 27.9906L28 27.9999H3.99999C3.66015 27.9995 3.33328 27.8694 3.08617 27.6361C2.83905 27.4028 2.69035 27.084 2.67043 26.7447C2.65051 26.4055 2.76089 26.0714 2.97901 25.8108C3.19713 25.5502 3.50653 25.3827 3.84399 25.3426L3.99999 25.3333V11.9999C3.66015 11.9995 3.33328 11.8694 3.08617 11.6361C2.83905 11.4028 2.69035 11.084 2.67043 10.7447C2.65051 10.4055 2.76089 10.0714 2.97901 9.81081C3.19713 9.5502 3.50653 9.38272 3.84399 9.34259L3.99999 9.33325H28ZM25.3333 11.9999H6.66666V25.3333H9.33333V15.9999C9.33333 15.6463 9.4738 15.3072 9.72385 15.0571C9.9739 14.8071 10.313 14.6666 10.6667 14.6666C11.0203 14.6666 11.3594 14.8071 11.6095 15.0571C11.8595 15.3072 12 15.6463 12 15.9999V25.3333H14.6667V15.9999C14.6667 15.6463 14.8071 15.3072 15.0572 15.0571C15.3072 14.8071 15.6464 14.6666 16 14.6666C16.3536 14.6666 16.6928 14.8071 16.9428 15.0571C17.1929 15.3072 17.3333 15.6463 17.3333 15.9999V25.3333H20V15.9999C20 15.6463 20.1405 15.3072 20.3905 15.0571C20.6406 14.8071 20.9797 14.6666 21.3333 14.6666C21.6869 14.6666 22.0261 14.8071 22.2761 15.0571C22.5262 15.3072 22.6667 15.6463 22.6667 15.9999V25.3333H25.3333V11.9999ZM24 5.33325C24.3536 5.33325 24.6928 5.47373 24.9428 5.72378C25.1929 5.97383 25.3333 6.31296 25.3333 6.66659C25.3333 7.02021 25.1929 7.35935 24.9428 7.60939C24.6928 7.85944 24.3536 7.99992 24 7.99992H7.99999C7.64637 7.99992 7.30723 7.85944 7.05718 7.60939C6.80714 7.35935 6.66666 7.02021 6.66666 6.66659C6.66666 6.31296 6.80714 5.97383 7.05718 5.72378C7.30723 5.47373 7.64637 5.33325 7.99999 5.33325H24Z" fill="#FC0000"/>
</svg>
