<svg width="32" height="32" viewBox="0 0 32 32" fill="none" xmlns="http://www.w3.org/2000/svg">
<path d="M29.3333 16.0001C29.3333 8.63608 23.364 2.66675 16 2.66675C8.63601 2.66675 2.66667 8.63608 2.66667 16.0001C2.66667 23.3641 8.63601 29.3334 16 29.3334C23.364 29.3334 29.3333 23.3641 29.3333 16.0001Z" stroke="#FC0000" stroke-width="2"/>
<path d="M26.6667 7.59875C25.42 7.68808 23.824 8.17208 22.7173 9.60408C20.7173 12.1907 18.7187 12.4081 17.3853 11.5454C15.3853 10.2521 17.0667 8.15475 14.72 7.01608C13.1907 6.27341 12.9773 4.25341 13.8293 2.66675M2.66667 14.6667C3.68401 15.5494 5.10667 16.3574 6.78534 16.3574C10.252 16.3574 10.9453 17.0201 10.9453 19.6694C10.9453 22.3187 10.9453 22.3187 11.6387 24.3054C12.0893 25.5987 12.2467 26.8894 11.348 28.0001M29.3333 17.9361C28.1507 17.2561 26.6667 16.9747 25.164 18.0534C22.2907 20.1201 20.308 18.4081 19.416 20.1187C18.1027 22.6361 22.7947 23.4267 18.6667 29.3334" stroke="#FC0000" stroke-width="2" stroke-linejoin="round"/>
</svg>
