<svg width="32" height="32" viewBox="0 0 32 32" fill="none" xmlns="http://www.w3.org/2000/svg">
<path fill-rule="evenodd" clip-rule="evenodd" d="M28.6067 7.22143C28.7333 7.41371 28.7898 7.64381 28.7665 7.87288C28.7431 8.10195 28.6415 8.31596 28.4787 8.47876L16.2213 20.7348C16.0959 20.8601 15.9395 20.9498 15.768 20.9948L10.6627 22.3281C10.4939 22.3721 10.3166 22.3712 10.1483 22.3255C9.97994 22.2798 9.82651 22.1909 9.70319 22.0676C9.57986 21.9443 9.49094 21.7908 9.44524 21.6225C9.39954 21.4542 9.39865 21.2769 9.44266 21.1081L10.776 16.0041C10.8159 15.8512 10.8892 15.7092 10.9907 15.5881L23.2933 3.29343C23.4808 3.10616 23.735 3.00098 24 3.00098C24.265 3.00098 24.5192 3.10616 24.7067 3.29343L28.4787 7.0641C28.5253 7.11321 28.5681 7.16581 28.6067 7.22143ZM26.3573 7.77076L24 5.41476L12.6427 16.7721L11.8093 19.9628L15 19.1294L26.3573 7.77076Z" fill="#FC0000"/>
<path d="M26.188 22.8801C26.5524 19.7654 26.6688 16.6266 26.536 13.4934C26.5329 13.4196 26.5451 13.3459 26.572 13.277C26.5988 13.2082 26.6397 13.1457 26.692 13.0934L28.004 11.7814C28.0399 11.7454 28.0854 11.7204 28.135 11.7096C28.1847 11.6988 28.2365 11.7026 28.2841 11.7205C28.3317 11.7383 28.3731 11.7696 28.4033 11.8104C28.4336 11.8513 28.4514 11.9 28.4547 11.9508C28.7009 15.6724 28.6072 19.4088 28.1747 23.1134C27.86 25.8094 25.6947 27.9228 23.0107 28.2228C18.3511 28.7384 13.6489 28.7384 8.98933 28.2228C6.30666 27.9228 4.14 25.8094 3.82533 23.1134C3.27347 18.3873 3.27347 13.6129 3.82533 8.88677C4.14 6.19077 6.30533 4.07744 8.98933 3.77744C12.5259 3.38683 16.0889 3.29184 19.6413 3.49344C19.6922 3.49709 19.7409 3.51523 19.7817 3.54572C19.8226 3.57621 19.8538 3.61776 19.8718 3.66546C19.8898 3.71316 19.8937 3.76501 19.8831 3.81487C19.8725 3.86472 19.8478 3.9105 19.812 3.94677L18.488 5.26944C18.4362 5.32123 18.3744 5.36181 18.3062 5.38865C18.2381 5.41549 18.1652 5.42801 18.092 5.42544C15.1277 5.3239 12.1599 5.43753 9.212 5.76544C8.35058 5.86078 7.54647 6.24373 6.92954 6.85244C6.31261 7.46114 5.9189 8.26005 5.812 9.1201C5.27714 13.6912 5.27714 18.309 5.812 22.8801C5.9189 23.7402 6.31261 24.5391 6.92954 25.1478C7.54647 25.7565 8.35058 26.1394 9.212 26.2348C13.6853 26.7348 18.3147 26.7348 22.7893 26.2348C23.6507 26.1394 24.4549 25.7565 25.0718 25.1478C25.6887 24.5391 26.0811 23.7402 26.188 22.8801Z" fill="#FC0000"/>
</svg>
