<svg width="349" height="72" viewBox="0 0 349 72" fill="none" xmlns="http://www.w3.org/2000/svg">
<g clip-path="url(#clip0_6173_21)">
<path d="M24.3599 37.1388C25.0904 37.6519 25.0591 38.6812 25.7172 39.1993L26.0499 41.4792L24.3985 43.9012C22.2987 44.9979 19.1744 45.4798 17.2241 43.7134C16.1199 42.7204 15.833 41.2865 16.1199 39.8549L16.8962 37.7655C17.3325 37.4669 17.9208 37.3918 18.2197 36.881C19.2467 36.2204 20.5654 36.3631 21.7443 36.1097C22.6266 36.3987 23.9525 35.9239 24.3599 37.1388Z" fill="white"/>
<path d="M18.9199 50.5478C19.5781 50.5478 20.053 51.0301 20.675 50.9167C21.5621 51.2467 21.4488 52.317 22.3698 52.5773C23.0689 53.9655 23.5052 55.4814 23.8741 56.9803C23.6185 57.8624 24.3586 58.3781 24.0959 59.1856L24.3586 59.3372C24.3996 60.1783 24.2815 61.1351 23.9536 61.9449C24.0959 63.4897 23.322 64.7743 22.6615 66.0973C22.1914 66.3911 21.9672 67.2373 21.309 67.0903C20.1229 67.4592 20.0168 69.2159 18.5849 69.0038C17.6688 69.6979 16.4127 69.288 15.3086 69.329C14.6866 69.0038 13.8043 69.0783 13.3679 68.5217C12.2566 68.0831 11.2706 67.2732 10.3183 66.4634C9.94465 65.6513 9.10329 65.285 8.9948 64.3716C9.32029 63.2654 8.62114 62.27 8.9128 61.1735L8.70068 59.337L9.39257 56.1727C10.5738 55.5435 10.2339 54.1194 11.4176 53.6759C12.1529 51.9889 13.9079 51.6129 15.2724 50.767C15.7956 50.6659 16.4127 50.9549 16.8202 50.478C17.5579 50.3646 18.257 51.1435 18.9199 50.5478Z" fill="white"/>
<path d="M78.878 1.59884C78.5815 6.78276 74.3192 10.2725 72.0676 14.6467C71.1226 17.2543 68.8372 18.7967 67.2195 21.1538C65.7465 22.6576 64.3121 24.3133 63.1043 26.0027C63.3285 27.2102 64.6062 27.5476 65.3439 28.4272C66.9977 29.4202 67.1785 31.2879 68.6178 32.4303C69.4591 32.4303 69.4591 33.6834 70.3849 33.5364C72.3328 35.6332 73.9142 37.7973 75.5222 40.0772C75.7826 40.887 76.19 41.6896 76.8867 42.28C78.1765 44.155 79.242 46.1408 80.5631 48.052C80.7536 50.1824 82.5496 51.6116 83.0969 53.6047C83.9117 54.6675 84.2396 55.9183 84.9797 56.9835C86.1151 59.4827 86.8914 62.0856 88.2463 64.4835C88.5042 65.0307 88.1739 65.5825 87.8822 65.9873C87.3663 66.3924 86.9686 65.6526 86.3683 65.7605C83.3669 64.6616 80.4884 63.083 77.6991 61.3936C74.8255 59.0752 71.665 57.4267 68.8372 54.9974C67.733 54.7036 67.2943 53.4189 66.2721 52.9007C63.5455 51.2112 61.371 48.7892 58.6179 47.2082C57.3715 46.2515 56.1179 45.338 54.8667 44.3427C53.9097 44.2273 53.5866 43.1256 52.6633 42.7979C50.6021 41.5495 48.7337 39.8167 46.6388 38.6405C46.4507 38.9398 46.6388 39.3756 46.4507 39.6721C45.0525 41.0337 45.4262 43.1256 44.4209 44.6343C44.392 46.8009 42.8804 48.3891 42.2632 50.2906C40.5323 53.3802 39.0207 56.5446 37.2223 59.5909C34.8284 62.7553 33.5483 66.5751 30.166 69.1105C29.4307 70.0287 28.5869 70.5035 27.6684 71.0963C27.261 70.9829 26.6728 71.0485 26.5619 70.5443C26.1569 69.7755 26.6728 68.5922 26.1231 67.8909C26.5932 66.8305 26.3015 65.6206 26.5257 64.4421L26.3449 63.9311C26.3811 62.3116 27.1863 60.9524 26.856 59.2967C27.2972 58.27 27.4804 57.1276 27.584 55.9901C28.112 54.5923 28.5532 53.0836 28.6978 51.5774C29.1703 50.6953 29.3536 49.5602 29.2451 48.5287C29.6091 47.5792 29.6862 46.4319 30.6843 45.7355C30.8265 45.1063 30.6843 44.4871 30.788 43.8267C31.7836 40.8094 32.9962 37.9054 33.7653 34.8254C33.7653 34.6033 33.5483 34.5316 33.4036 34.4879C31.234 34.3793 29.2113 34.8253 27.1863 34.2733C23.8739 34.2324 20.5325 33.7917 17.3793 33.131C16.0871 32.8734 14.5418 33.0203 13.3677 32.2851C12.5939 32.3193 11.7043 32.4682 10.9811 32.0658C9.4671 31.3259 7.6301 31.4393 6.12096 30.6294C4.98307 30.7838 4.17787 30.0412 3.14124 29.9329C2.15042 30.0101 1.60077 29.1593 0.904053 28.6074V28.2822C2.74106 25.7782 5.68219 25.0841 8.32922 24.1273C10.9401 23.3175 13.8475 23.2477 16.5668 22.691C18.2929 22.3992 20.1637 22.8815 21.8922 22.5775C25.0166 22.6568 28.0324 23.1678 31.1231 23.2477C32.1549 23.3925 33.1047 23.8721 34.1365 23.8284L34.098 23.3919L31.1906 19.425C30.1009 16.851 28.0759 14.6844 27.3695 11.9611C26.7114 11.1537 27.3334 9.94631 26.815 9.06183C26.7837 8.65467 27.1164 8.36538 27.2972 8.03036C27.9264 7.77486 28.6207 8.21615 29.2451 7.81104C31.1231 8.25236 32.8492 8.91244 34.7224 9.27636C36.6703 10.0524 38.6592 10.826 40.3853 12.113C42.5526 13.6505 45.1682 14.6459 46.851 17.0318C47.2994 17.439 47.9913 17.5114 48.5747 17.357C49.093 17.2887 49.2087 16.6653 49.6884 16.4822C51.9618 15.0482 54.5365 14.2457 56.7857 12.6623C57.6898 11.7393 59.1724 11.6308 59.7148 10.3824C60.4212 10.0524 61.0504 9.61125 61.7833 9.42563C63.073 8.51225 64.3556 7.51689 65.7466 6.78181C66.4891 6.70462 67.0725 6.29745 67.6631 5.90217C69.9413 4.65139 72.3328 3.62227 74.4977 2.19072C74.9774 0.903791 76.407 1.19545 77.4388 0.903809C77.9523 1.01448 78.6538 0.938909 78.878 1.59884Z" fill="white"/>
<path d="M104.977 62.415H348.096V61.4655H104.977V62.415Z" fill="white"/>
<path d="M104.977 63.3188H348.096V62.3765H104.977V63.3188Z" fill="white"/>
<path d="M283.832 47.1711C282.885 47.7593 281.716 48.1737 279.886 48.1737C277.42 48.1737 275.301 46.1131 275.301 43.4114C275.301 39.6494 278.121 38.2371 280.829 38.2371C281.885 38.2371 283.001 38.4086 283.649 38.5261L283.832 47.1711ZM273.589 32.8218C275.062 30.648 276.535 29.7105 279.418 29.7105C283.415 29.7105 283.649 33.2315 283.649 36.4079C282.827 36.4079 281.829 36.2316 280.884 36.2316C275.532 36.2316 269.59 38.6465 269.59 44.8788C269.59 49.2289 273.531 51.7015 277.533 51.7015C280.12 51.7015 282.005 50.2869 284.006 48.8216C284.708 50.2869 286.475 51.4075 288.721 51.7015L293.124 48.1733L292.241 47.2936C291.827 47.407 291.301 47.53 291.004 47.53C289.71 47.53 289.247 46.7588 289.247 44.0572V41.9966C289.305 38.6467 289.471 35.5908 289.471 33.4724C289.471 27.5919 285.004 26.1772 279.77 26.1772C277.005 26.1772 274.655 26.5338 272.179 27.2352V32.8217L273.589 32.8218Z" fill="white"/>
<path d="M142.806 17.949H140.277C138.409 12.2758 132.49 10.0441 127.3 10.0441C116.801 10.0441 112.457 18.4864 112.457 28.6206C112.457 45.6305 124.769 48.5225 129.773 48.5225C134.667 48.5225 139.062 46.4137 141.726 42.1914L143.594 42.9771L141.726 49.6721C136.897 50.5783 133.879 51.0578 129.962 51.0578C111.975 51.0578 104.072 39.9621 104.072 29.1026C104.072 16.679 113.667 7.50879 127.189 7.50879C135.022 7.50879 138.04 8.83675 142.324 9.92604L142.806 17.949Z" fill="white"/>
<path d="M149.651 32.7877V27.1916C152.12 26.4879 154.475 26.1312 157.252 26.1312C162.493 26.1312 166.972 27.5483 166.972 33.436C166.972 35.5617 166.796 38.6223 166.734 41.9795V44.0425C166.734 46.7538 167.206 47.5201 168.51 47.5201C168.8 47.5201 169.328 47.402 169.742 47.279L170.627 48.1658L166.21 51.7014C163.964 51.4124 162.199 50.2843 161.485 48.8094C159.489 50.2843 157.599 51.7014 155.012 51.7014C151.006 51.7014 147.057 49.2239 147.057 44.8593C147.057 38.6222 153.009 36.2097 158.371 36.2097C159.308 36.2097 160.314 36.3785 161.133 36.3785C161.133 33.2021 160.9 29.669 156.895 29.669C154.005 29.669 152.534 30.6089 151.059 32.7875L149.651 32.7877ZM161.133 38.5019C160.492 38.3789 159.369 38.2081 158.303 38.2081C155.598 38.2081 152.768 39.6276 152.768 43.3921C152.768 46.1034 154.899 48.1663 157.368 48.1663C159.193 48.1663 160.372 47.7543 161.321 47.1685L161.133 38.5019Z" fill="white"/>
<path d="M180.22 26.1967C180.22 28.6814 180.458 33.8606 180.458 38.6903V47.294C180.458 49.2967 181.406 49.5884 182.756 49.9474V51.1259C180.991 51.1259 179.226 50.9428 177.445 50.9428C175.863 50.9428 174.275 51.061 172.676 51.1259V49.9474C174.094 49.5881 174.74 49.2964 174.74 47.294V39.9893C174.74 35.7428 174.395 33.3834 173.915 32.1494C173.445 30.9758 172.855 30.5661 171.447 30.3227V29.1466C174.156 28.503 177.283 27.3825 179.046 26.1967H180.22ZM177.336 16.2457C179.046 16.2457 180.576 17.4821 180.576 19.2535C180.576 21.0176 179.046 22.2515 177.336 22.2515C175.627 22.2515 174.094 21.0176 174.094 19.2535C174.094 17.4821 175.627 16.2457 177.336 16.2457Z" fill="white"/>
<path d="M185.695 49.9422C187.576 49.6485 188.815 48.1805 189.586 47.1779L195.302 39.8708L188.53 30.6813C187.4 29.2064 186.985 28.7967 185.278 28.0255V26.8494C187.05 26.904 188.877 27.0304 190.644 27.0304C192.412 27.0304 194.183 26.9074 195.943 26.8494V28.0255C195.239 28.3746 194.709 28.5024 194.709 29.3823C194.709 29.7922 194.885 30.5608 195.413 31.2694L198.66 35.6846L201.541 31.8526C202.129 31.0333 202.431 30.3247 202.431 29.9125C202.431 28.7967 201.72 28.375 200.779 28.0255V26.8494C202.366 26.904 203.899 27.0304 205.49 27.0304C207.023 27.0304 208.619 26.9074 210.152 26.8494V28.0255C207.848 28.5584 206.613 29.9704 205.321 31.6237L200.307 37.9861L206.674 46.8213C207.554 47.9998 208.906 49.4723 210.381 49.9422V51.1231C208.619 51.0616 206.903 50.9448 205.14 50.9448C203.368 50.9448 201.657 51.0603 199.895 51.1231V49.9422C200.541 49.8807 201.073 49.2409 201.073 48.6432C201.073 48.2961 200.603 47.3539 200.126 46.6429L196.946 42.1097L193.762 46.4043C193.4 46.9392 192.944 48.0624 192.944 48.5902C192.944 49.5253 193.4 49.8266 194.183 49.9422V51.1231C192.648 51.0616 191.049 50.9448 189.519 50.9448C188.231 50.9448 186.985 51.0603 185.695 51.1231V49.9422Z" fill="white"/>
<path d="M214.558 32.7877V27.1916C217.034 26.4879 219.385 26.1312 222.162 26.1312C227.408 26.1312 231.889 27.5483 231.889 33.436C231.889 35.5617 231.706 38.6223 231.648 41.9795V44.0425C231.648 46.7538 232.121 47.5201 233.415 47.5201C233.712 47.5201 234.237 47.402 234.654 47.279L235.539 48.1658L231.108 51.7014C228.881 51.4124 227.116 50.2843 226.405 48.8094C224.399 50.2843 222.511 51.7014 219.929 51.7014C215.918 51.7014 211.959 49.2239 211.959 44.8593C211.959 38.6222 217.909 36.2097 223.278 36.2097C224.225 36.2097 225.224 36.3785 226.05 36.3785C226.05 33.2021 225.819 29.669 221.81 29.669C218.917 29.669 217.444 30.6089 215.976 32.7875L214.558 32.7877ZM226.05 38.5019C225.407 38.3789 224.288 38.2081 223.223 38.2081C220.508 38.2081 217.685 39.6276 217.685 43.3921C217.685 46.1034 219.811 48.1663 222.278 48.1663C224.103 48.1663 225.293 47.7543 226.234 47.1685L226.05 38.5019Z" fill="white"/>
<path d="M247.362 13.3569C247.362 12.241 248.064 12.1807 249.71 12.1807C256.068 12.1807 258.478 15.5958 258.478 20.7701C258.478 25.8842 254.944 29.1208 249.71 29.1208C248.946 29.1208 248.114 29.0661 247.071 29.0026L247.362 13.3569ZM240.766 46.1139C240.766 48.6444 240.007 49.5241 237.411 49.818V50.8785H247.533C248.356 50.8785 249.185 50.94 249.951 50.9967C250.776 51.0513 251.598 51.1073 252.362 51.1073C258.775 51.1073 266.364 48.6443 266.364 41.06C266.364 34.941 262.651 31.8224 257.119 30.2944V30.1762C261.538 28.7639 265.653 25.5297 265.653 20.5313C265.653 12.8843 257.762 10.0621 251.181 10.0621C249.771 10.0621 248.418 10.2985 245.771 10.2985C243.418 10.2985 241.008 10.0621 238.064 10.0621V11.3588C239.653 11.5952 240.6 12.1204 240.6 14.3568C240.6 19.6541 240.766 27.1202 240.766 34.1768L240.766 46.1139ZM247.071 31.5308C248.298 31.5308 249.238 31.4694 250.238 31.4694C255.882 31.4694 259.182 35.47 259.182 40.8226C259.182 45.3486 256.183 48.995 251.121 48.995C247.478 48.995 247.071 48.4068 247.071 45.233V31.5308Z" fill="white"/>
<path d="M294.081 30.2497C295.848 30.2497 296.668 31.2475 296.668 32.9538C296.668 34.8336 296.965 38.0148 296.965 41.4226V47.1874C296.965 49.1877 296.258 49.4167 294.788 49.9468V51.123C296.439 51.123 298.134 50.9494 299.785 50.9494C301.49 50.9494 303.143 51.0649 304.848 51.123V49.9468C303.264 49.7706 302.666 49.3013 302.666 47.1874V42.3649C302.666 37.7762 302.789 34.4841 302.789 32.2501C302.789 30.0738 306.55 29.4858 307.726 29.4858C311.904 29.4858 312.55 33.8358 312.55 37.0122V47.1874C312.55 49.1877 312.075 49.5998 310.429 49.9468V51.123C312.321 51.123 314.139 50.9494 316.017 50.9494C317.497 50.9494 318.905 51.0649 320.378 51.123V49.9468C318.729 49.4844 318.257 49.0696 318.257 47.1874V34.7203C318.257 29.722 315.961 26.2491 310.139 26.2491C307.666 26.2491 305.021 27.7217 302.963 29.0736C303.025 28.0735 303.025 27.136 303.078 26.1359H301.904C299.674 27.5409 297.555 28.4278 294.081 29.0736L294.081 30.2497Z" fill="white"/>
<path d="M348.067 49.8772C346.308 49.3518 344.189 47.4695 343.427 46.5875L334.536 36.1762L339.068 31.4116C340.476 29.9415 342.421 28.5894 344.538 27.999V26.8277C343.072 26.9411 341.599 27.0039 340.126 27.0039C338.542 27.0039 336.886 26.9425 335.3 26.8277V27.999C335.835 28.2422 336.363 28.9462 336.363 29.5318C336.363 30.1821 336.067 31.0621 334.83 32.2961L330.008 37.0583V9.36475H328.714C326.597 10.9481 323.839 12.182 320.888 12.9485V14.298C322.359 14.298 323.711 15.7127 323.839 18.1227C324.01 20.3592 324.309 24.7695 324.309 28.1821V47.2333C324.309 48.5251 323.839 49.5831 322.07 49.8772V51.0557C323.656 50.9402 325.187 50.8794 326.771 50.8794C328.538 50.8794 330.245 51.0557 332.007 51.0557V49.8772C330.597 49.5834 330.008 48.8842 330.008 47.1153V39.0538H330.129L336.185 45.7054C337.188 46.8188 337.892 48.1805 337.892 48.8192C337.892 49.4074 337.475 49.8772 336.951 49.8772V51.0557C338.957 51.0557 340.948 50.8794 342.947 50.8794C344.656 50.8794 346.365 50.9949 348.067 51.0557V49.8772Z" fill="white"/>
<path d="M104.977 63.3188H348.096V62.3765H104.977V63.3188Z" fill="white"/>
</g>
<defs>
<clipPath id="clip0_6173_21">
<rect width="349" height="72" fill="white"/>
</clipPath>
</defs>
</svg>
