<svg width="20" height="20" viewBox="0 0 20 20" fill="none" xmlns="http://www.w3.org/2000/svg">
<path d="M14.6939 3.66333C13.9965 2.92622 13.6121 1.97977 13.6122 1H10.4592V12.7111C10.4354 13.345 10.1464 13.9456 9.65337 14.3861C9.1603 14.8266 8.50163 15.0726 7.81633 15.0722C6.36735 15.0722 5.16327 13.9767 5.16327 12.6167C5.16327 10.9922 6.85714 9.77389 8.60204 10.2744V7.29C5.08163 6.85556 2 9.38667 2 12.6167C2 15.7617 4.81633 18 7.80612 18C11.0102 18 13.6122 15.5917 13.6122 12.6167V6.67611C14.8908 7.52597 16.4259 7.98194 18 7.97944V5.06111C18 5.06111 16.0816 5.14611 14.6939 3.66333Z" fill="white"/>
</svg>
