<svg width="64" height="64" viewBox="0 0 64 64" fill="none" xmlns="http://www.w3.org/2000/svg">
<path d="M53.3337 26.6668C53.3337 44.0002 32.0003 58.6668 32.0003 58.6668C32.0003 58.6668 10.667 44.0002 10.667 26.6668C10.667 21.0089 12.9146 15.5827 16.9154 11.5819C20.9162 7.58111 26.3424 5.3335 32.0003 5.3335C37.6583 5.3335 43.0845 7.58111 47.0853 11.5819C51.086 15.5827 53.3337 21.0089 53.3337 26.6668Z" stroke="white" stroke-width="5.33333"/>
<path d="M40 26.667C40 28.7887 39.1571 30.8236 37.6569 32.3238C36.1566 33.8241 34.1217 34.667 32 34.667C29.8783 34.667 27.8434 33.8241 26.3431 32.3238C24.8429 30.8236 24 28.7887 24 26.667C24 24.5453 24.8429 22.5104 26.3431 21.0101C27.8434 19.5098 29.8783 18.667 32 18.667C34.1217 18.667 36.1566 19.5098 37.6569 21.0101C39.1571 22.5104 40 24.5453 40 26.667Z" stroke="white" stroke-width="5.33333"/>
</svg>
