<svg width="64" height="64" viewBox="0 0 64 64" fill="none" xmlns="http://www.w3.org/2000/svg">
<path d="M47.733 46.3735C47.0397 44.2402 45.0397 42.6668 42.6663 42.6668H39.9997V34.6668C39.9997 33.9596 39.7187 33.2813 39.2186 32.7812C38.7185 32.2811 38.0403 32.0002 37.333 32.0002H21.333V26.6668H26.6663C27.3736 26.6668 28.0519 26.3859 28.552 25.8858C29.0521 25.3857 29.333 24.7074 29.333 24.0002V18.6668H34.6663C36.0808 18.6668 37.4374 18.1049 38.4376 17.1047C39.4378 16.1045 39.9997 14.748 39.9997 13.3335V12.2402C43.1903 13.5265 46.0217 15.5668 48.2515 18.1864C50.4813 20.806 52.0431 23.927 52.8033 27.2821C53.5634 30.6372 53.4992 34.1265 52.6162 37.4514C51.7332 40.7763 50.0577 43.8376 47.733 46.3735ZM29.333 53.1468C18.7997 51.8402 10.6663 42.8802 10.6663 32.0002C10.6663 30.3468 10.8797 28.7468 11.2263 27.2268L23.9997 40.0002V42.6668C23.9997 44.0813 24.5616 45.4379 25.5618 46.4381C26.562 47.4383 27.9185 48.0002 29.333 48.0002M31.9997 5.3335C28.4978 5.3335 25.0301 6.02325 21.7948 7.36338C18.5594 8.7035 15.6197 10.6678 13.1435 13.144C8.14252 18.145 5.33301 24.9277 5.33301 32.0002C5.33301 39.0726 8.14252 45.8554 13.1435 50.8563C15.6197 53.3326 18.5594 55.2968 21.7948 56.637C25.0301 57.9771 28.4978 58.6668 31.9997 58.6668C39.0721 58.6668 45.8549 55.8573 50.8559 50.8563C55.8568 45.8554 58.6663 39.0726 58.6663 32.0002C58.6663 28.4982 57.9766 25.0306 56.6365 21.7953C55.2963 18.5599 53.3321 15.6202 50.8559 13.144C48.3796 10.6678 45.4399 8.7035 42.2046 7.36338C38.9692 6.02325 35.5016 5.3335 31.9997 5.3335Z" fill="white"/>
</svg>
