<svg width="64" height="64" viewBox="0 0 64 64" fill="none" xmlns="http://www.w3.org/2000/svg">
<path d="M50.6667 50.6665H13.3333V21.3332H50.6667M42.6667 2.6665V7.99984H21.3333V2.6665H16V7.99984H13.3333C10.3733 7.99984 8 10.3732 8 13.3332V50.6665C8 52.081 8.5619 53.4375 9.5621 54.4377C10.5623 55.4379 11.9188 55.9998 13.3333 55.9998H50.6667C52.0812 55.9998 53.4377 55.4379 54.4379 54.4377C55.4381 53.4375 56 52.081 56 50.6665V13.3332C56 11.9187 55.4381 10.5621 54.4379 9.56193C53.4377 8.56174 52.0812 7.99984 50.6667 7.99984H48V2.6665M45.3333 31.9998H32V45.3332H45.3333V31.9998Z" fill="white"/>
</svg>
