<svg width="64" height="64" viewBox="0 0 64 64" fill="none" xmlns="http://www.w3.org/2000/svg">
<path fill-rule="evenodd" clip-rule="evenodd" d="M31.9997 3.33328C27.125 3.33328 23.0957 3.76261 19.9943 4.28528L19.637 4.34661C16.9437 4.79728 14.7037 5.17328 12.9517 7.32795C11.8317 8.71195 11.4663 10.2079 11.3837 11.8746L10.0717 12.3119C8.83701 12.7226 7.75167 13.0853 6.89567 13.4853C5.96767 13.9173 5.11701 14.4719 4.46634 15.3759C3.81567 16.2799 3.55701 17.2613 3.43967 18.2773C3.33301 19.2186 3.33301 20.3573 3.33301 21.6613V22.0479C3.33301 23.1199 3.33301 24.0666 3.41301 24.8586C3.49834 25.7146 3.68767 26.5493 4.15967 27.3546C4.63701 28.1626 5.27167 28.7333 5.98101 29.2239C6.63434 29.6773 7.46101 30.1386 8.39967 30.6586L15.4397 34.5706C16.8797 37.3999 18.8557 39.9226 21.573 41.7439C23.9383 43.3333 26.7783 44.3306 30.141 44.5946C30.0505 44.8305 30.0027 45.0806 29.9997 45.3333V50H26.1863C25.1075 50 24.0619 50.3738 23.2276 51.0579C22.3933 51.742 21.8218 52.694 21.6103 53.7519L21.0263 56.6666H15.9997C15.4692 56.6666 14.9605 56.8773 14.5855 57.2524C14.2104 57.6275 13.9997 58.1362 13.9997 58.6666C13.9997 59.1971 14.2104 59.7058 14.5855 60.0808C14.9605 60.4559 15.4692 60.6666 15.9997 60.6666H47.9997C48.5301 60.6666 49.0388 60.4559 49.4139 60.0808C49.789 59.7058 49.9997 59.1971 49.9997 58.6666C49.9997 58.1362 49.789 57.6275 49.4139 57.2524C49.0388 56.8773 48.5301 56.6666 47.9997 56.6666H42.973L42.389 53.7519C42.1775 52.694 41.606 51.742 40.7717 51.0579C39.9374 50.3738 38.8919 50 37.813 50H33.9997V45.3333C33.9967 45.0806 33.9488 44.8305 33.8583 44.5946C37.221 44.3279 40.061 43.3333 42.4263 41.7466C45.1463 39.9226 47.1197 37.3999 48.5597 34.5706L55.5997 30.6586C56.5383 30.1386 57.365 29.6773 58.0183 29.2239C58.725 28.7333 59.3623 28.1626 59.837 27.3573C60.3117 26.5493 60.5037 25.7146 60.5863 24.8586C60.6663 24.0666 60.6663 23.1199 60.6663 22.0479V21.6613C60.6663 20.3599 60.6663 19.2186 60.5597 18.2773C60.4423 17.2613 60.1863 16.2773 59.533 15.3759C58.8823 14.4719 58.0317 13.9173 57.1063 13.4826C56.245 13.0826 55.1623 12.7226 53.9277 12.3119L52.6157 11.8746C52.5357 10.2053 52.1703 8.71195 51.0477 7.32795C49.2983 5.17061 47.0583 4.79461 44.365 4.34661L44.005 4.28528C40.0368 3.63324 36.021 3.31479 31.9997 3.33328ZM38.893 56.6666L38.4663 54.5359C38.4361 54.3849 38.3546 54.2489 38.2355 54.1512C38.1163 54.0535 37.9671 54 37.813 54H26.1863C26.0323 54 25.883 54.0535 25.7639 54.1512C25.6448 54.2489 25.5632 54.3849 25.533 54.5359L25.1063 56.6666H38.893ZM11.4343 16.0746L11.4717 16.0613C11.6637 20.1146 12.1197 24.5946 13.261 28.7813L10.4183 27.2053C9.38101 26.6266 8.73034 26.2639 8.26101 25.9386C7.82901 25.6373 7.68767 25.4586 7.61034 25.3253C7.53034 25.1919 7.44501 24.9839 7.39167 24.4613C7.33655 23.6287 7.31698 22.7942 7.33301 21.9599V21.7653C7.33301 20.3279 7.33567 19.4186 7.41301 18.7306C7.48767 18.0959 7.60501 17.8586 7.71167 17.7146C7.81567 17.5679 8.00234 17.3813 8.58101 17.1119C9.21034 16.8186 10.0743 16.5306 11.4343 16.0746ZM52.5277 16.0586C52.3383 20.1119 51.8797 24.5919 50.741 28.7786L53.581 27.2026C54.6183 26.6239 55.269 26.2613 55.7383 25.9359C56.1703 25.6346 56.3117 25.4559 56.389 25.3226C56.469 25.1893 56.5543 24.9813 56.6077 24.4586C56.6637 23.8879 56.6663 23.1439 56.6663 21.9573V21.7626C56.6663 20.3253 56.6637 19.4159 56.5863 18.7279C56.5117 18.0933 56.3943 17.8559 56.2877 17.7119C56.1837 17.5653 55.997 17.3786 55.4183 17.1093C54.789 16.8159 53.925 16.5253 52.565 16.0693L52.5277 16.0586ZM20.661 8.22928C24.4091 7.61573 28.2018 7.31602 31.9997 7.33328C36.6397 7.33328 40.445 7.74128 43.3383 8.22928C46.557 8.77328 47.2317 8.97595 47.9437 9.85061C48.6423 10.7093 48.709 11.5253 48.565 15.1386C48.325 21.1599 47.5303 27.6613 45.0717 32.6053C43.8557 35.0426 42.2663 37.0373 40.1997 38.424C38.1437 39.8026 35.4903 40.6666 31.9997 40.6666C28.509 40.6666 25.8583 39.8026 23.8023 38.424C21.733 37.0373 20.1437 35.0426 18.9303 32.6026C16.469 27.6613 15.677 21.1626 15.437 15.1359C15.293 11.5253 15.357 10.7093 16.0583 9.85061C16.7677 8.97595 17.4423 8.77328 20.661 8.22928Z" fill="white"/>
</svg>
