<?xml version="1.0" encoding="UTF-8"?>
<svg xmlns="http://www.w3.org/2000/svg" version="1.1" xmlns:xlink="http://www.w3.org/1999/xlink" viewBox="0 0 686 686">
  <!-- Generator: Adobe Illustrator 30.2.1, SVG Export Plug-In . SVG Version: 2.1.1 Build 1)  -->
  <defs>
    <style>
      .st0 {
        fill: #f1f2f2;
      }

      .st0, .st1, .st2, .st3, .st4, .st5, .st6 {
        fill-rule: evenodd;
      }

      .st7, .st2, .st8 {
        fill: #fff;
      }

      .st1 {
        fill: #fc0000;
      }

      .st9, .st10, .st11, .st12 {
        fill: none;
      }

      .st13 {
        fill: #f1e8d6;
      }

      .st14 {
        clip-path: url(#clippath-1);
      }

      .st10 {
        stroke-linejoin: round;
      }

      .st10, .st11 {
        stroke-linecap: round;
      }

      .st10, .st11, .st8, .st12 {
        stroke: #fff;
      }

      .st10, .st11, .st12 {
        stroke-width: 2px;
      }

      .st15 {
        fill: #253d2f;
      }

      .st16 {
        isolation: isolate;
      }

      .st3 {
        fill: #d92630;
      }

      .st4 {
        fill: #701217;
      }

      .st17 {
        fill: #e9eddb;
      }

      .st18 {
        mix-blend-mode: multiply;
      }

      .st5 {
        fill: #ac2a32;
      }

      .st6 {
        fill: #86171d;
      }

      .st19 {
        clip-path: url(#clippath);
      }
    </style>
    <clipPath id="clippath">
      <rect class="st9" width="686" height="686"/>
    </clipPath>
    <clipPath id="clippath-1">
      <rect class="st9" x="135" y="69" width="98" height="87"/>
    </clipPath>
  </defs>
  <g class="st16">
    <g id="Capa_1">
      <g class="st19">
        <g>
          <path class="st4" d="M342.5,0C153.3.4,0,153.8,0,343v.4h178.6v-.4c0-88.5,70-160.7,157.7-164.3,2,.1,4.1.2,6.1.2,49.4,0,89.5-40,89.5-89.5S392,0,342.5,0Z"/>
          <path class="st6" d="M16.7,237.6c-58.1,180,40.4,373.1,220.4,431.5.1,0,.3,0,.4.1l55.2-169.8c-.1,0-.3,0-.4-.1-84.2-27.4-131.3-116.2-107.5-200.7.8-1.9,1.5-3.8,2.1-5.8,15.3-47-10.5-97.5-57.5-112.7-47-15.3-97.5,10.5-112.8,57.4h0Z"/>
          <path class="st5" d="M142,620.8c153.3,110.9,367.4,76.8,478.7-76.2,0-.1.2-.2.2-.3l-144.5-104.9c0,.1-.2.2-.2.3-52.1,71.6-151.1,88.9-224.2,40.2-1.6-1.3-3.2-2.6-4.8-3.8-40-29-95.9-20.2-125,19.8-29.1,40-20.2,95.9,19.8,125h0Z"/>
          <path class="st3" d="M545.1,620.1c152.8-111.4,186.6-325.6,75.4-478.7,0-.1-.2-.2-.3-.3l-144.5,104.9c0,.1.2.2.3.3,52.1,71.6,37.8,171.2-31,225.6-1.7,1.1-3.4,2.2-5.1,3.4-40,29-48.8,85-19.8,124.9,29.1,40,85,48.8,125,19.8Z"/>
          <path class="st1" d="M669.2,236.5C621.8,91.4,486.7-.6,341.8,0v178.6c67.7-.6,131,41,155.6,107.3.5,2,1,3.9,1.7,5.9,15.3,47,65.7,72.7,112.8,57.4s72.7-65.7,57.5-112.7h0Z"/>
          <path class="st4" d="M341.8,0h-1.2v178.5c2.7,0,5.4,0,8.2.1,46.1-3.6,82.5-42.1,82.5-89.2S391.3,0,341.8,0Z"/>
          <g class="st18">
            <rect class="st9" x="120.7" y="120.4" width="454.2" height="454.4"/>
          </g>
          <path class="st13" d="M496.6,405.9c34.7-84.7-5.9-181.5-90.6-216.2-84.8-34.7-181.6,5.9-216.3,90.6-34.7,84.7,5.9,181.5,90.6,216.2,84.7,34.7,181.6-5.9,216.3-90.6Z"/>
          <path class="st7" d="M472.2,395.8c29.2-71.3-5-152.7-76.3-181.9-71.3-29.2-152.8,5-182,76.2-29.2,71.3,5,152.7,76.3,181.9s152.8-5,182-76.2Z"/>
          <g class="st18">
            <path class="st0" d="M670.6,241.3c-.4-1.6-.9-3.2-1.4-4.9,0,0,0,0,0-.1,0,0,0,0,0,0,0-.1,0-.2-.1-.3C618.1,81.1,467.4-13.1,311.6,1.5c-7,.6-13.9,1.4-20.7,2.5-.6.1-1.3.2-1.9.3-1.4.2-2.9.5-4.3.7-1.8.3-3.7.6-5.5,1-.3,0-.5.1-.8.2-14,2.7-28,6.3-41.9,10.8-.1,0-.3,0-.4.1h0C116.2,56.5,25.4,160.1,4.6,287.2c-.1.7-.2,1.3-.3,2-.2,1.4-.4,2.9-.6,4.3-.3,1.9-.5,3.7-.8,5.6,0,.3,0,.5-.1.8-18.2,142.1,54.8,281.8,182.7,347.7.6.3,1.2.6,1.8.9,1.3.6,2.6,1.3,3.9,1.9,1.7.8,3.4,1.7,5.1,2.5.2.1.5.2.7.3,146.1,69,325.3,26.8,423.8-108.7,0-.1.2-.2.2-.3h-.1c63.2-87.3,81.7-200.1,49.8-302.9h0ZM292.7,499.5c-.1,0-.3-.1-.4-.1-5.3-1.7-10.4-3.7-15.3-5.8h0c-.4-.2-.7-.3-1-.5-8.2-3.7-16.2-8.1-23.9-13.2-1.6-1.3-3.2-2.6-4.8-3.8-1.9-1.4-3.9-2.7-5.8-3.9-39.3-31-62.6-78.6-62.7-128.8h0v-.4c0-5.4.3-10.8.8-16.1,0-.1,0-.2,0-.4,0-.3,0-.5,0-.8,1-9,2.7-18.1,5.2-27.1.8-1.9,1.5-3.8,2.1-5.8.7-2.2,1.3-4.5,1.9-6.7,17.3-46.9,55.4-83.8,103.1-99.4.1,0,.3,0,.4-.1,5.7-1.9,11.4-3.4,17.1-4.6,8.7-1.8,17.7-3,26.9-3.3,2,.1,4.1.2,6.1.2s4.7-.1,7-.3c50,1.9,96.8,26.7,126.4,67.2h-.2c0,.2.2.3.3.5,9.4,13,16.7,26.9,21.8,41.2.4,1.4.8,2.8,1.2,4.1.5,1.6,1.1,3.2,1.7,4.8,18.5,62.8-1.9,132.9-55.7,175.4-1.7,1.1-3.4,2.2-5.1,3.4-2.2,1.6-4.3,3.3-6.3,5-41.4,27.2-93.4,34.4-140.8,19.1h0Z"/>
          </g>
          <path class="st7" d="M499.9,176.5l4,11.8h.2l4-11.8h2.4l-5.2,14.5h-2.5l-5.2-14.5h2.4ZM516,191.2c-1.1,0-2-.2-2.8-.7-.8-.5-1.4-1.1-1.8-2-.4-.8-.6-1.8-.6-3s.2-2.1.6-3c.4-.9,1-1.5,1.8-2,.8-.5,1.6-.7,2.7-.7s1.2.1,1.8.3c.6.2,1.1.5,1.6,1,.5.4.8,1,1.1,1.7.3.7.4,1.5.4,2.5v.8h-8.7v-1.6h6.6c0-.6-.1-1.1-.3-1.5-.2-.4-.5-.8-1-1-.4-.3-.9-.4-1.4-.4s-1.1.1-1.6.4c-.4.3-.8.7-1,1.1-.2.5-.4,1-.4,1.5v1.2c0,.7.1,1.3.4,1.9.3.5.6.9,1.1,1.2.5.3,1,.4,1.6.4s.8,0,1.1-.2c.3-.1.6-.3.9-.5.2-.2.4-.5.6-.9l2,.4c-.2.6-.5,1.1-.9,1.6-.4.4-.9.8-1.6,1-.6.2-1.3.4-2.1.4ZM525.2,184.5v6.5h-2.1v-10.9h2v1.8h.1c.3-.6.6-1,1.2-1.4.5-.4,1.2-.5,2-.5s1.4.2,2,.5c.6.3,1,.8,1.3,1.4.3.6.5,1.4.5,2.3v6.9h-2.1v-6.7c0-.8-.2-1.4-.6-1.9-.4-.4-1-.7-1.7-.7s-.9.1-1.3.3c-.4.2-.7.5-.9.9-.2.4-.3.9-.3,1.5ZM540.1,180.1v1.7h-6v-1.7h6ZM535.8,177.5h2.1v10.3c0,.4,0,.7.2.9.1.2.3.3.5.4.2,0,.4.1.6.1s.3,0,.4,0c.1,0,.2,0,.3,0l.4,1.8c-.1,0-.3,0-.5.1-.2,0-.5,0-.9,0-.6,0-1.1,0-1.6-.3-.5-.2-.9-.5-1.2-1-.3-.4-.4-1-.4-1.6v-10.8ZM545.6,191.2c-.7,0-1.3-.1-1.9-.4-.6-.3-1-.6-1.3-1.1-.3-.5-.5-1.1-.5-1.8s.1-1.1.4-1.5c.2-.4.6-.7,1-.9.4-.2.9-.4,1.3-.5.5-.1,1-.2,1.5-.3.7,0,1.2-.1,1.6-.2.4,0,.7-.1.9-.2.2-.1.3-.3.3-.6h0c0-.7-.2-1.1-.5-1.5-.3-.3-.9-.5-1.5-.5s-1.3.2-1.7.5c-.4.3-.7.7-.8,1l-2-.5c.2-.7.6-1.2,1-1.6.5-.4,1-.7,1.6-.9.6-.2,1.2-.3,1.9-.3s.9,0,1.4.2c.5.1,1,.3,1.4.6.4.3.8.7,1.1,1.2.3.5.4,1.1.4,1.9v7.2h-2.1v-1.5h0c-.1.3-.3.5-.6.8-.3.3-.6.5-1.1.7-.4.2-.9.3-1.5.3ZM546.1,189.5c.6,0,1.1-.1,1.5-.3.4-.2.7-.5,1-.9.2-.4.3-.8.3-1.2v-1.4c0,0-.2.1-.4.2-.2,0-.5.1-.7.2-.3,0-.5,0-.8.1-.3,0-.5,0-.7,0-.4,0-.8.1-1.1.3-.3.1-.6.3-.8.5-.2.2-.3.5-.3.9s.2.9.6,1.2c.4.3.9.4,1.5.4ZM563.2,191.2c-.9,0-1.7-.2-2.4-.7-.7-.5-1.2-1.1-1.6-1.9-.4-.8-.6-1.9-.6-3s.2-2.2.6-3c.4-.8.9-1.5,1.6-1.9.7-.4,1.5-.7,2.4-.7s1.2.1,1.6.3c.4.2.7.5,1,.8.2.3.4.6.5.8h.1v-5.4h2.1v14.5h-2.1v-1.7h-.2c-.1.2-.3.5-.6.8-.2.3-.6.6-1,.8-.4.2-1,.3-1.6.3ZM563.7,189.4c.6,0,1.1-.2,1.5-.5.4-.3.7-.8,1-1.4.2-.6.3-1.2.3-2s-.1-1.4-.3-2c-.2-.6-.5-1-1-1.3-.4-.3-.9-.5-1.6-.5s-1.2.2-1.6.5c-.4.3-.7.8-1,1.4-.2.6-.3,1.2-.3,1.9s.1,1.4.3,2c.2.6.5,1,1,1.4.4.3,1,.5,1.6.5ZM576.4,191.2c-1.1,0-2-.2-2.8-.7-.8-.5-1.4-1.1-1.8-2-.4-.8-.6-1.8-.6-3s.2-2.1.6-3c.4-.9,1-1.5,1.8-2,.8-.5,1.6-.7,2.7-.7s1.2.1,1.8.3c.6.2,1.1.5,1.6,1,.5.4.8,1,1.1,1.7.3.7.4,1.5.4,2.5v.8h-8.7v-1.6h6.6c0-.6-.1-1.1-.3-1.5-.2-.4-.5-.8-1-1-.4-.3-.9-.4-1.4-.4s-1.1.1-1.6.4c-.4.3-.8.7-1,1.1-.2.5-.4,1-.4,1.5v1.2c0,.7.1,1.3.4,1.9.3.5.6.9,1.1,1.2.5.3,1,.4,1.6.4s.8,0,1.1-.2c.3-.1.6-.3.9-.5.2-.2.4-.5.6-.9l2,.4c-.2.6-.5,1.1-.9,1.6-.4.4-.9.8-1.6,1-.6.2-1.3.4-2.1.4ZM503.1,215.2c-1.1,0-2-.2-2.8-.7-.8-.5-1.4-1.1-1.8-2-.4-.8-.6-1.8-.6-3s.2-2.1.6-3c.4-.9,1-1.5,1.8-2,.8-.5,1.6-.7,2.7-.7s1.2.1,1.8.3c.6.2,1.1.5,1.6,1,.5.4.8,1,1.1,1.7.3.7.4,1.5.4,2.5v.8h-8.7v-1.6h6.6c0-.6-.1-1.1-.3-1.5-.2-.4-.5-.8-1-1-.4-.3-.9-.4-1.4-.4s-1.1.1-1.6.4c-.4.3-.8.7-1,1.1-.2.5-.4,1-.4,1.5v1.2c0,.7.1,1.3.4,1.9.3.5.6.9,1.1,1.2.5.3,1,.4,1.6.4s.8,0,1.1-.2c.3-.1.6-.3.9-.5.2-.2.4-.5.6-.9l2,.4c-.2.6-.4,1.1-.9,1.6-.4.4-.9.8-1.6,1-.6.2-1.3.4-2.1.4ZM512.3,208.5v6.5h-2.1v-10.9h2v1.8h.1c.3-.6.6-1,1.2-1.4.5-.4,1.2-.5,2-.5s1.4.2,2,.5c.6.3,1,.8,1.3,1.4.3.6.5,1.4.5,2.3v6.9h-2.1v-6.7c0-.8-.2-1.4-.6-1.9-.4-.4-1-.7-1.7-.7s-.9.1-1.3.3c-.4.2-.7.5-.9.9-.2.4-.3.9-.3,1.5ZM526.8,215.2c-1.1,0-2-.2-2.8-.7-.8-.5-1.4-1.1-1.8-2-.4-.8-.6-1.8-.6-3s.2-2.1.6-3c.4-.9,1-1.5,1.8-2,.8-.5,1.6-.7,2.7-.7s1.2.1,1.8.3c.6.2,1.1.5,1.6,1,.5.4.8,1,1.1,1.7.3.7.4,1.5.4,2.5v.8h-8.7v-1.6h6.6c0-.6-.1-1.1-.3-1.5-.2-.4-.5-.8-1-1-.4-.3-.9-.4-1.4-.4s-1.1.1-1.6.4c-.4.3-.8.7-1,1.1-.2.5-.4,1-.4,1.5v1.2c0,.7.1,1.3.4,1.9.3.5.6.9,1.1,1.2.5.3,1,.4,1.6.4s.8,0,1.1-.2c.3-.1.6-.3.9-.5.2-.2.4-.5.6-.9l2,.4c-.2.6-.5,1.1-.9,1.6-.4.4-.9.8-1.6,1-.6.2-1.3.4-2.1.4ZM533.9,215v-10.9h2.1v1.7h.1c.2-.6.5-1,1.1-1.4.5-.3,1.1-.5,1.7-.5s.3,0,.5,0c.2,0,.3,0,.4,0v2c0,0-.2,0-.5,0-.2,0-.4,0-.7,0-.5,0-.9.1-1.3.3-.4.2-.7.5-.9.9-.2.4-.3.8-.3,1.3v6.7h-2.1ZM545.7,219.3c-.9,0-1.6-.1-2.2-.3-.6-.2-1.1-.5-1.5-.9-.4-.4-.7-.8-.9-1.2l1.8-.8c.1.2.3.4.5.7.2.2.5.4.9.6.4.2.9.2,1.4.2s1.5-.2,2-.6c.5-.4.8-1,.8-1.9v-2.1h-.1c-.1.2-.3.5-.6.8-.2.3-.6.5-1,.7-.4.2-1,.3-1.6.3s-1.6-.2-2.3-.6c-.7-.4-1.2-1-1.6-1.8-.4-.8-.6-1.8-.6-2.9s.2-2.2.6-3c.4-.8.9-1.5,1.6-1.9.7-.4,1.5-.7,2.3-.7s1.2.1,1.6.3c.4.2.7.5,1,.8.2.3.4.6.5.8h.2v-1.8h2.1v11.1c0,.9-.2,1.7-.7,2.3-.4.6-1,1-1.8,1.3-.7.3-1.6.4-2.5.4ZM545.7,213.1c.6,0,1.1-.1,1.5-.4.4-.3.7-.7,1-1.2.2-.5.3-1.2.3-1.9s-.1-1.4-.3-1.9c-.2-.6-.5-1-1-1.3-.4-.3-.9-.5-1.6-.5s-1.2.2-1.6.5c-.4.3-.7.8-1,1.3-.2.6-.3,1.2-.3,1.9s.1,1.3.3,1.9c.2.5.5,1,1,1.3.4.3,1,.5,1.6.5ZM553.5,215v-10.9h2.1v10.9h-2.1ZM553.7,202.6l1.7-3.3h2.2l-2.2,3.3h-1.7ZM561.6,215.2c-.7,0-1.3-.1-1.9-.4-.6-.3-1-.6-1.3-1.1-.3-.5-.5-1.1-.5-1.8s.1-1.1.4-1.5c.2-.4.6-.7,1-.9.4-.2.9-.4,1.4-.5.5-.1,1-.2,1.5-.3.7,0,1.2-.1,1.6-.2.4,0,.7-.1.9-.2.2-.1.3-.3.3-.6h0c0-.7-.2-1.1-.5-1.5-.3-.3-.9-.5-1.5-.5s-1.3.2-1.7.5c-.4.3-.7.7-.8,1l-2-.5c.2-.7.6-1.2,1-1.6.5-.4,1-.7,1.6-.9.6-.2,1.2-.3,1.9-.3s.9,0,1.4.2c.5.1,1,.3,1.4.6.4.3.8.7,1.1,1.2.3.5.4,1.1.4,1.9v7.2h-2.1v-1.5h0c-.1.3-.3.5-.6.8-.3.3-.6.5-1.1.7-.4.2-.9.3-1.5.3ZM562.1,213.5c.6,0,1.1-.1,1.5-.3.4-.2.7-.5,1-.9.2-.4.3-.8.3-1.2v-1.4c0,0-.2.1-.4.2-.2,0-.5.1-.7.2-.3,0-.5,0-.8.1-.3,0-.5,0-.7,0-.4,0-.8.1-1.1.3-.3.1-.6.3-.8.5-.2.2-.3.5-.3.9s.2.9.6,1.2c.4.3.9.4,1.5.4ZM580.6,200.5v14.5h-2.2v-12.3h0l-3.5,2.3v-2.1l3.6-2.4h2.1ZM589.6,215.2c-1.1,0-2.1-.3-2.9-.9-.8-.6-1.4-1.4-1.8-2.6-.4-1.1-.6-2.5-.6-4.1s.2-2.9.6-4c.4-1.1,1-2,1.8-2.6.8-.6,1.8-.9,2.9-.9s2.1.3,2.9.9c.8.6,1.4,1.4,1.8,2.6.4,1.1.6,2.5.6,4s-.2,2.9-.6,4.1c-.4,1.1-1,2-1.8,2.6-.8.6-1.8.9-2.9.9ZM589.6,213.3c1,0,1.8-.5,2.3-1.4.6-1,.8-2.4.8-4.2s-.1-2.2-.4-3.1c-.3-.8-.6-1.5-1.1-1.9-.5-.4-1-.7-1.7-.7-1,0-1.8.5-2.3,1.4-.6,1-.8,2.4-.8,4.2,0,1.2.1,2.2.4,3.1.3.8.6,1.5,1.1,1.9.5.4,1,.6,1.7.6ZM602.5,215.2c-1.1,0-2.1-.3-2.9-.9-.8-.6-1.4-1.4-1.8-2.6-.4-1.1-.6-2.5-.6-4.1s.2-2.9.6-4c.4-1.1,1-2,1.8-2.6.8-.6,1.8-.9,2.9-.9s2.1.3,2.9.9c.8.6,1.4,1.4,1.8,2.6.4,1.1.6,2.5.6,4s-.2,2.9-.6,4.1c-.4,1.1-1,2-1.8,2.6-.8.6-1.8.9-2.9.9ZM602.5,213.3c1,0,1.8-.5,2.3-1.4.6-1,.8-2.4.8-4.2s-.1-2.2-.4-3.1c-.3-.8-.6-1.5-1.1-1.9-.5-.4-1-.7-1.7-.7-1,0-1.7.5-2.3,1.4s-.8,2.4-.8,4.2c0,1.2.1,2.2.4,3.1.3.8.6,1.5,1.1,1.9.5.4,1,.6,1.7.6ZM618,212.3v-.8c0-.6.1-1.1.3-1.5.2-.5.6-.8,1-1.1.4-.3,1-.4,1.6-.4s1.2.1,1.6.4c.4.3.8.6,1,1.1.2.5.3,1,.3,1.5v.8c0,.5-.1,1.1-.3,1.5-.2.5-.6.8-1,1.1-.4.3-1,.4-1.6.4s-1.2-.1-1.6-.4c-.4-.3-.8-.6-1-1.1-.2-.5-.3-1-.3-1.5ZM619.6,211.5v.8c0,.4,0,.8.3,1.1.2.3.5.5,1,.5s.8-.2,1-.5c.2-.3.3-.7.3-1.1v-.8c0-.4,0-.8-.3-1.1-.2-.3-.5-.5-1-.5s-.8.2-1,.5c-.2.3-.3.7-.3,1.1ZM610.7,203.9v-.8c0-.5.1-1.1.3-1.5.2-.5.6-.8,1-1.1.4-.3,1-.4,1.6-.4s1.2.1,1.6.4c.4.3.8.6,1,1.1.2.5.3,1,.3,1.5v.8c0,.5-.1,1.1-.3,1.5-.2.5-.6.8-1,1.1-.4.3-1,.4-1.6.4s-1.2-.1-1.6-.4c-.4-.3-.8-.6-1-1.1-.2-.5-.3-1-.3-1.5ZM612.3,203.2v.8c0,.4,0,.8.3,1.1.2.3.5.5,1,.5s.8-.2,1-.5c.2-.3.3-.7.3-1.1v-.8c0-.4,0-.8-.3-1.1-.2-.3-.5-.5-1-.5s-.8.2-1,.5c-.2.3-.3.7-.3,1.1ZM611.3,215l10-14.5h1.7l-10,14.5h-1.7ZM498.4,239v-10.9h2.1v1.7h.1c.2-.6.5-1,1.1-1.4.5-.3,1.1-.5,1.7-.5s.3,0,.5,0c.2,0,.3,0,.4,0v2c0,0-.2,0-.5,0-.2,0-.4,0-.7,0-.5,0-.9.1-1.3.3-.4.2-.7.5-.9.9-.2.4-.3.8-.3,1.3v6.7h-2.1ZM510.4,239.2c-1.1,0-2-.2-2.8-.7-.8-.5-1.4-1.1-1.8-2-.4-.8-.6-1.8-.6-3s.2-2.1.6-3c.4-.9,1-1.5,1.8-2,.8-.5,1.6-.7,2.7-.7s1.2.1,1.8.3c.6.2,1.1.5,1.6,1,.5.4.8,1,1.1,1.7.3.7.4,1.5.4,2.5v.8h-8.7v-1.6h6.6c0-.6-.1-1.1-.3-1.5-.2-.4-.5-.8-1-1-.4-.3-.9-.4-1.4-.4s-1.1.1-1.6.4c-.4.3-.8.7-1,1.1-.2.5-.4,1-.4,1.5v1.2c0,.7.1,1.3.4,1.9.3.5.6.9,1.1,1.2.5.3,1,.4,1.6.4s.8,0,1.1-.2c.3-.1.6-.3.9-.5.2-.2.4-.5.6-.9l2,.4c-.2.6-.5,1.1-.9,1.6-.4.4-.9.8-1.6,1-.6.2-1.3.4-2.1.4ZM519.6,232.5v6.5h-2.1v-10.9h2v1.8h.1c.3-.6.6-1,1.2-1.4.5-.4,1.2-.5,2-.5s1.4.2,2,.5c.6.3,1,.8,1.3,1.4.3.6.5,1.4.5,2.3v6.9h-2.1v-6.7c0-.8-.2-1.4-.6-1.9-.4-.4-1-.7-1.7-.7s-.9.1-1.3.3c-.4.2-.7.5-.9.9-.2.4-.3.9-.3,1.5ZM534,239.2c-1,0-1.9-.2-2.7-.7-.8-.5-1.4-1.1-1.8-2-.4-.8-.6-1.8-.6-3s.2-2.1.6-3c.4-.8,1-1.5,1.8-2,.8-.5,1.7-.7,2.7-.7s1.9.2,2.7.7c.8.5,1.4,1.1,1.8,2,.4.8.6,1.8.6,3s-.2,2.1-.6,3c-.4.8-1,1.5-1.8,2s-1.7.7-2.7.7ZM534,237.4c.7,0,1.2-.2,1.6-.5.4-.4.8-.8,1-1.4.2-.6.3-1.2.3-1.9s-.1-1.3-.3-1.9c-.2-.6-.5-1.1-1-1.4-.4-.4-1-.5-1.6-.5s-1.2.2-1.7.5c-.4.4-.8.8-1,1.4-.2.6-.3,1.2-.3,1.9s.1,1.3.3,1.9c.2.6.5,1,1,1.4.4.3,1,.5,1.7.5ZM550.4,228.1l-4,10.9h-2.3l-4-10.9h2.3l2.8,8.4h.1l2.8-8.4h2.3ZM555.3,239.2c-.7,0-1.3-.1-1.9-.4-.6-.3-1-.6-1.3-1.1-.3-.5-.5-1.1-.5-1.8s.1-1.1.4-1.5c.2-.4.6-.7,1-.9.4-.2.9-.4,1.3-.5.5-.1,1-.2,1.5-.3.7,0,1.2-.1,1.6-.2.4,0,.7-.1.9-.2.2-.1.3-.3.3-.6h0c0-.7-.2-1.1-.5-1.5-.3-.3-.9-.5-1.5-.5s-1.3.2-1.7.5c-.4.3-.7.7-.8,1l-2-.5c.2-.7.6-1.2,1-1.6.5-.4,1-.7,1.6-.9.6-.2,1.2-.3,1.9-.3s.9,0,1.4.2c.5.1,1,.3,1.4.6.4.3.8.7,1.1,1.2.3.5.4,1.1.4,1.9v7.2h-2.1v-1.5h0c-.1.3-.3.5-.6.8-.3.3-.6.5-1.1.7-.4.2-.9.3-1.5.3ZM555.7,237.5c.6,0,1.1-.1,1.5-.3.4-.2.7-.5,1-.9.2-.4.3-.8.3-1.2v-1.4c0,0-.2.1-.4.2-.2,0-.5.1-.7.2-.3,0-.5,0-.8.1-.3,0-.5,0-.7,0-.4,0-.8.1-1.1.3-.3.1-.6.3-.8.5-.2.2-.3.5-.3.9s.2.9.6,1.2c.4.3.9.4,1.5.4ZM563.7,239v-14.5h2.1v5.4h.1c.1-.2.3-.5.5-.8s.6-.6,1-.8c.4-.2,1-.3,1.6-.3s1.7.2,2.4.7c.7.4,1.2,1.1,1.6,1.9.4.8.6,1.8.6,3s-.2,2.2-.6,3c-.4.8-.9,1.5-1.6,1.9-.7.5-1.5.7-2.4.7s-1.2-.1-1.6-.3c-.4-.2-.7-.5-1-.8-.2-.3-.4-.6-.5-.8h-.2v1.7h-2.1ZM565.7,233.5c0,.8.1,1.4.3,2,.2.6.5,1,1,1.4.4.3.9.5,1.5.5s1.2-.2,1.6-.5c.4-.3.7-.8,1-1.4.2-.6.3-1.2.3-2s-.1-1.4-.3-1.9c-.2-.6-.5-1-1-1.4-.4-.3-1-.5-1.6-.5s-1.1.2-1.6.5c-.4.3-.7.8-1,1.3-.2.6-.3,1.2-.3,2ZM578.1,224.5v14.5h-2.1v-14.5h2.1ZM585.7,239.2c-1.1,0-2-.2-2.8-.7-.8-.5-1.4-1.1-1.8-2-.4-.8-.6-1.8-.6-3s.2-2.1.6-3c.4-.9,1-1.5,1.8-2,.8-.5,1.6-.7,2.7-.7s1.2.1,1.8.3c.6.2,1.1.5,1.6,1,.5.4.8,1,1.1,1.7.3.7.4,1.5.4,2.5v.8h-8.7v-1.6h6.6c0-.6-.1-1.1-.3-1.5-.2-.4-.5-.8-1-1-.4-.3-.9-.4-1.4-.4s-1.1.1-1.6.4c-.4.3-.8.7-1,1.1-.2.5-.4,1-.4,1.5v1.2c0,.7.1,1.3.4,1.9.3.5.6.9,1.1,1.2.5.3,1,.4,1.6.4s.8,0,1.1-.2c.3-.1.6-.3.9-.5.2-.2.4-.5.6-.9l2,.4c-.2.6-.4,1.1-.9,1.6-.4.4-.9.8-1.6,1-.6.2-1.3.4-2.1.4Z"/>
          <path class="st15" d="M278.4,309.1c-.1-1-.6-1.8-1.4-2.3-.8-.6-1.9-.8-3.1-.8s-1.7.1-2.3.4c-.7.3-1.2.7-1.5,1.2-.4.5-.5,1-.5,1.7s.1,1,.4,1.3c.2.4.6.7,1,.9.4.2.8.5,1.3.6.5.2.9.3,1.3.4l2.1.6c.7.2,1.4.4,2.1.7.7.3,1.4.7,2,1.2s1.1,1.1,1.5,1.8c.4.7.6,1.5.6,2.5s-.3,2.3-1,3.3c-.6,1-1.6,1.7-2.8,2.3-1.2.6-2.7.8-4.4.8s-3-.3-4.2-.8c-1.2-.5-2.1-1.3-2.8-2.2-.7-1-1-2.1-1.1-3.4h3.3c0,.8.3,1.4.8,2,.5.5,1,.9,1.7,1.2.7.2,1.5.4,2.3.4s1.8-.1,2.5-.4c.7-.3,1.3-.7,1.7-1.2.4-.5.6-1.2.6-1.9s-.2-1.2-.6-1.6c-.4-.4-.9-.8-1.5-1-.6-.3-1.3-.5-2.1-.7l-2.6-.7c-1.7-.5-3.1-1.2-4.2-2.1-1-.9-1.5-2.1-1.5-3.7s.3-2.4,1-3.3c.7-.9,1.6-1.7,2.8-2.2,1.2-.5,2.5-.8,3.9-.8s2.8.3,3.9.8c1.1.5,2,1.2,2.7,2.1.7.9,1,1.9,1,3.1h-3.2ZM292.4,325.5c-1.5,0-2.9-.4-4-1.1-1.1-.7-2-1.7-2.7-3-.6-1.3-.9-2.7-.9-4.4s.3-3.2.9-4.5c.6-1.3,1.5-2.3,2.7-3,1.1-.7,2.5-1.1,4-1.1s2.9.4,4,1.1c1.1.7,2,1.7,2.7,3,.6,1.3.9,2.8.9,4.5s-.3,3.2-.9,4.4c-.6,1.3-1.5,2.2-2.7,3-1.1.7-2.5,1.1-4,1.1ZM292.4,322.8c1,0,1.8-.3,2.5-.8.7-.5,1.1-1.2,1.4-2.1.3-.9.5-1.8.5-2.9s-.2-2-.5-2.9c-.3-.9-.8-1.6-1.4-2.1-.7-.5-1.5-.8-2.5-.8s-1.8.3-2.5.8c-.7.5-1.1,1.2-1.5,2.1-.3.9-.5,1.8-.5,2.9s.2,2,.5,2.9c.3.9.8,1.6,1.5,2.1.7.5,1.5.8,2.5.8ZM306.8,303.3v21.8h-3.2v-21.8h3.2ZM321.4,318.4v-9.6h3.2v16.4h-3.1v-2.8h-.2c-.4.9-1,1.6-1.8,2.2-.8.6-1.9.9-3.1.9s-2-.2-2.8-.7c-.8-.5-1.4-1.2-1.9-2.1-.5-.9-.7-2-.7-3.4v-10.4h3.2v10c0,1.1.3,2,.9,2.7.6.7,1.4,1,2.4,1s1.2-.1,1.8-.4c.6-.3,1.1-.7,1.5-1.4.4-.6.6-1.4.6-2.3ZM335.8,325.5c-1.6,0-2.9-.4-4.1-1.1-1.1-.7-2-1.7-2.6-3-.6-1.3-.9-2.7-.9-4.4s.3-3.1.9-4.4c.6-1.3,1.5-2.3,2.6-3,1.1-.7,2.5-1.1,4-1.1s2.4.2,3.3.7c1,.5,1.8,1.1,2.4,1.9.6.8,1,1.8,1.1,2.9h-3.1c-.2-.8-.6-1.4-1.2-2-.6-.6-1.4-.8-2.4-.8s-1.7.2-2.3.7c-.7.5-1.2,1.1-1.5,2-.4.9-.6,1.9-.6,3s.2,2.2.5,3.1c.4.9.9,1.5,1.5,2,.7.5,1.5.7,2.4.7s1.2-.1,1.6-.3c.5-.2.9-.6,1.2-1,.3-.4.6-.9.7-1.5h3.1c-.1,1.1-.5,2-1,2.8-.6.8-1.3,1.5-2.3,2-1,.5-2.1.7-3.4.7ZM345.9,325.1v-16.4h3.2v16.4h-3.2ZM347.5,306.3c-.6,0-1-.2-1.4-.6-.4-.4-.6-.8-.6-1.3s.2-1,.6-1.3c.4-.4.9-.6,1.4-.6s1,.2,1.4.6c.4.4.6.8.6,1.3s-.2,1-.6,1.3c-.4.4-.9.6-1.4.6ZM360.3,325.5c-1.5,0-2.9-.4-4-1.1-1.1-.7-2-1.7-2.7-3-.6-1.3-.9-2.7-.9-4.4s.3-3.2.9-4.5c.6-1.3,1.5-2.3,2.7-3,1.1-.7,2.5-1.1,4-1.1s2.9.4,4,1.1c1.1.7,2,1.7,2.7,3,.6,1.3.9,2.8.9,4.5s-.3,3.2-.9,4.4c-.6,1.3-1.5,2.2-2.7,3-1.1.7-2.5,1.1-4,1.1ZM360.3,322.8c1,0,1.8-.3,2.5-.8.7-.5,1.1-1.2,1.4-2.1.3-.9.5-1.8.5-2.9s-.2-2-.5-2.9c-.3-.9-.8-1.6-1.4-2.1-.7-.5-1.5-.8-2.5-.8s-1.8.3-2.5.8c-.7.5-1.1,1.2-1.5,2.1-.3.9-.5,1.8-.5,2.9s.2,2,.5,2.9c.3.9.8,1.6,1.5,2.1.7.5,1.5.8,2.5.8ZM374.6,315.4v9.7h-3.2v-16.4h3.1v2.7h.2c.4-.9,1-1.6,1.8-2.1.8-.5,1.8-.8,3.1-.8s2.1.2,2.9.7c.8.5,1.5,1.2,2,2.1.5.9.7,2,.7,3.4v10.4h-3.2v-10c0-1.2-.3-2.1-.9-2.8-.6-.7-1.5-1-2.5-1s-1.4.2-2,.5c-.6.3-1,.8-1.4,1.4-.3.6-.5,1.4-.5,2.2ZM396.4,325.5c-1.6,0-3-.3-4.2-1-1.2-.7-2.1-1.7-2.7-2.9-.6-1.3-.9-2.7-.9-4.4s.3-3.2.9-4.4c.6-1.3,1.5-2.3,2.6-3,1.1-.7,2.5-1.1,4-1.1s1.8.2,2.7.5c.9.3,1.6.8,2.3,1.4.7.7,1.2,1.5,1.6,2.5.4,1,.6,2.3.6,3.8v1.1h-13v-2.4h9.9c0-.8-.2-1.6-.5-2.2-.3-.7-.8-1.2-1.4-1.5-.6-.4-1.3-.6-2.2-.6s-1.7.2-2.3.7c-.7.4-1.2,1-1.5,1.7-.4.7-.5,1.5-.5,2.3v1.9c0,1.1.2,2,.6,2.8.4.8.9,1.4,1.6,1.8.7.4,1.5.6,2.4.6s1.2,0,1.7-.3c.5-.2.9-.4,1.3-.8s.6-.8.8-1.3l3,.5c-.2.9-.7,1.7-1.3,2.3-.6.7-1.4,1.2-2.3,1.5-.9.4-2,.5-3.2.5ZM419.3,312.8l-2.9.5c-.1-.4-.3-.7-.6-1.1-.3-.3-.6-.6-1-.8-.4-.2-1-.3-1.7-.3s-1.7.2-2.3.6c-.6.4-.9.9-.9,1.5s.2,1,.6,1.3c.4.3,1.1.6,2,.8l2.6.6c1.5.3,2.6.9,3.4,1.6.7.7,1.1,1.7,1.1,2.8s-.3,1.9-.9,2.6c-.6.8-1.3,1.4-2.4,1.8-1,.4-2.2.6-3.5.6s-3.3-.4-4.5-1.2c-1.2-.8-1.9-1.9-2.1-3.4l3.1-.5c.2.8.6,1.4,1.2,1.8.6.4,1.4.6,2.3.6s1.9-.2,2.5-.6c.6-.4.9-1,.9-1.6s-.2-.9-.6-1.3c-.4-.3-1-.6-1.7-.8l-2.8-.6c-1.5-.3-2.7-.9-3.4-1.7-.7-.8-1.1-1.7-1.1-2.9s.3-1.8.8-2.5c.5-.7,1.3-1.3,2.2-1.7,1-.4,2-.6,3.3-.6,1.8,0,3.2.4,4.2,1.2,1,.8,1.7,1.8,2,3.1Z"/>
          <path class="st17" d="M300.5,340.1h84c11.9,0,21.5,9.6,21.5,21.5h0c0,11.9-9.6,21.5-21.5,21.5h-84c-11.9,0-21.5-9.6-21.5-21.5h0c0-11.9,9.6-21.5,21.5-21.5Z"/>
          <path class="st15" d="M321.4,370.1v-17.5h6.4c1.2,0,2.3.2,3.1.6.8.4,1.4,1,1.8,1.6.4.7.6,1.5.6,2.3s-.1,1.3-.4,1.8c-.3.5-.6.9-1.1,1.2-.4.3-.9.5-1.5.6v.2c.6,0,1.1.2,1.7.6.6.3,1,.8,1.4,1.5.4.6.5,1.4.5,2.3s-.2,1.7-.6,2.4c-.4.7-1.1,1.3-1.9,1.7-.9.4-2,.6-3.3.6h-6.7ZM324,367.9h3.8c1.3,0,2.2-.2,2.7-.7.5-.5.8-1.1.8-1.8s-.1-1.1-.4-1.5c-.3-.5-.7-.8-1.2-1.1-.5-.3-1.1-.4-1.8-.4h-3.9v5.6ZM324,360.2h3.5c.6,0,1.1-.1,1.6-.3.5-.2.9-.5,1.1-1,.3-.4.4-.9.4-1.5s-.3-1.3-.8-1.8c-.5-.5-1.3-.7-2.3-.7h-3.6v5.3ZM336.8,370.1v-1.9l5.9-6.1c.6-.7,1.1-1.2,1.6-1.7.4-.5.7-1,.9-1.4.2-.5.3-.9.3-1.4s-.1-1.1-.4-1.5c-.3-.4-.6-.8-1.1-1-.5-.2-1-.3-1.6-.3s-1.2.1-1.6.4c-.5.3-.8.6-1.1,1.1-.2.5-.4,1-.4,1.6h-2.5c0-1.1.2-2,.7-2.8.5-.8,1.2-1.4,2-1.8.9-.4,1.8-.7,2.9-.7s2.1.2,2.9.7c.8.4,1.5,1,2,1.8.5.7.7,1.6.7,2.5s-.1,1.3-.4,1.9c-.2.6-.7,1.3-1.3,2.1-.6.8-1.4,1.7-2.5,2.8l-3.5,3.6h0c0,.1,7.9.1,7.9.1v2.3h-11.5ZM351.8,370.1v-17.5h6.4c1.2,0,2.3.2,3.1.6.8.4,1.4,1,1.8,1.6.4.7.6,1.5.6,2.3s-.1,1.3-.4,1.8c-.3.5-.6.9-1.1,1.2-.4.3-.9.5-1.5.6v.2c.6,0,1.1.2,1.7.6.6.3,1,.8,1.4,1.5.4.6.5,1.4.5,2.3s-.2,1.7-.6,2.4c-.4.7-1.1,1.3-1.9,1.7-.9.4-2,.6-3.3.6h-6.7ZM354.4,367.9h3.8c1.3,0,2.2-.2,2.7-.7.5-.5.8-1.1.8-1.8s-.1-1.1-.4-1.5c-.3-.5-.7-.8-1.2-1.1-.5-.3-1.1-.4-1.8-.4h-3.9v5.6ZM354.4,360.2h3.5c.6,0,1.1-.1,1.6-.3.5-.2.9-.5,1.1-1,.3-.4.4-.9.4-1.5s-.3-1.3-.8-1.8c-.5-.5-1.3-.7-2.3-.7h-3.6v5.3Z"/>
          <path class="st7" d="M491.6,504v-14.5h9.1v1.9h-6.9v4.4h6.4v1.9h-6.4v4.5h7v1.9h-9.2ZM508.7,493.1v1.7h-6.2v-1.7h6.2ZM504.2,504v-12.2c0-.7.1-1.2.4-1.7.3-.5.7-.8,1.2-1,.5-.2,1-.3,1.6-.3s.8,0,1.1.1c.3,0,.5.1.7.2l-.5,1.7c-.1,0-.2,0-.4,0-.2,0-.3,0-.6,0-.5,0-.9.1-1.1.4-.2.3-.3.6-.3,1.1v11.9h-2.1ZM510.9,504v-10.9h2.1v10.9h-2.1ZM511.9,491.4c-.4,0-.7-.1-1-.4-.3-.3-.4-.5-.4-.9s.1-.6.4-.9c.3-.3.6-.4,1-.4s.7.1.9.4c.3.2.4.5.4.9s-.1.6-.4.9c-.3.2-.6.4-.9.4ZM520.4,504.2c-1.1,0-2-.2-2.7-.7-.8-.5-1.3-1.1-1.7-2-.4-.8-.6-1.8-.6-2.9s.2-2.1.6-2.9c.4-.9,1-1.5,1.8-2,.8-.5,1.7-.7,2.7-.7s1.6.2,2.2.5c.6.3,1.2.7,1.6,1.3.4.5.6,1.2.7,1.9h-2.1c-.1-.5-.4-1-.8-1.3-.4-.4-.9-.6-1.6-.6s-1.1.2-1.6.5c-.4.3-.8.7-1,1.3-.2.6-.4,1.2-.4,2s.1,1.5.4,2.1c.2.6.6,1,1,1.3.4.3,1,.5,1.6.5s.8,0,1.1-.2c.3-.2.6-.4.8-.6.2-.3.4-.6.5-1h2.1c0,.7-.3,1.3-.7,1.9-.4.6-.9,1-1.5,1.3-.6.3-1.4.5-2.3.5ZM527.2,504v-10.9h2.1v10.9h-2.1ZM528.3,491.4c-.4,0-.7-.1-1-.4-.3-.3-.4-.5-.4-.9s.1-.6.4-.9c.3-.3.6-.4,1-.4s.7.1.9.4c.3.2.4.5.4.9s-.1.6-.4.9c-.3.2-.6.4-.9.4ZM536.9,504.2c-1.1,0-2-.2-2.8-.7-.8-.5-1.4-1.1-1.8-2-.4-.8-.6-1.8-.6-3s.2-2.1.6-3c.4-.9,1-1.5,1.8-2,.8-.5,1.6-.7,2.7-.7s1.2.1,1.8.3c.6.2,1.1.5,1.6,1,.5.4.8,1,1.1,1.7.3.7.4,1.5.4,2.5v.8h-8.7v-1.6h6.6c0-.6-.1-1.1-.3-1.5-.2-.4-.5-.8-1-1-.4-.3-.9-.4-1.4-.4s-1.1.1-1.6.4c-.4.3-.8.7-1,1.1-.2.5-.4,1-.4,1.5v1.2c0,.7.1,1.3.4,1.9.3.5.6.9,1.1,1.2.5.3,1,.4,1.6.4s.8,0,1.1-.2c.3-.1.6-.3.9-.5.2-.2.4-.5.6-.9l2,.4c-.2.6-.5,1.1-.9,1.6-.4.4-.9.8-1.6,1-.6.2-1.3.4-2.1.4ZM546,497.5v6.5h-2.1v-10.9h2v1.8h.1c.3-.6.6-1,1.2-1.4.5-.4,1.2-.5,2-.5s1.4.2,2,.5c.6.3,1,.8,1.3,1.4.3.6.5,1.4.5,2.3v6.9h-2.1v-6.7c0-.8-.2-1.4-.6-1.9-.4-.5-1-.7-1.7-.7s-.9.1-1.3.3c-.4.2-.7.5-.9.9-.2.4-.3.9-.3,1.5ZM560.5,504.2c-1.1,0-2-.2-2.7-.7-.8-.5-1.3-1.1-1.7-2-.4-.8-.6-1.8-.6-2.9s.2-2.1.6-2.9c.4-.9,1-1.5,1.8-2,.8-.5,1.7-.7,2.7-.7s1.6.2,2.2.5c.6.3,1.2.7,1.6,1.3.4.5.6,1.2.7,1.9h-2.1c-.1-.5-.4-1-.8-1.3-.4-.4-.9-.6-1.6-.6s-1.1.2-1.6.5c-.4.3-.8.7-1,1.3-.2.6-.4,1.2-.4,2s.1,1.5.4,2.1c.2.6.6,1,1,1.3.4.3,1,.5,1.6.5s.8,0,1.1-.2c.3-.2.6-.4.8-.6.2-.3.4-.6.5-1h2.1c0,.7-.3,1.3-.7,1.9-.4.6-.9,1-1.5,1.3-.6.3-1.4.5-2.3.5ZM567.2,504v-10.9h2.1v10.9h-2.1ZM568.3,491.4c-.4,0-.7-.1-1-.4-.3-.3-.4-.5-.4-.9s.1-.6.4-.9c.3-.3.6-.4,1-.4s.7.1.9.4c.3.2.4.5.4.9s-.1.6-.4.9c-.3.2-.6.4-.9.4ZM575.4,504.2c-.7,0-1.3-.1-1.9-.4-.6-.3-1-.6-1.3-1.1-.3-.5-.5-1.1-.5-1.8s.1-1.1.4-1.5c.2-.4.6-.7,1-.9.4-.2.9-.4,1.3-.5.5-.1,1-.2,1.5-.3.7,0,1.2-.1,1.6-.2.4,0,.7-.1.9-.2.2-.1.3-.3.3-.6h0c0-.7-.2-1.2-.5-1.5-.3-.3-.9-.5-1.5-.5s-1.3.2-1.7.5c-.4.3-.7.7-.8,1l-2-.5c.2-.7.6-1.2,1-1.6.5-.4,1-.7,1.6-.9.6-.2,1.2-.3,1.9-.3s.9,0,1.4.2c.5,0,1,.3,1.4.6.4.3.8.7,1.1,1.2.3.5.4,1.1.4,1.9v7.2h-2.1v-1.5h0c-.1.3-.3.5-.6.8-.3.3-.6.5-1.1.7-.4.2-.9.3-1.5.3ZM575.8,502.5c.6,0,1.1-.1,1.5-.3.4-.2.7-.5,1-.9.2-.4.3-.8.3-1.2v-1.4c0,0-.2.1-.4.2-.2,0-.5.1-.7.2-.3,0-.5,0-.8.1-.3,0-.5,0-.7,0-.4,0-.8.1-1.1.3-.3.1-.6.3-.8.5-.2.2-.3.5-.3.9s.2.9.6,1.2c.4.3.9.4,1.5.4ZM496.1,528.2c-1.1,0-2-.2-2.8-.7-.8-.5-1.4-1.1-1.8-2-.4-.8-.6-1.8-.6-3s.2-2.1.6-3c.4-.9,1-1.5,1.8-2,.8-.5,1.6-.7,2.7-.7s1.2.1,1.8.3c.6.2,1.1.5,1.6,1,.5.4.8,1,1.1,1.7.3.7.4,1.5.4,2.5v.8h-8.7v-1.6h6.6c0-.6-.1-1.1-.3-1.5-.2-.4-.5-.8-1-1-.4-.3-.9-.4-1.4-.4s-1.1.1-1.6.4c-.4.3-.8.7-1,1.1-.2.5-.4,1-.4,1.5v1.2c0,.7.1,1.3.4,1.9.3.5.6.9,1.1,1.2.5.3,1,.4,1.6.4s.8,0,1.1-.2c.3-.1.6-.3.9-.5.2-.2.4-.5.6-.9l2,.4c-.2.6-.4,1.1-.9,1.6-.4.4-.9.8-1.6,1-.6.2-1.3.4-2.1.4ZM505.3,521.5v6.5h-2.1v-10.9h2v1.8h.1c.3-.6.6-1,1.2-1.4.5-.3,1.2-.5,2-.5s1.4.2,2,.5c.6.3,1,.8,1.3,1.4.3.6.5,1.4.5,2.3v6.9h-2.1v-6.7c0-.8-.2-1.4-.6-1.9-.4-.5-1-.7-1.7-.7s-.9.1-1.3.3c-.4.2-.7.5-.9.9-.2.4-.3.9-.3,1.5ZM519.8,528.2c-1.1,0-2-.2-2.8-.7-.8-.5-1.4-1.1-1.8-2-.4-.8-.6-1.8-.6-3s.2-2.1.6-3c.4-.9,1-1.5,1.8-2,.8-.5,1.6-.7,2.7-.7s1.2.1,1.8.3c.6.2,1.1.5,1.6,1,.5.4.8,1,1.1,1.7.3.7.4,1.5.4,2.5v.8h-8.7v-1.6h6.6c0-.6-.1-1.1-.3-1.5-.2-.4-.5-.8-1-1-.4-.3-.9-.4-1.4-.4s-1.1.1-1.6.4c-.4.3-.8.7-1,1.1-.2.5-.4,1-.4,1.5v1.2c0,.7.1,1.3.4,1.9.3.5.6.9,1.1,1.2.5.3,1,.4,1.6.4s.8,0,1.1-.2c.3-.1.6-.3.9-.5.2-.2.4-.5.6-.9l2,.4c-.2.6-.5,1.1-.9,1.6-.4.4-.9.8-1.6,1-.6.2-1.3.4-2.1.4ZM526.9,528v-10.9h2.1v1.7h.1c.2-.6.5-1,1.1-1.4.5-.3,1.1-.5,1.7-.5s.3,0,.5,0c.2,0,.3,0,.4,0v2c0,0-.2,0-.5,0-.2,0-.4,0-.7,0-.5,0-.9.1-1.3.3-.4.2-.7.5-.9.9-.2.4-.3.8-.3,1.3v6.7h-2.1ZM538.7,532.3c-.9,0-1.6-.1-2.2-.3-.6-.2-1.1-.5-1.5-.9-.4-.4-.7-.8-.9-1.2l1.8-.8c.1.2.3.4.5.7.2.2.5.4.9.6.4.2.9.2,1.4.2s1.5-.2,2-.6c.5-.4.8-1,.8-1.9v-2.1h-.1c-.1.2-.3.5-.6.8-.2.3-.6.5-1,.7-.4.2-1,.3-1.6.3s-1.6-.2-2.3-.6c-.7-.4-1.2-1-1.6-1.8-.4-.8-.6-1.8-.6-2.9s.2-2.2.6-3c.4-.8.9-1.5,1.6-1.9.7-.4,1.5-.7,2.3-.7s1.2.1,1.6.3c.4.2.7.5,1,.8.2.3.4.6.5.8h.2v-1.8h2.1v11.2c0,.9-.2,1.7-.7,2.3-.4.6-1,1-1.8,1.3-.7.3-1.6.4-2.5.4ZM538.7,526.1c.6,0,1.1-.1,1.5-.4.4-.3.7-.7,1-1.2.2-.5.3-1.2.3-1.9s-.1-1.4-.3-1.9c-.2-.6-.5-1-1-1.3-.4-.3-.9-.5-1.6-.5s-1.2.2-1.6.5c-.4.3-.7.8-1,1.3-.2.6-.3,1.2-.3,1.9s.1,1.3.3,1.9c.2.5.5,1,1,1.3.4.3,1,.5,1.6.5ZM551.2,528.2c-1.1,0-2-.2-2.8-.7-.8-.5-1.4-1.1-1.8-2-.4-.8-.6-1.8-.6-3s.2-2.1.6-3c.4-.9,1-1.5,1.8-2,.8-.5,1.6-.7,2.7-.7s1.2.1,1.8.3c.6.2,1.1.5,1.6,1,.5.4.8,1,1.1,1.7.3.7.4,1.5.4,2.5v.8h-8.7v-1.6h6.6c0-.6-.1-1.1-.3-1.5-.2-.4-.5-.8-1-1-.4-.3-.9-.4-1.4-.4s-1.1.1-1.6.4c-.4.3-.8.7-1,1.1-.2.5-.4,1-.4,1.5v1.2c0,.7.1,1.3.4,1.9.3.5.6.9,1.1,1.2.5.3,1,.4,1.6.4s.8,0,1.1-.2c.3-.1.6-.3.9-.5.2-.2.4-.5.6-.9l2,.4c-.2.6-.4,1.1-.9,1.6-.4.4-.9.8-1.6,1-.6.2-1.3.4-2.1.4ZM550.1,515.6l1.7-3.3h2.2l-2.2,3.3h-1.7ZM563.3,517.1v1.7h-6v-1.7h6ZM559,514.5h2.1v10.3c0,.4,0,.7.2.9.1.2.3.3.5.4.2,0,.4.1.6.1s.3,0,.4,0c.1,0,.2,0,.3,0l.4,1.8c-.1,0-.3,0-.5.1-.2,0-.5,0-.9,0-.6,0-1.1,0-1.6-.3-.5-.2-.9-.5-1.2-1-.3-.4-.4-1-.4-1.6v-10.8ZM565.7,528v-10.9h2.1v10.9h-2.1ZM566.7,515.4c-.4,0-.7-.1-1-.4-.3-.3-.4-.5-.4-.9s.1-.6.4-.9c.3-.3.6-.4,1-.4s.7.1.9.4c.3.2.4.5.4.9s-.1.6-.4.9c-.3.2-.6.4-.9.4ZM575.2,528.2c-1.1,0-2-.2-2.7-.7-.8-.5-1.3-1.1-1.7-2-.4-.8-.6-1.8-.6-2.9s.2-2.1.6-2.9c.4-.9,1-1.5,1.8-2,.8-.5,1.6-.7,2.7-.7s1.6.2,2.2.5c.6.3,1.2.7,1.6,1.3.4.5.6,1.2.7,1.9h-2.1c-.1-.5-.4-1-.8-1.3-.4-.4-.9-.6-1.6-.6s-1.1.2-1.6.5c-.4.3-.8.7-1,1.3-.2.6-.4,1.2-.4,2s.1,1.5.4,2.1c.2.6.6,1,1,1.3.4.3,1,.5,1.6.5s.8,0,1.1-.2c.3-.2.6-.4.8-.6.2-.3.4-.6.5-1h2.1c0,.7-.3,1.3-.7,1.9-.4.6-.9,1-1.5,1.3-.6.3-1.4.5-2.3.5ZM585.2,528.2c-.7,0-1.3-.1-1.9-.4-.6-.3-1-.6-1.3-1.1-.3-.5-.5-1.1-.5-1.8s.1-1.1.4-1.5c.2-.4.6-.7,1-.9.4-.2.9-.4,1.3-.5.5-.1,1-.2,1.5-.3.7,0,1.2-.1,1.6-.2.4,0,.7-.1.9-.2.2-.1.3-.3.3-.6h0c0-.7-.2-1.1-.5-1.5-.3-.3-.9-.5-1.5-.5s-1.3.2-1.7.5c-.4.3-.7.7-.8,1l-2-.5c.2-.7.6-1.2,1-1.6.5-.4,1-.7,1.6-.9.6-.2,1.2-.3,1.9-.3s.9,0,1.4.2c.5.1,1,.3,1.4.6.4.3.8.7,1.1,1.2.3.5.4,1.1.4,1.9v7.2h-2.1v-1.5h0c-.1.3-.3.5-.6.8-.3.3-.6.5-1.1.7-.4.2-.9.3-1.5.3ZM585.6,526.5c.6,0,1.1-.1,1.5-.3.4-.2.7-.5,1-.9.2-.4.3-.8.3-1.2v-1.4c0,0-.2.1-.4.2-.2,0-.5.1-.7.2-.3,0-.5,0-.8.1-.3,0-.5,0-.7,0-.4,0-.8.1-1.1.3-.3.1-.6.3-.8.5-.2.2-.3.5-.3.9s.2.9.6,1.2c.4.3.9.4,1.5.4Z"/>
          <path class="st7" d="M209.4,557c-.1-.4-.3-.8-.6-1.2-.2-.3-.5-.6-.8-.9-.3-.2-.7-.4-1.1-.6-.4-.1-.8-.2-1.3-.2-.8,0-1.6.2-2.2.6-.7.4-1.2,1-1.6,1.9-.4.8-.6,1.8-.6,3s.2,2.2.6,3c.4.8.9,1.4,1.6,1.9.7.4,1.4.6,2.3.6s1.5-.2,2.1-.5c.6-.3,1-.8,1.4-1.4.3-.6.5-1.3.5-2.1h.6c0,.1-4.2.1-4.2.1v-1.8h5.7v1.7c0,1.2-.3,2.3-.8,3.2-.5.9-1.2,1.6-2.1,2.1-.9.5-1.9.7-3.1.7s-2.5-.3-3.5-.9c-1-.6-1.8-1.5-2.3-2.6-.6-1.1-.8-2.4-.8-4s.2-2.2.5-3.1c.3-.9.8-1.7,1.4-2.4.6-.6,1.3-1.1,2.1-1.5.8-.3,1.7-.5,2.6-.5s1.5.1,2.2.3c.7.2,1.3.6,1.8,1,.5.4,1,.9,1.3,1.5.3.6.6,1.2.7,1.9h-2.3ZM219.1,567.2c-1.1,0-2-.2-2.8-.7-.8-.5-1.4-1.1-1.8-2-.4-.8-.6-1.8-.6-3s.2-2.1.6-3c.4-.9,1-1.5,1.8-2,.8-.5,1.6-.7,2.7-.7s1.2.1,1.8.3c.6.2,1.1.5,1.6,1,.5.4.8,1,1.1,1.7.3.7.4,1.5.4,2.5v.8h-8.7v-1.6h6.6c0-.6-.1-1.1-.3-1.5-.2-.4-.5-.8-1-1-.4-.3-.9-.4-1.4-.4s-1.1.1-1.6.4c-.4.3-.8.7-1,1.1-.2.5-.4,1-.4,1.5v1.2c0,.7.1,1.3.4,1.9.3.5.6.9,1.1,1.2.5.3,1,.4,1.6.4s.8,0,1.1-.2c.3-.1.6-.3.9-.5.2-.2.4-.5.6-.9l2,.4c-.2.6-.4,1.1-.9,1.6-.4.4-.9.8-1.6,1-.6.2-1.3.4-2.1.4ZM234.3,558.8l-1.9.3c0-.2-.2-.5-.4-.7-.2-.2-.4-.4-.7-.5-.3-.1-.7-.2-1.1-.2s-1.1.1-1.5.4c-.4.3-.6.6-.6,1s.1.7.4.9c.3.2.7.4,1.3.5l1.7.4c1,.2,1.8.6,2.2,1.1.5.5.7,1.1.7,1.9s-.2,1.2-.6,1.7c-.4.5-.9.9-1.6,1.2-.7.3-1.4.4-2.3.4s-2.2-.3-3-.8c-.8-.5-1.2-1.3-1.4-2.2l2.1-.3c.1.5.4.9.8,1.2.4.3.9.4,1.6.4s1.3-.1,1.7-.4c.4-.3.6-.7.6-1.1s-.1-.6-.4-.9c-.3-.2-.6-.4-1.2-.5l-1.8-.4c-1-.2-1.8-.6-2.3-1.1-.5-.5-.7-1.1-.7-1.9s.2-1.2.5-1.7c.4-.5.9-.9,1.5-1.1.6-.3,1.4-.4,2.2-.4,1.2,0,2.1.3,2.8.8.7.5,1.1,1.2,1.3,2ZM242,556.1v1.7h-6v-1.7h6ZM237.6,553.5h2.1v10.3c0,.4,0,.7.2.9.1.2.3.3.5.4.2,0,.4.1.6.1s.3,0,.4,0c.1,0,.2,0,.3,0l.4,1.8c-.1,0-.3,0-.5.1-.2,0-.5,0-.9,0-.6,0-1.1,0-1.6-.3-.5-.2-.9-.5-1.2-1-.3-.4-.4-1-.4-1.6v-10.8ZM244.3,567v-10.9h2.1v10.9h-2.1ZM245.4,554.4c-.4,0-.7-.1-1-.4-.3-.3-.4-.5-.4-.9s.1-.6.4-.9c.3-.3.6-.4,1-.4s.7.1.9.4c.3.2.4.5.4.9s-.1.6-.4.9c-.3.2-.6.4-.9.4ZM253.9,567.2c-1,0-1.9-.2-2.7-.7-.8-.5-1.4-1.1-1.8-2-.4-.8-.6-1.8-.6-3s.2-2.1.6-3c.4-.8,1-1.5,1.8-2,.8-.5,1.7-.7,2.7-.7s1.9.2,2.7.7c.8.5,1.4,1.1,1.8,2,.4.8.6,1.8.6,3s-.2,2.1-.6,3c-.4.8-1,1.5-1.8,2-.8.5-1.7.7-2.7.7ZM253.9,565.4c.7,0,1.2-.2,1.6-.5.4-.3.8-.8,1-1.4.2-.6.3-1.2.3-1.9s-.1-1.3-.3-1.9c-.2-.6-.5-1.1-1-1.4-.4-.4-1-.5-1.6-.5s-1.2.2-1.7.5c-.4.4-.8.8-1,1.4-.2.6-.3,1.2-.3,1.9s.1,1.3.3,1.9c.2.6.5,1,1,1.4.4.4,1,.5,1.7.5ZM253,554.6l1.7-3.3h2.2l-2.2,3.3h-1.7ZM263.5,560.5v6.5h-2.1v-10.9h2v1.8h.1c.3-.6.6-1,1.2-1.4.5-.3,1.2-.5,2-.5s1.4.2,2,.5c.6.3,1,.8,1.3,1.4.3.6.5,1.4.5,2.3v6.9h-2.1v-6.7c0-.8-.2-1.4-.6-1.9-.4-.5-1-.7-1.7-.7s-.9.1-1.3.3c-.4.2-.7.5-.9.9-.2.4-.3.9-.3,1.5ZM282.7,567.2c-.9,0-1.7-.2-2.4-.7-.7-.5-1.2-1.1-1.6-1.9-.4-.8-.6-1.9-.6-3s.2-2.2.6-3c.4-.8.9-1.5,1.6-1.9.7-.4,1.5-.7,2.4-.7s1.2.1,1.6.3c.4.2.7.5,1,.8.2.3.4.6.5.8h.1v-5.4h2.1v14.5h-2.1v-1.7h-.2c-.1.2-.3.5-.6.8-.2.3-.6.6-1,.8-.4.2-1,.3-1.6.3ZM283.1,565.4c.6,0,1.1-.2,1.5-.5.4-.3.7-.8,1-1.4.2-.6.3-1.2.3-2s-.1-1.4-.3-2c-.2-.6-.5-1-1-1.3-.4-.3-.9-.5-1.6-.5s-1.2.2-1.6.5-.7.8-1,1.4c-.2.6-.3,1.2-.3,1.9s.1,1.4.3,2c.2.6.5,1,1,1.4.4.3,1,.5,1.6.5ZM295.8,567.2c-1.1,0-2-.2-2.8-.7-.8-.5-1.4-1.1-1.8-2-.4-.8-.6-1.8-.6-3s.2-2.1.6-3c.4-.9,1-1.5,1.8-2,.8-.5,1.6-.7,2.7-.7s1.2.1,1.8.3c.6.2,1.1.5,1.6,1,.5.4.8,1,1.1,1.7.3.7.4,1.5.4,2.5v.8h-8.7v-1.6h6.6c0-.6-.1-1.1-.3-1.5-.2-.4-.5-.8-1-1-.4-.3-.9-.4-1.4-.4s-1.1.1-1.6.4c-.4.3-.8.7-1,1.1-.2.5-.4,1-.4,1.5v1.2c0,.7.1,1.3.4,1.9.3.5.6.9,1.1,1.2.5.3,1,.4,1.6.4s.8,0,1.1-.2c.3-.1.6-.3.9-.5.2-.2.4-.5.6-.9l2,.4c-.2.6-.4,1.1-.9,1.6-.4.4-.9.8-1.6,1-.6.2-1.3.4-2.1.4ZM201.6,576.5v14.5h-2.1v-14.5h2.1ZM207.6,591.2c-.7,0-1.3-.1-1.9-.4-.6-.3-1-.6-1.3-1.1-.3-.5-.5-1.1-.5-1.8s.1-1.1.4-1.5c.2-.4.6-.7,1-.9.4-.2.9-.4,1.3-.5.5-.1,1-.2,1.5-.3.7,0,1.2-.1,1.6-.2.4,0,.7-.1.9-.2.2-.1.3-.3.3-.6h0c0-.7-.2-1.1-.5-1.5-.3-.3-.9-.5-1.5-.5s-1.3.2-1.7.5c-.4.3-.7.7-.8,1l-2-.5c.2-.7.6-1.2,1-1.6.5-.4,1-.7,1.6-.9.6-.2,1.2-.3,1.9-.3s.9,0,1.4.2c.5.1,1,.3,1.4.6.4.3.8.7,1.1,1.2.3.5.4,1.1.4,1.9v7.2h-2.1v-1.5h0c-.1.3-.3.5-.6.8-.3.3-.6.5-1.1.7s-.9.3-1.5.3ZM208,589.5c.6,0,1.1-.1,1.5-.3.4-.2.7-.5,1-.9.2-.4.3-.8.3-1.2v-1.4c0,0-.2.1-.4.2-.2,0-.5.1-.7.2-.3,0-.5,0-.8.1-.3,0-.5,0-.7,0-.4,0-.8.1-1.1.3-.3.1-.6.3-.8.5-.2.2-.3.5-.3.9s.2.9.6,1.2c.4.3.9.4,1.5.4ZM225.2,591.2c-.9,0-1.7-.2-2.4-.7-.7-.5-1.2-1.1-1.6-1.9-.4-.8-.6-1.9-.6-3s.2-2.2.6-3c.4-.8.9-1.5,1.6-1.9.7-.4,1.5-.7,2.4-.7s1.2.1,1.6.3c.4.2.7.5,1,.8.2.3.4.6.5.8h.1v-5.4h2.1v14.5h-2.1v-1.7h-.2c-.1.2-.3.5-.6.8-.2.3-.6.6-1,.8-.4.2-1,.3-1.6.3ZM225.6,589.4c.6,0,1.1-.2,1.5-.5.4-.3.7-.8,1-1.4.2-.6.3-1.2.3-2s-.1-1.4-.3-2c-.2-.6-.5-1-1-1.3-.4-.3-.9-.5-1.6-.5s-1.2.2-1.6.5c-.4.3-.7.8-1,1.4-.2.6-.3,1.2-.3,1.9s.1,1.4.3,2c.2.6.5,1,1,1.4.4.3,1,.5,1.6.5ZM238.3,591.2c-1.1,0-2-.2-2.8-.7-.8-.5-1.4-1.1-1.8-2-.4-.8-.6-1.8-.6-3s.2-2.1.6-3c.4-.9,1-1.5,1.8-2,.8-.5,1.6-.7,2.7-.7s1.2.1,1.8.3c.6.2,1.1.5,1.6,1,.5.4.8,1,1.1,1.7.3.7.4,1.5.4,2.5v.8h-8.7v-1.6h6.6c0-.6-.1-1.1-.3-1.5-.2-.4-.5-.8-1-1-.4-.3-.9-.4-1.4-.4s-1.1.1-1.6.4c-.4.3-.8.7-1,1.1-.2.5-.4,1-.4,1.5v1.2c0,.7.1,1.3.4,1.9.3.5.6.9,1.1,1.2.5.3,1,.4,1.6.4s.8,0,1.1-.2c.3-.1.6-.3.9-.5.2-.2.4-.5.6-.9l2,.4c-.2.6-.4,1.1-.9,1.6-.4.4-.9.8-1.6,1-.6.2-1.3.4-2.1.4ZM245.3,591v-10.9h2v1.8h.1c.2-.6.6-1.1,1.1-1.4.5-.3,1.1-.5,1.9-.5s1.3.2,1.8.5c.5.3.9.8,1.1,1.4h.1c.3-.6.7-1,1.2-1.4.6-.3,1.2-.5,2-.5s1.8.3,2.4.9c.6.6.9,1.6.9,2.8v7.3h-2.1v-7.1c0-.7-.2-1.3-.6-1.6-.4-.3-.9-.5-1.4-.5s-1.2.2-1.6.6c-.4.4-.6,1-.6,1.6v7h-2.1v-7.3c0-.6-.2-1.1-.6-1.4-.4-.4-.8-.5-1.4-.5s-.8.1-1.1.3c-.3.2-.6.5-.8.9-.2.4-.3.8-.3,1.3v6.7h-2.1ZM266.2,591.2c-.7,0-1.3-.1-1.9-.4-.6-.3-1-.6-1.3-1.1-.3-.5-.5-1.1-.5-1.8s.1-1.1.4-1.5c.2-.4.6-.7,1-.9.4-.2.9-.4,1.3-.5.5-.1,1-.2,1.5-.3.7,0,1.2-.1,1.6-.2.4,0,.7-.1.9-.2.2-.1.3-.3.3-.6h0c0-.7-.2-1.1-.5-1.5-.3-.3-.9-.5-1.5-.5s-1.3.2-1.7.5c-.4.3-.7.7-.8,1l-2-.5c.2-.7.6-1.2,1-1.6.5-.4,1-.7,1.6-.9.6-.2,1.2-.3,1.9-.3s.9,0,1.4.2c.5.1,1,.3,1.4.6.4.3.8.7,1.1,1.2.3.5.4,1.1.4,1.9v7.2h-2.1v-1.5h0c-.1.3-.3.5-.6.8-.3.3-.6.5-1.1.7s-.9.3-1.5.3ZM266.7,589.5c.6,0,1.1-.1,1.5-.3.4-.2.7-.5,1-.9.2-.4.3-.8.3-1.2v-1.4c0,0-.2.1-.4.2-.2,0-.5.1-.7.2-.3,0-.5,0-.8.1-.3,0-.5,0-.7,0-.4,0-.8.1-1.1.3-.3.1-.6.3-.8.5-.2.2-.3.5-.3.9s.2.9.6,1.2c.4.3.9.4,1.5.4ZM276.5,584.5v6.5h-2.1v-10.9h2v1.8h.1c.3-.6.6-1,1.2-1.4.5-.3,1.2-.5,2-.5s1.4.2,2,.5c.6.3,1,.8,1.3,1.4.3.6.5,1.4.5,2.3v6.9h-2.1v-6.7c0-.8-.2-1.4-.6-1.9-.4-.5-1-.7-1.7-.7s-.9.1-1.3.3c-.4.2-.7.5-.9.9-.2.4-.3.9-.3,1.5ZM290.4,591.2c-.9,0-1.7-.2-2.4-.7-.7-.5-1.2-1.1-1.6-1.9-.4-.8-.6-1.9-.6-3s.2-2.2.6-3c.4-.8.9-1.5,1.6-1.9.7-.4,1.5-.7,2.4-.7s1.2.1,1.6.3c.4.2.7.5,1,.8.2.3.4.6.5.8h.1v-5.4h2.1v14.5h-2.1v-1.7h-.2c-.1.2-.3.5-.6.8-.2.3-.6.6-1,.8-.4.2-1,.3-1.6.3ZM290.9,589.4c.6,0,1.1-.2,1.5-.5.4-.3.7-.8,1-1.4.2-.6.3-1.2.3-2s-.1-1.4-.3-2c-.2-.6-.5-1-1-1.3-.4-.3-.9-.5-1.6-.5s-1.2.2-1.6.5-.7.8-1,1.4c-.2.6-.3,1.2-.3,1.9s.1,1.4.3,2c.2.6.5,1,1,1.4.4.3,1,.5,1.6.5ZM302.1,591.2c-.7,0-1.3-.1-1.9-.4-.6-.3-1-.6-1.3-1.1-.3-.5-.5-1.1-.5-1.8s.1-1.1.4-1.5c.2-.4.6-.7,1-.9.4-.2.9-.4,1.3-.5.5-.1,1-.2,1.5-.3.7,0,1.2-.1,1.6-.2.4,0,.7-.1.9-.2.2-.1.3-.3.3-.6h0c0-.7-.2-1.1-.5-1.5-.3-.3-.9-.5-1.5-.5s-1.3.2-1.7.5c-.4.3-.7.7-.8,1l-2-.5c.2-.7.6-1.2,1-1.6.5-.4,1-.7,1.6-.9.6-.2,1.2-.3,1.9-.3s.9,0,1.4.2c.5.1,1,.3,1.4.6.4.3.8.7,1.1,1.2.3.5.4,1.1.4,1.9v7.2h-2.1v-1.5h0c-.1.3-.3.5-.6.8-.3.3-.6.5-1.1.7s-.9.3-1.5.3ZM302.5,589.5c.6,0,1.1-.1,1.5-.3.4-.2.7-.5,1-.9.2-.4.3-.8.3-1.2v-1.4c0,0-.2.1-.4.2-.2,0-.5.1-.7.2-.3,0-.5,0-.8.1-.3,0-.5,0-.7,0-.4,0-.8.1-1.1.3-.3.1-.6.3-.8.5-.2.2-.3.5-.3.9s.2.9.6,1.2c.4.3.9.4,1.5.4Z"/>
          <path class="st7" d="M326.1,601.9h8.2v22.1h-9.3v-22.1h1.1ZM333.1,592.8l5.8,2.1c0-.1.2-.2.3-.3.6-.6,1.5-1,2.4-1s.9.1,1.4.3l7.6-8.8c-.3-.5-.5-1.1-.5-1.8,0-1,.4-1.8,1-2.5.6-.6,1.5-1,2.4-1s1.6.3,2.1.8l6.4-4.3c0-.3-.1-.6-.1-.9,0-1,.4-1.8,1-2.5.6-.6,1.5-1,2.4-1s1.8.4,2.4,1c.6.6,1,1.5,1,2.5s-.4,1.8-1,2.5c-.6.6-1.5,1-2.4,1s-1.6-.3-2.1-.8l-6.4,4.3c0,.3.1.6.1.9,0,1-.4,1.8-1,2.5-.6.6-1.5,1-2.4,1s-.9-.1-1.4-.3l-7.6,8.8c.3.5.5,1.1.5,1.8,0,1-.4,1.8-1,2.5-.6.6-1.5,1-2.4,1s-1.8-.4-2.4-1c-.6-.6-1-1.5-1-2.5h0c0,0-5.8-2.2-5.8-2.2,0,.1-.2.2-.3.3-.6.6-1.5,1-2.4,1s-1.8-.4-2.4-1c-.6-.6-1-1.5-1-2.5s.4-1.8,1-2.5c.6-.6,1.5-1,2.4-1s1.8.4,2.4,1c.6.6,1,1.5,1,2.5h0c0,0,0,.1,0,.1ZM366.3,574.6c-.2-.2-.5-.4-.9-.4s-.7.1-.9.4c-.2.2-.4.6-.4.9s.1.7.4.9c.2.2.5.4.9.4s.7-.1.9-.4c.2-.2.4-.6.4-.9s-.1-.7-.4-.9h0ZM354.4,582.5c-.2-.2-.5-.4-.9-.4s-.7.1-.9.4c-.2.2-.4.6-.4.9s.1.7.4.9c.2.2.5.4.9.4s.7-.1.9-.4c.2-.2.4-.6.4-.9s-.1-.7-.4-.9ZM342.4,596.2c-.2-.2-.5-.4-.9-.4s-.7.1-.9.4c-.2.2-.4.6-.4.9s.1.7.4.9c.2.2.5.4.9.4s.7-.1.9-.4c.2-.2.4-.6.4-.9s-.1-.7-.4-.9ZM330.5,591.8c-.2-.2-.5-.4-.9-.4s-.7.1-.9.4c-.2.2-.4.6-.4.9s.1.7.4.9c.2.2.5.4.9.4s.7-.1.9-.4c.2-.2.4-.6.4-.9s-.1-.7-.4-.9ZM361.8,585.5h8.2v38.5h-9.3v-38.5h1.1ZM367.8,587.7h-4.9v34h4.9v-34ZM349.9,592.7h8.2v31.3h-9.3v-31.3h1.1ZM355.9,594.9h-4.9v26.9h4.9v-26.9ZM338,606.3h8.2v17.7h-9.3v-17.7h1.1ZM344,608.5h-4.9v13.3h4.9v-13.3ZM332.1,604.2h-4.9v17.6h4.9v-17.6Z"/>
          <path class="st8" d="M132,401.9c-3.4-1.9-6.7-2.9-10.7-4-.9-1.4-3.2-4.2-5.9-6.8-3.5-3.5-6.1-5.2-7.7-5.2h-25.7c-2.9,0-6.5,2.5-9,4.8-3.2,3-5.1,6.3-5.1,8.7v13.1c0,2.1,1.7,3.9,3.9,3.9h.9c.4,4,3.8,7.2,7.9,7.2s7.5-3.2,7.9-7.2h22c.4,4,3.8,7.2,7.9,7.2s7.5-3.2,7.9-7.2h3.8c2.1,0,3.9-1.7,3.9-3.9v-7.2c0-1.4-.7-2.7-2-3.4h0ZM80.7,422.1c-3.6,0-6.5-2.9-6.5-6.5s2.9-6.5,6.5-6.5,6.5,2.9,6.5,6.5-2.9,6.5-6.5,6.5ZM118.5,422.1c-3.6,0-6.5-2.9-6.5-6.5s2.9-6.5,6.5-6.5,6.5,2.9,6.5,6.5-2.9,6.5-6.5,6.5ZM132.6,412.5c0,1.4-1.1,2.4-2.5,2.4h-3.8c-.4-4-3.8-7.2-7.9-7.2s-7.5,3.2-7.9,7.2h-22c-.4-4-3.8-7.2-7.9-7.2s-7.5,3.2-7.9,7.2h-.9c-1.4,0-2.5-1.1-2.5-2.4v-13.1c0-2,1.8-5,4.7-7.6,2.8-2.7,6-4.4,8-4.4h25.7c2.6,0,10.8,8.8,12.5,11.6,0,.2.2.3.4.3,4,1,7.3,2,10.6,3.9.8.5,1.3,1.2,1.3,2.1v7.2ZM107.6,395.8h-2.8v-2.5c0-.4-.3-.7-.7-.7h-21.1c-.4,0-.7.3-.7.7v11.2c0,.4.3.7.7.7h21.1c.4,0,.7-.3.7-.7v-2.5h2.8c.4,0,.7-.3.7-.7v-4.7c0-.4-.3-.7-.7-.7ZM89.3,403.7h-5.6v-9.7h5.6v9.7ZM96.3,403.7h-5.6v-9.7s5.6,0,5.6,0v9.7ZM103.3,403.7h-5.6v-9.7h5.6v9.7ZM106.9,400.5h-2.1v-3.3h2.1v3.3Z"/>
          <path class="st7" d="M32.6,304v-14.5h5.2c1.1,0,2.1.2,2.8.6.7.4,1.3.9,1.7,1.6.4.7.6,1.5.6,2.4s-.2,1.7-.6,2.4c-.4.7-.9,1.2-1.7,1.6-.7.4-1.7.6-2.8.6h-3.9v-1.9h3.7c.7,0,1.3-.1,1.7-.3.4-.2.8-.5,1-.9.2-.4.3-.9.3-1.4s-.1-1-.3-1.4c-.2-.4-.5-.7-1-.9-.4-.2-1-.3-1.8-.3h-2.8v12.7h-2.2ZM39.8,297.4l3.6,6.6h-2.5l-3.5-6.6h2.4ZM49.9,304.2c-1.1,0-2-.2-2.8-.7-.8-.5-1.4-1.1-1.8-2-.4-.8-.6-1.8-.6-3s.2-2.1.6-3c.4-.9,1-1.5,1.8-2,.8-.5,1.6-.7,2.7-.7s1.2.1,1.8.3c.6.2,1.1.5,1.6,1,.5.4.8,1,1.1,1.7.3.7.4,1.5.4,2.5v.8h-8.7v-1.6h6.6c0-.6-.1-1.1-.3-1.5-.2-.4-.5-.8-1-1-.4-.3-.9-.4-1.4-.4s-1.1.1-1.6.4c-.4.3-.8.7-1,1.1-.2.5-.4,1-.4,1.5v1.2c0,.7.1,1.3.4,1.9.3.5.6.9,1.1,1.2.5.3,1,.4,1.6.4s.8,0,1.1-.2c.3-.1.6-.3.9-.5.2-.2.4-.5.6-.9l2,.4c-.2.6-.4,1.1-.9,1.6-.4.4-.9.8-1.6,1-.6.2-1.3.4-2.1.4ZM61.5,304.2c-1.1,0-2-.2-2.7-.7-.8-.5-1.3-1.1-1.7-2-.4-.8-.6-1.8-.6-2.9s.2-2.1.6-2.9c.4-.9,1-1.5,1.8-2,.8-.5,1.6-.7,2.7-.7s1.6.2,2.2.5c.6.3,1.2.7,1.6,1.3.4.5.6,1.2.7,1.9h-2.1c-.1-.5-.4-1-.8-1.3-.4-.4-.9-.6-1.6-.6s-1.1.2-1.6.5c-.4.3-.8.7-1,1.3-.2.6-.4,1.2-.4,2s.1,1.5.4,2.1c.2.6.6,1,1,1.3.4.3,1,.5,1.6.5s.8,0,1.1-.2c.3-.2.6-.4.8-.6.2-.3.4-.6.5-1h2.1c0,.7-.3,1.3-.7,1.9-.4.6-.9,1-1.5,1.3-.6.3-1.4.5-2.3.5ZM71.4,304.2c-.7,0-1.3-.1-1.9-.4-.6-.3-1-.6-1.3-1.1-.3-.5-.5-1.1-.5-1.8s.1-1.1.4-1.5c.2-.4.6-.7,1-.9.4-.2.9-.4,1.3-.5.5-.1,1-.2,1.5-.3.7,0,1.2-.1,1.6-.2.4,0,.7-.1.9-.2.2-.1.3-.3.3-.6h0c0-.7-.2-1.2-.5-1.5-.3-.3-.9-.5-1.5-.5s-1.3.2-1.7.5c-.4.3-.7.7-.8,1l-2-.5c.2-.7.6-1.2,1-1.6.5-.4,1-.7,1.6-.9.6-.2,1.2-.3,1.9-.3s.9,0,1.4.2c.5,0,1,.3,1.4.6.4.3.8.7,1.1,1.2.3.5.4,1.1.4,1.9v7.2h-2.1v-1.5h0c-.1.3-.3.5-.6.8-.3.3-.6.5-1.1.7-.4.2-.9.3-1.5.3ZM71.9,302.5c.6,0,1.1-.1,1.5-.3.4-.2.7-.5,1-.9.2-.4.3-.8.3-1.2v-1.4c0,0-.2.1-.4.2-.2,0-.5.1-.7.2-.3,0-.5,0-.8.1-.3,0-.5,0-.7,0-.4,0-.8.1-1.1.3-.3.1-.6.3-.8.5-.2.2-.3.5-.3.9s.2.9.6,1.2c.4.3.9.4,1.5.4ZM79.7,304v-10.9h2.1v1.7h.1c.2-.6.5-1,1.1-1.4.5-.3,1.1-.5,1.7-.5s.3,0,.5,0c.2,0,.3,0,.4,0v2c0,0-.2,0-.5,0-.2,0-.4,0-.7,0-.5,0-.9.1-1.3.3-.4.2-.7.5-.9.9-.2.4-.3.8-.3,1.3v6.7h-2.1ZM91.5,308.3c-.9,0-1.6-.1-2.2-.3-.6-.2-1.1-.5-1.5-.9-.4-.4-.7-.8-.9-1.2l1.8-.8c.1.2.3.4.5.7.2.2.5.4.9.6.4.2.9.2,1.4.2s1.5-.2,2-.6c.5-.4.8-1,.8-1.9v-2.1h-.1c-.1.2-.3.5-.6.8-.2.3-.6.5-1,.7-.4.2-1,.3-1.6.3s-1.6-.2-2.3-.6c-.7-.4-1.2-1-1.6-1.8-.4-.8-.6-1.8-.6-2.9s.2-2.2.6-3c.4-.8.9-1.5,1.6-1.9.7-.4,1.5-.7,2.4-.7s1.2.1,1.6.3c.4.2.7.5,1,.8.2.3.4.6.5.8h.2v-1.8h2.1v11.1c0,.9-.2,1.7-.7,2.3-.4.6-1,1-1.8,1.3-.7.3-1.6.4-2.5.4ZM91.5,302.1c.6,0,1.1-.1,1.5-.4.4-.3.7-.7,1-1.2.2-.5.3-1.2.3-1.9s-.1-1.4-.3-1.9c-.2-.6-.5-1-1-1.3-.4-.3-.9-.5-1.6-.5s-1.2.2-1.6.5c-.4.3-.7.8-1,1.3-.2.6-.3,1.2-.3,1.9s.1,1.3.3,1.9c.2.5.5,1,1,1.3.4.3,1,.5,1.6.5ZM102.5,304.2c-.7,0-1.3-.1-1.9-.4-.6-.3-1-.6-1.3-1.1-.3-.5-.5-1.1-.5-1.8s.1-1.1.4-1.5c.2-.4.6-.7,1-.9.4-.2.9-.4,1.3-.5.5-.1,1-.2,1.5-.3.7,0,1.2-.1,1.6-.2.4,0,.7-.1.9-.2.2-.1.3-.3.3-.6h0c0-.7-.2-1.2-.5-1.5-.3-.3-.9-.5-1.5-.5s-1.3.2-1.7.5c-.4.3-.7.7-.8,1l-2-.5c.2-.7.6-1.2,1-1.6.5-.4,1-.7,1.6-.9.6-.2,1.2-.3,1.9-.3s.9,0,1.4.2c.5,0,1,.3,1.4.6.4.3.8.7,1.1,1.2.3.5.4,1.1.4,1.9v7.2h-2.1v-1.5h0c-.1.3-.3.5-.6.8-.3.3-.6.5-1.1.7-.4.2-.9.3-1.5.3ZM102.9,302.5c.6,0,1.1-.1,1.5-.3.4-.2.7-.5,1-.9.2-.4.3-.8.3-1.2v-1.4c0,0-.2.1-.4.2-.2,0-.5.1-.7.2-.3,0-.5,0-.8.1-.3,0-.5,0-.7,0-.4,0-.8.1-1.1.3-.3.1-.6.3-.8.5-.2.2-.3.5-.3.9s.2.9.6,1.2c.4.3.9.4,1.5.4ZM36.5,328.2c-.9,0-1.7-.2-2.4-.7-.7-.5-1.2-1.1-1.6-1.9-.4-.8-.6-1.9-.6-3s.2-2.2.6-3c.4-.8.9-1.5,1.6-1.9.7-.4,1.5-.7,2.4-.7s1.2.1,1.6.3c.4.2.7.5,1,.8.2.3.4.6.5.8h.1v-5.4h2.1v14.5h-2.1v-1.7h-.2c-.1.2-.3.5-.6.8-.2.3-.6.6-1,.8-.4.2-1,.3-1.6.3ZM37,326.4c.6,0,1.1-.2,1.5-.5.4-.3.7-.8,1-1.4.2-.6.3-1.2.3-2s-.1-1.4-.3-2-.5-1-1-1.3c-.4-.3-.9-.5-1.6-.5s-1.2.2-1.6.5c-.4.3-.7.8-1,1.4-.2.6-.3,1.2-.3,1.9s.1,1.4.3,2c.2.6.5,1,1,1.4.4.3,1,.5,1.6.5ZM49.6,328.2c-1.1,0-2-.2-2.8-.7-.8-.5-1.4-1.1-1.8-2-.4-.8-.6-1.8-.6-3s.2-2.1.6-3c.4-.9,1-1.5,1.8-2,.8-.5,1.6-.7,2.7-.7s1.2.1,1.8.3c.6.2,1.1.5,1.6,1,.5.4.8,1,1.1,1.7.3.7.4,1.5.4,2.5v.8h-8.7v-1.6h6.6c0-.6-.1-1.1-.3-1.5-.2-.4-.5-.8-1-1-.4-.3-.9-.4-1.4-.4s-1.1.1-1.6.4c-.4.3-.8.7-1,1.1-.2.5-.4,1-.4,1.5v1.2c0,.7.1,1.3.4,1.9.3.5.6.9,1.1,1.2.5.3,1,.4,1.6.4s.8,0,1.1-.2c.3-.1.6-.3.9-.5.2-.2.4-.5.6-.9l2,.4c-.2.6-.4,1.1-.9,1.6-.4.4-.9.8-1.6,1-.6.2-1.3.4-2.1.4ZM71.3,317.1l-4,10.9h-2.3l-4-10.9h2.3l2.8,8.4h.1l2.8-8.4h2.3ZM77.6,328.2c-1.1,0-2-.2-2.8-.7-.8-.5-1.4-1.1-1.8-2-.4-.8-.6-1.8-.6-3s.2-2.1.6-3c.4-.9,1-1.5,1.8-2,.8-.5,1.6-.7,2.7-.7s1.2.1,1.8.3c.6.2,1.1.5,1.6,1,.5.4.8,1,1.1,1.7.3.7.4,1.5.4,2.5v.8h-8.7v-1.6h6.6c0-.6-.1-1.1-.3-1.5-.2-.4-.5-.8-1-1-.4-.3-.9-.4-1.4-.4s-1.1.1-1.6.4c-.4.3-.8.7-1,1.1-.2.5-.4,1-.4,1.5v1.2c0,.7.1,1.3.4,1.9.3.5.6.9,1.1,1.2.5.3,1,.4,1.6.4s.8,0,1.1-.2c.3-.1.6-.3.9-.5.2-.2.4-.5.6-.9l2,.4c-.2.6-.4,1.1-.9,1.6-.4.4-.9.8-1.6,1-.6.2-1.3.4-2.1.4ZM86.8,321.5v6.5h-2.1v-14.5h2.1v5.4h.1c.3-.6.6-1.1,1.2-1.4.5-.3,1.2-.5,2.1-.5s1.4.2,2,.5c.6.3,1,.8,1.3,1.4.3.6.5,1.4.5,2.3v6.9h-2.1v-6.7c0-.8-.2-1.4-.6-1.9-.4-.4-1-.7-1.7-.7s-1,.1-1.3.3c-.4.2-.7.5-.9.9-.2.4-.3.9-.3,1.5ZM96.7,328v-10.9h2.1v10.9h-2.1ZM96.9,315.6l1.7-3.3h2.2l-2.2,3.3h-1.7ZM106.3,328.2c-1.1,0-2-.2-2.7-.7-.8-.5-1.3-1.1-1.7-2-.4-.8-.6-1.8-.6-2.9s.2-2.1.6-2.9c.4-.9,1-1.5,1.8-2,.8-.5,1.7-.7,2.7-.7s1.6.2,2.2.5c.6.3,1.2.7,1.6,1.3.4.5.6,1.2.7,1.9h-2.1c-.1-.5-.4-1-.8-1.3-.4-.4-.9-.6-1.6-.6s-1.1.2-1.6.5c-.4.3-.8.7-1,1.3-.2.6-.4,1.2-.4,2s.1,1.5.4,2.1c.2.6.6,1,1,1.3.4.3,1,.5,1.6.5s.8,0,1.1-.2c.3-.2.6-.4.8-.6.2-.3.4-.6.5-1h2.1c0,.7-.3,1.3-.7,1.9-.4.6-.9,1-1.5,1.3-.6.3-1.4.5-2.3.5ZM119.9,323.5v-6.4h2.1v10.9h-2.1v-1.9h-.1c-.3.6-.7,1.1-1.2,1.5-.5.4-1.2.6-2.1.6s-1.3-.2-1.9-.5c-.5-.3-1-.8-1.3-1.4-.3-.6-.5-1.4-.5-2.3v-6.9h2.1v6.7c0,.7.2,1.3.6,1.8.4.4.9.7,1.6.7s.8,0,1.2-.3c.4-.2.7-.5,1-.9.3-.4.4-.9.4-1.5ZM127.1,313.5v14.5h-2.1v-14.5h2.1ZM134.5,328.2c-1,0-1.9-.2-2.7-.7-.8-.5-1.4-1.1-1.8-2-.4-.8-.6-1.8-.6-3s.2-2.1.6-3c.4-.8,1-1.5,1.8-2,.8-.5,1.7-.7,2.7-.7s1.9.2,2.7.7c.8.5,1.4,1.1,1.8,2,.4.8.6,1.8.6,3s-.2,2.1-.6,3c-.4.8-1,1.5-1.8,2-.8.5-1.7.7-2.7.7ZM134.5,326.4c.7,0,1.2-.2,1.6-.5.4-.3.8-.8,1-1.4.2-.6.3-1.2.3-1.9s-.1-1.3-.3-1.9c-.2-.6-.5-1.1-1-1.4-.4-.4-1-.5-1.6-.5s-1.2.2-1.7.5c-.4.4-.8.8-1,1.4-.2.6-.3,1.2-.3,1.9s.1,1.3.3,1.9c.2.6.5,1,1,1.4.4.4,1,.5,1.7.5ZM150.1,319.8l-1.9.3c0-.2-.2-.5-.4-.7-.2-.2-.4-.4-.7-.5-.3-.1-.7-.2-1.1-.2s-1.1.1-1.5.4c-.4.3-.6.6-.6,1s.1.7.4.9c.3.2.7.4,1.3.5l1.7.4c1,.2,1.8.6,2.2,1.1.5.5.7,1.1.7,1.9s-.2,1.2-.6,1.7c-.4.5-.9.9-1.6,1.2-.7.3-1.4.4-2.3.4s-2.2-.3-3-.8c-.8-.5-1.2-1.3-1.4-2.2l2.1-.3c.1.5.4.9.8,1.2.4.3.9.4,1.6.4s1.3-.1,1.7-.4c.4-.3.6-.7.6-1.1s-.1-.6-.4-.9c-.3-.2-.6-.4-1.2-.5l-1.8-.4c-1-.2-1.8-.6-2.3-1.1-.5-.5-.7-1.1-.7-1.9s.2-1.2.5-1.7.9-.9,1.5-1.1c.6-.3,1.4-.4,2.2-.4,1.2,0,2.1.3,2.8.8.7.5,1.1,1.2,1.3,2ZM37.1,352.2c-1.1,0-2-.2-2.8-.7-.8-.5-1.4-1.1-1.8-2-.4-.8-.6-1.8-.6-3s.2-2.1.6-3c.4-.9,1-1.5,1.8-2,.8-.5,1.6-.7,2.7-.7s1.2.1,1.8.3c.6.2,1.1.5,1.6,1,.5.4.8,1,1.1,1.7.3.7.4,1.5.4,2.5v.8h-8.7v-1.6h6.6c0-.6-.1-1.1-.3-1.5-.2-.4-.5-.8-1-1-.4-.3-.9-.4-1.4-.4s-1.1.1-1.6.4c-.4.3-.8.7-1,1.1-.2.5-.4,1-.4,1.5v1.2c0,.7.1,1.3.4,1.9.3.5.6.9,1.1,1.2.5.3,1,.4,1.6.4s.8,0,1.1-.2c.3-.1.6-.3.9-.5.2-.2.4-.5.6-.9l2,.4c-.2.6-.4,1.1-.9,1.6-.4.4-.9.8-1.6,1-.6.2-1.3.4-2.1.4ZM46.3,337.5v14.5h-2.1v-14.5h2.1ZM53.8,352.2c-1.1,0-2-.2-2.8-.7-.8-.5-1.4-1.1-1.8-2-.4-.8-.6-1.8-.6-3s.2-2.1.6-3c.4-.9,1-1.5,1.8-2,.8-.5,1.6-.7,2.7-.7s1.2.1,1.8.3c.6.2,1.1.5,1.6,1,.5.4.8,1,1.1,1.7.3.7.4,1.5.4,2.5v.8h-8.7v-1.6h6.6c0-.6-.1-1.1-.3-1.5-.2-.4-.5-.8-1-1-.4-.3-.9-.4-1.4-.4s-1.1.1-1.6.4c-.4.3-.8.7-1,1.1-.2.5-.4,1-.4,1.5v1.2c0,.7.1,1.3.4,1.9.3.5.6.9,1.1,1.2.5.3,1,.4,1.6.4s.8,0,1.1-.2c.3-.1.6-.3.9-.5.2-.2.4-.5.6-.9l2,.4c-.2.6-.4,1.1-.9,1.6-.4.4-.9.8-1.6,1-.6.2-1.3.4-2.1.4ZM52.7,339.6l1.7-3.3h2.2l-2.2,3.3h-1.7ZM65.5,352.2c-1.1,0-2-.2-2.7-.7-.8-.5-1.3-1.1-1.7-2-.4-.8-.6-1.8-.6-2.9s.2-2.1.6-2.9c.4-.9,1-1.5,1.8-2,.8-.5,1.7-.7,2.7-.7s1.6.2,2.2.5c.6.3,1.2.7,1.6,1.3.4.5.6,1.2.7,1.9h-2.1c-.1-.5-.4-1-.8-1.3-.4-.4-.9-.6-1.6-.6s-1.1.2-1.6.5c-.4.3-.8.7-1,1.3-.2.6-.4,1.2-.4,2s.1,1.5.4,2.1c.2.6.6,1,1,1.3.4.3,1,.5,1.6.5s.8,0,1.1-.2c.3-.2.6-.4.8-.6.2-.3.4-.6.5-1h2.1c0,.7-.3,1.3-.7,1.9-.4.6-.9,1-1.5,1.3-.6.3-1.4.5-2.3.5ZM77.3,341.1v1.7h-6v-1.7h6ZM73,338.5h2.1v10.3c0,.4,0,.7.2.9.1.2.3.3.5.4.2,0,.4.1.6.1s.3,0,.4,0c.1,0,.2,0,.3,0l.4,1.8c-.1,0-.3,0-.5.1-.2,0-.5,0-.9,0-.6,0-1.1,0-1.6-.3-.5-.2-.9-.5-1.2-1-.3-.4-.4-1-.4-1.6v-10.8ZM79.7,352v-10.9h2.1v1.7h.1c.2-.6.5-1,1.1-1.4.5-.3,1.1-.5,1.7-.5s.3,0,.5,0c.2,0,.3,0,.4,0v2c0,0-.2,0-.5,0-.2,0-.4,0-.7,0-.5,0-.9.1-1.3.3-.4.2-.7.5-.9.9-.2.4-.3.8-.3,1.3v6.7h-2.1ZM87.3,352v-10.9h2.1v10.9h-2.1ZM88.4,339.4c-.4,0-.7-.1-1-.4-.3-.3-.4-.5-.4-.9s.1-.6.4-.9c.3-.3.6-.4,1-.4s.7.1.9.4c.3.2.4.5.4.9s-.1.6-.4.9c-.3.2-.6.4-.9.4ZM96.9,352.2c-1.1,0-2-.2-2.7-.7-.8-.5-1.3-1.1-1.7-2-.4-.8-.6-1.8-.6-2.9s.2-2.1.6-2.9c.4-.9,1-1.5,1.8-2,.8-.5,1.7-.7,2.7-.7s1.6.2,2.2.5c.6.3,1.2.7,1.6,1.3.4.5.6,1.2.7,1.9h-2.1c-.1-.5-.4-1-.8-1.3-.4-.4-.9-.6-1.6-.6s-1.1.2-1.6.5c-.4.3-.8.7-1,1.3-.2.6-.4,1.2-.4,2s.1,1.5.4,2.1c.2.6.6,1,1,1.3.4.3,1,.5,1.6.5s.8,0,1.1-.2c.3-.2.6-.4.8-.6.2-.3.4-.6.5-1h2.1c0,.7-.3,1.3-.7,1.9-.4.6-.9,1-1.5,1.3-.6.3-1.4.5-2.3.5ZM108.3,352.2c-1,0-1.9-.2-2.7-.7s-1.4-1.1-1.8-2c-.4-.8-.6-1.8-.6-3s.2-2.1.6-3c.4-.8,1-1.5,1.8-2s1.7-.7,2.7-.7,1.9.2,2.7.7c.8.5,1.4,1.1,1.8,2,.4.8.6,1.8.6,3s-.2,2.1-.6,3c-.4.8-1,1.5-1.8,2-.8.5-1.7.7-2.7.7ZM108.3,350.4c.7,0,1.2-.2,1.6-.5.4-.3.8-.8,1-1.4.2-.6.3-1.2.3-1.9s-.1-1.3-.3-1.9c-.2-.6-.5-1.1-1-1.4-.4-.4-1-.5-1.6-.5s-1.2.2-1.7.5c-.4.4-.8.8-1,1.4-.2.6-.3,1.2-.3,1.9s.1,1.3.3,1.9c.2.6.5,1,1,1.4.4.4,1,.5,1.7.5ZM123.9,343.8l-1.9.3c0-.2-.2-.5-.4-.7-.2-.2-.4-.4-.7-.5-.3-.1-.7-.2-1.1-.2s-1.1.1-1.5.4c-.4.3-.6.6-.6,1s.1.7.4.9c.3.2.7.4,1.3.5l1.7.4c1,.2,1.8.6,2.2,1.1.5.5.7,1.1.7,1.9s-.2,1.2-.6,1.7c-.4.5-.9.9-1.6,1.2-.7.3-1.4.4-2.3.4s-2.2-.3-3-.8c-.8-.5-1.2-1.3-1.4-2.2l2.1-.3c.1.5.4.9.8,1.2.4.3.9.4,1.6.4s1.3-.1,1.7-.4c.4-.3.6-.7.6-1.1s-.1-.6-.4-.9c-.3-.2-.6-.4-1.2-.5l-1.8-.4c-1-.2-1.8-.6-2.3-1.1-.5-.5-.7-1.1-.7-1.9s.2-1.2.5-1.7c.4-.5.9-.9,1.5-1.1.6-.3,1.4-.4,2.2-.4,1.2,0,2.1.3,2.8.8.7.5,1.1,1.2,1.3,2Z"/>
          <path class="st7" d="M261.8,105h-2.3l5.2-14.5h2.5l5.2,14.5h-2.3l-4.1-11.9h-.1l-4.1,11.9ZM262.2,99.3h7.6v1.8h-7.6v-1.8ZM281.3,100.5v-6.4h2.1v10.9h-2.1v-1.9h-.1c-.3.6-.7,1.1-1.2,1.5-.5.4-1.2.6-2.1.6s-1.3-.2-1.9-.5c-.5-.3-1-.8-1.3-1.4-.3-.6-.5-1.4-.5-2.3v-6.9h2.1v6.7c0,.7.2,1.3.6,1.8.4.4.9.7,1.6.7s.8,0,1.2-.3c.4-.2.7-.5,1-.9.3-.4.4-.9.4-1.5ZM291.4,94.1v1.7h-6v-1.7h6ZM287.1,91.5h2.1v10.3c0,.4,0,.7.2.9.1.2.3.3.5.4.2,0,.4.1.6.1s.3,0,.4,0c.1,0,.2,0,.3,0l.4,1.8c-.1,0-.3,0-.5.1-.2,0-.5,0-.9,0-.6,0-1.1,0-1.6-.3-.5-.2-.9-.5-1.2-1-.3-.4-.4-1-.4-1.6v-10.8ZM298.2,105.2c-1,0-1.9-.2-2.7-.7s-1.4-1.1-1.8-2c-.4-.8-.6-1.8-.6-3s.2-2.1.6-3c.4-.8,1-1.5,1.8-2,.8-.5,1.7-.7,2.7-.7s1.9.2,2.7.7c.8.5,1.4,1.1,1.8,2,.4.8.6,1.8.6,3s-.2,2.1-.6,3c-.4.8-1,1.5-1.8,2s-1.7.7-2.7.7ZM298.3,103.4c.7,0,1.2-.2,1.6-.5.4-.4.8-.8,1-1.4.2-.6.3-1.2.3-1.9s-.1-1.3-.3-1.9c-.2-.6-.5-1.1-1-1.4-.4-.4-1-.5-1.6-.5s-1.2.2-1.7.5c-.4.4-.8.8-1,1.4-.2.6-.3,1.2-.3,1.9s.1,1.3.3,1.9c.2.6.5,1,1,1.4.4.3,1,.5,1.7.5ZM310.3,105.2c-1.1,0-2-.2-2.7-.7-.8-.5-1.3-1.1-1.7-2-.4-.8-.6-1.8-.6-2.9s.2-2.1.6-2.9c.4-.9,1-1.5,1.8-2,.8-.5,1.7-.7,2.7-.7s1.6.2,2.2.5c.6.3,1.2.7,1.6,1.3.4.5.6,1.2.7,1.9h-2.1c-.1-.5-.4-1-.8-1.3-.4-.4-.9-.6-1.6-.6s-1.1.2-1.6.5c-.4.3-.8.7-1,1.3-.2.6-.4,1.2-.4,2s.1,1.5.4,2.1c.2.6.6,1,1,1.3.4.3,1,.5,1.6.5s.8,0,1.1-.2c.3-.2.6-.4.8-.6.2-.3.4-.6.5-1h2.1c0,.7-.3,1.3-.7,1.9-.4.6-.9,1-1.5,1.3-.6.3-1.4.5-2.3.5ZM321.6,105.2c-1,0-1.9-.2-2.7-.7-.8-.5-1.4-1.1-1.8-2-.4-.8-.6-1.8-.6-3s.2-2.1.6-3c.4-.8,1-1.5,1.8-2,.8-.5,1.7-.7,2.7-.7s1.9.2,2.7.7c.8.5,1.4,1.1,1.8,2,.4.8.6,1.8.6,3s-.2,2.1-.6,3c-.4.8-1,1.5-1.8,2-.8.5-1.7.7-2.7.7ZM321.7,103.4c.7,0,1.2-.2,1.6-.5.4-.4.8-.8,1-1.4.2-.6.3-1.2.3-1.9s-.1-1.3-.3-1.9c-.2-.6-.5-1.1-1-1.4-.4-.4-1-.5-1.6-.5s-1.2.2-1.7.5c-.4.4-.8.8-1,1.4-.2.6-.3,1.2-.3,1.9s.1,1.3.3,1.9c.2.6.5,1,1,1.4.4.3,1,.5,1.7.5ZM331.2,98.5v6.5h-2.1v-10.9h2v1.8h.1c.3-.6.6-1,1.2-1.4.5-.4,1.2-.5,2-.5s1.4.2,2,.5c.6.3,1,.8,1.3,1.4.3.6.5,1.4.5,2.3v6.9h-2.1v-6.7c0-.8-.2-1.4-.6-1.9-.4-.4-1-.7-1.7-.7s-.9.1-1.3.3c-.4.2-.7.5-.9.9-.2.4-.3.9-.3,1.5ZM349.2,96.8l-1.9.3c0-.2-.2-.5-.4-.7-.2-.2-.4-.4-.7-.5-.3-.1-.7-.2-1.1-.2s-1.1.1-1.5.4c-.4.3-.6.6-.6,1s.1.7.4.9c.3.2.7.4,1.3.5l1.7.4c1,.2,1.8.6,2.2,1.1.5.5.7,1.1.7,1.9s-.2,1.2-.6,1.7c-.4.5-.9.9-1.6,1.2-.7.3-1.4.4-2.3.4s-2.2-.3-3-.8c-.8-.5-1.2-1.3-1.4-2.2l2.1-.3c.1.5.4.9.8,1.2.4.3.9.4,1.6.4s1.3-.1,1.7-.4c.4-.3.6-.7.6-1.1s-.1-.6-.4-.9c-.3-.2-.6-.4-1.2-.5l-1.8-.4c-1-.2-1.8-.6-2.3-1.1-.5-.5-.7-1.1-.7-1.9s.2-1.2.5-1.7c.4-.5.9-.9,1.5-1.1.6-.3,1.4-.4,2.2-.4,1.2,0,2.1.3,2.8.8.7.5,1.1,1.2,1.3,2ZM358.7,100.5v-6.4h2.1v10.9h-2.1v-1.9h-.1c-.3.6-.7,1.1-1.2,1.5-.5.4-1.2.6-2.1.6s-1.3-.2-1.9-.5c-.5-.3-1-.8-1.3-1.4-.3-.6-.5-1.4-.5-2.3v-6.9h2.1v6.7c0,.7.2,1.3.6,1.8.4.4.9.7,1.6.7s.8,0,1.2-.3c.4-.2.7-.5,1-.9.3-.4.4-.9.4-1.5ZM363.7,105v-10.9h2v1.8h.1c.2-.6.6-1.1,1.1-1.4.5-.3,1.1-.5,1.9-.5s1.3.2,1.8.5c.5.3.9.8,1.1,1.4h.1c.3-.6.7-1,1.2-1.4.6-.4,1.2-.5,2-.5s1.8.3,2.4.9c.6.6.9,1.6.9,2.8v7.3h-2.1v-7.1c0-.7-.2-1.3-.6-1.6-.4-.3-.9-.5-1.4-.5s-1.2.2-1.6.6c-.4.4-.6,1-.6,1.6v7h-2.1v-7.3c0-.6-.2-1.1-.6-1.4-.4-.4-.8-.5-1.4-.5s-.8.1-1.1.3c-.3.2-.6.5-.8.9-.2.4-.3.8-.3,1.3v6.7h-2.1ZM385.9,105.2c-1,0-1.9-.2-2.7-.7s-1.4-1.1-1.8-2c-.4-.8-.6-1.8-.6-3s.2-2.1.6-3c.4-.8,1-1.5,1.8-2,.8-.5,1.7-.7,2.7-.7s1.9.2,2.7.7c.8.5,1.4,1.1,1.8,2,.4.8.6,1.8.6,3s-.2,2.1-.6,3c-.4.8-1,1.5-1.8,2-.8.5-1.7.7-2.7.7ZM385.9,103.4c.7,0,1.2-.2,1.6-.5.4-.4.8-.8,1-1.4.2-.6.3-1.2.3-1.9s-.1-1.3-.3-1.9c-.2-.6-.5-1.1-1-1.4-.4-.4-1-.5-1.6-.5s-1.2.2-1.7.5c-.4.4-.8.8-1,1.4-.2.6-.3,1.2-.3,1.9s.1,1.3.3,1.9c.2.6.5,1,1,1.4.4.3,1,.5,1.7.5Z"/>
          <g class="st14">
            <g>
              <path class="st2" d="M157.6,110c-2.8-2.4-4.5-5.8-4.5-9.7,0-7.1,5.8-12.8,13-12.8s7.6,1.8,10,4.7c.5.6,1.4.7,2,.2.6-.5.7-1.4.2-1.9-2.9-3.5-7.3-5.7-12.1-5.7-8.7,0-15.7,7-15.7,15.6s2.1,9,5.5,11.8c.6.5,1.5.4,2-.2.5-.6.4-1.4-.2-1.9Z"/>
              <path class="st2" d="M164.6,75.8v4.4c0,.8.6,1.4,1.4,1.4s1.4-.6,1.4-1.4v-4.4c0-.8-.6-1.4-1.4-1.4s-1.4.6-1.4,1.4Z"/>
              <path class="st2" d="M147.6,84l3.1,3.1c.5.5,1.4.5,2,0,.5-.5.5-1.4,0-1.9l-3.1-3.1c-.5-.5-1.4-.5-2,0-.5.5-.5,1.4,0,1.9Z"/>
              <path class="st2" d="M182.5,82l-3.1,3.1c-.5.5-.5,1.4,0,1.9.5.5,1.4.5,2,0l3.1-3.1c.5-.5.5-1.4,0-1.9-.5-.5-1.4-.5-2,0Z"/>
              <path class="st2" d="M150.7,113.5l-3.1,3.1c-.5.5-.5,1.4,0,1.9.5.5,1.4.5,2,0l3.1-3.1c.5-.5.5-1.4,0-1.9-.5-.5-1.4-.5-2,0Z"/>
              <path class="st2" d="M141.3,101.7h4.4c.8,0,1.4-.6,1.4-1.4s-.6-1.4-1.4-1.4h-4.4c-.8,0-1.4.6-1.4,1.4s.6,1.4,1.4,1.4Z"/>
              <path class="st2" d="M160.3,139.7v7.4c0,1.1.4,2.2,1.2,3s1.9,1.2,3,1.2h1.4c1.1,0,2.2-.4,3-1.2.8-.8,1.2-1.8,1.2-3v-12.9c0-.8-.6-1.4-1.4-1.4s-1.4.6-1.4,1.4v12.9c0,.4-.2.7-.4,1-.3.3-.6.4-1,.4h-1.4c-.4,0-.8-.1-1-.4-.3-.3-.4-.6-.4-1v-7.4c0-.8-.6-1.4-1.4-1.4s-1.4.6-1.4,1.4Z"/>
              <path class="st2" d="M208.4,125.7v21.4c0,1.1.4,2.2,1.2,3,.8.8,1.9,1.2,3,1.2h1.4c1.1,0,2.2-.4,3-1.2s1.2-1.8,1.2-3v-37.9c0-.8-.6-1.4-1.4-1.4s-1.4.6-1.4,1.4v37.9c0,.4-.2.7-.4,1-.3.3-.6.4-1,.4h-1.4c-.4,0-.8-.2-1-.4-.3-.3-.4-.6-.4-1v-21.4c0-.8-.6-1.4-1.4-1.4s-1.4.6-1.4,1.4Z"/>
              <path class="st2" d="M152.3,121.3l-6.3,7.4c-1.1,1.2-1.3,3-.6,4.5.7,1.5,2.2,2.4,3.8,2.4h43.7c2.1,0,4-.9,5.4-2.5,5.6-6.5,23.2-27.1,29.2-34.1.7-.8.9-2,.4-3-.5-1-1.5-1.6-2.6-1.6h-48c-1.2,0-2.4.5-3.2,1.5l-18.4,21.5c-.5.6-.4,1.5.2,1.9.6.5,1.5.4,2-.2l18.4-21.5c.3-.3.7-.5,1.1-.5h48s0,0,0,0c0,0,0,0,0,0l-29.2,34.1c-.8,1-2,1.5-3.3,1.5h-43.7c-.6,0-1.1-.3-1.3-.8-.2-.5-.2-1.1.2-1.5l6.3-7.4c.5-.6.4-1.4-.2-1.9-.6-.5-1.5-.4-2,.2Z"/>
              <path class="st2" d="M178,135.1l32.8-38.4c.5-.6.4-1.4-.2-1.9-.6-.5-1.5-.4-2,.2l-32.8,38.4c-.5.6-.4,1.4.2,1.9.6.5,1.5.4,2-.2Z"/>
              <path class="st2" d="M159,135.1l32.8-38.4c.5-.6.4-1.4-.2-1.9-.6-.5-1.5-.4-2,.2l-32.8,38.4c-.5.6-.4,1.4.2,1.9.6.5,1.5.4,2-.2Z"/>
              <path class="st2" d="M162.2,121.1h45c.8,0,1.4-.6,1.4-1.4s-.6-1.4-1.4-1.4h-45c-.8,0-1.4.6-1.4,1.4s.6,1.4,1.4,1.4Z"/>
              <path class="st2" d="M171.9,109.6h45.9c.8,0,1.4-.6,1.4-1.4s-.6-1.4-1.4-1.4h-45.9c-.8,0-1.4.6-1.4,1.4s.6,1.4,1.4,1.4Z"/>
            </g>
          </g>
          <path class="st10" d="M558.3,449.5l-4,4c-.5.4-.8,1-.9,1.6,0,.6,0,1.2.3,1.8l5.6,5.4c.8.8,2.3.5,3.4-.6l3.8-4.1M594.4,449.5c-6.9,5.6-13.8,4-17.3,4s-3.7.7-6.2,3.4c-.3.3-.7.6-1.1.8-.4.2-.9.3-1.3.3s-.9,0-1.3-.3c-.4-.2-.8-.5-1.2-.8l-6.9-6.8c-.4-.3-.6-.8-.8-1.2-.2-.4-.3-.9-.3-1.4,0-.5,0-.9.3-1.4.2-.4.5-.8.8-1.1,2.7-2.5,3.4-3,3.4-6.2s-1.9-11.7,6-19.6c1.9-1.9,4.2-3.4,6.7-4.4,2.6-1,5.3-1.5,8.1-1.4,2.8,0,5.5.7,8,1.9,2.5,1.2,4.7,2.9,6.5,5,2.7,3.2,4.4,7.1,4.7,11.2.4,4.1-.5,8.3-2.6,11.9-1.4,2.4-3.2,4.5-5.5,6.1h0Z"/>
          <path class="st10" d="M586.7,421.7l-13.5,11.4c-.1,0-.2.2-.3.3,0,.1,0,.3,0,.4,0,.1,0,.3.2.4.1,0,.2,0,.4,0l7.8,1.8-3.4,9c0,0,0,.1,0,.2h.1s.2,0,.2,0l13.5-11.4c.1,0,.2,0,.3,0,.1,0,.2-.1.2-.2,0-.1.1-.3,0-.4,0-.1,0-.3-.2-.4-.1,0-.2,0-.4,0l-7.7-1.8,3.1-8.9s0,0,0,0,0,0,0,0h-.2s-.2-.2-.2-.2Z"/>
          <path class="st11" d="M490,134.3v21.3M506,155.7h-32"/>
          <path class="st11" d="M490,134.3c2.2,0,4-1.8,4-4s-1.8-4-4-4-4,1.8-4,4,1.8,4,4,4Z"/>
          <path class="st11" d="M490,118.3c2.9,0,5.3-3.6,5.3-8s-2.4-8-5.3-8-5.3,3.6-5.3,8,2.4,8,5.3,8Z"/>
          <path class="st11" d="M504,144.9c-3.8-2.2-5.7-6-4.2-8.5,1.5-2.5,5.7-2.8,9.5-.6,3.8,2.2,5.7,6,4.2,8.5-1.5,2.5-5.7,2.8-9.5.6ZM476,144.9c3.8-2.2,5.7-6,4.2-8.5-1.5-2.5-5.7-2.8-9.5-.6-3.8,2.2-5.7,6-4.2,8.5,1.5,2.5,5.7,2.8,9.5.6Z"/>
          <path class="st12" d="M490,118.3v8M492.7,131.7l8,5.3M487.3,131.7l-8,5.3"/>
          <path class="st11" d="M478,105c-7.2,4-12,11.5-12,20.1,0,1.3.1,2.6.3,3.9M502,105c7.2,4,12,11.5,12,20.1,0,1.3-.1,2.6-.3,3.9"/>
        </g>
      </g>
    </g>
  </g>
</svg>