<svg width="762" height="382" viewBox="0 0 762 382" fill="none" xmlns="http://www.w3.org/2000/svg">
<circle cx="652.5" cy="59.5" r="7.5" fill="#019AD8"/>
<path d="M8.5 156.5C20.5 241.167 124.3 420.3 223.5 373.5C250.167 361.167 261.5 358.5 314.5 219.5C380.336 46.8359 522.5 176.5 605 292C614.769 305.677 731 403 757.5 198.5C778.7 34.8999 702.5 51.5 655 59.0003" stroke="#019AD8" stroke-dasharray="4 4"/>
<path d="M715.393 44.7889C714.259 44.7889 713.41 44.5861 712.695 44.2756L713.007 43.4053C713.582 41.8037 714.194 40.0957 714.656 38.5039C714.754 38.3786 714.804 38.217 714.78 38.0475C715.145 36.719 715.393 35.4854 715.393 34.4995C715.393 34.1648 715.121 33.8942 714.786 33.8942H702.516L691.686 0.419189C691.593 0.135928 691.304 -0.0377812 691.014 0.00700791C690.718 0.0542181 690.5 0.307822 690.5 0.605609V33.8942H689.286V0.605609C689.286 0.324769 689.093 0.0808493 688.818 0.0166919C688.544 -0.048676 688.261 0.0832707 688.135 0.334453L671.304 33.8942H666.27C665.934 33.8942 665.663 34.1648 665.663 34.4995C665.663 37.2528 666.331 39.4487 667.875 41.4509C667.231 41.2717 666.498 41.1573 665.607 41.1573C665.271 41.1573 665 41.4279 665 41.7626C665 42.0973 665.271 42.3678 665.607 42.3678C667.897 42.3678 669.028 43.1928 670.226 44.0668C670.828 44.5068 671.446 44.9493 672.196 45.3027C672.251 45.3397 672.301 45.376 672.357 45.4135C672.461 45.4825 672.577 45.5158 672.694 45.5158C672.697 45.5158 672.701 45.5146 672.705 45.5146C673.476 45.8051 674.386 46 675.561 46C678.248 46 679.596 45.0177 680.899 44.0674C682.096 43.1928 683.227 42.3678 685.517 42.3678C687.808 42.3678 688.94 43.1928 690.137 44.0668C691.44 45.0171 692.788 45.9994 695.474 45.9994C698.163 45.9994 699.509 45.0171 700.813 44.0674C702.011 43.1928 703.142 42.3678 705.435 42.3678C707.725 42.3678 708.857 43.1928 710.054 44.0668C711.358 45.0171 712.704 45.9994 715.393 45.9994C715.729 45.9994 716 45.7288 716 45.3941C716 45.0594 715.729 44.7889 715.393 44.7889ZM691.714 4.45384L701.24 33.8942H691.714V4.45384ZM688.071 3.16948V33.8942H672.662L688.071 3.16948ZM671.679 35.1047H688.679H691.107H702.074H702.086H714.148C714.08 35.71 713.897 36.6808 713.65 37.5917C694.545 40.1714 667.76 37.556 667.49 37.5288C667.407 37.5221 667.326 37.5318 667.251 37.5548C667.044 36.7928 666.925 35.71 666.889 35.1047H671.679ZM705.435 41.1573C702.746 41.1573 701.399 42.1397 700.096 43.0899C698.898 43.9639 697.766 44.7889 695.474 44.7889C693.183 44.7889 692.052 43.9639 690.855 43.0899C689.552 42.1397 688.206 41.1573 685.517 41.1573C682.83 41.1573 681.483 42.1397 680.181 43.0893C678.983 43.9639 677.852 44.7889 675.561 44.7889C674.389 44.7889 673.524 44.5716 672.794 44.2435C670.162 42.4526 668.536 40.7579 667.673 38.7629C669.626 38.9457 680.86 39.9389 693.479 39.9389C700.084 39.9389 707.061 39.6593 713.284 38.8549C712.864 40.2101 712.35 41.6433 711.864 42.9967L711.618 43.6843C711.329 43.4948 711.051 43.2945 710.771 43.0905C709.47 42.1397 708.122 41.1573 705.435 41.1573Z" fill="#019AD8"/>
<circle cx="8" cy="150" r="4" fill="#019AD8"/>
<circle cx="8" cy="150" r="7.5" stroke="#019AD8"/>
</svg>
