<svg width="653" height="443" viewBox="0 0 653 443" fill="none" xmlns="http://www.w3.org/2000/svg">
<path d="M136.378 246.358C135.488 247.919 133.811 248.89 132.017 248.793C130.787 248.727 129.659 248.844 128.993 249.887L123.266 258.895C121.93 260.995 121.391 263.501 121.747 265.967L122.971 275.784C121.996 277.508 119.795 278.092 118.093 277.081L95.6053 262.729L92.3224 260.634C90.9655 259.765 90.0253 258.377 89.7255 256.796L88.0027 247.7C87.7842 246.562 87.027 245.596 85.97 245.123L80.0089 242.439C78.464 241.742 76.665 241.971 75.3437 243.028L67.1567 249.581C65.6728 250.771 63.7061 251.173 61.8715 250.664L45.4823 246.124C43.8409 245.641 42.0825 245.784 40.5427 246.521L25.3833 258.265C23.9909 258.931 22.4206 259.124 20.9112 258.804L11.1743 255.794C1.77275 255.031 34.3682 197.786 50.051 172.163C53.5626 166.423 47.2966 160.063 50.366 153.855C54.2893 145.924 58.5174 138.243 64.7631 132.406C67.2228 130.108 84.5521 127.541 87.149 125.39C98.9746 115.593 99.0305 107.683 111.73 101.409C113.133 100.718 115.232 101.735 116.116 103.021L121.706 111.155L129.248 126.244C129.969 127.688 131.041 128.924 132.368 129.839L170.772 156.367C172.073 157.262 172.51 158.98 171.804 160.393L164.658 174.684C163.916 176.174 164.333 177.979 165.654 178.985L170.701 182.829C172.617 184.293 173.166 186.947 171.976 189.047L160.898 189.362C158.967 189.418 157.213 190.491 156.278 192.178L150.683 202.321C150.012 203.541 149.723 204.934 149.86 206.322L151.456 222.601C151.608 224.136 151.278 225.677 150.52 227.019L148.854 229.973C148.046 231.401 146.765 232.428 145.301 232.937C144.265 233.298 143.396 234.025 142.857 234.975L136.383 246.358H136.378Z" fill="#007EAE" stroke="white" stroke-width="4" stroke-miterlimit="10" stroke-linecap="round"/>
<path d="M134.69 419.391C136.047 421.018 134.512 423.438 132.464 422.899C100.448 414.445 76.8323 401.816 54.6192 376.539C52.4442 374.068 57.6684 365.405 55.6356 362.812C53.6791 360.316 46.2747 348.129 44.4554 345.526C40.5779 339.98 28.5642 342.801 25.3677 336.823C14.8482 317.133 8.18068 295.241 6.52397 272.104C6.40709 270.467 7.88084 269.17 9.48673 269.491L23.3705 272.073C25.4135 272.485 27.5377 272.053 29.2605 270.873L42.3566 261.905C43.998 260.782 46.0765 260.487 47.967 261.117L62.1557 265.851C62.8316 266.074 63.5787 265.901 64.0818 265.393L71.0084 258.464C72.1925 257.279 73.9102 256.806 75.5313 257.208L77.6607 257.742C79.8154 258.28 81.3552 260.167 81.467 262.383C81.6805 266.491 80.0492 271.819 82.0616 272.826L114.815 291.062C116.4 291.957 117.015 293.929 116.222 295.566L107.654 313.081C106.887 314.652 105.53 315.856 103.883 316.436L76.3038 326.146C73.1123 327.677 71.3591 331.174 72.035 334.652L74.4286 346.945L134.695 419.391H134.69Z" fill="#007EAE" stroke="white" stroke-width="4" stroke-miterlimit="10" stroke-linecap="round"/>
<path d="M96.7989 345.019L96.0671 343.188C94.8068 340.036 96.4381 336.467 99.6448 335.359L121.7 327.738L141.352 289.776C142.226 288.088 142.328 286.111 141.637 284.341L137.988 274.992C137.322 273.284 137.358 271.382 138.089 269.7L140.346 264.509C141.276 262.369 143.766 261.392 145.9 262.333L149.742 264.021C152.009 265.017 154.657 264.082 155.795 261.88L161.212 251.59C162.401 249.293 165.237 248.403 167.529 249.608L204.403 269.049C207.219 270.533 209.089 273.345 209.374 276.517L210.07 284.296C210.415 288.18 212.931 291.53 216.559 292.949L231.515 298.805C233.157 299.446 234.931 299.685 236.684 299.492L253.012 297.717C255.868 297.407 258.755 297.946 261.306 299.263L280.896 309.38L328.473 334.464C331.294 335.949 332.386 339.436 330.923 342.268C321.587 360.367 311.612 371.47 296.661 385.014C288.87 392.071 258.648 374.755 249.256 379.595C240.546 384.084 234.326 389.737 223.339 395.863C216.905 399.453 228.476 422.752 221.179 424.415C209.048 427.186 196.415 428.655 183.446 428.655C177.429 428.655 171.488 428.34 165.639 427.725C163.748 427.526 162.01 426.581 160.826 425.096L96.804 345.024L96.7989 345.019Z" fill="#F4C00F"/>
<path d="M167.545 226.546L164.897 216.393C163.982 213.648 163.271 210.145 164.897 207.751L169.15 201.314C170.335 199.57 172.149 198.36 174.212 197.928L185.311 195.62C189.295 192.494 189.661 191.533 192.853 193.002L201.939 196.413C204.267 197.486 206.909 197.633 209.338 196.825L279.306 173.495C280.922 172.956 282.66 172.915 284.302 173.373L335.283 187.643C336.996 188.121 338.394 189.367 339.085 191.009C342.418 198.96 345.168 207.217 347.267 215.727C348.664 221.401 328.24 225.758 329.048 231.64C329.683 236.261 338.704 245.875 342.261 250.451C344.131 252.856 352.171 253.217 352.171 256.297C352.171 258.056 352.145 259.805 352.089 261.554C351.601 277.543 348.888 292.968 344.253 307.539C342.977 311.55 338.414 313.467 334.648 311.586L260.34 274.366C258.851 273.618 257.159 273.39 255.523 273.705L241.034 276.501C240.186 276.664 239.306 276.542 238.534 276.155L227.608 270.685C226.485 270.126 225.687 269.078 225.438 267.848L223.324 257.355C223.105 256.282 222.409 255.372 221.433 254.879L169.364 228.798C168.459 228.346 167.799 227.527 167.545 226.551V226.546Z" fill="#007EAE" stroke="white" stroke-width="4" stroke-miterlimit="10" stroke-linecap="round"/>
<path d="M333.109 169.113C322.289 151.792 311.983 138.502 296.448 125.457C294.049 123.444 291.595 121.496 289.089 119.615C284.653 116.29 275.978 119.788 271.216 116.901C264.478 112.818 257.429 109.193 250.116 106.072C245.212 103.977 244.257 95.5021 239.129 93.8752C223.416 88.8828 206.711 86.1323 189.377 86.0001C188.477 85.9951 187.583 86.1272 186.724 86.3865L149.962 97.5509C147.517 98.2932 146.841 101.435 148.762 103.118L197.518 145.808C199.82 147.821 200.359 151.192 198.804 153.83L190.144 168.493C189.108 170.247 189.667 172.514 191.405 173.582L205.863 182.484C207.281 183.358 209.008 183.556 210.589 183.028L284.246 157.959C285.288 157.613 286.416 157.608 287.458 157.948L329.048 173.694C331.589 175.219 335.655 173.185 333.114 169.118L333.109 169.113Z" fill="#007EAE" stroke="white" stroke-width="4" stroke-miterlimit="10" stroke-linecap="round"/>
<path d="M158.29 86.2441L155.871 87.0169" stroke="white" stroke-width="2" stroke-linecap="round" stroke-linejoin="round" stroke-dasharray="4 4"/>
<path d="M151.16 88.5166L131.229 94.8766C127.707 96.0002 126.757 100.54 129.526 102.986L144.569 123.865L176.605 147.338" stroke="white" stroke-width="2" stroke-linecap="round" stroke-linejoin="round" stroke-dasharray="4 4"/>
<path d="M178.603 148.803L180.651 150.303" stroke="white" stroke-width="2" stroke-linecap="round" stroke-linejoin="round" stroke-dasharray="4 4"/>
<path d="M47.7587 138.863L39.5565 152.402C38.3013 154.476 37.91 156.967 38.469 159.326L39.1296 162.097C39.7699 164.786 39.3075 167.623 37.8439 169.972C30.4294 181.863 7.19994 219.612 1 235.459" stroke="white" stroke-width="2" stroke-linecap="round" stroke-linejoin="round" stroke-dasharray="4 4"/>
<path d="M166.091 235.967L213.607 261.839L218.336 282.785L233.641 289.78L258.567 286.281L339.904 329.574C343.777 331.582 347.084 331.739 347.084 336.101V341.434C347.084 344.469 345.95 347.392 343.907 349.634L316.084 383.905" stroke="white" stroke-width="2" stroke-linecap="round" stroke-linejoin="round" stroke-dasharray="4 4"/>
<path d="M48.7754 392.045C48.7754 392.045 98.5782 460.17 226.643 436.784" stroke="white" stroke-width="2" stroke-linecap="round" stroke-linejoin="round" stroke-dasharray="4 4"/>
<path d="M53.3491 135.813C55.3138 135.813 56.9064 134.22 56.9064 132.254C56.9064 130.289 55.3138 128.695 53.3491 128.695C51.3844 128.695 49.7917 130.289 49.7917 132.254C49.7917 134.22 51.3844 135.813 53.3491 135.813Z" fill="white"/>
<path d="M154.987 246.135C156.952 246.135 158.544 244.542 158.544 242.576C158.544 240.611 156.952 239.018 154.987 239.018C153.022 239.018 151.43 240.611 151.43 242.576C151.43 244.542 153.022 246.135 154.987 246.135Z" fill="white"/>
<path d="M42.6772 385.944C44.6419 385.944 46.2346 384.35 46.2346 382.385C46.2346 380.419 44.6419 378.826 42.6772 378.826C40.7125 378.826 39.1199 380.419 39.1199 382.385C39.1199 384.35 40.7125 385.944 42.6772 385.944Z" fill="white"/>
<path d="M350.641 232.409C352.606 232.409 354.198 230.815 354.198 228.85C354.198 226.884 352.606 225.291 350.641 225.291C348.676 225.291 347.084 226.884 347.084 228.85C347.084 230.815 348.676 232.409 350.641 232.409Z" fill="white"/>
<path d="M256.626 395.603C258.591 395.603 260.183 394.01 260.183 392.044C260.183 390.079 258.591 388.485 256.626 388.485C254.661 388.485 253.069 390.079 253.069 392.044C253.069 394.01 254.661 395.603 256.626 395.603Z" fill="white"/>
<path d="M338.445 231.392L352.166 246.135" stroke="white" stroke-width="2" stroke-linecap="round" stroke-linejoin="round" stroke-dasharray="4 4"/>
<rect x="267" y="44" width="386" height="157" rx="20" fill="white"/>
<circle cx="459.703" cy="48.702" r="37.2294" fill="white"/>
<path d="M506.547 48.7734C506.547 22.9412 485.606 2 459.773 2C433.941 2 413 22.9412 413 48.7734" stroke="white" stroke-width="3" stroke-linecap="round" stroke-dasharray="8 8"/>
<path d="M458.309 47.66H468.809V53H451.349V32H468.419V37.34H458.309V39.8H467.189V44.9H458.309V47.66Z" fill="#007EAE"/>
<path d="M598.426 82.9375C598.1 84.2201 597.527 85.7793 596.707 87.6152H594.568C595.018 85.6882 595.343 84.0573 595.545 82.7227H598.289L598.426 82.9375ZM602.986 82.9375C602.661 84.2201 602.088 85.7793 601.268 87.6152H599.129C599.578 85.6882 599.904 84.0573 600.105 82.7227H602.84L602.986 82.9375Z" fill="#007EAE"/>
<path d="M585.877 91.5215C585.877 92.6022 586.053 93.4193 586.404 93.9727C586.762 94.526 587.342 94.8027 588.143 94.8027C588.937 94.8027 589.507 94.5293 589.852 93.9824C590.203 93.429 590.379 92.6087 590.379 91.5215C590.379 90.4408 590.203 89.6302 589.852 89.0898C589.5 88.5495 588.924 88.2793 588.123 88.2793C587.329 88.2793 586.756 88.5495 586.404 89.0898C586.053 89.6237 585.877 90.4342 585.877 91.5215ZM593.426 91.5215C593.426 93.2988 592.957 94.6888 592.02 95.6914C591.082 96.694 589.777 97.1953 588.104 97.1953C587.055 97.1953 586.131 96.9674 585.33 96.5117C584.529 96.0495 583.914 95.3887 583.484 94.5293C583.055 93.6699 582.84 92.6673 582.84 91.5215C582.84 89.7376 583.305 88.3509 584.236 87.3613C585.167 86.3717 586.476 85.877 588.162 85.877C589.21 85.877 590.135 86.1048 590.936 86.5605C591.736 87.0163 592.352 87.6706 592.781 88.5234C593.211 89.3763 593.426 90.3757 593.426 91.5215Z" fill="#007EAE"/>
<path d="M579.412 94.8223C579.933 94.8223 580.558 94.7083 581.287 94.4805V96.6973C580.545 97.0293 579.633 97.1953 578.553 97.1953C577.361 97.1953 576.492 96.8958 575.945 96.2969C575.405 95.6914 575.135 94.7865 575.135 93.582V88.3184H573.709V87.0586L575.35 86.0625L576.209 83.7578H578.113V86.082H581.17V88.3184H578.113V93.582C578.113 94.0052 578.23 94.3177 578.465 94.5195C578.706 94.7214 579.021 94.8223 579.412 94.8223Z" fill="#007EAE"/>
<path d="M571.746 97H568.768V90.623C568.768 89.8353 568.628 89.2461 568.348 88.8555C568.068 88.4583 567.622 88.2598 567.01 88.2598C566.176 88.2598 565.574 88.5397 565.203 89.0996C564.832 89.653 564.646 90.5742 564.646 91.8633V97H561.668V86.082H563.943L564.344 87.4785H564.51C564.842 86.9512 565.298 86.554 565.877 86.2871C566.463 86.0137 567.127 85.877 567.869 85.877C569.139 85.877 570.102 86.222 570.76 86.9121C571.417 87.5957 571.746 88.5853 571.746 89.8809V97Z" fill="#007EAE"/>
<path d="M554.373 87.9961C553.742 87.9961 553.247 88.1979 552.889 88.6016C552.531 88.9987 552.326 89.5651 552.273 90.3008H556.453C556.44 89.5651 556.248 88.9987 555.877 88.6016C555.506 88.1979 555.005 87.9961 554.373 87.9961ZM554.793 97.1953C553.035 97.1953 551.661 96.7103 550.672 95.7402C549.682 94.7702 549.188 93.3965 549.188 91.6191C549.188 89.7897 549.643 88.377 550.555 87.3809C551.473 86.3783 552.739 85.877 554.354 85.877C555.896 85.877 557.098 86.3164 557.957 87.1953C558.816 88.0742 559.246 89.2884 559.246 90.8379V92.2832H552.205C552.238 93.1296 552.488 93.7904 552.957 94.2656C553.426 94.7409 554.083 94.9785 554.93 94.9785C555.587 94.9785 556.209 94.9102 556.795 94.7734C557.381 94.6367 557.993 94.4186 558.631 94.1191V96.4238C558.11 96.6842 557.553 96.8763 556.961 97C556.368 97.1302 555.646 97.1953 554.793 97.1953Z" fill="#007EAE"/>
<path d="M543.611 83.2598C543.611 82.2897 544.152 81.8047 545.232 81.8047C546.313 81.8047 546.854 82.2897 546.854 83.2598C546.854 83.722 546.717 84.0833 546.443 84.3438C546.176 84.5977 545.773 84.7246 545.232 84.7246C544.152 84.7246 543.611 84.2363 543.611 83.2598ZM546.717 97H543.738V86.082H546.717V97Z" fill="#007EAE"/>
<path d="M533.865 97H530.887V90.623C530.887 89.8353 530.753 89.2461 530.486 88.8555C530.226 88.4583 529.812 88.2598 529.246 88.2598C528.484 88.2598 527.931 88.5397 527.586 89.0996C527.241 89.6595 527.068 90.5807 527.068 91.8633V97H524.09V86.082H526.365L526.766 87.4785H526.932C527.225 86.9772 527.648 86.5866 528.201 86.3066C528.755 86.0202 529.389 85.877 530.105 85.877C531.74 85.877 532.846 86.4108 533.426 87.4785H533.689C533.982 86.9707 534.412 86.5768 534.979 86.2969C535.551 86.0169 536.196 85.877 536.912 85.877C538.149 85.877 539.083 86.196 539.715 86.834C540.353 87.4655 540.672 88.4811 540.672 89.8809V97H537.684V90.623C537.684 89.8353 537.55 89.2461 537.283 88.8555C537.023 88.4583 536.609 88.2598 536.043 88.2598C535.314 88.2598 534.767 88.5202 534.402 89.041C534.044 89.5618 533.865 90.3887 533.865 91.5215V97Z" fill="#007EAE"/>
<path d="M517.85 83.2598C517.85 82.2897 518.39 81.8047 519.471 81.8047C520.551 81.8047 521.092 82.2897 521.092 83.2598C521.092 83.722 520.955 84.0833 520.682 84.3438C520.415 84.5977 520.011 84.7246 519.471 84.7246C518.39 84.7246 517.85 84.2363 517.85 83.2598ZM520.955 97H517.977V86.082H520.955V97Z" fill="#007EAE"/>
<path d="M508.777 97.1953C507.495 97.1953 506.486 96.6973 505.75 95.7012C505.021 94.7051 504.656 93.3249 504.656 91.5605C504.656 89.7702 505.027 88.377 505.77 87.3809C506.518 86.3783 507.547 85.877 508.855 85.877C510.229 85.877 511.277 86.4108 512 87.4785H512.098C511.948 86.6647 511.873 85.9388 511.873 85.3008V81.8047H514.861V97H512.576L512 95.584H511.873C511.196 96.6582 510.164 97.1953 508.777 97.1953ZM509.822 94.8223C510.584 94.8223 511.141 94.6009 511.492 94.1582C511.85 93.7155 512.046 92.9635 512.078 91.9023V91.5801C512.078 90.4082 511.896 89.5684 511.531 89.0605C511.173 88.5527 510.587 88.2988 509.773 88.2988C509.109 88.2988 508.592 88.582 508.221 89.1484C507.856 89.7083 507.674 90.5254 507.674 91.5996C507.674 92.6738 507.859 93.4811 508.23 94.0215C508.602 94.5553 509.132 94.8223 509.822 94.8223Z" fill="#007EAE"/>
<path d="M502.254 97H499.275V90.623C499.275 89.8353 499.135 89.2461 498.855 88.8555C498.576 88.4583 498.13 88.2598 497.518 88.2598C496.684 88.2598 496.082 88.5397 495.711 89.0996C495.34 89.653 495.154 90.5742 495.154 91.8633V97H492.176V86.082H494.451L494.852 87.4785H495.018C495.35 86.9512 495.805 86.554 496.385 86.2871C496.971 86.0137 497.635 85.877 498.377 85.877C499.646 85.877 500.61 86.222 501.268 86.9121C501.925 87.5957 502.254 88.5853 502.254 89.8809V97Z" fill="#007EAE"/>
<path d="M484.881 87.9961C484.249 87.9961 483.755 88.1979 483.396 88.6016C483.038 88.9987 482.833 89.5651 482.781 90.3008H486.961C486.948 89.5651 486.756 88.9987 486.385 88.6016C486.014 88.1979 485.512 87.9961 484.881 87.9961ZM485.301 97.1953C483.543 97.1953 482.169 96.7103 481.18 95.7402C480.19 94.7702 479.695 93.3965 479.695 91.6191C479.695 89.7897 480.151 88.377 481.062 87.3809C481.98 86.3783 483.247 85.877 484.861 85.877C486.404 85.877 487.605 86.3164 488.465 87.1953C489.324 88.0742 489.754 89.2884 489.754 90.8379V92.2832H482.713C482.745 93.1296 482.996 93.7904 483.465 94.2656C483.934 94.7409 484.591 94.9785 485.438 94.9785C486.095 94.9785 486.717 94.9102 487.303 94.7734C487.889 94.6367 488.501 94.4186 489.139 94.1191V96.4238C488.618 96.6842 488.061 96.8763 487.469 97C486.876 97.1302 486.154 97.1953 485.301 97.1953Z" fill="#007EAE"/>
<path d="M477.371 85.877C477.775 85.877 478.11 85.9062 478.377 85.9648L478.152 88.7578C477.911 88.6927 477.618 88.6602 477.273 88.6602C476.323 88.6602 475.581 88.9043 475.047 89.3926C474.52 89.8809 474.256 90.5645 474.256 91.4434V97H471.277V86.082H473.533L473.973 87.918H474.119C474.458 87.306 474.913 86.8145 475.486 86.4434C476.066 86.0658 476.694 85.877 477.371 85.877Z" fill="#007EAE"/>
<path d="M464.617 97.1953C463.335 97.1953 462.329 96.7298 461.6 95.7988H461.443C461.548 96.7103 461.6 97.2376 461.6 97.3809V101.805H458.621V86.082H461.043L461.463 87.498H461.6C462.296 86.4173 463.328 85.877 464.695 85.877C465.984 85.877 466.993 86.375 467.723 87.3711C468.452 88.3672 468.816 89.7507 468.816 91.5215C468.816 92.6868 468.644 93.6992 468.299 94.5586C467.96 95.418 467.475 96.0723 466.844 96.5215C466.212 96.9707 465.47 97.1953 464.617 97.1953ZM463.738 88.2598C463.003 88.2598 462.465 88.4876 462.127 88.9434C461.788 89.3926 461.613 90.138 461.6 91.1797V91.502C461.6 92.6738 461.772 93.5137 462.117 94.0215C462.469 94.5293 463.022 94.7832 463.777 94.7832C465.112 94.7832 465.779 93.6829 465.779 91.4824C465.779 90.4082 465.613 89.6042 465.281 89.0703C464.956 88.5299 464.441 88.2598 463.738 88.2598Z" fill="#007EAE"/>
<path d="M448.748 97H445.77V90.623C445.77 89.8353 445.636 89.2461 445.369 88.8555C445.109 88.4583 444.695 88.2598 444.129 88.2598C443.367 88.2598 442.814 88.5397 442.469 89.0996C442.124 89.6595 441.951 90.5807 441.951 91.8633V97H438.973V86.082H441.248L441.648 87.4785H441.814C442.107 86.9772 442.531 86.5866 443.084 86.3066C443.637 86.0202 444.272 85.877 444.988 85.877C446.622 85.877 447.729 86.4108 448.309 87.4785H448.572C448.865 86.9707 449.295 86.5768 449.861 86.2969C450.434 86.0169 451.079 85.877 451.795 85.877C453.032 85.877 453.966 86.196 454.598 86.834C455.236 87.4655 455.555 88.4811 455.555 89.8809V97H452.566V90.623C452.566 89.8353 452.433 89.2461 452.166 88.8555C451.906 88.4583 451.492 88.2598 450.926 88.2598C450.197 88.2598 449.65 88.5202 449.285 89.041C448.927 89.5618 448.748 90.3887 448.748 91.5215V97Z" fill="#007EAE"/>
<path d="M436.219 97H427.996V82.7227H436.219V85.2031H431.023V88.3379H435.857V90.8184H431.023V94.5H436.219V97Z" fill="#007EAE"/>
<path d="M422.098 87.4004C422.241 86.8079 422.475 86.0658 422.801 85.1738C423.133 84.2754 423.471 83.4583 423.816 82.7227H425.955C425.525 84.4609 425.197 86.0918 424.969 87.6152H422.234L422.098 87.4004ZM417.537 87.4004C417.68 86.8079 417.915 86.0658 418.24 85.1738C418.572 84.2754 418.911 83.4583 419.256 82.7227H421.395C420.965 84.4609 420.636 86.0918 420.408 87.6152H417.674L417.537 87.4004Z" fill="#007EAE"/>
<path d="M403.65 91.5215C403.65 92.6022 403.826 93.4193 404.178 93.9727C404.536 94.526 405.115 94.8027 405.916 94.8027C406.71 94.8027 407.28 94.5293 407.625 93.9824C407.977 93.429 408.152 92.6087 408.152 91.5215C408.152 90.4408 407.977 89.6302 407.625 89.0898C407.273 88.5495 406.697 88.2793 405.896 88.2793C405.102 88.2793 404.529 88.5495 404.178 89.0898C403.826 89.6237 403.65 90.4342 403.65 91.5215ZM411.199 91.5215C411.199 93.2988 410.73 94.6888 409.793 95.6914C408.855 96.694 407.55 97.1953 405.877 97.1953C404.829 97.1953 403.904 96.9674 403.104 96.5117C402.303 96.0495 401.688 95.3887 401.258 94.5293C400.828 93.6699 400.613 92.6673 400.613 91.5215C400.613 89.7376 401.079 88.3509 402.01 87.3613C402.941 86.3717 404.249 85.877 405.936 85.877C406.984 85.877 407.908 86.1048 408.709 86.5605C409.51 87.0163 410.125 87.6706 410.555 88.5234C410.984 89.3763 411.199 90.3757 411.199 91.5215Z" fill="#007EAE"/>
<path d="M395.037 83.2598C395.037 82.2897 395.577 81.8047 396.658 81.8047C397.739 81.8047 398.279 82.2897 398.279 83.2598C398.279 83.722 398.143 84.0833 397.869 84.3438C397.602 84.5977 397.199 84.7246 396.658 84.7246C395.577 84.7246 395.037 84.2363 395.037 83.2598ZM398.143 97H395.164V86.082H398.143V97Z" fill="#007EAE"/>
<path d="M392.176 85.877C392.579 85.877 392.915 85.9062 393.182 85.9648L392.957 88.7578C392.716 88.6927 392.423 88.6602 392.078 88.6602C391.128 88.6602 390.385 88.9043 389.852 89.3926C389.324 89.8809 389.061 90.5645 389.061 91.4434V97H386.082V86.082H388.338L388.777 87.918H388.924C389.262 87.306 389.718 86.8145 390.291 86.4434C390.87 86.0658 391.499 85.877 392.176 85.877Z" fill="#007EAE"/>
<path d="M376.072 91.5215C376.072 92.6022 376.248 93.4193 376.6 93.9727C376.958 94.526 377.537 94.8027 378.338 94.8027C379.132 94.8027 379.702 94.5293 380.047 93.9824C380.398 93.429 380.574 92.6087 380.574 91.5215C380.574 90.4408 380.398 89.6302 380.047 89.0898C379.695 88.5495 379.119 88.2793 378.318 88.2793C377.524 88.2793 376.951 88.5495 376.6 89.0898C376.248 89.6237 376.072 90.4342 376.072 91.5215ZM383.621 91.5215C383.621 93.2988 383.152 94.6888 382.215 95.6914C381.277 96.694 379.972 97.1953 378.299 97.1953C377.251 97.1953 376.326 96.9674 375.525 96.5117C374.725 96.0495 374.109 95.3887 373.68 94.5293C373.25 93.6699 373.035 92.6673 373.035 91.5215C373.035 89.7376 373.501 88.3509 374.432 87.3613C375.363 86.3717 376.671 85.877 378.357 85.877C379.406 85.877 380.33 86.1048 381.131 86.5605C381.932 87.0163 382.547 87.6706 382.977 88.5234C383.406 89.3763 383.621 90.3757 383.621 91.5215Z" fill="#007EAE"/>
<path d="M369.607 94.8223C370.128 94.8223 370.753 94.7083 371.482 94.4805V96.6973C370.74 97.0293 369.829 97.1953 368.748 97.1953C367.557 97.1953 366.688 96.8958 366.141 96.2969C365.6 95.6914 365.33 94.7865 365.33 93.582V88.3184H363.904V87.0586L365.545 86.0625L366.404 83.7578H368.309V86.082H371.365V88.3184H368.309V93.582C368.309 94.0052 368.426 94.3177 368.66 94.5195C368.901 94.7214 369.217 94.8223 369.607 94.8223Z" fill="#007EAE"/>
<path d="M358.768 83.2598C358.768 82.2897 359.308 81.8047 360.389 81.8047C361.469 81.8047 362.01 82.2897 362.01 83.2598C362.01 83.722 361.873 84.0833 361.6 84.3438C361.333 84.5977 360.929 84.7246 360.389 84.7246C359.308 84.7246 358.768 84.2363 358.768 83.2598ZM361.873 97H358.895V86.082H361.873V97Z" fill="#007EAE"/>
<path d="M355.906 85.877C356.31 85.877 356.645 85.9062 356.912 85.9648L356.688 88.7578C356.447 88.6927 356.154 88.6602 355.809 88.6602C354.858 88.6602 354.116 88.9043 353.582 89.3926C353.055 89.8809 352.791 90.5645 352.791 91.4434V97H349.812V86.082H352.068L352.508 87.918H352.654C352.993 87.306 353.449 86.8145 354.021 86.4434C354.601 86.0658 355.229 85.877 355.906 85.877Z" fill="#007EAE"/>
<path d="M346.824 85.877C347.228 85.877 347.563 85.9062 347.83 85.9648L347.605 88.7578C347.365 88.6927 347.072 88.6602 346.727 88.6602C345.776 88.6602 345.034 88.9043 344.5 89.3926C343.973 89.8809 343.709 90.5645 343.709 91.4434V97H340.73V86.082H342.986L343.426 87.918H343.572C343.911 87.306 344.367 86.8145 344.939 86.4434C345.519 86.0658 346.147 85.877 346.824 85.877Z" fill="#007EAE"/>
<path d="M333.436 87.9961C332.804 87.9961 332.309 88.1979 331.951 88.6016C331.593 88.9987 331.388 89.5651 331.336 90.3008H335.516C335.503 89.5651 335.311 88.9987 334.939 88.6016C334.568 88.1979 334.067 87.9961 333.436 87.9961ZM333.855 97.1953C332.098 97.1953 330.724 96.7103 329.734 95.7402C328.745 94.7702 328.25 93.3965 328.25 91.6191C328.25 89.7897 328.706 88.377 329.617 87.3809C330.535 86.3783 331.801 85.877 333.416 85.877C334.959 85.877 336.16 86.3164 337.02 87.1953C337.879 88.0742 338.309 89.2884 338.309 90.8379V92.2832H331.268C331.3 93.1296 331.551 93.7904 332.02 94.2656C332.488 94.7409 333.146 94.9785 333.992 94.9785C334.65 94.9785 335.271 94.9102 335.857 94.7734C336.443 94.6367 337.055 94.4186 337.693 94.1191V96.4238C337.173 96.6842 336.616 96.8763 336.023 97C335.431 97.1302 334.708 97.1953 333.855 97.1953Z" fill="#007EAE"/>
<path d="M323.074 97H320.047V85.2422H316.17V82.7227H326.951V85.2422H323.074V97Z" fill="#007EAE"/>
<path d="M602.762 164.443C602.762 165.926 602.388 167.085 601.641 167.921C600.894 168.751 599.862 169.166 598.545 169.166C597.731 169.166 597.009 168.975 596.378 168.593C595.748 168.211 595.261 167.664 594.917 166.95C594.574 166.236 594.403 165.4 594.403 164.443C594.403 162.96 594.774 161.806 595.515 160.981C596.257 160.151 597.286 159.736 598.603 159.736C599.876 159.736 600.886 160.16 601.633 161.006C602.385 161.853 602.762 162.999 602.762 164.443ZM595.831 164.443C595.831 165.605 596.063 166.49 596.528 167.099C596.993 167.708 597.676 168.012 598.578 168.012C599.48 168.012 600.164 167.711 600.628 167.107C601.099 166.499 601.334 165.611 601.334 164.443C601.334 163.286 601.099 162.409 600.628 161.812C600.164 161.208 599.475 160.907 598.562 160.907C597.66 160.907 596.979 161.203 596.52 161.795C596.06 162.387 595.831 163.27 595.831 164.443Z" fill="black"/>
<path d="M591.838 168.03C592.081 168.03 592.317 168.013 592.543 167.98C592.77 167.941 592.95 167.903 593.083 167.864V168.918C592.934 168.99 592.712 169.048 592.419 169.092C592.131 169.142 591.871 169.167 591.639 169.167C589.879 169.167 588.999 168.24 588.999 166.386V160.974H587.696V160.31L588.999 159.737L589.58 157.795H590.377V159.903H593.017V160.974H590.377V166.328C590.377 166.876 590.507 167.297 590.767 167.59C591.027 167.883 591.384 168.03 591.838 168.03Z" fill="black"/>
<path d="M585.978 169H584.6V159.903H585.978V169ZM584.483 157.438C584.483 157.122 584.561 156.892 584.716 156.749C584.871 156.599 585.064 156.524 585.297 156.524C585.518 156.524 585.709 156.599 585.87 156.749C586.03 156.898 586.11 157.128 586.11 157.438C586.11 157.747 586.03 157.98 585.87 158.135C585.709 158.284 585.518 158.359 585.297 158.359C585.064 158.359 584.871 158.284 584.716 158.135C584.561 157.98 584.483 157.747 584.483 157.438Z" fill="black"/>
<path d="M580.366 167.78H580.292C579.655 168.704 578.703 169.166 577.436 169.166C576.246 169.166 575.319 168.759 574.655 167.946C573.997 167.132 573.667 165.976 573.667 164.476C573.667 162.976 574 161.812 574.664 160.981C575.328 160.151 576.252 159.736 577.436 159.736C578.67 159.736 579.616 160.185 580.275 161.081H580.383L580.325 160.425L580.292 159.786V156.084H581.669V169H580.549L580.366 167.78ZM577.61 168.012C578.551 168.012 579.232 167.758 579.652 167.249C580.078 166.734 580.292 165.907 580.292 164.767V164.476C580.292 163.187 580.076 162.268 579.644 161.72C579.218 161.167 578.535 160.89 577.594 160.89C576.786 160.89 576.166 161.206 575.734 161.836C575.308 162.462 575.095 163.347 575.095 164.493C575.095 165.655 575.308 166.532 575.734 167.124C576.16 167.716 576.786 168.012 577.61 168.012Z" fill="black"/>
<path d="M568.471 169.167C567.126 169.167 566.064 168.757 565.284 167.938C564.509 167.119 564.122 165.982 564.122 164.526C564.122 163.06 564.481 161.895 565.201 161.032C565.926 160.168 566.897 159.737 568.114 159.737C569.254 159.737 570.156 160.113 570.82 160.866C571.484 161.613 571.816 162.601 571.816 163.829V164.701H565.549C565.577 165.769 565.845 166.579 566.354 167.133C566.869 167.686 567.591 167.963 568.521 167.963C569.5 167.963 570.469 167.758 571.426 167.349V168.577C570.939 168.787 570.477 168.937 570.04 169.025C569.608 169.119 569.085 169.167 568.471 169.167ZM568.098 160.891C567.367 160.891 566.783 161.129 566.346 161.604C565.915 162.08 565.66 162.739 565.583 163.58H570.339C570.339 162.711 570.145 162.047 569.758 161.588C569.37 161.123 568.817 160.891 568.098 160.891ZM567.077 158.492C567.342 158.149 567.627 157.734 567.932 157.247C568.242 156.76 568.485 156.336 568.662 155.977H570.339V156.151C570.095 156.511 569.733 156.953 569.251 157.479C568.77 158.005 568.352 158.411 567.998 158.699H567.077V158.492Z" fill="black"/>
<path d="M561.839 159.736C562.243 159.736 562.605 159.77 562.926 159.836L562.735 161.114C562.359 161.031 562.027 160.99 561.739 160.99C561.003 160.99 560.372 161.289 559.847 161.886C559.326 162.484 559.066 163.228 559.066 164.119V169H557.688V159.902H558.826L558.983 161.587H559.05C559.387 160.995 559.794 160.539 560.27 160.218C560.746 159.897 561.269 159.736 561.839 159.736Z" fill="black"/>
<path d="M553.223 169.166C551.906 169.166 550.885 168.762 550.16 167.954C549.44 167.141 549.081 165.992 549.081 164.509C549.081 162.987 549.446 161.812 550.176 160.981C550.912 160.151 551.958 159.736 553.314 159.736C553.751 159.736 554.188 159.783 554.625 159.877C555.063 159.972 555.406 160.082 555.655 160.209L555.231 161.38C554.927 161.258 554.595 161.159 554.235 161.081C553.876 160.998 553.557 160.957 553.281 160.957C551.432 160.957 550.508 162.135 550.508 164.493C550.508 165.611 550.732 166.468 551.181 167.066C551.634 167.664 552.304 167.962 553.189 167.962C553.948 167.962 554.725 167.799 555.522 167.473V168.693C554.913 169.008 554.147 169.166 553.223 169.166Z" fill="black"/>
<path d="M547.163 164.443C547.163 165.926 546.79 167.085 546.042 167.921C545.295 168.751 544.263 169.166 542.946 169.166C542.133 169.166 541.411 168.975 540.78 168.593C540.149 168.211 539.662 167.664 539.319 166.95C538.976 166.236 538.804 165.4 538.804 164.443C538.804 162.96 539.175 161.806 539.917 160.981C540.658 160.151 541.687 159.736 543.004 159.736C544.277 159.736 545.287 160.16 546.034 161.006C546.787 161.853 547.163 162.999 547.163 164.443ZM540.232 164.443C540.232 165.605 540.464 166.49 540.929 167.099C541.394 167.708 542.077 168.012 542.979 168.012C543.882 168.012 544.565 167.711 545.03 167.107C545.5 166.499 545.735 165.611 545.735 164.443C545.735 163.286 545.5 162.409 545.03 161.812C544.565 161.208 543.876 160.907 542.963 160.907C542.061 160.907 541.38 161.203 540.921 161.795C540.462 162.387 540.232 163.27 540.232 164.443Z" fill="black"/>
<path d="M536.521 159.736C536.925 159.736 537.288 159.77 537.609 159.836L537.418 161.114C537.042 161.031 536.71 160.99 536.422 160.99C535.686 160.99 535.055 161.289 534.529 161.886C534.009 162.484 533.749 163.228 533.749 164.119V169H532.371V159.902H533.508L533.666 161.587H533.732C534.07 160.995 534.477 160.539 534.953 160.218C535.429 159.897 535.951 159.736 536.521 159.736Z" fill="black"/>
<path d="M527.905 169.166C526.588 169.166 525.567 168.762 524.842 167.954C524.123 167.141 523.763 165.992 523.763 164.509C523.763 162.987 524.128 161.812 524.859 160.981C525.595 160.151 526.641 159.736 527.997 159.736C528.434 159.736 528.871 159.783 529.308 159.877C529.745 159.972 530.088 160.082 530.337 160.209L529.914 161.38C529.61 161.258 529.278 161.159 528.918 161.081C528.558 160.998 528.24 160.957 527.963 160.957C526.115 160.957 525.191 162.135 525.191 164.493C525.191 165.611 525.415 166.468 525.863 167.066C526.317 167.664 526.987 167.962 527.872 167.962C528.63 167.962 529.408 167.799 530.205 167.473V168.693C529.596 169.008 528.829 169.166 527.905 169.166Z" fill="black"/>
<path d="M521.348 169H519.97V159.903H521.348V169ZM519.854 157.438C519.854 157.122 519.931 156.892 520.086 156.749C520.241 156.599 520.435 156.524 520.667 156.524C520.888 156.524 521.079 156.599 521.24 156.749C521.4 156.898 521.48 157.128 521.48 157.438C521.48 157.747 521.4 157.98 521.24 158.135C521.079 158.284 520.888 158.359 520.667 158.359C520.435 158.359 520.241 158.284 520.086 158.135C519.931 157.98 519.854 157.747 519.854 157.438Z" fill="black"/>
<path d="M515.745 169V163.082C515.745 162.357 515.59 161.814 515.28 161.455C514.97 161.089 514.488 160.907 513.835 160.907C512.978 160.907 512.344 161.153 511.935 161.646C511.525 162.138 511.32 162.896 511.32 163.92V169H509.942V163.082C509.942 162.357 509.787 161.814 509.478 161.455C509.168 161.089 508.683 160.907 508.025 160.907C507.162 160.907 506.528 161.167 506.124 161.687C505.726 162.202 505.526 163.048 505.526 164.227V169H504.148V159.902H505.269L505.493 161.147H505.56C505.82 160.705 506.185 160.359 506.655 160.11C507.131 159.861 507.662 159.736 508.249 159.736C509.671 159.736 510.601 160.251 511.038 161.28H511.104C511.376 160.804 511.769 160.428 512.283 160.151C512.798 159.875 513.384 159.736 514.043 159.736C515.072 159.736 515.841 160.002 516.351 160.533C516.865 161.059 517.123 161.903 517.123 163.065V169H515.745Z" fill="black"/>
<path d="M494.03 169.166C492.685 169.166 491.623 168.757 490.842 167.938C490.068 167.118 489.68 165.981 489.68 164.526C489.68 163.059 490.04 161.895 490.759 161.031C491.484 160.168 492.455 159.736 493.673 159.736C494.813 159.736 495.715 160.113 496.379 160.865C497.043 161.612 497.375 162.6 497.375 163.829V164.7H491.108C491.136 165.768 491.404 166.579 491.913 167.132C492.428 167.686 493.15 167.962 494.08 167.962C495.059 167.962 496.028 167.758 496.985 167.348V168.577C496.498 168.787 496.036 168.936 495.599 169.025C495.167 169.119 494.644 169.166 494.03 169.166ZM493.656 160.89C492.926 160.89 492.342 161.128 491.905 161.604C491.473 162.08 491.219 162.738 491.141 163.58H495.897C495.897 162.711 495.704 162.047 495.316 161.587C494.929 161.123 494.376 160.89 493.656 160.89Z" fill="black"/>
<path d="M485.953 167.78H485.878C485.242 168.704 484.29 169.166 483.023 169.166C481.833 169.166 480.906 168.759 480.242 167.946C479.584 167.132 479.254 165.976 479.254 164.476C479.254 162.976 479.586 161.812 480.25 160.981C480.915 160.151 481.839 159.736 483.023 159.736C484.257 159.736 485.203 160.185 485.862 161.081H485.97L485.912 160.425L485.878 159.786V156.084H487.256V169H486.136L485.953 167.78ZM483.197 168.012C484.138 168.012 484.819 167.758 485.239 167.249C485.665 166.734 485.878 165.907 485.878 164.767V164.476C485.878 163.187 485.663 162.268 485.231 161.72C484.805 161.167 484.121 160.89 483.181 160.89C482.373 160.89 481.753 161.206 481.321 161.836C480.895 162.462 480.682 163.347 480.682 164.493C480.682 165.655 480.895 166.532 481.321 167.124C481.747 167.716 482.373 168.012 483.197 168.012Z" fill="black"/>
<path d="M473.095 166.518C473.095 167.365 472.78 168.018 472.149 168.477C471.518 168.936 470.633 169.166 469.493 169.166C468.286 169.166 467.346 168.975 466.67 168.593V167.315C467.108 167.536 467.575 167.711 468.073 167.838C468.577 167.965 469.061 168.029 469.526 168.029C470.245 168.029 470.799 167.915 471.186 167.688C471.573 167.456 471.767 167.105 471.767 166.634C471.767 166.28 471.612 165.979 471.302 165.729C470.998 165.475 470.4 165.176 469.509 164.833C468.663 164.518 468.059 164.244 467.7 164.011C467.346 163.773 467.08 163.505 466.903 163.206C466.731 162.907 466.646 162.55 466.646 162.135C466.646 161.394 466.947 160.81 467.55 160.384C468.153 159.952 468.981 159.736 470.032 159.736C471.012 159.736 471.969 159.936 472.904 160.334L472.415 161.455C471.501 161.078 470.674 160.89 469.933 160.89C469.28 160.89 468.787 160.993 468.455 161.197C468.123 161.402 467.957 161.684 467.957 162.044C467.957 162.287 468.018 162.495 468.14 162.667C468.267 162.838 468.469 163.001 468.746 163.156C469.022 163.311 469.554 163.535 470.339 163.829C471.418 164.222 472.146 164.617 472.522 165.016C472.904 165.414 473.095 165.915 473.095 166.518Z" fill="black"/>
<path d="M464.803 164.443C464.803 165.926 464.429 167.085 463.682 167.921C462.935 168.751 461.903 169.166 460.586 169.166C459.772 169.166 459.05 168.975 458.419 168.593C457.789 168.211 457.302 167.664 456.958 166.95C456.615 166.236 456.444 165.4 456.444 164.443C456.444 162.96 456.815 161.806 457.556 160.981C458.298 160.151 459.327 159.736 460.644 159.736C461.917 159.736 462.927 160.16 463.674 161.006C464.426 161.853 464.803 162.999 464.803 164.443ZM457.872 164.443C457.872 165.605 458.104 166.49 458.569 167.099C459.034 167.708 459.717 168.012 460.619 168.012C461.521 168.012 462.205 167.711 462.669 167.107C463.14 166.499 463.375 165.611 463.375 164.443C463.375 163.286 463.14 162.409 462.669 161.812C462.205 161.208 461.516 160.907 460.603 160.907C459.701 160.907 459.02 161.203 458.561 161.795C458.101 162.387 457.872 163.27 457.872 164.443Z" fill="black"/>
<path d="M454.028 169H452.65V159.903H454.028V169ZM452.534 157.438C452.534 157.122 452.612 156.892 452.767 156.749C452.922 156.599 453.115 156.524 453.348 156.524C453.569 156.524 453.76 156.599 453.92 156.749C454.081 156.898 454.161 157.128 454.161 157.438C454.161 157.747 454.081 157.98 453.92 158.135C453.76 158.284 453.569 158.359 453.348 158.359C453.115 158.359 452.922 158.284 452.767 158.135C452.612 157.98 452.534 157.747 452.534 157.438Z" fill="black"/>
<path d="M449.861 159.736C450.265 159.736 450.628 159.77 450.949 159.836L450.758 161.114C450.382 161.031 450.049 160.99 449.762 160.99C449.026 160.99 448.395 161.289 447.869 161.886C447.349 162.484 447.089 163.228 447.089 164.119V169H445.711V159.902H446.848L447.006 161.587H447.072C447.41 160.995 447.817 160.539 448.292 160.218C448.768 159.897 449.291 159.736 449.861 159.736Z" fill="black"/>
<path d="M441.843 169.001L441.569 167.706H441.502C441.049 168.276 440.595 168.663 440.141 168.868C439.693 169.067 439.131 169.167 438.456 169.167C437.554 169.167 436.846 168.935 436.331 168.47C435.822 168.005 435.567 167.344 435.567 166.486C435.567 164.649 437.037 163.686 439.975 163.597L441.519 163.547V162.983C441.519 162.269 441.364 161.743 441.054 161.406C440.75 161.063 440.26 160.891 439.585 160.891C438.827 160.891 437.969 161.124 437.012 161.588L436.588 160.534C437.037 160.291 437.526 160.1 438.058 159.961C438.594 159.823 439.131 159.754 439.668 159.754C440.753 159.754 441.555 159.995 442.075 160.476C442.601 160.958 442.864 161.729 442.864 162.792V169.001H441.843ZM438.73 168.03C439.588 168.03 440.26 167.795 440.747 167.324C441.24 166.854 441.486 166.195 441.486 165.349V164.527L440.108 164.585C439.012 164.624 438.221 164.795 437.734 165.1C437.252 165.398 437.012 165.866 437.012 166.502C437.012 167 437.161 167.38 437.46 167.64C437.764 167.9 438.188 168.03 438.73 168.03Z" fill="black"/>
<path d="M433.326 169H431.948V159.903H433.326V169ZM431.832 157.438C431.832 157.122 431.91 156.892 432.064 156.749C432.219 156.599 432.413 156.524 432.646 156.524C432.867 156.524 433.058 156.599 433.218 156.749C433.379 156.898 433.459 157.128 433.459 157.438C433.459 157.747 433.379 157.98 433.218 158.135C433.058 158.284 432.867 158.359 432.646 158.359C432.413 158.359 432.219 158.284 432.064 158.135C431.91 157.98 431.832 157.747 431.832 157.438Z" fill="black"/>
<path d="M427.482 169.166C426.165 169.166 425.144 168.762 424.419 167.954C423.7 167.141 423.34 165.992 423.34 164.509C423.34 162.987 423.706 161.812 424.436 160.981C425.172 160.151 426.218 159.736 427.574 159.736C428.011 159.736 428.448 159.783 428.885 159.877C429.322 159.972 429.666 160.082 429.915 160.209L429.491 161.38C429.187 161.258 428.855 161.159 428.495 161.081C428.135 160.998 427.817 160.957 427.541 160.957C425.692 160.957 424.768 162.135 424.768 164.493C424.768 165.611 424.992 166.468 425.44 167.066C425.894 167.664 426.564 167.962 427.449 167.962C428.207 167.962 428.985 167.799 429.782 167.473V168.693C429.173 169.008 428.407 169.166 427.482 169.166Z" fill="black"/>
<path d="M417.887 160.974H415.571V169H414.193V160.974H412.566V160.351L414.193 159.853V159.347C414.193 157.111 415.17 155.993 417.123 155.993C417.604 155.993 418.169 156.09 418.816 156.284L418.459 157.388C417.928 157.216 417.474 157.13 417.098 157.13C416.578 157.13 416.193 157.305 415.944 157.653C415.695 157.996 415.571 158.55 415.571 159.313V159.903H417.887V160.974ZM420.925 169H419.547V159.903H420.925V169ZM419.431 157.438C419.431 157.122 419.508 156.892 419.663 156.749C419.818 156.599 420.012 156.524 420.244 156.524C420.465 156.524 420.656 156.599 420.817 156.749C420.977 156.898 421.058 157.128 421.058 157.438C421.058 157.747 420.977 157.98 420.817 158.135C420.656 158.284 420.465 158.359 420.244 158.359C420.012 158.359 419.818 158.284 419.663 158.135C419.508 157.98 419.431 157.747 419.431 157.438Z" fill="black"/>
<path d="M408.083 169.166C406.739 169.166 405.676 168.757 404.896 167.938C404.121 167.118 403.734 165.981 403.734 164.526C403.734 163.059 404.094 161.895 404.813 161.031C405.538 160.168 406.509 159.736 407.727 159.736C408.867 159.736 409.769 160.113 410.433 160.865C411.097 161.612 411.429 162.6 411.429 163.829V164.7H405.162C405.189 165.768 405.458 166.579 405.967 167.132C406.481 167.686 407.204 167.962 408.133 167.962C409.113 167.962 410.081 167.758 411.039 167.348V168.577C410.552 168.787 410.09 168.936 409.652 169.025C409.221 169.119 408.698 169.166 408.083 169.166ZM407.71 160.89C406.979 160.89 406.396 161.128 405.958 161.604C405.527 162.08 405.272 162.738 405.195 163.58H409.951C409.951 162.711 409.757 162.047 409.37 161.587C408.983 161.123 408.429 160.89 407.71 160.89Z" fill="black"/>
<path d="M400.023 169V163.115C400.023 162.373 399.855 161.82 399.517 161.455C399.18 161.089 398.651 160.907 397.932 160.907C396.98 160.907 396.283 161.164 395.84 161.679C395.397 162.193 395.176 163.043 395.176 164.227V169H393.798V159.902H394.918L395.143 161.147H395.209C395.491 160.699 395.887 160.353 396.396 160.11C396.905 159.861 397.472 159.736 398.098 159.736C399.193 159.736 400.018 160.002 400.571 160.533C401.125 161.059 401.401 161.903 401.401 163.065V169H400.023Z" fill="black"/>
<path d="M388.095 169.166C386.75 169.166 385.688 168.757 384.908 167.938C384.133 167.118 383.746 165.981 383.746 164.526C383.746 163.059 384.105 161.895 384.825 161.031C385.55 160.168 386.521 159.736 387.738 159.736C388.878 159.736 389.78 160.113 390.444 160.865C391.108 161.612 391.44 162.6 391.44 163.829V164.7H385.173C385.201 165.768 385.469 166.579 385.979 167.132C386.493 167.686 387.215 167.962 388.145 167.962C389.125 167.962 390.093 167.758 391.05 167.348V168.577C390.563 168.787 390.101 168.936 389.664 169.025C389.232 169.119 388.709 169.166 388.095 169.166ZM387.722 160.89C386.991 160.89 386.407 161.128 385.97 161.604C385.539 162.08 385.284 162.738 385.207 163.58H389.963C389.963 162.711 389.769 162.047 389.382 161.587C388.994 161.123 388.441 160.89 387.722 160.89Z" fill="black"/>
<path d="M378.06 159.753C379.255 159.753 380.182 160.162 380.84 160.981C381.504 161.795 381.836 162.949 381.836 164.443C381.836 165.937 381.502 167.099 380.832 167.929C380.168 168.754 379.244 169.166 378.06 169.166C377.467 169.166 376.925 169.058 376.433 168.842C375.946 168.621 375.536 168.283 375.204 167.83H375.104L374.814 169H373.826V156.084H375.204V159.222C375.204 159.924 375.182 160.555 375.138 161.114H375.204C375.846 160.207 376.798 159.753 378.06 159.753ZM377.86 160.907C376.92 160.907 376.242 161.178 375.827 161.72C375.412 162.257 375.204 163.165 375.204 164.443C375.204 165.721 375.417 166.637 375.843 167.19C376.269 167.738 376.953 168.012 377.894 168.012C378.74 168.012 379.371 167.705 379.786 167.091C380.201 166.471 380.409 165.583 380.409 164.426C380.409 163.242 380.201 162.359 379.786 161.778C379.371 161.197 378.729 160.907 377.86 160.907Z" fill="black"/>
<path d="M367.352 162.949C367.352 163.923 367.274 164.795 367.119 165.564C366.964 166.328 366.715 166.978 366.372 167.515C366.035 168.051 365.586 168.461 365.027 168.743C364.468 169.025 363.782 169.167 362.969 169.167C361.956 169.167 361.126 168.92 360.479 168.428C359.831 167.93 359.352 167.219 359.042 166.294C358.738 165.365 358.586 164.25 358.586 162.949C358.586 161.638 358.724 160.517 359.001 159.587C359.283 158.652 359.745 157.936 360.387 157.438C361.029 156.939 361.89 156.69 362.969 156.69C363.981 156.69 364.809 156.939 365.451 157.438C366.098 157.93 366.577 158.644 366.887 159.579C367.197 160.509 367.352 161.632 367.352 162.949ZM361.848 162.949C361.848 163.741 361.876 164.405 361.931 164.941C361.992 165.478 362.103 165.882 362.263 166.153C362.429 166.419 362.664 166.552 362.969 166.552C363.273 166.552 363.506 166.419 363.666 166.153C363.826 165.882 363.937 165.481 363.998 164.95C364.059 164.413 364.089 163.746 364.089 162.949C364.089 162.147 364.059 161.477 363.998 160.94C363.937 160.404 363.826 160 363.666 159.729C363.506 159.452 363.273 159.313 362.969 159.313C362.664 159.313 362.429 159.452 362.263 159.729C362.103 160 361.992 160.404 361.931 160.94C361.876 161.477 361.848 162.147 361.848 162.949Z" fill="#F4C00F"/>
<path d="M357.391 162.949C357.391 163.923 357.313 164.795 357.158 165.564C357.003 166.328 356.754 166.978 356.411 167.515C356.074 168.051 355.625 168.461 355.066 168.743C354.507 169.025 353.821 169.167 353.008 169.167C351.995 169.167 351.165 168.92 350.518 168.428C349.87 167.93 349.391 167.219 349.082 166.294C348.777 165.365 348.625 164.25 348.625 162.949C348.625 161.638 348.763 160.517 349.04 159.587C349.322 158.652 349.784 157.936 350.426 157.438C351.068 156.939 351.929 156.69 353.008 156.69C354.021 156.69 354.848 156.939 355.49 157.438C356.137 157.93 356.616 158.644 356.926 159.579C357.236 160.509 357.391 161.632 357.391 162.949ZM351.887 162.949C351.887 163.741 351.915 164.405 351.97 164.941C352.031 165.478 352.142 165.882 352.302 166.153C352.468 166.419 352.703 166.552 353.008 166.552C353.312 166.552 353.545 166.419 353.705 166.153C353.866 165.882 353.976 165.481 354.037 164.95C354.098 164.413 354.128 163.746 354.128 162.949C354.128 162.147 354.098 161.477 354.037 160.94C353.976 160.404 353.866 160 353.705 159.729C353.545 159.452 353.312 159.313 353.008 159.313C352.703 159.313 352.468 159.452 352.302 159.729C352.142 160 352.031 160.404 351.97 160.94C351.915 161.477 351.887 162.147 351.887 162.949Z" fill="#F4C00F"/>
<path d="M347.43 162.949C347.43 163.923 347.352 164.795 347.197 165.564C347.042 166.328 346.793 166.978 346.45 167.515C346.113 168.051 345.664 168.461 345.105 168.743C344.547 169.025 343.86 169.167 343.047 169.167C342.034 169.167 341.204 168.92 340.557 168.428C339.909 167.93 339.431 167.219 339.121 166.294C338.816 165.365 338.664 164.25 338.664 162.949C338.664 161.638 338.802 160.517 339.079 159.587C339.361 158.652 339.823 157.936 340.465 157.438C341.107 156.939 341.968 156.69 343.047 156.69C344.06 156.69 344.887 156.939 345.529 157.438C346.176 157.93 346.655 158.644 346.965 159.579C347.275 160.509 347.43 161.632 347.43 162.949ZM341.926 162.949C341.926 163.741 341.954 164.405 342.009 164.941C342.07 165.478 342.181 165.882 342.341 166.153C342.507 166.419 342.743 166.552 343.047 166.552C343.351 166.552 343.584 166.419 343.744 166.153C343.905 165.882 344.015 165.481 344.076 164.95C344.137 164.413 344.167 163.746 344.167 162.949C344.167 162.147 344.137 161.477 344.076 160.94C344.015 160.404 343.905 160 343.744 159.729C343.584 159.452 343.351 159.313 343.047 159.313C342.743 159.313 342.507 159.452 342.341 159.729C342.181 160 342.07 160.404 342.009 160.94C341.954 161.477 341.926 162.147 341.926 162.949Z" fill="#F4C00F"/>
<path d="M333.866 167.623C333.866 167.036 334.038 166.624 334.381 166.386C334.729 166.148 335.147 166.029 335.634 166.029C336.094 166.029 336.492 166.148 336.83 166.386C337.167 166.624 337.336 167.036 337.336 167.623C337.336 168.182 337.167 168.586 336.83 168.835C336.492 169.084 336.094 169.208 335.634 169.208C335.147 169.208 334.729 169.084 334.381 168.835C334.038 168.586 333.866 168.182 333.866 167.623Z" fill="#F4C00F"/>
<path d="M328.205 156.69C329.007 156.69 329.71 156.798 330.313 157.014C330.922 157.23 331.398 157.559 331.741 158.002C332.084 158.439 332.256 158.99 332.256 159.654C332.256 160.141 332.165 160.57 331.982 160.94C331.805 161.306 331.559 161.627 331.243 161.903C330.933 162.174 330.574 162.41 330.164 162.609C330.546 162.825 330.925 163.076 331.301 163.364C331.678 163.652 331.99 163.992 332.239 164.385C332.488 164.773 332.613 165.235 332.613 165.771C332.613 166.419 332.455 167 332.14 167.515C331.824 168.024 331.34 168.428 330.687 168.727C330.034 169.02 329.196 169.167 328.172 169.167C327.148 169.167 326.31 169.025 325.657 168.743C325.004 168.461 324.522 168.068 324.212 167.564C323.908 167.055 323.756 166.469 323.756 165.805C323.756 165.24 323.85 164.764 324.038 164.377C324.232 163.99 324.495 163.66 324.827 163.389C325.159 163.118 325.538 162.875 325.964 162.659C325.626 162.432 325.316 162.174 325.034 161.887C324.752 161.599 324.528 161.27 324.362 160.899C324.196 160.528 324.113 160.108 324.113 159.637C324.113 158.984 324.287 158.439 324.636 158.002C324.984 157.565 325.466 157.238 326.08 157.022C326.7 156.801 327.408 156.69 328.205 156.69ZM326.761 165.672C326.761 166.009 326.882 166.283 327.126 166.494C327.369 166.704 327.707 166.809 328.139 166.809C328.642 166.809 329.01 166.715 329.243 166.527C329.481 166.333 329.6 166.07 329.6 165.738C329.6 165.489 329.525 165.265 329.375 165.066C329.232 164.861 329.063 164.684 328.869 164.535C328.675 164.385 328.507 164.269 328.363 164.186L328.139 164.053C327.89 164.181 327.66 164.324 327.45 164.485C327.245 164.64 327.079 164.817 326.952 165.016C326.824 165.21 326.761 165.428 326.761 165.672ZM328.188 159.056C327.917 159.056 327.682 159.136 327.483 159.297C327.284 159.452 327.184 159.665 327.184 159.936C327.184 160.113 327.226 160.279 327.309 160.434C327.397 160.583 327.513 160.722 327.657 160.849C327.807 160.976 327.973 161.093 328.155 161.198C328.316 161.104 328.473 161.001 328.628 160.891C328.783 160.78 328.913 160.647 329.019 160.492C329.124 160.337 329.176 160.152 329.176 159.936C329.176 159.665 329.077 159.452 328.877 159.297C328.684 159.136 328.454 159.056 328.188 159.056Z" fill="#F4C00F"/>
<path d="M322.934 166.652H321.598V169.001H318.36V166.652H313.521V164.245L318.568 156.865H321.598V164.203H322.934V166.652ZM318.36 164.203V162.792C318.36 162.665 318.363 162.504 318.369 162.311C318.374 162.117 318.38 161.923 318.385 161.729C318.396 161.53 318.405 161.364 318.41 161.231C318.421 161.093 318.43 161.018 318.435 161.007H318.344C318.239 161.256 318.142 161.464 318.053 161.63C317.965 161.79 317.848 161.981 317.705 162.203L316.36 164.203H318.36Z" fill="#F4C00F"/>
<path d="M311.089 169.001H307.76V163C307.76 162.889 307.76 162.687 307.76 162.394C307.76 162.095 307.763 161.765 307.769 161.406C307.78 161.046 307.793 160.722 307.81 160.435C307.666 160.606 307.531 160.753 307.403 160.875C307.282 160.996 307.163 161.11 307.046 161.215L305.668 162.352L303.967 160.26L308.134 156.865H311.089V169.001Z" fill="#F4C00F"/>
<path d="M612.706 136.518C612.706 137.365 612.391 138.018 611.76 138.477C611.129 138.936 610.243 139.166 609.104 139.166C607.897 139.166 606.956 138.975 606.281 138.593V137.315C606.718 137.536 607.186 137.711 607.684 137.838C608.188 137.965 608.672 138.029 609.137 138.029C609.856 138.029 610.41 137.915 610.797 137.688C611.184 137.456 611.378 137.105 611.378 136.634C611.378 136.28 611.223 135.979 610.913 135.729C610.609 135.475 610.011 135.176 609.12 134.833C608.273 134.518 607.67 134.244 607.311 134.011C606.956 133.773 606.691 133.505 606.514 133.206C606.342 132.907 606.256 132.55 606.256 132.135C606.256 131.394 606.558 130.81 607.161 130.384C607.764 129.952 608.592 129.736 609.643 129.736C610.623 129.736 611.58 129.936 612.515 130.334L612.025 131.455C611.112 131.078 610.285 130.89 609.543 130.89C608.89 130.89 608.398 130.993 608.066 131.197C607.734 131.402 607.568 131.684 607.568 132.044C607.568 132.287 607.629 132.495 607.75 132.667C607.878 132.838 608.08 133.001 608.356 133.156C608.633 133.311 609.164 133.535 609.95 133.829C611.029 134.222 611.757 134.617 612.133 135.016C612.515 135.414 612.706 135.915 612.706 136.518Z" fill="black"/>
<path d="M604.414 134.443C604.414 135.926 604.04 137.085 603.293 137.921C602.546 138.751 601.514 139.166 600.197 139.166C599.383 139.166 598.661 138.975 598.03 138.593C597.399 138.211 596.912 137.664 596.569 136.95C596.226 136.236 596.055 135.4 596.055 134.443C596.055 132.96 596.425 131.806 597.167 130.981C597.909 130.151 598.938 129.736 600.255 129.736C601.528 129.736 602.538 130.16 603.285 131.006C604.037 131.853 604.414 132.999 604.414 134.443ZM597.482 134.443C597.482 135.605 597.715 136.49 598.18 137.099C598.645 137.708 599.328 138.012 600.23 138.012C601.132 138.012 601.815 137.711 602.28 137.107C602.751 136.499 602.986 135.611 602.986 134.443C602.986 133.286 602.751 132.409 602.28 131.812C601.815 131.208 601.126 130.907 600.213 130.907C599.311 130.907 598.631 131.203 598.171 131.795C597.712 132.387 597.482 133.27 597.482 134.443Z" fill="black"/>
<path d="M593.49 138.03C593.733 138.03 593.968 138.013 594.195 137.98C594.422 137.941 594.602 137.903 594.735 137.864V138.918C594.585 138.99 594.364 139.048 594.071 139.092C593.783 139.142 593.523 139.167 593.291 139.167C591.531 139.167 590.651 138.24 590.651 136.386V130.974H589.348V130.31L590.651 129.737L591.232 127.795H592.029V129.903H594.668V130.974H592.029V136.328C592.029 136.876 592.159 137.297 592.419 137.59C592.679 137.883 593.036 138.03 593.49 138.03Z" fill="black"/>
<path d="M587.629 139H586.251V129.903H587.629V139ZM586.135 127.438C586.135 127.122 586.213 126.892 586.368 126.749C586.523 126.599 586.716 126.524 586.949 126.524C587.17 126.524 587.361 126.599 587.521 126.749C587.682 126.898 587.762 127.128 587.762 127.438C587.762 127.747 587.682 127.98 587.521 128.135C587.361 128.284 587.17 128.359 586.949 128.359C586.716 128.359 586.523 128.284 586.368 128.135C586.213 127.98 586.135 127.747 586.135 127.438Z" fill="black"/>
<path d="M582.018 137.78H581.943C581.307 138.704 580.355 139.166 579.088 139.166C577.898 139.166 576.971 138.759 576.307 137.946C575.649 137.132 575.319 135.976 575.319 134.476C575.319 132.976 575.651 131.812 576.315 130.981C576.979 130.151 577.904 129.736 579.088 129.736C580.322 129.736 581.268 130.185 581.927 131.081H582.035L581.977 130.425L581.943 129.786V126.084H583.321V139H582.201L582.018 137.78ZM579.262 138.012C580.203 138.012 580.884 137.758 581.304 137.249C581.73 136.734 581.943 135.907 581.943 134.767V134.476C581.943 133.187 581.728 132.268 581.296 131.72C580.87 131.167 580.186 130.89 579.246 130.89C578.438 130.89 577.818 131.206 577.386 131.836C576.96 132.462 576.747 133.347 576.747 134.493C576.747 135.655 576.96 136.532 577.386 137.124C577.812 137.716 578.438 138.012 579.262 138.012Z" fill="black"/>
<path d="M570.123 139.167C568.778 139.167 567.716 138.757 566.936 137.938C566.161 137.119 565.773 135.982 565.773 134.526C565.773 133.06 566.133 131.895 566.853 131.032C567.577 130.168 568.549 129.737 569.766 129.737C570.906 129.737 571.808 130.113 572.472 130.866C573.136 131.613 573.468 132.601 573.468 133.829V134.701H567.201C567.229 135.769 567.497 136.579 568.006 137.133C568.521 137.686 569.243 137.963 570.173 137.963C571.152 137.963 572.121 137.758 573.078 137.349V138.577C572.591 138.787 572.129 138.937 571.692 139.025C571.26 139.119 570.737 139.167 570.123 139.167ZM569.75 130.891C569.019 130.891 568.435 131.129 567.998 131.604C567.566 132.08 567.312 132.739 567.234 133.58H571.991C571.991 132.711 571.797 132.047 571.41 131.588C571.022 131.123 570.469 130.891 569.75 130.891ZM568.729 128.492C568.994 128.149 569.279 127.734 569.583 127.247C569.893 126.76 570.137 126.336 570.314 125.977H571.991V126.151C571.747 126.511 571.385 126.953 570.903 127.479C570.422 128.005 570.004 128.411 569.65 128.699H568.729V128.492Z" fill="black"/>
<path d="M563.491 129.736C563.895 129.736 564.257 129.77 564.578 129.836L564.387 131.114C564.011 131.031 563.679 130.99 563.391 130.99C562.655 130.99 562.024 131.289 561.499 131.886C560.978 132.484 560.718 133.228 560.718 134.119V139H559.34V129.902H560.478L560.635 131.587H560.702C561.039 130.995 561.446 130.539 561.922 130.218C562.398 129.897 562.921 129.736 563.491 129.736Z" fill="black"/>
<path d="M554.875 139.166C553.557 139.166 552.536 138.762 551.812 137.954C551.092 137.141 550.732 135.992 550.732 134.509C550.732 132.987 551.098 131.812 551.828 130.981C552.564 130.151 553.61 129.736 554.966 129.736C555.403 129.736 555.84 129.783 556.277 129.877C556.715 129.972 557.058 130.082 557.307 130.209L556.883 131.38C556.579 131.258 556.247 131.159 555.887 131.081C555.528 130.998 555.209 130.957 554.933 130.957C553.084 130.957 552.16 132.135 552.16 134.493C552.16 135.611 552.384 136.468 552.833 137.066C553.286 137.664 553.956 137.962 554.841 137.962C555.599 137.962 556.377 137.799 557.174 137.473V138.693C556.565 139.008 555.799 139.166 554.875 139.166Z" fill="black"/>
<path d="M548.815 134.443C548.815 135.926 548.441 137.085 547.694 137.921C546.947 138.751 545.915 139.166 544.598 139.166C543.785 139.166 543.062 138.975 542.432 138.593C541.801 138.211 541.314 137.664 540.971 136.95C540.628 136.236 540.456 135.4 540.456 134.443C540.456 132.96 540.827 131.806 541.568 130.981C542.31 130.151 543.339 129.736 544.656 129.736C545.929 129.736 546.939 130.16 547.686 131.006C548.439 131.853 548.815 132.999 548.815 134.443ZM541.884 134.443C541.884 135.605 542.116 136.49 542.581 137.099C543.046 137.708 543.729 138.012 544.631 138.012C545.533 138.012 546.217 137.711 546.682 137.107C547.152 136.499 547.387 135.611 547.387 134.443C547.387 133.286 547.152 132.409 546.682 131.812C546.217 131.208 545.528 130.907 544.615 130.907C543.713 130.907 543.032 131.203 542.573 131.795C542.113 132.387 541.884 133.27 541.884 134.443Z" fill="black"/>
<path d="M538.173 129.736C538.577 129.736 538.94 129.77 539.261 129.836L539.07 131.114C538.694 131.031 538.361 130.99 538.074 130.99C537.338 130.99 536.707 131.289 536.181 131.886C535.661 132.484 535.401 133.228 535.401 134.119V139H534.023V129.902H535.16L535.318 131.587H535.384C535.722 130.995 536.129 130.539 536.604 130.218C537.08 129.897 537.603 129.736 538.173 129.736Z" fill="black"/>
<path d="M529.557 139.166C528.24 139.166 527.219 138.762 526.494 137.954C525.775 137.141 525.415 135.992 525.415 134.509C525.415 132.987 525.78 131.812 526.511 130.981C527.247 130.151 528.293 129.736 529.648 129.736C530.086 129.736 530.523 129.783 530.96 129.877C531.397 129.972 531.74 130.082 531.989 130.209L531.566 131.38C531.262 131.258 530.93 131.159 530.57 131.081C530.21 130.998 529.892 130.957 529.615 130.957C527.767 130.957 526.843 132.135 526.843 134.493C526.843 135.611 527.067 136.468 527.515 137.066C527.969 137.664 528.639 137.962 529.524 137.962C530.282 137.962 531.06 137.799 531.856 137.473V138.693C531.248 139.008 530.481 139.166 529.557 139.166Z" fill="black"/>
<path d="M523 139H521.622V129.903H523V139ZM521.505 127.438C521.505 127.122 521.583 126.892 521.738 126.749C521.893 126.599 522.086 126.524 522.319 126.524C522.54 126.524 522.731 126.599 522.892 126.749C523.052 126.898 523.132 127.128 523.132 127.438C523.132 127.747 523.052 127.98 522.892 128.135C522.731 128.284 522.54 128.359 522.319 128.359C522.086 128.359 521.893 128.284 521.738 128.135C521.583 127.98 521.505 127.747 521.505 127.438Z" fill="black"/>
<path d="M517.396 139V133.082C517.396 132.357 517.242 131.814 516.932 131.455C516.622 131.089 516.14 130.907 515.487 130.907C514.63 130.907 513.996 131.153 513.586 131.646C513.177 132.138 512.972 132.896 512.972 133.92V139H511.594V133.082C511.594 132.357 511.439 131.814 511.129 131.455C510.819 131.089 510.335 130.907 509.677 130.907C508.813 130.907 508.18 131.167 507.776 131.687C507.377 132.202 507.178 133.048 507.178 134.227V139H505.8V129.902H506.921L507.145 131.147H507.211C507.472 130.705 507.837 130.359 508.307 130.11C508.783 129.861 509.314 129.736 509.901 129.736C511.323 129.736 512.253 130.251 512.69 131.28H512.756C513.028 130.804 513.42 130.428 513.935 130.151C514.45 129.875 515.036 129.736 515.695 129.736C516.724 129.736 517.493 130.002 518.002 130.533C518.517 131.059 518.774 131.903 518.774 133.065V139H517.396Z" fill="black"/>
<path d="M497.167 139V133.115C497.167 132.373 496.999 131.82 496.661 131.455C496.324 131.089 495.795 130.907 495.076 130.907C494.124 130.907 493.427 131.164 492.984 131.679C492.541 132.193 492.32 133.043 492.32 134.227V139H490.942V129.902H492.062L492.287 131.147H492.353C492.635 130.699 493.031 130.353 493.54 130.11C494.049 129.861 494.616 129.736 495.242 129.736C496.337 129.736 497.162 130.002 497.715 130.533C498.269 131.059 498.545 131.903 498.545 133.065V139H497.167Z" fill="black"/>
<path d="M485.239 139.166C483.895 139.166 482.832 138.757 482.052 137.938C481.277 137.118 480.89 135.981 480.89 134.526C480.89 133.059 481.249 131.895 481.969 131.031C482.694 130.168 483.665 129.736 484.882 129.736C486.022 129.736 486.924 130.113 487.588 130.865C488.252 131.612 488.584 132.6 488.584 133.829V134.7H482.317C482.345 135.768 482.613 136.579 483.123 137.132C483.637 137.686 484.359 137.962 485.289 137.962C486.269 137.962 487.237 137.758 488.194 137.348V138.577C487.707 138.787 487.245 138.936 486.808 139.025C486.376 139.119 485.854 139.166 485.239 139.166ZM484.866 130.89C484.135 130.89 483.551 131.128 483.114 131.604C482.683 132.08 482.428 132.738 482.351 133.58H487.107C487.107 132.711 486.913 132.047 486.526 131.587C486.139 131.123 485.585 130.89 484.866 130.89Z" fill="black"/>
<path d="M474.73 136.518C474.73 137.365 474.415 138.018 473.784 138.477C473.153 138.936 472.268 139.166 471.128 139.166C469.922 139.166 468.981 138.975 468.306 138.593V137.315C468.743 137.536 469.21 137.711 469.708 137.838C470.212 137.965 470.696 138.029 471.161 138.029C471.881 138.029 472.434 137.915 472.821 137.688C473.209 137.456 473.402 137.105 473.402 136.634C473.402 136.28 473.247 135.979 472.938 135.729C472.633 135.475 472.035 135.176 471.145 134.833C470.298 134.518 469.695 134.244 469.335 134.011C468.981 133.773 468.715 133.505 468.538 133.206C468.367 132.907 468.281 132.55 468.281 132.135C468.281 131.394 468.582 130.81 469.186 130.384C469.789 129.952 470.616 129.736 471.667 129.736C472.647 129.736 473.604 129.936 474.54 130.334L474.05 131.455C473.137 131.078 472.309 130.89 471.568 130.89C470.915 130.89 470.422 130.993 470.09 131.197C469.758 131.402 469.592 131.684 469.592 132.044C469.592 132.287 469.653 132.495 469.775 132.667C469.902 132.838 470.104 133.001 470.381 133.156C470.658 133.311 471.189 133.535 471.975 133.829C473.054 134.222 473.781 134.617 474.158 135.016C474.54 135.414 474.73 135.915 474.73 136.518Z" fill="black"/>
<path d="M466.438 134.443C466.438 135.926 466.064 137.085 465.317 137.921C464.57 138.751 463.538 139.166 462.221 139.166C461.408 139.166 460.686 138.975 460.055 138.593C459.424 138.211 458.937 137.664 458.594 136.95C458.251 136.236 458.079 135.4 458.079 134.443C458.079 132.96 458.45 131.806 459.191 130.981C459.933 130.151 460.962 129.736 462.279 129.736C463.552 129.736 464.562 130.16 465.309 131.006C466.062 131.853 466.438 132.999 466.438 134.443ZM459.507 134.443C459.507 135.605 459.739 136.49 460.204 137.099C460.669 137.708 461.352 138.012 462.254 138.012C463.156 138.012 463.84 137.711 464.305 137.107C464.775 136.499 465.01 135.611 465.01 134.443C465.01 133.286 464.775 132.409 464.305 131.812C463.84 131.208 463.151 130.907 462.238 130.907C461.336 130.907 460.655 131.203 460.196 131.795C459.736 132.387 459.507 133.27 459.507 134.443Z" fill="black"/>
<path d="M454.352 137.78H454.277C453.641 138.704 452.689 139.166 451.422 139.166C450.232 139.166 449.305 138.759 448.641 137.946C447.983 137.132 447.653 135.976 447.653 134.476C447.653 132.976 447.985 131.812 448.649 130.981C449.313 130.151 450.238 129.736 451.422 129.736C452.656 129.736 453.602 130.185 454.261 131.081H454.369L454.311 130.425L454.277 129.786V126.084H455.655V139H454.535L454.352 137.78ZM451.596 138.012C452.537 138.012 453.218 137.758 453.638 137.249C454.064 136.734 454.277 135.907 454.277 134.767V134.476C454.277 133.187 454.062 132.268 453.63 131.72C453.204 131.167 452.52 130.89 451.58 130.89C450.772 130.89 450.152 131.206 449.72 131.836C449.294 132.462 449.081 133.347 449.081 134.493C449.081 135.655 449.294 136.532 449.72 137.124C450.146 137.716 450.772 138.012 451.596 138.012Z" fill="black"/>
<path d="M445.238 139H443.86V129.903H445.238V139ZM443.744 127.438C443.744 127.122 443.821 126.892 443.976 126.749C444.131 126.599 444.325 126.524 444.557 126.524C444.778 126.524 444.969 126.599 445.13 126.749C445.29 126.898 445.371 127.128 445.371 127.438C445.371 127.747 445.29 127.98 445.13 128.135C444.969 128.284 444.778 128.359 444.557 128.359C444.325 128.359 444.131 128.284 443.976 128.135C443.821 127.98 443.744 127.747 443.744 127.438Z" fill="black"/>
<path d="M439.626 137.78H439.552C438.915 138.704 437.964 139.166 436.696 139.166C435.507 139.166 434.58 138.759 433.916 137.946C433.257 137.132 432.928 135.976 432.928 134.476C432.928 132.976 433.26 131.812 433.924 130.981C434.588 130.151 435.512 129.736 436.696 129.736C437.93 129.736 438.877 130.185 439.535 131.081H439.643L439.585 130.425L439.552 129.786V126.084H440.93V139H439.809L439.626 137.78ZM436.871 138.012C437.811 138.012 438.492 137.758 438.913 137.249C439.339 136.734 439.552 135.907 439.552 134.767V134.476C439.552 133.187 439.336 132.268 438.904 131.72C438.478 131.167 437.795 130.89 436.854 130.89C436.046 130.89 435.426 131.206 434.995 131.836C434.569 132.462 434.355 133.347 434.355 134.493C434.355 135.655 434.569 136.532 434.995 137.124C435.421 137.716 436.046 138.012 436.871 138.012Z" fill="black"/>
<path d="M427.731 139.166C426.387 139.166 425.324 138.757 424.544 137.938C423.769 137.118 423.382 135.981 423.382 134.526C423.382 133.059 423.742 131.895 424.461 131.031C425.186 130.168 426.157 129.736 427.375 129.736C428.514 129.736 429.417 130.113 430.081 130.865C430.745 131.612 431.077 132.6 431.077 133.829V134.7H424.81C424.837 135.768 425.106 136.579 425.615 137.132C426.129 137.686 426.852 137.962 427.781 137.962C428.761 137.962 429.729 137.758 430.687 137.348V138.577C430.2 138.787 429.737 138.936 429.3 139.025C428.869 139.119 428.346 139.166 427.731 139.166ZM427.358 130.89C426.627 130.89 426.044 131.128 425.606 131.604C425.175 132.08 424.92 132.738 424.843 133.58H429.599C429.599 132.711 429.405 132.047 429.018 131.587C428.631 131.123 428.077 130.89 427.358 130.89Z" fill="black"/>
<path d="M419.422 139.166C418.105 139.166 417.084 138.762 416.359 137.954C415.64 137.141 415.28 135.992 415.28 134.509C415.28 132.987 415.646 131.812 416.376 130.981C417.112 130.151 418.158 129.736 419.514 129.736C419.951 129.736 420.388 129.783 420.825 129.877C421.262 129.972 421.605 130.082 421.854 130.209L421.431 131.38C421.127 131.258 420.795 131.159 420.435 131.081C420.075 130.998 419.757 130.957 419.48 130.957C417.632 130.957 416.708 132.135 416.708 134.493C416.708 135.611 416.932 136.468 417.38 137.066C417.834 137.664 418.504 137.962 419.389 137.962C420.147 137.962 420.925 137.799 421.722 137.473V138.693C421.113 139.008 420.347 139.166 419.422 139.166Z" fill="black"/>
<path d="M411.57 139V133.115C411.57 132.373 411.401 131.82 411.063 131.455C410.726 131.089 410.197 130.907 409.478 130.907C408.526 130.907 407.829 131.164 407.386 131.679C406.944 132.193 406.722 133.043 406.722 134.227V139H405.344V129.902H406.465L406.689 131.147H406.755C407.038 130.699 407.433 130.353 407.942 130.11C408.451 129.861 409.019 129.736 409.644 129.736C410.74 129.736 411.564 130.002 412.118 130.533C412.671 131.059 412.948 131.903 412.948 133.065V139H411.57Z" fill="black"/>
<path d="M402.92 134.443C402.92 135.926 402.547 137.085 401.8 137.921C401.053 138.751 400.021 139.166 398.704 139.166C397.89 139.166 397.168 138.975 396.537 138.593C395.906 138.211 395.419 137.664 395.076 136.95C394.733 136.236 394.562 135.4 394.562 134.443C394.562 132.96 394.932 131.806 395.674 130.981C396.415 130.151 397.445 129.736 398.762 129.736C400.035 129.736 401.044 130.16 401.792 131.006C402.544 131.853 402.92 132.999 402.92 134.443ZM395.989 134.443C395.989 135.605 396.222 136.49 396.687 137.099C397.151 137.708 397.835 138.012 398.737 138.012C399.639 138.012 400.322 137.711 400.787 137.107C401.257 136.499 401.493 135.611 401.493 134.443C401.493 133.286 401.257 132.409 400.787 131.812C400.322 131.208 399.633 130.907 398.72 130.907C397.818 130.907 397.138 131.203 396.678 131.795C396.219 132.387 395.989 133.27 395.989 134.443Z" fill="black"/>
<path d="M390.602 139.166C389.285 139.166 388.264 138.762 387.539 137.954C386.82 137.141 386.46 135.992 386.46 134.509C386.46 132.987 386.825 131.812 387.556 130.981C388.292 130.151 389.338 129.736 390.693 129.736C391.131 129.736 391.568 129.783 392.005 129.877C392.442 129.972 392.785 130.082 393.034 130.209L392.611 131.38C392.306 131.258 391.974 131.159 391.615 131.081C391.255 130.998 390.937 130.957 390.66 130.957C388.812 130.957 387.888 132.135 387.888 134.493C387.888 135.611 388.112 136.468 388.56 137.066C389.014 137.664 389.683 137.962 390.569 137.962C391.327 137.962 392.104 137.799 392.901 137.473V138.693C392.293 139.008 391.526 139.166 390.602 139.166Z" fill="black"/>
<path d="M378.01 126.69C378.513 126.69 379.014 126.749 379.512 126.865C380.016 126.975 380.481 127.128 380.907 127.321L379.919 129.803C379.598 129.665 379.285 129.56 378.981 129.488C378.677 129.416 378.353 129.38 378.01 129.38C377.7 129.38 377.426 129.419 377.188 129.496C376.956 129.574 376.756 129.684 376.59 129.828C376.424 129.972 376.292 130.144 376.192 130.343C376.092 130.542 376.026 130.763 375.993 131.007H378.798V132.708H375.868C375.863 132.742 375.857 132.792 375.852 132.858C375.852 132.919 375.852 132.988 375.852 133.065C375.852 133.137 375.852 133.204 375.852 133.265C375.857 133.326 375.863 133.378 375.868 133.422H378.25V135.124H376.059C376.12 135.428 376.242 135.683 376.424 135.888C376.612 136.087 376.856 136.236 377.155 136.336C377.459 136.436 377.813 136.485 378.217 136.485C378.643 136.485 379.039 136.444 379.404 136.361C379.77 136.278 380.11 136.167 380.425 136.029V138.71C380.132 138.87 379.781 138.987 379.371 139.059C378.967 139.131 378.513 139.167 378.01 139.167C377.113 139.167 376.314 139.02 375.611 138.727C374.908 138.428 374.324 137.979 373.859 137.382C373.395 136.784 373.068 136.032 372.88 135.124H371.585V133.422H372.656C372.65 133.378 372.645 133.323 372.639 133.256C372.639 133.184 372.639 133.121 372.639 133.065C372.639 132.999 372.642 132.924 372.647 132.841C372.653 132.758 372.656 132.714 372.656 132.708H371.585V131.007H372.813C372.991 130.11 373.3 129.341 373.743 128.699C374.191 128.052 374.77 127.556 375.478 127.213C376.192 126.865 377.036 126.69 378.01 126.69Z" fill="#F4C00F"/>
<path d="M361.292 139.001L358.81 130.26H358.735C358.757 130.487 358.78 130.794 358.802 131.182C358.829 131.569 358.854 131.987 358.876 132.435C358.899 132.883 358.91 133.315 358.91 133.73V139.001H356.004V126.865H360.371L362.902 135.481H362.969L365.451 126.865H369.825V139.001H366.812V133.68C366.812 133.298 366.818 132.889 366.829 132.452C366.845 132.009 366.862 131.594 366.878 131.207C366.901 130.814 366.92 130.504 366.937 130.277H366.862L364.413 139.001H361.292Z" fill="#F4C00F"/>
<path d="M344.856 139.001L342.375 130.26H342.3C342.322 130.487 342.344 130.794 342.366 131.182C342.394 131.569 342.419 131.987 342.441 132.435C342.463 132.883 342.474 133.315 342.474 133.73V139.001H339.569V126.865H343.935L346.467 135.481H346.533L349.015 126.865H353.39V139.001H350.376V133.68C350.376 133.298 350.382 132.889 350.393 132.452C350.41 132.009 350.426 131.594 350.443 131.207C350.465 130.814 350.484 130.504 350.501 130.277H350.426L347.978 139.001H344.856Z" fill="#F4C00F"/>
<path d="M337.66 132.949C337.66 133.923 337.582 134.795 337.427 135.564C337.272 136.328 337.023 136.978 336.68 137.515C336.343 138.051 335.894 138.461 335.335 138.743C334.777 139.025 334.09 139.167 333.277 139.167C332.264 139.167 331.434 138.92 330.787 138.428C330.139 137.93 329.66 137.219 329.351 136.294C329.046 135.365 328.894 134.25 328.894 132.949C328.894 131.638 329.032 130.517 329.309 129.587C329.591 128.652 330.053 127.936 330.695 127.438C331.337 126.939 332.198 126.69 333.277 126.69C334.29 126.69 335.117 126.939 335.759 127.438C336.406 127.93 336.885 128.644 337.195 129.579C337.505 130.509 337.66 131.632 337.66 132.949ZM332.156 132.949C332.156 133.741 332.184 134.405 332.239 134.941C332.3 135.478 332.411 135.882 332.571 136.153C332.737 136.419 332.972 136.552 333.277 136.552C333.581 136.552 333.814 136.419 333.974 136.153C334.135 135.882 334.245 135.481 334.306 134.95C334.367 134.413 334.397 133.746 334.397 132.949C334.397 132.147 334.367 131.477 334.306 130.94C334.245 130.404 334.135 130 333.974 129.729C333.814 129.452 333.581 129.313 333.277 129.313C332.972 129.313 332.737 129.452 332.571 129.729C332.411 130 332.3 130.404 332.239 130.94C332.184 131.477 332.156 132.147 332.156 132.949Z" fill="#F4C00F"/>
<path d="M327.699 132.949C327.699 133.923 327.621 134.795 327.466 135.564C327.311 136.328 327.062 136.978 326.719 137.515C326.382 138.051 325.933 138.461 325.375 138.743C324.816 139.025 324.129 139.167 323.316 139.167C322.303 139.167 321.473 138.92 320.826 138.428C320.178 137.93 319.7 137.219 319.39 136.294C319.085 135.365 318.933 134.25 318.933 132.949C318.933 131.638 319.071 130.517 319.348 129.587C319.63 128.652 320.092 127.936 320.734 127.438C321.376 126.939 322.237 126.69 323.316 126.69C324.329 126.69 325.156 126.939 325.798 127.438C326.445 127.93 326.924 128.644 327.234 129.579C327.544 130.509 327.699 131.632 327.699 132.949ZM322.195 132.949C322.195 133.741 322.223 134.405 322.278 134.941C322.339 135.478 322.45 135.882 322.61 136.153C322.776 136.419 323.012 136.552 323.316 136.552C323.62 136.552 323.853 136.419 324.013 136.153C324.174 135.882 324.284 135.481 324.345 134.95C324.406 134.413 324.437 133.746 324.437 132.949C324.437 132.147 324.406 131.477 324.345 130.94C324.284 130.404 324.174 130 324.013 129.729C323.853 129.452 323.62 129.313 323.316 129.313C323.012 129.313 322.776 129.452 322.61 129.729C322.45 130 322.339 130.404 322.278 130.94C322.223 131.477 322.195 132.147 322.195 132.949Z" fill="#F4C00F"/>
<path d="M317.281 129.496C317.281 130.072 317.157 130.57 316.908 130.99C316.664 131.405 316.338 131.746 315.928 132.011C315.524 132.277 315.082 132.476 314.6 132.609V132.659C315.569 132.78 316.316 133.076 316.841 133.547C317.373 134.012 317.638 134.673 317.638 135.531C317.638 136.195 317.461 136.804 317.107 137.357C316.753 137.905 316.202 138.345 315.455 138.677C314.708 139.003 313.748 139.167 312.575 139.167C311.789 139.167 311.119 139.108 310.566 138.992C310.013 138.876 309.476 138.715 308.956 138.511V135.788C309.481 136.059 310.021 136.261 310.574 136.394C311.133 136.521 311.642 136.585 312.102 136.585C312.898 136.585 313.441 136.472 313.729 136.245C314.022 136.018 314.168 135.713 314.168 135.332C314.168 135.055 314.099 134.82 313.961 134.626C313.823 134.432 313.565 134.283 313.189 134.178C312.818 134.073 312.284 134.02 311.587 134.02H310.84V131.555H311.604C312.223 131.555 312.713 131.499 313.073 131.389C313.438 131.278 313.701 131.129 313.861 130.94C314.022 130.747 314.102 130.525 314.102 130.276C314.102 129.955 313.978 129.717 313.729 129.562C313.479 129.408 313.15 129.33 312.741 129.33C312.375 129.33 312.032 129.38 311.711 129.479C311.39 129.579 311.111 129.69 310.873 129.812C310.635 129.933 310.455 130.033 310.333 130.11L308.972 127.919C309.476 127.576 310.051 127.285 310.699 127.047C311.352 126.809 312.204 126.69 313.255 126.69C314.506 126.69 315.488 126.939 316.202 127.438C316.922 127.936 317.281 128.622 317.281 129.496Z" fill="#F4C00F"/>
<path d="M304.174 137.623C304.174 137.036 304.346 136.624 304.689 136.386C305.038 136.148 305.455 136.029 305.942 136.029C306.402 136.029 306.8 136.148 307.138 136.386C307.475 136.624 307.644 137.036 307.644 137.623C307.644 138.182 307.475 138.586 307.138 138.835C306.8 139.084 306.402 139.208 305.942 139.208C305.455 139.208 305.038 139.084 304.689 138.835C304.346 138.586 304.174 138.182 304.174 137.623Z" fill="#F4C00F"/>
<path d="M301.319 139.001H297.99V133C297.99 132.889 297.99 132.687 297.99 132.394C297.99 132.095 297.993 131.765 297.999 131.406C298.01 131.046 298.023 130.722 298.04 130.435C297.896 130.606 297.761 130.753 297.633 130.875C297.512 130.996 297.393 131.11 297.276 131.215L295.898 132.352L294.197 130.26L298.364 126.865H301.319V139.001Z" fill="#F4C00F"/>
</svg>
