<svg width="656" height="428" viewBox="0 0 656 428" fill="none" xmlns="http://www.w3.org/2000/svg">
<path d="M136.378 231.358C135.488 232.919 133.811 233.89 132.017 233.793C130.787 233.727 129.659 233.844 128.993 234.887L123.266 243.895C121.93 245.995 121.391 248.501 121.747 250.967L122.971 260.784C121.996 262.508 119.795 263.092 118.093 262.081L95.6053 247.729L92.3224 245.634C90.9655 244.765 90.0253 243.377 89.7255 241.796L88.0027 232.7C87.7842 231.562 87.027 230.596 85.97 230.123L80.0089 227.439C78.464 226.742 76.665 226.971 75.3437 228.028L67.1567 234.581C65.6728 235.771 63.7061 236.173 61.8715 235.664L45.4823 231.124C43.8409 230.641 42.0825 230.784 40.5427 231.521L25.3833 243.265C23.9909 243.931 22.4206 244.124 20.9112 243.804L11.1743 240.794C1.77275 240.031 34.3682 182.786 50.051 157.163C53.5626 151.423 47.2966 145.063 50.366 138.855C54.2893 130.924 58.5174 123.243 64.7631 117.406C67.2228 115.108 84.5521 112.541 87.149 110.39C98.9746 100.593 99.0305 92.6828 111.73 86.4092C113.133 85.7178 115.232 86.7346 116.116 88.0208L121.706 96.1552L129.248 111.244C129.969 112.688 131.041 113.924 132.368 114.839L170.772 141.367C172.073 142.262 172.51 143.98 171.804 145.393L164.658 159.684C163.916 161.174 164.333 162.979 165.654 163.985L170.701 167.829C172.617 169.293 173.166 171.947 171.976 174.047L160.898 174.362C158.967 174.418 157.213 175.491 156.278 177.178L150.683 187.321C150.012 188.541 149.723 189.934 149.86 191.322L151.456 207.601C151.608 209.136 151.278 210.677 150.52 212.019L148.854 214.973C148.046 216.401 146.765 217.428 145.301 217.937C144.265 218.298 143.396 219.025 142.857 219.975L136.383 231.358H136.378Z" fill="#F4C00F"/>
<path d="M134.69 404.391C136.047 406.018 134.512 408.438 132.464 407.899C100.448 399.445 76.8323 386.816 54.6192 361.539C52.4442 359.068 57.6684 350.405 55.6356 347.812C53.6791 345.316 46.2747 333.129 44.4554 330.526C40.5779 324.98 28.5642 327.801 25.3677 321.823C14.8482 302.133 8.18068 280.241 6.52397 257.104C6.40709 255.467 7.88084 254.17 9.48673 254.491L23.3705 257.073C25.4135 257.485 27.5377 257.053 29.2605 255.873L42.3566 246.905C43.998 245.782 46.0765 245.487 47.967 246.117L62.1557 250.851C62.8316 251.074 63.5787 250.901 64.0818 250.393L71.0084 243.464C72.1925 242.279 73.9102 241.806 75.5313 242.208L77.6607 242.742C79.8154 243.28 81.3552 245.167 81.467 247.383C81.6805 251.491 80.0492 256.819 82.0616 257.826L114.815 276.062C116.4 276.957 117.015 278.929 116.222 280.566L107.654 298.081C106.887 299.652 105.53 300.856 103.883 301.436L76.3038 311.146C73.1123 312.677 71.3591 316.174 72.035 319.652L74.4286 331.945L134.695 404.391H134.69Z" fill="#007EAE" stroke="white" stroke-width="4" stroke-miterlimit="10" stroke-linecap="round"/>
<path d="M96.7989 330.019L96.0671 328.188C94.8068 325.036 96.4381 321.467 99.6448 320.359L121.7 312.738L141.352 274.776C142.226 273.088 142.328 271.111 141.637 269.341L137.988 259.992C137.322 258.284 137.358 256.382 138.089 254.7L140.346 249.509C141.276 247.369 143.766 246.392 145.9 247.333L149.742 249.021C152.009 250.017 154.657 249.082 155.795 246.88L161.212 236.59C162.401 234.293 165.237 233.403 167.529 234.608L204.403 254.049C207.219 255.533 209.089 258.345 209.374 261.517L210.07 269.296C210.415 273.18 212.931 276.53 216.559 277.949L231.515 283.805C233.157 284.446 234.931 284.685 236.684 284.492L253.012 282.717C255.868 282.407 258.755 282.946 261.306 284.263L280.896 294.38L328.473 319.464C331.294 320.949 332.386 324.436 330.923 327.268C321.587 345.367 311.612 356.47 296.661 370.014C288.87 377.071 258.648 359.755 249.256 364.595C240.546 369.084 234.326 374.737 223.339 380.863C216.905 384.453 228.476 407.752 221.179 409.415C209.048 412.186 196.415 413.655 183.446 413.655C177.429 413.655 171.488 413.34 165.639 412.725C163.748 412.526 162.01 411.581 160.826 410.096L96.804 330.024L96.7989 330.019Z" fill="#007EAE" stroke="white" stroke-width="4" stroke-miterlimit="10" stroke-linecap="round"/>
<path d="M167.545 211.546L164.897 201.393C163.982 198.648 163.271 195.145 164.897 192.751L169.15 186.314C170.335 184.57 172.149 183.36 174.212 182.928L185.311 180.62C189.295 177.494 189.661 176.533 192.853 178.002L201.939 181.413C204.267 182.486 206.909 182.633 209.338 181.825L279.306 158.495C280.922 157.956 282.66 157.915 284.302 158.373L335.283 172.643C336.996 173.121 338.394 174.367 339.085 176.009C342.418 183.96 345.168 192.217 347.267 200.727C348.664 206.401 328.24 210.758 329.048 216.64C329.683 221.261 338.704 230.875 342.261 235.451C344.131 237.856 352.171 238.217 352.171 241.297C352.171 243.056 352.145 244.805 352.089 246.554C351.601 262.543 348.888 277.968 344.253 292.539C342.977 296.55 338.414 298.467 334.648 296.586L260.34 259.366C258.851 258.618 257.159 258.39 255.523 258.705L241.034 261.501C240.186 261.664 239.306 261.542 238.534 261.155L227.608 255.685C226.485 255.126 225.687 254.078 225.438 252.848L223.324 242.355C223.105 241.282 222.409 240.372 221.433 239.879L169.364 213.798C168.459 213.346 167.799 212.527 167.545 211.551V211.546Z" fill="#007EAE" stroke="white" stroke-width="4" stroke-miterlimit="10" stroke-linecap="round"/>
<path d="M333.109 154.113C322.289 136.792 311.983 123.502 296.448 110.457C294.049 108.444 291.595 106.496 289.089 104.615C284.653 101.29 275.978 104.788 271.216 101.901C264.478 97.8181 257.429 94.1932 250.116 91.0716C245.212 88.9771 244.257 80.5021 239.129 78.8752C223.416 73.8828 206.711 71.1323 189.377 71.0001C188.477 70.9951 187.583 71.1272 186.724 71.3865L149.962 82.5509C147.517 83.2932 146.841 86.4351 148.762 88.1179L197.518 130.808C199.82 132.821 200.359 136.192 198.804 138.83L190.144 153.493C189.108 155.247 189.667 157.514 191.405 158.582L205.863 167.484C207.281 168.358 209.008 168.556 210.589 168.028L284.246 142.959C285.288 142.613 286.416 142.608 287.458 142.948L329.048 158.694C331.589 160.219 335.655 158.185 333.114 154.118L333.109 154.113Z" fill="#007EAE" stroke="white" stroke-width="4" stroke-miterlimit="10" stroke-linecap="round"/>
<path d="M158.29 71.2441L155.871 72.0169" stroke="white" stroke-width="2" stroke-linecap="round" stroke-linejoin="round" stroke-dasharray="4 4"/>
<path d="M151.16 73.5166L131.229 79.8766C127.707 81.0002 126.757 85.5402 129.526 87.9856L144.569 108.865L176.605 132.338" stroke="white" stroke-width="2" stroke-linecap="round" stroke-linejoin="round" stroke-dasharray="4 4"/>
<path d="M178.603 133.803L180.651 135.303" stroke="white" stroke-width="2" stroke-linecap="round" stroke-linejoin="round" stroke-dasharray="4 4"/>
<path d="M47.7587 123.863L39.5565 137.402C38.3013 139.476 37.91 141.967 38.469 144.326L39.1296 147.097C39.7699 149.786 39.3075 152.623 37.8439 154.972C30.4294 166.863 7.19994 204.612 1 220.459" stroke="white" stroke-width="2" stroke-linecap="round" stroke-linejoin="round" stroke-dasharray="4 4"/>
<path d="M166.091 220.967L213.607 246.839L218.336 267.785L233.641 274.78L258.567 271.281L339.904 314.574C343.777 316.582 347.084 316.739 347.084 321.101V326.434C347.084 329.469 345.95 332.392 343.907 334.634L316.084 368.905" stroke="white" stroke-width="2" stroke-linecap="round" stroke-linejoin="round" stroke-dasharray="4 4"/>
<path d="M48.7754 377.045C48.7754 377.045 98.5782 445.17 226.643 421.784" stroke="white" stroke-width="2" stroke-linecap="round" stroke-linejoin="round" stroke-dasharray="4 4"/>
<path d="M53.3491 120.813C55.3138 120.813 56.9064 119.22 56.9064 117.254C56.9064 115.289 55.3138 113.695 53.3491 113.695C51.3844 113.695 49.7917 115.289 49.7917 117.254C49.7917 119.22 51.3844 120.813 53.3491 120.813Z" fill="white"/>
<path d="M154.987 231.135C156.952 231.135 158.544 229.542 158.544 227.576C158.544 225.611 156.952 224.018 154.987 224.018C153.022 224.018 151.43 225.611 151.43 227.576C151.43 229.542 153.022 231.135 154.987 231.135Z" fill="white"/>
<path d="M42.6772 370.944C44.6419 370.944 46.2346 369.35 46.2346 367.385C46.2346 365.419 44.6419 363.826 42.6772 363.826C40.7125 363.826 39.1199 365.419 39.1199 367.385C39.1199 369.35 40.7125 370.944 42.6772 370.944Z" fill="white"/>
<path d="M350.641 217.409C352.606 217.409 354.198 215.815 354.198 213.85C354.198 211.884 352.606 210.291 350.641 210.291C348.676 210.291 347.084 211.884 347.084 213.85C347.084 215.815 348.676 217.409 350.641 217.409Z" fill="white"/>
<path d="M256.626 380.603C258.591 380.603 260.183 379.01 260.183 377.044C260.183 375.079 258.591 373.485 256.626 373.485C254.661 373.485 253.069 375.079 253.069 377.044C253.069 379.01 254.661 380.603 256.626 380.603Z" fill="white"/>
<path d="M338.445 216.392L352.166 231.135" stroke="white" stroke-width="2" stroke-linecap="round" stroke-linejoin="round" stroke-dasharray="4 4"/>
<rect x="270" y="44" width="386" height="157" rx="20" fill="white"/>
<circle cx="462.703" cy="48.702" r="37.2294" fill="white"/>
<path d="M509.547 48.7734C509.547 22.9412 488.606 2 462.774 2C436.941 2 416 22.9412 416 48.7734" stroke="white" stroke-width="3" stroke-linecap="round" stroke-dasharray="8 8"/>
<path d="M471.859 37.34H461.869V40.94H470.629V46.28H461.869V53H454.789V32H471.859V37.34Z" fill="#007EAE"/>
<path d="M584.785 82.9375C584.46 84.2201 583.887 85.7793 583.066 87.6152H580.928C581.377 85.6882 581.702 84.0573 581.904 82.7227H584.648L584.785 82.9375ZM589.346 82.9375C589.02 84.2201 588.447 85.7793 587.627 87.6152H585.488C585.938 85.6882 586.263 84.0573 586.465 82.7227H589.199L589.346 82.9375Z" fill="#007EAE"/>
<path d="M572.949 89.4414H573.945C574.876 89.4414 575.573 89.2591 576.035 88.8945C576.497 88.5234 576.729 87.9863 576.729 87.2832C576.729 86.5736 576.533 86.0495 576.143 85.7109C575.758 85.3724 575.153 85.2031 574.326 85.2031H572.949V89.4414ZM579.785 87.1758C579.785 88.7122 579.303 89.8874 578.34 90.7012C577.383 91.515 576.019 91.9219 574.248 91.9219H572.949V97H569.922V82.7227H574.482C576.214 82.7227 577.529 83.097 578.428 83.8457C579.333 84.5879 579.785 85.6979 579.785 87.1758Z" fill="#007EAE"/>
<path d="M561.924 97H558.945V82.7227H567.129V85.2031H561.924V88.8848H566.768V91.3555H561.924V97Z" fill="#007EAE"/>
<path d="M550.449 97H547.471V90.623C547.471 89.8353 547.331 89.2461 547.051 88.8555C546.771 88.4583 546.325 88.2598 545.713 88.2598C544.88 88.2598 544.277 88.5397 543.906 89.0996C543.535 89.653 543.35 90.5742 543.35 91.8633V97H540.371V86.082H542.646L543.047 87.4785H543.213C543.545 86.9512 544.001 86.554 544.58 86.2871C545.166 86.0137 545.83 85.877 546.572 85.877C547.842 85.877 548.805 86.222 549.463 86.9121C550.12 87.5957 550.449 88.5853 550.449 89.8809V97Z" fill="#007EAE"/>
<path d="M530.361 91.5215C530.361 92.6022 530.537 93.4193 530.889 93.9727C531.247 94.526 531.826 94.8027 532.627 94.8027C533.421 94.8027 533.991 94.5293 534.336 93.9824C534.688 93.429 534.863 92.6087 534.863 91.5215C534.863 90.4408 534.688 89.6302 534.336 89.0898C533.984 88.5495 533.408 88.2793 532.607 88.2793C531.813 88.2793 531.24 88.5495 530.889 89.0898C530.537 89.6237 530.361 90.4342 530.361 91.5215ZM537.91 91.5215C537.91 93.2988 537.441 94.6888 536.504 95.6914C535.566 96.694 534.261 97.1953 532.588 97.1953C531.54 97.1953 530.615 96.9674 529.814 96.5117C529.014 96.0495 528.398 95.3887 527.969 94.5293C527.539 93.6699 527.324 92.6673 527.324 91.5215C527.324 89.7376 527.79 88.3509 528.721 87.3613C529.652 86.3717 530.96 85.877 532.646 85.877C533.695 85.877 534.619 86.1048 535.42 86.5605C536.221 87.0163 536.836 87.6706 537.266 88.5234C537.695 89.3763 537.91 90.3757 537.91 91.5215ZM530.986 84.8809V84.6172C532.106 83.3151 532.871 82.3353 533.281 81.6777H536.621V81.8828C536.283 82.2214 535.703 82.7259 534.883 83.3965C534.069 84.0605 533.431 84.5553 532.969 84.8809H530.986Z" fill="#007EAE"/>
<path d="M521.748 83.2598C521.748 82.2897 522.288 81.8047 523.369 81.8047C524.45 81.8047 524.99 82.2897 524.99 83.2598C524.99 83.722 524.854 84.0833 524.58 84.3438C524.313 84.5977 523.91 84.7246 523.369 84.7246C522.288 84.7246 521.748 84.2363 521.748 83.2598ZM524.854 97H521.875V86.082H524.854V97Z" fill="#007EAE"/>
<path d="M516.016 97.1953C512.617 97.1953 510.918 95.3301 510.918 91.5996C510.918 89.7441 511.38 88.3281 512.305 87.3516C513.229 86.3685 514.554 85.877 516.279 85.877C517.542 85.877 518.675 86.1243 519.678 86.6191L518.799 88.9238C518.33 88.735 517.894 88.582 517.49 88.4648C517.087 88.3411 516.683 88.2793 516.279 88.2793C514.73 88.2793 513.955 89.3796 513.955 91.5801C513.955 93.7155 514.73 94.7832 516.279 94.7832C516.852 94.7832 517.383 94.7083 517.871 94.5586C518.359 94.4023 518.848 94.1615 519.336 93.8359V96.3848C518.854 96.6908 518.366 96.9023 517.871 97.0195C517.383 97.1367 516.764 97.1953 516.016 97.1953Z" fill="#007EAE"/>
<path d="M506.426 97L505.85 95.5156H505.771C505.27 96.1471 504.753 96.5866 504.219 96.834C503.691 97.0749 503.001 97.1953 502.148 97.1953C501.1 97.1953 500.273 96.8958 499.668 96.2969C499.069 95.6979 498.77 94.8451 498.77 93.7383C498.77 92.5794 499.173 91.7266 499.98 91.1797C500.794 90.6263 502.018 90.3203 503.652 90.2617L505.547 90.2031V89.7246C505.547 88.6178 504.98 88.0645 503.848 88.0645C502.975 88.0645 501.95 88.3281 500.771 88.8555L499.785 86.8438C501.042 86.1862 502.435 85.8574 503.965 85.8574C505.43 85.8574 506.553 86.1764 507.334 86.8145C508.115 87.4525 508.506 88.4225 508.506 89.7246V97H506.426ZM505.547 91.9414L504.395 91.9805C503.529 92.0065 502.884 92.1628 502.461 92.4492C502.038 92.7357 501.826 93.1719 501.826 93.7578C501.826 94.5977 502.308 95.0176 503.271 95.0176C503.962 95.0176 504.512 94.819 504.922 94.4219C505.339 94.0247 505.547 93.4974 505.547 92.8398V91.9414Z" fill="#007EAE"/>
<path d="M489.619 97H486.641V90.623C486.641 89.8353 486.507 89.2461 486.24 88.8555C485.98 88.4583 485.566 88.2598 485 88.2598C484.238 88.2598 483.685 88.5397 483.34 89.0996C482.995 89.6595 482.822 90.5807 482.822 91.8633V97H479.844V86.082H482.119L482.52 87.4785H482.686C482.979 86.9772 483.402 86.5866 483.955 86.3066C484.508 86.0202 485.143 85.877 485.859 85.877C487.493 85.877 488.6 86.4108 489.18 87.4785H489.443C489.736 86.9707 490.166 86.5768 490.732 86.2969C491.305 86.0169 491.95 85.877 492.666 85.877C493.903 85.877 494.837 86.196 495.469 86.834C496.107 87.4655 496.426 88.4811 496.426 89.8809V97H493.438V90.623C493.438 89.8353 493.304 89.2461 493.037 88.8555C492.777 88.4583 492.363 88.2598 491.797 88.2598C491.068 88.2598 490.521 88.5202 490.156 89.041C489.798 89.5618 489.619 90.3887 489.619 91.5215V97Z" fill="#007EAE"/>
<path d="M476.855 85.877C477.259 85.877 477.594 85.9062 477.861 85.9648L477.637 88.7578C477.396 88.6927 477.103 88.6602 476.758 88.6602C475.807 88.6602 475.065 88.9043 474.531 89.3926C474.004 89.8809 473.74 90.5645 473.74 91.4434V97H470.762V86.082H473.018L473.457 87.918H473.604C473.942 87.306 474.398 86.8145 474.971 86.4434C475.55 86.0658 476.178 85.877 476.855 85.877Z" fill="#007EAE"/>
<path d="M460.752 91.5215C460.752 92.6022 460.928 93.4193 461.279 93.9727C461.637 94.526 462.217 94.8027 463.018 94.8027C463.812 94.8027 464.382 94.5293 464.727 93.9824C465.078 93.429 465.254 92.6087 465.254 91.5215C465.254 90.4408 465.078 89.6302 464.727 89.0898C464.375 88.5495 463.799 88.2793 462.998 88.2793C462.204 88.2793 461.631 88.5495 461.279 89.0898C460.928 89.6237 460.752 90.4342 460.752 91.5215ZM468.301 91.5215C468.301 93.2988 467.832 94.6888 466.895 95.6914C465.957 96.694 464.652 97.1953 462.979 97.1953C461.93 97.1953 461.006 96.9674 460.205 96.5117C459.404 96.0495 458.789 95.3887 458.359 94.5293C457.93 93.6699 457.715 92.6673 457.715 91.5215C457.715 89.7376 458.18 88.3509 459.111 87.3613C460.042 86.3717 461.351 85.877 463.037 85.877C464.085 85.877 465.01 86.1048 465.811 86.5605C466.611 87.0163 467.227 87.6706 467.656 88.5234C468.086 89.3763 468.301 90.3757 468.301 91.5215Z" fill="#007EAE"/>
<path d="M450.615 97H447.637V82.7227H455.82V85.2031H450.615V88.8848H455.459V91.3555H450.615V97Z" fill="#007EAE"/>
<path d="M441.738 87.4004C441.882 86.8079 442.116 86.0658 442.441 85.1738C442.773 84.2754 443.112 83.4583 443.457 82.7227H445.596C445.166 84.4609 444.837 86.0918 444.609 87.6152H441.875L441.738 87.4004ZM437.178 87.4004C437.321 86.8079 437.555 86.0658 437.881 85.1738C438.213 84.2754 438.551 83.4583 438.896 82.7227H441.035C440.605 84.4609 440.277 86.0918 440.049 87.6152H437.314L437.178 87.4004Z" fill="#007EAE"/>
<path d="M423.291 91.5215C423.291 92.6022 423.467 93.4193 423.818 93.9727C424.176 94.526 424.756 94.8027 425.557 94.8027C426.351 94.8027 426.921 94.5293 427.266 93.9824C427.617 93.429 427.793 92.6087 427.793 91.5215C427.793 90.4408 427.617 89.6302 427.266 89.0898C426.914 88.5495 426.338 88.2793 425.537 88.2793C424.743 88.2793 424.17 88.5495 423.818 89.0898C423.467 89.6237 423.291 90.4342 423.291 91.5215ZM430.84 91.5215C430.84 93.2988 430.371 94.6888 429.434 95.6914C428.496 96.694 427.191 97.1953 425.518 97.1953C424.469 97.1953 423.545 96.9674 422.744 96.5117C421.943 96.0495 421.328 95.3887 420.898 94.5293C420.469 93.6699 420.254 92.6673 420.254 91.5215C420.254 89.7376 420.719 88.3509 421.65 87.3613C422.581 86.3717 423.89 85.877 425.576 85.877C426.624 85.877 427.549 86.1048 428.35 86.5605C429.15 87.0163 429.766 87.6706 430.195 88.5234C430.625 89.3763 430.84 90.3757 430.84 91.5215Z" fill="#007EAE"/>
<path d="M414.678 83.2598C414.678 82.2897 415.218 81.8047 416.299 81.8047C417.38 81.8047 417.92 82.2897 417.92 83.2598C417.92 83.722 417.783 84.0833 417.51 84.3438C417.243 84.5977 416.839 84.7246 416.299 84.7246C415.218 84.7246 414.678 84.2363 414.678 83.2598ZM417.783 97H414.805V86.082H417.783V97Z" fill="#007EAE"/>
<path d="M411.816 85.877C412.22 85.877 412.555 85.9062 412.822 85.9648L412.598 88.7578C412.357 88.6927 412.064 88.6602 411.719 88.6602C410.768 88.6602 410.026 88.9043 409.492 89.3926C408.965 89.8809 408.701 90.5645 408.701 91.4434V97H405.723V86.082H407.979L408.418 87.918H408.564C408.903 87.306 409.359 86.8145 409.932 86.4434C410.511 86.0658 411.139 85.877 411.816 85.877Z" fill="#007EAE"/>
<path d="M395.713 91.5215C395.713 92.6022 395.889 93.4193 396.24 93.9727C396.598 94.526 397.178 94.8027 397.979 94.8027C398.773 94.8027 399.342 94.5293 399.688 93.9824C400.039 93.429 400.215 92.6087 400.215 91.5215C400.215 90.4408 400.039 89.6302 399.688 89.0898C399.336 88.5495 398.76 88.2793 397.959 88.2793C397.165 88.2793 396.592 88.5495 396.24 89.0898C395.889 89.6237 395.713 90.4342 395.713 91.5215ZM403.262 91.5215C403.262 93.2988 402.793 94.6888 401.855 95.6914C400.918 96.694 399.613 97.1953 397.939 97.1953C396.891 97.1953 395.967 96.9674 395.166 96.5117C394.365 96.0495 393.75 95.3887 393.32 94.5293C392.891 93.6699 392.676 92.6673 392.676 91.5215C392.676 89.7376 393.141 88.3509 394.072 87.3613C395.003 86.3717 396.312 85.877 397.998 85.877C399.046 85.877 399.971 86.1048 400.771 86.5605C401.572 87.0163 402.188 87.6706 402.617 88.5234C403.047 89.3763 403.262 90.3757 403.262 91.5215Z" fill="#007EAE"/>
<path d="M389.248 94.8223C389.769 94.8223 390.394 94.7083 391.123 94.4805V96.6973C390.381 97.0293 389.469 97.1953 388.389 97.1953C387.197 97.1953 386.328 96.8958 385.781 96.2969C385.241 95.6914 384.971 94.7865 384.971 93.582V88.3184H383.545V87.0586L385.186 86.0625L386.045 83.7578H387.949V86.082H391.006V88.3184H387.949V93.582C387.949 94.0052 388.066 94.3177 388.301 94.5195C388.542 94.7214 388.857 94.8223 389.248 94.8223Z" fill="#007EAE"/>
<path d="M378.408 83.2598C378.408 82.2897 378.949 81.8047 380.029 81.8047C381.11 81.8047 381.65 82.2897 381.65 83.2598C381.65 83.722 381.514 84.0833 381.24 84.3438C380.973 84.5977 380.57 84.7246 380.029 84.7246C378.949 84.7246 378.408 84.2363 378.408 83.2598ZM381.514 97H378.535V86.082H381.514V97Z" fill="#007EAE"/>
<path d="M375.547 85.877C375.951 85.877 376.286 85.9062 376.553 85.9648L376.328 88.7578C376.087 88.6927 375.794 88.6602 375.449 88.6602C374.499 88.6602 373.757 88.9043 373.223 89.3926C372.695 89.8809 372.432 90.5645 372.432 91.4434V97H369.453V86.082H371.709L372.148 87.918H372.295C372.633 87.306 373.089 86.8145 373.662 86.4434C374.242 86.0658 374.87 85.877 375.547 85.877Z" fill="#007EAE"/>
<path d="M366.465 85.877C366.868 85.877 367.204 85.9062 367.471 85.9648L367.246 88.7578C367.005 88.6927 366.712 88.6602 366.367 88.6602C365.417 88.6602 364.674 88.9043 364.141 89.3926C363.613 89.8809 363.35 90.5645 363.35 91.4434V97H360.371V86.082H362.627L363.066 87.918H363.213C363.551 87.306 364.007 86.8145 364.58 86.4434C365.16 86.0658 365.788 85.877 366.465 85.877Z" fill="#007EAE"/>
<path d="M353.076 87.9961C352.445 87.9961 351.95 88.1979 351.592 88.6016C351.234 88.9987 351.029 89.5651 350.977 90.3008H355.156C355.143 89.5651 354.951 88.9987 354.58 88.6016C354.209 88.1979 353.708 87.9961 353.076 87.9961ZM353.496 97.1953C351.738 97.1953 350.365 96.7103 349.375 95.7402C348.385 94.7702 347.891 93.3965 347.891 91.6191C347.891 89.7897 348.346 88.377 349.258 87.3809C350.176 86.3783 351.442 85.877 353.057 85.877C354.6 85.877 355.801 86.3164 356.66 87.1953C357.52 88.0742 357.949 89.2884 357.949 90.8379V92.2832H350.908C350.941 93.1296 351.191 93.7904 351.66 94.2656C352.129 94.7409 352.786 94.9785 353.633 94.9785C354.29 94.9785 354.912 94.9102 355.498 94.7734C356.084 94.6367 356.696 94.4186 357.334 94.1191V96.4238C356.813 96.6842 356.257 96.8763 355.664 97C355.072 97.1302 354.349 97.1953 353.496 97.1953Z" fill="#007EAE"/>
<path d="M342.715 97H339.688V85.2422H335.811V82.7227H346.592V85.2422H342.715V97Z" fill="#007EAE"/>
<path d="M580.528 169L580.254 167.705H580.188C579.734 168.275 579.28 168.662 578.826 168.867C578.378 169.066 577.816 169.166 577.141 169.166C576.239 169.166 575.531 168.934 575.016 168.469C574.507 168.004 574.252 167.343 574.252 166.485C574.252 164.648 575.722 163.685 578.66 163.596L580.204 163.546V162.982C580.204 162.268 580.049 161.742 579.739 161.405C579.435 161.062 578.945 160.89 578.27 160.89C577.512 160.89 576.654 161.123 575.697 161.587L575.273 160.533C575.722 160.29 576.211 160.099 576.743 159.96C577.279 159.822 577.816 159.753 578.353 159.753C579.438 159.753 580.24 159.994 580.76 160.475C581.286 160.957 581.549 161.729 581.549 162.791V169H580.528ZM577.415 168.029C578.273 168.029 578.945 167.794 579.432 167.323C579.925 166.853 580.171 166.194 580.171 165.348V164.526L578.793 164.584C577.697 164.623 576.906 164.794 576.419 165.099C575.938 165.397 575.697 165.865 575.697 166.501C575.697 167 575.846 167.379 576.145 167.639C576.449 167.899 576.873 168.029 577.415 168.029Z" fill="black"/>
<path d="M570.708 169V163.082C570.708 162.357 570.553 161.814 570.243 161.455C569.933 161.089 569.452 160.907 568.799 160.907C567.941 160.907 567.307 161.153 566.898 161.646C566.488 162.138 566.284 162.896 566.284 163.92V169H564.906V163.082C564.906 162.357 564.751 161.814 564.441 161.455C564.131 161.089 563.647 160.907 562.988 160.907C562.125 160.907 561.491 161.167 561.087 161.687C560.689 162.202 560.49 163.048 560.49 164.227V169H559.112V159.902H560.232L560.457 161.147H560.523C560.783 160.705 561.148 160.359 561.619 160.11C562.095 159.861 562.626 159.736 563.212 159.736C564.635 159.736 565.564 160.251 566.001 161.28H566.068C566.339 160.804 566.732 160.428 567.247 160.151C567.761 159.875 568.348 159.736 569.006 159.736C570.036 159.736 570.805 160.002 571.314 160.533C571.829 161.059 572.086 161.903 572.086 163.065V169H570.708Z" fill="black"/>
<path d="M555.244 169L554.97 167.705H554.903C554.45 168.275 553.996 168.662 553.542 168.867C553.094 169.066 552.532 169.166 551.857 169.166C550.955 169.166 550.247 168.934 549.732 168.469C549.223 168.004 548.968 167.343 548.968 166.485C548.968 164.648 550.438 163.685 553.376 163.596L554.92 163.546V162.982C554.92 162.268 554.765 161.742 554.455 161.405C554.151 161.062 553.661 160.89 552.986 160.89C552.228 160.89 551.37 161.123 550.413 161.587L549.989 160.533C550.438 160.29 550.927 160.099 551.458 159.96C551.995 159.822 552.532 159.753 553.069 159.753C554.153 159.753 554.956 159.994 555.476 160.475C556.002 160.957 556.265 161.729 556.265 162.791V169H555.244ZM552.131 168.029C552.989 168.029 553.661 167.794 554.148 167.323C554.64 166.853 554.887 166.194 554.887 165.348V164.526L553.509 164.584C552.413 164.623 551.622 164.794 551.135 165.099C550.653 165.397 550.413 165.865 550.413 166.501C550.413 167 550.562 167.379 550.861 167.639C551.165 167.899 551.589 168.029 552.131 168.029Z" fill="black"/>
<path d="M546.86 159.736C547.264 159.736 547.626 159.77 547.947 159.836L547.756 161.114C547.38 161.031 547.048 160.99 546.76 160.99C546.024 160.99 545.393 161.289 544.868 161.886C544.347 162.484 544.087 163.228 544.087 164.119V169H542.709V159.902H543.847L544.004 161.587H544.071C544.408 160.995 544.815 160.539 545.291 160.218C545.767 159.897 546.29 159.736 546.86 159.736Z" fill="black"/>
<path d="M540.842 159.902V160.774L539.157 160.973C539.312 161.167 539.45 161.421 539.572 161.737C539.694 162.047 539.754 162.398 539.754 162.791C539.754 163.682 539.45 164.393 538.841 164.924C538.233 165.456 537.397 165.721 536.334 165.721C536.063 165.721 535.809 165.699 535.571 165.655C534.984 165.965 534.691 166.355 534.691 166.825C534.691 167.074 534.793 167.26 534.998 167.381C535.203 167.498 535.554 167.556 536.052 167.556H537.663C538.648 167.556 539.403 167.763 539.929 168.178C540.46 168.593 540.726 169.196 540.726 169.988C540.726 170.995 540.322 171.761 539.514 172.287C538.706 172.818 537.527 173.084 535.978 173.084C534.788 173.084 533.869 172.863 533.222 172.42C532.58 171.977 532.259 171.352 532.259 170.544C532.259 169.991 532.436 169.512 532.79 169.108C533.144 168.704 533.642 168.43 534.284 168.286C534.052 168.181 533.855 168.018 533.695 167.796C533.54 167.575 533.462 167.318 533.462 167.024C533.462 166.692 533.551 166.402 533.728 166.153C533.905 165.904 534.185 165.663 534.566 165.431C534.096 165.237 533.711 164.908 533.413 164.443C533.119 163.978 532.973 163.447 532.973 162.849C532.973 161.853 533.271 161.087 533.869 160.55C534.467 160.007 535.313 159.736 536.409 159.736C536.885 159.736 537.314 159.792 537.696 159.902H540.842ZM533.587 170.527C533.587 171.02 533.794 171.393 534.209 171.648C534.625 171.903 535.219 172.03 535.994 172.03C537.151 172.03 538.006 171.855 538.559 171.507C539.118 171.164 539.397 170.696 539.397 170.104C539.397 169.611 539.245 169.268 538.941 169.075C538.637 168.887 538.064 168.792 537.223 168.792H535.571C534.945 168.792 534.458 168.942 534.11 169.241C533.761 169.54 533.587 169.968 533.587 170.527ZM534.334 162.816C534.334 163.452 534.514 163.934 534.874 164.26C535.233 164.587 535.734 164.75 536.376 164.75C537.721 164.75 538.393 164.097 538.393 162.791C538.393 161.424 537.712 160.741 536.351 160.741C535.704 160.741 535.206 160.915 534.857 161.264C534.508 161.612 534.334 162.13 534.334 162.816Z" fill="black"/>
<path d="M530.972 164.443C530.972 165.926 530.599 167.085 529.852 167.921C529.104 168.751 528.072 169.166 526.755 169.166C525.942 169.166 525.22 168.975 524.589 168.593C523.958 168.211 523.471 167.664 523.128 166.95C522.785 166.236 522.613 165.4 522.613 164.443C522.613 162.96 522.984 161.806 523.726 160.981C524.467 160.151 525.496 159.736 526.813 159.736C528.086 159.736 529.096 160.16 529.843 161.006C530.596 161.853 530.972 162.999 530.972 164.443ZM524.041 164.443C524.041 165.605 524.273 166.49 524.738 167.099C525.203 167.708 525.887 168.012 526.789 168.012C527.691 168.012 528.374 167.711 528.839 167.107C529.309 166.499 529.544 165.611 529.544 164.443C529.544 163.286 529.309 162.409 528.839 161.812C528.374 161.208 527.685 160.907 526.772 160.907C525.87 160.907 525.189 161.203 524.73 161.795C524.271 162.387 524.041 163.27 524.041 164.443Z" fill="black"/>
<path d="M520.331 159.736C520.735 159.736 521.097 159.77 521.418 159.836L521.227 161.114C520.851 161.031 520.519 160.99 520.231 160.99C519.495 160.99 518.864 161.289 518.338 161.886C517.818 162.484 517.558 163.228 517.558 164.119V169H516.18V159.902H517.317L517.475 161.587H517.542C517.879 160.995 518.286 160.539 518.762 160.218C519.238 159.897 519.761 159.736 520.331 159.736Z" fill="black"/>
<path d="M509.988 169.166C509.396 169.166 508.853 169.058 508.361 168.842C507.874 168.621 507.464 168.283 507.132 167.83H507.033C507.099 168.361 507.132 168.864 507.132 169.34V173.084H505.754V159.902H506.875L507.066 161.147H507.132C507.486 160.649 507.899 160.29 508.369 160.068C508.84 159.847 509.379 159.736 509.988 159.736C511.194 159.736 512.124 160.149 512.777 160.973C513.435 161.798 513.765 162.954 513.765 164.443C513.765 165.937 513.43 167.099 512.76 167.929C512.096 168.754 511.172 169.166 509.988 169.166ZM509.789 160.907C508.859 160.907 508.187 161.164 507.771 161.679C507.356 162.193 507.143 163.012 507.132 164.136V164.443C507.132 165.721 507.345 166.637 507.771 167.19C508.198 167.738 508.881 168.012 509.822 168.012C510.608 168.012 511.222 167.694 511.665 167.058C512.113 166.421 512.337 165.544 512.337 164.426C512.337 163.292 512.113 162.423 511.665 161.82C511.222 161.211 510.597 160.907 509.789 160.907Z" fill="black"/>
<path d="M498.417 169H497.039V156.084H498.417V169Z" fill="black"/>
<path d="M491.336 169.166C489.991 169.166 488.929 168.757 488.148 167.938C487.374 167.118 486.986 165.981 486.986 164.526C486.986 163.059 487.346 161.895 488.065 161.031C488.79 160.168 489.762 159.736 490.979 159.736C492.119 159.736 493.021 160.113 493.685 160.865C494.349 161.612 494.681 162.6 494.681 163.829V164.7H488.414C488.442 165.768 488.71 166.579 489.219 167.132C489.734 167.686 490.456 167.962 491.386 167.962C492.365 167.962 493.334 167.758 494.291 167.348V168.577C493.804 168.787 493.342 168.936 492.905 169.025C492.473 169.119 491.95 169.166 491.336 169.166ZM490.962 160.89C490.232 160.89 489.648 161.128 489.211 161.604C488.779 162.08 488.525 162.738 488.447 163.58H493.204C493.204 162.711 493.01 162.047 492.623 161.587C492.235 161.123 491.682 160.89 490.962 160.89Z" fill="black"/>
<path d="M478.86 169V163.115C478.86 162.373 478.691 161.82 478.354 161.455C478.016 161.089 477.487 160.907 476.768 160.907C475.816 160.907 475.119 161.164 474.676 161.679C474.234 162.193 474.012 163.043 474.012 164.227V169H472.634V159.902H473.755L473.979 161.147H474.045C474.328 160.699 474.723 160.353 475.232 160.11C475.742 159.861 476.309 159.736 476.934 159.736C478.03 159.736 478.854 160.002 479.408 160.533C479.961 161.059 480.238 161.903 480.238 163.065V169H478.86Z" fill="black"/>
<path d="M466.932 169.166C465.587 169.166 464.524 168.757 463.744 167.938C462.969 167.118 462.582 165.981 462.582 164.526C462.582 163.059 462.942 161.895 463.661 161.031C464.386 160.168 465.357 159.736 466.575 159.736C467.715 159.736 468.617 160.113 469.281 160.865C469.945 161.612 470.277 162.6 470.277 163.829V164.7H464.01C464.037 165.768 464.306 166.579 464.815 167.132C465.33 167.686 466.052 167.962 466.981 167.962C467.961 167.962 468.929 167.758 469.887 167.348V168.577C469.4 168.787 468.938 168.936 468.5 169.025C468.069 169.119 467.546 169.166 466.932 169.166ZM466.558 160.89C465.828 160.89 465.244 161.128 464.807 161.604C464.375 162.08 464.12 162.738 464.043 163.58H468.799C468.799 162.711 468.606 162.047 468.218 161.587C467.831 161.123 467.278 160.89 466.558 160.89Z" fill="black"/>
<path d="M456.423 166.518C456.423 167.365 456.107 168.018 455.477 168.477C454.846 168.936 453.96 169.166 452.82 169.166C451.614 169.166 450.673 168.975 449.998 168.593V167.315C450.435 167.536 450.903 167.711 451.401 167.838C451.904 167.965 452.389 168.029 452.854 168.029C453.573 168.029 454.126 167.915 454.514 167.688C454.901 167.456 455.095 167.105 455.095 166.634C455.095 166.28 454.94 165.979 454.63 165.729C454.326 165.475 453.728 165.176 452.837 164.833C451.99 164.518 451.387 164.244 451.027 164.011C450.673 163.773 450.408 163.505 450.23 163.206C450.059 162.907 449.973 162.55 449.973 162.135C449.973 161.394 450.275 160.81 450.878 160.384C451.481 159.952 452.308 159.736 453.36 159.736C454.339 159.736 455.297 159.936 456.232 160.334L455.742 161.455C454.829 161.078 454.002 160.89 453.26 160.89C452.607 160.89 452.115 160.993 451.783 161.197C451.451 161.402 451.285 161.684 451.285 162.044C451.285 162.287 451.346 162.495 451.467 162.667C451.595 162.838 451.797 163.001 452.073 163.156C452.35 163.311 452.881 163.535 453.667 163.829C454.746 164.222 455.474 164.617 455.85 165.016C456.232 165.414 456.423 165.915 456.423 166.518Z" fill="black"/>
<path d="M446.686 169L446.412 167.705H446.346C445.892 168.275 445.438 168.662 444.984 168.867C444.536 169.066 443.974 169.166 443.299 169.166C442.397 169.166 441.689 168.934 441.174 168.469C440.665 168.004 440.411 167.343 440.411 166.485C440.411 164.648 441.88 163.685 444.818 163.596L446.362 163.546V162.982C446.362 162.268 446.207 161.742 445.897 161.405C445.593 161.062 445.103 160.89 444.428 160.89C443.67 160.89 442.812 161.123 441.855 161.587L441.432 160.533C441.88 160.29 442.37 160.099 442.901 159.96C443.438 159.822 443.974 159.753 444.511 159.753C445.596 159.753 446.398 159.994 446.918 160.475C447.444 160.957 447.707 161.729 447.707 162.791V169H446.686ZM443.573 168.029C444.431 168.029 445.103 167.794 445.59 167.323C446.083 166.853 446.329 166.194 446.329 165.348V164.526L444.951 164.584C443.855 164.623 443.064 164.794 442.577 165.099C442.096 165.397 441.855 165.865 441.855 166.501C441.855 167 442.004 167.379 442.303 167.639C442.608 167.899 443.031 168.029 443.573 168.029Z" fill="black"/>
<path d="M438.842 166.518C438.842 167.365 438.526 168.018 437.896 168.477C437.265 168.936 436.379 169.166 435.239 169.166C434.033 169.166 433.092 168.975 432.417 168.593V167.315C432.854 167.536 433.322 167.711 433.82 167.838C434.323 167.965 434.808 168.029 435.272 168.029C435.992 168.029 436.545 167.915 436.933 167.688C437.32 167.456 437.514 167.105 437.514 166.634C437.514 166.28 437.359 165.979 437.049 165.729C436.744 165.475 436.147 165.176 435.256 164.833C434.409 164.518 433.806 164.244 433.446 164.011C433.092 163.773 432.826 163.505 432.649 163.206C432.478 162.907 432.392 162.55 432.392 162.135C432.392 161.394 432.694 160.81 433.297 160.384C433.9 159.952 434.727 159.736 435.779 159.736C436.758 159.736 437.716 159.936 438.651 160.334L438.161 161.455C437.248 161.078 436.421 160.89 435.679 160.89C435.026 160.89 434.534 160.993 434.202 161.197C433.87 161.402 433.704 161.684 433.704 162.044C433.704 162.287 433.764 162.495 433.886 162.667C434.014 162.838 434.215 163.001 434.492 163.156C434.769 163.311 435.3 163.535 436.086 163.829C437.165 164.222 437.893 164.617 438.269 165.016C438.651 165.414 438.842 165.915 438.842 166.518Z" fill="black"/>
<path d="M427.271 169.166C425.926 169.166 424.863 168.757 424.083 167.938C423.308 167.118 422.921 165.981 422.921 164.526C422.921 163.059 423.281 161.895 424 161.031C424.725 160.168 425.696 159.736 426.914 159.736C428.054 159.736 428.956 160.113 429.62 160.865C430.284 161.612 430.616 162.6 430.616 163.829V164.7H424.349C424.376 165.768 424.645 166.579 425.154 167.132C425.668 167.686 426.391 167.962 427.32 167.962C428.3 167.962 429.268 167.758 430.226 167.348V168.577C429.739 168.787 429.277 168.936 428.839 169.025C428.408 169.119 427.885 169.166 427.271 169.166ZM426.897 160.89C426.167 160.89 425.583 161.128 425.146 161.604C424.714 162.08 424.459 162.738 424.382 163.58H429.138C429.138 162.711 428.944 162.047 428.557 161.587C428.17 161.123 427.616 160.89 426.897 160.89Z" fill="black"/>
<path d="M420.638 159.736C421.042 159.736 421.405 159.77 421.726 159.836L421.535 161.114C421.158 161.031 420.826 160.99 420.539 160.99C419.803 160.99 419.172 161.289 418.646 161.886C418.126 162.484 417.866 163.228 417.866 164.119V169H416.488V159.902H417.625L417.783 161.587H417.849C418.187 160.995 418.593 160.539 419.069 160.218C419.545 159.897 420.068 159.736 420.638 159.736Z" fill="black"/>
<path d="M410.295 169.166C409.703 169.166 409.161 169.058 408.668 168.842C408.181 168.621 407.772 168.283 407.44 167.83H407.34C407.407 168.361 407.44 168.864 407.44 169.34V173.084H406.062V159.902H407.183L407.374 161.147H407.44C407.794 160.649 408.206 160.29 408.677 160.068C409.147 159.847 409.687 159.736 410.295 159.736C411.502 159.736 412.431 160.149 413.084 160.973C413.743 161.798 414.072 162.954 414.072 164.443C414.072 165.937 413.737 167.099 413.068 167.929C412.404 168.754 411.48 169.166 410.295 169.166ZM410.096 160.907C409.167 160.907 408.494 161.164 408.079 161.679C407.664 162.193 407.451 163.012 407.44 164.136V164.443C407.44 165.721 407.653 166.637 408.079 167.19C408.505 167.738 409.189 168.012 410.129 168.012C410.915 168.012 411.529 167.694 411.972 167.058C412.42 166.421 412.645 165.544 412.645 164.426C412.645 163.292 412.42 162.423 411.972 161.82C411.529 161.211 410.904 160.907 410.096 160.907Z" fill="black"/>
<path d="M401.837 169V163.082C401.837 162.357 401.682 161.814 401.372 161.455C401.062 161.089 400.581 160.907 399.928 160.907C399.07 160.907 398.436 161.153 398.027 161.646C397.617 162.138 397.413 162.896 397.413 163.92V169H396.035V163.082C396.035 162.357 395.88 161.814 395.57 161.455C395.26 161.089 394.776 160.907 394.117 160.907C393.254 160.907 392.62 161.167 392.216 161.687C391.818 162.202 391.619 163.048 391.619 164.227V169H390.241V159.902H391.361L391.585 161.147H391.652C391.912 160.705 392.277 160.359 392.748 160.11C393.223 159.861 393.755 159.736 394.341 159.736C395.764 159.736 396.693 160.251 397.13 161.28H397.197C397.468 160.804 397.861 160.428 398.375 160.151C398.89 159.875 399.477 159.736 400.135 159.736C401.165 159.736 401.934 160.002 402.443 160.533C402.958 161.059 403.215 161.903 403.215 163.065V169H401.837Z" fill="black"/>
<path d="M384.538 169.166C383.193 169.166 382.131 168.757 381.351 167.938C380.576 167.118 380.188 165.981 380.188 164.526C380.188 163.059 380.548 161.895 381.268 161.031C381.993 160.168 382.964 159.736 384.181 159.736C385.321 159.736 386.223 160.113 386.887 160.865C387.551 161.612 387.883 162.6 387.883 163.829V164.7H381.616C381.644 165.768 381.912 166.579 382.421 167.132C382.936 167.686 383.658 167.962 384.588 167.962C385.567 167.962 386.536 167.758 387.493 167.348V168.577C387.006 168.787 386.544 168.936 386.107 169.025C385.675 169.119 385.152 169.166 384.538 169.166ZM384.165 160.89C383.434 160.89 382.85 161.128 382.413 161.604C381.981 162.08 381.727 162.738 381.649 163.58H386.406C386.406 162.711 386.212 162.047 385.825 161.587C385.437 161.123 384.884 160.89 384.165 160.89Z" fill="black"/>
<path d="M374.561 166.651H373.224V169H369.987V166.651H365.147V164.244L370.194 156.864H373.224V164.202H374.561V166.651ZM369.987 164.202V162.791C369.987 162.664 369.99 162.503 369.995 162.31C370.001 162.116 370.006 161.922 370.012 161.729C370.023 161.529 370.031 161.363 370.037 161.23C370.048 161.092 370.056 161.017 370.062 161.006H369.97C369.865 161.255 369.768 161.463 369.68 161.629C369.591 161.789 369.475 161.98 369.331 162.202L367.986 164.202H369.987Z" fill="#F4C00F"/>
<path d="M364.209 169H355.402V166.841L358.366 163.845C358.98 163.203 359.456 162.688 359.793 162.301C360.137 161.913 360.377 161.584 360.516 161.313C360.654 161.042 360.723 160.76 360.723 160.466C360.723 160.107 360.607 159.847 360.375 159.686C360.142 159.526 359.868 159.445 359.553 159.445C359.171 159.445 358.784 159.556 358.391 159.777C358.003 159.993 357.563 160.314 357.071 160.74L355.27 158.632C355.635 158.305 356.022 157.995 356.432 157.702C356.841 157.403 357.325 157.16 357.884 156.972C358.443 156.784 359.124 156.689 359.926 156.689C360.751 156.689 361.465 156.833 362.068 157.121C362.677 157.409 363.147 157.805 363.479 158.308C363.811 158.806 363.977 159.373 363.977 160.01C363.977 160.713 363.847 161.341 363.587 161.894C363.332 162.442 362.948 162.993 362.433 163.546C361.918 164.094 361.277 164.716 360.507 165.414L359.619 166.21V166.293H364.209V169Z" fill="#F4C00F"/>
<path d="M354.298 162.948C354.298 163.922 354.221 164.794 354.066 165.563C353.911 166.327 353.662 166.977 353.319 167.514C352.981 168.05 352.533 168.46 351.974 168.742C351.415 169.024 350.729 169.166 349.916 169.166C348.903 169.166 348.073 168.919 347.425 168.427C346.778 167.929 346.299 167.218 345.989 166.293C345.685 165.364 345.533 164.249 345.533 162.948C345.533 161.637 345.671 160.516 345.948 159.586C346.23 158.651 346.692 157.935 347.334 157.437C347.976 156.938 348.836 156.689 349.916 156.689C350.928 156.689 351.756 156.938 352.397 157.437C353.045 157.929 353.524 158.643 353.833 159.578C354.143 160.508 354.298 161.631 354.298 162.948ZM348.795 162.948C348.795 163.74 348.823 164.404 348.878 164.94C348.939 165.477 349.049 165.881 349.21 166.152C349.376 166.418 349.611 166.551 349.916 166.551C350.22 166.551 350.452 166.418 350.613 166.152C350.773 165.881 350.884 165.48 350.945 164.949C351.006 164.412 351.036 163.745 351.036 162.948C351.036 162.146 351.006 161.476 350.945 160.939C350.884 160.403 350.773 159.999 350.613 159.728C350.452 159.451 350.22 159.312 349.916 159.312C349.611 159.312 349.376 159.451 349.21 159.728C349.049 159.999 348.939 160.403 348.878 160.939C348.823 161.476 348.795 162.146 348.795 162.948Z" fill="#F4C00F"/>
<path d="M340.735 167.622C340.735 167.035 340.906 166.623 341.25 166.385C341.598 166.147 342.016 166.028 342.503 166.028C342.962 166.028 343.361 166.147 343.698 166.385C344.036 166.623 344.205 167.035 344.205 167.622C344.205 168.181 344.036 168.585 343.698 168.834C343.361 169.083 342.962 169.208 342.503 169.208C342.016 169.208 341.598 169.083 341.25 168.834C340.906 168.585 340.735 168.181 340.735 167.622Z" fill="#F4C00F"/>
<path d="M337.879 169H334.551V162.999C334.551 162.888 334.551 162.686 334.551 162.393C334.551 162.094 334.554 161.764 334.559 161.405C334.57 161.045 334.584 160.721 334.601 160.434C334.457 160.605 334.321 160.752 334.194 160.874C334.072 160.995 333.953 161.109 333.837 161.214L332.459 162.351L330.757 160.259L334.924 156.864H337.879V169Z" fill="#F4C00F"/>
<path d="M556.68 139L556.406 137.705H556.339C555.886 138.275 555.432 138.662 554.978 138.867C554.53 139.066 553.968 139.166 553.293 139.166C552.391 139.166 551.683 138.934 551.168 138.469C550.659 138.004 550.404 137.343 550.404 136.485C550.404 134.648 551.874 133.685 554.812 133.596L556.356 133.546V132.982C556.356 132.268 556.201 131.742 555.891 131.405C555.587 131.062 555.097 130.89 554.422 130.89C553.664 130.89 552.806 131.123 551.849 131.587L551.425 130.533C551.874 130.29 552.363 130.099 552.895 129.96C553.431 129.822 553.968 129.753 554.505 129.753C555.59 129.753 556.392 129.994 556.912 130.475C557.438 130.957 557.701 131.729 557.701 132.791V139H556.68ZM553.567 138.029C554.425 138.029 555.097 137.794 555.584 137.323C556.076 136.853 556.323 136.194 556.323 135.348V134.526L554.945 134.584C553.849 134.623 553.058 134.794 552.571 135.099C552.089 135.397 551.849 135.865 551.849 136.501C551.849 137 551.998 137.379 552.297 137.639C552.601 137.899 553.025 138.029 553.567 138.029Z" fill="black"/>
<path d="M548.952 139H542.353V138.062L547.316 130.973H542.66V129.902H548.827V130.973L543.93 137.929H548.952V139Z" fill="black"/>
<path d="M540.211 139H538.833V129.902H540.211V139ZM538.717 127.437C538.717 127.121 538.794 126.891 538.949 126.748C539.104 126.598 539.298 126.523 539.53 126.523C539.752 126.523 539.943 126.598 540.103 126.748C540.264 126.897 540.344 127.127 540.344 127.437C540.344 127.746 540.264 127.979 540.103 128.134C539.943 128.283 539.752 128.358 539.53 128.358C539.298 128.358 539.104 128.283 538.949 128.134C538.794 127.979 538.717 127.746 538.717 127.437Z" fill="black"/>
<path d="M535.911 139H534.533V126.084H535.911V139Z" fill="black"/>
<path d="M530.665 139L530.391 137.705H530.325C529.871 138.275 529.417 138.662 528.963 138.867C528.515 139.066 527.953 139.166 527.278 139.166C526.376 139.166 525.668 138.934 525.153 138.469C524.644 138.004 524.39 137.343 524.39 136.485C524.39 134.648 525.859 133.685 528.797 133.596L530.341 133.546V132.982C530.341 132.268 530.186 131.742 529.876 131.405C529.572 131.062 529.082 130.89 528.407 130.89C527.649 130.89 526.791 131.123 525.834 131.587L525.411 130.533C525.859 130.29 526.349 130.099 526.88 129.96C527.417 129.822 527.953 129.753 528.49 129.753C529.575 129.753 530.377 129.994 530.897 130.475C531.423 130.957 531.686 131.729 531.686 132.791V139H530.665ZM527.552 138.029C528.41 138.029 529.082 137.794 529.569 137.323C530.062 136.853 530.308 136.194 530.308 135.348V134.526L528.93 134.584C527.834 134.623 527.043 134.794 526.556 135.099C526.075 135.397 525.834 135.865 525.834 136.501C525.834 137 525.983 137.379 526.282 137.639C526.587 137.899 527.01 138.029 527.552 138.029Z" fill="black"/>
<path d="M515.923 129.902V135.804C515.923 136.546 516.092 137.099 516.429 137.464C516.767 137.83 517.295 138.012 518.015 138.012C518.966 138.012 519.661 137.752 520.098 137.232C520.541 136.712 520.762 135.862 520.762 134.684V129.902H522.14V139H521.003L520.804 137.78H520.729C520.447 138.228 520.054 138.571 519.55 138.809C519.052 139.047 518.482 139.166 517.84 139.166C516.734 139.166 515.903 138.903 515.35 138.377C514.802 137.852 514.528 137.011 514.528 135.854V129.902H515.923Z" fill="black"/>
<path d="M512.121 132.816C512.121 134.819 511.576 136.352 510.486 137.415C509.401 138.472 507.838 139 505.796 139H502.434V126.864H506.153C508.04 126.864 509.506 127.387 510.552 128.433C511.598 129.479 512.121 130.94 512.121 132.816ZM510.627 132.866C510.627 131.283 510.229 130.09 509.432 129.288C508.64 128.486 507.462 128.084 505.896 128.084H503.845V137.78H505.563C507.246 137.78 508.51 137.368 509.357 136.543C510.204 135.713 510.627 134.487 510.627 132.866Z" fill="black"/>
<path d="M493.594 139V133.115C493.594 132.373 493.425 131.82 493.087 131.455C492.75 131.089 492.221 130.907 491.502 130.907C490.55 130.907 489.853 131.164 489.41 131.679C488.967 132.193 488.746 133.043 488.746 134.227V139H487.368V129.902H488.489L488.713 131.147H488.779C489.062 130.699 489.457 130.353 489.966 130.11C490.475 129.861 491.043 129.736 491.668 129.736C492.764 129.736 493.588 130.002 494.142 130.533C494.695 131.059 494.972 131.903 494.972 133.065V139H493.594Z" fill="black"/>
<path d="M481.666 139.166C480.321 139.166 479.258 138.757 478.478 137.938C477.703 137.118 477.316 135.981 477.316 134.526C477.316 133.059 477.676 131.895 478.395 131.031C479.12 130.168 480.091 129.736 481.309 129.736C482.449 129.736 483.351 130.113 484.015 130.865C484.679 131.612 485.011 132.6 485.011 133.829V134.7H478.744C478.771 135.768 479.04 136.579 479.549 137.132C480.063 137.686 480.786 137.962 481.715 137.962C482.695 137.962 483.663 137.758 484.621 137.348V138.577C484.134 138.787 483.672 138.936 483.234 139.025C482.803 139.119 482.28 139.166 481.666 139.166ZM481.292 130.89C480.562 130.89 479.978 131.128 479.541 131.604C479.109 132.08 478.854 132.738 478.777 133.58H483.533C483.533 132.711 483.34 132.047 482.952 131.587C482.565 131.123 482.011 130.89 481.292 130.89Z" fill="black"/>
<path d="M471.157 136.518C471.157 137.365 470.841 138.018 470.21 138.477C469.58 138.936 468.694 139.166 467.554 139.166C466.348 139.166 465.407 138.975 464.732 138.593V137.315C465.169 137.536 465.637 137.711 466.135 137.838C466.638 137.965 467.123 138.029 467.587 138.029C468.307 138.029 468.86 137.915 469.248 137.688C469.635 137.456 469.829 137.105 469.829 136.634C469.829 136.28 469.674 135.979 469.364 135.729C469.059 135.475 468.462 135.176 467.571 134.833C466.724 134.518 466.121 134.244 465.761 134.011C465.407 133.773 465.141 133.505 464.964 133.206C464.793 132.907 464.707 132.55 464.707 132.135C464.707 131.394 465.009 130.81 465.612 130.384C466.215 129.952 467.042 129.736 468.094 129.736C469.073 129.736 470.031 129.936 470.966 130.334L470.476 131.455C469.563 131.078 468.736 130.89 467.994 130.89C467.341 130.89 466.849 130.993 466.517 131.197C466.185 131.402 466.019 131.684 466.019 132.044C466.019 132.287 466.079 132.495 466.201 132.667C466.328 132.838 466.53 133.001 466.807 133.156C467.084 133.311 467.615 133.535 468.401 133.829C469.48 134.222 470.208 134.617 470.584 135.016C470.966 135.414 471.157 135.915 471.157 136.518Z" fill="black"/>
<path d="M462.864 134.443C462.864 135.926 462.491 137.085 461.744 137.921C460.997 138.751 459.965 139.166 458.647 139.166C457.834 139.166 457.112 138.975 456.481 138.593C455.85 138.211 455.363 137.664 455.02 136.95C454.677 136.236 454.505 135.4 454.505 134.443C454.505 132.96 454.876 131.806 455.618 130.981C456.359 130.151 457.389 129.736 458.706 129.736C459.978 129.736 460.988 130.16 461.735 131.006C462.488 131.853 462.864 132.999 462.864 134.443ZM455.933 134.443C455.933 135.605 456.166 136.49 456.63 137.099C457.095 137.708 457.779 138.012 458.681 138.012C459.583 138.012 460.266 137.711 460.731 137.107C461.201 136.499 461.437 135.611 461.437 134.443C461.437 133.286 461.201 132.409 460.731 131.812C460.266 131.208 459.577 130.907 458.664 130.907C457.762 130.907 457.081 131.203 456.622 131.795C456.163 132.387 455.933 133.27 455.933 134.443Z" fill="black"/>
<path d="M450.795 139V133.115C450.795 132.373 450.626 131.82 450.289 131.455C449.951 131.089 449.423 130.907 448.703 130.907C447.751 130.907 447.054 131.164 446.611 131.679C446.169 132.193 445.947 133.043 445.947 134.227V139H444.569V129.902H445.69L445.914 131.147H445.98C446.263 130.699 446.658 130.353 447.167 130.11C447.677 129.861 448.244 129.736 448.869 129.736C449.965 129.736 450.789 130.002 451.343 130.533C451.896 131.059 452.173 131.903 452.173 133.065V139H450.795Z" fill="black"/>
<path d="M440.344 139V133.082C440.344 132.357 440.189 131.814 439.879 131.455C439.569 131.089 439.088 130.907 438.435 130.907C437.577 130.907 436.944 131.153 436.534 131.646C436.125 132.138 435.92 132.896 435.92 133.92V139H434.542V133.082C434.542 132.357 434.387 131.814 434.077 131.455C433.767 131.089 433.283 130.907 432.625 130.907C431.761 130.907 431.128 131.167 430.724 131.687C430.325 132.202 430.126 133.048 430.126 134.227V139H428.748V129.902H429.869L430.093 131.147H430.159C430.419 130.705 430.785 130.359 431.255 130.11C431.731 129.861 432.262 129.736 432.849 129.736C434.271 129.736 435.201 130.251 435.638 131.28H435.704C435.975 130.804 436.368 130.428 436.883 130.151C437.397 129.875 437.984 129.736 438.643 129.736C439.672 129.736 440.441 130.002 440.95 130.533C441.465 131.059 441.722 131.903 441.722 133.065V139H440.344Z" fill="black"/>
<path d="M419.601 129.902V135.804C419.601 136.546 419.769 137.099 420.107 137.464C420.444 137.83 420.973 138.012 421.692 138.012C422.644 138.012 423.339 137.752 423.776 137.232C424.219 136.712 424.44 135.862 424.44 134.684V129.902H425.818V139H424.681L424.481 137.78H424.407C424.125 138.228 423.732 138.571 423.228 138.809C422.73 139.047 422.16 139.166 421.518 139.166C420.411 139.166 419.581 138.903 419.028 138.377C418.48 137.852 418.206 137.011 418.206 135.854V129.902H419.601Z" fill="black"/>
<path d="M415.384 139H414.006V126.084H415.384V139Z" fill="black"/>
<path d="M410.138 139L409.864 137.705H409.797C409.344 138.275 408.89 138.662 408.436 138.867C407.988 139.066 407.426 139.166 406.751 139.166C405.849 139.166 405.141 138.934 404.626 138.469C404.117 138.004 403.862 137.343 403.862 136.485C403.862 134.648 405.332 133.685 408.27 133.596L409.814 133.546V132.982C409.814 132.268 409.659 131.742 409.349 131.405C409.045 131.062 408.555 130.89 407.88 130.89C407.122 130.89 406.264 131.123 405.307 131.587L404.883 130.533C405.332 130.29 405.821 130.099 406.353 129.96C406.889 129.822 407.426 129.753 407.963 129.753C409.048 129.753 409.85 129.994 410.37 130.475C410.896 130.957 411.159 131.729 411.159 132.791V139H410.138ZM407.025 138.029C407.883 138.029 408.555 137.794 409.042 137.323C409.535 136.853 409.781 136.194 409.781 135.348V134.526L408.403 134.584C407.307 134.623 406.516 134.794 406.029 135.099C405.547 135.397 405.307 135.865 405.307 136.501C405.307 137 405.456 137.379 405.755 137.639C406.059 137.899 406.483 138.029 407.025 138.029Z" fill="black"/>
<path d="M394.217 131.048C394.892 131.048 395.506 131.2 396.06 131.504C396.613 131.809 397.056 132.251 397.388 132.833C397.72 133.414 397.886 134.122 397.886 134.958C397.886 135.86 397.703 136.626 397.338 137.257C396.978 137.882 396.433 138.358 395.703 138.685C394.978 139.006 394.062 139.166 392.955 139.166C392.252 139.166 391.61 139.111 391.029 139C390.454 138.895 389.939 138.732 389.485 138.51V135.821C389.911 136.014 390.423 136.192 391.021 136.352C391.624 136.507 392.178 136.584 392.681 136.584C393.085 136.584 393.428 136.526 393.71 136.41C393.993 136.294 394.206 136.122 394.35 135.896C394.499 135.669 394.574 135.389 394.574 135.057C394.574 134.598 394.408 134.238 394.076 133.978C393.744 133.712 393.24 133.58 392.565 133.58C392.261 133.58 391.962 133.61 391.668 133.671C391.375 133.732 391.118 133.798 390.896 133.87L389.693 133.272L390.149 126.864H397.072V129.595H392.938L392.789 131.197C392.966 131.164 393.146 131.131 393.329 131.098C393.517 131.064 393.813 131.048 394.217 131.048Z" fill="#F4C00F"/>
<path d="M388.107 132.948C388.107 133.922 388.03 134.794 387.875 135.563C387.72 136.327 387.471 136.977 387.128 137.514C386.79 138.05 386.342 138.46 385.783 138.742C385.224 139.024 384.538 139.166 383.725 139.166C382.712 139.166 381.882 138.919 381.234 138.427C380.587 137.929 380.108 137.218 379.798 136.293C379.494 135.364 379.342 134.249 379.342 132.948C379.342 131.637 379.48 130.516 379.757 129.586C380.039 128.651 380.501 127.935 381.143 127.437C381.785 126.938 382.646 126.689 383.725 126.689C384.737 126.689 385.565 126.938 386.207 127.437C386.854 127.929 387.333 128.643 387.643 129.578C387.952 130.508 388.107 131.631 388.107 132.948ZM382.604 132.948C382.604 133.74 382.632 134.404 382.687 134.94C382.748 135.477 382.859 135.881 383.019 136.152C383.185 136.418 383.42 136.551 383.725 136.551C384.029 136.551 384.261 136.418 384.422 136.152C384.582 135.881 384.693 135.48 384.754 134.949C384.815 134.412 384.845 133.745 384.845 132.948C384.845 132.146 384.815 131.476 384.754 130.939C384.693 130.403 384.582 129.999 384.422 129.728C384.261 129.451 384.029 129.312 383.725 129.312C383.42 129.312 383.185 129.451 383.019 129.728C382.859 129.999 382.748 130.403 382.687 130.939C382.632 131.476 382.604 132.146 382.604 132.948Z" fill="#F4C00F"/>
<path d="M378.163 132.185C378.163 133.053 378.086 133.85 377.931 134.575C377.781 135.3 377.546 135.948 377.225 136.518C376.91 137.082 376.503 137.563 376.005 137.962C375.507 138.355 374.912 138.654 374.22 138.858C373.528 139.063 372.732 139.166 371.83 139.166C371.581 139.166 371.29 139.16 370.958 139.149C370.632 139.138 370.355 139.116 370.128 139.083V136.484C370.366 136.523 370.604 136.556 370.842 136.584C371.08 136.606 371.356 136.617 371.672 136.617C372.585 136.617 373.291 136.487 373.789 136.227C374.292 135.967 374.646 135.607 374.851 135.148C375.056 134.683 375.175 134.149 375.208 133.546H375.108C374.965 133.817 374.79 134.061 374.585 134.276C374.381 134.487 374.123 134.653 373.813 134.774C373.504 134.896 373.119 134.957 372.66 134.957C371.979 134.957 371.387 134.802 370.883 134.492C370.385 134.182 369.998 133.734 369.721 133.147C369.444 132.555 369.306 131.836 369.306 130.989C369.306 130.087 369.478 129.318 369.821 128.682C370.169 128.04 370.665 127.547 371.307 127.204C371.954 126.861 372.723 126.689 373.614 126.689C374.245 126.689 374.834 126.797 375.382 127.013C375.936 127.229 376.42 127.561 376.835 128.009C377.25 128.452 377.574 129.019 377.806 129.711C378.044 130.403 378.163 131.227 378.163 132.185ZM373.697 129.312C373.315 129.312 373.017 129.443 372.801 129.703C372.59 129.963 372.485 130.381 372.485 130.956C372.485 131.41 372.585 131.77 372.784 132.035C372.983 132.301 373.277 132.434 373.664 132.434C373.908 132.434 374.121 132.37 374.303 132.243C374.491 132.11 374.638 131.944 374.743 131.745C374.848 131.54 374.901 131.33 374.901 131.114C374.901 130.898 374.876 130.685 374.826 130.475C374.782 130.259 374.71 130.065 374.61 129.894C374.516 129.716 374.392 129.575 374.237 129.47C374.087 129.365 373.908 129.312 373.697 129.312Z" fill="#F4C00F"/>
<path d="M364.583 137.622C364.583 137.035 364.755 136.623 365.098 136.385C365.446 136.147 365.864 136.028 366.351 136.028C366.81 136.028 367.209 136.147 367.546 136.385C367.884 136.623 368.053 137.035 368.053 137.622C368.053 138.181 367.884 138.585 367.546 138.834C367.209 139.083 366.81 139.208 366.351 139.208C365.864 139.208 365.446 139.083 365.098 138.834C364.755 138.585 364.583 138.181 364.583 137.622Z" fill="#F4C00F"/>
<path d="M354.489 133.87C354.489 133.172 354.539 132.481 354.639 131.794C354.738 131.103 354.918 130.452 355.178 129.844C355.438 129.229 355.806 128.687 356.282 128.217C356.758 127.741 357.37 127.367 358.117 127.096C358.864 126.825 359.774 126.689 360.848 126.689C361.086 126.689 361.376 126.703 361.719 126.731C362.062 126.759 362.347 126.792 362.574 126.831V129.396C362.347 129.351 362.093 129.315 361.811 129.288C361.528 129.254 361.182 129.238 360.773 129.238C359.954 129.238 359.306 129.362 358.831 129.611C358.36 129.855 358.02 130.206 357.81 130.666C357.599 131.125 357.478 131.675 357.444 132.317H357.544C357.688 132.052 357.862 131.814 358.067 131.604C358.277 131.388 358.535 131.219 358.839 131.097C359.143 130.97 359.511 130.906 359.943 130.906C360.651 130.906 361.26 131.061 361.769 131.371C362.278 131.675 362.668 132.121 362.939 132.708C363.211 133.294 363.346 134.008 363.346 134.849C363.346 135.757 363.172 136.534 362.823 137.182C362.48 137.824 361.988 138.316 361.346 138.659C360.709 138.997 359.948 139.166 359.063 139.166C358.41 139.166 357.804 139.06 357.245 138.85C356.692 138.64 356.208 138.319 355.792 137.887C355.383 137.45 355.062 136.899 354.83 136.235C354.603 135.566 354.489 134.777 354.489 133.87ZM358.988 136.567C359.337 136.567 359.619 136.435 359.835 136.169C360.056 135.903 360.167 135.486 360.167 134.916C360.167 134.456 360.076 134.097 359.893 133.836C359.716 133.571 359.425 133.438 359.021 133.438C358.75 133.438 358.521 133.504 358.333 133.637C358.144 133.764 358 133.928 357.901 134.127C357.801 134.326 357.751 134.534 357.751 134.75C357.751 134.965 357.774 135.181 357.818 135.397C357.868 135.613 357.942 135.809 358.042 135.986C358.147 136.158 358.277 136.299 358.432 136.41C358.587 136.515 358.772 136.567 358.988 136.567Z" fill="#F4C00F"/>
</svg>
