<svg width="29" height="29" viewBox="0 0 29 29" fill="none" xmlns="http://www.w3.org/2000/svg">
<path d="M29 14.5C29 22.4979 22.4979 29 14.5 29C6.50211 29 0 22.4979 0 14.5C0 6.50211 6.50211 0 14.5 0C22.4979 0 29 6.50211 29 14.5ZM14.5 2.28947C7.75368 2.28947 2.28947 7.75368 2.28947 14.5C2.28947 21.2463 7.75368 26.7105 14.5 26.7105C21.2463 26.7105 26.7105 21.2463 26.7105 14.5C26.7105 7.75368 21.2463 2.28947 14.5 2.28947ZM16.0263 22.0095V12.8516C16.0263 11.9968 15.3547 11.3253 14.5 11.3253C13.6453 11.3253 12.9737 11.9968 12.9737 12.8516V22.0095C12.9737 22.8642 13.6453 23.5358 14.5 23.5358C15.3547 23.5358 16.0263 22.8642 16.0263 22.0095ZM14.5 5.46421C13.3095 5.46421 12.3632 6.41053 12.3632 7.60105C12.3632 8.79158 13.3095 9.7379 14.5 9.7379C15.6905 9.7379 16.6368 8.79158 16.6368 7.60105C16.6368 6.41053 15.6905 5.46421 14.5 5.46421Z" fill="#019AD8"/>
</svg>
