<svg width="30" height="30" viewBox="0 0 30 30" fill="none" xmlns="http://www.w3.org/2000/svg">
<path d="M15 0C6.72363 0 0 6.72361 0 15C0 23.2764 6.72363 30 15 30C23.2764 30 30 23.2764 30 15C30 6.72361 23.2764 0 15 0ZM14.3333 1.40625V7.33333H9.51042C9.77411 6.55048 10.0726 5.81885 10.4062 5.16667C11.5021 3.02469 12.893 1.71705 14.3333 1.40625ZM15.6667 1.40625C17.107 1.71705 18.4979 3.02469 19.5938 5.16667C19.9274 5.81885 20.2259 6.55048 20.4896 7.33333H15.6667V1.40625ZM11.0312 1.92708C10.3482 2.64768 9.73989 3.5335 9.21875 4.55208C8.78897 5.39211 8.40835 6.32631 8.09375 7.33333H3.6875C5.42298 4.7782 8.00685 2.84294 11.0312 1.92708ZM18.9688 1.92708C21.9931 2.84294 24.577 4.7782 26.3125 7.33333H21.9062C21.5917 6.32631 21.211 5.39211 20.7812 4.55208C20.2601 3.5335 19.6518 2.64768 18.9688 1.92708ZM2.88542 8.66667H7.72917C7.30549 10.403 7.05633 12.3178 7.01042 14.3333H1.35417C1.45268 12.2944 1.99109 10.3742 2.88542 8.66667ZM9.11458 8.66667H14.3333V14.3333H8.34375C8.39318 12.2926 8.66925 10.3749 9.11458 8.66667ZM15.6667 8.66667H20.8854C21.3307 10.3749 21.6068 12.2926 21.6562 14.3333H15.6667V8.66667ZM22.2708 8.66667H27.1146C28.0089 10.3742 28.5473 12.2944 28.6458 14.3333H22.9896C22.9437 12.3178 22.6945 10.403 22.2708 8.66667ZM1.35417 15.6666H7.01042C7.05578 17.6851 7.30485 19.5969 7.72917 21.3333H2.88542C1.99222 19.6251 1.45124 17.7059 1.35417 15.6666ZM8.34375 15.6666H14.3333V21.3333H9.11458C8.66927 19.6262 8.39252 17.7085 8.34375 15.6666ZM15.6667 15.6666H21.6562C21.6075 17.7085 21.3307 19.6262 20.8854 21.3333H15.6667V15.6666ZM22.9896 15.6666H28.6458C28.5488 17.7059 28.0078 19.6251 27.1146 21.3333H22.2708C22.6952 19.5969 22.9442 17.6851 22.9896 15.6666ZM3.67708 22.6667H8.09375C8.40835 23.6723 8.78897 24.5975 9.21875 25.4375C9.73854 26.4534 10.3504 27.3515 11.0312 28.0729C8.00233 27.1556 5.41255 25.2276 3.67708 22.6667ZM9.51042 22.6667H14.3333V28.5938C12.8931 28.2808 11.5021 26.9648 10.4062 24.8229C10.0726 24.1708 9.77411 23.4484 9.51042 22.6667ZM15.6667 22.6667H20.4896C20.2259 23.4484 19.9274 24.1708 19.5938 24.8229C18.4979 26.9648 17.1069 28.2808 15.6667 28.5938V22.6667ZM21.9062 22.6667H26.3229C24.5875 25.2276 21.9977 27.1556 18.9688 28.0729C19.6496 27.3515 20.2615 26.4534 20.7812 25.4375C21.211 24.5975 21.5917 23.6723 21.9062 22.6667Z" fill="#019AD8"/>
</svg>
