<svg width="31" height="18" viewBox="0 0 31 18" fill="none" xmlns="http://www.w3.org/2000/svg">
<path d="M30.5998 8.99758C30.5872 8.67584 30.4548 8.30395 30.2342 8.06941L23.0342 0.419108C22.5463 -0.0193241 21.6108 -0.200313 21.0655 0.306609C20.5284 0.80588 20.5443 1.77418 21.0794 2.27543L26.1419 7.64754H1.34999C0.604435 7.64754 0 8.25198 0 8.99758C0 9.74318 0.604435 10.3476 1.34999 10.3476H26.1419L21.0794 15.7197C20.6188 16.1812 20.5336 17.1836 21.0655 17.6886C21.5972 18.1935 22.5663 18.0322 23.0342 17.576L30.2342 9.92576C30.4805 9.66395 30.6006 9.35677 30.5998 8.99758Z" fill="#019AD8"/>
</svg>
