<svg width="31" height="31" viewBox="0 0 31 31" fill="none" xmlns="http://www.w3.org/2000/svg">
<path d="M9.02236 4.25079C9.02236 4.34629 9.01554 4.44178 9.00872 4.53727C9.00872 4.58502 8.96779 4.72826 9.00872 4.5441C8.97461 4.69416 8.94733 4.84422 8.89959 4.98746C8.87912 5.04203 8.85866 5.10341 8.8382 5.15798C8.90641 4.98064 8.85184 5.12388 8.83138 5.15798C8.7427 5.31486 8.66085 5.46492 8.55854 5.61498C8.6745 5.44446 8.4494 5.73776 8.40848 5.77868C8.31299 5.87418 8.21749 5.96285 8.11518 6.0447C8.27206 5.92192 8.11518 6.0447 8.07425 6.06516C8.01287 6.10609 7.95148 6.14702 7.88327 6.18112C7.8287 6.2084 7.77413 6.23568 7.72639 6.26297C7.52858 6.3721 7.84234 6.23568 7.63772 6.29707C7.49448 6.34482 7.35124 6.38575 7.20117 6.41985C7.01019 6.4676 7.15343 6.43349 7.20117 6.42667C7.12614 6.43349 7.04429 6.44031 6.96926 6.44713C6.82602 6.45395 6.68279 6.44713 6.54637 6.44031C6.25307 6.42667 6.66914 6.4676 6.49862 6.43349C6.39631 6.41303 6.28717 6.38575 6.18486 6.35846C6.11665 6.338 5.82335 6.22204 6.00751 6.3039C5.8711 6.24251 5.7415 6.1743 5.61872 6.09244C5.57098 6.05834 5.52323 6.02424 5.46866 5.99013C5.65283 6.11973 5.42091 5.94921 5.40045 5.92874C5.29132 5.82643 5.189 5.72411 5.09351 5.61498C4.90935 5.41035 5.1549 5.7173 5.06623 5.57406C5.0253 5.51267 4.98438 5.45128 4.94345 5.38989C4.91617 5.34214 4.88206 5.28758 4.85478 5.23301C4.85478 5.23983 4.732 4.97382 4.79339 5.11023C4.85478 5.24665 4.74564 4.97381 4.75246 4.98063C4.732 4.92607 4.71836 4.86468 4.6979 4.80329C4.67744 4.72826 4.66379 4.65323 4.65015 4.5782C4.63651 4.50317 4.63651 4.51681 4.65015 4.61913C4.64333 4.57138 4.64333 4.52363 4.63651 4.48271C4.62287 4.33947 4.62287 4.19623 4.63651 4.05981C4.63651 4.06663 4.67743 3.76651 4.65015 3.91657C4.62287 4.06663 4.68426 3.77333 4.68426 3.78015C4.71836 3.65056 4.75929 3.52096 4.80021 3.39136C4.85478 3.23448 4.68426 3.58917 4.82067 3.35044C4.8616 3.27541 4.90252 3.19355 4.95027 3.11852C4.97755 3.07078 5.01848 3.01621 5.04577 2.96846C5.18218 2.72973 4.91617 3.09806 5.10033 2.89343C5.18218 2.80476 5.25721 2.71609 5.34589 2.63424C5.40727 2.57285 5.47548 2.51146 5.54369 2.45689C5.50959 2.48418 5.39363 2.55239 5.55051 2.45689C5.69375 2.37504 5.83017 2.28637 5.97341 2.21134C6.12347 2.13631 5.74832 2.27955 6.02116 2.19088C6.07572 2.17041 6.13711 2.14995 6.19168 2.13631C6.26671 2.11585 6.33492 2.09538 6.40995 2.08174C6.46452 2.0681 6.66232 2.04082 6.4577 2.06128C6.60093 2.04082 6.73735 2.04082 6.88059 2.04082C6.96244 2.04082 7.03747 2.04764 7.11933 2.05446C7.33759 2.0681 6.98291 2.01353 7.21482 2.0681C7.36488 2.10221 7.50812 2.14313 7.65136 2.19088C7.91737 2.27273 7.49448 2.09538 7.74003 2.22498C7.81506 2.26591 7.89691 2.30683 7.97194 2.35458C8.01969 2.38186 8.07425 2.42279 8.122 2.45007C8.31981 2.56603 8.04015 2.3614 8.19703 2.50464C8.32663 2.62742 8.4494 2.75019 8.57218 2.87979C8.59946 2.9139 8.68132 3.03667 8.579 2.87979C8.62675 2.95482 8.68132 3.02303 8.72224 3.10488C8.76317 3.16627 8.79045 3.23448 8.83138 3.30269C8.85184 3.34361 8.8723 3.38454 8.89277 3.42547C8.85184 3.32997 8.85184 3.32315 8.8723 3.39136C8.92687 3.54824 8.97461 3.70512 9.00872 3.86882C9.05647 4.05981 9.02236 3.91657 9.01554 3.86882C9.01554 3.99842 9.02236 4.1212 9.02236 4.25079C9.02918 4.78283 9.48618 5.30122 10.0455 5.27393C10.5912 5.24665 11.0755 4.82375 11.0686 4.25079C11.0414 2.42279 9.89544 0.840336 8.17657 0.226453C6.57365 -0.346505 4.65015 0.199168 3.57927 1.50879C2.44699 2.89343 2.23554 4.86468 3.16319 6.41985C4.09084 7.9682 5.88474 8.73214 7.65136 8.41156C9.63624 8.05005 11.0414 6.22886 11.0686 4.25079C11.0755 3.71876 10.5912 3.20037 10.0455 3.22766C9.48618 3.24812 9.02918 3.67784 9.02236 4.25079Z" fill="#019AD8"/>
<path d="M9.609 12.6063C10.2774 15.4029 10.9868 18.1995 11.6212 21.0029C11.6212 21.0165 11.628 21.0301 11.628 21.0438C11.628 21.0506 11.6212 20.9551 11.6212 20.9551C11.628 21.0165 11.628 21.0779 11.6212 21.1393C11.6416 21.0165 11.6416 21.0165 11.6212 21.1325C11.6075 21.1666 11.4984 21.4189 11.6007 21.228C11.5802 21.2621 11.4234 21.5076 11.4779 21.4326C11.5666 21.3234 11.362 21.5485 11.3688 21.5349C11.321 21.5758 11.2733 21.6167 11.2256 21.6577C11.3074 21.5895 11.3006 21.5963 11.1983 21.6645C11.1164 21.7054 11.0346 21.76 10.9459 21.8009C11.1369 21.7191 10.8504 21.8146 10.8368 21.8214C10.5844 21.9032 11.0073 21.835 10.7413 21.8418C10.6867 21.8418 10.639 21.8418 10.5844 21.8418C10.3729 21.8418 10.1547 21.8418 9.94322 21.8418C9.33616 21.8418 8.98829 22.3125 8.92008 22.865C8.79731 23.8199 8.67453 24.7748 8.54493 25.7298C8.4699 26.3232 8.38805 26.9166 8.31302 27.51C8.29256 27.6669 8.26528 27.8238 8.25163 27.9875C8.25163 28.008 8.24481 28.0284 8.24481 28.0489C8.23799 28.1171 8.20389 28.2126 8.25163 28.0489C8.23799 28.0898 8.23799 28.1444 8.21753 28.1785C8.13568 28.3081 8.29938 28.0489 8.21071 28.1785C8.10157 28.3422 8.20389 28.2399 8.19024 28.2194C8.19707 28.2262 8.00608 28.3763 8.19707 28.233C8.16296 28.2603 8.12204 28.2808 8.08793 28.3013C7.96515 28.3899 8.21753 28.2194 8.08793 28.3081C8.05383 28.3285 7.99926 28.3285 7.95833 28.3422C8.12886 28.2876 7.94469 28.3354 7.86966 28.3354C7.60365 28.3354 7.34445 28.3354 7.07843 28.3354C6.75103 28.3354 6.4168 28.3354 6.0894 28.3354C5.98027 28.3354 5.87795 28.3354 5.76882 28.3354C5.72789 28.3354 5.50962 28.3217 5.61876 28.3354C5.72789 28.3558 5.38002 28.2126 5.57783 28.3217C5.53008 28.2944 5.47552 28.2671 5.42777 28.2262C5.55737 28.3217 5.43459 28.2194 5.43459 28.2126C5.42777 28.2262 5.54373 28.3422 5.46187 28.2467C5.44141 28.2262 5.35274 28.0625 5.40731 28.1785C5.46188 28.2944 5.38684 28.1376 5.39367 28.1376C5.3732 28.0352 5.36638 28.0216 5.38002 28.0966C5.38685 28.158 5.38685 28.158 5.38685 28.0966C5.38003 28.0011 5.36638 27.9056 5.35274 27.8101C5.28453 27.2849 5.21632 26.7529 5.14811 26.2277C5.00487 25.1091 4.85481 23.9904 4.71157 22.865C4.64336 22.3193 4.30232 21.8418 3.68844 21.8418C3.55202 21.8418 3.40878 21.8418 3.27236 21.8418C3.19051 21.8418 3.11548 21.8418 3.03363 21.8418C2.97224 21.8418 2.74033 21.8214 2.84946 21.8418C3.00634 21.8691 2.71304 21.8077 2.71987 21.8077C2.65848 21.7941 2.60391 21.7736 2.54252 21.7532C2.72669 21.8146 2.43339 21.685 2.372 21.6509C2.13327 21.5281 2.44021 21.7259 2.31743 21.6236C2.26286 21.5758 2.20829 21.5213 2.15373 21.4667C2.11962 21.4394 2.04459 21.3166 2.14691 21.4667C2.09916 21.3917 2.05141 21.3166 2.01049 21.2348C2.1128 21.4462 1.99003 20.9892 2.01049 21.2416C2.00367 21.1802 2.00367 21.1188 2.00367 21.0574C2.00367 21.0847 1.95592 21.2689 2.00367 21.0438C2.01049 21.0233 2.01731 20.996 2.01731 20.9756C2.05141 20.8323 2.08552 20.6959 2.11962 20.5527C2.44703 19.1749 2.78125 17.8039 3.10866 16.426C3.40196 15.2119 3.68844 13.9978 3.98174 12.7837C4.00902 12.6609 4.0363 12.5381 4.07041 12.4153C4.10451 12.2925 4.14544 12.1766 4.19318 12.0538C4.11816 12.238 4.28186 11.8901 4.30914 11.8492C4.35006 11.7878 4.38417 11.7264 4.43192 11.665C4.40463 11.7059 4.30232 11.7946 4.43192 11.6718C4.47284 11.6377 4.51377 11.59 4.54787 11.5491C4.69111 11.3922 4.41145 11.6036 4.60244 11.5081C4.65019 11.4809 4.69793 11.4536 4.74568 11.4263C4.56151 11.5286 4.7184 11.4468 4.77296 11.4195C4.82753 11.399 5.01852 11.3717 4.80025 11.399C4.86163 11.3922 4.92302 11.3922 4.98441 11.3922C5.02534 11.3922 5.06626 11.3922 5.11401 11.3922C5.40049 11.3922 5.68697 11.3922 5.97344 11.3922C6.78513 11.3922 7.59 11.3922 8.40169 11.3922C8.4699 11.3922 8.53811 11.3922 8.60632 11.3922C8.64043 11.3922 8.67453 11.3922 8.70181 11.3922C8.94737 11.3922 8.55175 11.3308 8.77684 11.4058C8.81777 11.4195 8.88598 11.4399 8.93373 11.4536C8.74956 11.4195 8.89962 11.4399 8.98147 11.4877C9.02922 11.515 9.07014 11.5422 9.11789 11.5763C8.9269 11.4399 9.11107 11.5832 9.15199 11.6241C9.19292 11.665 9.22703 11.7059 9.26113 11.7469C9.11789 11.5695 9.26795 11.7673 9.29523 11.8151C9.33616 11.8765 9.36344 11.9447 9.39755 12.0061C9.41801 12.047 9.43847 12.0879 9.45212 12.1288C9.41119 12.0402 9.41119 12.0265 9.43165 12.0947C9.52032 12.2653 9.56807 12.4358 9.609 12.6063C9.73177 13.1452 10.3525 13.4657 10.8709 13.3225C11.4234 13.1724 11.7098 12.6063 11.5871 12.0606C11.246 10.5941 10.2297 9.38001 8.64043 9.34591C8.04018 9.33226 7.43312 9.34591 6.82606 9.34591C6.219 9.34591 5.61876 9.33226 5.0117 9.34591C3.42924 9.38001 2.42656 10.6146 2.06506 12.0606C1.41025 14.6662 0.810006 17.2923 0.189302 19.9047C-0.00168361 20.7096 -0.144923 21.4735 0.257511 22.2647C0.632662 23.0082 1.38979 23.5539 2.18101 23.779C2.67894 23.9154 3.19051 23.8881 3.69526 23.8881C3.35421 23.5471 3.01316 23.206 2.67212 22.865C2.80854 23.9222 2.94495 24.9726 3.08137 26.0299C3.1564 26.6097 3.23143 27.1963 3.30646 27.776C3.32011 27.8988 3.33375 28.0216 3.34739 28.1444C3.4156 28.881 3.72936 29.5017 4.3296 29.9451C4.99123 30.4362 5.77564 30.3816 6.5464 30.3816C7.16711 30.3816 7.8492 30.4567 8.45626 30.3271C9.09743 30.1907 9.67721 29.7541 9.99779 29.1743C10.2092 28.7924 10.2502 28.4104 10.2979 27.9875C10.3457 27.5168 10.4207 27.0462 10.4821 26.5756C10.6458 25.341 10.8027 24.1064 10.9664 22.865C10.6253 23.206 10.2843 23.5471 9.94322 23.8881C10.523 23.8881 11.1028 23.9154 11.6485 23.7039C12.5488 23.3629 13.3537 22.6399 13.5856 21.6781C13.7629 20.9551 13.5447 20.2798 13.3741 19.5841C12.9103 17.6402 12.4465 15.6962 11.9759 13.7522C11.8394 13.1861 11.703 12.62 11.5666 12.0538C11.437 11.515 10.8299 11.1944 10.3047 11.3376C9.7727 11.4945 9.4794 12.0675 9.609 12.6063Z" fill="#019AD8"/>
<path d="M26.1568 4.25079C26.1568 4.34629 26.15 4.44178 26.1432 4.53727C26.1432 4.58502 26.1023 4.72826 26.1432 4.5441C26.1091 4.69416 26.0818 4.84422 26.034 4.98746C26.0136 5.04203 25.9931 5.10341 25.9727 5.15798C26.0409 4.98064 25.9863 5.12388 25.9658 5.15798C25.8772 5.31486 25.7953 5.46492 25.693 5.61498C25.809 5.44446 25.5839 5.73776 25.5429 5.77868C25.4474 5.87418 25.352 5.96285 25.2496 6.0447C25.4065 5.92192 25.2496 6.0447 25.2087 6.06516C25.1473 6.10609 25.0859 6.14702 25.0177 6.18112C24.9632 6.2084 24.9086 6.23568 24.8608 6.26297C24.663 6.3721 24.9768 6.23568 24.7722 6.29707C24.6289 6.34482 24.4857 6.38575 24.3356 6.41985C24.1447 6.4676 24.2879 6.43349 24.3356 6.42667C24.2606 6.43349 24.1788 6.44031 24.1037 6.44713C23.9605 6.45395 23.8172 6.44713 23.6808 6.44031C23.3875 6.42667 23.8036 6.4676 23.6331 6.43349C23.5308 6.41303 23.4216 6.38575 23.3193 6.35846C23.2511 6.338 22.9578 6.22204 23.142 6.3039C23.0056 6.24251 22.876 6.1743 22.7532 6.09244C22.7054 6.05834 22.6577 6.02424 22.6031 5.99013C22.7873 6.11973 22.5554 5.94921 22.5349 5.92874C22.4258 5.82643 22.3235 5.72411 22.228 5.61498C22.0438 5.41035 22.2894 5.7173 22.2007 5.57406C22.1598 5.51267 22.1188 5.45128 22.0779 5.38989C22.0506 5.34214 22.0165 5.28758 21.9892 5.23301C21.9892 5.23983 21.8665 4.97382 21.9279 5.11023C21.9892 5.24665 21.8801 4.97381 21.8869 4.98063C21.8665 4.92607 21.8528 4.86468 21.8324 4.80329C21.8119 4.72826 21.7983 4.65323 21.7846 4.5782C21.771 4.50317 21.771 4.51681 21.7846 4.61913C21.7778 4.57138 21.7778 4.52363 21.771 4.48271C21.7573 4.33947 21.7573 4.19623 21.771 4.05981C21.771 4.06663 21.8119 3.76651 21.7846 3.91657C21.7573 4.06663 21.8187 3.77333 21.8187 3.78015C21.8528 3.65056 21.8937 3.52096 21.9347 3.39136C21.9892 3.23448 21.8187 3.58917 21.9551 3.35044C21.9961 3.27541 22.037 3.19355 22.0847 3.11852C22.112 3.07078 22.1529 3.01621 22.1802 2.96846C22.3166 2.72973 22.0506 3.09806 22.2348 2.89343C22.3166 2.80476 22.3917 2.71609 22.4803 2.63424C22.5417 2.57285 22.6099 2.51146 22.6782 2.45689C22.644 2.48418 22.5281 2.55239 22.685 2.45689C22.8282 2.37504 22.9646 2.28637 23.1079 2.21134C23.2579 2.13631 22.8828 2.27955 23.1556 2.19088C23.2102 2.17041 23.2716 2.14995 23.3261 2.13631C23.4012 2.11585 23.4694 2.09538 23.5444 2.08174C23.599 2.0681 23.7968 2.04082 23.5922 2.06128C23.7354 2.04082 23.8718 2.04082 24.0151 2.04082C24.0969 2.04082 24.1719 2.04764 24.2538 2.05446C24.4721 2.0681 24.1174 2.01353 24.3493 2.0681C24.4993 2.10221 24.6426 2.14313 24.7858 2.19088C25.0518 2.27273 24.6289 2.09538 24.8745 2.22498C24.9495 2.26591 25.0314 2.30683 25.1064 2.35458C25.1541 2.38186 25.2087 2.42279 25.2565 2.45007C25.4543 2.56603 25.1746 2.3614 25.3315 2.50464C25.4611 2.62742 25.5839 2.75019 25.7066 2.87979C25.7339 2.9139 25.8158 3.03667 25.7135 2.87979C25.7612 2.95482 25.8158 3.02303 25.8567 3.10488C25.8976 3.16627 25.9249 3.23448 25.9658 3.30269C25.9863 3.34361 26.0068 3.38454 26.0272 3.42547C25.9863 3.32997 25.9863 3.32315 26.0068 3.39136C26.0613 3.54824 26.1091 3.70512 26.1432 3.86882C26.1909 4.05981 26.1568 3.91657 26.15 3.86882C26.1568 3.99842 26.1568 4.1212 26.1568 4.25079C26.1636 4.78283 26.6206 5.30122 27.18 5.27393C27.7256 5.24665 28.2099 4.82375 28.2031 4.25079C28.1758 2.42279 27.0299 0.840336 25.311 0.226453C23.7081 -0.346505 21.7846 0.199168 20.7137 1.50879C19.5815 2.89343 19.37 4.86468 20.2977 6.41985C21.2253 7.9682 23.0192 8.73214 24.7858 8.41156C26.7707 8.05005 28.1758 6.22886 28.2031 4.25079C28.2099 3.71876 27.7256 3.20037 27.18 3.22766C26.6206 3.24812 26.1705 3.67784 26.1568 4.25079Z" fill="#019AD8"/>
<path d="M28.053 12.3339C28.053 14.6257 28.0939 16.9175 28.053 19.2025C28.053 19.223 28.053 19.2503 28.053 19.2707C28.053 19.3321 28.012 19.5231 28.053 19.3253C28.0393 19.4003 28.0189 19.4754 27.9984 19.5436C27.9575 19.7005 28.1143 19.3526 27.9847 19.5913C27.9438 19.6664 27.8961 19.7482 27.8483 19.8232C27.8756 19.7823 27.9711 19.7005 27.8415 19.8232C27.7801 19.8846 27.7187 19.9528 27.6505 20.0074C27.7938 19.8914 27.6778 19.9869 27.6437 20.0074C27.5619 20.0483 27.4936 20.0961 27.405 20.137C27.6437 20.0347 27.0366 20.1916 27.3095 20.1643C27.1253 20.1847 26.9343 20.1711 26.7502 20.1711C26.1977 20.1711 25.727 20.6417 25.727 21.1942C25.727 22.4084 25.727 23.6225 25.727 24.8298C25.727 25.621 25.727 26.4122 25.727 27.2103C25.727 27.4422 25.727 27.6673 25.727 27.8992C25.727 27.9469 25.727 27.9947 25.727 28.0424C25.727 28.0493 25.727 28.0561 25.727 28.0629C25.727 28.097 25.727 28.1243 25.727 28.1584C25.7475 28.0356 25.7407 28.0356 25.7134 28.1516C25.7066 28.1789 25.6929 28.2061 25.6861 28.2334C25.7338 28.1243 25.727 28.1243 25.6725 28.2266C25.6656 28.2402 25.6588 28.2539 25.6452 28.2607C25.6042 28.3221 25.6111 28.3085 25.6725 28.2266C25.652 28.2471 25.6315 28.2675 25.6111 28.288C25.6929 28.2334 25.7066 28.2198 25.6452 28.2607C25.6111 28.3016 25.4201 28.3698 25.6179 28.2948C25.5633 28.3153 25.5019 28.3289 25.4474 28.3426C25.6315 28.2948 25.3792 28.3357 25.3109 28.3357C24.9767 28.3357 24.6357 28.3357 24.3015 28.3357C23.8786 28.3357 23.4488 28.3357 23.0259 28.3357C22.8963 28.3357 22.7667 28.3357 22.6371 28.3357C22.5962 28.3357 22.5553 28.3357 22.5212 28.3357C22.4803 28.3357 22.3234 28.3221 22.4393 28.3357C22.5894 28.3562 22.3166 28.2948 22.3097 28.2948C22.5417 28.3835 22.3097 28.2948 22.3166 28.2812C22.2893 28.2675 22.2688 28.2471 22.2415 28.2334C22.337 28.3016 22.337 28.3016 22.2484 28.2198C22.2552 28.2334 22.262 28.2471 22.2756 28.2539C22.3166 28.3153 22.3097 28.3016 22.2484 28.2198C22.2347 28.2266 22.1801 28.0765 22.2347 28.2266C22.2143 28.1789 22.1801 27.9197 22.1938 28.1448C22.1938 28.1107 22.187 28.0765 22.1938 28.0356C22.2006 27.8856 22.1938 27.7355 22.1938 27.5923C22.1938 26.8897 22.1938 26.194 22.1938 25.4914C22.1938 24.0522 22.1938 22.6198 22.1938 21.1806C22.1938 20.6281 21.7231 20.1575 21.1706 20.1575C21.0479 20.1575 20.9251 20.1575 20.8023 20.1575C20.8091 20.1575 20.509 20.1302 20.6591 20.1506C20.8091 20.1779 20.5227 20.1097 20.5227 20.1097C20.4886 20.1029 20.3317 20.0415 20.5158 20.1165C20.434 20.0824 20.359 20.0279 20.2771 19.9869C20.1202 19.9051 20.2294 19.9528 20.2703 19.9869C20.2157 19.9392 20.1612 19.8846 20.1066 19.8369C20.0657 19.7959 19.9633 19.6459 20.0725 19.8028C20.0384 19.755 20.0043 19.7005 19.977 19.6527C19.9497 19.605 19.9156 19.5504 19.8951 19.4958C19.977 19.68 19.902 19.489 19.8951 19.4413C19.8815 19.3867 19.8542 19.1889 19.8747 19.3935C19.8679 19.3321 19.8679 19.2707 19.8679 19.2025C19.861 18.841 19.8679 18.4863 19.8679 18.1248C19.8679 16.5628 19.8679 15.0008 19.8679 13.4388C19.8679 13.0637 19.861 12.6885 19.8679 12.3134C19.8679 12.2725 19.9156 11.9996 19.8679 12.2111C19.8815 12.1429 19.9838 11.8359 19.902 12.0269C19.9292 11.9587 19.9702 11.8973 20.0043 11.8291C20.0247 11.7814 20.1475 11.6313 20.0247 11.7814C20.0657 11.7336 20.0998 11.6927 20.1475 11.6518C20.1748 11.6245 20.3862 11.4676 20.2157 11.5836C20.2635 11.5495 20.318 11.5153 20.3658 11.4881C20.3658 11.4881 20.625 11.3721 20.4886 11.4267C20.3658 11.4744 20.891 11.3585 20.625 11.3858C20.7068 11.3789 20.7887 11.3789 20.8705 11.3789C22.2074 11.3721 23.5443 11.3789 24.8744 11.3789C25.5633 11.3789 26.2454 11.3789 26.9343 11.3789C26.9957 11.3789 27.0503 11.3789 27.1117 11.3789C27.1458 11.3789 27.1867 11.3789 27.2208 11.3789C27.5073 11.3789 27.1117 11.3448 27.2686 11.3858C27.2958 11.3926 27.5619 11.4676 27.4459 11.4267C27.3095 11.3789 27.5687 11.4881 27.5687 11.4881C27.6096 11.5153 27.8142 11.6654 27.6505 11.529C27.6983 11.5699 27.7392 11.604 27.7801 11.6518C27.8074 11.679 27.9643 11.8905 27.8483 11.72C27.8824 11.7677 27.9165 11.8223 27.9438 11.87C27.9779 11.9382 28.0393 12.1156 27.9916 11.9519C28.012 12.0269 28.0325 12.0951 28.053 12.1702C28.0666 12.2452 28.0666 12.2315 28.053 12.1292C28.0461 12.2111 28.053 12.2725 28.053 12.3339C28.0666 12.8659 28.5168 13.3843 29.0761 13.357C29.6218 13.3297 30.1129 12.9068 30.0992 12.3339C30.0583 10.69 28.7623 9.38722 27.1117 9.34629C26.6547 9.33947 26.1908 9.34629 25.7338 9.34629C24.1582 9.34629 22.5826 9.34629 21.0001 9.34629C19.8815 9.34629 18.8584 9.8033 18.2513 10.7787C17.8352 11.4403 17.8148 12.1633 17.8148 12.9068C17.8148 14.5643 17.8148 16.2218 17.8148 17.8793C17.8148 18.4113 17.7738 18.9706 17.8352 19.5026C17.9444 20.4235 18.4218 21.2352 19.2062 21.7399C19.8065 22.1287 20.4749 22.2037 21.1706 22.2037C20.8296 21.8627 20.4886 21.5216 20.1475 21.1806C20.1475 22.5039 20.1475 23.8339 20.1475 25.1572C20.1475 25.9348 20.1475 26.7192 20.1475 27.4968C20.1475 28.3221 20.2225 29.1065 20.8637 29.7272C21.6345 30.4775 22.644 30.382 23.6262 30.382C24.0695 30.382 24.5129 30.382 24.9494 30.382C25.2973 30.382 25.6452 30.3957 25.9862 30.3138C27.1594 30.0342 27.7733 28.9769 27.7733 27.8378C27.7733 27.1625 27.7733 26.4873 27.7733 25.812C27.7733 24.2705 27.7733 22.7221 27.7733 21.1806C27.4323 21.5216 27.0912 21.8627 26.7502 22.2037C27.3436 22.2037 27.8961 22.1492 28.4418 21.89C29.0488 21.5967 29.5604 21.0715 29.8332 20.4508C30.1129 19.8232 30.1129 19.2025 30.1129 18.5341C30.1129 16.9312 30.1129 15.3214 30.1129 13.7185C30.1129 13.2547 30.1129 12.784 30.1129 12.3202C30.1129 11.7882 29.6422 11.2698 29.0897 11.2971C28.5236 11.338 28.053 11.7609 28.053 12.3339Z" fill="#019AD8"/>
</svg>
