<svg width="653" height="443" viewBox="0 0 653 443" fill="none" xmlns="http://www.w3.org/2000/svg">
<path d="M136.378 246.358C135.488 247.919 133.811 248.89 132.017 248.793C130.787 248.727 129.659 248.844 128.993 249.887L123.266 258.895C121.93 260.995 121.391 263.501 121.747 265.967L122.971 275.784C121.996 277.508 119.795 278.092 118.093 277.081L95.6053 262.729L92.3224 260.634C90.9655 259.765 90.0253 258.377 89.7255 256.796L88.0027 247.7C87.7842 246.562 87.027 245.596 85.97 245.123L80.0089 242.439C78.464 241.742 76.665 241.971 75.3437 243.028L67.1567 249.581C65.6728 250.771 63.7061 251.173 61.8715 250.664L45.4823 246.124C43.8409 245.641 42.0825 245.784 40.5427 246.521L25.3833 258.265C23.9909 258.931 22.4206 259.124 20.9112 258.804L11.1743 255.794C1.77275 255.031 34.3682 197.786 50.051 172.163C53.5626 166.423 47.2966 160.063 50.366 153.855C54.2893 145.924 58.5174 138.243 64.7631 132.406C67.2228 130.108 84.5521 127.541 87.149 125.39C98.9746 115.593 99.0305 107.683 111.73 101.409C113.133 100.718 115.232 101.735 116.116 103.021L121.706 111.155L129.248 126.244C129.969 127.688 131.041 128.924 132.368 129.839L170.772 156.367C172.073 157.262 172.51 158.98 171.804 160.393L164.658 174.684C163.916 176.174 164.333 177.979 165.654 178.985L170.701 182.829C172.617 184.293 173.166 186.947 171.976 189.047L160.898 189.362C158.967 189.418 157.213 190.491 156.278 192.178L150.683 202.321C150.012 203.541 149.723 204.934 149.86 206.322L151.456 222.601C151.608 224.136 151.278 225.677 150.52 227.019L148.854 229.973C148.046 231.401 146.765 232.428 145.301 232.937C144.265 233.298 143.396 234.025 142.857 234.975L136.383 246.358H136.378Z" fill="#007EAE" stroke="white" stroke-width="4" stroke-miterlimit="10" stroke-linecap="round"/>
<path d="M134.69 419.391C136.047 421.018 134.512 423.438 132.464 422.899C100.448 414.445 76.8323 401.816 54.6192 376.539C52.4442 374.068 57.6684 365.405 55.6356 362.812C53.6791 360.316 46.2747 348.129 44.4554 345.526C40.5779 339.98 28.5642 342.801 25.3677 336.823C14.8482 317.133 8.18068 295.241 6.52397 272.104C6.40709 270.467 7.88084 269.17 9.48673 269.491L23.3705 272.073C25.4135 272.485 27.5377 272.053 29.2605 270.873L42.3566 261.905C43.998 260.782 46.0765 260.487 47.967 261.117L62.1557 265.851C62.8316 266.074 63.5787 265.901 64.0818 265.393L71.0084 258.464C72.1925 257.279 73.9102 256.806 75.5313 257.208L77.6607 257.742C79.8154 258.28 81.3552 260.167 81.467 262.383C81.6805 266.491 80.0492 271.819 82.0616 272.826L114.815 291.062C116.4 291.957 117.015 293.929 116.222 295.566L107.654 313.081C106.887 314.652 105.53 315.856 103.883 316.436L76.3038 326.146C73.1123 327.677 71.3591 331.174 72.035 334.652L74.4286 346.945L134.695 419.391H134.69Z" fill="#F4C00F"/>
<path d="M96.7989 345.019L96.0671 343.188C94.8068 340.036 96.4381 336.467 99.6448 335.359L121.7 327.738L141.352 289.776C142.226 288.088 142.328 286.111 141.637 284.341L137.988 274.992C137.322 273.284 137.358 271.382 138.089 269.7L140.346 264.509C141.276 262.369 143.766 261.392 145.9 262.333L149.742 264.021C152.009 265.017 154.657 264.082 155.795 261.88L161.212 251.59C162.401 249.293 165.237 248.403 167.529 249.608L204.403 269.049C207.219 270.533 209.089 273.345 209.374 276.517L210.07 284.296C210.415 288.18 212.931 291.53 216.559 292.949L231.515 298.805C233.157 299.446 234.931 299.685 236.684 299.492L253.012 297.717C255.868 297.407 258.755 297.946 261.306 299.263L280.896 309.38L328.473 334.464C331.294 335.949 332.386 339.436 330.923 342.268C321.587 360.367 311.612 371.47 296.661 385.014C288.87 392.071 258.648 374.755 249.256 379.595C240.546 384.084 234.326 389.737 223.339 395.863C216.905 399.453 228.476 422.752 221.179 424.415C209.048 427.186 196.415 428.655 183.446 428.655C177.429 428.655 171.488 428.34 165.639 427.725C163.748 427.526 162.01 426.581 160.826 425.096L96.804 345.024L96.7989 345.019Z" fill="#007EAE" stroke="white" stroke-width="4" stroke-miterlimit="10" stroke-linecap="round"/>
<path d="M167.545 226.546L164.897 216.393C163.982 213.648 163.271 210.145 164.897 207.751L169.15 201.314C170.335 199.57 172.149 198.36 174.212 197.928L185.311 195.62C189.295 192.494 189.661 191.533 192.853 193.002L201.939 196.413C204.267 197.486 206.909 197.633 209.338 196.825L279.306 173.495C280.922 172.956 282.66 172.915 284.302 173.373L335.283 187.643C336.996 188.121 338.394 189.367 339.085 191.009C342.418 198.96 345.168 207.217 347.267 215.727C348.664 221.401 328.24 225.758 329.048 231.64C329.683 236.261 338.704 245.875 342.261 250.451C344.131 252.856 352.171 253.217 352.171 256.297C352.171 258.056 352.145 259.805 352.089 261.554C351.601 277.543 348.888 292.968 344.253 307.539C342.977 311.55 338.414 313.467 334.648 311.586L260.34 274.366C258.851 273.618 257.159 273.39 255.523 273.705L241.034 276.501C240.186 276.664 239.306 276.542 238.534 276.155L227.608 270.685C226.485 270.126 225.687 269.078 225.438 267.848L223.324 257.355C223.105 256.282 222.409 255.372 221.433 254.879L169.364 228.798C168.459 228.346 167.799 227.527 167.545 226.551V226.546Z" fill="#007EAE" stroke="white" stroke-width="4" stroke-miterlimit="10" stroke-linecap="round"/>
<path d="M333.109 169.113C322.289 151.792 311.983 138.502 296.448 125.457C294.049 123.444 291.595 121.496 289.089 119.615C284.653 116.29 275.978 119.788 271.216 116.901C264.478 112.818 257.429 109.193 250.116 106.072C245.212 103.977 244.257 95.5021 239.129 93.8752C223.416 88.8828 206.711 86.1323 189.377 86.0001C188.477 85.9951 187.583 86.1272 186.724 86.3865L149.962 97.5509C147.517 98.2932 146.841 101.435 148.762 103.118L197.518 145.808C199.82 147.821 200.359 151.192 198.804 153.83L190.144 168.493C189.108 170.247 189.667 172.514 191.405 173.582L205.863 182.484C207.281 183.358 209.008 183.556 210.589 183.028L284.246 157.959C285.288 157.613 286.416 157.608 287.458 157.948L329.048 173.694C331.589 175.219 335.655 173.185 333.114 169.118L333.109 169.113Z" fill="#007EAE" stroke="white" stroke-width="4" stroke-miterlimit="10" stroke-linecap="round"/>
<path d="M158.29 86.2441L155.871 87.0169" stroke="white" stroke-width="2" stroke-linecap="round" stroke-linejoin="round" stroke-dasharray="4 4"/>
<path d="M151.16 88.5166L131.229 94.8766C127.707 96.0002 126.757 100.54 129.526 102.986L144.569 123.865L176.605 147.338" stroke="white" stroke-width="2" stroke-linecap="round" stroke-linejoin="round" stroke-dasharray="4 4"/>
<path d="M178.603 148.803L180.651 150.303" stroke="white" stroke-width="2" stroke-linecap="round" stroke-linejoin="round" stroke-dasharray="4 4"/>
<path d="M47.7587 138.863L39.5565 152.402C38.3013 154.476 37.91 156.967 38.469 159.326L39.1296 162.097C39.7699 164.786 39.3075 167.623 37.8439 169.972C30.4294 181.863 7.19994 219.612 1 235.459" stroke="white" stroke-width="2" stroke-linecap="round" stroke-linejoin="round" stroke-dasharray="4 4"/>
<path d="M166.091 235.967L213.607 261.839L218.336 282.785L233.641 289.78L258.567 286.281L339.904 329.574C343.777 331.582 347.084 331.739 347.084 336.101V341.434C347.084 344.469 345.95 347.392 343.907 349.634L316.084 383.905" stroke="white" stroke-width="2" stroke-linecap="round" stroke-linejoin="round" stroke-dasharray="4 4"/>
<path d="M48.7754 392.045C48.7754 392.045 98.5782 460.17 226.643 436.784" stroke="white" stroke-width="2" stroke-linecap="round" stroke-linejoin="round" stroke-dasharray="4 4"/>
<path d="M53.3491 135.813C55.3138 135.813 56.9064 134.22 56.9064 132.254C56.9064 130.289 55.3138 128.695 53.3491 128.695C51.3844 128.695 49.7917 130.289 49.7917 132.254C49.7917 134.22 51.3844 135.813 53.3491 135.813Z" fill="white"/>
<path d="M154.987 246.135C156.952 246.135 158.544 244.542 158.544 242.576C158.544 240.611 156.952 239.018 154.987 239.018C153.022 239.018 151.43 240.611 151.43 242.576C151.43 244.542 153.022 246.135 154.987 246.135Z" fill="white"/>
<path d="M42.6772 385.944C44.6419 385.944 46.2346 384.35 46.2346 382.385C46.2346 380.419 44.6419 378.826 42.6772 378.826C40.7125 378.826 39.1199 380.419 39.1199 382.385C39.1199 384.35 40.7125 385.944 42.6772 385.944Z" fill="white"/>
<path d="M350.641 232.409C352.606 232.409 354.198 230.815 354.198 228.85C354.198 226.884 352.606 225.291 350.641 225.291C348.676 225.291 347.084 226.884 347.084 228.85C347.084 230.815 348.676 232.409 350.641 232.409Z" fill="white"/>
<path d="M256.626 395.603C258.591 395.603 260.183 394.01 260.183 392.044C260.183 390.079 258.591 388.485 256.626 388.485C254.661 388.485 253.069 390.079 253.069 392.044C253.069 394.01 254.661 395.603 256.626 395.603Z" fill="white"/>
<path d="M338.445 231.392L352.166 246.135" stroke="white" stroke-width="2" stroke-linecap="round" stroke-linejoin="round" stroke-dasharray="4 4"/>
<rect x="267" y="44" width="386" height="157" rx="20" fill="white"/>
<circle cx="459.703" cy="48.702" r="37.2294" fill="white"/>
<path d="M506.547 48.7734C506.547 22.9412 485.606 2 459.774 2C433.941 2 413 22.9412 413 48.7734" stroke="white" stroke-width="3" stroke-linecap="round" stroke-dasharray="8 8"/>
<path d="M472.33 53H465.88L465.82 43.43L461.26 51.11H458.14L453.58 43.76V53H447.13V32H452.95L459.79 43.19L466.45 32H472.27L472.33 53Z" fill="#007EAE"/>
<path d="M557.146 82.9375C556.821 84.2201 556.248 85.7793 555.428 87.6152H553.289C553.738 85.6882 554.064 84.0573 554.266 82.7227H557.01L557.146 82.9375ZM561.707 82.9375C561.382 84.2201 560.809 85.7793 559.988 87.6152H557.85C558.299 85.6882 558.624 84.0573 558.826 82.7227H561.561L561.707 82.9375Z" fill="#007EAE"/>
<path d="M552.283 93.7578C552.283 94.8776 551.893 95.7305 551.111 96.3164C550.337 96.9023 549.174 97.1953 547.625 97.1953C546.831 97.1953 546.154 97.14 545.594 97.0293C545.034 96.9251 544.51 96.7689 544.021 96.5605V94.0996C544.575 94.36 545.197 94.5781 545.887 94.7539C546.583 94.9297 547.195 95.0176 547.723 95.0176C548.803 95.0176 549.344 94.7051 549.344 94.0801C549.344 93.8457 549.272 93.6569 549.129 93.5137C548.986 93.3639 548.738 93.1979 548.387 93.0156C548.035 92.8268 547.566 92.6087 546.98 92.3613C546.141 92.0098 545.522 91.6842 545.125 91.3848C544.734 91.0853 544.448 90.7435 544.266 90.3594C544.09 89.9688 544.002 89.4902 544.002 88.9238C544.002 87.9538 544.376 87.2051 545.125 86.6777C545.88 86.1439 546.948 85.877 548.328 85.877C549.643 85.877 550.923 86.1634 552.166 86.7363L551.268 88.8848C550.721 88.6504 550.21 88.4583 549.734 88.3086C549.259 88.1589 548.774 88.084 548.279 88.084C547.4 88.084 546.961 88.3216 546.961 88.7969C546.961 89.0638 547.101 89.2949 547.381 89.4902C547.667 89.6855 548.289 89.9753 549.246 90.3594C550.099 90.7044 550.724 91.0267 551.121 91.3262C551.518 91.6257 551.811 91.9707 552 92.3613C552.189 92.752 552.283 93.2174 552.283 93.7578Z" fill="#007EAE"/>
<path d="M537.371 87.9961C536.74 87.9961 536.245 88.1979 535.887 88.6016C535.529 88.9987 535.324 89.5651 535.271 90.3008H539.451C539.438 89.5651 539.246 88.9987 538.875 88.6016C538.504 88.1979 538.003 87.9961 537.371 87.9961ZM537.791 97.1953C536.033 97.1953 534.66 96.7103 533.67 95.7402C532.68 94.7702 532.186 93.3965 532.186 91.6191C532.186 89.7897 532.641 88.377 533.553 87.3809C534.471 86.3783 535.737 85.877 537.352 85.877C538.895 85.877 540.096 86.3164 540.955 87.1953C541.814 88.0742 542.244 89.2884 542.244 90.8379V92.2832H535.203C535.236 93.1296 535.486 93.7904 535.955 94.2656C536.424 94.7409 537.081 94.9785 537.928 94.9785C538.585 94.9785 539.207 94.9102 539.793 94.7734C540.379 94.6367 540.991 94.4186 541.629 94.1191V96.4238C541.108 96.6842 540.551 96.8763 539.959 97C539.367 97.1302 538.644 97.1953 537.791 97.1953Z" fill="#007EAE"/>
<path d="M529.861 85.877C530.265 85.877 530.6 85.9062 530.867 85.9648L530.643 88.7578C530.402 88.6927 530.109 88.6602 529.764 88.6602C528.813 88.6602 528.071 88.9043 527.537 89.3926C527.01 89.8809 526.746 90.5645 526.746 91.4434V97H523.768V86.082H526.023L526.463 87.918H526.609C526.948 87.306 527.404 86.8145 527.977 86.4434C528.556 86.0658 529.184 85.877 529.861 85.877Z" fill="#007EAE"/>
<path d="M513.758 91.5215C513.758 92.6022 513.934 93.4193 514.285 93.9727C514.643 94.526 515.223 94.8027 516.023 94.8027C516.818 94.8027 517.387 94.5293 517.732 93.9824C518.084 93.429 518.26 92.6087 518.26 91.5215C518.26 90.4408 518.084 89.6302 517.732 89.0898C517.381 88.5495 516.805 88.2793 516.004 88.2793C515.21 88.2793 514.637 88.5495 514.285 89.0898C513.934 89.6237 513.758 90.4342 513.758 91.5215ZM521.307 91.5215C521.307 93.2988 520.838 94.6888 519.9 95.6914C518.963 96.694 517.658 97.1953 515.984 97.1953C514.936 97.1953 514.012 96.9674 513.211 96.5117C512.41 96.0495 511.795 95.3887 511.365 94.5293C510.936 93.6699 510.721 92.6673 510.721 91.5215C510.721 89.7376 511.186 88.3509 512.117 87.3613C513.048 86.3717 514.357 85.877 516.043 85.877C517.091 85.877 518.016 86.1048 518.816 86.5605C519.617 87.0163 520.232 87.6706 520.662 88.5234C521.092 89.3763 521.307 90.3757 521.307 91.5215Z" fill="#007EAE"/>
<path d="M498.436 86.082H501.697L503.758 92.2246C503.934 92.7585 504.054 93.39 504.119 94.1191H504.178C504.249 93.4486 504.389 92.8171 504.598 92.2246L506.619 86.082H509.812L505.193 98.3965C504.77 99.5358 504.165 100.389 503.377 100.955C502.596 101.521 501.681 101.805 500.633 101.805C500.118 101.805 499.614 101.749 499.119 101.639V99.2754C499.477 99.36 499.868 99.4023 500.291 99.4023C500.818 99.4023 501.277 99.2396 501.668 98.9141C502.065 98.5951 502.374 98.11 502.596 97.459L502.771 96.9219L498.436 86.082Z" fill="#007EAE"/>
<path d="M494.842 97L494.266 95.5156H494.188C493.686 96.1471 493.169 96.5866 492.635 96.834C492.107 97.0749 491.417 97.1953 490.564 97.1953C489.516 97.1953 488.689 96.8958 488.084 96.2969C487.485 95.6979 487.186 94.8451 487.186 93.7383C487.186 92.5794 487.589 91.7266 488.396 91.1797C489.21 90.6263 490.434 90.3203 492.068 90.2617L493.963 90.2031V89.7246C493.963 88.6178 493.396 88.0645 492.264 88.0645C491.391 88.0645 490.366 88.3281 489.188 88.8555L488.201 86.8438C489.458 86.1862 490.851 85.8574 492.381 85.8574C493.846 85.8574 494.969 86.1764 495.75 86.8145C496.531 87.4525 496.922 88.4225 496.922 89.7246V97H494.842ZM493.963 91.9414L492.811 91.9805C491.945 92.0065 491.3 92.1628 490.877 92.4492C490.454 92.7357 490.242 93.1719 490.242 93.7578C490.242 94.5977 490.724 95.0176 491.688 95.0176C492.378 95.0176 492.928 94.819 493.338 94.4219C493.755 94.0247 493.963 93.4974 493.963 92.8398V91.9414Z" fill="#007EAE"/>
<path d="M475.32 97L471.883 85.7988H471.795C471.919 88.0775 471.98 89.5977 471.98 90.3594V97H469.275V82.7227H473.396L476.775 93.6406H476.834L480.418 82.7227H484.539V97H481.717V90.2422C481.717 89.9232 481.72 89.5553 481.727 89.1387C481.74 88.722 481.785 87.6152 481.863 85.8184H481.775L478.094 97H475.32Z" fill="#007EAE"/>
<path d="M463.377 87.4004C463.52 86.8079 463.755 86.0658 464.08 85.1738C464.412 84.2754 464.751 83.4583 465.096 82.7227H467.234C466.805 84.4609 466.476 86.0918 466.248 87.6152H463.514L463.377 87.4004ZM458.816 87.4004C458.96 86.8079 459.194 86.0658 459.52 85.1738C459.852 84.2754 460.19 83.4583 460.535 82.7227H462.674C462.244 84.4609 461.915 86.0918 461.688 87.6152H458.953L458.816 87.4004Z" fill="#007EAE"/>
<path d="M444.93 91.5215C444.93 92.6022 445.105 93.4193 445.457 93.9727C445.815 94.526 446.395 94.8027 447.195 94.8027C447.99 94.8027 448.559 94.5293 448.904 93.9824C449.256 93.429 449.432 92.6087 449.432 91.5215C449.432 90.4408 449.256 89.6302 448.904 89.0898C448.553 88.5495 447.977 88.2793 447.176 88.2793C446.382 88.2793 445.809 88.5495 445.457 89.0898C445.105 89.6237 444.93 90.4342 444.93 91.5215ZM452.479 91.5215C452.479 93.2988 452.01 94.6888 451.072 95.6914C450.135 96.694 448.829 97.1953 447.156 97.1953C446.108 97.1953 445.184 96.9674 444.383 96.5117C443.582 96.0495 442.967 95.3887 442.537 94.5293C442.107 93.6699 441.893 92.6673 441.893 91.5215C441.893 89.7376 442.358 88.3509 443.289 87.3613C444.22 86.3717 445.529 85.877 447.215 85.877C448.263 85.877 449.188 86.1048 449.988 86.5605C450.789 87.0163 451.404 87.6706 451.834 88.5234C452.264 89.3763 452.479 90.3757 452.479 91.5215Z" fill="#007EAE"/>
<path d="M436.316 83.2598C436.316 82.2897 436.857 81.8047 437.938 81.8047C439.018 81.8047 439.559 82.2897 439.559 83.2598C439.559 83.722 439.422 84.0833 439.148 84.3438C438.882 84.5977 438.478 84.7246 437.938 84.7246C436.857 84.7246 436.316 84.2363 436.316 83.2598ZM439.422 97H436.443V86.082H439.422V97Z" fill="#007EAE"/>
<path d="M433.455 85.877C433.859 85.877 434.194 85.9062 434.461 85.9648L434.236 88.7578C433.995 88.6927 433.702 88.6602 433.357 88.6602C432.407 88.6602 431.665 88.9043 431.131 89.3926C430.604 89.8809 430.34 90.5645 430.34 91.4434V97H427.361V86.082H429.617L430.057 87.918H430.203C430.542 87.306 430.997 86.8145 431.57 86.4434C432.15 86.0658 432.778 85.877 433.455 85.877Z" fill="#007EAE"/>
<path d="M417.352 91.5215C417.352 92.6022 417.527 93.4193 417.879 93.9727C418.237 94.526 418.816 94.8027 419.617 94.8027C420.411 94.8027 420.981 94.5293 421.326 93.9824C421.678 93.429 421.854 92.6087 421.854 91.5215C421.854 90.4408 421.678 89.6302 421.326 89.0898C420.975 88.5495 420.398 88.2793 419.598 88.2793C418.803 88.2793 418.23 88.5495 417.879 89.0898C417.527 89.6237 417.352 90.4342 417.352 91.5215ZM424.9 91.5215C424.9 93.2988 424.432 94.6888 423.494 95.6914C422.557 96.694 421.251 97.1953 419.578 97.1953C418.53 97.1953 417.605 96.9674 416.805 96.5117C416.004 96.0495 415.389 95.3887 414.959 94.5293C414.529 93.6699 414.314 92.6673 414.314 91.5215C414.314 89.7376 414.78 88.3509 415.711 87.3613C416.642 86.3717 417.951 85.877 419.637 85.877C420.685 85.877 421.609 86.1048 422.41 86.5605C423.211 87.0163 423.826 87.6706 424.256 88.5234C424.686 89.3763 424.9 90.3757 424.9 91.5215Z" fill="#007EAE"/>
<path d="M410.887 94.8223C411.408 94.8223 412.033 94.7083 412.762 94.4805V96.6973C412.02 97.0293 411.108 97.1953 410.027 97.1953C408.836 97.1953 407.967 96.8958 407.42 96.2969C406.88 95.6914 406.609 94.7865 406.609 93.582V88.3184H405.184V87.0586L406.824 86.0625L407.684 83.7578H409.588V86.082H412.645V88.3184H409.588V93.582C409.588 94.0052 409.705 94.3177 409.939 94.5195C410.18 94.7214 410.496 94.8223 410.887 94.8223Z" fill="#007EAE"/>
<path d="M400.047 83.2598C400.047 82.2897 400.587 81.8047 401.668 81.8047C402.749 81.8047 403.289 82.2897 403.289 83.2598C403.289 83.722 403.152 84.0833 402.879 84.3438C402.612 84.5977 402.208 84.7246 401.668 84.7246C400.587 84.7246 400.047 84.2363 400.047 83.2598ZM403.152 97H400.174V86.082H403.152V97Z" fill="#007EAE"/>
<path d="M397.186 85.877C397.589 85.877 397.924 85.9062 398.191 85.9648L397.967 88.7578C397.726 88.6927 397.433 88.6602 397.088 88.6602C396.137 88.6602 395.395 88.9043 394.861 89.3926C394.334 89.8809 394.07 90.5645 394.07 91.4434V97H391.092V86.082H393.348L393.787 87.918H393.934C394.272 87.306 394.728 86.8145 395.301 86.4434C395.88 86.0658 396.508 85.877 397.186 85.877Z" fill="#007EAE"/>
<path d="M388.104 85.877C388.507 85.877 388.842 85.9062 389.109 85.9648L388.885 88.7578C388.644 88.6927 388.351 88.6602 388.006 88.6602C387.055 88.6602 386.313 88.9043 385.779 89.3926C385.252 89.8809 384.988 90.5645 384.988 91.4434V97H382.01V86.082H384.266L384.705 87.918H384.852C385.19 87.306 385.646 86.8145 386.219 86.4434C386.798 86.0658 387.426 85.877 388.104 85.877Z" fill="#007EAE"/>
<path d="M374.715 87.9961C374.083 87.9961 373.589 88.1979 373.23 88.6016C372.872 88.9987 372.667 89.5651 372.615 90.3008H376.795C376.782 89.5651 376.59 88.9987 376.219 88.6016C375.848 88.1979 375.346 87.9961 374.715 87.9961ZM375.135 97.1953C373.377 97.1953 372.003 96.7103 371.014 95.7402C370.024 94.7702 369.529 93.3965 369.529 91.6191C369.529 89.7897 369.985 88.377 370.896 87.3809C371.814 86.3783 373.081 85.877 374.695 85.877C376.238 85.877 377.439 86.3164 378.299 87.1953C379.158 88.0742 379.588 89.2884 379.588 90.8379V92.2832H372.547C372.579 93.1296 372.83 93.7904 373.299 94.2656C373.768 94.7409 374.425 94.9785 375.271 94.9785C375.929 94.9785 376.551 94.9102 377.137 94.7734C377.723 94.6367 378.335 94.4186 378.973 94.1191V96.4238C378.452 96.6842 377.895 96.8763 377.303 97C376.71 97.1302 375.988 97.1953 375.135 97.1953Z" fill="#007EAE"/>
<path d="M364.354 97H361.326V85.2422H357.449V82.7227H368.23V85.2422H364.354V97Z" fill="#007EAE"/>
<path d="M556.967 169H555.589V156.084H556.967V169Z" fill="black"/>
<path d="M552.667 169H551.289V159.903H552.667V169ZM551.173 157.438C551.173 157.122 551.25 156.892 551.405 156.749C551.56 156.599 551.754 156.524 551.986 156.524C552.208 156.524 552.399 156.599 552.559 156.749C552.72 156.898 552.8 157.128 552.8 157.438C552.8 157.747 552.72 157.98 552.559 158.135C552.399 158.284 552.208 158.359 551.986 158.359C551.754 158.359 551.56 158.284 551.405 158.135C551.25 157.98 551.173 157.747 551.173 157.438Z" fill="black"/>
<path d="M546.823 169.166C545.506 169.166 544.485 168.762 543.76 167.954C543.041 167.141 542.681 165.992 542.681 164.509C542.681 162.987 543.046 161.812 543.777 160.981C544.513 160.151 545.559 159.736 546.915 159.736C547.352 159.736 547.789 159.783 548.226 159.877C548.663 159.972 549.006 160.082 549.255 160.209L548.832 161.38C548.528 161.258 548.196 161.159 547.836 161.081C547.476 160.998 547.158 160.957 546.881 160.957C545.033 160.957 544.109 162.135 544.109 164.493C544.109 165.611 544.333 166.468 544.781 167.066C545.235 167.664 545.905 167.962 546.79 167.962C547.548 167.962 548.326 167.799 549.123 167.473V168.693C548.514 169.008 547.747 169.166 546.823 169.166Z" fill="black"/>
<path d="M539.319 169L539.045 167.706H538.979C538.525 168.276 538.071 168.663 537.618 168.868C537.169 169.067 536.608 169.167 535.933 169.167C535.031 169.167 534.322 168.934 533.808 168.469C533.299 168.004 533.044 167.343 533.044 166.485C533.044 164.648 534.513 163.685 537.452 163.597L538.996 163.547V162.982C538.996 162.269 538.841 161.743 538.531 161.405C538.226 161.062 537.737 160.891 537.062 160.891C536.303 160.891 535.446 161.123 534.488 161.588L534.065 160.534C534.513 160.29 535.003 160.099 535.534 159.961C536.071 159.823 536.608 159.753 537.145 159.753C538.229 159.753 539.032 159.994 539.552 160.476C540.077 160.957 540.34 161.729 540.34 162.792V169H539.319ZM536.207 168.029C537.064 168.029 537.737 167.794 538.224 167.324C538.716 166.853 538.962 166.195 538.962 165.348V164.526L537.584 164.584C536.489 164.623 535.697 164.795 535.21 165.099C534.729 165.398 534.488 165.866 534.488 166.502C534.488 167 534.638 167.379 534.937 167.639C535.241 167.899 535.664 168.029 536.207 168.029ZM535.883 158.492C536.148 158.149 536.433 157.734 536.738 157.247C537.048 156.76 537.291 156.336 537.468 155.977H539.145V156.151C538.902 156.511 538.539 156.953 538.058 157.479C537.576 158.005 537.158 158.411 536.804 158.699H535.883V158.492Z" fill="black"/>
<path d="M532.064 160.974H529.749V169H528.371V160.974H526.744V160.351L528.371 159.853V159.347C528.371 157.111 529.347 155.993 531.301 155.993C531.782 155.993 532.347 156.09 532.994 156.284L532.637 157.388C532.106 157.216 531.652 157.13 531.276 157.13C530.756 157.13 530.371 157.305 530.122 157.653C529.873 157.996 529.749 158.55 529.749 159.313V159.903H532.064V160.974Z" fill="black"/>
<path d="M521.124 164.443C521.124 165.926 520.75 167.085 520.003 167.921C519.256 168.751 518.224 169.166 516.907 169.166C516.094 169.166 515.372 168.975 514.741 168.593C514.11 168.211 513.623 167.664 513.28 166.95C512.937 166.236 512.765 165.4 512.765 164.443C512.765 162.96 513.136 161.806 513.877 160.981C514.619 160.151 515.648 159.736 516.965 159.736C518.238 159.736 519.248 160.16 519.995 161.006C520.748 161.853 521.124 162.999 521.124 164.443ZM514.193 164.443C514.193 165.605 514.425 166.49 514.89 167.099C515.355 167.708 516.038 168.012 516.94 168.012C517.842 168.012 518.526 167.711 518.991 167.107C519.461 166.499 519.696 165.611 519.696 164.443C519.696 163.286 519.461 162.409 518.991 161.812C518.526 161.208 517.837 160.907 516.924 160.907C516.022 160.907 515.341 161.203 514.882 161.795C514.423 162.387 514.193 163.27 514.193 164.443Z" fill="black"/>
<path d="M511.022 166.518C511.022 167.365 510.707 168.018 510.076 168.477C509.445 168.936 508.559 169.166 507.419 169.166C506.213 169.166 505.272 168.975 504.597 168.593V167.315C505.034 167.536 505.502 167.711 506 167.838C506.504 167.965 506.988 168.029 507.453 168.029C508.172 168.029 508.725 167.915 509.113 167.688C509.5 167.456 509.694 167.105 509.694 166.634C509.694 166.28 509.539 165.979 509.229 165.729C508.925 165.475 508.327 165.176 507.436 164.833C506.589 164.518 505.986 164.244 505.626 164.011C505.272 163.773 505.007 163.505 504.83 163.206C504.658 162.907 504.572 162.55 504.572 162.135C504.572 161.394 504.874 160.81 505.477 160.384C506.08 159.952 506.908 159.736 507.959 159.736C508.938 159.736 509.896 159.936 510.831 160.334L510.341 161.455C509.428 161.078 508.601 160.89 507.859 160.89C507.206 160.89 506.714 160.993 506.382 161.197C506.05 161.402 505.884 161.684 505.884 162.044C505.884 162.287 505.945 162.495 506.066 162.667C506.194 162.838 506.396 163.001 506.672 163.156C506.949 163.311 507.48 163.535 508.266 163.829C509.345 164.222 510.073 164.617 510.449 165.016C510.831 165.414 511.022 165.915 511.022 166.518Z" fill="black"/>
<path d="M496.006 159.902V165.804C496.006 166.546 496.175 167.099 496.512 167.464C496.85 167.83 497.378 168.012 498.098 168.012C499.049 168.012 499.744 167.752 500.181 167.232C500.624 166.712 500.845 165.862 500.845 164.684V159.902H502.223V169H501.086L500.887 167.78H500.812C500.53 168.228 500.137 168.571 499.633 168.809C499.135 169.047 498.565 169.166 497.923 169.166C496.817 169.166 495.986 168.903 495.433 168.377C494.885 167.852 494.611 167.011 494.611 165.854V159.902H496.006Z" fill="black"/>
<path d="M484.592 169.166C483.248 169.166 482.185 168.757 481.405 167.938C480.63 167.118 480.243 165.981 480.243 164.526C480.243 163.059 480.602 161.895 481.322 161.031C482.047 160.168 483.018 159.736 484.235 159.736C485.375 159.736 486.277 160.113 486.941 160.865C487.605 161.612 487.938 162.6 487.938 163.829V164.7H481.67C481.698 165.768 481.966 166.579 482.476 167.132C482.99 167.686 483.712 167.962 484.642 167.962C485.622 167.962 486.59 167.758 487.547 167.348V168.577C487.06 168.787 486.598 168.936 486.161 169.025C485.729 169.119 485.207 169.166 484.592 169.166ZM484.219 160.89C483.488 160.89 482.904 161.128 482.467 161.604C482.036 162.08 481.781 162.738 481.704 163.58H486.46C486.46 162.711 486.266 162.047 485.879 161.587C485.492 161.123 484.938 160.89 484.219 160.89Z" fill="black"/>
<path d="M476.516 167.78H476.441C475.805 168.704 474.853 169.166 473.585 169.166C472.396 169.166 471.469 168.759 470.805 167.946C470.146 167.132 469.817 165.976 469.817 164.476C469.817 162.976 470.149 161.812 470.813 160.981C471.477 160.151 472.401 159.736 473.585 159.736C474.819 159.736 475.766 160.185 476.424 161.081H476.532L476.474 160.425L476.441 159.786V156.084H477.819V169H476.698L476.516 167.78ZM473.76 168.012C474.701 168.012 475.381 167.758 475.802 167.249C476.228 166.734 476.441 165.907 476.441 164.767V164.476C476.441 163.187 476.225 162.268 475.793 161.72C475.367 161.167 474.684 160.89 473.743 160.89C472.935 160.89 472.315 161.206 471.884 161.836C471.458 162.462 471.245 163.347 471.245 164.493C471.245 165.655 471.458 166.532 471.884 167.124C472.31 167.716 472.935 168.012 473.76 168.012Z" fill="black"/>
<path d="M463.658 166.518C463.658 167.365 463.342 168.018 462.711 168.477C462.081 168.936 461.195 169.166 460.055 169.166C458.849 169.166 457.908 168.975 457.233 168.593V167.315C457.67 167.536 458.138 167.711 458.636 167.838C459.139 167.965 459.624 168.029 460.088 168.029C460.808 168.029 461.361 167.915 461.749 167.688C462.136 167.456 462.33 167.105 462.33 166.634C462.33 166.28 462.175 165.979 461.865 165.729C461.56 165.475 460.963 165.176 460.072 164.833C459.225 164.518 458.622 164.244 458.262 164.011C457.908 163.773 457.642 163.505 457.465 163.206C457.294 162.907 457.208 162.55 457.208 162.135C457.208 161.394 457.51 160.81 458.113 160.384C458.716 159.952 459.543 159.736 460.595 159.736C461.574 159.736 462.532 159.936 463.467 160.334L462.977 161.455C462.064 161.078 461.237 160.89 460.495 160.89C459.842 160.89 459.35 160.993 459.018 161.197C458.686 161.402 458.52 161.684 458.52 162.044C458.52 162.287 458.58 162.495 458.702 162.667C458.829 162.838 459.031 163.001 459.308 163.156C459.585 163.311 460.116 163.535 460.902 163.829C461.981 164.222 462.709 164.617 463.085 165.016C463.467 165.414 463.658 165.915 463.658 166.518Z" fill="black"/>
<path d="M455.365 164.443C455.365 165.926 454.992 167.085 454.245 167.921C453.498 168.751 452.465 169.166 451.148 169.166C450.335 169.166 449.613 168.975 448.982 168.593C448.351 168.211 447.864 167.664 447.521 166.95C447.178 166.236 447.006 165.4 447.006 164.443C447.006 162.96 447.377 161.806 448.119 160.981C448.86 160.151 449.889 159.736 451.207 159.736C452.479 159.736 453.489 160.16 454.236 161.006C454.989 161.853 455.365 162.999 455.365 164.443ZM448.434 164.443C448.434 165.605 448.667 166.49 449.131 167.099C449.596 167.708 450.28 168.012 451.182 168.012C452.084 168.012 452.767 167.711 453.232 167.107C453.702 166.499 453.938 165.611 453.938 164.443C453.938 163.286 453.702 162.409 453.232 161.812C452.767 161.208 452.078 160.907 451.165 160.907C450.263 160.907 449.582 161.203 449.123 161.795C448.664 162.387 448.434 163.27 448.434 164.443Z" fill="black"/>
<path d="M444.724 159.736C445.128 159.736 445.49 159.77 445.811 159.836L445.62 161.114C445.244 161.031 444.912 160.99 444.624 160.99C443.888 160.99 443.257 161.289 442.731 161.886C442.211 162.484 441.951 163.228 441.951 164.119V169H440.573V159.902H441.71L441.868 161.587H441.935C442.272 160.995 442.679 160.539 443.155 160.218C443.631 159.897 444.154 159.736 444.724 159.736Z" fill="black"/>
<path d="M434.871 169.166C433.526 169.166 432.463 168.757 431.683 167.938C430.908 167.118 430.521 165.981 430.521 164.526C430.521 163.059 430.881 161.895 431.6 161.031C432.325 160.168 433.296 159.736 434.514 159.736C435.654 159.736 436.556 160.113 437.22 160.865C437.884 161.612 438.216 162.6 438.216 163.829V164.7H431.949C431.976 165.768 432.245 166.579 432.754 167.132C433.269 167.686 433.991 167.962 434.92 167.962C435.9 167.962 436.868 167.758 437.826 167.348V168.577C437.339 168.787 436.877 168.936 436.439 169.025C436.008 169.119 435.485 169.166 434.871 169.166ZM434.497 160.89C433.767 160.89 433.183 161.128 432.746 161.604C432.314 162.08 432.059 162.738 431.982 163.58H436.738C436.738 162.711 436.545 162.047 436.157 161.587C435.77 161.123 435.216 160.89 434.497 160.89Z" fill="black"/>
<path d="M425.624 173.084C425.098 173.084 424.672 173.015 424.345 172.877V171.756C424.727 171.867 425.103 171.922 425.474 171.922C425.906 171.922 426.221 171.803 426.42 171.565C426.625 171.333 426.728 170.976 426.728 170.495V159.903H428.105V170.395C428.105 172.188 427.278 173.084 425.624 173.084ZM426.611 157.438C426.611 157.122 426.689 156.892 426.844 156.749C426.999 156.599 427.192 156.524 427.425 156.524C427.646 156.524 427.837 156.599 427.998 156.749C428.158 156.898 428.238 157.128 428.238 157.438C428.238 157.747 428.158 157.98 427.998 158.135C427.837 158.284 427.646 158.359 427.425 158.359C427.192 158.359 426.999 158.284 426.844 158.135C426.689 157.98 426.611 157.747 426.611 157.438Z" fill="black"/>
<path d="M422.859 169.001L422.585 167.706H422.519C422.065 168.276 421.611 168.663 421.158 168.868C420.709 169.067 420.148 169.167 419.473 169.167C418.571 169.167 417.862 168.935 417.348 168.47C416.839 168.005 416.584 167.344 416.584 166.486C416.584 164.649 418.053 163.686 420.992 163.597L422.536 163.547V162.983C422.536 162.269 422.381 161.743 422.071 161.406C421.766 161.063 421.277 160.891 420.602 160.891C419.843 160.891 418.986 161.124 418.028 161.588L417.605 160.534C418.053 160.291 418.543 160.1 419.074 159.961C419.611 159.823 420.148 159.754 420.685 159.754C421.769 159.754 422.572 159.995 423.092 160.476C423.618 160.958 423.88 161.729 423.88 162.792V169.001H422.859ZM419.747 168.03C420.604 168.03 421.277 167.795 421.764 167.324C422.256 166.854 422.502 166.195 422.502 165.349V164.527L421.125 164.585C420.029 164.624 419.237 164.795 418.75 165.1C418.269 165.398 418.028 165.866 418.028 166.502C418.028 167 418.178 167.38 418.477 167.64C418.781 167.9 419.204 168.03 419.747 168.03Z" fill="black"/>
<path d="M412.799 169.166C411.482 169.166 410.461 168.762 409.736 167.954C409.016 167.141 408.657 165.992 408.657 164.509C408.657 162.987 409.022 161.812 409.752 160.981C410.488 160.151 411.534 159.736 412.89 159.736C413.327 159.736 413.764 159.783 414.202 159.877C414.639 159.972 414.982 160.082 415.231 160.209L414.808 161.38C414.503 161.258 414.171 161.159 413.812 161.081C413.452 160.998 413.134 160.957 412.857 160.957C411.009 160.957 410.084 162.135 410.084 164.493C410.084 165.611 410.309 166.468 410.757 167.066C411.211 167.664 411.88 167.962 412.766 167.962C413.524 167.962 414.301 167.799 415.098 167.473V168.693C414.489 169.008 413.723 169.166 412.799 169.166Z" fill="black"/>
<path d="M402.688 162.949C402.688 163.923 402.611 164.795 402.456 165.564C402.301 166.328 402.052 166.978 401.709 167.515C401.371 168.051 400.923 168.461 400.364 168.743C399.805 169.025 399.119 169.167 398.306 169.167C397.293 169.167 396.463 168.92 395.815 168.428C395.168 167.93 394.689 167.219 394.379 166.294C394.075 165.365 393.923 164.25 393.923 162.949C393.923 161.638 394.061 160.517 394.338 159.587C394.62 158.652 395.082 157.936 395.724 157.438C396.366 156.939 397.227 156.69 398.306 156.69C399.318 156.69 400.146 156.939 400.788 157.438C401.435 157.93 401.914 158.644 402.224 159.579C402.534 160.509 402.688 161.632 402.688 162.949ZM397.185 162.949C397.185 163.741 397.213 164.405 397.268 164.941C397.329 165.478 397.44 165.882 397.6 166.153C397.766 166.419 398.001 166.552 398.306 166.552C398.61 166.552 398.842 166.419 399.003 166.153C399.163 165.882 399.274 165.481 399.335 164.95C399.396 164.413 399.426 163.746 399.426 162.949C399.426 162.147 399.396 161.477 399.335 160.94C399.274 160.404 399.163 160 399.003 159.729C398.842 159.452 398.61 159.313 398.306 159.313C398.001 159.313 397.766 159.452 397.6 159.729C397.44 160 397.329 160.404 397.268 160.94C397.213 161.477 397.185 162.147 397.185 162.949Z" fill="#F4C00F"/>
<path d="M392.728 162.949C392.728 163.923 392.65 164.795 392.495 165.564C392.34 166.328 392.091 166.978 391.748 167.515C391.41 168.051 390.962 168.461 390.403 168.743C389.844 169.025 389.158 169.167 388.345 169.167C387.332 169.167 386.502 168.92 385.854 168.428C385.207 167.93 384.728 167.219 384.418 166.294C384.114 165.365 383.962 164.25 383.962 162.949C383.962 161.638 384.1 160.517 384.377 159.587C384.659 158.652 385.121 157.936 385.763 157.438C386.405 156.939 387.266 156.69 388.345 156.69C389.357 156.69 390.185 156.939 390.827 157.438C391.474 157.93 391.953 158.644 392.263 159.579C392.573 160.509 392.728 161.632 392.728 162.949ZM387.224 162.949C387.224 163.741 387.252 164.405 387.307 164.941C387.368 165.478 387.479 165.882 387.639 166.153C387.805 166.419 388.04 166.552 388.345 166.552C388.649 166.552 388.882 166.419 389.042 166.153C389.202 165.882 389.313 165.481 389.374 164.95C389.435 164.413 389.465 163.746 389.465 162.949C389.465 162.147 389.435 161.477 389.374 160.94C389.313 160.404 389.202 160 389.042 159.729C388.882 159.452 388.649 159.313 388.345 159.313C388.04 159.313 387.805 159.452 387.639 159.729C387.479 160 387.368 160.404 387.307 160.94C387.252 161.477 387.224 162.147 387.224 162.949Z" fill="#F4C00F"/>
<path d="M382.767 162.949C382.767 163.923 382.689 164.795 382.534 165.564C382.379 166.328 382.13 166.978 381.787 167.515C381.45 168.051 381.001 168.461 380.442 168.743C379.883 169.025 379.197 169.167 378.384 169.167C377.371 169.167 376.541 168.92 375.894 168.428C375.246 167.93 374.767 167.219 374.458 166.294C374.153 165.365 374.001 164.25 374.001 162.949C374.001 161.638 374.139 160.517 374.416 159.587C374.698 158.652 375.16 157.936 375.802 157.438C376.444 156.939 377.305 156.69 378.384 156.69C379.396 156.69 380.224 156.939 380.866 157.438C381.513 157.93 381.992 158.644 382.302 159.579C382.612 160.509 382.767 161.632 382.767 162.949ZM377.263 162.949C377.263 163.741 377.291 164.405 377.346 164.941C377.407 165.478 377.518 165.882 377.678 166.153C377.844 166.419 378.079 166.552 378.384 166.552C378.688 166.552 378.921 166.419 379.081 166.153C379.242 165.882 379.352 165.481 379.413 164.95C379.474 164.413 379.504 163.746 379.504 162.949C379.504 162.147 379.474 161.477 379.413 160.94C379.352 160.404 379.242 160 379.081 159.729C378.921 159.452 378.688 159.313 378.384 159.313C378.079 159.313 377.844 159.452 377.678 159.729C377.518 160 377.407 160.404 377.346 160.94C377.291 161.477 377.263 162.147 377.263 162.949Z" fill="#F4C00F"/>
<path d="M369.203 167.623C369.203 167.036 369.375 166.624 369.718 166.386C370.066 166.148 370.484 166.029 370.971 166.029C371.431 166.029 371.829 166.148 372.167 166.386C372.504 166.624 372.673 167.036 372.673 167.623C372.673 168.182 372.504 168.586 372.167 168.835C371.829 169.084 371.431 169.208 370.971 169.208C370.484 169.208 370.066 169.084 369.718 168.835C369.375 168.586 369.203 168.182 369.203 167.623Z" fill="#F4C00F"/>
<path d="M366.348 169.001H363.019V163C363.019 162.889 363.019 162.687 363.019 162.394C363.019 162.095 363.022 161.765 363.027 161.406C363.038 161.046 363.052 160.722 363.069 160.435C362.925 160.606 362.789 160.753 362.662 160.875C362.54 160.996 362.421 161.11 362.305 161.215L360.927 162.352L359.226 160.26L363.393 156.865H366.348V169.001Z" fill="#F4C00F"/>
<path d="M356.387 169.001H353.058V163C353.058 162.889 353.058 162.687 353.058 162.394C353.058 162.095 353.061 161.765 353.066 161.406C353.077 161.046 353.091 160.722 353.108 160.435C352.964 160.606 352.828 160.753 352.701 160.875C352.579 160.996 352.46 161.11 352.344 161.215L350.966 162.352L349.265 160.26L353.432 156.865H356.387V169.001Z" fill="#F4C00F"/>
<path d="M537.709 129.736C538.113 129.736 538.475 129.77 538.796 129.836L538.605 131.114C538.229 131.031 537.897 130.99 537.609 130.99C536.873 130.99 536.243 131.289 535.717 131.886C535.197 132.484 534.937 133.228 534.937 134.119V139H533.559V129.902H534.696L534.854 131.587H534.92C535.257 130.995 535.664 130.539 536.14 130.218C536.616 129.897 537.139 129.736 537.709 129.736Z" fill="black"/>
<path d="M531.135 134.443C531.135 135.926 530.761 137.085 530.014 137.921C529.267 138.751 528.235 139.166 526.918 139.166C526.104 139.166 525.382 138.975 524.751 138.593C524.121 138.211 523.634 137.664 523.291 136.95C522.947 136.236 522.776 135.4 522.776 134.443C522.776 132.96 523.147 131.806 523.888 130.981C524.63 130.151 525.659 129.736 526.976 129.736C528.249 129.736 529.259 130.16 530.006 131.006C530.758 131.853 531.135 132.999 531.135 134.443ZM524.204 134.443C524.204 135.605 524.436 136.49 524.901 137.099C525.366 137.708 526.049 138.012 526.951 138.012C527.853 138.012 528.537 137.711 529.001 137.107C529.472 136.499 529.707 135.611 529.707 134.443C529.707 133.286 529.472 132.409 529.001 131.812C528.537 131.208 527.848 130.907 526.935 130.907C526.033 130.907 525.352 131.203 524.893 131.795C524.433 132.387 524.204 133.27 524.204 134.443Z" fill="black"/>
<path d="M520.36 139H518.982V129.903H520.36V139ZM518.866 127.438C518.866 127.122 518.944 126.892 519.099 126.749C519.254 126.599 519.447 126.524 519.68 126.524C519.901 126.524 520.092 126.599 520.252 126.749C520.413 126.898 520.493 127.128 520.493 127.438C520.493 127.747 520.413 127.98 520.252 128.135C520.092 128.284 519.901 128.359 519.68 128.359C519.447 128.359 519.254 128.284 519.099 128.135C518.944 127.98 518.866 127.747 518.866 127.438Z" fill="black"/>
<path d="M514.766 139V133.115C514.766 132.373 514.597 131.82 514.259 131.455C513.922 131.089 513.393 130.907 512.674 130.907C511.722 130.907 511.025 131.164 510.582 131.679C510.139 132.193 509.918 133.043 509.918 134.227V139H508.54V129.902H509.661L509.885 131.147H509.951C510.233 130.699 510.629 130.353 511.138 130.11C511.647 129.861 512.215 129.736 512.84 129.736C513.936 129.736 514.76 130.002 515.313 130.533C515.867 131.059 516.144 131.903 516.144 133.065V139H514.766Z" fill="black"/>
<path d="M502.837 139.167C501.493 139.167 500.43 138.757 499.65 137.938C498.875 137.119 498.488 135.982 498.488 134.526C498.488 133.06 498.847 131.895 499.567 131.032C500.292 130.168 501.263 129.737 502.48 129.737C503.62 129.737 504.522 130.113 505.187 130.866C505.851 131.613 506.183 132.601 506.183 133.829V134.701H499.916C499.943 135.769 500.212 136.579 500.721 137.133C501.235 137.686 501.958 137.963 502.887 137.963C503.867 137.963 504.835 137.758 505.792 137.349V138.577C505.306 138.787 504.843 138.937 504.406 139.025C503.975 139.119 503.452 139.167 502.837 139.167ZM502.464 130.891C501.733 130.891 501.15 131.129 500.712 131.604C500.281 132.08 500.026 132.739 499.949 133.58H504.705C504.705 132.711 504.511 132.047 504.124 131.588C503.737 131.123 503.183 130.891 502.464 130.891ZM501.443 128.492C501.708 128.149 501.993 127.734 502.298 127.247C502.608 126.76 502.851 126.336 503.028 125.977H504.705V126.151C504.462 126.511 504.099 126.953 503.618 127.479C503.136 128.005 502.718 128.411 502.364 128.699H501.443V128.492Z" fill="black"/>
<path d="M496.745 136.518C496.745 137.365 496.429 138.018 495.798 138.477C495.167 138.936 494.282 139.166 493.142 139.166C491.936 139.166 490.995 138.975 490.32 138.593V137.315C490.757 137.536 491.225 137.711 491.723 137.838C492.226 137.965 492.71 138.029 493.175 138.029C493.895 138.029 494.448 137.915 494.835 137.688C495.223 137.456 495.417 137.105 495.417 136.634C495.417 136.28 495.262 135.979 494.952 135.729C494.647 135.475 494.05 135.176 493.159 134.833C492.312 134.518 491.709 134.244 491.349 134.011C490.995 133.773 490.729 133.505 490.552 133.206C490.381 132.907 490.295 132.55 490.295 132.135C490.295 131.394 490.597 130.81 491.2 130.384C491.803 129.952 492.63 129.736 493.682 129.736C494.661 129.736 495.618 129.936 496.554 130.334L496.064 131.455C495.151 131.078 494.324 130.89 493.582 130.89C492.929 130.89 492.437 130.993 492.104 131.197C491.772 131.402 491.606 131.684 491.606 132.044C491.606 132.287 491.667 132.495 491.789 132.667C491.916 132.838 492.118 133.001 492.395 133.156C492.672 133.311 493.203 133.535 493.989 133.829C495.068 134.222 495.796 134.617 496.172 135.016C496.554 135.414 496.745 135.915 496.745 136.518Z" fill="black"/>
<path d="M484.21 136.518C484.21 137.365 483.895 138.018 483.264 138.477C482.633 138.936 481.748 139.166 480.608 139.166C479.402 139.166 478.461 138.975 477.786 138.593V137.315C478.223 137.536 478.69 137.711 479.188 137.838C479.692 137.965 480.176 138.029 480.641 138.029C481.361 138.029 481.914 137.915 482.301 137.688C482.689 137.456 482.882 137.105 482.882 136.634C482.882 136.28 482.727 135.979 482.417 135.729C482.113 135.475 481.515 135.176 480.625 134.833C479.778 134.518 479.175 134.244 478.815 134.011C478.461 133.773 478.195 133.505 478.018 133.206C477.847 132.907 477.761 132.55 477.761 132.135C477.761 131.394 478.062 130.81 478.666 130.384C479.269 129.952 480.096 129.736 481.147 129.736C482.127 129.736 483.084 129.936 484.02 130.334L483.53 131.455C482.617 131.078 481.789 130.89 481.048 130.89C480.395 130.89 479.902 130.993 479.57 131.197C479.238 131.402 479.072 131.684 479.072 132.044C479.072 132.287 479.133 132.495 479.255 132.667C479.382 132.838 479.584 133.001 479.861 133.156C480.138 133.311 480.669 133.535 481.455 133.829C482.534 134.222 483.261 134.617 483.638 135.016C484.02 135.414 484.21 135.915 484.21 136.518Z" fill="black"/>
<path d="M472.639 139.166C471.294 139.166 470.232 138.757 469.452 137.938C468.677 137.118 468.29 135.981 468.29 134.526C468.29 133.059 468.649 131.895 469.369 131.031C470.094 130.168 471.065 129.736 472.282 129.736C473.422 129.736 474.324 130.113 474.988 130.865C475.652 131.612 475.984 132.6 475.984 133.829V134.7H469.717C469.745 135.768 470.013 136.579 470.522 137.132C471.037 137.686 471.759 137.962 472.689 137.962C473.668 137.962 474.637 137.758 475.594 137.348V138.577C475.107 138.787 474.645 138.936 474.208 139.025C473.776 139.119 473.253 139.166 472.639 139.166ZM472.266 130.89C471.535 130.89 470.951 131.128 470.514 131.604C470.083 132.08 469.828 132.738 469.75 133.58H474.507C474.507 132.711 474.313 132.047 473.926 131.587C473.538 131.123 472.985 130.89 472.266 130.89Z" fill="black"/>
<path d="M466.007 129.736C466.411 129.736 466.773 129.77 467.094 129.836L466.903 131.114C466.527 131.031 466.195 130.99 465.907 130.99C465.171 130.99 464.54 131.289 464.015 131.886C463.494 132.484 463.234 133.228 463.234 134.119V139H461.856V129.902H462.994L463.151 131.587H463.218C463.555 130.995 463.962 130.539 464.438 130.218C464.914 129.897 465.437 129.736 466.007 129.736Z" fill="black"/>
<path d="M459.433 134.443C459.433 135.926 459.059 137.085 458.312 137.921C457.565 138.751 456.533 139.166 455.216 139.166C454.402 139.166 453.68 138.975 453.049 138.593C452.418 138.211 451.931 137.664 451.588 136.95C451.245 136.236 451.074 135.4 451.074 134.443C451.074 132.96 451.444 131.806 452.186 130.981C452.928 130.151 453.957 129.736 455.274 129.736C456.547 129.736 457.557 130.16 458.304 131.006C459.056 131.853 459.433 132.999 459.433 134.443ZM452.501 134.443C452.501 135.605 452.734 136.49 453.199 137.099C453.664 137.708 454.347 138.012 455.249 138.012C456.151 138.012 456.834 137.711 457.299 137.107C457.77 136.499 458.005 135.611 458.005 134.443C458.005 133.286 457.77 132.409 457.299 131.812C456.834 131.208 456.146 130.907 455.232 130.907C454.33 130.907 453.65 131.203 453.19 131.795C452.731 132.387 452.501 133.27 452.501 134.443Z" fill="black"/>
<path d="M448.509 138.03C448.752 138.03 448.987 138.013 449.214 137.98C449.441 137.941 449.621 137.903 449.754 137.864V138.918C449.604 138.99 449.383 139.048 449.09 139.092C448.802 139.142 448.542 139.167 448.31 139.167C446.55 139.167 445.67 138.24 445.67 136.386V130.974H444.367V130.31L445.67 129.737L446.251 127.795H447.048V129.903H449.688V130.974H447.048V136.328C447.048 136.876 447.178 137.297 447.438 137.59C447.698 137.883 448.055 138.03 448.509 138.03Z" fill="black"/>
<path d="M443.321 136.518C443.321 137.365 443.005 138.018 442.375 138.477C441.744 138.936 440.858 139.166 439.718 139.166C438.512 139.166 437.571 138.975 436.896 138.593V137.315C437.333 137.536 437.801 137.711 438.299 137.838C438.802 137.965 439.287 138.029 439.751 138.029C440.471 138.029 441.024 137.915 441.412 137.688C441.799 137.456 441.993 137.105 441.993 136.634C441.993 136.28 441.838 135.979 441.528 135.729C441.223 135.475 440.626 135.176 439.735 134.833C438.888 134.518 438.285 134.244 437.925 134.011C437.571 133.773 437.306 133.505 437.128 133.206C436.957 132.907 436.871 132.55 436.871 132.135C436.871 131.394 437.173 130.81 437.776 130.384C438.379 129.952 439.206 129.736 440.258 129.736C441.237 129.736 442.195 129.936 443.13 130.334L442.64 131.455C441.727 131.078 440.9 130.89 440.158 130.89C439.505 130.89 439.013 130.993 438.681 131.197C438.349 131.402 438.183 131.684 438.183 132.044C438.183 132.287 438.243 132.495 438.365 132.667C438.493 132.838 438.694 133.001 438.971 133.156C439.248 133.311 439.779 133.535 440.565 133.829C441.644 134.222 442.372 134.617 442.748 135.016C443.13 135.414 443.321 135.915 443.321 136.518Z" fill="black"/>
<path d="M431.75 139.166C430.405 139.166 429.342 138.757 428.562 137.938C427.787 137.118 427.4 135.981 427.4 134.526C427.4 133.059 427.76 131.895 428.479 131.031C429.204 130.168 430.175 129.736 431.393 129.736C432.533 129.736 433.435 130.113 434.099 130.865C434.763 131.612 435.095 132.6 435.095 133.829V134.7H428.828C428.855 135.768 429.124 136.579 429.633 137.132C430.147 137.686 430.87 137.962 431.799 137.962C432.779 137.962 433.747 137.758 434.705 137.348V138.577C434.218 138.787 433.756 138.936 433.318 139.025C432.887 139.119 432.364 139.166 431.75 139.166ZM431.376 130.89C430.646 130.89 430.062 131.128 429.625 131.604C429.193 132.08 428.938 132.738 428.861 133.58H433.617C433.617 132.711 433.424 132.047 433.036 131.587C432.649 131.123 432.095 130.89 431.376 130.89Z" fill="black"/>
<path d="M426.039 129.902V130.774L424.354 130.973C424.508 131.167 424.647 131.421 424.769 131.737C424.89 132.047 424.951 132.398 424.951 132.791C424.951 133.682 424.647 134.393 424.038 134.924C423.429 135.456 422.594 135.721 421.531 135.721C421.26 135.721 421.006 135.699 420.768 135.655C420.181 135.965 419.888 136.355 419.888 136.825C419.888 137.074 419.99 137.26 420.195 137.381C420.4 137.498 420.751 137.556 421.249 137.556H422.859C423.844 137.556 424.6 137.763 425.125 138.178C425.657 138.593 425.922 139.196 425.922 139.988C425.922 140.995 425.518 141.761 424.71 142.287C423.903 142.818 422.724 143.084 421.174 143.084C419.985 143.084 419.066 142.863 418.418 142.42C417.777 141.977 417.456 141.352 417.456 140.544C417.456 139.991 417.633 139.512 417.987 139.108C418.341 138.704 418.839 138.43 419.481 138.286C419.249 138.181 419.052 138.018 418.892 137.796C418.737 137.575 418.659 137.318 418.659 137.024C418.659 136.692 418.748 136.402 418.925 136.153C419.102 135.904 419.381 135.663 419.763 135.431C419.293 135.237 418.908 134.908 418.609 134.443C418.316 133.978 418.169 133.447 418.169 132.849C418.169 131.853 418.468 131.087 419.066 130.55C419.664 130.007 420.51 129.736 421.606 129.736C422.082 129.736 422.511 129.792 422.893 129.902H426.039ZM418.784 140.527C418.784 141.02 418.991 141.393 419.406 141.648C419.821 141.903 420.416 142.03 421.191 142.03C422.347 142.03 423.202 141.855 423.756 141.507C424.315 141.164 424.594 140.696 424.594 140.104C424.594 139.611 424.442 139.268 424.138 139.075C423.833 138.887 423.261 138.792 422.419 138.792H420.768C420.142 138.792 419.655 138.942 419.307 139.241C418.958 139.54 418.784 139.968 418.784 140.527ZM419.531 132.816C419.531 133.452 419.711 133.934 420.07 134.26C420.43 134.587 420.931 134.75 421.573 134.75C422.917 134.75 423.59 134.097 423.59 132.791C423.59 131.424 422.909 130.741 421.548 130.741C420.9 130.741 420.402 130.915 420.054 131.264C419.705 131.612 419.531 132.13 419.531 132.816Z" fill="black"/>
<path d="M407.769 126.69C408.571 126.69 409.274 126.798 409.877 127.014C410.486 127.23 410.962 127.559 411.305 128.002C411.648 128.439 411.819 128.99 411.819 129.654C411.819 130.141 411.728 130.57 411.545 130.94C411.368 131.306 411.122 131.627 410.807 131.903C410.497 132.174 410.137 132.41 409.728 132.609C410.109 132.825 410.488 133.076 410.865 133.364C411.241 133.652 411.554 133.992 411.803 134.385C412.052 134.773 412.176 135.235 412.176 135.771C412.176 136.419 412.019 137 411.703 137.515C411.388 138.024 410.903 138.428 410.25 138.727C409.597 139.02 408.759 139.167 407.735 139.167C406.712 139.167 405.873 139.025 405.22 138.743C404.567 138.461 404.086 138.068 403.776 137.564C403.472 137.055 403.319 136.469 403.319 135.805C403.319 135.24 403.413 134.764 403.602 134.377C403.795 133.99 404.058 133.66 404.39 133.389C404.722 133.118 405.101 132.875 405.527 132.659C405.19 132.432 404.88 132.174 404.598 131.887C404.315 131.599 404.091 131.27 403.925 130.899C403.759 130.528 403.676 130.108 403.676 129.637C403.676 128.984 403.851 128.439 404.199 128.002C404.548 127.565 405.029 127.238 405.644 127.022C406.263 126.801 406.972 126.69 407.769 126.69ZM406.324 135.672C406.324 136.009 406.446 136.283 406.689 136.494C406.933 136.704 407.271 136.809 407.702 136.809C408.206 136.809 408.574 136.715 408.806 136.527C409.044 136.333 409.163 136.07 409.163 135.738C409.163 135.489 409.088 135.265 408.939 135.066C408.795 134.861 408.626 134.684 408.433 134.535C408.239 134.385 408.07 134.269 407.926 134.186L407.702 134.053C407.453 134.181 407.223 134.324 407.013 134.485C406.808 134.64 406.642 134.817 406.515 135.016C406.388 135.21 406.324 135.428 406.324 135.672ZM407.752 129.056C407.481 129.056 407.246 129.136 407.046 129.297C406.847 129.452 406.748 129.665 406.748 129.936C406.748 130.113 406.789 130.279 406.872 130.434C406.961 130.583 407.077 130.722 407.221 130.849C407.37 130.976 407.536 131.093 407.719 131.198C407.879 131.104 408.037 131.001 408.192 130.891C408.347 130.78 408.477 130.647 408.582 130.492C408.687 130.337 408.74 130.152 408.74 129.936C408.74 129.665 408.64 129.452 408.441 129.297C408.247 129.136 408.018 129.056 407.752 129.056Z" fill="#F4C00F"/>
<path d="M402.157 132.949C402.157 133.923 402.08 134.795 401.925 135.564C401.77 136.328 401.521 136.978 401.178 137.515C400.84 138.051 400.392 138.461 399.833 138.743C399.274 139.025 398.588 139.167 397.774 139.167C396.762 139.167 395.932 138.92 395.284 138.428C394.637 137.93 394.158 137.219 393.848 136.294C393.544 135.365 393.392 134.25 393.392 132.949C393.392 131.638 393.53 130.517 393.807 129.587C394.089 128.652 394.551 127.936 395.193 127.438C395.835 126.939 396.695 126.69 397.774 126.69C398.787 126.69 399.614 126.939 400.256 127.438C400.904 127.93 401.382 128.644 401.692 129.579C402.002 130.509 402.157 131.632 402.157 132.949ZM396.654 132.949C396.654 133.741 396.681 134.405 396.737 134.941C396.798 135.478 396.908 135.882 397.069 136.153C397.235 136.419 397.47 136.552 397.774 136.552C398.079 136.552 398.311 136.419 398.472 136.153C398.632 135.882 398.743 135.481 398.804 134.95C398.865 134.413 398.895 133.746 398.895 132.949C398.895 132.147 398.865 131.477 398.804 130.94C398.743 130.404 398.632 130 398.472 129.729C398.311 129.452 398.079 129.313 397.774 129.313C397.47 129.313 397.235 129.452 397.069 129.729C396.908 130 396.798 130.404 396.737 130.94C396.681 131.477 396.654 132.147 396.654 132.949Z" fill="#F4C00F"/>
<path d="M383.414 133.871C383.414 133.173 383.464 132.482 383.563 131.795C383.663 131.104 383.843 130.453 384.103 129.845C384.363 129.23 384.731 128.688 385.207 128.218C385.683 127.742 386.294 127.368 387.042 127.097C387.789 126.826 388.699 126.69 389.772 126.69C390.01 126.69 390.301 126.704 390.644 126.732C390.987 126.76 391.272 126.793 391.499 126.832V129.396C391.272 129.352 391.018 129.316 390.735 129.289C390.453 129.255 390.107 129.239 389.698 129.239C388.879 129.239 388.231 129.363 387.755 129.612C387.285 129.856 386.945 130.207 386.734 130.667C386.524 131.126 386.402 131.676 386.369 132.318H386.469C386.613 132.053 386.787 131.815 386.992 131.604C387.202 131.389 387.459 131.22 387.764 131.098C388.068 130.971 388.436 130.907 388.868 130.907C389.576 130.907 390.185 131.062 390.694 131.372C391.203 131.676 391.593 132.122 391.864 132.708C392.135 133.295 392.271 134.009 392.271 134.85C392.271 135.758 392.097 136.535 391.748 137.183C391.405 137.825 390.912 138.317 390.271 138.66C389.634 138.998 388.873 139.167 387.988 139.167C387.335 139.167 386.729 139.061 386.17 138.851C385.617 138.641 385.132 138.32 384.717 137.888C384.308 137.451 383.987 136.9 383.754 136.236C383.528 135.567 383.414 134.778 383.414 133.871ZM387.913 136.568C388.262 136.568 388.544 136.436 388.76 136.17C388.981 135.904 389.092 135.486 389.092 134.917C389.092 134.457 389 134.097 388.818 133.837C388.641 133.572 388.35 133.439 387.946 133.439C387.675 133.439 387.445 133.505 387.257 133.638C387.069 133.765 386.925 133.929 386.826 134.128C386.726 134.327 386.676 134.535 386.676 134.75C386.676 134.966 386.698 135.182 386.743 135.398C386.792 135.614 386.867 135.81 386.967 135.987C387.072 136.159 387.202 136.3 387.357 136.411C387.512 136.516 387.697 136.568 387.913 136.568Z" fill="#F4C00F"/>
<path d="M378.633 137.623C378.633 137.036 378.804 136.624 379.147 136.386C379.496 136.148 379.914 136.029 380.401 136.029C380.86 136.029 381.259 136.148 381.596 136.386C381.934 136.624 382.103 137.036 382.103 137.623C382.103 138.182 381.934 138.586 381.596 138.835C381.259 139.084 380.86 139.208 380.401 139.208C379.914 139.208 379.496 139.084 379.147 138.835C378.804 138.586 378.633 138.182 378.633 137.623Z" fill="#F4C00F"/>
<path d="M375.777 139.001H372.449V133C372.449 132.889 372.449 132.687 372.449 132.394C372.449 132.095 372.451 131.765 372.457 131.406C372.468 131.046 372.482 130.722 372.499 130.435C372.355 130.606 372.219 130.753 372.092 130.875C371.97 130.996 371.851 131.11 371.735 131.215L370.357 132.352L368.655 130.26L372.822 126.865H375.777V139.001Z" fill="#F4C00F"/>
</svg>
