<svg width="602" height="428" viewBox="0 0 602 428" fill="none" xmlns="http://www.w3.org/2000/svg">
<path d="M383.378 231.358C382.488 232.919 380.811 233.89 379.017 233.793C377.787 233.727 376.659 233.844 375.993 234.887L370.266 243.895C368.93 245.995 368.391 248.501 368.747 250.967L369.971 260.784C368.996 262.508 366.795 263.092 365.093 262.081L342.605 247.729L339.322 245.634C337.965 244.765 337.025 243.377 336.725 241.796L335.003 232.7C334.784 231.562 334.027 230.596 332.97 230.123L327.009 227.439C325.464 226.742 323.665 226.971 322.344 228.028L314.157 234.581C312.673 235.771 310.706 236.173 308.872 235.664L292.482 231.124C290.841 230.641 289.083 230.784 287.543 231.521L272.383 243.265C270.991 243.931 269.421 244.124 267.911 243.804L258.174 240.794C248.773 240.031 281.368 182.786 297.051 157.163C300.563 151.423 294.297 145.063 297.366 138.855C301.289 130.924 305.517 123.243 311.763 117.406C314.223 115.108 331.552 112.541 334.149 110.39C345.975 100.593 346.03 92.6828 358.73 86.4092C360.133 85.7178 362.232 86.7346 363.116 88.0208L368.706 96.1552L376.248 111.244C376.969 112.688 378.041 113.924 379.368 114.839L417.772 141.367C419.073 142.262 419.51 143.98 418.804 145.393L411.658 159.684C410.916 161.174 411.333 162.979 412.654 163.985L417.701 167.829C419.617 169.293 420.166 171.947 418.976 174.047L407.898 174.362C405.967 174.418 404.213 175.491 403.278 177.178L397.683 187.321C397.012 188.541 396.723 189.934 396.86 191.322L398.456 207.601C398.608 209.136 398.278 210.677 397.52 212.019L395.854 214.973C395.046 216.401 393.765 217.428 392.301 217.937C391.265 218.298 390.396 219.025 389.857 219.975L383.383 231.358H383.378Z" fill="#007EAE" stroke="white" stroke-width="4" stroke-miterlimit="10" stroke-linecap="round"/>
<path d="M381.69 404.391C383.047 406.018 381.512 408.438 379.464 407.899C347.448 399.445 323.832 386.816 301.619 361.539C299.444 359.068 304.668 350.405 302.636 347.812C300.679 345.316 293.275 333.129 291.455 330.526C287.578 324.98 275.564 327.801 272.368 321.823C261.848 302.133 255.181 280.241 253.524 257.104C253.407 255.467 254.881 254.17 256.487 254.491L270.371 257.073C272.413 257.485 274.538 257.053 276.26 255.873L289.357 246.905C290.998 245.782 293.077 245.487 294.967 246.117L309.156 250.851C309.832 251.074 310.579 250.901 311.082 250.393L318.008 243.464C319.193 242.279 320.91 241.806 322.531 242.208L324.661 242.742C326.815 243.28 328.355 245.167 328.467 247.383C328.68 251.491 327.049 256.819 329.062 257.826L361.815 276.062C363.4 276.957 364.015 278.929 363.222 280.566L354.654 298.081C353.887 299.652 352.53 300.856 350.883 301.436L323.304 311.146C320.112 312.677 318.359 316.174 319.035 319.652L321.429 331.945L381.695 404.391H381.69Z" fill="#007EAE" stroke="white" stroke-width="4" stroke-miterlimit="10" stroke-linecap="round"/>
<path d="M343.799 330.019L343.067 328.188C341.807 325.036 343.438 321.467 346.645 320.359L368.7 312.738L388.352 274.776C389.226 273.088 389.328 271.111 388.637 269.341L384.988 259.992C384.322 258.284 384.358 256.382 385.089 254.7L387.346 249.509C388.276 247.369 390.766 246.392 392.9 247.333L396.742 249.021C399.009 250.017 401.657 249.082 402.795 246.88L408.212 236.59C409.401 234.293 412.237 233.403 414.529 234.608L451.403 254.049C454.219 255.533 456.089 258.345 456.374 261.517L457.07 269.296C457.415 273.18 459.931 276.53 463.559 277.949L478.515 283.805C480.157 284.446 481.931 284.685 483.684 284.492L500.012 282.717C502.868 282.407 505.755 282.946 508.306 284.263L527.896 294.38L575.473 319.464C578.294 320.949 579.386 324.436 577.923 327.268C568.587 345.367 558.612 356.47 543.661 370.014C535.87 377.071 505.648 359.755 496.256 364.595C487.546 369.084 481.326 374.737 470.339 380.863C463.905 384.453 475.476 407.752 468.179 409.415C456.048 412.186 443.415 413.655 430.446 413.655C424.429 413.655 418.488 413.34 412.639 412.725C410.748 412.526 409.01 411.581 407.826 410.096L343.804 330.024L343.799 330.019Z" fill="#007EAE" stroke="white" stroke-width="4" stroke-miterlimit="10" stroke-linecap="round"/>
<path d="M414.545 211.546L411.897 201.393C410.982 198.648 410.271 195.145 411.897 192.751L416.15 186.314C417.335 184.57 419.149 183.36 421.212 182.928L432.311 180.62C436.295 177.494 436.661 176.533 439.853 178.002L448.939 181.413C451.267 182.486 453.909 182.633 456.338 181.825L526.306 158.495C527.922 157.956 529.66 157.915 531.302 158.373L582.283 172.643C583.996 173.121 585.394 174.367 586.085 176.009C589.418 183.96 592.168 192.217 594.267 200.727C595.664 206.401 575.24 210.758 576.048 216.64C576.683 221.261 585.704 230.875 589.261 235.451C591.131 237.856 599.171 238.217 599.171 241.297C599.171 243.056 599.145 244.805 599.089 246.554C598.601 262.543 595.888 277.968 591.253 292.539C589.977 296.55 585.414 298.467 581.648 296.586L507.34 259.366C505.851 258.618 504.159 258.39 502.523 258.705L488.034 261.501C487.186 261.664 486.306 261.542 485.534 261.155L474.608 255.685C473.485 255.126 472.687 254.078 472.438 252.848L470.324 242.355C470.105 241.282 469.409 240.372 468.433 239.879L416.364 213.798C415.459 213.346 414.799 212.527 414.545 211.551V211.546Z" fill="#F4C00F"/>
<path d="M580.109 154.113C569.289 136.792 558.983 123.502 543.448 110.457C541.049 108.444 538.595 106.496 536.089 104.615C531.653 101.29 522.978 104.788 518.216 101.901C511.478 97.8181 504.429 94.1932 497.116 91.0716C492.212 88.9771 491.257 80.5021 486.129 78.8752C470.416 73.8828 453.711 71.1323 436.377 71.0001C435.477 70.9951 434.583 71.1272 433.724 71.3865L396.962 82.5509C394.517 83.2932 393.841 86.4351 395.762 88.1179L444.518 130.808C446.82 132.821 447.359 136.192 445.804 138.83L437.144 153.493C436.108 155.247 436.667 157.514 438.405 158.582L452.863 167.484C454.281 168.358 456.008 168.556 457.589 168.028L531.246 142.959C532.288 142.613 533.416 142.608 534.458 142.948L576.048 158.694C578.589 160.219 582.655 158.185 580.114 154.118L580.109 154.113Z" fill="#007EAE" stroke="white" stroke-width="4" stroke-miterlimit="10" stroke-linecap="round"/>
<path d="M405.29 71.2441L402.871 72.0169" stroke="white" stroke-width="2" stroke-linecap="round" stroke-linejoin="round" stroke-dasharray="4 4"/>
<path d="M398.16 73.5166L378.229 79.8766C374.707 81.0002 373.757 85.5402 376.526 87.9856L391.569 108.865L423.605 132.338" stroke="white" stroke-width="2" stroke-linecap="round" stroke-linejoin="round" stroke-dasharray="4 4"/>
<path d="M425.603 133.803L427.651 135.303" stroke="white" stroke-width="2" stroke-linecap="round" stroke-linejoin="round" stroke-dasharray="4 4"/>
<path d="M294.759 123.863L286.557 137.402C285.301 139.476 284.91 141.967 285.469 144.326L286.13 147.097C286.77 149.786 286.307 152.623 284.844 154.972C277.429 166.863 254.2 204.612 248 220.459" stroke="white" stroke-width="2" stroke-linecap="round" stroke-linejoin="round" stroke-dasharray="4 4"/>
<path d="M413.091 220.967L460.607 246.839L465.336 267.785L480.641 274.78L505.567 271.281L586.904 314.574C590.777 316.582 594.084 316.739 594.084 321.101V326.434C594.084 329.469 592.95 332.392 590.907 334.634L563.084 368.905" stroke="white" stroke-width="2" stroke-linecap="round" stroke-linejoin="round" stroke-dasharray="4 4"/>
<path d="M295.775 377.045C295.775 377.045 345.578 445.17 473.643 421.784" stroke="white" stroke-width="2" stroke-linecap="round" stroke-linejoin="round" stroke-dasharray="4 4"/>
<path d="M300.349 120.813C302.314 120.813 303.906 119.22 303.906 117.254C303.906 115.289 302.314 113.695 300.349 113.695C298.384 113.695 296.792 115.289 296.792 117.254C296.792 119.22 298.384 120.813 300.349 120.813Z" fill="white"/>
<path d="M401.987 231.135C403.952 231.135 405.544 229.542 405.544 227.576C405.544 225.611 403.952 224.018 401.987 224.018C400.022 224.018 398.43 225.611 398.43 227.576C398.43 229.542 400.022 231.135 401.987 231.135Z" fill="white"/>
<path d="M289.677 370.944C291.642 370.944 293.235 369.35 293.235 367.385C293.235 365.419 291.642 363.826 289.677 363.826C287.713 363.826 286.12 365.419 286.12 367.385C286.12 369.35 287.713 370.944 289.677 370.944Z" fill="white"/>
<path d="M597.641 217.409C599.606 217.409 601.198 215.815 601.198 213.85C601.198 211.884 599.606 210.291 597.641 210.291C595.676 210.291 594.084 211.884 594.084 213.85C594.084 215.815 595.676 217.409 597.641 217.409Z" fill="white"/>
<path d="M503.626 380.603C505.591 380.603 507.183 379.01 507.183 377.044C507.183 375.079 505.591 373.485 503.626 373.485C501.661 373.485 500.069 375.079 500.069 377.044C500.069 379.01 501.661 380.603 503.626 380.603Z" fill="white"/>
<path d="M585.445 216.392L599.166 231.135" stroke="white" stroke-width="2" stroke-linecap="round" stroke-linejoin="round" stroke-dasharray="4 4"/>
<rect y="44" width="386" height="157" rx="20" fill="white"/>
<circle cx="192.703" cy="48.702" r="37.2294" fill="white"/>
<path d="M239.547 48.7734C239.547 22.9412 218.606 2 192.774 2C166.941 2 146 22.9412 146 48.7734" stroke="white" stroke-width="3" stroke-linecap="round" stroke-dasharray="8 8"/>
<path d="M195.835 53L192.265 47.72H190.345V53H183.265V32H193.375C199.225 32 202.945 35.06 202.945 39.92C202.945 42.95 201.505 45.23 198.985 46.52L203.395 53H195.835ZM195.805 39.92C195.805 38.39 194.875 37.46 192.925 37.46H190.345V42.38H192.925C194.875 42.38 195.805 41.45 195.805 39.92Z" fill="#007EAE"/>
<path d="M295.938 82.9375C295.612 84.2201 295.039 85.7793 294.219 87.6152H292.08C292.529 85.6882 292.855 84.0573 293.057 82.7227H295.801L295.938 82.9375ZM300.498 82.9375C300.173 84.2201 299.6 85.7793 298.779 87.6152H296.641C297.09 85.6882 297.415 84.0573 297.617 82.7227H300.352L300.498 82.9375Z" fill="#007EAE"/>
<path d="M284.199 97.1953C282.917 97.1953 281.908 96.6973 281.172 95.7012C280.443 94.7051 280.078 93.3249 280.078 91.5605C280.078 89.7702 280.449 88.377 281.191 87.3809C281.94 86.3783 282.969 85.877 284.277 85.877C285.651 85.877 286.699 86.4108 287.422 87.4785H287.52C287.37 86.6647 287.295 85.9388 287.295 85.3008V81.8047H290.283V97H287.998L287.422 95.584H287.295C286.618 96.6582 285.586 97.1953 284.199 97.1953ZM285.244 94.8223C286.006 94.8223 286.562 94.6009 286.914 94.1582C287.272 93.7155 287.467 92.9635 287.5 91.9023V91.5801C287.5 90.4082 287.318 89.5684 286.953 89.0605C286.595 88.5527 286.009 88.2988 285.195 88.2988C284.531 88.2988 284.014 88.582 283.643 89.1484C283.278 89.7083 283.096 90.5254 283.096 91.5996C283.096 92.6738 283.281 93.4811 283.652 94.0215C284.023 94.5553 284.554 94.8223 285.244 94.8223Z" fill="#007EAE"/>
<path d="M275.586 97L275.01 95.5156H274.932C274.43 96.1471 273.913 96.5866 273.379 96.834C272.852 97.0749 272.161 97.1953 271.309 97.1953C270.26 97.1953 269.434 96.8958 268.828 96.2969C268.229 95.6979 267.93 94.8451 267.93 93.7383C267.93 92.5794 268.333 91.7266 269.141 91.1797C269.954 90.6263 271.178 90.3203 272.812 90.2617L274.707 90.2031V89.7246C274.707 88.6178 274.141 88.0645 273.008 88.0645C272.135 88.0645 271.11 88.3281 269.932 88.8555L268.945 86.8438C270.202 86.1862 271.595 85.8574 273.125 85.8574C274.59 85.8574 275.713 86.1764 276.494 86.8145C277.275 87.4525 277.666 88.4225 277.666 89.7246V97H275.586ZM274.707 91.9414L273.555 91.9805C272.689 92.0065 272.044 92.1628 271.621 92.4492C271.198 92.7357 270.986 93.1719 270.986 93.7578C270.986 94.5977 271.468 95.0176 272.432 95.0176C273.122 95.0176 273.672 94.819 274.082 94.4219C274.499 94.0247 274.707 93.4974 274.707 92.8398V91.9414Z" fill="#007EAE"/>
<path d="M259.453 97.1953C258.171 97.1953 257.161 96.6973 256.426 95.7012C255.697 94.7051 255.332 93.3249 255.332 91.5605C255.332 89.7702 255.703 88.377 256.445 87.3809C257.194 86.3783 258.223 85.877 259.531 85.877C260.905 85.877 261.953 86.4108 262.676 87.4785H262.773C262.624 86.6647 262.549 85.9388 262.549 85.3008V81.8047H265.537V97H263.252L262.676 95.584H262.549C261.872 96.6582 260.84 97.1953 259.453 97.1953ZM260.498 94.8223C261.26 94.8223 261.816 94.6009 262.168 94.1582C262.526 93.7155 262.721 92.9635 262.754 91.9023V91.5801C262.754 90.4082 262.572 89.5684 262.207 89.0605C261.849 88.5527 261.263 88.2988 260.449 88.2988C259.785 88.2988 259.268 88.582 258.896 89.1484C258.532 89.7083 258.35 90.5254 258.35 91.5996C258.35 92.6738 258.535 93.4811 258.906 94.0215C259.277 94.5553 259.808 94.8223 260.498 94.8223Z" fill="#007EAE"/>
<path d="M249.756 83.2598C249.756 82.2897 250.296 81.8047 251.377 81.8047C252.458 81.8047 252.998 82.2897 252.998 83.2598C252.998 83.722 252.861 84.0833 252.588 84.3438C252.321 84.5977 251.917 84.7246 251.377 84.7246C250.296 84.7246 249.756 84.2363 249.756 83.2598ZM252.861 97H249.883V86.082H252.861V97Z" fill="#007EAE"/>
<path d="M246.748 97H243.77V81.8047H246.748V97Z" fill="#007EAE"/>
<path d="M238.613 97L238.037 95.5156H237.959C237.458 96.1471 236.94 96.5866 236.406 96.834C235.879 97.0749 235.189 97.1953 234.336 97.1953C233.288 97.1953 232.461 96.8958 231.855 96.2969C231.257 95.6979 230.957 94.8451 230.957 93.7383C230.957 92.5794 231.361 91.7266 232.168 91.1797C232.982 90.6263 234.206 90.3203 235.84 90.2617L237.734 90.2031V89.7246C237.734 88.6178 237.168 88.0645 236.035 88.0645C235.163 88.0645 234.137 88.3281 232.959 88.8555L231.973 86.8438C233.229 86.1862 234.622 85.8574 236.152 85.8574C237.617 85.8574 238.74 86.1764 239.521 86.8145C240.303 87.4525 240.693 88.4225 240.693 89.7246V97H238.613ZM237.734 91.9414L236.582 91.9805C235.716 92.0065 235.072 92.1628 234.648 92.4492C234.225 92.7357 234.014 93.1719 234.014 93.7578C234.014 94.5977 234.495 95.0176 235.459 95.0176C236.149 95.0176 236.699 94.819 237.109 94.4219C237.526 94.0247 237.734 93.4974 237.734 92.8398V91.9414Z" fill="#007EAE"/>
<path d="M228.691 85.877C229.095 85.877 229.43 85.9062 229.697 85.9648L229.473 88.7578C229.232 88.6927 228.939 88.6602 228.594 88.6602C227.643 88.6602 226.901 88.9043 226.367 89.3926C225.84 89.8809 225.576 90.5645 225.576 91.4434V97H222.598V86.082H224.854L225.293 87.918H225.439C225.778 87.306 226.234 86.8145 226.807 86.4434C227.386 86.0658 228.014 85.877 228.691 85.877Z" fill="#007EAE"/>
<path d="M217.188 97L216.787 95.6035H216.631C216.312 96.1113 215.859 96.5052 215.273 96.7852C214.688 97.0586 214.02 97.1953 213.271 97.1953C211.989 97.1953 211.022 96.8535 210.371 96.1699C209.72 95.4798 209.395 94.4902 209.395 93.2012V86.082H212.373V92.459C212.373 93.2467 212.513 93.8392 212.793 94.2363C213.073 94.627 213.519 94.8223 214.131 94.8223C214.964 94.8223 215.566 94.5456 215.938 93.9922C216.309 93.4323 216.494 92.5078 216.494 91.2188V86.082H219.473V97H217.188Z" fill="#007EAE"/>
<path d="M199.512 89.0605H200.488C201.445 89.0605 202.152 88.901 202.607 88.582C203.063 88.263 203.291 87.7617 203.291 87.0781C203.291 86.401 203.057 85.9193 202.588 85.6328C202.126 85.3464 201.406 85.2031 200.43 85.2031H199.512V89.0605ZM199.512 91.5215V97H196.484V82.7227H200.645C202.585 82.7227 204.02 83.0775 204.951 83.7871C205.882 84.4902 206.348 85.5612 206.348 87C206.348 87.8398 206.117 88.5885 205.654 89.2461C205.192 89.8971 204.538 90.4082 203.691 90.7793C205.84 93.9889 207.24 96.0625 207.891 97H204.531L201.123 91.5215H199.512Z" fill="#007EAE"/>
<path d="M190.586 87.4004C190.729 86.8079 190.964 86.0658 191.289 85.1738C191.621 84.2754 191.96 83.4583 192.305 82.7227H194.443C194.014 84.4609 193.685 86.0918 193.457 87.6152H190.723L190.586 87.4004ZM186.025 87.4004C186.169 86.8079 186.403 86.0658 186.729 85.1738C187.061 84.2754 187.399 83.4583 187.744 82.7227H189.883C189.453 84.4609 189.124 86.0918 188.896 87.6152H186.162L186.025 87.4004Z" fill="#007EAE"/>
<path d="M172.139 91.5215C172.139 92.6022 172.314 93.4193 172.666 93.9727C173.024 94.526 173.604 94.8027 174.404 94.8027C175.199 94.8027 175.768 94.5293 176.113 93.9824C176.465 93.429 176.641 92.6087 176.641 91.5215C176.641 90.4408 176.465 89.6302 176.113 89.0898C175.762 88.5495 175.186 88.2793 174.385 88.2793C173.59 88.2793 173.018 88.5495 172.666 89.0898C172.314 89.6237 172.139 90.4342 172.139 91.5215ZM179.688 91.5215C179.688 93.2988 179.219 94.6888 178.281 95.6914C177.344 96.694 176.038 97.1953 174.365 97.1953C173.317 97.1953 172.393 96.9674 171.592 96.5117C170.791 96.0495 170.176 95.3887 169.746 94.5293C169.316 93.6699 169.102 92.6673 169.102 91.5215C169.102 89.7376 169.567 88.3509 170.498 87.3613C171.429 86.3717 172.738 85.877 174.424 85.877C175.472 85.877 176.396 86.1048 177.197 86.5605C177.998 87.0163 178.613 87.6706 179.043 88.5234C179.473 89.3763 179.688 90.3757 179.688 91.5215Z" fill="#007EAE"/>
<path d="M163.525 83.2598C163.525 82.2897 164.066 81.8047 165.146 81.8047C166.227 81.8047 166.768 82.2897 166.768 83.2598C166.768 83.722 166.631 84.0833 166.357 84.3438C166.09 84.5977 165.687 84.7246 165.146 84.7246C164.066 84.7246 163.525 84.2363 163.525 83.2598ZM166.631 97H163.652V86.082H166.631V97Z" fill="#007EAE"/>
<path d="M160.664 85.877C161.068 85.877 161.403 85.9062 161.67 85.9648L161.445 88.7578C161.204 88.6927 160.911 88.6602 160.566 88.6602C159.616 88.6602 158.874 88.9043 158.34 89.3926C157.812 89.8809 157.549 90.5645 157.549 91.4434V97H154.57V86.082H156.826L157.266 87.918H157.412C157.751 87.306 158.206 86.8145 158.779 86.4434C159.359 86.0658 159.987 85.877 160.664 85.877Z" fill="#007EAE"/>
<path d="M144.561 91.5215C144.561 92.6022 144.736 93.4193 145.088 93.9727C145.446 94.526 146.025 94.8027 146.826 94.8027C147.62 94.8027 148.19 94.5293 148.535 93.9824C148.887 93.429 149.062 92.6087 149.062 91.5215C149.062 90.4408 148.887 89.6302 148.535 89.0898C148.184 88.5495 147.607 88.2793 146.807 88.2793C146.012 88.2793 145.439 88.5495 145.088 89.0898C144.736 89.6237 144.561 90.4342 144.561 91.5215ZM152.109 91.5215C152.109 93.2988 151.641 94.6888 150.703 95.6914C149.766 96.694 148.46 97.1953 146.787 97.1953C145.739 97.1953 144.814 96.9674 144.014 96.5117C143.213 96.0495 142.598 95.3887 142.168 94.5293C141.738 93.6699 141.523 92.6673 141.523 91.5215C141.523 89.7376 141.989 88.3509 142.92 87.3613C143.851 86.3717 145.16 85.877 146.846 85.877C147.894 85.877 148.818 86.1048 149.619 86.5605C150.42 87.0163 151.035 87.6706 151.465 88.5234C151.895 89.3763 152.109 90.3757 152.109 91.5215Z" fill="#007EAE"/>
<path d="M138.096 94.8223C138.617 94.8223 139.242 94.7083 139.971 94.4805V96.6973C139.229 97.0293 138.317 97.1953 137.236 97.1953C136.045 97.1953 135.176 96.8958 134.629 96.2969C134.089 95.6914 133.818 94.7865 133.818 93.582V88.3184H132.393V87.0586L134.033 86.0625L134.893 83.7578H136.797V86.082H139.854V88.3184H136.797V93.582C136.797 94.0052 136.914 94.3177 137.148 94.5195C137.389 94.7214 137.705 94.8223 138.096 94.8223Z" fill="#007EAE"/>
<path d="M127.256 83.2598C127.256 82.2897 127.796 81.8047 128.877 81.8047C129.958 81.8047 130.498 82.2897 130.498 83.2598C130.498 83.722 130.361 84.0833 130.088 84.3438C129.821 84.5977 129.417 84.7246 128.877 84.7246C127.796 84.7246 127.256 84.2363 127.256 83.2598ZM130.361 97H127.383V86.082H130.361V97Z" fill="#007EAE"/>
<path d="M124.395 85.877C124.798 85.877 125.133 85.9062 125.4 85.9648L125.176 88.7578C124.935 88.6927 124.642 88.6602 124.297 88.6602C123.346 88.6602 122.604 88.9043 122.07 89.3926C121.543 89.8809 121.279 90.5645 121.279 91.4434V97H118.301V86.082H120.557L120.996 87.918H121.143C121.481 87.306 121.937 86.8145 122.51 86.4434C123.089 86.0658 123.717 85.877 124.395 85.877Z" fill="#007EAE"/>
<path d="M115.312 85.877C115.716 85.877 116.051 85.9062 116.318 85.9648L116.094 88.7578C115.853 88.6927 115.56 88.6602 115.215 88.6602C114.264 88.6602 113.522 88.9043 112.988 89.3926C112.461 89.8809 112.197 90.5645 112.197 91.4434V97H109.219V86.082H111.475L111.914 87.918H112.061C112.399 87.306 112.855 86.8145 113.428 86.4434C114.007 86.0658 114.635 85.877 115.312 85.877Z" fill="#007EAE"/>
<path d="M101.924 87.9961C101.292 87.9961 100.798 88.1979 100.439 88.6016C100.081 88.9987 99.8763 89.5651 99.8242 90.3008H104.004C103.991 89.5651 103.799 88.9987 103.428 88.6016C103.057 88.1979 102.555 87.9961 101.924 87.9961ZM102.344 97.1953C100.586 97.1953 99.2122 96.7103 98.2227 95.7402C97.2331 94.7702 96.7383 93.3965 96.7383 91.6191C96.7383 89.7897 97.194 88.377 98.1055 87.3809C99.0234 86.3783 100.29 85.877 101.904 85.877C103.447 85.877 104.648 86.3164 105.508 87.1953C106.367 88.0742 106.797 89.2884 106.797 90.8379V92.2832H99.7559C99.7884 93.1296 100.039 93.7904 100.508 94.2656C100.977 94.7409 101.634 94.9785 102.48 94.9785C103.138 94.9785 103.76 94.9102 104.346 94.7734C104.932 94.6367 105.544 94.4186 106.182 94.1191V96.4238C105.661 96.6842 105.104 96.8763 104.512 97C103.919 97.1302 103.197 97.1953 102.344 97.1953Z" fill="#007EAE"/>
<path d="M91.5625 97H88.5352V85.2422H84.6582V82.7227H95.4395V85.2422H91.5625V97Z" fill="#007EAE"/>
<path d="M276.138 164.343C276.376 164.006 276.738 163.563 277.225 163.015L280.164 159.902H281.799L278.113 163.779L282.056 169H280.388L277.175 164.7L276.138 165.597V169H274.776V156.084H276.138V162.932C276.138 163.236 276.116 163.707 276.071 164.343H276.138Z" fill="black"/>
<path d="M270.56 169V163.115C270.56 162.373 270.391 161.82 270.053 161.455C269.716 161.089 269.187 160.907 268.468 160.907C267.516 160.907 266.819 161.164 266.376 161.679C265.933 162.193 265.712 163.043 265.712 164.227V169H264.334V159.902H265.455L265.679 161.147H265.745C266.027 160.699 266.423 160.353 266.932 160.11C267.441 159.861 268.008 159.736 268.634 159.736C269.729 159.736 270.554 160.002 271.107 160.533C271.661 161.059 271.938 161.903 271.938 163.065V169H270.56Z" fill="black"/>
<path d="M260.466 169.001L260.192 167.706H260.125C259.672 168.276 259.218 168.663 258.764 168.868C258.316 169.067 257.754 169.167 257.079 169.167C256.177 169.167 255.469 168.935 254.954 168.47C254.445 168.005 254.19 167.344 254.19 166.486C254.19 164.649 255.66 163.686 258.598 163.597L260.142 163.547V162.983C260.142 162.269 259.987 161.743 259.677 161.406C259.373 161.063 258.883 160.891 258.208 160.891C257.45 160.891 256.592 161.124 255.635 161.588L255.211 160.534C255.66 160.291 256.149 160.1 256.681 159.961C257.217 159.823 257.754 159.754 258.291 159.754C259.376 159.754 260.178 159.995 260.698 160.476C261.224 160.958 261.487 161.729 261.487 162.792V169.001H260.466ZM257.353 168.03C258.211 168.03 258.883 167.795 259.37 167.324C259.863 166.854 260.109 166.195 260.109 165.349V164.527L258.731 164.585C257.635 164.624 256.844 164.795 256.357 165.1C255.875 165.398 255.635 165.866 255.635 166.502C255.635 167 255.784 167.38 256.083 167.64C256.387 167.9 256.811 168.03 257.353 168.03Z" fill="black"/>
<path d="M244.055 156.865H247.483C249.094 156.865 250.259 157.106 250.978 157.587C251.697 158.069 252.057 158.83 252.057 159.87C252.057 160.59 251.855 161.184 251.451 161.655C251.053 162.12 250.469 162.421 249.7 162.56V162.643C251.542 162.958 252.464 163.926 252.464 165.548C252.464 166.632 252.096 167.479 251.36 168.088C250.629 168.697 249.606 169.001 248.289 169.001H244.055V156.865ZM245.466 162.062H247.791C248.787 162.062 249.503 161.907 249.94 161.597C250.378 161.281 250.596 160.753 250.596 160.011C250.596 159.331 250.353 158.841 249.866 158.542C249.379 158.238 248.604 158.085 247.542 158.085H245.466V162.062ZM245.466 163.257V167.797H247.998C248.978 167.797 249.714 167.609 250.206 167.233C250.704 166.851 250.953 166.256 250.953 165.448C250.953 164.696 250.699 164.142 250.189 163.788C249.686 163.434 248.917 163.257 247.882 163.257H245.466Z" fill="black"/>
<path d="M241.424 164.443C241.424 165.926 241.05 167.085 240.303 167.921C239.556 168.751 238.524 169.166 237.207 169.166C236.394 169.166 235.671 168.975 235.041 168.593C234.41 168.211 233.923 167.664 233.58 166.95C233.236 166.236 233.065 165.4 233.065 164.443C233.065 162.96 233.436 161.806 234.177 160.981C234.919 160.151 235.948 159.736 237.265 159.736C238.538 159.736 239.548 160.16 240.295 161.006C241.048 161.853 241.424 162.999 241.424 164.443ZM234.493 164.443C234.493 165.605 234.725 166.49 235.19 167.099C235.655 167.708 236.338 168.012 237.24 168.012C238.142 168.012 238.826 167.711 239.291 167.107C239.761 166.499 239.996 165.611 239.996 164.443C239.996 163.286 239.761 162.409 239.291 161.812C238.826 161.208 238.137 160.907 237.224 160.907C236.322 160.907 235.641 161.203 235.182 161.795C234.722 162.387 234.493 163.27 234.493 164.443Z" fill="black"/>
<path d="M230.782 159.736C231.186 159.736 231.549 159.77 231.87 159.836L231.679 161.114C231.302 161.031 230.97 160.99 230.683 160.99C229.947 160.99 229.316 161.289 228.79 161.886C228.27 162.484 228.01 163.228 228.01 164.119V169H226.632V159.902H227.769L227.927 161.587H227.993C228.331 160.995 228.737 160.539 229.213 160.218C229.689 159.897 230.212 159.736 230.782 159.736Z" fill="black"/>
<path d="M224.764 159.902V160.774L223.079 160.973C223.234 161.167 223.372 161.421 223.494 161.737C223.616 162.047 223.677 162.398 223.677 162.791C223.677 163.682 223.372 164.393 222.764 164.924C222.155 165.456 221.319 165.721 220.257 165.721C219.986 165.721 219.731 165.699 219.493 165.655C218.907 165.965 218.613 166.355 218.613 166.825C218.613 167.074 218.716 167.26 218.92 167.381C219.125 167.498 219.477 167.556 219.975 167.556H221.585C222.57 167.556 223.325 167.763 223.851 168.178C224.382 168.593 224.648 169.196 224.648 169.988C224.648 170.995 224.244 171.761 223.436 172.287C222.628 172.818 221.449 173.084 219.9 173.084C218.71 173.084 217.792 172.863 217.144 172.42C216.502 171.977 216.181 171.352 216.181 170.544C216.181 169.991 216.358 169.512 216.712 169.108C217.067 168.704 217.565 168.43 218.207 168.286C217.974 168.181 217.778 168.018 217.617 167.796C217.462 167.575 217.385 167.318 217.385 167.024C217.385 166.692 217.473 166.402 217.65 166.153C217.827 165.904 218.107 165.663 218.489 165.431C218.018 165.237 217.634 164.908 217.335 164.443C217.042 163.978 216.895 163.447 216.895 162.849C216.895 161.853 217.194 161.087 217.792 160.55C218.389 160.007 219.236 159.736 220.332 159.736C220.807 159.736 221.236 159.792 221.618 159.902H224.764ZM217.509 170.527C217.509 171.02 217.717 171.393 218.132 171.648C218.547 171.903 219.142 172.03 219.917 172.03C221.073 172.03 221.928 171.855 222.481 171.507C223.04 171.164 223.32 170.696 223.32 170.104C223.32 169.611 223.168 169.268 222.863 169.075C222.559 168.887 221.986 168.792 221.145 168.792H219.493C218.868 168.792 218.381 168.942 218.032 169.241C217.684 169.54 217.509 169.968 217.509 170.527ZM218.256 162.816C218.256 163.452 218.436 163.934 218.796 164.26C219.156 164.587 219.656 164.75 220.298 164.75C221.643 164.75 222.315 164.097 222.315 162.791C222.315 161.424 221.635 160.741 220.273 160.741C219.626 160.741 219.128 160.915 218.779 161.264C218.431 161.612 218.256 162.13 218.256 162.816Z" fill="black"/>
<path d="M214.396 169L212.886 165.14H208.021L206.527 169H205.1L209.897 156.814H211.084L215.857 169H214.396ZM212.446 163.87L211.035 160.11C210.852 159.634 210.664 159.05 210.47 158.358C210.348 158.89 210.174 159.473 209.947 160.11L208.52 163.87H212.446Z" fill="black"/>
<path d="M199.895 166.518C199.895 167.365 199.58 168.018 198.949 168.477C198.318 168.936 197.432 169.166 196.292 169.166C195.086 169.166 194.145 168.975 193.47 168.593V167.315C193.907 167.536 194.375 167.711 194.873 167.838C195.377 167.965 195.861 168.029 196.326 168.029C197.045 168.029 197.598 167.915 197.986 167.688C198.373 167.456 198.567 167.105 198.567 166.634C198.567 166.28 198.412 165.979 198.102 165.729C197.798 165.475 197.2 165.176 196.309 164.833C195.462 164.518 194.859 164.244 194.5 164.011C194.145 163.773 193.88 163.505 193.703 163.206C193.531 162.907 193.445 162.55 193.445 162.135C193.445 161.394 193.747 160.81 194.35 160.384C194.953 159.952 195.781 159.736 196.832 159.736C197.812 159.736 198.769 159.936 199.704 160.334L199.214 161.455C198.301 161.078 197.474 160.89 196.732 160.89C196.079 160.89 195.587 160.993 195.255 161.197C194.923 161.402 194.757 161.684 194.757 162.044C194.757 162.287 194.818 162.495 194.939 162.667C195.067 162.838 195.269 163.001 195.545 163.156C195.822 163.311 196.353 163.535 197.139 163.829C198.218 164.222 198.946 164.617 199.322 165.016C199.704 165.414 199.895 165.915 199.895 166.518Z" fill="black"/>
<path d="M190.158 169.001L189.884 167.706H189.818C189.364 168.276 188.91 168.663 188.457 168.868C188.008 169.067 187.447 169.167 186.771 169.167C185.869 169.167 185.161 168.935 184.646 168.47C184.137 168.005 183.883 167.344 183.883 166.486C183.883 164.649 185.352 163.686 188.291 163.597L189.834 163.547V162.983C189.834 162.269 189.68 161.743 189.37 161.406C189.065 161.063 188.576 160.891 187.9 160.891C187.142 160.891 186.285 161.124 185.327 161.588L184.904 160.534C185.352 160.291 185.842 160.1 186.373 159.961C186.91 159.823 187.447 159.754 187.983 159.754C189.068 159.754 189.87 159.995 190.391 160.476C190.916 160.958 191.179 161.729 191.179 162.792V169.001H190.158ZM187.045 168.03C187.903 168.03 188.576 167.795 189.062 167.324C189.555 166.854 189.801 166.195 189.801 165.349V164.527L188.423 164.585C187.328 164.624 186.536 164.795 186.049 165.1C185.568 165.398 185.327 165.866 185.327 166.502C185.327 167 185.477 167.38 185.775 167.64C186.08 167.9 186.503 168.03 187.045 168.03Z" fill="black"/>
<path d="M180.347 169V163.115C180.347 162.373 180.178 161.82 179.84 161.455C179.503 161.089 178.974 160.907 178.255 160.907C177.303 160.907 176.606 161.164 176.163 161.679C175.72 162.193 175.499 163.043 175.499 164.227V169H174.121V159.902H175.242L175.466 161.147H175.532C175.814 160.699 176.21 160.353 176.719 160.11C177.228 159.861 177.796 159.736 178.421 159.736C179.517 159.736 180.341 160.002 180.895 160.533C181.448 161.059 181.725 161.903 181.725 163.065V169H180.347Z" fill="black"/>
<path d="M171.199 169H169.821V159.903H171.199V169ZM169.705 157.438C169.705 157.122 169.783 156.892 169.938 156.749C170.092 156.599 170.286 156.524 170.519 156.524C170.74 156.524 170.931 156.599 171.091 156.749C171.252 156.898 171.332 157.128 171.332 157.438C171.332 157.747 171.252 157.98 171.091 158.135C170.931 158.284 170.74 158.359 170.519 158.359C170.286 158.359 170.092 158.284 169.938 158.135C169.783 157.98 169.705 157.747 169.705 157.438Z" fill="black"/>
<path d="M165.355 169.166C164.038 169.166 163.017 168.762 162.292 167.954C161.573 167.141 161.213 165.992 161.213 164.509C161.213 162.987 161.579 161.812 162.309 160.981C163.045 160.151 164.091 159.736 165.447 159.736C165.884 159.736 166.321 159.783 166.758 159.877C167.195 159.972 167.539 160.082 167.788 160.209L167.364 161.38C167.06 161.258 166.728 161.159 166.368 161.081C166.008 160.998 165.69 160.957 165.414 160.957C163.565 160.957 162.641 162.135 162.641 164.493C162.641 165.611 162.865 166.468 163.313 167.066C163.767 167.664 164.437 167.962 165.322 167.962C166.08 167.962 166.858 167.799 167.655 167.473V168.693C167.046 169.008 166.28 169.166 165.355 169.166Z" fill="black"/>
<path d="M155.76 160.974H153.444V169H152.066V160.974H150.439V160.351L152.066 159.853V159.347C152.066 157.111 153.043 155.993 154.996 155.993C155.478 155.993 156.042 156.09 156.689 156.284L156.333 157.388C155.801 157.216 155.347 157.13 154.971 157.13C154.451 157.13 154.066 157.305 153.817 157.653C153.568 157.996 153.444 158.55 153.444 159.313V159.903H155.76V160.974ZM158.798 169H157.42V159.903H158.798V169ZM157.304 157.438C157.304 157.122 157.381 156.892 157.536 156.749C157.691 156.599 157.885 156.524 158.117 156.524C158.339 156.524 158.529 156.599 158.69 156.749C158.85 156.898 158.931 157.128 158.931 157.438C158.931 157.747 158.85 157.98 158.69 158.135C158.529 158.284 158.339 158.359 158.117 158.359C157.885 158.359 157.691 158.284 157.536 158.135C157.381 157.98 157.304 157.747 157.304 157.438Z" fill="black"/>
<path d="M149.235 164.443C149.235 165.926 148.862 167.085 148.115 167.921C147.368 168.751 146.336 169.166 145.019 169.166C144.205 169.166 143.483 168.975 142.852 168.593C142.221 168.211 141.734 167.664 141.391 166.95C141.048 166.236 140.876 165.4 140.876 164.443C140.876 162.96 141.247 161.806 141.989 160.981C142.73 160.151 143.76 159.736 145.077 159.736C146.349 159.736 147.359 160.16 148.106 161.006C148.859 161.853 149.235 162.999 149.235 164.443ZM142.304 164.443C142.304 165.605 142.537 166.49 143.001 167.099C143.466 167.708 144.15 168.012 145.052 168.012C145.954 168.012 146.637 167.711 147.102 167.107C147.572 166.499 147.808 165.611 147.808 164.443C147.808 163.286 147.572 162.409 147.102 161.812C146.637 161.208 145.948 160.907 145.035 160.907C144.133 160.907 143.452 161.203 142.993 161.795C142.534 162.387 142.304 163.27 142.304 164.443Z" fill="black"/>
<path d="M134.908 162.949C134.908 163.923 134.831 164.795 134.676 165.564C134.521 166.328 134.272 166.978 133.929 167.515C133.591 168.051 133.143 168.461 132.584 168.743C132.025 169.025 131.339 169.167 130.525 169.167C129.513 169.167 128.683 168.92 128.035 168.428C127.388 167.93 126.909 167.219 126.599 166.294C126.295 165.365 126.143 164.25 126.143 162.949C126.143 161.638 126.281 160.517 126.558 159.587C126.84 158.652 127.302 157.936 127.944 157.438C128.586 156.939 129.446 156.69 130.525 156.69C131.538 156.69 132.365 156.939 133.007 157.438C133.655 157.93 134.133 158.644 134.443 159.579C134.753 160.509 134.908 161.632 134.908 162.949ZM129.405 162.949C129.405 163.741 129.432 164.405 129.488 164.941C129.549 165.478 129.659 165.882 129.82 166.153C129.986 166.419 130.221 166.552 130.525 166.552C130.83 166.552 131.062 166.419 131.223 166.153C131.383 165.882 131.494 165.481 131.555 164.95C131.616 164.413 131.646 163.746 131.646 162.949C131.646 162.147 131.616 161.477 131.555 160.94C131.494 160.404 131.383 160 131.223 159.729C131.062 159.452 130.83 159.313 130.525 159.313C130.221 159.313 129.986 159.452 129.82 159.729C129.659 160 129.549 160.404 129.488 160.94C129.432 161.477 129.405 162.147 129.405 162.949Z" fill="#F4C00F"/>
<path d="M121.096 161.049C121.771 161.049 122.385 161.201 122.938 161.505C123.492 161.81 123.935 162.252 124.267 162.833C124.599 163.415 124.765 164.123 124.765 164.958C124.765 165.861 124.582 166.627 124.217 167.258C123.857 167.883 123.312 168.359 122.582 168.686C121.857 169.007 120.941 169.167 119.834 169.167C119.131 169.167 118.489 169.112 117.908 169.001C117.333 168.896 116.818 168.733 116.364 168.511V165.822C116.79 166.015 117.302 166.193 117.9 166.353C118.503 166.508 119.056 166.585 119.56 166.585C119.964 166.585 120.307 166.527 120.589 166.411C120.872 166.295 121.085 166.123 121.229 165.896C121.378 165.67 121.453 165.39 121.453 165.058C121.453 164.599 121.287 164.239 120.955 163.979C120.623 163.713 120.119 163.581 119.444 163.581C119.139 163.581 118.841 163.611 118.547 163.672C118.254 163.733 117.997 163.799 117.775 163.871L116.572 163.273L117.028 156.865H123.951V159.596H119.817L119.668 161.198C119.845 161.165 120.025 161.132 120.208 161.099C120.396 161.065 120.692 161.049 121.096 161.049Z" fill="#F4C00F"/>
<path d="M113.442 169.001H110.114V163C110.114 162.889 110.114 162.687 110.114 162.394C110.114 162.095 110.117 161.765 110.122 161.406C110.133 161.046 110.147 160.722 110.164 160.435C110.02 160.606 109.884 160.753 109.757 160.875C109.635 160.996 109.516 161.11 109.4 161.215L108.022 162.352L106.32 160.26L110.487 156.865H113.442V169.001Z" fill="#F4C00F"/>
<path d="M101.423 167.623C101.423 167.036 101.594 166.624 101.938 166.386C102.286 166.148 102.704 166.029 103.191 166.029C103.65 166.029 104.049 166.148 104.386 166.386C104.724 166.624 104.893 167.036 104.893 167.623C104.893 168.182 104.724 168.586 104.386 168.835C104.049 169.084 103.65 169.208 103.191 169.208C102.704 169.208 102.286 169.084 101.938 168.835C101.594 168.586 101.423 168.182 101.423 167.623Z" fill="#F4C00F"/>
<path d="M98.5674 169.001H95.2388V163C95.2388 162.889 95.2388 162.687 95.2388 162.394C95.2388 162.095 95.2415 161.765 95.2471 161.406C95.2581 161.046 95.272 160.722 95.2886 160.435C95.1447 160.606 95.0091 160.753 94.8818 160.875C94.7601 160.996 94.6411 161.11 94.5249 161.215L93.147 162.352L91.4453 160.26L95.6123 156.865H98.5674V169.001Z" fill="#F4C00F"/>
<path d="M316.612 134.443C316.612 135.926 316.239 137.085 315.492 137.921C314.745 138.751 313.713 139.166 312.396 139.166C311.582 139.166 310.86 138.975 310.229 138.593C309.598 138.211 309.111 137.664 308.768 136.95C308.425 136.236 308.253 135.4 308.253 134.443C308.253 132.96 308.624 131.806 309.366 130.981C310.107 130.151 311.137 129.736 312.454 129.736C313.726 129.736 314.736 130.16 315.483 131.006C316.236 131.853 316.612 132.999 316.612 134.443ZM309.681 134.443C309.681 135.605 309.914 136.49 310.378 137.099C310.843 137.708 311.527 138.012 312.429 138.012C313.331 138.012 314.014 137.711 314.479 137.107C314.949 136.499 315.185 135.611 315.185 134.443C315.185 133.286 314.949 132.409 314.479 131.812C314.014 131.208 313.325 130.907 312.412 130.907C311.51 130.907 310.829 131.203 310.37 131.795C309.911 132.387 309.681 133.27 309.681 134.443Z" fill="black"/>
<path d="M305.971 129.736C306.375 129.736 306.737 129.77 307.058 129.836L306.867 131.114C306.491 131.031 306.159 130.99 305.871 130.99C305.135 130.99 304.504 131.289 303.979 131.886C303.458 132.484 303.198 133.228 303.198 134.119V139H301.82V129.902H302.958L303.115 131.587H303.182C303.519 130.995 303.926 130.539 304.402 130.218C304.878 129.897 305.401 129.736 305.971 129.736Z" fill="black"/>
<path d="M299.953 129.902V130.774L298.268 130.973C298.423 131.167 298.561 131.421 298.683 131.737C298.804 132.047 298.865 132.398 298.865 132.791C298.865 133.682 298.561 134.393 297.952 134.924C297.343 135.456 296.508 135.721 295.445 135.721C295.174 135.721 294.92 135.699 294.682 135.655C294.095 135.965 293.802 136.355 293.802 136.825C293.802 137.074 293.904 137.26 294.109 137.381C294.314 137.498 294.665 137.556 295.163 137.556H296.773C297.758 137.556 298.514 137.763 299.04 138.178C299.571 138.593 299.836 139.196 299.836 139.988C299.836 140.995 299.432 141.761 298.625 142.287C297.817 142.818 296.638 143.084 295.088 143.084C293.899 143.084 292.98 142.863 292.333 142.42C291.691 141.977 291.37 141.352 291.37 140.544C291.37 139.991 291.547 139.512 291.901 139.108C292.255 138.704 292.753 138.43 293.395 138.286C293.163 138.181 292.966 138.018 292.806 137.796C292.651 137.575 292.573 137.318 292.573 137.024C292.573 136.692 292.662 136.402 292.839 136.153C293.016 135.904 293.295 135.663 293.677 135.431C293.207 135.237 292.822 134.908 292.523 134.443C292.23 133.978 292.083 133.447 292.083 132.849C292.083 131.853 292.382 131.087 292.98 130.55C293.578 130.007 294.424 129.736 295.52 129.736C295.996 129.736 296.425 129.792 296.807 129.902H299.953ZM292.698 140.527C292.698 141.02 292.905 141.393 293.32 141.648C293.735 141.903 294.33 142.03 295.105 142.03C296.262 142.03 297.117 141.855 297.67 141.507C298.229 141.164 298.508 140.696 298.508 140.104C298.508 139.611 298.356 139.268 298.052 139.075C297.747 138.887 297.175 138.792 296.333 138.792H294.682C294.056 138.792 293.569 138.942 293.221 139.241C292.872 139.54 292.698 139.968 292.698 140.527ZM293.445 132.816C293.445 133.452 293.625 133.934 293.984 134.26C294.344 134.587 294.845 134.75 295.487 134.75C296.832 134.75 297.504 134.097 297.504 132.791C297.504 131.424 296.823 130.741 295.462 130.741C294.814 130.741 294.316 130.915 293.968 131.264C293.619 131.612 293.445 132.13 293.445 132.816Z" fill="black"/>
<path d="M288.639 139.001L288.365 137.706H288.298C287.845 138.276 287.391 138.663 286.937 138.868C286.489 139.067 285.927 139.167 285.252 139.167C284.35 139.167 283.642 138.935 283.127 138.47C282.618 138.005 282.363 137.344 282.363 136.486C282.363 134.649 283.833 133.686 286.771 133.597L288.315 133.547V132.983C288.315 132.269 288.16 131.743 287.85 131.406C287.546 131.063 287.056 130.891 286.381 130.891C285.623 130.891 284.765 131.124 283.808 131.588L283.384 130.534C283.833 130.291 284.322 130.1 284.854 129.961C285.39 129.823 285.927 129.754 286.464 129.754C287.549 129.754 288.351 129.995 288.871 130.476C289.397 130.958 289.66 131.729 289.66 132.792V139.001H288.639ZM285.526 138.03C286.384 138.03 287.056 137.795 287.543 137.324C288.035 136.854 288.282 136.195 288.282 135.349V134.527L286.904 134.585C285.808 134.624 285.017 134.795 284.53 135.1C284.048 135.398 283.808 135.866 283.808 136.502C283.808 137 283.957 137.38 284.256 137.64C284.56 137.9 284.984 138.03 285.526 138.03Z" fill="black"/>
<path d="M274.411 139V133.115C274.411 132.373 274.242 131.82 273.905 131.455C273.567 131.089 273.039 130.907 272.319 130.907C271.368 130.907 270.67 131.164 270.228 131.679C269.785 132.193 269.563 133.043 269.563 134.227V139H268.186V129.902H269.306L269.53 131.147H269.597C269.879 130.699 270.275 130.353 270.784 130.11C271.293 129.861 271.86 129.736 272.485 129.736C273.581 129.736 274.406 130.002 274.959 130.533C275.512 131.059 275.789 131.903 275.789 133.065V139H274.411Z" fill="black"/>
<path d="M265.762 134.443C265.762 135.926 265.388 137.086 264.641 137.921C263.894 138.751 262.862 139.167 261.545 139.167C260.731 139.167 260.009 138.976 259.378 138.594C258.748 138.212 258.261 137.664 257.917 136.95C257.574 136.236 257.403 135.401 257.403 134.443C257.403 132.96 257.774 131.806 258.515 130.982C259.257 130.152 260.286 129.737 261.603 129.737C262.876 129.737 263.886 130.16 264.633 131.007C265.385 131.854 265.762 132.999 265.762 134.443ZM258.831 134.443C258.831 135.605 259.063 136.491 259.528 137.1C259.993 137.708 260.676 138.013 261.578 138.013C262.48 138.013 263.164 137.711 263.628 137.108C264.099 136.499 264.334 135.611 264.334 134.443C264.334 133.287 264.099 132.41 263.628 131.812C263.164 131.209 262.475 130.907 261.562 130.907C260.66 130.907 259.979 131.203 259.52 131.795C259.06 132.388 258.831 133.27 258.831 134.443ZM260.424 128.492C260.69 128.149 260.975 127.734 261.279 127.247C261.589 126.76 261.833 126.336 262.01 125.977H263.687V126.151C263.443 126.511 263.081 126.953 262.599 127.479C262.118 128.005 261.7 128.411 261.346 128.699H260.424V128.492Z" fill="black"/>
<path d="M254.987 139H253.609V129.903H254.987V139ZM253.493 127.438C253.493 127.122 253.571 126.892 253.726 126.749C253.881 126.599 254.074 126.524 254.307 126.524C254.528 126.524 254.719 126.599 254.879 126.749C255.04 126.898 255.12 127.128 255.12 127.438C255.12 127.747 255.04 127.98 254.879 128.135C254.719 128.284 254.528 128.359 254.307 128.359C254.074 128.359 253.881 128.284 253.726 128.135C253.571 127.98 253.493 127.747 253.493 127.438Z" fill="black"/>
<path d="M249.144 139.166C247.826 139.166 246.806 138.762 246.081 137.954C245.361 137.141 245.001 135.992 245.001 134.509C245.001 132.987 245.367 131.812 246.097 130.981C246.833 130.151 247.879 129.736 249.235 129.736C249.672 129.736 250.109 129.783 250.546 129.877C250.984 129.972 251.327 130.082 251.576 130.209L251.152 131.38C250.848 131.258 250.516 131.159 250.156 131.081C249.797 130.998 249.478 130.957 249.202 130.957C247.353 130.957 246.429 132.135 246.429 134.493C246.429 135.611 246.653 136.468 247.102 137.066C247.555 137.664 248.225 137.962 249.11 137.962C249.868 137.962 250.646 137.799 251.443 137.473V138.693C250.834 139.008 250.068 139.166 249.144 139.166Z" fill="black"/>
<path d="M241.64 139.001L241.366 137.706H241.299C240.846 138.276 240.392 138.663 239.938 138.868C239.49 139.067 238.928 139.167 238.253 139.167C237.351 139.167 236.643 138.935 236.128 138.47C235.619 138.005 235.364 137.344 235.364 136.486C235.364 134.649 236.833 133.686 239.772 133.597L241.316 133.547V132.983C241.316 132.269 241.161 131.743 240.851 131.406C240.547 131.063 240.057 130.891 239.382 130.891C238.624 130.891 237.766 131.124 236.809 131.588L236.385 130.534C236.833 130.291 237.323 130.1 237.854 129.961C238.391 129.823 238.928 129.754 239.465 129.754C240.549 129.754 241.352 129.995 241.872 130.476C242.398 130.958 242.661 131.729 242.661 132.792V139.001H241.64ZM238.527 138.03C239.385 138.03 240.057 137.795 240.544 137.324C241.036 136.854 241.283 136.195 241.283 135.349V134.527L239.905 134.585C238.809 134.624 238.018 134.795 237.531 135.1C237.049 135.398 236.809 135.866 236.809 136.502C236.809 137 236.958 137.38 237.257 137.64C237.561 137.9 237.985 138.03 238.527 138.03Z" fill="black"/>
<path d="M233.123 139H231.745V129.903H233.123V139ZM231.629 127.438C231.629 127.122 231.706 126.892 231.861 126.749C232.016 126.599 232.21 126.524 232.442 126.524C232.664 126.524 232.855 126.599 233.015 126.749C233.176 126.898 233.256 127.128 233.256 127.438C233.256 127.747 233.176 127.98 233.015 128.135C232.855 128.284 232.664 128.359 232.442 128.359C232.21 128.359 232.016 128.284 231.861 128.135C231.706 127.98 231.629 127.747 231.629 127.438Z" fill="black"/>
<path d="M227.279 139.166C225.962 139.166 224.941 138.762 224.216 137.954C223.497 137.141 223.137 135.992 223.137 134.509C223.137 132.987 223.502 131.812 224.233 130.981C224.969 130.151 226.015 129.736 227.371 129.736C227.808 129.736 228.245 129.783 228.682 129.877C229.119 129.972 229.462 130.082 229.711 130.209L229.288 131.38C228.984 131.258 228.652 131.159 228.292 131.081C227.932 130.998 227.614 130.957 227.337 130.957C225.489 130.957 224.565 132.135 224.565 134.493C224.565 135.611 224.789 136.468 225.237 137.066C225.691 137.664 226.361 137.962 227.246 137.962C228.004 137.962 228.782 137.799 229.579 137.473V138.693C228.97 139.008 228.203 139.166 227.279 139.166Z" fill="black"/>
<path d="M219.427 139V133.115C219.427 132.373 219.258 131.82 218.92 131.455C218.583 131.089 218.054 130.907 217.335 130.907C216.383 130.907 215.686 131.164 215.243 131.679C214.8 132.193 214.579 133.043 214.579 134.227V139H213.201V129.902H214.322L214.546 131.147H214.612C214.895 130.699 215.29 130.353 215.799 130.11C216.308 129.861 216.876 129.736 217.501 129.736C218.597 129.736 219.421 130.002 219.975 130.533C220.528 131.059 220.805 131.903 220.805 133.065V139H219.427Z" fill="black"/>
<path d="M209.333 139.001L209.059 137.706H208.993C208.539 138.276 208.085 138.663 207.631 138.868C207.183 139.067 206.621 139.167 205.946 139.167C205.044 139.167 204.336 138.935 203.821 138.47C203.312 138.005 203.058 137.344 203.058 136.486C203.058 134.649 204.527 133.686 207.465 133.597L209.009 133.547V132.983C209.009 132.269 208.854 131.743 208.544 131.406C208.24 131.063 207.75 130.891 207.075 130.891C206.317 130.891 205.459 131.124 204.502 131.588L204.079 130.534C204.527 130.291 205.017 130.1 205.548 129.961C206.085 129.823 206.621 129.754 207.158 129.754C208.243 129.754 209.045 129.995 209.565 130.476C210.091 130.958 210.354 131.729 210.354 132.792V139.001H209.333ZM206.22 138.03C207.078 138.03 207.75 137.795 208.237 137.324C208.73 136.854 208.976 136.195 208.976 135.349V134.527L207.598 134.585C206.502 134.624 205.711 134.795 205.224 135.1C204.743 135.398 204.502 135.866 204.502 136.502C204.502 137 204.651 137.38 204.95 137.64C205.255 137.9 205.678 138.03 206.22 138.03Z" fill="black"/>
<path d="M199.521 139V133.115C199.521 132.373 199.353 131.82 199.015 131.455C198.678 131.089 198.149 130.907 197.43 130.907C196.478 130.907 195.781 131.164 195.338 131.679C194.895 132.193 194.674 133.043 194.674 134.227V139H193.296V129.902H194.417L194.641 131.147H194.707C194.989 130.699 195.385 130.353 195.894 130.11C196.403 129.861 196.97 129.736 197.596 129.736C198.691 129.736 199.516 130.002 200.069 130.533C200.623 131.059 200.899 131.903 200.899 133.065V139H199.521Z" fill="black"/>
<path d="M187.336 130.974H185.02V139H183.642V130.974H182.015V130.351L183.642 129.853V129.347C183.642 127.111 184.619 125.993 186.572 125.993C187.054 125.993 187.618 126.09 188.266 126.284L187.909 127.388C187.377 127.216 186.924 127.13 186.547 127.13C186.027 127.13 185.643 127.305 185.394 127.653C185.145 127.996 185.02 128.55 185.02 129.313V129.903H187.336V130.974ZM190.374 139H188.996V129.903H190.374V139ZM188.88 127.438C188.88 127.122 188.957 126.892 189.112 126.749C189.267 126.599 189.461 126.524 189.693 126.524C189.915 126.524 190.106 126.599 190.266 126.749C190.427 126.898 190.507 127.128 190.507 127.438C190.507 127.747 190.427 127.98 190.266 128.135C190.106 128.284 189.915 128.359 189.693 128.359C189.461 128.359 189.267 128.284 189.112 128.135C188.957 127.98 188.88 127.747 188.88 127.438Z" fill="black"/>
<path d="M173.117 139.166C171.772 139.166 170.709 138.757 169.929 137.938C169.154 137.118 168.767 135.981 168.767 134.526C168.767 133.059 169.127 131.895 169.846 131.031C170.571 130.168 171.542 129.736 172.76 129.736C173.9 129.736 174.802 130.113 175.466 130.865C176.13 131.612 176.462 132.6 176.462 133.829V134.7H170.195C170.222 135.768 170.491 136.579 171 137.132C171.515 137.686 172.237 137.962 173.167 137.962C174.146 137.962 175.114 137.758 176.072 137.348V138.577C175.585 138.787 175.123 138.936 174.686 139.025C174.254 139.119 173.731 139.166 173.117 139.166ZM172.743 130.89C172.013 130.89 171.429 131.128 170.992 131.604C170.56 132.08 170.306 132.738 170.228 133.58H174.984C174.984 132.711 174.791 132.047 174.403 131.587C174.016 131.123 173.463 130.89 172.743 130.89Z" fill="black"/>
<path d="M165.04 137.78H164.965C164.329 138.704 163.377 139.166 162.11 139.166C160.92 139.166 159.993 138.759 159.329 137.946C158.671 137.132 158.341 135.976 158.341 134.476C158.341 132.976 158.673 131.812 159.337 130.981C160.001 130.151 160.926 129.736 162.11 129.736C163.344 129.736 164.29 130.185 164.949 131.081H165.057L164.999 130.425L164.965 129.786V126.084H166.343V139H165.223L165.04 137.78ZM162.284 138.012C163.225 138.012 163.906 137.758 164.326 137.249C164.752 136.734 164.965 135.907 164.965 134.767V134.476C164.965 133.187 164.75 132.268 164.318 131.72C163.892 131.167 163.208 130.89 162.268 130.89C161.46 130.89 160.84 131.206 160.408 131.836C159.982 132.462 159.769 133.347 159.769 134.493C159.769 135.655 159.982 136.532 160.408 137.124C160.834 137.716 161.46 138.012 162.284 138.012Z" fill="black"/>
<path d="M149.891 126.69C150.395 126.69 150.896 126.749 151.394 126.865C151.897 126.975 152.362 127.128 152.788 127.321L151.8 129.803C151.479 129.665 151.167 129.56 150.862 129.488C150.558 129.416 150.234 129.38 149.891 129.38C149.581 129.38 149.307 129.419 149.069 129.496C148.837 129.574 148.638 129.684 148.472 129.828C148.306 129.972 148.173 130.144 148.073 130.343C147.974 130.542 147.907 130.763 147.874 131.007H150.68V132.708H147.75C147.744 132.742 147.738 132.792 147.733 132.858C147.733 132.919 147.733 132.988 147.733 133.065C147.733 133.137 147.733 133.204 147.733 133.265C147.738 133.326 147.744 133.378 147.75 133.422H150.132V135.124H147.94C148.001 135.428 148.123 135.683 148.306 135.888C148.494 136.087 148.737 136.236 149.036 136.336C149.34 136.436 149.695 136.485 150.099 136.485C150.525 136.485 150.92 136.444 151.286 136.361C151.651 136.278 151.991 136.167 152.307 136.029V138.71C152.013 138.87 151.662 138.987 151.252 139.059C150.848 139.131 150.395 139.167 149.891 139.167C148.995 139.167 148.195 139.02 147.492 138.727C146.789 138.428 146.206 137.979 145.741 137.382C145.276 136.784 144.949 136.032 144.761 135.124H143.466V133.422H144.537C144.532 133.378 144.526 133.323 144.521 133.256C144.521 133.184 144.521 133.121 144.521 133.065C144.521 132.999 144.523 132.924 144.529 132.841C144.534 132.758 144.537 132.714 144.537 132.708H143.466V131.007H144.695C144.872 130.11 145.182 129.341 145.625 128.699C146.073 128.052 146.651 127.556 147.359 127.213C148.073 126.865 148.917 126.69 149.891 126.69Z" fill="#F4C00F"/>
<path d="M133.173 139.001L130.691 130.26H130.617C130.639 130.487 130.661 130.794 130.683 131.182C130.711 131.569 130.736 131.987 130.758 132.435C130.78 132.883 130.791 133.315 130.791 133.73V139.001H127.886V126.865H132.252L134.784 135.481H134.85L137.332 126.865H141.707V139.001H138.693V133.68C138.693 133.298 138.699 132.889 138.71 132.452C138.727 132.009 138.743 131.594 138.76 131.207C138.782 130.814 138.801 130.504 138.818 130.277H138.743L136.294 139.001H133.173Z" fill="#F4C00F"/>
<path d="M116.738 139.001L114.256 130.26H114.181C114.203 130.487 114.225 130.794 114.248 131.182C114.275 131.569 114.3 131.987 114.322 132.435C114.344 132.883 114.355 133.315 114.355 133.73V139.001H111.45V126.865H115.816L118.348 135.481H118.415L120.896 126.865H125.271V139.001H122.258V133.68C122.258 133.298 122.263 132.889 122.274 132.452C122.291 132.009 122.308 131.594 122.324 131.207C122.346 130.814 122.366 130.504 122.382 130.277H122.308L119.859 139.001H116.738Z" fill="#F4C00F"/>
<path d="M109.541 132.949C109.541 133.923 109.464 134.795 109.309 135.564C109.154 136.328 108.905 136.978 108.562 137.515C108.224 138.051 107.776 138.461 107.217 138.743C106.658 139.025 105.972 139.167 105.158 139.167C104.146 139.167 103.315 138.92 102.668 138.428C102.021 137.93 101.542 137.219 101.232 136.294C100.928 135.365 100.775 134.25 100.775 132.949C100.775 131.638 100.914 130.517 101.19 129.587C101.473 128.652 101.935 127.936 102.577 127.438C103.219 126.939 104.079 126.69 105.158 126.69C106.171 126.69 106.998 126.939 107.64 127.438C108.288 127.93 108.766 128.644 109.076 129.579C109.386 130.509 109.541 131.632 109.541 132.949ZM104.038 132.949C104.038 133.741 104.065 134.405 104.121 134.941C104.181 135.478 104.292 135.882 104.453 136.153C104.619 136.419 104.854 136.552 105.158 136.552C105.463 136.552 105.695 136.419 105.855 136.153C106.016 135.882 106.127 135.481 106.188 134.95C106.248 134.413 106.279 133.746 106.279 132.949C106.279 132.147 106.248 131.477 106.188 130.94C106.127 130.404 106.016 130 105.855 129.729C105.695 129.452 105.463 129.313 105.158 129.313C104.854 129.313 104.619 129.452 104.453 129.729C104.292 130 104.181 130.404 104.121 130.94C104.065 131.477 104.038 132.147 104.038 132.949Z" fill="#F4C00F"/>
<path d="M99.5801 132.949C99.5801 133.923 99.5026 134.795 99.3477 135.564C99.1927 136.328 98.9437 136.978 98.6006 137.515C98.263 138.051 97.8148 138.461 97.2559 138.743C96.6969 139.025 96.0107 139.167 95.1973 139.167C94.1846 139.167 93.3545 138.92 92.707 138.428C92.0596 137.93 91.5809 137.219 91.271 136.294C90.9666 135.365 90.8145 134.25 90.8145 132.949C90.8145 131.638 90.9528 130.517 91.2295 129.587C91.5117 128.652 91.9738 127.936 92.6157 127.438C93.2576 126.939 94.1182 126.69 95.1973 126.69C96.21 126.69 97.0373 126.939 97.6792 127.438C98.3267 127.93 98.8053 128.644 99.1152 129.579C99.4251 130.509 99.5801 131.632 99.5801 132.949ZM94.0767 132.949C94.0767 133.741 94.1043 134.405 94.1597 134.941C94.2205 135.478 94.3312 135.882 94.4917 136.153C94.6577 136.419 94.8929 136.552 95.1973 136.552C95.5016 136.552 95.734 136.419 95.8945 136.153C96.055 135.882 96.1657 135.481 96.2266 134.95C96.2874 134.413 96.3179 133.746 96.3179 132.949C96.3179 132.147 96.2874 131.477 96.2266 130.94C96.1657 130.404 96.055 130 95.8945 129.729C95.734 129.452 95.5016 129.313 95.1973 129.313C94.8929 129.313 94.6577 129.452 94.4917 129.729C94.3312 130 94.2205 130.404 94.1597 130.94C94.1043 131.477 94.0767 132.147 94.0767 132.949Z" fill="#F4C00F"/>
<path d="M85.7676 131.049C86.4427 131.049 87.057 131.201 87.6104 131.505C88.1637 131.81 88.6064 132.252 88.9385 132.833C89.2705 133.415 89.4365 134.123 89.4365 134.958C89.4365 135.861 89.2539 136.627 88.8887 137.258C88.529 137.883 87.9839 138.359 87.2534 138.686C86.5285 139.007 85.6126 139.167 84.5059 139.167C83.8031 139.167 83.1611 139.112 82.5801 139.001C82.0046 138.896 81.4899 138.733 81.0361 138.511V135.822C81.4622 136.015 81.9741 136.193 82.5718 136.353C83.175 136.508 83.7284 136.585 84.2319 136.585C84.6359 136.585 84.979 136.527 85.2612 136.411C85.5435 136.295 85.7565 136.123 85.9004 135.896C86.0498 135.67 86.1245 135.39 86.1245 135.058C86.1245 134.599 85.9585 134.239 85.6265 133.979C85.2944 133.713 84.7909 133.581 84.1157 133.581C83.8114 133.581 83.5125 133.611 83.2192 133.672C82.9259 133.733 82.6686 133.799 82.4473 133.871L81.2437 133.273L81.7002 126.865H88.623V129.596H84.4893L84.3398 131.198C84.5169 131.165 84.6968 131.132 84.8794 131.099C85.0675 131.065 85.3636 131.049 85.7676 131.049Z" fill="#F4C00F"/>
<path d="M76.0557 137.623C76.0557 137.036 76.2272 136.624 76.5703 136.386C76.9189 136.148 77.3368 136.029 77.8237 136.029C78.283 136.029 78.6815 136.148 79.019 136.386C79.3566 136.624 79.5254 137.036 79.5254 137.623C79.5254 138.182 79.3566 138.586 79.019 138.835C78.6815 139.084 78.283 139.208 77.8237 139.208C77.3368 139.208 76.9189 139.084 76.5703 138.835C76.2272 138.586 76.0557 138.182 76.0557 137.623Z" fill="#F4C00F"/>
<path d="M70.3945 126.69C71.1969 126.69 71.8997 126.798 72.5029 127.014C73.1117 127.23 73.5876 127.559 73.9307 128.002C74.2738 128.439 74.4453 128.99 74.4453 129.654C74.4453 130.141 74.354 130.57 74.1714 130.94C73.9943 131.306 73.748 131.627 73.4326 131.903C73.1227 132.174 72.763 132.41 72.3535 132.609C72.7354 132.825 73.1144 133.076 73.4907 133.364C73.867 133.652 74.1797 133.992 74.4287 134.385C74.6777 134.773 74.8022 135.235 74.8022 135.771C74.8022 136.419 74.6445 137 74.3291 137.515C74.0137 138.024 73.5295 138.428 72.8765 138.727C72.2235 139.02 71.3851 139.167 70.3613 139.167C69.3376 139.167 68.4992 139.025 67.8462 138.743C67.1932 138.461 66.7118 138.068 66.4019 137.564C66.0975 137.055 65.9453 136.469 65.9453 135.805C65.9453 135.24 66.0394 134.764 66.2275 134.377C66.4212 133.99 66.6841 133.66 67.0161 133.389C67.3481 133.118 67.7272 132.875 68.1533 132.659C67.8158 132.432 67.5059 132.174 67.2236 131.887C66.9414 131.599 66.7173 131.27 66.5513 130.899C66.3853 130.528 66.3022 130.108 66.3022 129.637C66.3022 128.984 66.4766 128.439 66.8252 128.002C67.1738 127.565 67.6553 127.238 68.2695 127.022C68.8893 126.801 69.5977 126.69 70.3945 126.69ZM68.9502 135.672C68.9502 136.009 69.0719 136.283 69.3154 136.494C69.5589 136.704 69.8965 136.809 70.3281 136.809C70.8317 136.809 71.1997 136.715 71.4321 136.527C71.6701 136.333 71.7891 136.07 71.7891 135.738C71.7891 135.489 71.7144 135.265 71.5649 135.066C71.4211 134.861 71.2523 134.684 71.0586 134.535C70.8649 134.385 70.6961 134.269 70.5522 134.186L70.3281 134.053C70.0791 134.181 69.8494 134.324 69.6392 134.485C69.4344 134.64 69.2684 134.817 69.1411 135.016C69.0138 135.21 68.9502 135.428 68.9502 135.672ZM70.3779 129.056C70.1068 129.056 69.8716 129.136 69.6724 129.297C69.4731 129.452 69.3735 129.665 69.3735 129.936C69.3735 130.113 69.415 130.279 69.498 130.434C69.5866 130.583 69.7028 130.722 69.8467 130.849C69.9961 130.976 70.1621 131.093 70.3447 131.198C70.5052 131.104 70.6629 131.001 70.8179 130.891C70.9728 130.78 71.1029 130.647 71.208 130.492C71.3132 130.337 71.3657 130.152 71.3657 129.936C71.3657 129.665 71.2661 129.452 71.0669 129.297C70.8732 129.136 70.6436 129.056 70.3779 129.056Z" fill="#F4C00F"/>
<path d="M64.7334 139H55.9263V136.842L58.8896 133.846C59.5039 133.204 59.9798 132.689 60.3174 132.302C60.6605 131.914 60.9012 131.585 61.0396 131.314C61.1779 131.043 61.2471 130.761 61.2471 130.467C61.2471 130.108 61.1309 129.847 60.8984 129.687C60.666 129.527 60.3921 129.446 60.0767 129.446C59.6948 129.446 59.3075 129.557 58.9146 129.778C58.5272 129.994 58.0872 130.315 57.5947 130.741L55.7935 128.633C56.1587 128.306 56.5461 127.996 56.9556 127.703C57.3651 127.404 57.8493 127.161 58.4082 126.973C58.9671 126.785 59.6478 126.69 60.4502 126.69C61.2747 126.69 61.9886 126.834 62.5918 127.122C63.2005 127.41 63.6709 127.806 64.0029 128.309C64.335 128.807 64.501 129.374 64.501 130.011C64.501 130.714 64.3709 131.342 64.1108 131.895C63.8563 132.443 63.4717 132.993 62.957 133.547C62.4424 134.095 61.8005 134.717 61.0312 135.415L60.1431 136.211V136.294H64.7334V139Z" fill="#F4C00F"/>
</svg>
