<svg width="584" height="81" viewBox="0 0 584 81" fill="none" xmlns="http://www.w3.org/2000/svg">
<path fill-rule="evenodd" clip-rule="evenodd" d="M551.675 65C551.675 73.32 558.155 79.48 566.995 79.48C575.795 79.48 582.315 73.36 582.315 65C582.315 56.64 575.795 50.52 566.995 50.52C558.155 50.52 551.675 56.68 551.675 65ZM575.755 65C575.755 70.32 571.995 73.96 566.995 73.96C561.995 73.96 558.235 70.32 558.235 65C558.235 59.68 561.995 56.04 566.995 56.04C571.995 56.04 575.755 59.68 575.755 65ZM566.995 80.48C557.655 80.48 550.675 73.9231 550.675 65C550.675 56.0769 557.655 49.52 566.995 49.52C576.291 49.52 583.315 56.0335 583.315 65C583.315 73.9666 576.291 80.48 566.995 80.48ZM566.995 72.96C571.437 72.96 574.755 69.7737 574.755 65C574.755 60.2263 571.437 57.04 566.995 57.04C562.553 57.04 559.235 60.2263 559.235 65C559.235 69.7737 562.553 72.96 566.995 72.96Z" fill="#007EAE"/>
<path fill-rule="evenodd" clip-rule="evenodd" d="M531.908 51H519.188V79H531.908C541.068 79 547.348 73.48 547.348 65C547.348 56.52 541.068 51 531.908 51ZM531.588 73.68H525.668V56.32H531.588C537.148 56.32 540.788 59.64 540.788 65C540.788 70.36 537.148 73.68 531.588 73.68ZM526.668 57.32H531.588C534.171 57.32 536.208 58.0888 537.59 59.3806C538.965 60.6652 539.788 62.5559 539.788 65C539.788 67.4441 538.965 69.3348 537.59 70.6194C536.208 71.9112 534.171 72.68 531.588 72.68H526.668V57.32ZM518.188 80V50H531.908C536.686 50 540.8 51.4414 543.731 54.0762C546.673 56.7202 548.348 60.4984 548.348 65C548.348 69.5016 546.673 73.2798 543.731 75.9238C540.8 78.5586 536.686 80 531.908 80H518.188Z" fill="#007EAE"/>
<path fill-rule="evenodd" clip-rule="evenodd" d="M504.963 51V68L491.043 51H485.683V79H492.083V62L506.043 79H511.363V51H504.963ZM493.083 64.7934L505.571 80H512.363V50H503.963V65.2002L491.517 50H484.683V80H493.083V64.7934Z" fill="#007EAE"/>
<path fill-rule="evenodd" clip-rule="evenodd" d="M452.72 66.68C452.72 74.92 457.44 79.48 465.4 79.48C473.36 79.48 478.08 74.92 478.08 66.68V51H471.68V66.44C471.68 71.76 469.4 73.96 465.44 73.96C461.52 73.96 459.2 71.76 459.2 66.44V51H452.72V66.68ZM451.72 50H460.2V66.44C460.2 68.9772 460.756 70.5754 461.6 71.5341C462.423 72.4679 463.666 72.96 465.44 72.96C467.236 72.96 468.477 72.4666 469.293 71.5358C470.132 70.5786 470.68 68.9812 470.68 66.44V50H479.08V66.68C479.08 70.989 477.842 74.4724 475.431 76.8779C473.021 79.2828 469.568 80.48 465.4 80.48C461.232 80.48 457.779 79.2828 455.369 76.8779C452.957 74.4724 451.72 70.989 451.72 66.68V50Z" fill="#007EAE"/>
<path fill-rule="evenodd" clip-rule="evenodd" d="M445.117 79L445.037 51H439.717L429.397 68.4L418.917 51H413.557V79H419.637V62.56L427.837 76.04H430.757L438.997 62.2L439.037 79H445.117ZM438.005 65.8199L438.039 80H446.12L446.034 50H439.147L429.39 66.4508L419.482 50H412.557V80H420.637V66.1281L427.275 77.04H431.325L438.005 65.8199Z" fill="#007EAE"/>
<path fill-rule="evenodd" clip-rule="evenodd" d="M375.688 51V79H396.208V73.72H382.168V51H375.688ZM383.168 72.72V50H374.688V80H397.208V72.72H383.168Z" fill="#007EAE"/>
<path fill-rule="evenodd" clip-rule="evenodd" d="M354.092 73.8V67.32H367.092V62.28H354.092V56.2H368.812V51H347.652V79H369.332V73.8H354.092ZM355.092 57.2H369.812V50H346.652V80H370.332V72.8H355.092V68.32H368.092V61.28H355.092V57.2Z" fill="#007EAE"/>
<path fill-rule="evenodd" clip-rule="evenodd" d="M326.125 51H313.405V79H326.125C335.285 79 341.565 73.48 341.565 65C341.565 56.52 335.285 51 326.125 51ZM325.805 73.68H319.885V56.32H325.805C331.365 56.32 335.005 59.64 335.005 65C335.005 70.36 331.365 73.68 325.805 73.68ZM320.885 57.32H325.805C328.388 57.32 330.425 58.0888 331.807 59.3806C333.182 60.6652 334.005 62.5559 334.005 65C334.005 67.4441 333.182 69.3348 331.807 70.6194C330.425 71.9112 328.388 72.68 325.805 72.68H320.885V57.32ZM312.405 80V50H326.125C330.903 50 335.017 51.4414 337.949 54.0762C340.891 56.7202 342.565 60.4984 342.565 65C342.565 69.5016 340.891 73.2798 337.949 75.9238C335.017 78.5586 330.903 80 326.125 80H312.405Z" fill="#007EAE"/>
<path fill-rule="evenodd" clip-rule="evenodd" d="M287.492 73L289.972 79H296.772L284.252 51H277.852L265.372 79H272.012L274.492 73H287.492ZM286.823 74L289.303 80H298.315L284.9 50H277.203L263.831 80H272.681L275.161 74H286.823ZM276.572 68.08L281.012 57.36L285.452 68.08H276.572ZM278.069 67.08H283.955L281.012 59.9733L278.069 67.08Z" fill="#007EAE"/>
<path fill-rule="evenodd" clip-rule="evenodd" d="M250.332 79H256.812V56.28H265.772V51H241.372V56.28H250.332V79ZM249.332 57.28V80H257.812V57.28H266.772V50H240.372V57.28H249.332Z" fill="#007EAE"/>
<path fill-rule="evenodd" clip-rule="evenodd" d="M208.212 65C208.212 73.32 214.692 79.48 223.532 79.48C232.332 79.48 238.852 73.36 238.852 65C238.852 56.64 232.332 50.52 223.532 50.52C214.692 50.52 208.212 56.68 208.212 65ZM232.292 65C232.292 70.32 228.532 73.96 223.532 73.96C218.532 73.96 214.772 70.32 214.772 65C214.772 59.68 218.532 56.04 223.532 56.04C228.532 56.04 232.292 59.68 232.292 65ZM223.532 80.48C214.192 80.48 207.212 73.9231 207.212 65C207.212 56.0769 214.192 49.52 223.532 49.52C232.829 49.52 239.852 56.0335 239.852 65C239.852 73.9666 232.829 80.48 223.532 80.48ZM223.532 72.96C227.974 72.96 231.292 69.7737 231.292 65C231.292 60.2263 227.974 57.04 223.532 57.04C219.091 57.04 215.772 60.2263 215.772 65C215.772 69.7737 219.091 72.96 223.532 72.96Z" fill="#007EAE"/>
<path fill-rule="evenodd" clip-rule="evenodd" d="M202.129 79L202.049 51H196.729L186.409 68.4L175.929 51H170.569V79H176.649V62.56L184.849 76.04H187.769L196.009 62.2L196.049 79H202.129ZM195.018 65.8199L195.052 80H203.132L203.046 50H196.16L186.403 66.4508L176.494 50H169.569V80H177.649V66.1281L184.287 77.04H188.338L195.018 65.8199Z" fill="#007EAE"/>
<path fill-rule="evenodd" clip-rule="evenodd" d="M148.973 73.8V67.32H161.973V62.28H148.973V56.2H163.693V51H142.533V79H164.213V73.8H148.973ZM149.973 57.2H164.693V50H141.533V80H165.213V72.8H149.973V68.32H162.973V61.28H149.973V57.2Z" fill="#007EAE"/>
<path fill-rule="evenodd" clip-rule="evenodd" d="M136.719 79L130.439 70C130.755 69.8647 131.059 69.718 131.352 69.5601C134.431 67.8973 136.199 64.9957 136.199 61.16C136.199 54.88 131.519 51 124.039 51H111.919V79H118.399V71.2H124.359L129.759 79H136.719ZM123.835 72.2L129.235 80H138.636L131.927 70.385C135.265 68.5397 137.199 65.3257 137.199 61.16C137.199 57.7514 135.918 54.9192 133.565 52.9569C131.232 51.0122 127.942 50 124.039 50H110.919V80H119.399V72.2H123.835ZM123.679 56.28C127.639 56.28 129.639 58.08 129.639 61.16C129.639 64.2 127.639 66.04 123.679 66.04H118.399V56.28H123.679ZM119.399 57.28V65.04H123.679C125.521 65.04 126.747 64.6107 127.499 63.9759C128.225 63.363 128.639 62.4483 128.639 61.16C128.639 59.8486 128.223 58.9368 127.501 58.331C126.751 57.7015 125.525 57.28 123.679 57.28H119.399Z" fill="#007EAE"/>
<path fill-rule="evenodd" clip-rule="evenodd" d="M70.4833 76.24C72.9633 78.16 77.4433 79.48 81.8833 79.48C89.8833 79.48 93.7633 75.48 93.7633 70.8C93.7633 64.783 88.1859 63.5074 83.5601 62.4495C80.2829 61.7 77.4833 61.0598 77.4833 58.92C77.4833 57.16 78.9633 55.72 82.8033 55.72C85.0022 55.72 87.3583 56.2861 89.6765 57.446C89.9729 57.5943 90.2686 57.7523 90.5633 57.92L92.5633 53C89.9633 51.36 86.3633 50.52 82.8433 50.52C74.8833 50.52 71.0433 54.48 71.0433 59.24C71.0433 65.3225 76.612 66.6162 81.2356 67.6904C84.5175 68.4528 87.3233 69.1047 87.3233 71.28C87.3233 73 85.7633 74.28 81.9233 74.28C78.9433 74.28 75.8374 73.3361 73.5266 71.9226C73.2319 71.7424 72.9502 71.5545 72.6833 71.36L70.4833 76.24ZM69.2476 76.548L72.2775 69.8269L73.2723 70.5519C75.4583 72.1451 78.7714 73.28 81.9233 73.28C83.7584 73.28 84.8947 72.9697 85.5395 72.5732C86.1245 72.2135 86.3233 71.7801 86.3233 71.28C86.3233 70.9259 86.2017 70.6634 85.9346 70.4094C85.6343 70.1238 85.1468 69.8514 84.4341 69.5891C83.7307 69.3301 82.8899 69.1094 81.94 68.8826C81.6457 68.8124 81.3394 68.7412 81.0254 68.6682C80.348 68.5108 79.6353 68.3452 78.9324 68.163C76.8778 67.6304 74.6673 66.901 72.9668 65.5563C71.207 64.1647 70.0433 62.1537 70.0433 59.24C70.0433 56.5721 71.129 54.1015 73.3285 52.3182C75.5109 50.5489 78.7066 49.52 82.8433 49.52C86.4974 49.52 90.2964 50.3878 93.0968 52.1542L93.805 52.6009L91.0601 59.3535L90.0686 58.7891C87.6022 57.3851 85.0911 56.72 82.8033 56.72C80.9852 56.72 79.8844 57.0647 79.267 57.486C78.6984 57.874 78.4833 58.3602 78.4833 58.92C78.4833 59.2587 78.6003 59.5114 78.8661 59.7602C79.1658 60.0406 79.6536 60.3088 80.3674 60.5672C81.3179 60.9113 82.4397 61.1673 83.6958 61.454C84.3827 61.6107 85.1097 61.7767 85.8709 61.9711C87.925 62.496 90.1348 63.2159 91.8352 64.5445C93.5957 65.92 94.7633 67.9118 94.7633 70.8C94.7633 73.4358 93.6616 75.8949 91.4502 77.6741C89.2548 79.4405 86.0415 80.48 81.8833 80.48C77.2969 80.48 72.5778 79.1262 69.8711 77.0307L69.2476 76.548Z" fill="#007EAE"/>
<path fill-rule="evenodd" clip-rule="evenodd" d="M61.3383 42.96H54.6183L49.2183 48.72H54.0983L61.3383 42.96ZM59.2983 73L61.7783 79H68.5783L56.0583 51H49.6583L37.1783 79H43.8183L46.2983 73H59.2983ZM58.6296 74L61.1096 80H70.1209L56.7066 50H49.0092L35.6378 80H44.487L46.967 74H58.6296ZM48.3783 68.08L52.8183 57.36L57.2583 68.08H48.3783ZM49.8749 67.08H55.7618L52.8183 59.9733L49.8749 67.08ZM64.2015 41.96L54.4476 49.72H46.9101L54.1851 41.96H64.2015Z" fill="#007EAE"/>
<path fill-rule="evenodd" clip-rule="evenodd" d="M33.0151 79L32.9351 51H27.6151L17.2951 68.4L6.81514 51H1.45514V79H7.53514V62.56L15.7351 76.04H18.6551L26.8951 62.2L26.9351 79H33.0151ZM25.9038 65.8199L25.9375 80H34.018L33.9323 50H27.0456L17.2885 66.4508L7.38021 50H0.455139V80H8.53514V66.1281L15.173 77.04H19.2236L25.9038 65.8199Z" fill="#007EAE"/>
<path fill-rule="evenodd" clip-rule="evenodd" d="M398.297 31L395.817 25H384.154L381.674 31H372.825L386.197 1H393.894L407.308 31H398.297ZM383.486 24H396.486L398.966 30H405.766L393.246 2H386.846L374.366 30H381.006L383.486 24ZM394.446 19.08L390.006 8.36L385.566 19.08H394.446ZM387.062 18.08H392.949L390.006 10.9733L387.062 18.08Z" fill="#007EAE"/>
<path fill-rule="evenodd" clip-rule="evenodd" d="M351.471 31V1H359.951V23.72H373.991V31H351.471ZM358.951 24.72V2H352.471V30H372.991V24.72H358.951Z" fill="#007EAE"/>
<path fill-rule="evenodd" clip-rule="evenodd" d="M322.327 27.548L325.357 20.8269L326.352 21.5519C328.538 23.1451 331.851 24.28 335.003 24.28C336.838 24.28 337.974 23.9697 338.619 23.5732C339.204 23.2135 339.403 22.7801 339.403 22.28C339.403 21.9259 339.281 21.6634 339.014 21.4094C338.714 21.1238 338.226 20.8514 337.514 20.5891C336.81 20.3301 335.97 20.1094 335.02 19.8826C334.725 19.8124 334.419 19.7412 334.105 19.6682C333.428 19.5108 332.715 19.3452 332.012 19.163C329.957 18.6304 327.747 17.901 326.046 16.5563C324.287 15.1647 323.123 13.1537 323.123 10.24C323.123 7.57213 324.209 5.10152 326.408 3.31824C328.591 1.54894 331.786 0.52002 335.923 0.52002C339.577 0.52002 343.376 1.38778 346.176 3.15422L346.885 3.60093L344.14 10.3535L343.148 9.78908C340.682 8.38511 338.171 7.72002 335.883 7.72002C334.065 7.72002 332.964 8.06472 332.347 8.48604C331.778 8.874 331.563 9.36024 331.563 9.92002C331.563 10.2587 331.68 10.5115 331.946 10.7602C332.245 11.0406 332.733 11.3088 333.447 11.5672C334.398 11.9113 335.519 12.1673 336.776 12.454C337.462 12.6107 338.189 12.7767 338.951 12.9712C341.005 13.496 343.214 14.2159 344.915 15.5445C346.675 16.92 347.843 18.9118 347.843 21.8C347.843 24.4358 346.741 26.8949 344.53 28.6741C342.334 30.4405 339.121 31.48 334.963 31.48C330.377 31.48 325.657 30.1262 322.951 28.0307L322.327 27.548ZM342.756 8.44599C340.438 7.28605 338.082 6.72002 335.883 6.72002C332.043 6.72002 330.563 8.16002 330.563 9.92002C330.563 12.0598 333.363 12.7 336.64 13.4495C341.266 14.5074 346.843 15.783 346.843 21.8C346.843 26.48 342.963 30.48 334.963 30.48C330.523 30.48 326.043 29.16 323.563 27.24L325.763 22.36C326.03 22.5545 326.312 22.7424 326.606 22.9226C328.917 24.3361 332.023 25.28 335.003 25.28C338.843 25.28 340.403 24 340.403 22.28C340.403 20.1047 337.597 19.4528 334.315 18.6904C329.692 17.6162 324.123 16.3225 324.123 10.24C324.123 5.48002 327.963 1.52002 335.923 1.52002C339.443 1.52002 343.043 2.36002 345.643 4.00002L343.643 8.92002C343.348 8.75227 343.053 8.59428 342.756 8.44599Z" fill="#007EAE"/>
<path fill-rule="evenodd" clip-rule="evenodd" d="M310.438 31V1H318.918V31H310.438ZM311.438 30H317.918V2H311.438V30Z" fill="#007EAE"/>
<path fill-rule="evenodd" clip-rule="evenodd" d="M287.336 31L284.856 25H273.194L270.714 31H261.864L275.236 1H282.933L296.347 31H287.336ZM272.525 24H285.525L288.005 30H294.805L282.285 2H275.885L263.405 30H270.045L272.525 24ZM283.485 19.08L279.045 8.36L274.605 19.08H283.485ZM276.101 18.08H281.988L279.045 10.9733L276.101 18.08Z" fill="#007EAE"/>
<path fill-rule="evenodd" clip-rule="evenodd" d="M240.51 31V1H248.99V23.72H263.03V31H240.51ZM247.99 24.72V2H241.51V30H262.03V24.72H247.99Z" fill="#007EAE"/>
<path fill-rule="evenodd" clip-rule="evenodd" d="M213.757 1H222.157V31H215.364L202.877 15.7935V31H194.477V1H201.311L213.757 16.2003V1ZM214.757 19L200.837 2H195.477V30H201.877V13L215.837 30H221.157V2H214.757V19Z" fill="#007EAE"/>
<path fill-rule="evenodd" clip-rule="evenodd" d="M190.121 23.8V31H166.441V1H189.601V8.2H174.881V12.28H187.881V19.32H174.881V23.8H190.121ZM173.881 24.8V18.32H186.881V13.28H173.881V7.2H188.601V2H167.441V30H189.121V24.8H173.881Z" fill="#007EAE"/>
</svg>
