<svg width="627" height="143" viewBox="0 0 627 143" fill="none" xmlns="http://www.w3.org/2000/svg">
<path d="M390.901 29.5601C393.141 29.5601 394.741 31.1201 394.741 33.4001C394.741 34.4401 394.581 35.2001 393.661 37.4001L391.381 43.1601H387.421L389.181 36.8001C387.861 36.2801 387.021 35.0401 387.021 33.4001C387.021 31.0801 388.701 29.5601 390.901 29.5601Z" fill="white"/>
<path d="M375.416 6.71996L380.816 0.959961H387.536L380.296 6.71996H375.416ZM375.816 37V8.99996H382.296V37H375.816Z" fill="white"/>
<path d="M356.733 37.48C348.773 37.48 344.053 32.92 344.053 24.68V9H350.533V24.44C350.533 29.76 352.853 31.96 356.773 31.96C360.733 31.96 363.013 29.76 363.013 24.44V9H369.413V24.68C369.413 32.92 364.693 37.48 356.733 37.48Z" fill="white"/>
<path d="M337.943 36.56L340.823 40C338.983 42.24 336.343 43.44 333.263 43.44C329.103 43.44 326.183 41.92 321.863 37.36C314.183 36.4 308.783 30.6 308.783 23C308.783 14.68 315.263 8.52002 324.103 8.52002C332.903 8.52002 339.423 14.64 339.423 23C339.423 29.56 335.383 34.76 329.423 36.68C330.783 38.12 331.983 38.64 333.383 38.64C335.103 38.64 336.623 37.96 337.943 36.56ZM315.343 23C315.343 28.32 319.103 31.96 324.103 31.96C329.103 31.96 332.863 28.32 332.863 23C332.863 17.68 329.103 14.04 324.103 14.04C319.103 14.04 315.343 17.68 315.343 23Z" fill="white"/>
<path d="M301.228 37L298.748 31H285.748L283.268 37H276.628L289.108 9H295.508L308.028 37H301.228ZM287.828 26.08H296.708L292.268 15.36L287.828 26.08Z" fill="white"/>
<path d="M248.79 37.48C239.95 37.48 233.47 31.32 233.47 23C233.47 14.68 239.95 8.52002 248.79 8.52002C257.59 8.52002 264.11 14.64 264.11 23C264.11 31.36 257.59 37.48 248.79 37.48ZM248.79 31.96C253.79 31.96 257.55 28.32 257.55 23C257.55 17.68 253.79 14.04 248.79 14.04C243.79 14.04 240.03 17.68 240.03 23C240.03 28.32 243.79 31.96 248.79 31.96Z" fill="white"/>
<path d="M619.941 142L617.461 136H604.461L601.981 142H595.341L607.821 114H614.221L626.741 142H619.941ZM606.541 131.08H615.421L610.981 120.36L606.541 131.08Z" fill="white"/>
<path d="M582.432 142.48C573.752 142.48 567.272 136.44 567.272 128C567.272 119.56 573.752 113.52 582.472 113.52C587.312 113.52 591.352 115.28 593.992 118.48L589.832 122.32C587.952 120.16 585.592 119.04 582.792 119.04C577.552 119.04 573.832 122.72 573.832 128C573.832 133.28 577.552 136.96 582.792 136.96C585.592 136.96 587.952 135.84 589.832 133.64L593.992 137.48C591.352 140.72 587.312 142.48 582.432 142.48Z" fill="white"/>
<path d="M563.218 142H556.258L550.858 134.2H550.538H544.898V142H538.418V114H550.538C558.018 114 562.698 117.88 562.698 124.16C562.698 128.36 560.578 131.44 556.938 133L563.218 142ZM556.138 124.16C556.138 121.08 554.138 119.28 550.178 119.28H544.898V129.04H550.178C554.138 129.04 556.138 127.2 556.138 124.16Z" fill="white"/>
<path d="M516.822 136.8H532.062V142H510.382V114H531.542V119.2H516.822V125.28H529.822V130.32H516.822V136.8Z" fill="white"/>
<path d="M493.246 142.48C484.566 142.48 478.086 136.44 478.086 128C478.086 119.56 484.566 113.52 493.286 113.52C498.126 113.52 502.166 115.28 504.806 118.48L500.646 122.32C498.766 120.16 496.406 119.04 493.606 119.04C488.366 119.04 484.646 122.72 484.646 128C484.646 133.28 488.366 136.96 493.606 136.96C496.406 136.96 498.766 135.84 500.646 133.64L504.806 137.48C502.166 140.72 498.126 142.48 493.246 142.48Z" fill="white"/>
<path d="M453.093 114H459.493V142H454.173L440.213 125V142H433.813V114H439.173L453.093 131V114Z" fill="white"/>
<path d="M412.217 136.8H427.457V142H405.777V114H426.937V119.2H412.217V125.28H425.217V130.32H412.217V136.8Z" fill="white"/>
<path d="M391.452 142V114H397.932V142H391.452Z" fill="white"/>
<path d="M371.169 142.48C363.209 142.48 358.489 137.92 358.489 129.68V114H364.969V129.44C364.969 134.76 367.289 136.96 371.209 136.96C375.169 136.96 377.449 134.76 377.449 129.44V114H383.849V129.68C383.849 137.92 379.129 142.48 371.169 142.48Z" fill="white"/>
<path d="M345.589 135.76V127.56H351.509V138.92C348.429 141.24 344.189 142.48 340.189 142.48C331.389 142.48 324.909 136.44 324.909 128C324.909 119.56 331.389 113.52 340.309 113.52C345.229 113.52 349.309 115.2 352.029 118.36L347.869 122.2C345.829 120.04 343.469 119.04 340.629 119.04C335.189 119.04 331.469 122.68 331.469 128C331.469 133.24 335.189 136.96 340.549 136.96C342.309 136.96 343.949 136.64 345.589 135.76Z" fill="white"/>
<path d="M301.797 142V114H308.277V136.72H322.317V142H301.797Z" fill="white"/>
<path d="M290.892 142L288.412 136H275.412L272.932 142H266.292L278.772 114H285.172L297.692 142H290.892ZM277.492 131.08H286.372L281.932 120.36L277.492 131.08Z" fill="white"/>
<path d="M246.539 142L244.059 136H231.059L228.579 142H221.939L234.419 114H240.819L253.339 142H246.539ZM233.139 131.08H242.019L237.579 120.36L233.139 131.08Z" fill="white"/>
<path d="M195.583 142.48C191.143 142.48 186.663 141.16 184.183 139.24L186.383 134.36C188.743 136.08 192.263 137.28 195.623 137.28C199.463 137.28 201.023 136 201.023 134.28C201.023 129.04 184.743 132.64 184.743 122.24C184.743 117.48 188.583 113.52 196.543 113.52C200.063 113.52 203.663 114.36 206.263 116L204.263 120.92C201.663 119.44 198.983 118.72 196.503 118.72C192.663 118.72 191.183 120.16 191.183 121.92C191.183 127.08 207.463 123.52 207.463 133.8C207.463 138.48 203.583 142.48 195.583 142.48Z" fill="white"/>
<path d="M164.787 136.8H180.027V142H158.347V114H179.507V119.2H164.787V125.28H177.787V130.32H164.787V136.8Z" fill="white"/>
<path d="M144.123 114H150.523V142H145.203L131.243 125V142H124.843V114H130.203L144.123 131V114Z" fill="white"/>
<path d="M103.247 136.8H118.487V142H96.8068V114H117.967V119.2H103.247V125.28H116.247V130.32H103.247V136.8Z" fill="white"/>
<path d="M82.4818 142V114H88.9617V142H82.4818Z" fill="white"/>
<path d="M62.3551 142V119.28H53.3951V114H77.7951V119.28H68.8351V142H62.3551Z" fill="white"/>
<path d="M29.702 142V114H36.182V142H29.702Z" fill="white"/>
<path d="M12.1942 142.48C7.7542 142.48 3.27419 141.16 0.794189 139.24L2.9942 134.36C5.3542 136.08 8.87419 137.28 12.2342 137.28C16.0742 137.28 17.6342 136 17.6342 134.28C17.6342 129.04 1.35419 132.64 1.35419 122.24C1.35419 117.48 5.19419 113.52 13.1542 113.52C16.6742 113.52 20.2742 114.36 22.8742 116L20.8742 120.92C18.2742 119.44 15.5942 118.72 13.1142 118.72C9.2742 118.72 7.79419 120.16 7.79419 121.92C7.79419 127.08 24.0742 123.52 24.0742 133.8C24.0742 138.48 20.1942 142.48 12.1942 142.48Z" fill="white"/>
<path d="M489.622 87.8H504.862V93H483.182V65H504.342V70.2H489.622V76.28H502.622V81.32H489.622V87.8Z" fill="white"/>
<path d="M457.842 93V65H464.322V87.72H478.362V93H457.842Z" fill="white"/>
<path d="M446.616 78.44C449.736 79.44 451.736 81.84 451.736 85.36C451.736 90.2 447.896 93 440.536 93H426.056V65H439.736C446.736 65 450.336 67.92 450.336 72.28C450.336 75.08 448.896 77.24 446.616 78.44ZM438.936 69.88H432.496V76.48H438.936C442.096 76.48 443.816 75.36 443.816 73.16C443.816 70.96 442.096 69.88 438.936 69.88ZM440.056 88.12C443.416 88.12 445.216 87.08 445.216 84.68C445.216 82.32 443.416 81.2 440.056 81.2H432.496V88.12H440.056Z" fill="white"/>
<path d="M411.731 93V65H418.211V93H411.731Z" fill="white"/>
<path d="M394.223 93.48C389.783 93.48 385.303 92.16 382.823 90.24L385.023 85.36C387.383 87.08 390.903 88.28 394.263 88.28C398.103 88.28 399.663 87 399.663 85.28C399.663 80.04 383.383 83.64 383.383 73.24C383.383 68.48 387.223 64.52 395.183 64.52C398.703 64.52 402.303 65.36 404.903 67L402.903 71.92C400.303 70.44 397.623 69.72 395.143 69.72C391.303 69.72 389.823 71.16 389.823 72.92C389.823 78.08 406.103 74.52 406.103 84.8C406.103 89.48 402.223 93.48 394.223 93.48Z" fill="white"/>
<path d="M363.633 93.48C354.793 93.48 348.313 87.32 348.313 79C348.313 70.68 354.793 64.52 363.633 64.52C372.433 64.52 378.953 70.64 378.953 79C378.953 87.36 372.433 93.48 363.633 93.48ZM363.633 87.96C368.633 87.96 372.393 84.32 372.393 79C372.393 73.68 368.633 70.04 363.633 70.04C358.633 70.04 354.873 73.68 354.873 79C354.873 84.32 358.633 87.96 363.633 87.96Z" fill="white"/>
<path d="M331.696 65C339.176 65 343.856 68.88 343.856 75.16C343.856 81.4 339.176 85.28 331.696 85.28H326.056V93H319.576V65H331.696ZM331.336 80C335.296 80 337.296 78.2 337.296 75.16C337.296 72.08 335.296 70.28 331.336 70.28H326.056V80H331.336Z" fill="white"/>
<path d="M289.54 93.48C285.1 93.48 280.62 92.16 278.14 90.24L280.34 85.36C282.7 87.08 286.22 88.28 289.58 88.28C293.42 88.28 294.98 87 294.98 85.28C294.98 80.04 278.7 83.64 278.7 73.24C278.7 68.48 282.54 64.52 290.5 64.52C294.02 64.52 297.62 65.36 300.22 67L298.22 71.92C295.62 70.44 292.94 69.72 290.46 69.72C286.62 69.72 285.14 71.16 285.14 72.92C285.14 78.08 301.42 74.52 301.42 84.8C301.42 89.48 297.54 93.48 289.54 93.48Z" fill="white"/>
<path d="M258.744 87.8H273.984V93H252.304V65H273.464V70.2H258.744V76.28H271.744V81.32H258.744V87.8Z" fill="white"/>
<path d="M218.386 93.48C209.546 93.48 203.066 87.32 203.066 79C203.066 70.68 209.546 64.52 218.386 64.52C227.186 64.52 233.706 70.64 233.706 79C233.706 87.36 227.186 93.48 218.386 93.48ZM218.386 87.96C223.386 87.96 227.146 84.32 227.146 79C227.146 73.68 223.386 70.04 218.386 70.04C213.386 70.04 209.626 73.68 209.626 79C209.626 84.32 213.386 87.96 218.386 87.96Z" fill="white"/>
<path d="M170.579 93V65H183.299C192.459 65 198.739 70.52 198.739 79C198.739 87.48 192.459 93 183.299 93H170.579ZM177.059 87.68H182.979C188.539 87.68 192.179 84.36 192.179 79C192.179 73.64 188.539 70.32 182.979 70.32H177.059V87.68Z" fill="white"/>
<path d="M149.189 93.48C140.349 93.48 133.869 87.32 133.869 79C133.869 70.68 140.349 64.52 149.189 64.52C157.989 64.52 164.509 70.64 164.509 79C164.509 87.36 157.989 93.48 149.189 93.48ZM149.189 87.96C154.189 87.96 157.949 84.32 157.949 79C157.949 73.68 154.189 70.04 149.189 70.04C144.189 70.04 140.429 73.68 140.429 79C140.429 84.32 144.189 87.96 149.189 87.96Z" fill="white"/>
<path d="M115.893 93V70.28H106.933V65H131.333V70.28H122.373V93H115.893Z" fill="white"/>
</svg>
