<svg width="603" height="467" viewBox="0 0 603 467" fill="none" xmlns="http://www.w3.org/2000/svg">
<path d="M384.378 272.843C383.488 274.38 381.811 275.337 380.017 275.242C378.787 275.177 377.659 275.292 376.993 276.319L371.266 285.194C369.93 287.263 369.391 289.732 369.747 292.161L370.971 301.833C369.996 303.531 367.795 304.107 366.093 303.11L343.605 288.971L340.322 286.907C338.965 286.051 338.025 284.683 337.725 283.125L336.003 274.165C335.784 273.043 335.027 272.091 333.97 271.626L328.009 268.981C326.464 268.295 324.665 268.52 323.344 269.562L315.157 276.018C313.673 277.19 311.706 277.586 309.872 277.085L293.482 272.612C291.841 272.136 290.083 272.277 288.543 273.003L273.383 284.573C271.991 285.229 270.421 285.419 268.911 285.104L259.174 282.139C249.773 281.387 282.368 224.99 298.051 199.746C301.563 194.091 295.297 187.826 298.366 181.71C302.289 173.897 306.517 166.328 312.763 160.578C315.223 158.315 332.552 155.785 335.149 153.667C346.975 144.015 347.03 136.221 359.73 130.041C361.133 129.359 363.232 130.361 364.116 131.628L369.706 139.642L377.248 154.508C377.969 155.93 379.041 157.148 380.368 158.049L418.772 184.184C420.073 185.066 420.51 186.759 419.804 188.151L412.658 202.231C411.916 203.698 412.333 205.476 413.654 206.468L418.701 210.254C420.617 211.697 421.166 214.311 419.976 216.38L408.898 216.691C406.967 216.746 405.213 217.802 404.278 219.465L398.683 229.458C398.012 230.66 397.723 232.032 397.86 233.399L399.456 249.437C399.608 250.95 399.278 252.467 398.52 253.79L396.854 256.7C396.046 258.107 394.765 259.119 393.301 259.62C392.265 259.975 391.396 260.692 390.857 261.628L384.383 272.843H384.378Z" fill="#007EAE" stroke="white" stroke-width="4" stroke-miterlimit="10" stroke-linecap="round"/>
<path d="M382.69 443.312C384.047 444.915 382.512 447.299 380.464 446.768C348.448 438.439 324.832 425.997 302.619 401.094C300.444 398.66 305.668 390.125 303.636 387.571C301.679 385.112 294.275 373.106 292.455 370.541C288.578 365.077 276.564 367.857 273.368 361.967C262.848 342.568 256.181 321.001 254.524 298.206C254.407 296.593 255.881 295.316 257.487 295.632L271.371 298.176C273.413 298.582 275.538 298.156 277.26 296.994L290.357 288.159C291.998 287.052 294.077 286.761 295.967 287.383L310.156 292.046C310.832 292.266 311.579 292.096 312.082 291.595L319.008 284.768C320.193 283.601 321.91 283.135 323.531 283.531L325.661 284.057C327.815 284.588 329.355 286.446 329.467 288.63C329.68 292.677 328.049 297.926 330.062 298.918L362.815 316.884C364.4 317.765 365.015 319.708 364.222 321.321L355.654 338.576C354.887 340.124 353.53 341.311 351.883 341.882L324.304 351.448C321.112 352.956 319.359 356.402 320.035 359.828L322.429 371.939L382.695 443.312H382.69Z" fill="#007EAE" stroke="white" stroke-width="4" stroke-miterlimit="10" stroke-linecap="round"/>
<path d="M344.799 370.041L344.067 368.238C342.807 365.132 344.438 361.616 347.645 360.524L369.7 353.016L389.352 315.617C390.226 313.954 390.328 312.005 389.637 310.262L385.988 301.051C385.322 299.368 385.358 297.495 386.089 295.837L388.346 290.724C389.276 288.615 391.766 287.653 393.9 288.58L397.742 290.243C400.009 291.224 402.657 290.303 403.795 288.134L409.212 277.997C410.401 275.733 413.237 274.856 415.529 276.043L452.403 295.196C455.219 296.659 457.089 299.429 457.374 302.554L458.07 310.217C458.415 314.044 460.931 317.345 464.559 318.742L479.515 324.512C481.157 325.143 482.931 325.378 484.684 325.188L501.012 323.44C503.868 323.135 506.755 323.666 509.306 324.963L528.896 334.93L576.473 359.643C579.294 361.105 580.386 364.541 578.923 367.331C569.587 385.162 559.612 396.101 544.661 409.444C536.87 416.396 506.648 399.336 497.256 404.105C488.546 408.527 482.326 414.097 471.339 420.132C464.905 423.668 476.476 446.623 469.179 448.261C457.048 450.991 444.415 452.438 431.446 452.438C425.429 452.438 419.488 452.128 413.639 451.522C411.748 451.326 410.01 450.395 408.826 448.932L344.804 370.046L344.799 370.041Z" fill="#007EAE" stroke="white" stroke-width="4" stroke-miterlimit="10" stroke-linecap="round"/>
<path d="M415.545 253.324L412.897 243.322C411.982 240.617 411.271 237.166 412.897 234.807L417.15 228.466C418.335 226.748 420.149 225.556 422.212 225.13L433.311 222.856C437.295 219.776 437.661 218.829 440.853 220.277L449.939 223.638C452.267 224.695 454.909 224.84 457.338 224.043L527.306 201.059C528.922 200.528 530.66 200.488 532.302 200.938L583.283 214.998C584.996 215.469 586.394 216.696 587.085 218.313C590.418 226.147 593.168 234.281 595.267 242.666C596.664 248.255 576.24 252.548 577.048 258.343C577.683 262.896 586.704 272.367 590.261 276.875C592.131 279.244 600.171 279.599 600.171 282.635C600.171 284.368 600.145 286.091 600.089 287.814C599.601 303.566 596.888 318.762 592.253 333.117C590.977 337.069 586.414 338.957 582.648 337.104L508.34 300.436C506.851 299.699 505.159 299.474 503.523 299.784L489.034 302.539C488.186 302.699 487.306 302.579 486.534 302.199L475.608 296.809C474.485 296.258 473.687 295.227 473.438 294.014L471.324 283.677C471.105 282.62 470.409 281.723 469.433 281.237L417.364 255.543C416.459 255.097 415.799 254.291 415.545 253.329V253.324Z" fill="#007EAE" stroke="white" stroke-width="4" stroke-miterlimit="10" stroke-linecap="round"/>
<path d="M581.109 196.741C570.289 179.677 559.983 166.584 544.448 153.732C542.049 151.748 539.595 149.83 537.089 147.977C532.653 144.701 523.978 148.147 519.216 145.302C512.478 141.28 505.429 137.709 498.116 134.634C493.212 132.57 492.257 124.221 487.129 122.618C471.416 117.699 454.711 114.99 437.377 114.86C436.477 114.855 435.583 114.985 434.724 115.24L397.962 126.239C395.517 126.97 394.841 130.066 396.762 131.724L445.518 173.781C447.82 175.765 448.359 179.086 446.804 181.685L438.144 196.13C437.108 197.858 437.667 200.092 439.405 201.144L453.863 209.914C455.281 210.775 457.008 210.971 458.589 210.45L532.246 185.752C533.288 185.412 534.416 185.407 535.458 185.742L577.048 201.254C579.589 202.757 583.655 200.753 581.114 196.746L581.109 196.741Z" fill="#F4C00F"/>
<path d="M406.29 115.1L403.871 115.862" stroke="white" stroke-width="2" stroke-linecap="round" stroke-linejoin="round" stroke-dasharray="4 4"/>
<path d="M399.16 117.339L379.229 123.605C375.707 124.712 374.757 129.184 377.526 131.594L392.569 152.164L424.605 175.289" stroke="white" stroke-width="2" stroke-linecap="round" stroke-linejoin="round" stroke-dasharray="4 4"/>
<path d="M426.603 176.731L428.651 178.209" stroke="white" stroke-width="2" stroke-linecap="round" stroke-linejoin="round" stroke-dasharray="4 4"/>
<path d="M295.759 166.939L287.557 180.278C286.301 182.321 285.91 184.775 286.469 187.099L287.13 189.829C287.77 192.479 287.307 195.273 285.844 197.587C278.429 209.303 255.2 246.492 249 262.104" stroke="white" stroke-width="2" stroke-linecap="round" stroke-linejoin="round" stroke-dasharray="4 4"/>
<path d="M414.091 262.604L461.607 288.094L466.336 308.729L481.641 315.62L506.567 312.174L587.904 354.825C591.777 356.803 595.084 356.958 595.084 361.255V366.509C595.084 369.499 593.95 372.379 591.907 374.588L564.084 408.352" stroke="white" stroke-width="2" stroke-linecap="round" stroke-linejoin="round" stroke-dasharray="4 4"/>
<path d="M296.775 416.371C296.775 416.371 346.578 483.487 474.643 460.447" stroke="white" stroke-width="2" stroke-linecap="round" stroke-linejoin="round" stroke-dasharray="4 4"/>
<path d="M301.349 163.934C303.314 163.934 304.906 162.364 304.906 160.428C304.906 158.492 303.314 156.922 301.349 156.922C299.384 156.922 297.792 158.492 297.792 160.428C297.792 162.364 299.384 163.934 301.349 163.934Z" fill="white"/>
<path d="M402.987 272.622C404.952 272.622 406.544 271.053 406.544 269.116C406.544 267.18 404.952 265.61 402.987 265.61C401.022 265.61 399.43 267.18 399.43 269.116C399.43 271.053 401.022 272.622 402.987 272.622Z" fill="white"/>
<path d="M290.677 410.361C292.642 410.361 294.235 408.791 294.235 406.855C294.235 404.918 292.642 403.349 290.677 403.349C288.713 403.349 287.12 404.918 287.12 406.855C287.12 408.791 288.713 410.361 290.677 410.361Z" fill="white"/>
<path d="M598.641 259.099C600.606 259.099 602.198 257.529 602.198 255.593C602.198 253.657 600.606 252.087 598.641 252.087C596.676 252.087 595.084 253.657 595.084 255.593C595.084 257.529 596.676 259.099 598.641 259.099Z" fill="white"/>
<path d="M504.626 419.876C506.591 419.876 508.183 418.307 508.183 416.37C508.183 414.434 506.591 412.864 504.626 412.864C502.661 412.864 501.069 414.434 501.069 416.37C501.069 418.307 502.661 419.876 504.626 419.876Z" fill="white"/>
<path d="M586.445 258.098L600.166 272.623" stroke="white" stroke-width="2" stroke-linecap="round" stroke-linejoin="round" stroke-dasharray="4 4"/>
<rect y="44" width="386" height="181" rx="20" fill="white"/>
<circle cx="192.703" cy="48.702" r="37.2294" fill="white"/>
<path d="M239.547 48.7734C239.547 22.9412 218.606 2 192.773 2C166.941 2 146 22.9412 146 48.7734" stroke="white" stroke-width="3" stroke-linecap="round" stroke-dasharray="8 8"/>
<path d="M198.13 32H205.09L196.21 53H189.25L180.37 32H187.99L193 44.27L198.13 32Z" fill="#007EAE"/>
<path d="M312.812 82.9375C312.487 84.2201 311.914 85.7793 311.094 87.6152H308.955C309.404 85.6882 309.73 84.0573 309.931 82.7227H312.676L312.812 82.9375ZM317.373 82.9375C317.047 84.2201 316.474 85.7793 315.654 87.6152H313.515C313.965 85.6882 314.29 84.0573 314.492 82.7227H317.226L317.373 82.9375Z" fill="#007EAE"/>
<path d="M300.263 91.5215C300.263 92.6022 300.439 93.4193 300.791 93.9727C301.149 94.526 301.728 94.8027 302.529 94.8027C303.323 94.8027 303.893 94.5293 304.238 93.9824C304.59 93.429 304.765 92.6087 304.765 91.5215C304.765 90.4408 304.59 89.6302 304.238 89.0898C303.886 88.5495 303.31 88.2793 302.51 88.2793C301.715 88.2793 301.142 88.5495 300.791 89.0898C300.439 89.6237 300.263 90.4342 300.263 91.5215ZM307.812 91.5215C307.812 93.2988 307.344 94.6888 306.406 95.6914C305.469 96.694 304.163 97.1953 302.49 97.1953C301.442 97.1953 300.517 96.9674 299.717 96.5117C298.916 96.0495 298.301 95.3887 297.871 94.5293C297.441 93.6699 297.226 92.6673 297.226 91.5215C297.226 89.7376 297.692 88.3509 298.623 87.3613C299.554 86.3717 300.862 85.877 302.549 85.877C303.597 85.877 304.521 86.1048 305.322 86.5605C306.123 87.0163 306.738 87.6706 307.168 88.5234C307.597 89.3763 307.812 90.3757 307.812 91.5215Z" fill="#007EAE"/>
<path d="M288.691 97.1953C287.409 97.1953 286.399 96.6973 285.664 95.7012C284.935 94.7051 284.57 93.3249 284.57 91.5605C284.57 89.7702 284.941 88.377 285.683 87.3809C286.432 86.3783 287.461 85.877 288.769 85.877C290.143 85.877 291.191 86.4108 291.914 87.4785H292.011C291.862 86.6647 291.787 85.9388 291.787 85.3008V81.8047H294.775V97H292.49L291.914 95.584H291.787C291.11 96.6582 290.078 97.1953 288.691 97.1953ZM289.736 94.8223C290.498 94.8223 291.054 94.6009 291.406 94.1582C291.764 93.7155 291.959 92.9635 291.992 91.9023V91.5801C291.992 90.4082 291.81 89.5684 291.445 89.0605C291.087 88.5527 290.501 88.2988 289.687 88.2988C289.023 88.2988 288.506 88.582 288.135 89.1484C287.77 89.7083 287.588 90.5254 287.588 91.5996C287.588 92.6738 287.773 93.4811 288.144 94.0215C288.515 94.5553 289.046 94.8223 289.736 94.8223Z" fill="#007EAE"/>
<path d="M280.078 97L279.502 95.5156H279.424C278.922 96.1471 278.405 96.5866 277.871 96.834C277.344 97.0749 276.653 97.1953 275.801 97.1953C274.752 97.1953 273.926 96.8958 273.32 96.2969C272.721 95.6979 272.422 94.8451 272.422 93.7383C272.422 92.5794 272.825 91.7266 273.633 91.1797C274.446 90.6263 275.67 90.3203 277.304 90.2617L279.199 90.2031V89.7246C279.199 88.6178 278.633 88.0645 277.5 88.0645C276.627 88.0645 275.602 88.3281 274.424 88.8555L273.437 86.8438C274.694 86.1862 276.087 85.8574 277.617 85.8574C279.082 85.8574 280.205 86.1764 280.986 86.8145C281.767 87.4525 282.158 88.4225 282.158 89.7246V97H280.078ZM279.199 91.9414L278.047 91.9805C277.181 92.0065 276.536 92.1628 276.113 92.4492C275.69 92.7357 275.478 93.1719 275.478 93.7578C275.478 94.5977 275.96 95.0176 276.924 95.0176C277.614 95.0176 278.164 94.819 278.574 94.4219C278.991 94.0247 279.199 93.4974 279.199 92.8398V91.9414Z" fill="#007EAE"/>
<path d="M266.904 83.2598C266.904 82.2897 267.444 81.8047 268.525 81.8047C269.606 81.8047 270.146 82.2897 270.146 83.2598C270.146 83.722 270.01 84.0833 269.736 84.3438C269.469 84.5977 269.066 84.7246 268.525 84.7246C267.444 84.7246 266.904 84.2363 266.904 83.2598ZM270.01 97H267.031V86.082H270.01V97Z" fill="#007EAE"/>
<path d="M264.043 85.877C264.446 85.877 264.782 85.9062 265.049 85.9648L264.824 88.7578C264.583 88.6927 264.29 88.6602 263.945 88.6602C262.995 88.6602 262.252 88.9043 261.719 89.3926C261.191 89.8809 260.927 90.5645 260.927 91.4434V97H257.949V86.082H260.205L260.644 87.918H260.791C261.129 87.306 261.585 86.8145 262.158 86.4434C262.737 86.0658 263.366 85.877 264.043 85.877Z" fill="#007EAE"/>
<path d="M252.793 97L252.217 95.5156H252.138C251.637 96.1471 251.12 96.5866 250.586 96.834C250.058 97.0749 249.368 97.1953 248.515 97.1953C247.467 97.1953 246.64 96.8958 246.035 96.2969C245.436 95.6979 245.136 94.8451 245.136 93.7383C245.136 92.5794 245.54 91.7266 246.347 91.1797C247.161 90.6263 248.385 90.3203 250.019 90.2617L251.914 90.2031V89.7246C251.914 88.6178 251.347 88.0645 250.215 88.0645C249.342 88.0645 248.317 88.3281 247.138 88.8555L246.152 86.8438C247.409 86.1862 248.802 85.8574 250.332 85.8574C251.797 85.8574 252.92 86.1764 253.701 86.8145C254.482 87.4525 254.873 88.4225 254.873 89.7246V97H252.793ZM251.914 91.9414L250.761 91.9805C249.896 92.0065 249.251 92.1628 248.828 92.4492C248.405 92.7357 248.193 93.1719 248.193 93.7578C248.193 94.5977 248.675 95.0176 249.638 95.0176C250.329 95.0176 250.879 94.819 251.289 94.4219C251.705 94.0247 251.914 93.4974 251.914 92.8398V91.9414Z" fill="#007EAE"/>
<path d="M241.767 94.8223C242.288 94.8223 242.913 94.7083 243.642 94.4805V96.6973C242.9 97.0293 241.989 97.1953 240.908 97.1953C239.717 97.1953 238.847 96.8958 238.301 96.2969C237.76 95.6914 237.49 94.7865 237.49 93.582V88.3184H236.064V87.0586L237.705 86.0625L238.564 83.7578H240.469V86.082H243.525V88.3184H240.469V93.582C240.469 94.0052 240.586 94.3177 240.82 94.5195C241.061 94.7214 241.377 94.8223 241.767 94.8223Z" fill="#007EAE"/>
<path d="M234.101 97H231.123V90.623C231.123 89.8353 230.983 89.2461 230.703 88.8555C230.423 88.4583 229.977 88.2598 229.365 88.2598C228.532 88.2598 227.929 88.5397 227.558 89.0996C227.187 89.653 227.002 90.5742 227.002 91.8633V97H224.023V86.082H226.299L226.699 87.4785H226.865C227.197 86.9512 227.653 86.554 228.232 86.2871C228.818 86.0137 229.482 85.877 230.224 85.877C231.494 85.877 232.457 86.222 233.115 86.9121C233.773 87.5957 234.101 88.5853 234.101 89.8809V97Z" fill="#007EAE"/>
<path d="M218.613 97L218.213 95.6035H218.056C217.737 96.1113 217.285 96.5052 216.699 96.7852C216.113 97.0586 215.446 97.1953 214.697 97.1953C213.414 97.1953 212.448 96.8535 211.797 96.1699C211.146 95.4798 210.82 94.4902 210.82 93.2012V86.082H213.799V92.459C213.799 93.2467 213.939 93.8392 214.219 94.2363C214.498 94.627 214.944 94.8223 215.556 94.8223C216.39 94.8223 216.992 94.5456 217.363 93.9922C217.734 93.4323 217.92 92.5078 217.92 91.2188V86.082H220.898V97H218.613Z" fill="#007EAE"/>
<path d="M207.744 97H204.765V81.8047H207.744V97Z" fill="#007EAE"/>
<path d="M194.756 91.5215C194.756 92.6022 194.931 93.4193 195.283 93.9727C195.641 94.526 196.22 94.8027 197.021 94.8027C197.816 94.8027 198.385 94.5293 198.73 93.9824C199.082 93.429 199.258 92.6087 199.258 91.5215C199.258 90.4408 199.082 89.6302 198.73 89.0898C198.379 88.5495 197.802 88.2793 197.002 88.2793C196.207 88.2793 195.635 88.5495 195.283 89.0898C194.931 89.6237 194.756 90.4342 194.756 91.5215ZM202.304 91.5215C202.304 93.2988 201.836 94.6888 200.898 95.6914C199.961 96.694 198.655 97.1953 196.982 97.1953C195.934 97.1953 195.01 96.9674 194.209 96.5117C193.408 96.0495 192.793 95.3887 192.363 94.5293C191.933 93.6699 191.719 92.6673 191.719 91.5215C191.719 89.7376 192.184 88.3509 193.115 87.3613C194.046 86.3717 195.355 85.877 197.041 85.877C198.089 85.877 199.013 86.1048 199.814 86.5605C200.615 87.0163 201.23 87.6706 201.66 88.5234C202.09 89.3763 202.304 90.3757 202.304 91.5215Z" fill="#007EAE"/>
<path d="M187.754 82.7227H190.81L185.957 97H182.656L177.812 82.7227H180.869L183.554 91.2188C183.704 91.7201 183.857 92.306 184.013 92.9766C184.176 93.6406 184.277 94.1029 184.316 94.3633C184.388 93.7643 184.632 92.7161 185.049 91.2188L187.754 82.7227Z" fill="#007EAE"/>
<path d="M173.711 87.4004C173.854 86.8079 174.088 86.0658 174.414 85.1738C174.746 84.2754 175.084 83.4583 175.429 82.7227H177.568C177.138 84.4609 176.81 86.0918 176.582 87.6152H173.847L173.711 87.4004ZM169.15 87.4004C169.293 86.8079 169.528 86.0658 169.853 85.1738C170.185 84.2754 170.524 83.4583 170.869 82.7227H173.008C172.578 84.4609 172.249 86.0918 172.021 87.6152H169.287L169.15 87.4004Z" fill="#007EAE"/>
<path d="M155.263 91.5215C155.263 92.6022 155.439 93.4193 155.791 93.9727C156.149 94.526 156.728 94.8027 157.529 94.8027C158.323 94.8027 158.893 94.5293 159.238 93.9824C159.59 93.429 159.765 92.6087 159.765 91.5215C159.765 90.4408 159.59 89.6302 159.238 89.0898C158.886 88.5495 158.31 88.2793 157.51 88.2793C156.715 88.2793 156.142 88.5495 155.791 89.0898C155.439 89.6237 155.263 90.4342 155.263 91.5215ZM162.812 91.5215C162.812 93.2988 162.344 94.6888 161.406 95.6914C160.469 96.694 159.163 97.1953 157.49 97.1953C156.442 97.1953 155.517 96.9674 154.717 96.5117C153.916 96.0495 153.301 95.3887 152.871 94.5293C152.441 93.6699 152.226 92.6673 152.226 91.5215C152.226 89.7376 152.692 88.3509 153.623 87.3613C154.554 86.3717 155.862 85.877 157.549 85.877C158.597 85.877 159.521 86.1048 160.322 86.5605C161.123 87.0163 161.738 87.6706 162.168 88.5234C162.597 89.3763 162.812 90.3757 162.812 91.5215Z" fill="#007EAE"/>
<path d="M146.65 83.2598C146.65 82.2897 147.191 81.8047 148.271 81.8047C149.352 81.8047 149.892 82.2897 149.892 83.2598C149.892 83.722 149.756 84.0833 149.482 84.3438C149.215 84.5977 148.812 84.7246 148.271 84.7246C147.191 84.7246 146.65 84.2363 146.65 83.2598ZM149.756 97H146.777V86.082H149.756V97Z" fill="#007EAE"/>
<path d="M143.789 85.877C144.192 85.877 144.528 85.9062 144.795 85.9648L144.57 88.7578C144.329 88.6927 144.036 88.6602 143.691 88.6602C142.741 88.6602 141.998 88.9043 141.465 89.3926C140.937 89.8809 140.674 90.5645 140.674 91.4434V97H137.695V86.082H139.951L140.39 87.918H140.537C140.875 87.306 141.331 86.8145 141.904 86.4434C142.483 86.0658 143.112 85.877 143.789 85.877Z" fill="#007EAE"/>
<path d="M127.685 91.5215C127.685 92.6022 127.861 93.4193 128.213 93.9727C128.571 94.526 129.15 94.8027 129.951 94.8027C130.745 94.8027 131.315 94.5293 131.66 93.9824C132.011 93.429 132.187 92.6087 132.187 91.5215C132.187 90.4408 132.011 89.6302 131.66 89.0898C131.308 88.5495 130.732 88.2793 129.931 88.2793C129.137 88.2793 128.564 88.5495 128.213 89.0898C127.861 89.6237 127.685 90.4342 127.685 91.5215ZM135.234 91.5215C135.234 93.2988 134.765 94.6888 133.828 95.6914C132.89 96.694 131.585 97.1953 129.912 97.1953C128.864 97.1953 127.939 96.9674 127.138 96.5117C126.338 96.0495 125.722 95.3887 125.293 94.5293C124.863 93.6699 124.648 92.6673 124.648 91.5215C124.648 89.7376 125.114 88.3509 126.045 87.3613C126.976 86.3717 128.284 85.877 129.97 85.877C131.019 85.877 131.943 86.1048 132.744 86.5605C133.545 87.0163 134.16 87.6706 134.59 88.5234C135.019 89.3763 135.234 90.3757 135.234 91.5215Z" fill="#007EAE"/>
<path d="M121.22 94.8223C121.741 94.8223 122.366 94.7083 123.095 94.4805V96.6973C122.353 97.0293 121.442 97.1953 120.361 97.1953C119.17 97.1953 118.301 96.8958 117.754 96.2969C117.213 95.6914 116.943 94.7865 116.943 93.582V88.3184H115.517V87.0586L117.158 86.0625L118.017 83.7578H119.922V86.082H122.978V88.3184H119.922V93.582C119.922 94.0052 120.039 94.3177 120.273 94.5195C120.514 94.7214 120.83 94.8223 121.22 94.8223Z" fill="#007EAE"/>
<path d="M110.381 83.2598C110.381 82.2897 110.921 81.8047 112.002 81.8047C113.082 81.8047 113.623 82.2897 113.623 83.2598C113.623 83.722 113.486 84.0833 113.213 84.3438C112.946 84.5977 112.542 84.7246 112.002 84.7246C110.921 84.7246 110.381 84.2363 110.381 83.2598ZM113.486 97H110.508V86.082H113.486V97Z" fill="#007EAE"/>
<path d="M107.519 85.877C107.923 85.877 108.258 85.9062 108.525 85.9648L108.301 88.7578C108.06 88.6927 107.767 88.6602 107.422 88.6602C106.471 88.6602 105.729 88.9043 105.195 89.3926C104.668 89.8809 104.404 90.5645 104.404 91.4434V97H101.426V86.082H103.681L104.121 87.918H104.267C104.606 87.306 105.062 86.8145 105.635 86.4434C106.214 86.0658 106.842 85.877 107.519 85.877Z" fill="#007EAE"/>
<path d="M98.4373 85.877C98.8409 85.877 99.1762 85.9062 99.4431 85.9648L99.2185 88.7578C98.9776 88.6927 98.6847 88.6602 98.3396 88.6602C97.3891 88.6602 96.6469 88.9043 96.113 89.3926C95.5857 89.8809 95.322 90.5645 95.322 91.4434V97H92.3435V86.082H94.5994L95.0388 87.918H95.1853C95.5238 87.306 95.9796 86.8145 96.5525 86.4434C97.1319 86.0658 97.7602 85.877 98.4373 85.877Z" fill="#007EAE"/>
<path d="M85.0486 87.9961C84.4171 87.9961 83.9223 88.1979 83.5642 88.6016C83.2061 88.9987 83.0011 89.5651 82.949 90.3008H87.1287C87.1156 89.5651 86.9236 88.9987 86.5525 88.6016C86.1814 88.1979 85.6801 87.9961 85.0486 87.9961ZM85.4685 97.1953C83.7107 97.1953 82.337 96.7103 81.3474 95.7402C80.3578 94.7702 79.863 93.3965 79.863 91.6191C79.863 89.7897 80.3188 88.377 81.2302 87.3809C82.1482 86.3783 83.4145 85.877 85.0291 85.877C86.572 85.877 87.7732 86.3164 88.6326 87.1953C89.4919 88.0742 89.9216 89.2884 89.9216 90.8379V92.2832H82.8806C82.9132 93.1296 83.1638 93.7904 83.6326 94.2656C84.1013 94.7409 84.7589 94.9785 85.6052 94.9785C86.2628 94.9785 86.8845 94.9102 87.4705 94.7734C88.0564 94.6367 88.6684 94.4186 89.3064 94.1191V96.4238C88.7856 96.6842 88.2289 96.8763 87.6365 97C87.044 97.1302 86.3214 97.1953 85.4685 97.1953Z" fill="#007EAE"/>
<path d="M74.6873 97H71.6599V85.2422H67.783V82.7227H78.5642V85.2422H74.6873V97Z" fill="#007EAE"/>
<path d="M241.964 187.443C241.964 188.926 241.591 190.085 240.844 190.921C240.097 191.751 239.065 192.166 237.748 192.166C236.934 192.166 236.212 191.975 235.581 191.593C234.95 191.211 234.463 190.664 234.12 189.95C233.777 189.236 233.605 188.4 233.605 187.443C233.605 185.96 233.976 184.806 234.718 183.981C235.459 183.151 236.489 182.736 237.806 182.736C239.078 182.736 240.088 183.16 240.835 184.006C241.588 184.853 241.964 185.999 241.964 187.443ZM235.033 187.443C235.033 188.605 235.266 189.49 235.73 190.099C236.195 190.708 236.879 191.012 237.781 191.012C238.683 191.012 239.366 190.711 239.831 190.107C240.301 189.499 240.537 188.611 240.537 187.443C240.537 186.286 240.301 185.409 239.831 184.812C239.366 184.208 238.677 183.907 237.764 183.907C236.862 183.907 236.181 184.203 235.722 184.795C235.263 185.387 235.033 186.27 235.033 187.443Z" fill="black"/>
<path d="M229.878 190.78H229.804C229.167 191.704 228.215 192.166 226.948 192.166C225.758 192.166 224.832 191.759 224.167 190.946C223.509 190.132 223.18 188.976 223.18 187.476C223.18 185.976 223.512 184.812 224.176 183.981C224.84 183.151 225.764 182.736 226.948 182.736C228.182 182.736 229.129 183.185 229.787 184.081H229.895L229.837 183.425L229.804 182.786V179.084H231.182V192H230.061L229.878 190.78ZM227.123 191.012C228.063 191.012 228.744 190.758 229.165 190.249C229.591 189.734 229.804 188.907 229.804 187.767V187.476C229.804 186.187 229.588 185.268 229.156 184.72C228.73 184.167 228.047 183.89 227.106 183.89C226.298 183.89 225.678 184.206 225.247 184.836C224.82 185.462 224.607 186.347 224.607 187.493C224.607 188.655 224.82 189.532 225.247 190.124C225.673 190.716 226.298 191.012 227.123 191.012Z" fill="black"/>
<path d="M219.818 192L219.544 190.705H219.478C219.024 191.275 218.57 191.662 218.116 191.867C217.668 192.066 217.106 192.166 216.431 192.166C215.529 192.166 214.821 191.934 214.306 191.469C213.797 191.004 213.542 190.343 213.542 189.485C213.542 187.648 215.012 186.685 217.95 186.596L219.494 186.546V185.982C219.494 185.268 219.339 184.742 219.029 184.405C218.725 184.062 218.235 183.89 217.56 183.89C216.802 183.89 215.944 184.123 214.987 184.587L214.563 183.533C215.012 183.29 215.501 183.099 216.033 182.96C216.569 182.822 217.106 182.753 217.643 182.753C218.728 182.753 219.53 182.994 220.05 183.475C220.576 183.957 220.839 184.729 220.839 185.791V192H219.818ZM216.705 191.029C217.563 191.029 218.235 190.794 218.722 190.323C219.215 189.853 219.461 189.194 219.461 188.348V187.526L218.083 187.584C216.987 187.623 216.196 187.794 215.709 188.099C215.228 188.397 214.987 188.865 214.987 189.501C214.987 190 215.136 190.379 215.435 190.639C215.739 190.899 216.163 191.029 216.705 191.029Z" fill="black"/>
<path d="M211.301 192H209.923V182.902H211.301V192ZM209.807 180.437C209.807 180.121 209.885 179.891 210.04 179.748C210.194 179.598 210.388 179.523 210.621 179.523C210.842 179.523 211.033 179.598 211.193 179.748C211.354 179.897 211.434 180.127 211.434 180.437C211.434 180.746 211.354 180.979 211.193 181.134C211.033 181.283 210.842 181.358 210.621 181.358C210.388 181.358 210.194 181.283 210.04 181.134C209.885 180.979 209.807 180.746 209.807 180.437Z" fill="black"/>
<path d="M207.134 182.736C207.538 182.736 207.901 182.77 208.222 182.836L208.031 184.114C207.654 184.031 207.322 183.99 207.035 183.99C206.299 183.99 205.668 184.289 205.142 184.886C204.622 185.484 204.362 186.228 204.362 187.119V192H202.984V182.902H204.121L204.279 184.587H204.345C204.683 183.995 205.09 183.539 205.565 183.218C206.041 182.897 206.564 182.736 207.134 182.736Z" fill="black"/>
<path d="M199.116 192L198.842 190.705H198.775C198.322 191.275 197.868 191.662 197.414 191.867C196.966 192.066 196.404 192.166 195.729 192.166C194.827 192.166 194.119 191.934 193.604 191.469C193.095 191.004 192.84 190.343 192.84 189.485C192.84 187.648 194.31 186.685 197.248 186.596L198.792 186.546V185.982C198.792 185.268 198.637 184.742 198.327 184.405C198.023 184.062 197.533 183.89 196.858 183.89C196.1 183.89 195.242 184.123 194.285 184.587L193.861 183.533C194.31 183.29 194.799 183.099 195.331 182.96C195.867 182.822 196.404 182.753 196.941 182.753C198.026 182.753 198.828 182.994 199.348 183.475C199.874 183.957 200.137 184.729 200.137 185.791V192H199.116ZM196.003 191.029C196.861 191.029 197.533 190.794 198.02 190.323C198.513 189.853 198.759 189.194 198.759 188.348V187.526L197.381 187.584C196.285 187.623 195.494 187.794 195.007 188.099C194.525 188.397 194.285 188.865 194.285 189.501C194.285 190 194.434 190.379 194.733 190.639C195.037 190.899 195.461 191.029 196.003 191.029Z" fill="black"/>
<path d="M190.45 191.029C190.693 191.029 190.928 191.012 191.155 190.979C191.382 190.94 191.562 190.902 191.695 190.863V191.917C191.545 191.989 191.324 192.047 191.031 192.091C190.743 192.141 190.483 192.166 190.25 192.166C188.491 192.166 187.611 191.239 187.611 189.385V183.973H186.308V183.309L187.611 182.736L188.192 180.794H188.989V182.902H191.628V183.973H188.989V189.327C188.989 189.875 189.119 190.296 189.379 190.589C189.639 190.882 189.996 191.029 190.45 191.029Z" fill="black"/>
<path d="M183.294 192V186.115C183.294 185.373 183.126 184.82 182.788 184.455C182.451 184.089 181.922 183.907 181.203 183.907C180.251 183.907 179.554 184.164 179.111 184.679C178.668 185.193 178.447 186.043 178.447 187.227V192H177.069V182.902H178.189L178.414 184.147H178.48C178.762 183.699 179.158 183.353 179.667 183.11C180.176 182.861 180.743 182.736 181.369 182.736C182.464 182.736 183.289 183.002 183.842 183.533C184.396 184.059 184.672 184.903 184.672 186.065V192H183.294Z" fill="black"/>
<path d="M167.921 182.902V188.804C167.921 189.546 168.09 190.099 168.428 190.464C168.765 190.83 169.294 191.012 170.013 191.012C170.965 191.012 171.66 190.752 172.097 190.232C172.539 189.712 172.761 188.862 172.761 187.684V182.902H174.139V192H173.001L172.802 190.78H172.728C172.445 191.228 172.052 191.571 171.549 191.809C171.051 192.047 170.481 192.166 169.839 192.166C168.732 192.166 167.902 191.903 167.349 191.377C166.801 190.852 166.527 190.011 166.527 188.854V182.902H167.921Z" fill="black"/>
<path d="M163.705 192H162.327V179.084H163.705V192Z" fill="black"/>
<path d="M159.903 187.443C159.903 188.926 159.529 190.085 158.782 190.921C158.035 191.751 157.003 192.166 155.686 192.166C154.873 192.166 154.15 191.975 153.52 191.593C152.889 191.211 152.402 190.664 152.059 189.95C151.715 189.236 151.544 188.4 151.544 187.443C151.544 185.96 151.915 184.806 152.656 183.981C153.398 183.151 154.427 182.736 155.744 182.736C157.017 182.736 158.027 183.16 158.774 184.006C159.527 184.853 159.903 185.999 159.903 187.443ZM152.972 187.443C152.972 188.605 153.204 189.49 153.669 190.099C154.134 190.708 154.817 191.012 155.719 191.012C156.621 191.012 157.305 190.711 157.77 190.107C158.24 189.499 158.475 188.611 158.475 187.443C158.475 186.286 158.24 185.409 157.77 184.812C157.305 184.208 156.616 183.907 155.703 183.907C154.801 183.907 154.12 184.203 153.661 184.795C153.201 185.387 152.972 186.27 152.972 187.443Z" fill="black"/>
<path d="M145.526 192L142.073 182.902H143.55L145.509 188.298C145.952 189.56 146.212 190.379 146.29 190.755H146.356C146.417 190.462 146.608 189.856 146.929 188.937C147.255 188.013 147.983 186.001 149.112 182.902H150.589L147.136 192H145.526Z" fill="black"/>
<path d="M334.335 169.166C332.991 169.166 331.928 168.757 331.148 167.938C330.373 167.118 329.986 165.981 329.986 164.526C329.986 163.059 330.346 161.895 331.065 161.031C331.79 160.168 332.761 159.736 333.979 159.736C335.118 159.736 336.021 160.113 336.685 160.865C337.349 161.612 337.681 162.6 337.681 163.829V164.7H331.414C331.441 165.768 331.71 166.579 332.219 167.132C332.733 167.686 333.456 167.962 334.385 167.962C335.365 167.962 336.333 167.758 337.291 167.348V168.577C336.804 168.787 336.341 168.936 335.904 169.025C335.473 169.119 334.95 169.166 334.335 169.166ZM333.962 160.89C333.231 160.89 332.648 161.128 332.21 161.604C331.779 162.08 331.524 162.738 331.447 163.58H336.203C336.203 162.711 336.009 162.047 335.622 161.587C335.235 161.123 334.681 160.89 333.962 160.89Z" fill="black"/>
<path d="M326.259 167.78H326.184C325.548 168.704 324.596 169.166 323.329 169.166C322.139 169.166 321.212 168.759 320.548 167.946C319.889 167.132 319.56 165.976 319.56 164.476C319.56 162.976 319.892 161.812 320.556 160.981C321.22 160.151 322.144 159.736 323.329 159.736C324.563 159.736 325.509 160.185 326.167 161.081H326.275L326.217 160.425L326.184 159.786V156.084H327.562V169H326.441L326.259 167.78ZM323.503 168.012C324.444 168.012 325.124 167.758 325.545 167.249C325.971 166.734 326.184 165.907 326.184 164.767V164.476C326.184 163.187 325.968 162.268 325.537 161.72C325.111 161.167 324.427 160.89 323.486 160.89C322.678 160.89 322.059 161.206 321.627 161.836C321.201 162.462 320.988 163.347 320.988 164.493C320.988 165.655 321.201 166.532 321.627 167.124C322.053 167.716 322.678 168.012 323.503 168.012Z" fill="black"/>
<path d="M313.401 166.518C313.401 167.365 313.085 168.018 312.455 168.477C311.824 168.936 310.938 169.166 309.798 169.166C308.592 169.166 307.651 168.975 306.976 168.593V167.315C307.413 167.536 307.881 167.711 308.379 167.838C308.882 167.965 309.367 168.029 309.832 168.029C310.551 168.029 311.104 167.915 311.492 167.688C311.879 167.456 312.073 167.105 312.073 166.634C312.073 166.28 311.918 165.979 311.608 165.729C311.304 165.475 310.706 165.176 309.815 164.833C308.968 164.518 308.365 164.244 308.005 164.011C307.651 163.773 307.386 163.505 307.208 163.206C307.037 162.907 306.951 162.55 306.951 162.135C306.951 161.394 307.253 160.81 307.856 160.384C308.459 159.952 309.286 159.736 310.338 159.736C311.317 159.736 312.275 159.936 313.21 160.334L312.72 161.455C311.807 161.078 310.98 160.89 310.238 160.89C309.585 160.89 309.093 160.993 308.761 161.197C308.429 161.402 308.263 161.684 308.263 162.044C308.263 162.287 308.324 162.495 308.445 162.667C308.573 162.838 308.775 163.001 309.051 163.156C309.328 163.311 309.859 163.535 310.645 163.829C311.724 164.222 312.452 164.617 312.828 165.016C313.21 165.414 313.401 165.915 313.401 166.518Z" fill="black"/>
<path d="M301.83 169.166C300.485 169.166 299.422 168.757 298.642 167.938C297.867 167.118 297.48 165.981 297.48 164.526C297.48 163.059 297.84 161.895 298.559 161.031C299.284 160.168 300.255 159.736 301.473 159.736C302.613 159.736 303.515 160.113 304.179 160.865C304.843 161.612 305.175 162.6 305.175 163.829V164.7H298.908C298.935 165.768 299.204 166.579 299.713 167.132C300.228 167.686 300.95 167.962 301.879 167.962C302.859 167.962 303.827 167.758 304.785 167.348V168.577C304.298 168.787 303.836 168.936 303.398 169.025C302.967 169.119 302.444 169.166 301.83 169.166ZM301.456 160.89C300.726 160.89 300.142 161.128 299.705 161.604C299.273 162.08 299.018 162.738 298.941 163.58H303.697C303.697 162.711 303.504 162.047 303.116 161.587C302.729 161.123 302.175 160.89 301.456 160.89Z" fill="black"/>
<path d="M293.77 169V163.115C293.77 162.373 293.601 161.82 293.263 161.455C292.926 161.089 292.397 160.907 291.678 160.907C290.726 160.907 290.029 161.164 289.586 161.679C289.143 162.193 288.922 163.043 288.922 164.227V169H287.544V159.902H288.665L288.889 161.147H288.955C289.237 160.699 289.633 160.353 290.142 160.11C290.651 159.861 291.218 159.736 291.844 159.736C292.939 159.736 293.764 160.002 294.317 160.533C294.871 161.059 295.147 161.903 295.147 163.065V169H293.77Z" fill="black"/>
<path d="M285.12 164.443C285.12 165.926 284.747 167.085 284 167.921C283.252 168.751 282.22 169.166 280.903 169.166C280.09 169.166 279.368 168.975 278.737 168.593C278.106 168.211 277.619 167.664 277.276 166.95C276.933 166.236 276.761 165.4 276.761 164.443C276.761 162.96 277.132 161.806 277.874 160.981C278.615 160.151 279.644 159.736 280.961 159.736C282.234 159.736 283.244 160.16 283.991 161.006C284.744 161.853 285.12 162.999 285.12 164.443ZM278.189 164.443C278.189 165.605 278.421 166.49 278.886 167.099C279.351 167.708 280.035 168.012 280.937 168.012C281.839 168.012 282.522 167.711 282.987 167.107C283.457 166.499 283.692 165.611 283.692 164.443C283.692 163.286 283.457 162.409 282.987 161.812C282.522 161.208 281.833 160.907 280.92 160.907C280.018 160.907 279.337 161.203 278.878 161.795C278.419 162.387 278.189 163.27 278.189 164.443Z" fill="black"/>
<path d="M274.346 169H272.968V159.902H274.346V169ZM272.852 157.437C272.852 157.121 272.929 156.891 273.084 156.748C273.239 156.598 273.433 156.523 273.665 156.523C273.886 156.523 274.077 156.598 274.238 156.748C274.398 156.897 274.479 157.127 274.479 157.437C274.479 157.746 274.398 157.979 274.238 158.134C274.077 158.283 273.886 158.358 273.665 158.358C273.433 158.358 273.239 158.283 273.084 158.134C272.929 157.979 272.852 157.746 272.852 157.437Z" fill="black"/>
<path d="M268.502 169.166C267.185 169.166 266.164 168.762 265.439 167.954C264.72 167.141 264.36 165.992 264.36 164.509C264.36 162.987 264.725 161.812 265.456 160.981C266.192 160.151 267.237 159.736 268.593 159.736C269.03 159.736 269.468 159.783 269.905 159.877C270.342 159.972 270.685 160.082 270.934 160.209L270.511 161.38C270.206 161.258 269.874 161.159 269.515 161.081C269.155 160.998 268.837 160.957 268.56 160.957C266.712 160.957 265.788 162.135 265.788 164.493C265.788 165.611 266.012 166.468 266.46 167.066C266.914 167.664 267.583 167.962 268.469 167.962C269.227 167.962 270.004 167.799 270.801 167.473V168.693C270.193 169.008 269.426 169.166 268.502 169.166Z" fill="black"/>
<path d="M260.4 169.166C259.083 169.166 258.062 168.762 257.337 167.954C256.618 167.141 256.258 165.992 256.258 164.509C256.258 162.987 256.624 161.812 257.354 160.981C258.09 160.151 259.136 159.736 260.492 159.736C260.929 159.736 261.366 159.783 261.803 159.877C262.24 159.972 262.583 160.082 262.833 160.209L262.409 161.38C262.105 161.258 261.773 161.159 261.413 161.081C261.053 160.998 260.735 160.957 260.458 160.957C258.61 160.957 257.686 162.135 257.686 164.493C257.686 165.611 257.91 166.468 258.358 167.066C258.812 167.664 259.482 167.962 260.367 167.962C261.125 167.962 261.903 167.799 262.7 167.473V168.693C262.091 169.008 261.325 169.166 260.4 169.166Z" fill="black"/>
<path d="M252.896 169L252.623 167.705H252.556C252.102 168.275 251.649 168.662 251.195 168.867C250.747 169.066 250.185 169.166 249.51 169.166C248.608 169.166 247.899 168.934 247.385 168.469C246.876 168.004 246.621 167.343 246.621 166.485C246.621 164.648 248.09 163.685 251.029 163.596L252.573 163.546V162.982C252.573 162.268 252.418 161.742 252.108 161.405C251.804 161.062 251.314 160.89 250.639 160.89C249.881 160.89 249.023 161.123 248.065 161.587L247.642 160.533C248.09 160.29 248.58 160.099 249.111 159.96C249.648 159.822 250.185 159.753 250.722 159.753C251.806 159.753 252.609 159.994 253.129 160.475C253.655 160.957 253.917 161.729 253.917 162.791V169H252.896ZM249.784 168.029C250.641 168.029 251.314 167.794 251.801 167.323C252.293 166.853 252.54 166.194 252.54 165.348V164.526L251.162 164.584C250.066 164.623 249.275 164.794 248.788 165.099C248.306 165.397 248.065 165.865 248.065 166.501C248.065 167 248.215 167.379 248.514 167.639C248.818 167.899 249.241 168.029 249.784 168.029Z" fill="black"/>
<path d="M237.183 169.166C235.838 169.166 234.776 168.757 233.996 167.938C233.221 167.118 232.833 165.981 232.833 164.526C232.833 163.059 233.193 161.895 233.913 161.031C234.638 160.168 235.609 159.736 236.826 159.736C237.966 159.736 238.868 160.113 239.532 160.865C240.196 161.612 240.528 162.6 240.528 163.829V164.7H234.261C234.289 165.768 234.557 166.579 235.066 167.132C235.581 167.686 236.303 167.962 237.233 167.962C238.212 167.962 239.181 167.758 240.138 167.348V168.577C239.651 168.787 239.189 168.936 238.752 169.025C238.32 169.119 237.797 169.166 237.183 169.166ZM236.81 160.89C236.079 160.89 235.495 161.128 235.058 161.604C234.626 162.08 234.372 162.738 234.294 163.58H239.051C239.051 162.711 238.857 162.047 238.47 161.587C238.082 161.123 237.529 160.89 236.81 160.89Z" fill="black"/>
<path d="M229.106 167.78H229.032C228.395 168.704 227.444 169.166 226.176 169.166C224.986 169.166 224.06 168.759 223.396 167.946C222.737 167.132 222.408 165.976 222.408 164.476C222.408 162.976 222.74 161.812 223.404 160.981C224.068 160.151 224.992 159.736 226.176 159.736C227.41 159.736 228.357 160.185 229.015 161.081H229.123L229.065 160.425L229.032 159.786V156.084H230.41V169H229.289L229.106 167.78ZM226.351 168.012C227.291 168.012 227.972 167.758 228.393 167.249C228.819 166.734 229.032 165.907 229.032 164.767V164.476C229.032 163.187 228.816 162.268 228.384 161.72C227.958 161.167 227.275 160.89 226.334 160.89C225.526 160.89 224.906 161.206 224.475 161.836C224.049 162.462 223.835 163.347 223.835 164.493C223.835 165.655 224.049 166.532 224.475 167.124C224.901 167.716 225.526 168.012 226.351 168.012Z" fill="black"/>
<path d="M216.249 166.518C216.249 167.365 215.933 168.018 215.302 168.477C214.671 168.936 213.786 169.166 212.646 169.166C211.44 169.166 210.499 168.975 209.824 168.593V167.315C210.261 167.536 210.729 167.711 211.227 167.838C211.73 167.965 212.214 168.029 212.679 168.029C213.399 168.029 213.952 167.915 214.339 167.688C214.727 167.456 214.92 167.105 214.92 166.634C214.92 166.28 214.765 165.979 214.456 165.729C214.151 165.475 213.554 165.176 212.663 164.833C211.816 164.518 211.213 164.244 210.853 164.011C210.499 163.773 210.233 163.505 210.056 163.206C209.885 162.907 209.799 162.55 209.799 162.135C209.799 161.394 210.1 160.81 210.704 160.384C211.307 159.952 212.134 159.736 213.186 159.736C214.165 159.736 215.122 159.936 216.058 160.334L215.568 161.455C214.655 161.078 213.827 160.89 213.086 160.89C212.433 160.89 211.94 160.993 211.608 161.197C211.276 161.402 211.11 161.684 211.11 162.044C211.11 162.287 211.171 162.495 211.293 162.667C211.42 162.838 211.622 163.001 211.899 163.156C212.176 163.311 212.707 163.535 213.493 163.829C214.572 164.222 215.299 164.617 215.676 165.016C216.058 165.414 216.249 165.915 216.249 166.518Z" fill="black"/>
<path d="M207.956 164.443C207.956 165.926 207.583 167.085 206.835 167.921C206.088 168.751 205.056 169.166 203.739 169.166C202.926 169.166 202.204 168.975 201.573 168.593C200.942 168.211 200.455 167.664 200.112 166.95C199.769 166.236 199.597 165.4 199.597 164.443C199.597 162.96 199.968 161.806 200.709 160.981C201.451 160.151 202.48 159.736 203.797 159.736C205.07 159.736 206.08 160.16 206.827 161.006C207.58 161.853 207.956 162.999 207.956 164.443ZM201.025 164.443C201.025 165.605 201.257 166.49 201.722 167.099C202.187 167.708 202.87 168.012 203.772 168.012C204.674 168.012 205.358 167.711 205.823 167.107C206.293 166.499 206.528 165.611 206.528 164.443C206.528 163.286 206.293 162.409 205.823 161.812C205.358 161.208 204.669 160.907 203.756 160.907C202.854 160.907 202.173 161.203 201.714 161.795C201.255 162.387 201.025 163.27 201.025 164.443Z" fill="black"/>
<path d="M197.182 169H195.804V159.902H197.182V169ZM195.688 157.437C195.688 157.121 195.765 156.891 195.92 156.748C196.075 156.598 196.269 156.523 196.501 156.523C196.722 156.523 196.913 156.598 197.074 156.748C197.234 156.897 197.314 157.127 197.314 157.437C197.314 157.746 197.234 157.979 197.074 158.134C196.913 158.283 196.722 158.358 196.501 158.358C196.269 158.358 196.075 158.283 195.92 158.134C195.765 157.979 195.688 157.746 195.688 157.437Z" fill="black"/>
<path d="M193.015 159.736C193.419 159.736 193.781 159.77 194.102 159.836L193.911 161.114C193.535 161.031 193.203 160.99 192.915 160.99C192.179 160.99 191.548 161.289 191.022 161.886C190.502 162.484 190.242 163.228 190.242 164.119V169H188.864V159.902H190.001L190.159 161.587H190.226C190.563 160.995 190.97 160.539 191.446 160.218C191.922 159.897 192.445 159.736 193.015 159.736Z" fill="black"/>
<path d="M184.996 169L184.722 167.705H184.656C184.202 168.275 183.748 168.662 183.294 168.867C182.846 169.066 182.285 169.166 181.609 169.166C180.707 169.166 179.999 168.934 179.484 168.469C178.975 168.004 178.721 167.343 178.721 166.485C178.721 164.648 180.19 163.685 183.128 163.596L184.672 163.546V162.982C184.672 162.268 184.517 161.742 184.208 161.405C183.903 161.062 183.413 160.89 182.738 160.89C181.98 160.89 181.122 161.123 180.165 161.587L179.742 160.533C180.19 160.29 180.68 160.099 181.211 159.96C181.748 159.822 182.285 159.753 182.821 159.753C183.906 159.753 184.708 159.994 185.229 160.475C185.754 160.957 186.017 161.729 186.017 162.791V169H184.996ZM181.883 168.029C182.741 168.029 183.413 167.794 183.9 167.323C184.393 166.853 184.639 166.194 184.639 165.348V164.526L183.261 164.584C182.166 164.623 181.374 164.794 180.887 165.099C180.406 165.397 180.165 165.865 180.165 166.501C180.165 167 180.314 167.379 180.613 167.639C180.918 167.899 181.341 168.029 181.883 168.029Z" fill="black"/>
<path d="M176.479 169H175.102V159.902H176.479V169ZM174.985 157.437C174.985 157.121 175.063 156.891 175.218 156.748C175.373 156.598 175.566 156.523 175.799 156.523C176.02 156.523 176.211 156.598 176.372 156.748C176.532 156.897 176.612 157.127 176.612 157.437C176.612 157.746 176.532 157.979 176.372 158.134C176.211 158.283 176.02 158.358 175.799 158.358C175.566 158.358 175.373 158.283 175.218 158.134C175.063 157.979 174.985 157.746 174.985 157.437Z" fill="black"/>
<path d="M170.636 169.166C169.319 169.166 168.298 168.762 167.573 167.954C166.853 167.141 166.494 165.992 166.494 164.509C166.494 162.987 166.859 161.812 167.589 160.981C168.325 160.151 169.371 159.736 170.727 159.736C171.164 159.736 171.601 159.783 172.039 159.877C172.476 159.972 172.819 160.082 173.068 160.209L172.645 161.38C172.34 161.258 172.008 161.159 171.648 161.081C171.289 160.998 170.971 160.957 170.694 160.957C168.846 160.957 167.921 162.135 167.921 164.493C167.921 165.611 168.146 166.468 168.594 167.066C169.048 167.664 169.717 167.962 170.603 167.962C171.361 167.962 172.138 167.799 172.935 167.473V168.693C172.326 169.008 171.56 169.166 170.636 169.166Z" fill="black"/>
<path d="M161.04 160.973H158.724V169H157.346V160.973H155.719V160.35L157.346 159.852V159.346C157.346 157.11 158.323 155.992 160.276 155.992C160.758 155.992 161.322 156.089 161.97 156.283L161.613 157.387C161.082 157.215 160.628 157.129 160.251 157.129C159.731 157.129 159.347 157.304 159.098 157.652C158.849 157.995 158.724 158.549 158.724 159.312V159.902H161.04V160.973ZM164.078 169H162.7V159.902H164.078V169ZM162.584 157.437C162.584 157.121 162.661 156.891 162.816 156.748C162.971 156.598 163.165 156.523 163.397 156.523C163.619 156.523 163.81 156.598 163.97 156.748C164.131 156.897 164.211 157.127 164.211 157.437C164.211 157.746 164.131 157.979 163.97 158.134C163.81 158.283 163.619 158.358 163.397 158.358C163.165 158.358 162.971 158.283 162.816 158.134C162.661 157.979 162.584 157.746 162.584 157.437Z" fill="black"/>
<path d="M151.237 169.166C149.892 169.166 148.83 168.757 148.049 167.938C147.275 167.118 146.887 165.981 146.887 164.526C146.887 163.059 147.247 161.895 147.966 161.031C148.691 160.168 149.662 159.736 150.88 159.736C152.02 159.736 152.922 160.113 153.586 160.865C154.25 161.612 154.582 162.6 154.582 163.829V164.7H148.315C148.343 165.768 148.611 166.579 149.12 167.132C149.635 167.686 150.357 167.962 151.287 167.962C152.266 167.962 153.235 167.758 154.192 167.348V168.577C153.705 168.787 153.243 168.936 152.806 169.025C152.374 169.119 151.851 169.166 151.237 169.166ZM150.863 160.89C150.133 160.89 149.549 161.128 149.112 161.604C148.68 162.08 148.426 162.738 148.348 163.58H153.104C153.104 162.711 152.911 162.047 152.523 161.587C152.136 161.123 151.583 160.89 150.863 160.89Z" fill="black"/>
<path d="M143.177 169V163.115C143.177 162.373 143.008 161.82 142.67 161.455C142.333 161.089 141.804 160.907 141.085 160.907C140.133 160.907 139.436 161.164 138.993 161.679C138.55 162.193 138.329 163.043 138.329 164.227V169H136.951V159.902H138.072L138.296 161.147H138.362C138.645 160.699 139.04 160.353 139.549 160.11C140.058 159.861 140.626 159.736 141.251 159.736C142.347 159.736 143.171 160.002 143.725 160.533C144.278 161.059 144.555 161.903 144.555 163.065V169H143.177Z" fill="black"/>
<path d="M131.249 169.166C129.904 169.166 128.841 168.757 128.061 167.938C127.286 167.118 126.899 165.981 126.899 164.526C126.899 163.059 127.259 161.895 127.978 161.031C128.703 160.168 129.674 159.736 130.892 159.736C132.032 159.736 132.934 160.113 133.598 160.865C134.262 161.612 134.594 162.6 134.594 163.829V164.7H128.327C128.354 165.768 128.623 166.579 129.132 167.132C129.646 167.686 130.369 167.962 131.298 167.962C132.278 167.962 133.246 167.758 134.204 167.348V168.577C133.717 168.787 133.255 168.936 132.817 169.025C132.386 169.119 131.863 169.166 131.249 169.166ZM130.875 160.89C130.145 160.89 129.561 161.128 129.124 161.604C128.692 162.08 128.437 162.738 128.36 163.58H133.116C133.116 162.711 132.923 162.047 132.535 161.587C132.148 161.123 131.594 160.89 130.875 160.89Z" fill="black"/>
<path d="M121.213 159.753C122.408 159.753 123.335 160.162 123.994 160.981C124.658 161.795 124.99 162.949 124.99 164.443C124.99 165.937 124.655 167.099 123.985 167.929C123.321 168.754 122.397 169.166 121.213 169.166C120.621 169.166 120.078 169.058 119.586 168.842C119.099 168.621 118.689 168.283 118.357 167.83H118.258L117.967 169H116.979V156.084H118.357V159.222C118.357 159.924 118.335 160.555 118.291 161.114H118.357C118.999 160.207 119.951 159.753 121.213 159.753ZM121.014 160.907C120.073 160.907 119.395 161.178 118.98 161.72C118.565 162.257 118.357 163.165 118.357 164.443C118.357 165.721 118.57 166.637 118.997 167.19C119.423 167.738 120.106 168.012 121.047 168.012C121.894 168.012 122.524 167.705 122.939 167.091C123.354 166.471 123.562 165.583 123.562 164.426C123.562 163.242 123.354 162.359 122.939 161.778C122.524 161.197 121.882 160.907 121.014 160.907Z" fill="black"/>
<path d="M110.505 162.948C110.505 163.922 110.427 164.794 110.272 165.563C110.118 166.327 109.868 166.977 109.525 167.514C109.188 168.05 108.74 168.46 108.181 168.742C107.622 169.024 106.936 169.166 106.122 169.166C105.109 169.166 104.279 168.919 103.632 168.427C102.984 167.929 102.506 167.218 102.196 166.293C101.891 165.364 101.739 164.249 101.739 162.948C101.739 161.637 101.878 160.516 102.154 159.586C102.437 158.651 102.899 157.935 103.541 157.437C104.182 156.938 105.043 156.689 106.122 156.689C107.135 156.689 107.962 156.938 108.604 157.437C109.251 157.929 109.73 158.643 110.04 159.578C110.35 160.508 110.505 161.631 110.505 162.948ZM105.001 162.948C105.001 163.74 105.029 164.404 105.084 164.94C105.145 165.477 105.256 165.881 105.417 166.152C105.583 166.418 105.818 166.551 106.122 166.551C106.426 166.551 106.659 166.418 106.819 166.152C106.98 165.881 107.09 165.48 107.151 164.949C107.212 164.412 107.243 163.745 107.243 162.948C107.243 162.146 107.212 161.476 107.151 160.939C107.09 160.403 106.98 159.999 106.819 159.728C106.659 159.451 106.426 159.312 106.122 159.312C105.818 159.312 105.583 159.451 105.417 159.728C105.256 159.999 105.145 160.403 105.084 160.939C105.029 161.476 105.001 162.146 105.001 162.948Z" fill="#F4C00F"/>
<path d="M100.544 162.948C100.544 163.922 100.466 164.794 100.312 165.563C100.157 166.327 99.9076 166.977 99.5645 167.514C99.2269 168.05 98.7786 168.46 98.2197 168.742C97.6608 169.024 96.9746 169.166 96.1611 169.166C95.1484 169.166 94.3184 168.919 93.6709 168.427C93.0234 167.929 92.5448 167.218 92.2349 166.293C91.9305 165.364 91.7783 164.249 91.7783 162.948C91.7783 161.637 91.9167 160.516 92.1934 159.586C92.4756 158.651 92.9377 157.935 93.5796 157.437C94.2215 156.938 95.082 156.689 96.1611 156.689C97.1738 156.689 98.0011 156.938 98.6431 157.437C99.2905 157.929 99.7692 158.643 100.079 159.578C100.389 160.508 100.544 161.631 100.544 162.948ZM95.0405 162.948C95.0405 163.74 95.0682 164.404 95.1235 164.94C95.1844 165.477 95.2951 165.881 95.4556 166.152C95.6216 166.418 95.8568 166.551 96.1611 166.551C96.4655 166.551 96.6979 166.418 96.8584 166.152C97.0189 165.881 97.1296 165.48 97.1904 164.949C97.2513 164.412 97.2817 163.745 97.2817 162.948C97.2817 162.146 97.2513 161.476 97.1904 160.939C97.1296 160.403 97.0189 159.999 96.8584 159.728C96.6979 159.451 96.4655 159.312 96.1611 159.312C95.8568 159.312 95.6216 159.451 95.4556 159.728C95.2951 159.999 95.1844 160.403 95.1235 160.939C95.0682 161.476 95.0405 162.146 95.0405 162.948Z" fill="#F4C00F"/>
<path d="M90.583 162.948C90.583 163.922 90.5055 164.794 90.3506 165.563C90.1956 166.327 89.9466 166.977 89.6035 167.514C89.266 168.05 88.8177 168.46 88.2588 168.742C87.6999 169.024 87.0137 169.166 86.2002 169.166C85.1875 169.166 84.3574 168.919 83.71 168.427C83.0625 167.929 82.5838 167.218 82.2739 166.293C81.9696 165.364 81.8174 164.249 81.8174 162.948C81.8174 161.637 81.9557 160.516 82.2324 159.586C82.5146 158.651 82.9767 157.935 83.6187 157.437C84.2606 156.938 85.1211 156.689 86.2002 156.689C87.2129 156.689 88.0402 156.938 88.6821 157.437C89.3296 157.929 89.8083 158.643 90.1182 159.578C90.4281 160.508 90.583 161.631 90.583 162.948ZM85.0796 162.948C85.0796 163.74 85.1073 164.404 85.1626 164.94C85.2235 165.477 85.3341 165.881 85.4946 166.152C85.6606 166.418 85.8958 166.551 86.2002 166.551C86.5046 166.551 86.737 166.418 86.8975 166.152C87.0579 165.881 87.1686 165.48 87.2295 164.949C87.2904 164.412 87.3208 163.745 87.3208 162.948C87.3208 162.146 87.2904 161.476 87.2295 160.939C87.1686 160.403 87.0579 159.999 86.8975 159.728C86.737 159.451 86.5046 159.312 86.2002 159.312C85.8958 159.312 85.6606 159.451 85.4946 159.728C85.3341 159.999 85.2235 160.403 85.1626 160.939C85.1073 161.476 85.0796 162.146 85.0796 162.948Z" fill="#F4C00F"/>
<path d="M77.0195 167.622C77.0195 167.035 77.1911 166.623 77.5342 166.385C77.8828 166.147 78.3006 166.028 78.7876 166.028C79.2469 166.028 79.6453 166.147 79.9829 166.385C80.3205 166.623 80.4893 167.035 80.4893 167.622C80.4893 168.181 80.3205 168.585 79.9829 168.834C79.6453 169.083 79.2469 169.208 78.7876 169.208C78.3006 169.208 77.8828 169.083 77.5342 168.834C77.1911 168.585 77.0195 168.181 77.0195 167.622Z" fill="#F4C00F"/>
<path d="M75.708 162.948C75.708 163.922 75.6305 164.794 75.4756 165.563C75.3206 166.327 75.0716 166.977 74.7285 167.514C74.391 168.05 73.9427 168.46 73.3838 168.742C72.8249 169.024 72.1387 169.166 71.3252 169.166C70.3125 169.166 69.4824 168.919 68.835 168.427C68.1875 167.929 67.7088 167.218 67.3989 166.293C67.0946 165.364 66.9424 164.249 66.9424 162.948C66.9424 161.637 67.0807 160.516 67.3574 159.586C67.6396 158.651 68.1017 157.935 68.7437 157.437C69.3856 156.938 70.2461 156.689 71.3252 156.689C72.3379 156.689 73.1652 156.938 73.8071 157.437C74.4546 157.929 74.9333 158.643 75.2432 159.578C75.5531 160.508 75.708 161.631 75.708 162.948ZM70.2046 162.948C70.2046 163.74 70.2323 164.404 70.2876 164.94C70.3485 165.477 70.4591 165.881 70.6196 166.152C70.7856 166.418 71.0208 166.551 71.3252 166.551C71.6296 166.551 71.862 166.418 72.0225 166.152C72.1829 165.881 72.2936 165.48 72.3545 164.949C72.4154 164.412 72.4458 163.745 72.4458 162.948C72.4458 162.146 72.4154 161.476 72.3545 160.939C72.2936 160.403 72.1829 159.999 72.0225 159.728C71.862 159.451 71.6296 159.312 71.3252 159.312C71.0208 159.312 70.7856 159.451 70.6196 159.728C70.4591 159.999 70.3485 160.403 70.2876 160.939C70.2323 161.476 70.2046 162.146 70.2046 162.948Z" fill="#F4C00F"/>
<path d="M58.1187 169L62.2856 159.579H57.0312V156.864H65.7886V158.798L61.5137 169H58.1187Z" fill="#F4C00F"/>
<path d="M55.3296 159.495C55.3296 160.071 55.2051 160.569 54.9561 160.989C54.7126 161.404 54.3861 161.745 53.9766 162.01C53.5726 162.276 53.1299 162.475 52.6484 162.608V162.658C53.6169 162.779 54.3639 163.076 54.8896 163.546C55.4209 164.011 55.6865 164.672 55.6865 165.53C55.6865 166.194 55.5094 166.803 55.1553 167.356C54.8011 167.904 54.2505 168.344 53.5034 168.676C52.7563 169.002 51.7962 169.166 50.623 169.166C49.8372 169.166 49.1676 169.107 48.6143 168.991C48.0609 168.875 47.5241 168.715 47.0039 168.51V165.787C47.5296 166.058 48.0692 166.26 48.6226 166.393C49.1815 166.52 49.6906 166.584 50.1499 166.584C50.9468 166.584 51.4891 166.471 51.7769 166.244C52.0701 166.017 52.2168 165.712 52.2168 165.331C52.2168 165.054 52.1476 164.819 52.0093 164.625C51.8709 164.431 51.6136 164.282 51.2373 164.177C50.8665 164.072 50.3325 164.019 49.6353 164.019H48.8882V161.554H49.6519C50.2716 161.554 50.7614 161.498 51.1211 161.388C51.4863 161.277 51.7492 161.128 51.9097 160.939C52.0701 160.746 52.1504 160.524 52.1504 160.275C52.1504 159.954 52.0259 159.716 51.7769 159.562C51.5278 159.407 51.1986 159.329 50.7891 159.329C50.4238 159.329 50.0807 159.379 49.7598 159.479C49.4388 159.578 49.1593 159.689 48.9214 159.811C48.6834 159.932 48.5036 160.032 48.3818 160.109L47.0205 157.918C47.5241 157.575 48.0996 157.284 48.7471 157.046C49.4001 156.808 50.2523 156.689 51.3037 156.689C52.5544 156.689 53.5366 156.938 54.2505 157.437C54.9699 157.935 55.3296 158.621 55.3296 159.495Z" fill="#F4C00F"/>
<path d="M304.071 134.343C304.309 134.006 304.671 133.563 305.158 133.015L308.097 129.902H309.732L306.046 133.779L309.989 139H308.321L305.108 134.7L304.071 135.597V139H302.709V126.084H304.071V132.932C304.071 133.236 304.049 133.707 304.004 134.343H304.071Z" fill="black"/>
<path d="M298.493 139V133.115C298.493 132.373 298.324 131.82 297.986 131.455C297.649 131.089 297.12 130.907 296.401 130.907C295.449 130.907 294.752 131.164 294.309 131.679C293.866 132.193 293.645 133.043 293.645 134.227V139H292.267V129.902H293.388L293.612 131.147H293.678C293.96 130.699 294.356 130.353 294.865 130.11C295.374 129.861 295.942 129.736 296.567 129.736C297.663 129.736 298.487 130.002 299.041 130.533C299.594 131.059 299.871 131.903 299.871 133.065V139H298.493Z" fill="black"/>
<path d="M288.399 139L288.125 137.705H288.059C287.605 138.275 287.151 138.662 286.697 138.867C286.249 139.066 285.687 139.166 285.012 139.166C284.11 139.166 283.402 138.934 282.887 138.469C282.378 138.004 282.124 137.343 282.124 136.485C282.124 134.648 283.593 133.685 286.531 133.596L288.075 133.546V132.982C288.075 132.268 287.92 131.742 287.61 131.405C287.306 131.062 286.816 130.89 286.141 130.89C285.383 130.89 284.525 131.123 283.568 131.587L283.145 130.533C283.593 130.29 284.083 130.099 284.614 129.96C285.151 129.822 285.687 129.753 286.224 129.753C287.309 129.753 288.111 129.994 288.631 130.475C289.157 130.957 289.42 131.729 289.42 132.791V139H288.399ZM285.286 138.029C286.144 138.029 286.816 137.794 287.303 137.323C287.796 136.853 288.042 136.194 288.042 135.348V134.526L286.664 134.584C285.568 134.623 284.777 134.794 284.29 135.099C283.809 135.397 283.568 135.865 283.568 136.501C283.568 137 283.717 137.379 284.016 137.639C284.32 137.899 284.744 138.029 285.286 138.029Z" fill="black"/>
<path d="M271.988 126.864H275.417C277.027 126.864 278.192 127.105 278.911 127.586C279.631 128.068 279.99 128.829 279.99 129.869C279.99 130.589 279.788 131.183 279.384 131.654C278.986 132.119 278.402 132.42 277.633 132.559V132.642C279.476 132.957 280.397 133.925 280.397 135.547C280.397 136.632 280.029 137.478 279.293 138.087C278.562 138.696 277.539 139 276.222 139H271.988V126.864ZM273.399 132.061H275.724C276.72 132.061 277.436 131.906 277.874 131.596C278.311 131.28 278.529 130.752 278.529 130.01C278.529 129.33 278.286 128.84 277.799 128.541C277.312 128.237 276.537 128.084 275.475 128.084H273.399V132.061ZM273.399 133.256V137.796H275.931C276.911 137.796 277.647 137.608 278.139 137.232C278.637 136.85 278.886 136.255 278.886 135.447C278.886 134.695 278.632 134.141 278.123 133.787C277.619 133.433 276.85 133.256 275.815 133.256H273.399Z" fill="black"/>
<path d="M267.913 139L267.639 137.705H267.572C267.118 138.275 266.665 138.662 266.211 138.867C265.763 139.066 265.201 139.166 264.526 139.166C263.624 139.166 262.916 138.934 262.401 138.469C261.892 138.004 261.637 137.343 261.637 136.485C261.637 134.648 263.106 133.685 266.045 133.596L267.589 133.546V132.982C267.589 132.268 267.434 131.742 267.124 131.405C266.82 131.062 266.33 130.89 265.655 130.89C264.897 130.89 264.039 131.123 263.082 131.587L262.658 130.533C263.106 130.29 263.596 130.099 264.127 129.96C264.664 129.822 265.201 129.753 265.738 129.753C266.822 129.753 267.625 129.994 268.145 130.475C268.671 130.957 268.934 131.729 268.934 132.791V139H267.913ZM264.8 138.029C265.658 138.029 266.33 137.794 266.817 137.323C267.309 136.853 267.556 136.194 267.556 135.348V134.526L266.178 134.584C265.082 134.623 264.291 134.794 263.804 135.099C263.322 135.397 263.082 135.865 263.082 136.501C263.082 137 263.231 137.379 263.53 137.639C263.834 137.899 264.257 138.029 264.8 138.029Z" fill="black"/>
<path d="M255.594 134.343L252.432 129.902H254L256.399 133.389L258.79 129.902H260.342L257.18 134.343L260.508 139H258.948L256.399 135.314L253.826 139H252.266L255.594 134.343Z" fill="black"/>
<path d="M250.481 139H249.103V129.902H250.481V139ZM248.987 127.437C248.987 127.121 249.064 126.891 249.219 126.748C249.374 126.598 249.568 126.523 249.8 126.523C250.022 126.523 250.213 126.598 250.373 126.748C250.534 126.897 250.614 127.127 250.614 127.437C250.614 127.746 250.534 127.979 250.373 128.134C250.213 128.283 250.022 128.358 249.8 128.358C249.568 128.358 249.374 128.283 249.219 128.134C249.064 127.979 248.987 127.746 248.987 127.437Z" fill="black"/>
<path d="M245.235 139L244.961 137.705H244.895C244.441 138.275 243.987 138.662 243.533 138.867C243.085 139.066 242.523 139.166 241.848 139.166C240.946 139.166 240.238 138.934 239.723 138.469C239.214 138.004 238.959 137.343 238.959 136.485C238.959 134.648 240.429 133.685 243.367 133.596L244.911 133.546V132.982C244.911 132.268 244.756 131.742 244.446 131.405C244.142 131.062 243.652 130.89 242.977 130.89C242.219 130.89 241.361 131.123 240.404 131.587L239.98 130.533C240.429 130.29 240.918 130.099 241.45 129.96C241.986 129.822 242.523 129.753 243.06 129.753C244.145 129.753 244.947 129.994 245.467 130.475C245.993 130.957 246.256 131.729 246.256 132.791V139H245.235ZM242.122 138.029C242.98 138.029 243.652 137.794 244.139 137.323C244.632 136.853 244.878 136.194 244.878 135.348V134.526L243.5 134.584C242.404 134.623 241.613 134.794 241.126 135.099C240.645 135.397 240.404 135.865 240.404 136.501C240.404 137 240.553 137.379 240.852 137.639C241.156 137.899 241.58 138.029 242.122 138.029Z" fill="black"/>
<path d="M234.319 127.951C232.986 127.951 231.931 128.397 231.157 129.288C230.388 130.173 230.003 131.388 230.003 132.932C230.003 134.52 230.374 135.748 231.115 136.617C231.862 137.48 232.925 137.912 234.303 137.912C235.149 137.912 236.115 137.76 237.2 137.456V138.692C236.359 139.008 235.321 139.166 234.087 139.166C232.299 139.166 230.919 138.623 229.945 137.539C228.976 136.454 228.492 134.913 228.492 132.915C228.492 131.664 228.725 130.569 229.189 129.628C229.66 128.687 230.335 127.962 231.215 127.453C232.1 126.944 233.141 126.689 234.336 126.689C235.609 126.689 236.721 126.922 237.673 127.387L237.075 128.599C236.157 128.167 235.238 127.951 234.319 127.951Z" fill="black"/>
<path d="M222.25 136.518C222.25 137.365 221.935 138.018 221.304 138.477C220.673 138.936 219.787 139.166 218.647 139.166C217.441 139.166 216.5 138.975 215.825 138.593V137.315C216.262 137.536 216.73 137.711 217.228 137.838C217.732 137.965 218.216 138.029 218.681 138.029C219.4 138.029 219.953 137.915 220.341 137.688C220.728 137.456 220.922 137.105 220.922 136.634C220.922 136.28 220.767 135.979 220.457 135.729C220.153 135.475 219.555 135.176 218.664 134.833C217.817 134.518 217.214 134.244 216.854 134.011C216.5 133.773 216.235 133.505 216.058 133.206C215.886 132.907 215.8 132.55 215.8 132.135C215.8 131.394 216.102 130.81 216.705 130.384C217.308 129.952 218.136 129.736 219.187 129.736C220.167 129.736 221.124 129.936 222.059 130.334L221.569 131.455C220.656 131.078 219.829 130.89 219.087 130.89C218.434 130.89 217.942 130.993 217.61 131.197C217.278 131.402 217.112 131.684 217.112 132.044C217.112 132.287 217.173 132.495 217.294 132.667C217.422 132.838 217.624 133.001 217.9 133.156C218.177 133.311 218.708 133.535 219.494 133.829C220.573 134.222 221.301 134.617 221.677 135.016C222.059 135.414 222.25 135.915 222.25 136.518Z" fill="black"/>
<path d="M213.958 134.443C213.958 135.926 213.584 137.085 212.837 137.921C212.09 138.751 211.058 139.166 209.741 139.166C208.927 139.166 208.205 138.975 207.574 138.593C206.943 138.211 206.456 137.664 206.113 136.95C205.77 136.236 205.599 135.4 205.599 134.443C205.599 132.96 205.969 131.806 206.711 130.981C207.452 130.151 208.482 129.736 209.799 129.736C211.072 129.736 212.082 130.16 212.829 131.006C213.581 131.853 213.958 132.999 213.958 134.443ZM207.026 134.443C207.026 135.605 207.259 136.49 207.724 137.099C208.188 137.708 208.872 138.012 209.774 138.012C210.676 138.012 211.359 137.711 211.824 137.107C212.295 136.499 212.53 135.611 212.53 134.443C212.53 133.286 212.295 132.409 211.824 131.812C211.359 131.208 210.67 130.907 209.757 130.907C208.855 130.907 208.175 131.203 207.715 131.795C207.256 132.387 207.026 133.27 207.026 134.443Z" fill="black"/>
<path d="M203.183 139H201.805V129.902H203.183V139ZM201.689 127.437C201.689 127.121 201.766 126.891 201.921 126.748C202.076 126.598 202.27 126.523 202.502 126.523C202.724 126.523 202.915 126.598 203.075 126.748C203.236 126.897 203.316 127.127 203.316 127.437C203.316 127.746 203.236 127.979 203.075 128.134C202.915 128.283 202.724 128.358 202.502 128.358C202.27 128.358 202.076 128.283 201.921 128.134C201.766 127.979 201.689 127.746 201.689 127.437Z" fill="black"/>
<path d="M199.016 129.736C199.42 129.736 199.783 129.77 200.104 129.836L199.913 131.114C199.536 131.031 199.204 130.99 198.917 130.99C198.181 130.99 197.55 131.289 197.024 131.886C196.504 132.484 196.244 133.228 196.244 134.119V139H194.866V129.902H196.003L196.161 131.587H196.227C196.565 130.995 196.971 130.539 197.447 130.218C197.923 129.897 198.446 129.736 199.016 129.736Z" fill="black"/>
<path d="M190.998 139L190.724 137.705H190.657C190.203 138.275 189.75 138.662 189.296 138.867C188.848 139.066 188.286 139.166 187.611 139.166C186.709 139.166 186 138.934 185.486 138.469C184.977 138.004 184.722 137.343 184.722 136.485C184.722 134.648 186.191 133.685 189.13 133.596L190.674 133.546V132.982C190.674 132.268 190.519 131.742 190.209 131.405C189.905 131.062 189.415 130.89 188.74 130.89C187.982 130.89 187.124 131.123 186.167 131.587L185.743 130.533C186.191 130.29 186.681 130.099 187.212 129.96C187.749 129.822 188.286 129.753 188.823 129.753C189.907 129.753 190.71 129.994 191.23 130.475C191.756 130.957 192.019 131.729 192.019 132.791V139H190.998ZM187.885 138.029C188.743 138.029 189.415 137.794 189.902 137.323C190.394 136.853 190.641 136.194 190.641 135.348V134.526L189.263 134.584C188.167 134.623 187.376 134.794 186.889 135.099C186.407 135.397 186.167 135.865 186.167 136.501C186.167 137 186.316 137.379 186.615 137.639C186.919 137.899 187.342 138.029 187.885 138.029Z" fill="black"/>
<path d="M182.332 138.029C182.575 138.029 182.81 138.012 183.037 137.979C183.264 137.94 183.444 137.902 183.577 137.863V138.917C183.427 138.989 183.206 139.047 182.913 139.091C182.625 139.141 182.365 139.166 182.132 139.166C180.373 139.166 179.493 138.239 179.493 136.385V130.973H178.189V130.309L179.493 129.736L180.074 127.794H180.871V129.902H183.51V130.973H180.871V136.327C180.871 136.875 181.001 137.296 181.261 137.589C181.521 137.882 181.878 138.029 182.332 138.029Z" fill="black"/>
<path d="M175.176 139V133.115C175.176 132.373 175.007 131.82 174.67 131.455C174.332 131.089 173.804 130.907 173.084 130.907C172.133 130.907 171.435 131.164 170.993 131.679C170.55 132.193 170.329 133.043 170.329 134.227V139H168.951V129.902H170.071L170.295 131.147H170.362C170.644 130.699 171.04 130.353 171.549 130.11C172.058 129.861 172.625 129.736 173.25 129.736C174.346 129.736 175.171 130.002 175.724 130.533C176.278 131.059 176.554 131.903 176.554 133.065V139H175.176Z" fill="black"/>
<path d="M159.803 129.902V135.804C159.803 136.546 159.972 137.099 160.31 137.464C160.647 137.83 161.176 138.012 161.895 138.012C162.847 138.012 163.541 137.752 163.979 137.232C164.421 136.712 164.643 135.862 164.643 134.684V129.902H166.021V139H164.883L164.684 137.78H164.609C164.327 138.228 163.934 138.571 163.431 138.809C162.933 139.047 162.363 139.166 161.721 139.166C160.614 139.166 159.784 138.903 159.23 138.377C158.683 137.852 158.409 137.011 158.409 135.854V129.902H159.803Z" fill="black"/>
<path d="M155.586 139H154.208V126.084H155.586V139Z" fill="black"/>
<path d="M151.785 134.443C151.785 135.926 151.411 137.085 150.664 137.921C149.917 138.751 148.885 139.166 147.568 139.166C146.754 139.166 146.032 138.975 145.401 138.593C144.771 138.211 144.284 137.664 143.94 136.95C143.597 136.236 143.426 135.4 143.426 134.443C143.426 132.96 143.797 131.806 144.538 130.981C145.28 130.151 146.309 129.736 147.626 129.736C148.899 129.736 149.909 130.16 150.656 131.006C151.408 131.853 151.785 132.999 151.785 134.443ZM144.854 134.443C144.854 135.605 145.086 136.49 145.551 137.099C146.016 137.708 146.699 138.012 147.601 138.012C148.503 138.012 149.187 137.711 149.651 137.107C150.122 136.499 150.357 135.611 150.357 134.443C150.357 133.286 150.122 132.409 149.651 131.812C149.187 131.208 148.498 130.907 147.584 130.907C146.682 130.907 146.002 131.203 145.542 131.795C145.083 132.387 144.854 133.27 144.854 134.443Z" fill="black"/>
<path d="M137.408 139L133.955 129.902H135.432L137.391 135.298C137.834 136.56 138.094 137.379 138.171 137.755H138.238C138.299 137.462 138.49 136.856 138.811 135.937C139.137 135.013 139.865 133.001 140.994 129.902H142.471L139.018 139H137.408Z" fill="black"/>
<path d="M128.941 132.948C128.941 133.922 128.863 134.794 128.708 135.563C128.554 136.327 128.305 136.977 127.961 137.514C127.624 138.05 127.176 138.46 126.617 138.742C126.058 139.024 125.372 139.166 124.558 139.166C123.545 139.166 122.715 138.919 122.068 138.427C121.42 137.929 120.942 137.218 120.632 136.293C120.327 135.364 120.175 134.249 120.175 132.948C120.175 131.637 120.314 130.516 120.59 129.586C120.873 128.651 121.335 127.935 121.977 127.437C122.618 126.938 123.479 126.689 124.558 126.689C125.571 126.689 126.398 126.938 127.04 127.437C127.688 127.929 128.166 128.643 128.476 129.578C128.786 130.508 128.941 131.631 128.941 132.948ZM123.438 132.948C123.438 133.74 123.465 134.404 123.521 134.94C123.581 135.477 123.692 135.881 123.853 136.152C124.019 136.418 124.254 136.551 124.558 136.551C124.862 136.551 125.095 136.418 125.255 136.152C125.416 135.881 125.527 135.48 125.587 134.949C125.648 134.412 125.679 133.745 125.679 132.948C125.679 132.146 125.648 131.476 125.587 130.939C125.527 130.403 125.416 129.999 125.255 129.728C125.095 129.451 124.862 129.312 124.558 129.312C124.254 129.312 124.019 129.451 123.853 129.728C123.692 129.999 123.581 130.403 123.521 130.939C123.465 131.476 123.438 132.146 123.438 132.948Z" fill="#F4C00F"/>
<path d="M118.98 132.948C118.98 133.922 118.903 134.794 118.748 135.563C118.593 136.327 118.344 136.977 118 137.514C117.663 138.05 117.215 138.46 116.656 138.742C116.097 139.024 115.411 139.166 114.597 139.166C113.584 139.166 112.754 138.919 112.107 138.427C111.459 137.929 110.981 137.218 110.671 136.293C110.367 135.364 110.214 134.249 110.214 132.948C110.214 131.637 110.353 130.516 110.629 129.586C110.912 128.651 111.374 127.935 112.016 127.437C112.658 126.938 113.518 126.689 114.597 126.689C115.61 126.689 116.437 126.938 117.079 127.437C117.727 127.929 118.205 128.643 118.515 129.578C118.825 130.508 118.98 131.631 118.98 132.948ZM113.477 132.948C113.477 133.74 113.504 134.404 113.56 134.94C113.62 135.477 113.731 135.881 113.892 136.152C114.058 136.418 114.293 136.551 114.597 136.551C114.902 136.551 115.134 136.418 115.294 136.152C115.455 135.881 115.566 135.48 115.626 134.949C115.687 134.412 115.718 133.745 115.718 132.948C115.718 132.146 115.687 131.476 115.626 130.939C115.566 130.403 115.455 129.999 115.294 129.728C115.134 129.451 114.902 129.312 114.597 129.312C114.293 129.312 114.058 129.451 113.892 129.728C113.731 129.999 113.62 130.403 113.56 130.939C113.504 131.476 113.477 132.146 113.477 132.948Z" fill="#F4C00F"/>
<path d="M109.019 132.948C109.019 133.922 108.942 134.794 108.787 135.563C108.632 136.327 108.383 136.977 108.04 137.514C107.702 138.05 107.254 138.46 106.695 138.742C106.136 139.024 105.45 139.166 104.636 139.166C103.624 139.166 102.793 138.919 102.146 138.427C101.499 137.929 101.02 137.218 100.71 136.293C100.406 135.364 100.253 134.249 100.253 132.948C100.253 131.637 100.392 130.516 100.668 129.586C100.951 128.651 101.413 127.935 102.055 127.437C102.697 126.938 103.557 126.689 104.636 126.689C105.649 126.689 106.476 126.938 107.118 127.437C107.766 127.929 108.244 128.643 108.554 129.578C108.864 130.508 109.019 131.631 109.019 132.948ZM103.516 132.948C103.516 133.74 103.543 134.404 103.599 134.94C103.66 135.477 103.77 135.881 103.931 136.152C104.097 136.418 104.332 136.551 104.636 136.551C104.941 136.551 105.173 136.418 105.333 136.152C105.494 135.881 105.605 135.48 105.666 134.949C105.726 134.412 105.757 133.745 105.757 132.948C105.757 132.146 105.726 131.476 105.666 130.939C105.605 130.403 105.494 129.999 105.333 129.728C105.173 129.451 104.941 129.312 104.636 129.312C104.332 129.312 104.097 129.451 103.931 129.728C103.77 129.999 103.66 130.403 103.599 130.939C103.543 131.476 103.516 132.146 103.516 132.948Z" fill="#F4C00F"/>
<path d="M95.4556 137.622C95.4556 137.035 95.6271 136.623 95.9702 136.385C96.3188 136.147 96.7367 136.028 97.2236 136.028C97.6829 136.028 98.0814 136.147 98.4189 136.385C98.7565 136.623 98.9253 137.035 98.9253 137.622C98.9253 138.181 98.7565 138.585 98.4189 138.834C98.0814 139.083 97.6829 139.208 97.2236 139.208C96.7367 139.208 96.3188 139.083 95.9702 138.834C95.6271 138.585 95.4556 138.181 95.4556 137.622Z" fill="#F4C00F"/>
<path d="M86.5156 139L90.6826 129.579H85.4282V126.864H94.1855V128.798L89.9106 139H86.5156Z" fill="#F4C00F"/>
<path d="M82.6392 139H79.3105V132.999C79.3105 132.888 79.3105 132.686 79.3105 132.393C79.3105 132.094 79.3133 131.764 79.3188 131.405C79.3299 131.045 79.3438 130.721 79.3604 130.434C79.2165 130.605 79.0809 130.752 78.9536 130.874C78.8319 130.995 78.7129 131.109 78.5967 131.214L77.2188 132.351L75.5171 130.259L79.6841 126.864H82.6392V139Z" fill="#F4C00F"/>
</svg>
