<svg width="245" height="55" viewBox="0 0 245 55" fill="none" xmlns="http://www.w3.org/2000/svg">
<rect width="245" height="55" fill="#EDEDED"/>
<g clip-path="url(#clip0_133_15)">
<rect width="1440" height="2134" transform="translate(-598 -1849)" fill="white"/>
<rect x="-598" y="-54" width="1440" height="164" fill="#F4F4F4"/>
<path d="M67.6256 20.1421C65.2291 13.3545 59.6414 10.9602 52.7976 10.9602C49.207 10.9602 45.8407 11.7586 42.988 14.1527C40.1935 16.4907 38.7671 19.6844 38.7671 23.3334C38.7671 31.8883 45.6109 33.9417 52.5691 35.368C54.9607 35.878 59.4117 36.5084 59.4117 39.7605C59.4117 43.0089 55.9355 43.9802 53.3115 43.9802C49.2634 43.9802 46.2996 42.5526 45.158 38.4461L36.7125 40.385C38.4845 48.0281 45.158 51.2242 52.5115 51.2242C56.4488 51.2242 60.7237 50.483 63.8574 48.0282C66.8855 45.6878 68.7087 42.04 68.7087 38.2186C68.7087 34.3433 66.7663 31.0925 63.575 28.9823C60.8366 27.1567 56.5595 26.357 53.3695 25.6742C51.1422 25.2715 47.7198 24.5886 47.7198 21.7417C47.7198 18.7161 50.687 18.0869 53.1383 18.0869C56.6156 18.0869 58.7272 19.4001 59.8691 22.7081L67.6256 20.1421ZM97.8499 50.6525C97.3923 49.2284 97.2779 47.7996 97.2779 46.3172V32.8013C97.2779 29.324 97.5639 26.1291 94.6002 23.7348C92.2562 21.796 88.3809 21.1095 85.4194 21.1095C79.3157 21.1095 72.4731 23.1652 71.6187 30.1772L79.5436 30.9208C79.5436 28.0692 81.8829 26.6988 84.5594 26.6988C85.8165 26.6988 87.2418 27.0991 87.9842 28.0692C88.8411 29.1512 88.7243 30.6325 88.7243 31.8885V32.5714C85.1886 32.9157 80.5696 33.1422 77.2653 34.3982C73.4449 35.8234 70.7625 38.7359 70.7625 43.0094C70.7625 48.4863 74.7522 51.2245 79.8858 51.2245C84.2222 51.2245 86.7272 49.5681 89.127 46.1468C89.0687 47.6305 89.1819 49.1677 89.525 50.6525L97.8499 50.6525ZM88.7242 37.934C88.7242 39.9932 88.7837 41.6985 87.5861 43.5241C86.6148 45.0089 85.0752 45.9194 83.364 45.9194C81.0283 45.9194 79.6591 44.3786 79.6591 42.0989C79.6591 37.8768 85.5292 37.138 88.7243 36.7924L88.7242 37.934ZM110.4 34.3435C110.4 31.2643 110.966 26.8715 115.016 26.8715C119.637 26.8715 119.637 32.9156 119.637 36.1665C119.637 39.3018 119.637 45.3472 114.903 45.3472C113.362 45.3472 112.163 44.6084 111.367 43.3512C110.454 41.9295 110.4 40.1003 110.4 38.5059L110.4 34.3435ZM101.9 50.6528H106.46C106.975 49.1132 107.318 47.4568 108.342 46.2043C110.455 49.6828 112.451 51.2248 116.613 51.2248C125.336 51.2248 128.359 43.751 128.359 36.1671C128.359 29.3245 125.851 21.1105 117.582 21.1105C114.33 21.1105 111.938 22.4798 110.509 25.3326H110.284V11.5307H101.9L101.9 50.6528ZM157.16 50.6528C156.701 49.2288 156.593 47.8 156.593 46.3176V32.8016C156.593 29.3243 156.876 26.1295 153.906 23.7352C151.572 21.7964 147.692 21.1099 144.727 21.1099C138.627 21.1099 131.781 23.1656 130.928 30.1776L138.853 30.9212C138.853 28.0695 141.19 26.6991 143.871 26.6991C145.127 26.6991 146.55 27.0995 147.294 28.0695C148.148 29.1516 148.039 30.6329 148.039 31.8889V32.5717C144.501 32.9161 139.882 33.1425 136.571 34.3986C132.751 35.8238 130.067 38.7362 130.067 43.0097C130.067 48.4866 134.062 51.2249 139.194 51.2249C143.528 51.2249 146.038 49.5685 148.437 46.1472C148.378 47.6308 148.489 49.1681 148.835 50.6529L157.16 50.6528ZM148.039 37.9344C148.039 39.9936 148.094 41.6989 146.896 43.5245C145.925 45.0093 144.384 45.9197 142.677 45.9197C140.336 45.9197 138.968 44.3789 138.968 42.0993C138.968 37.8772 144.84 37.1384 148.039 36.7927L148.039 37.9344ZM185.959 50.6528V11.5301H177.577V24.7613C175.749 22.08 173.588 21.11 170.333 21.11C161.892 21.11 159.726 29.6087 159.726 36.5088C159.726 43.2384 162.006 51.225 170.161 51.225C173.869 51.225 176.265 49.2289 177.864 46.1473H177.978V50.653L185.959 50.6528ZM177.577 38.5632C177.577 39.9932 177.519 41.5293 176.836 42.8402C176.15 44.1486 174.726 45.1782 173.187 45.1782C169.021 45.1782 168.565 39.8741 168.565 36.7363C168.565 33.2567 168.739 26.9836 173.526 26.9836C177.348 26.9836 177.577 31.7741 177.577 34.5712V38.5632ZM216.758 37.5908C216.815 33.6571 216.186 29.5517 213.791 26.2449C211.392 22.9369 207.232 21.11 203.183 21.11C194.169 21.11 189.098 28.0107 189.098 36.5663C189.098 45.1786 194.742 51.225 203.408 51.225C213.219 51.225 216.583 42.6688 216.583 41.2413L208.824 40.6728C208.824 43.3517 206.263 45.2345 203.697 45.2345C200.048 45.2345 198.106 42.4413 198.106 39.0177L198.164 37.5913L216.758 37.5908ZM198.106 32.6311C198.395 29.3242 199.818 26.5834 203.525 26.5834C207.175 26.5834 208.202 29.4923 208.371 32.6311H198.106ZM220.463 50.6528H228.844V11.5301H220.463V50.6528ZM233.009 50.6528H241.389V11.5301H233.009V50.6528Z" fill="black"/>
<path d="M21.4726 5.63745C12.9012 5.63745 5.95222 12.5852 5.95222 21.1566C5.95222 29.7293 12.9006 36.677 21.4726 36.677C30.041 36.677 36.9942 29.7293 36.9942 21.1566C36.9942 12.5852 30.041 5.63745 21.4726 5.63745Z" fill="#006DFF"/>
<path d="M23.3897 19.182C23.8187 18.8662 24.0475 18.3038 24.0475 17.7819C24.0475 17.2135 23.777 16.6712 23.2753 16.3769C22.7593 16.0813 21.8071 16.1481 21.1946 16.1481H18.9996V19.5431H21.4687C22.1014 19.5431 22.8486 19.5896 23.3897 19.182ZM23.5013 22.5994C22.9818 22.3039 22.2584 22.3039 21.6709 22.3039H19.0004V26.0374H21.5124C22.169 26.0374 23.0056 26.0792 23.5704 25.6966C24.0936 25.357 24.3868 24.7242 24.3868 24.0914C24.3868 23.5004 24.0233 22.8913 23.5013 22.5994ZM26.3058 28.0732C25.1774 28.911 23.6639 28.911 22.3257 28.911H15.3816V13.3906H22.3257C23.5495 13.3906 24.8151 13.3906 25.8781 14.0687C27.121 14.8635 27.7788 15.9933 27.7788 17.4661C27.7788 19.2274 26.6014 20.4048 24.9736 20.8123V20.8552C26.8958 21.2413 28.2102 22.7118 28.2102 24.7233C28.2102 26.0794 27.3938 27.2831 26.3058 28.0732Z" fill="white"/>
</g>
<defs>
<clipPath id="clip0_133_15">
<rect width="1440" height="2134" fill="white" transform="translate(-598 -1849)"/>
</clipPath>
</defs>
</svg>
