<svg width="518" height="451" viewBox="0 0 518 451" fill="none" xmlns="http://www.w3.org/2000/svg">
<mask id="mask0_4782_37" style="mask-type:luminance" maskUnits="userSpaceOnUse" x="43" y="8" width="395" height="317">
<path d="M351.276 142.524L352.216 141.404C352.216 141.404 358.826 140.014 360.226 138.624L359.006 137.234C359.006 137.234 357.966 136.194 356.226 136.194C354.486 136.194 355.356 134.104 357.096 132.714C358.836 131.324 363.536 121.754 368.756 122.624L370.496 123.664C370.496 123.664 371.716 120.534 376.416 120.534C381.116 120.534 384.426 117.054 389.986 116.534C395.546 116.014 399.206 114.624 401.126 111.664C403.036 108.704 405.126 105.404 408.956 104.354C412.786 103.314 418.006 99.654 422.186 97.214C426.366 94.774 429.326 93.734 429.846 90.954C429.846 90.954 434.196 91.824 434.196 86.254C434.196 86.254 432.286 84.344 433.156 82.774C434.026 81.204 430.546 81.204 430.546 79.464C430.546 77.724 430.896 73.024 432.456 72.854C434.026 72.684 432.976 74.074 433.846 74.074C434.716 74.074 436.106 72.854 436.106 72.854C436.106 72.854 436.976 70.414 434.366 70.764C431.756 71.114 431.926 67.454 431.926 67.454C431.926 67.454 430.886 66.234 429.486 66.754C428.086 67.274 428.096 64.144 422.876 66.404C417.656 68.664 417.486 65.884 417.656 68.664C417.826 71.444 414.696 70.054 414.696 70.054C414.696 70.054 412.786 72.494 411.216 71.094C409.646 69.694 406.516 66.914 403.736 67.264C400.956 67.614 401.126 69.354 399.216 69.524C397.306 69.694 395.216 68.824 394.166 66.394C393.126 63.954 387.556 63.954 385.816 65.874C384.076 67.784 377.986 67.094 377.986 67.094C377.986 67.094 377.116 63.784 378.686 63.264C380.256 62.744 378.516 55.784 375.906 55.434C373.296 55.084 370.336 55.434 370.336 55.434C370.336 55.434 368.596 51.954 365.286 52.124C361.976 52.294 355.716 44.814 355.196 51.774V55.604L347.016 56.304L344.576 54.914L342.836 56.824L341.266 54.564C341.266 54.564 334.306 57.004 332.916 55.784C331.526 54.564 327.346 52.304 326.306 50.914C325.266 49.524 323.346 49.174 321.436 51.084C319.526 52.994 317.956 50.734 317.956 50.734L316.216 51.954L311.696 46.904C311.696 46.904 309.086 44.464 305.606 44.294C302.126 44.124 301.426 42.554 297.946 42.204C294.466 41.854 292.726 40.114 292.726 38.844C292.726 37.574 291.216 39.074 291.686 40.704C292.146 42.324 287.626 41.404 288.206 39.314C288.786 37.224 290.646 36.994 290.296 35.484C289.946 33.974 291.106 31.544 288.436 31.654C285.766 31.774 285.766 29.334 284.956 32.004C284.956 32.004 282.986 32.814 282.516 30.144C282.516 30.144 282.056 29.214 279.966 29.564C279.966 29.564 279.266 27.824 276.836 27.944C276.836 27.944 278.286 24.814 274.636 27.424C270.986 30.034 265.416 31.254 263.846 30.384C262.276 29.514 260.196 29.864 252.016 25.864C243.836 21.864 240.706 24.474 240.006 27.434C239.306 30.394 236.526 26.914 233.216 26.914C229.906 26.914 230.086 24.474 228.346 25.174C226.606 25.874 226.436 21.344 222.606 21.524C218.776 21.694 217.906 24.834 214.946 25.004C211.986 25.174 214.596 21.524 214.596 21.524C214.596 21.524 209.376 22.044 207.636 23.964C205.896 25.874 189.186 26.404 186.926 25.874C184.666 25.354 176.656 21.694 171.086 22.744C171.086 22.744 168.996 19.614 164.476 19.964C159.956 20.314 155.076 19.794 155.076 19.794C155.076 19.794 152.816 15.964 150.896 15.614C148.986 15.264 147.936 19.094 145.326 18.924C142.716 18.754 139.756 19.794 138.886 18.224C138.886 18.224 135.406 19.614 131.926 19.094C128.446 18.574 119.226 18.224 116.616 18.924C114.006 19.624 106.696 19.094 106.696 19.094C106.696 19.094 103.386 16.134 103.736 14.044C104.086 11.954 98.1656 10.914 97.1256 13.524C96.0856 16.134 95.5557 15.094 95.2157 12.654C94.8657 10.214 90.3457 10.914 89.8257 11.954C89.3057 12.994 86.5157 16.654 85.8257 13.694C85.8257 13.694 88.0856 10.914 87.0456 9.86401C86.0056 8.81401 85.8257 12.124 84.4357 12.304C83.0457 12.484 81.4757 12.474 82.5257 15.264C82.5257 15.264 79.3956 15.614 77.1357 17.704C74.8757 19.794 73.6556 21.534 75.3956 21.184C77.1357 20.834 79.0457 20.144 79.3957 20.664C79.7457 21.184 74.8757 22.234 75.5657 23.274C76.2657 24.314 78.5257 22.234 78.6956 23.624C78.8656 25.014 77.6557 25.884 77.6557 25.884L77.4856 28.494C77.4856 28.494 75.9157 28.844 75.7457 26.054C75.7457 26.054 73.6557 26.924 73.1357 25.534C73.1357 25.534 72.6156 28.664 70.8756 27.274C70.8756 27.274 67.0456 30.404 64.7856 29.014C64.7856 29.014 61.3057 32.144 58.3457 29.364C55.3857 26.584 53.1257 30.934 53.9957 30.934C54.8657 30.934 56.7757 31.284 55.3857 33.024C53.9957 34.764 53.2956 31.984 51.7356 33.024C50.1656 34.064 46.6857 34.064 46.5157 35.464C46.3457 36.854 48.7757 35.634 48.9557 36.334C49.1257 37.034 45.6457 38.424 44.6057 39.464C43.5657 40.504 45.4757 41.724 45.3057 43.114C45.1357 44.504 44.2657 46.424 45.1357 46.074C46.0057 45.724 48.0956 45.034 48.4456 46.074C48.7956 47.114 48.4456 47.984 49.4856 49.204C50.5256 50.424 47.0456 52.334 48.9656 52.514C50.8756 52.684 51.4057 50.074 53.3157 50.254C55.2257 50.424 54.1856 48.514 55.5757 48.514C56.9657 48.514 58.0957 48.604 58.3557 49.554C58.6157 50.514 55.3057 52.074 54.4357 53.124C53.5657 54.164 51.0456 56.344 51.1256 58.864C51.2156 61.384 51.8257 59.994 51.9057 61.304C51.9957 62.614 53.9957 57.994 54.6057 57.994C55.2157 57.994 56.8656 55.814 57.2156 55.034C57.5656 54.254 60.1756 54.684 59.7357 56.944C59.3056 59.204 58.3457 60.864 58.9557 64.684C59.5657 68.514 56.5157 64.944 56.3457 66.164C56.1757 67.384 56.4357 68.604 58.1757 68.424C59.9157 68.254 61.4857 65.374 62.1757 65.644C62.8657 65.914 63.2156 67.474 60.7856 69.904C58.3556 72.334 57.4756 70.944 57.3956 72.164C57.3056 73.384 60.6156 74.074 62.7856 71.814C64.9656 69.554 65.0457 69.634 65.8357 71.204C66.6157 72.774 61.3956 73.724 59.3056 77.294C57.2156 80.864 56.4357 79.294 56.4357 82.424C56.4357 85.554 56.8756 88.344 56.8756 88.344C56.8756 88.344 62.5357 83.994 63.8357 81.554C65.1457 79.114 68.1856 79.814 69.0556 80.334C69.9256 80.854 75.2356 79.204 75.6656 78.334C76.0956 77.464 78.0156 77.204 78.0156 80.334C78.0156 80.334 81.4057 80.424 81.6656 82.334C81.9256 84.244 78.3557 82.854 78.2757 86.334C78.1856 89.814 76.8856 89.814 78.9756 90.774C81.0656 91.734 85.5857 91.814 85.9357 89.034C86.2857 86.254 87.3257 86.074 87.5057 87.204C87.6757 88.334 89.0757 89.464 91.0757 88.514C93.0757 87.554 94.4657 89.034 96.4657 88.864C98.4657 88.694 106.036 93.044 108.296 86.864C108.296 86.864 109.256 82.944 112.386 85.294C115.516 87.644 120.396 86.774 120.916 86.424C121.436 86.074 121.696 84.684 122.746 84.774C123.786 84.864 123.966 87.474 127.096 86.954C130.226 86.434 130.316 86.954 130.316 89.394C130.316 91.834 128.836 95.744 129.536 96.874C130.236 98.004 131.106 97.834 134.326 97.834C137.546 97.834 144.076 100.094 137.106 110.104C130.146 120.114 128.926 115.764 126.926 116.544C124.926 117.324 123.796 118.114 123.876 119.764C123.966 121.414 121.786 125.764 117.956 125.424C117.956 125.424 122.136 130.124 121.606 132.474C121.606 132.474 120.296 135.694 121.696 139.174C123.086 142.654 120.306 144.224 120.306 144.224C120.306 144.224 122.396 144.394 120.826 147.874C119.256 151.354 121.526 152.924 121.526 152.924C121.526 152.924 118.916 154.664 118.916 157.104C118.916 157.104 114.216 156.404 114.216 159.884C114.216 163.364 117.696 161.454 117.866 163.014C118.036 164.574 120.306 168.234 118.036 172.584C115.776 176.934 114.906 175.364 114.906 175.364C114.906 175.364 115.606 181.624 110.556 181.804C105.506 181.974 102.896 182.674 99.4156 181.454C99.4156 181.454 101.506 187.374 105.156 188.414C108.806 189.454 103.416 192.414 108.286 195.374C108.286 195.374 107.246 200.424 110.726 200.594C110.726 200.594 108.986 204.074 114.726 203.374C120.466 202.674 113.686 211.554 113.686 211.554C113.686 211.554 115.076 212.254 114.386 213.464C113.686 214.684 110.906 216.424 110.206 215.554C109.506 214.684 104.466 219.904 107.596 222.344C107.596 222.344 104.466 226.694 106.376 230.004C108.286 233.314 107.596 236.264 110.376 236.614C113.156 236.964 109.676 241.664 116.466 237.484C116.466 237.484 118.906 236.964 115.766 243.574C112.636 250.184 113.676 245.314 110.026 246.354C106.376 247.394 106.026 252.274 106.026 252.274C106.026 252.274 103.936 258.194 101.846 257.324C101.846 257.324 101.326 261.674 100.276 262.194C99.2356 262.714 96.6256 264.454 100.976 269.154L102.366 278.554C102.366 278.554 115.936 275.244 122.726 281.514C129.516 287.784 133.516 290.394 134.556 294.044C135.596 297.694 131.426 298.564 138.036 301.354C144.646 304.134 138.206 305.704 139.076 308.314C139.946 310.924 144.296 315.974 144.296 315.974C144.296 315.974 146.556 317.714 149.516 317.544C152.476 317.374 152.476 323.284 158.736 323.114C164.996 322.944 163.256 318.414 165.176 318.414C167.096 318.414 165.176 311.104 173.706 307.974C182.236 304.844 179.966 305.364 182.236 304.844C184.496 304.324 186.936 306.414 192.326 301.014C197.716 295.614 197.546 297.704 201.376 297.364C205.206 297.014 208.856 298.404 212.866 296.144C216.866 293.884 220.346 297.184 223.306 297.364C226.266 297.534 229.746 297.714 232.186 295.624C234.626 293.534 244.716 296.324 248.026 298.934C251.336 301.544 252.206 293.014 255.856 293.014C259.506 293.014 262.996 292.494 263.866 295.794C264.736 299.104 269.436 295.094 271.346 289.874C273.256 284.654 277.606 271.774 281.786 271.084C285.966 270.384 291.006 266.564 291.006 265.514C291.006 264.464 296.576 262.904 296.926 264.644C296.926 264.644 299.706 263.424 301.976 263.424C304.246 263.424 307.196 263.074 310.676 262.204C310.676 262.204 306.846 258.894 307.026 257.154C307.196 255.414 310.156 248.514 312.016 248.514C313.876 248.514 312.246 246.314 312.366 244.804C312.486 243.294 314.456 239.354 315.496 239.354C316.536 239.354 318.046 238.074 317.356 234.944C316.656 231.814 320.836 232.744 320.836 232.744C320.836 232.744 322.576 227.524 325.356 227.524C328.136 227.524 331.506 226.134 331.386 223.344C331.266 220.564 336.836 221.144 338.116 219.514C339.396 217.884 340.786 218.934 340.556 217.774C340.326 216.614 340.556 216.844 337.886 214.994C335.216 213.134 333.596 213.134 332.786 213.134C331.976 213.134 322.456 205.124 326.526 198.744C326.526 198.744 319.796 190.974 326.176 181.574C332.556 172.174 331.856 175.314 332.556 172.174C333.256 169.044 336.616 164.164 337.896 163.824C339.176 163.474 341.026 160.464 342.766 156.634C344.186 153.514 347.676 150.014 348.616 147.314C349.216 145.574 350.166 143.974 351.346 142.554L351.276 142.524Z" fill="white"/>
<path d="M351.276 142.524L352.216 141.404C352.216 141.404 358.826 140.014 360.226 138.624L359.006 137.234C359.006 137.234 357.966 136.194 356.226 136.194C354.486 136.194 355.356 134.104 357.096 132.714C358.836 131.324 363.536 121.754 368.756 122.624L370.496 123.664C370.496 123.664 371.716 120.534 376.416 120.534C381.116 120.534 384.426 117.054 389.986 116.534C395.546 116.014 399.206 114.624 401.126 111.664C403.036 108.704 405.126 105.404 408.956 104.354C412.786 103.314 418.006 99.654 422.186 97.214C426.366 94.774 429.326 93.734 429.846 90.954C429.846 90.954 434.196 91.824 434.196 86.254C434.196 86.254 432.286 84.344 433.156 82.774C434.026 81.204 430.546 81.204 430.546 79.464C430.546 77.724 430.896 73.024 432.456 72.854C434.026 72.684 432.976 74.074 433.846 74.074C434.716 74.074 436.106 72.854 436.106 72.854C436.106 72.854 436.976 70.414 434.366 70.764C431.756 71.114 431.926 67.454 431.926 67.454C431.926 67.454 430.886 66.234 429.486 66.754C428.086 67.274 428.096 64.144 422.876 66.404C417.656 68.664 417.486 65.884 417.656 68.664C417.826 71.444 414.696 70.054 414.696 70.054C414.696 70.054 412.786 72.494 411.216 71.094C409.646 69.694 406.516 66.914 403.736 67.264C400.956 67.614 401.126 69.354 399.216 69.524C397.306 69.694 395.216 68.824 394.166 66.394C393.126 63.954 387.556 63.954 385.816 65.874C384.076 67.784 377.986 67.094 377.986 67.094C377.986 67.094 377.116 63.784 378.686 63.264C380.256 62.744 378.516 55.784 375.906 55.434C373.296 55.084 370.336 55.434 370.336 55.434C370.336 55.434 368.596 51.954 365.286 52.124C361.976 52.294 355.716 44.814 355.196 51.774V55.604L347.016 56.304L344.576 54.914L342.836 56.824L341.266 54.564C341.266 54.564 334.306 57.004 332.916 55.784C331.526 54.564 327.346 52.304 326.306 50.914C325.266 49.524 323.346 49.174 321.436 51.084C319.526 52.994 317.956 50.734 317.956 50.734L316.216 51.954L311.696 46.904C311.696 46.904 309.086 44.464 305.606 44.294C302.126 44.124 301.426 42.554 297.946 42.204C294.466 41.854 292.726 40.114 292.726 38.844C292.726 37.574 291.216 39.074 291.686 40.704C292.146 42.324 287.626 41.404 288.206 39.314C288.786 37.224 290.646 36.994 290.296 35.484C289.946 33.974 291.106 31.544 288.436 31.654C285.766 31.774 285.766 29.334 284.956 32.004C284.956 32.004 282.986 32.814 282.516 30.144C282.516 30.144 282.056 29.214 279.966 29.564C279.966 29.564 279.266 27.824 276.836 27.944C276.836 27.944 278.286 24.814 274.636 27.424C270.986 30.034 265.416 31.254 263.846 30.384C262.276 29.514 260.196 29.864 252.016 25.864C243.836 21.864 240.706 24.474 240.006 27.434C239.306 30.394 236.526 26.914 233.216 26.914C229.906 26.914 230.086 24.474 228.346 25.174C226.606 25.874 226.436 21.344 222.606 21.524C218.776 21.694 217.906 24.834 214.946 25.004C211.986 25.174 214.596 21.524 214.596 21.524C214.596 21.524 209.376 22.044 207.636 23.964C205.896 25.874 189.186 26.404 186.926 25.874C184.666 25.354 176.656 21.694 171.086 22.744C171.086 22.744 168.996 19.614 164.476 19.964C159.956 20.314 155.076 19.794 155.076 19.794C155.076 19.794 152.816 15.964 150.896 15.614C148.986 15.264 147.936 19.094 145.326 18.924C142.716 18.754 139.756 19.794 138.886 18.224C138.886 18.224 135.406 19.614 131.926 19.094C128.446 18.574 119.226 18.224 116.616 18.924C114.006 19.624 106.696 19.094 106.696 19.094C106.696 19.094 103.386 16.134 103.736 14.044C104.086 11.954 98.1656 10.914 97.1256 13.524C96.0856 16.134 95.5557 15.094 95.2157 12.654C94.8657 10.214 90.3457 10.914 89.8257 11.954C89.3057 12.994 86.5157 16.654 85.8257 13.694C85.8257 13.694 88.0856 10.914 87.0456 9.86401C86.0056 8.81401 85.8257 12.124 84.4357 12.304C83.0457 12.484 81.4757 12.474 82.5257 15.264C82.5257 15.264 79.3957 15.614 77.1357 17.704C74.8757 19.794 73.6556 21.534 75.3956 21.184C77.1356 20.834 79.0457 20.144 79.3957 20.664C79.7457 21.184 74.8757 22.234 75.5657 23.274C76.2657 24.314 78.5256 22.234 78.6956 23.624C78.8656 25.014 77.6557 25.884 77.6557 25.884L77.4856 28.494C77.4856 28.494 75.9157 28.844 75.7457 26.054C75.7457 26.054 73.6557 26.924 73.1357 25.534C73.1357 25.534 72.6156 28.664 70.8756 27.274C70.8756 27.274 67.0456 30.404 64.7856 29.014C64.7856 29.014 61.3057 32.144 58.3457 29.364C55.3857 26.584 53.1257 30.934 53.9957 30.934C54.8657 30.934 56.7757 31.284 55.3857 33.024C53.9957 34.764 53.2956 31.984 51.7356 33.024C50.1656 34.064 46.6857 34.064 46.5157 35.464C46.3457 36.854 48.7757 35.634 48.9557 36.334C49.1257 37.034 45.6457 38.424 44.6057 39.464C43.5657 40.504 45.4757 41.724 45.3057 43.114C45.1357 44.504 44.2657 46.424 45.1357 46.074C46.0057 45.724 48.0956 45.034 48.4456 46.074C48.7956 47.114 48.4456 47.984 49.4856 49.204C50.5256 50.424 47.0456 52.334 48.9656 52.514C50.8756 52.684 51.4057 50.074 53.3157 50.254C55.2257 50.424 54.1857 48.514 55.5757 48.514C56.9657 48.514 58.0957 48.604 58.3557 49.554C58.6157 50.514 55.3057 52.074 54.4357 53.124C53.5657 54.164 51.0456 56.344 51.1256 58.864C51.2156 61.384 51.8257 59.994 51.9057 61.304C51.9957 62.614 53.9957 57.994 54.6057 57.994C55.2157 57.994 56.8656 55.814 57.2156 55.034C57.5656 54.254 60.1757 54.684 59.7357 56.944C59.3057 59.204 58.3457 60.864 58.9557 64.684C59.5657 68.514 56.5157 64.944 56.3457 66.164C56.1757 67.384 56.4357 68.604 58.1757 68.424C59.9157 68.254 61.4857 65.374 62.1757 65.644C62.8657 65.914 63.2156 67.474 60.7856 69.904C58.3556 72.334 57.4756 70.944 57.3956 72.164C57.3056 73.384 60.6156 74.074 62.7856 71.814C64.9656 69.554 65.0457 69.634 65.8357 71.204C66.6157 72.774 61.3956 73.724 59.3056 77.294C57.2156 80.864 56.4357 79.294 56.4357 82.424C56.4357 85.554 56.8756 88.344 56.8756 88.344C56.8756 88.344 62.5357 83.994 63.8357 81.554C65.1457 79.114 68.1856 79.814 69.0556 80.334C69.9256 80.854 75.2356 79.204 75.6656 78.334C76.0956 77.464 78.0156 77.204 78.0156 80.334C78.0156 80.334 81.4056 80.424 81.6656 82.334C81.9256 84.244 78.3557 82.854 78.2757 86.334C78.1857 89.814 76.8856 89.814 78.9756 90.774C81.0656 91.734 85.5857 91.814 85.9357 89.034C86.2857 86.254 87.3257 86.074 87.5057 87.204C87.6757 88.334 89.0757 89.464 91.0757 88.514C93.0757 87.554 94.4657 89.034 96.4657 88.864C98.4657 88.694 106.036 93.044 108.296 86.864C108.296 86.864 109.256 82.944 112.386 85.294C115.516 87.644 120.396 86.774 120.916 86.424C121.436 86.074 121.696 84.684 122.746 84.774C123.786 84.864 123.966 87.474 127.096 86.954C130.226 86.434 130.316 86.954 130.316 89.394C130.316 91.834 128.836 95.744 129.536 96.874C130.236 98.004 131.106 97.834 134.326 97.834C137.546 97.834 144.076 100.094 137.106 110.104C130.146 120.114 128.926 115.764 126.926 116.544C124.926 117.324 123.796 118.114 123.876 119.764C123.966 121.414 121.786 125.764 117.956 125.424C117.956 125.424 122.136 130.124 121.606 132.474C121.606 132.474 120.296 135.694 121.696 139.174C123.086 142.654 120.306 144.224 120.306 144.224C120.306 144.224 122.396 144.394 120.826 147.874C119.256 151.354 121.526 152.924 121.526 152.924C121.526 152.924 118.916 154.664 118.916 157.104C118.916 157.104 114.216 156.404 114.216 159.884C114.216 163.364 117.696 161.454 117.866 163.014C118.036 164.574 120.306 168.234 118.036 172.584C115.776 176.934 114.906 175.364 114.906 175.364C114.906 175.364 115.606 181.624 110.556 181.804C105.506 181.974 102.896 182.674 99.4156 181.454C99.4156 181.454 101.506 187.374 105.156 188.414C108.806 189.454 103.416 192.414 108.286 195.374C108.286 195.374 107.246 200.424 110.726 200.594C110.726 200.594 108.986 204.074 114.726 203.374C120.466 202.674 113.686 211.554 113.686 211.554C113.686 211.554 115.076 212.254 114.386 213.464C113.686 214.684 110.906 216.424 110.206 215.554C109.506 214.684 104.466 219.904 107.596 222.344C107.596 222.344 104.466 226.694 106.376 230.004C108.286 233.314 107.596 236.264 110.376 236.614C113.156 236.964 109.676 241.664 116.466 237.484C116.466 237.484 118.906 236.964 115.766 243.574C112.636 250.184 113.676 245.314 110.026 246.354C106.376 247.394 106.026 252.274 106.026 252.274C106.026 252.274 103.936 258.194 101.846 257.324C101.846 257.324 101.326 261.674 100.276 262.194C99.2357 262.714 96.6256 264.454 100.976 269.154L102.366 278.554C102.366 278.554 115.936 275.244 122.726 281.514C129.516 287.784 133.516 290.394 134.556 294.044C135.596 297.694 131.426 298.564 138.036 301.354C144.646 304.134 138.206 305.704 139.076 308.314C139.946 310.924 144.296 315.974 144.296 315.974C144.296 315.974 146.556 317.714 149.516 317.544C152.476 317.374 152.476 323.284 158.736 323.114C164.996 322.944 163.256 318.414 165.176 318.414C167.096 318.414 165.176 311.104 173.706 307.974C182.236 304.844 179.966 305.364 182.236 304.844C184.496 304.324 186.936 306.414 192.326 301.014C197.716 295.614 197.546 297.704 201.376 297.364C205.206 297.014 208.856 298.404 212.866 296.144C216.866 293.884 220.346 297.184 223.306 297.364C226.266 297.534 229.746 297.714 232.186 295.624C234.626 293.534 244.716 296.324 248.026 298.934C251.336 301.544 252.206 293.014 255.856 293.014C259.506 293.014 262.996 292.494 263.866 295.794C264.736 299.104 269.436 295.094 271.346 289.874C273.256 284.654 277.606 271.774 281.786 271.084C285.966 270.384 291.006 266.564 291.006 265.514C291.006 264.464 296.576 262.904 296.926 264.644C296.926 264.644 299.706 263.424 301.976 263.424C304.246 263.424 307.196 263.074 310.676 262.204C310.676 262.204 306.846 258.894 307.026 257.154C307.196 255.414 310.156 248.514 312.016 248.514C313.876 248.514 312.246 246.314 312.366 244.804C312.486 243.294 314.456 239.354 315.496 239.354C316.536 239.354 318.046 238.074 317.356 234.944C316.656 231.814 320.836 232.744 320.836 232.744C320.836 232.744 322.576 227.524 325.356 227.524C328.136 227.524 331.506 226.134 331.386 223.344C331.266 220.564 336.836 221.144 338.116 219.514C339.396 217.884 340.786 218.934 340.556 217.774C340.326 216.614 340.556 216.844 337.886 214.994C335.216 213.134 333.596 213.134 332.786 213.134C331.976 213.134 322.456 205.124 326.526 198.744C326.526 198.744 319.796 190.974 326.176 181.574C332.556 172.174 331.856 175.314 332.556 172.174C333.256 169.044 336.616 164.164 337.896 163.824C339.176 163.474 341.026 160.464 342.766 156.634C344.186 153.514 347.676 150.014 348.616 147.314C349.216 145.574 350.166 143.974 351.346 142.554L351.276 142.524Z" stroke="white" stroke-width="2" stroke-linecap="round" stroke-linejoin="round"/>
</mask>
<g mask="url(#mask0_4782_37)">
<path d="M327.288 23.2222L317.854 72.5694V78.3749L154.573 90.7118L117.562 10.1597L327.288 23.2222Z" fill="white"/>
<path d="M346.592 57.8501L350.997 72.5425L339.444 107.187L339.145 108.086L340.091 108.141L378.804 110.395L393.374 141.25L368.086 190.841L330.327 173.954L329.938 173.78L329.596 174.036L273.068 216.437L221.872 242.54L191.856 232.535L191.771 232.506L191.683 232.5L140.356 228.52L142.845 181.738L142.855 181.533L142.757 181.352L121.119 141.605C121.115 141.567 121.109 141.513 121.102 141.444C121.084 141.293 121.059 141.069 121.027 140.776C120.964 140.19 120.875 139.328 120.771 138.229C120.562 136.032 120.295 132.886 120.059 129.099C119.586 121.522 119.241 111.384 119.744 101.128C120.248 90.8609 121.601 80.5273 124.5 72.5317C127.408 64.5097 131.782 59.068 138.191 58.1196C151.866 56.0964 162.911 53.2459 173.586 50.6909C184.265 48.1349 194.584 45.8718 206.874 44.9907C212.017 44.622 216.316 45.3103 221.667 46.0308C226.958 46.7433 233.202 47.4716 242.13 47.1772C249.928 53.6664 257.592 56.5863 264.72 57.2749C271.905 57.9689 278.496 56.3925 284.074 53.9995C289.651 51.6073 294.235 48.3917 297.421 45.7788C299.015 44.4713 300.263 43.3115 301.114 42.4771C301.54 42.0599 301.866 41.724 302.088 41.4907C302.199 41.3741 302.283 41.2826 302.341 41.2202C302.368 41.1908 302.388 41.1673 302.403 41.1509L311.405 33.0737L346.592 57.8501Z" fill="white" stroke="white" stroke-width="1.45139"/>
<path d="M333.587 77.3584C333.587 77.3584 332.325 80.3918 321.962 79.6371C321.962 79.6371 322.978 84.4412 319.683 85.9506C319.683 85.9506 319.436 90.4935 323.471 92.0174C327.506 93.5269 321.701 98.0842 319.93 98.0842C318.159 98.0842 319.422 106.923 321.439 108.447C323.457 109.957 320.177 117.039 328.769 113.745C328.769 113.745 329.785 121.568 333.312 114.761C336.839 107.954 337.855 111.481 337.855 112.743C337.855 114.006 333.05 121.582 343.66 118.302C343.66 118.302 345.678 109.463 351.236 109.463C356.795 109.463 358.813 112.743 362.601 112.235C366.389 111.727 362.354 120.566 366.389 120.566C370.424 120.566 372.702 124.108 377.507 118.288C382.311 112.467 390.134 113.237 390.134 113.237L389.887 95.0508L333.558 77.3729L333.587 77.3584Z" fill="white"/>
<path d="M346.215 78.1134C346.215 78.1134 349.248 92.758 359.858 92.5112C370.468 92.2645 364.662 97.8088 367.187 97.562C369.713 97.3153 372.238 96.0526 374.517 98.8248C376.796 101.597 377.797 106.648 384.865 106.401C384.865 106.401 389.669 107.156 385.881 110.436C382.093 113.716 380.584 107.91 379.321 109.681C378.058 111.452 374.023 112.207 374.27 116.241C374.517 120.276 380.076 123.571 380.076 123.571L397.754 129.638L410.134 119.783L416.956 86.9524L434.125 65.9943L412.659 41.7416L386.143 33.1494L365.939 45.5298L346.244 78.1134H346.215Z" fill="white"/>
<path d="M318.943 26.8366L300.249 39.9717C300.249 39.9717 301.512 51.8441 307.579 48.3027C313.645 44.7613 316.417 46.532 316.417 46.532C316.417 46.532 316.664 50.8281 318.943 52.3375C321.222 53.847 318.435 56.3724 323.747 58.8978C329.045 61.4232 323.994 63.9487 317.68 60.9152C311.367 57.8818 313.384 68.2448 316.925 67.2288C320.467 66.2128 317.433 72.0329 321.976 72.2796C326.519 72.5264 328.29 78.3464 330.061 78.3464C331.831 78.3464 331.077 87.6934 334.603 83.644C338.145 79.6091 336.882 88.1868 339.901 88.1868C342.92 88.1868 352.281 92.2217 352.281 86.6774C352.281 81.1331 357.085 82.6425 357.579 76.3145C358.087 70.0009 360.104 66.7208 360.351 62.1634C360.598 57.6206 368.682 64.9356 368.943 57.8673C369.205 50.7991 376.012 52.8165 375.01 47.5044C373.994 42.2068 390.163 40.1749 382.833 34.3693C375.504 28.5638 324.24 16.4302 324.24 16.4302L318.943 26.7931V26.8366Z" fill="white"/>
<path d="M101.089 2.979C109.451 -1.84706 119.548 1.88403 127.78 7.09326C131.862 9.67613 135.408 12.5758 137.937 14.8325C139.2 15.96 140.207 16.9249 140.896 17.6069C141.241 17.9478 141.507 18.2178 141.686 18.4019C141.7 18.4163 141.713 18.4305 141.726 18.4438C141.725 18.4479 141.725 18.4524 141.725 18.4565C141.699 18.6765 141.658 18.9976 141.596 19.395C141.472 20.1911 141.266 21.2899 140.938 22.4995C140.272 24.9495 139.136 27.729 137.275 29.436C136.274 30.3547 135.617 31.0776 135.333 31.7173C135.179 32.0651 135.114 32.4308 135.197 32.8042C135.278 33.1656 135.477 33.4468 135.683 33.6665C135.884 33.8823 136.135 34.083 136.375 34.269C136.628 34.4653 136.884 34.6565 137.163 34.8882C137.708 35.3411 138.302 35.9179 138.837 36.7603C139.973 38.5478 140.533 40.0773 141.05 41.2866C141.301 41.8749 141.563 42.4359 141.897 42.8735C142.251 43.3358 142.709 43.6921 143.343 43.8179C143.344 43.8182 143.346 43.8176 143.348 43.8179C143.361 43.844 143.388 43.9082 143.413 44.0464C143.444 44.2194 143.459 44.4077 143.487 44.6753C143.513 44.9228 143.55 45.2183 143.628 45.5161C143.792 46.1402 144.148 46.7985 144.964 47.2065C145.728 47.589 146.801 47.7011 148.285 47.5278C149.717 47.3607 150.548 47.408 150.932 47.5483C150.962 47.5595 150.985 47.5709 151.003 47.5796C150.994 47.6101 150.98 47.6547 150.951 47.7144C150.749 48.1324 150.174 48.794 149.098 49.7124C148.048 50.6086 146.599 51.686 144.759 52.9419C143.797 53.598 143.112 54.2285 142.698 54.853C142.273 55.4953 142.115 56.1675 142.292 56.8276C142.461 57.4566 142.902 57.9446 143.393 58.3218C143.888 58.7031 144.502 59.0227 145.139 59.2964C146.404 59.8406 147.914 60.2677 149.027 60.6196C149.603 60.8018 150.057 60.9589 150.361 61.1021C150.41 61.125 150.45 61.1473 150.483 61.1655C150.465 61.2875 150.436 61.4553 150.389 61.6704C150.303 62.0586 150.177 62.5531 150.012 63.1206C149.681 64.2558 149.205 65.6626 148.626 67.0679C148.046 68.4767 147.371 69.8621 146.647 70.9673C145.905 72.1017 145.187 72.8209 144.564 73.0708C142.557 73.8756 141.784 75.5912 141.507 77.1519C141.238 78.664 141.409 80.2559 141.409 80.813C141.409 81.1027 141.332 81.7282 141.243 82.6265C141.158 83.484 141.071 84.523 141.071 85.5278C141.071 86.5161 141.155 87.5482 141.454 88.3569C141.606 88.7667 141.829 89.1669 142.17 89.4683C142.526 89.783 142.972 89.9565 143.484 89.9565C144.251 89.9565 145.19 89.7679 146.093 89.564C147.031 89.3521 147.949 89.1187 148.786 88.9751C149.651 88.8269 150.257 88.8103 150.601 88.9224C150.744 88.9693 150.787 89.0216 150.806 89.0522C150.829 89.0911 150.878 89.2073 150.848 89.4849C150.684 90.9699 150.489 92.8915 150.961 94.4468C151.204 95.2493 151.636 95.9984 152.371 96.5396C153.104 97.0797 154.066 97.3589 155.27 97.3589C155.687 97.3589 155.928 97.465 156.072 97.5835C156.219 97.7041 156.341 97.8988 156.409 98.2056C156.553 98.8508 156.417 99.8174 156.017 100.877C155.623 101.919 155.016 102.941 154.351 103.668C153.65 104.434 153.045 104.707 152.649 104.664C151.939 104.585 151.401 104.418 150.743 104.278C150.116 104.144 149.428 104.052 148.667 104.27C147.91 104.487 147.172 104.983 146.363 105.836C145.556 106.688 144.642 107.935 143.535 109.719L143.534 109.72C141.252 113.412 140.655 117.689 140.612 120.995C140.591 122.654 140.709 124.087 140.833 125.107C140.895 125.617 140.958 126.026 141.007 126.308C141.009 126.321 141.011 126.334 141.014 126.347C140.766 126.522 140.359 126.789 139.737 127.137C138.459 127.852 136.282 128.911 132.728 130.249C125.618 132.924 113.029 136.702 91.165 141.074C80.2291 143.259 72.486 144.345 66.7783 144.532C61.0746 144.719 57.4619 144.007 54.748 142.65C52.031 141.291 50.1347 139.249 47.9092 136.582C45.6924 133.924 43.1725 130.678 39.2559 127.099C35.5336 123.701 33.0143 118.475 31.6309 111.793C30.2485 105.117 30.0134 97.0473 30.8086 88.0415C32.399 70.0307 38.1012 48.3817 46.8408 26.8765C51.1975 16.1562 55.6407 10.0179 60.0625 6.62451C64.4543 3.25425 68.8954 2.5387 73.4014 2.82471C75.6671 2.96854 77.944 3.36521 80.2471 3.81006C82.5364 4.25224 84.8669 4.74527 87.1768 5.05908C91.814 5.68905 96.5083 5.62033 101.089 2.979Z" fill="white" stroke="white" stroke-width="1.45139"/>
<path d="M214.545 231.685C214.545 231.685 223.297 230.335 225.996 232.701C228.696 235.052 229.364 227.984 233.747 227.984C238.13 227.984 241.497 230.001 243.181 223.601C244.864 217.2 246.548 224.951 248.899 225.618C251.251 226.286 254.618 228.652 258.333 222.919C260.06 220.248 263.892 222.077 290.496 192.948C306.171 175.778 301.773 170.045 301.773 170.045C301.773 170.045 302.789 164.994 312.557 162.643C322.325 160.291 325.692 163.992 329.393 160.291C333.094 156.59 333.094 164.326 340.845 163.325C348.595 162.309 339.829 170.059 348.929 172.425C358.015 174.776 360.38 179.493 364.415 174.109C368.45 168.724 374.851 162.991 378.566 165.357C382.267 167.708 409.887 220.248 409.887 220.248L416.956 256.954L433.124 298.043L414.938 334.414L372.166 366.069L338.145 363.036L251.265 340.467L222.977 307.462V279.175L214.559 231.685H214.545Z" fill="white"/>
<path d="M351.947 361.337C351.947 361.337 356.664 348.87 360.031 346.185C363.399 343.485 364.415 337.767 366.766 337.433C369.117 337.099 372.151 338.783 374.168 337.099C376.185 335.416 380.569 332.048 383.254 334.4C385.953 336.751 394.038 337.433 394.371 331.7C394.705 325.967 393.704 319.915 396.723 317.549C399.756 315.198 405.141 313.166 407.84 311.831C410.54 310.481 419.626 320.582 419.626 323.282C419.626 325.982 428.044 359.988 428.044 359.988L442.528 377.506L430.409 388.957L392.688 398.043L369.117 388.957L351.947 361.337Z" fill="white"/>
<path d="M138.1 218.202C138.1 218.202 158.985 229.653 164.036 220.901C169.087 212.149 176.155 207.099 181.206 209.784C186.257 212.483 186.925 220.901 191.308 218.884C195.691 216.866 200.393 218.216 203.093 221.583C205.793 224.951 210.495 227.65 214.878 222.933L218.579 222.599C218.579 222.599 215.546 230.001 220.263 231.351C220.263 231.351 218.579 243.47 214.878 244.82C214.878 244.82 220.597 243.804 220.945 247.52C221.279 251.221 223.979 253.92 227.346 250.553C230.713 247.186 230.045 259.639 226.678 262.005C226.678 262.005 236.78 276.156 239.813 274.806C242.847 273.456 247.564 270.423 247.564 270.423C247.564 270.423 250.597 276.141 246.214 280.858L249.915 287.259L242.847 285.575C242.847 285.575 240.147 288.942 240.495 292.643C240.829 296.344 234.429 293.311 234.429 293.311C234.429 293.311 235.445 299.378 239.146 299.712C242.847 300.046 240.829 305.096 236.446 305.096L232.063 315.532L207.142 364.023L112.846 345.169L138.1 218.202Z" fill="white"/>
<path d="M147.94 349.132C147.94 349.132 159.305 349.886 162.338 349.886C165.371 349.886 163.354 354.429 170.93 350.902C178.506 347.361 173.456 358.986 183.049 356.969C192.643 354.952 193.151 353.936 194.167 347.883C195.183 341.817 202.759 344.85 202.759 344.85C202.759 344.85 206.301 350.409 208.826 345.358C211.351 340.307 204.283 333.732 210.335 328.681C216.402 323.631 224.98 318.58 224.98 314.53C224.98 310.481 234.066 312.513 237.607 316.548C241.148 320.583 245.183 323.108 250.742 325.634C256.301 328.159 258.826 335.735 266.911 334.472L268.928 331.192C268.928 331.192 282.571 335.735 286.867 332.455C291.163 329.175 296.969 334.472 300.002 330.946C303.036 327.404 304.806 334.734 307.07 331.7C309.349 328.667 309.843 327.912 313.892 328.42C317.927 328.928 322.484 325.895 322.484 325.895L326.272 331.192C326.272 331.192 323.5 326.896 327.027 326.649C330.568 326.403 335.111 324.632 335.111 322.615C335.111 322.615 336.882 327.419 343.442 325.895C343.442 325.895 342.934 331.7 346.476 331.7C350.017 331.7 346.476 337.259 349.248 338.014C352.02 338.769 351.265 342.818 349.495 343.819C347.724 344.835 345.46 349.625 345.46 349.625C345.46 349.625 347.985 352.397 350.264 351.904C352.542 351.396 355.315 351.904 358.087 355.184C360.859 358.464 364.154 361.744 368.45 360.989C372.746 360.235 372.746 362.005 369.712 368.812C366.679 375.619 376.781 386.998 381.831 386.49C386.882 385.982 390.67 399.117 390.67 399.117L359.349 446.854L291.99 446.186L225.314 475.823L157.955 444.836L112.831 380.177L124.95 351.889L147.94 349.117V349.132Z" fill="white"/>
<path d="M253.441 223.427C253.441 223.427 255.125 222.251 254.951 219.551C254.777 216.852 256.126 220.219 257.984 220.059C259.842 219.885 259.668 214.501 259.668 214.501C259.668 214.501 264.719 215.342 264.719 213.485C264.719 211.627 264.385 205.575 266.069 203.891C267.752 202.207 275.328 195.139 275.503 192.106C275.503 192.106 280.728 192.614 280.728 190.422C280.728 188.231 281.903 179.304 286.446 178.971C290.989 178.637 296.548 168.695 299.407 168.695C302.266 168.695 307.825 174.921 307.317 178.288C306.809 181.656 304.966 183.006 304.966 185.197C304.966 187.389 300.757 190.422 301.932 191.264C303.108 192.106 306.141 194.805 304.458 197.824C304.458 197.824 309.334 197.49 309.509 200.524C309.683 203.557 310.858 206.75 315.067 207.258C315.067 207.258 315.401 212.817 318.609 212.643C321.802 212.469 316.417 219.043 316.417 221.395C316.417 223.746 318.275 221.729 319.959 221.061C321.642 220.393 324.342 231.845 321.816 232.687C319.291 233.528 315.924 234.704 314.574 233.862C313.224 233.02 307.665 233.528 307.506 234.704C307.331 235.88 304.472 234.036 302.455 235.72C300.437 237.404 297.23 238.913 296.388 239.755C295.546 240.597 291.163 241.438 291.163 240.263C291.163 239.087 295.88 237.229 296.881 234.878C297.897 232.527 293.34 231.177 291.163 230.495C288.971 229.827 288.304 227.97 285.604 227.97C282.905 227.97 279.378 226.112 278.696 226.112C278.013 226.112 272.803 220.393 269.61 222.411C266.417 224.428 264.051 225.444 262.875 220.393C262.875 220.393 258.666 227.97 253.441 223.427Z" fill="white"/>
<path d="M502.196 78.6924L508.129 107.834L476.897 181.387L476.855 181.485L476.844 181.593L472.828 218.794C472.823 218.801 472.819 218.809 472.813 218.816C472.733 218.931 472.611 219.101 472.452 219.322C472.134 219.764 471.664 220.409 471.059 221.216C469.847 222.83 468.092 225.095 465.923 227.69C461.581 232.887 455.596 239.393 448.998 244.675C442.378 249.974 435.247 253.956 428.602 254.275C425.301 254.434 422.113 253.69 419.14 251.74C416.159 249.786 413.35 246.593 410.866 241.79L408.204 232.487L408.112 232.167L407.811 232.027L407.599 232.487C407.795 232.061 407.809 232.03 407.81 232.027L407.798 232.021C407.79 232.018 407.778 232.012 407.763 232.005C407.731 231.99 407.683 231.969 407.621 231.94C407.497 231.883 407.315 231.798 407.081 231.689C406.614 231.472 405.941 231.158 405.122 230.771C403.483 229.999 401.255 228.937 398.902 227.781C394.163 225.453 389.015 222.789 387.057 221.322C385.195 219.927 383.582 217.221 382.854 214.672C382.492 213.403 382.37 212.241 382.507 211.355C382.642 210.478 383.005 209.984 383.524 209.775C384.55 209.364 385.18 208.669 385.507 207.854C385.822 207.065 385.837 206.212 385.745 205.473C385.665 204.829 385.498 204.23 385.34 203.761H390.494L390.669 203.286L390.67 203.285V203.283C390.67 203.282 390.672 203.28 390.673 203.277C390.675 203.272 390.677 203.264 390.681 203.255C390.688 203.236 390.697 203.207 390.71 203.171C390.735 203.099 390.772 202.994 390.816 202.859C390.905 202.59 391.026 202.202 391.161 201.719C391.43 200.754 391.754 199.405 391.97 197.871C392.397 194.836 392.426 190.925 390.614 187.848C387.34 182.287 385.512 173.885 373.47 168.027L373.181 167.888L372.883 168.007L372.881 168.008C372.878 168.009 372.873 168.01 372.866 168.013C372.853 168.018 372.832 168.027 372.804 168.037C372.747 168.058 372.662 168.089 372.552 168.127C372.331 168.203 372.011 168.306 371.621 168.411C370.837 168.623 369.79 168.841 368.707 168.88C367.617 168.919 366.548 168.776 365.676 168.319C364.831 167.877 364.118 167.114 363.75 165.787C363.348 164.34 363.268 163.229 363.354 162.33C363.439 161.434 363.691 160.712 364.006 160.035C364.166 159.692 364.338 159.365 364.519 159.022C364.696 158.686 364.88 158.333 365.044 157.965C365.377 157.217 365.634 156.388 365.634 155.371C365.634 153.646 366.012 153.18 366.271 153.017C366.428 152.918 366.648 152.856 366.986 152.829C367.336 152.801 367.7 152.815 368.178 152.815C368.179 152.817 368.18 152.82 368.183 152.822C368.228 152.871 368.294 152.979 368.377 153.191C368.46 153.404 368.527 153.629 368.622 153.916C368.709 154.181 368.817 154.488 368.967 154.768C369.116 155.047 369.334 155.354 369.671 155.565C370.026 155.789 370.442 155.861 370.891 155.79C371.713 155.659 372.703 155.035 373.972 153.894L374.764 153.181L373.853 152.725C373.84 152.714 373.816 152.694 373.785 152.659C373.697 152.562 373.54 152.352 373.361 151.954C373.001 151.152 372.569 149.61 372.44 146.761C372.375 145.313 372.446 144.557 372.566 144.167C372.622 143.988 372.672 143.94 372.677 143.936C372.68 143.933 372.683 143.93 372.69 143.927C372.7 143.922 372.722 143.914 372.763 143.906C373.077 143.846 374.564 144.109 375.797 142.735C376.271 142.207 376.872 141.666 377.533 141.102C378.18 140.549 378.898 139.961 379.538 139.385C380.181 138.806 380.794 138.195 381.25 137.562C381.703 136.932 382.05 136.214 382.05 135.429C382.05 134.64 381.701 133.949 381.266 133.391C380.829 132.831 380.264 132.352 379.729 131.968C379.253 131.626 378.78 131.346 378.402 131.141C378.44 131.059 378.477 130.971 378.511 130.876C378.791 130.077 378.899 128.799 378.51 126.718C378.124 124.655 377.695 122.764 377.541 121.257C377.464 120.506 377.466 119.922 377.551 119.504C377.634 119.094 377.771 118.961 377.875 118.907C377.906 118.892 378.078 118.848 378.6 119.121C379.088 119.377 379.631 119.771 380.297 120.221C380.93 120.648 381.655 121.111 382.406 121.392C383.165 121.676 384.029 121.804 384.889 121.458C385.323 121.283 385.86 121.286 386.483 121.452C387.104 121.617 387.749 121.928 388.349 122.288C388.944 122.646 389.469 123.036 389.847 123.339C390.035 123.489 390.184 123.617 390.286 123.706C390.337 123.75 390.376 123.786 390.401 123.809C390.414 123.82 390.424 123.829 390.43 123.834C390.432 123.836 390.434 123.838 390.436 123.839L390.437 123.84L390.656 124.046L390.958 124.035L397.779 123.788L398.064 123.778L398.286 123.557C398.298 123.544 398.316 123.526 398.339 123.503C398.385 123.456 398.451 123.388 398.534 123.302C398.701 123.129 398.936 122.88 399.213 122.577C399.766 121.972 400.492 121.142 401.173 120.251C401.847 119.368 402.505 118.389 402.895 117.492C403.089 117.045 403.236 116.576 403.263 116.124C403.29 115.663 403.195 115.168 402.845 114.765C402.414 114.268 401.875 113.822 401.343 113.411C400.788 112.982 400.264 112.609 399.752 112.188C398.728 111.349 398.061 110.561 397.968 109.61C397.847 108.376 397.722 105.889 397.845 103.691C397.906 102.587 398.028 101.599 398.228 100.889C398.328 100.531 398.436 100.289 398.535 100.145C398.633 100.001 398.667 100.028 398.614 100.036L398.613 100.035C399.052 99.9725 399.39 99.7376 399.609 99.3984C399.807 99.0924 399.892 98.7309 399.935 98.4053C400.019 97.7658 399.974 96.9204 399.959 96.1494C399.943 95.3332 399.953 94.5194 400.104 93.7852C400.254 93.0584 400.532 92.4646 401.01 92.0361L401.012 92.0342C401.784 91.3371 402.215 90.4011 402.479 89.4688C402.743 88.5377 402.859 87.5407 402.954 86.6777C403.053 85.7744 403.126 85.0663 403.281 84.5713C403.357 84.3299 403.431 84.2154 403.477 84.168C403.498 84.1454 403.507 84.1368 403.559 84.1367C404.519 84.1367 406.205 84.2106 407.762 83.5381C409.394 82.8328 410.799 81.3571 411.34 78.4971C411.559 77.352 412.072 76.6886 412.699 76.2666C413.356 75.8248 414.201 75.6074 415.14 75.4863C415.604 75.4264 416.074 75.392 416.54 75.3604C416.997 75.3294 417.463 75.3002 417.885 75.25C418.303 75.2002 418.728 75.1243 419.099 74.9805C419.473 74.835 419.857 74.5949 420.096 74.1787C420.332 73.7677 420.717 73.2198 421.201 72.5078C421.674 71.8133 422.215 70.9959 422.72 70.1006C423.719 68.3263 424.622 66.155 424.486 63.9189C424.445 63.2377 424.801 62.6049 425.569 61.9951C426.34 61.3832 427.427 60.8798 428.58 60.4814C429.723 60.0866 430.88 59.8113 431.757 59.6348C432.194 59.5468 432.559 59.4841 432.812 59.4434C432.914 59.4271 432.997 59.4137 433.061 59.4043L502.196 78.6924Z" fill="white" stroke="white" stroke-width="1.45139"/>
<path d="M425.026 362.513C425.026 362.513 414.924 356.954 416.941 345.343C418.959 333.717 411.382 337.767 411.89 332.208C412.398 326.649 410.874 316.039 415.432 316.039C419.989 316.039 419.467 302.396 416.448 301.395C413.429 300.393 401.295 297.854 403.821 288.768C406.346 279.682 411.905 276.649 395.736 273.615C379.568 270.582 394.721 259.464 402.297 254.413C409.873 249.363 401.789 240.262 413.414 238.245C425.04 236.228 415.94 245.313 421.499 245.313C427.057 245.313 418.973 236.721 425.04 236.228C431.107 235.72 435.65 233.194 436.158 226.126C436.158 226.126 443.4 225.458 443.734 222.251C444.068 219.043 443.56 218.042 445.418 218.042C447.275 218.042 447.769 213.833 445.084 211.641C442.384 209.449 446.593 208.941 447.943 209.29V202.889C447.943 202.889 443.4 202.047 444.242 198.506C445.084 194.965 446.259 199.348 447.943 198.68C449.627 198.012 449.119 190.93 451.31 190.93C453.502 190.93 454.852 194.297 459.554 193.963C464.271 193.629 463.937 195.139 466.796 194.137C469.656 193.121 473.705 192.962 475.04 193.803C476.39 194.645 492.051 213.165 492.051 213.165L484.649 296.852L495.766 326.156L425.04 362.527L425.026 362.513Z" fill="white"/>
</g>
<path d="M440.36 204.165C440.36 204.165 436.05 201.379 438.836 199.1C441.623 196.821 444.148 199.855 444.148 195.558C444.148 191.262 445.672 192.264 452.508 186.69C457.501 182.627 459.257 182.061 461.318 182.061C462.857 182.061 464.323 182.786 465.252 184.02C465.469 184.325 465.702 184.63 465.948 184.92C468.648 188.287 463.162 187.953 463.916 188.461C464.671 188.969 470.752 192.264 472.276 189.985C473.8 187.706 479.374 191.756 477.588 194.804C475.818 197.837 474.802 197.344 475.31 200.624C475.818 203.918 468.212 214.557 464.671 214.557C461.13 214.557 460.868 214.31 460.868 210.755C460.868 210.755 452.77 213.294 452.508 209.492C452.262 205.689 449.214 202.656 445.164 205.181C441.115 207.721 440.346 204.165 440.346 204.165H440.36Z" fill="white"/>
<path d="M492.044 174.528C492.044 174.528 488.749 174.528 488.749 176.298C488.749 178.069 492.29 176.545 492.29 178.838C492.29 181.132 492.29 181.117 496.093 181.117C499.896 181.117 507.748 188.214 508.256 184.412C508.764 180.609 507.24 180.101 504.961 176.313C502.682 172.51 492.044 174.542 492.044 174.542V174.528Z" fill="white"/>
<path d="M412 233.498C412 233.498 412 230.464 413.524 228.941C415.048 227.417 414.787 224.383 418.343 223.367C421.884 222.351 425.44 221.089 425.44 225.399C425.44 229.71 422.653 228.186 422.406 230.218C422.16 232.25 418.604 230.464 418.096 234.02C417.588 237.562 414.801 231.234 412.015 233.512L412 233.498Z" fill="white"/>
<path d="M421.13 240.595C421.13 240.595 418.852 238.563 418.59 240.842C418.344 243.121 417.067 246.923 419.098 245.661C421.13 244.398 424.411 246.415 424.164 244.398C423.917 242.366 421.13 240.595 421.13 240.595Z" fill="white"/>
<path d="M66.1296 400.94C66.1296 400.94 66.8989 396.281 63.5462 395.758C60.1935 395.236 66.9134 394.466 70.2661 395.758C73.6333 397.05 78.8003 395.236 80.092 392.391C81.3837 389.546 85.2735 389.546 87.3344 388.762C89.4099 387.993 89.6566 389.793 85.2589 391.868C85.2589 391.868 84.7364 395.236 81.1225 395.497C81.1225 395.497 82.4142 398.342 80.3532 399.633C78.2778 400.925 80.8757 406.876 73.3721 408.951C73.3721 408.951 70.2661 411.273 70.0048 406.876C69.7436 402.478 66.1296 403.77 66.1296 400.925V400.94Z" fill="white"/>
<path d="M50.0186 404.046C50.0186 404.046 50.5991 402.304 52.3408 402.304C54.0825 402.304 56.9997 402.115 56.6079 403.857C56.216 405.598 56.0273 408.704 52.5295 408.313C49.0316 407.921 50.004 404.046 50.004 404.046H50.0186Z" fill="white"/>
<path d="M31.3985 387.862C31.3114 386.469 31.0647 385.09 30.6583 383.755C30.339 382.695 30.0342 381.375 30.0342 380.184C30.0342 377.659 30.2229 377.47 33.3288 378.443C36.4348 379.415 34.0981 376.89 36.2461 377.078C38.3797 377.267 39.1634 382.129 37.7991 382.507C36.4348 382.899 36.0574 386.193 36.0574 387.166C36.0574 388.138 35.2882 391.433 33.1402 391.433C31.8774 391.433 31.5001 389.473 31.3985 387.862Z" fill="white"/>
<path d="M90.5856 418.443C90.5856 418.443 89.4244 415.148 92.5304 412.623C95.6364 410.098 93.5028 406.992 96.6088 406.803C99.7148 406.614 99.1342 408.356 102.037 408.356C104.94 408.356 103.59 411.07 103.779 413.407C103.967 415.743 104.94 419.619 102.226 420.968C99.5116 422.333 100.092 425.235 98.1473 424.655C96.2024 424.074 90.9629 422.521 90.5856 418.443Z" fill="white"/>
<path d="M113.561 401.81C113.561 401.81 122.676 400.649 122.676 394.045C122.676 387.441 124.809 394.045 127.915 384.35C131.021 374.655 132.763 379.11 134.316 379.11C135.869 379.11 135.085 386.295 135.085 386.295C135.085 386.295 133.721 388.037 134.896 389.212C136.057 390.373 132.371 396.977 127.712 397.354C123.053 397.746 118.975 404.336 118.975 404.336C118.975 404.336 113.343 405.7 113.546 401.81H113.561Z" fill="white"/>
<path d="M137.044 373.479C137.044 373.479 132.588 374.843 134.127 371.534C135.68 368.24 132.966 366.875 137.233 365.903C141.5 364.93 144.795 366.483 144.795 364.35C144.795 362.216 145.956 360.852 146.536 361.055L147.117 361.244C147.117 361.244 149.439 361.244 147.697 365.322C146.449 368.239 144.504 370.17 142.138 371.099C140.702 371.665 139.337 372.405 138.017 373.203C137.741 373.363 137.421 373.479 137.03 373.479H137.044Z" fill="white"/>
<path d="M24.7361 419.822C24.7361 419.822 22.1526 417.747 24.7361 417.616C27.3196 417.485 26.681 414.51 29.7869 414.902C32.8929 415.294 28.7564 417.616 28.7564 420.199C28.7564 422.783 27.9872 422.783 24.7506 419.807L24.7361 419.822Z" fill="white"/>
<path d="M160.296 353H7V443.407H160.296V353Z" stroke="white" stroke-width="1.45139" stroke-miterlimit="10"/>
<circle cx="146.052" cy="300.045" r="13.7882" fill="#FF5D5D"/>
<circle cx="328.698" cy="86.8507" r="13.7882" fill="#FF5D5D"/>
<circle cx="220.764" cy="154.764" r="66.7639" fill="#A1BEE4" fill-opacity="0.49"/>
<rect x="238" y="121" width="261" height="61.5878" rx="29.0278" fill="#214068"/>
<path d="M422.723 164.474L422.615 162.854C422.363 163.406 421.991 163.838 421.499 164.15C421.007 164.45 420.383 164.6 419.627 164.6C418.979 164.6 418.427 164.498 417.971 164.294C417.515 164.09 417.161 163.802 416.909 163.43C416.669 163.046 416.549 162.596 416.549 162.08C416.549 161.324 416.831 160.706 417.395 160.226C417.959 159.734 418.775 159.434 419.843 159.326L422.615 159.02V158.3C422.615 157.796 422.429 157.394 422.057 157.094C421.685 156.782 421.181 156.626 420.545 156.626C419.921 156.626 419.399 156.77 418.979 157.058C418.571 157.346 418.289 157.76 418.133 158.3L416.909 157.868C417.149 157.076 417.587 156.458 418.223 156.014C418.871 155.57 419.657 155.348 420.581 155.348C421.649 155.348 422.477 155.624 423.065 156.176C423.665 156.716 423.965 157.454 423.965 158.39V164.474H422.723ZM422.615 160.172L419.825 160.496C419.225 160.568 418.769 160.736 418.457 161C418.145 161.252 417.989 161.588 417.989 162.008C417.989 162.428 418.139 162.764 418.439 163.016C418.751 163.268 419.195 163.394 419.771 163.394C420.431 163.394 420.971 163.262 421.391 162.998C421.811 162.734 422.117 162.38 422.309 161.936C422.513 161.48 422.615 160.988 422.615 160.46V160.172Z" fill="white"/>
<path d="M412.718 155.474H414.05V164.474H412.718V155.474ZM413.402 153.674C413.126 153.674 412.898 153.584 412.718 153.404C412.538 153.224 412.448 153.002 412.448 152.738C412.448 152.462 412.538 152.234 412.718 152.054C412.898 151.874 413.126 151.784 413.402 151.784C413.654 151.784 413.87 151.874 414.05 152.054C414.242 152.234 414.338 152.462 414.338 152.738C414.338 153.002 414.242 153.224 414.05 153.404C413.87 153.584 413.654 153.674 413.402 153.674Z" fill="white"/>
<path d="M406.281 164.6C405.405 164.6 404.637 164.408 403.977 164.024C403.317 163.64 402.801 163.106 402.429 162.422C402.069 161.726 401.889 160.922 401.889 160.01C401.889 159.086 402.069 158.276 402.429 157.58C402.801 156.872 403.317 156.326 403.977 155.942C404.637 155.546 405.405 155.348 406.281 155.348C407.205 155.348 408.015 155.564 408.711 155.996C409.407 156.416 409.911 157.004 410.223 157.76L408.981 158.192C408.801 157.712 408.471 157.334 407.991 157.058C407.523 156.77 406.977 156.626 406.353 156.626C405.741 156.626 405.207 156.764 404.751 157.04C404.307 157.316 403.959 157.706 403.707 158.21C403.467 158.714 403.347 159.308 403.347 159.992C403.347 161 403.617 161.81 404.157 162.422C404.697 163.022 405.417 163.322 406.317 163.322C406.929 163.322 407.475 163.184 407.955 162.908C408.435 162.632 408.789 162.26 409.017 161.792L410.241 162.224C409.917 162.968 409.407 163.55 408.711 163.97C408.015 164.39 407.205 164.6 406.281 164.6Z" fill="white"/>
<path d="M392.304 155.474H393.546L393.618 156.752C393.906 156.308 394.284 155.966 394.752 155.726C395.22 155.474 395.766 155.348 396.39 155.348C397.074 155.348 397.674 155.498 398.19 155.798C398.706 156.086 399.108 156.524 399.396 157.112C399.684 157.688 399.828 158.414 399.828 159.29V164.474H398.478V159.452C398.478 158.516 398.274 157.808 397.866 157.328C397.47 156.836 396.894 156.59 396.138 156.59C395.358 156.59 394.746 156.848 394.302 157.364C393.87 157.88 393.654 158.642 393.654 159.65V164.474H392.304V155.474Z" fill="white"/>
<path d="M388.428 164.474L388.32 162.854C388.068 163.406 387.696 163.838 387.204 164.15C386.712 164.45 386.088 164.6 385.332 164.6C384.684 164.6 384.132 164.498 383.676 164.294C383.22 164.09 382.866 163.802 382.614 163.43C382.374 163.046 382.254 162.596 382.254 162.08C382.254 161.324 382.536 160.706 383.1 160.226C383.664 159.734 384.48 159.434 385.548 159.326L388.32 159.02V158.3C388.32 157.796 388.134 157.394 387.762 157.094C387.39 156.782 386.886 156.626 386.25 156.626C385.626 156.626 385.104 156.77 384.684 157.058C384.276 157.346 383.994 157.76 383.838 158.3L382.614 157.868C382.854 157.076 383.292 156.458 383.928 156.014C384.576 155.57 385.362 155.348 386.286 155.348C387.354 155.348 388.182 155.624 388.77 156.176C389.37 156.716 389.67 157.454 389.67 158.39V164.474H388.428ZM388.32 160.172L385.53 160.496C384.93 160.568 384.474 160.736 384.162 161C383.85 161.252 383.694 161.588 383.694 162.008C383.694 162.428 383.844 162.764 384.144 163.016C384.456 163.268 384.9 163.394 385.476 163.394C386.136 163.394 386.676 163.262 387.096 162.998C387.516 162.734 387.822 162.38 388.014 161.936C388.218 161.48 388.32 160.988 388.32 160.46V160.172Z" fill="white"/>
<path d="M378.698 151.514H380.048V164.474H378.698V151.514Z" fill="white"/>
<path d="M374.328 155.474H375.66V164.474H374.328V155.474ZM375.012 153.674C374.736 153.674 374.508 153.584 374.328 153.404C374.148 153.224 374.058 153.002 374.058 152.738C374.058 152.462 374.148 152.234 374.328 152.054C374.508 151.874 374.736 151.784 375.012 151.784C375.264 151.784 375.48 151.874 375.66 152.054C375.852 152.234 375.948 152.462 375.948 152.738C375.948 153.002 375.852 153.224 375.66 153.404C375.48 153.584 375.264 153.674 375.012 153.674Z" fill="white"/>
<path d="M370.054 155.474H371.296V162.818C371.296 163.922 371.05 164.864 370.558 165.644C370.066 166.436 369.352 167.036 368.416 167.444C367.48 167.864 366.34 168.074 364.996 168.074L364.78 166.832C366.472 166.808 367.756 166.454 368.632 165.77C369.508 165.098 369.946 164.114 369.946 162.818V162.62L370.09 162.656C369.814 163.184 369.4 163.64 368.848 164.024C368.296 164.396 367.582 164.588 366.706 164.6C365.878 164.6 365.152 164.414 364.528 164.042C363.916 163.658 363.436 163.118 363.088 162.422C362.752 161.726 362.584 160.91 362.584 159.974C362.584 159.038 362.752 158.228 363.088 157.544C363.436 156.848 363.916 156.308 364.528 155.924C365.152 155.54 365.878 155.348 366.706 155.348C367.246 155.348 367.726 155.432 368.146 155.6C368.566 155.756 368.926 155.972 369.226 156.248C369.526 156.512 369.772 156.812 369.964 157.148L370.054 155.474ZM364.042 159.974C364.042 161.006 364.306 161.828 364.834 162.44C365.374 163.04 366.1 163.34 367.012 163.34C367.564 163.34 368.062 163.208 368.506 162.944C368.95 162.68 369.298 162.296 369.55 161.792C369.814 161.288 369.946 160.682 369.946 159.974C369.946 159.266 369.814 158.666 369.55 158.174C369.298 157.67 368.95 157.286 368.506 157.022C368.062 156.746 367.564 156.608 367.012 156.608C366.112 156.608 365.392 156.914 364.852 157.526C364.312 158.138 364.042 158.954 364.042 159.974Z" fill="white"/>
<path d="M358.771 155.474H360.103V164.474H358.771V155.474ZM359.455 153.674C359.179 153.674 358.951 153.584 358.771 153.404C358.591 153.224 358.501 153.002 358.501 152.738C358.501 152.462 358.591 152.234 358.771 152.054C358.951 151.874 359.179 151.784 359.455 151.784C359.707 151.784 359.923 151.874 360.103 152.054C360.295 152.234 360.391 152.462 360.391 152.738C360.391 153.002 360.295 153.224 360.103 153.404C359.923 153.584 359.707 153.674 359.455 153.674Z" fill="white"/>
<path d="M349.531 155.474L352.375 162.962L355.237 155.474H356.659L353.059 164.474H351.655L348.091 155.474H349.531Z" fill="white"/>
<path d="M333.821 155.474H335.063L335.135 156.752C335.423 156.308 335.801 155.966 336.269 155.726C336.737 155.474 337.283 155.348 337.907 155.348C338.591 155.348 339.191 155.498 339.707 155.798C340.223 156.086 340.625 156.524 340.913 157.112C341.201 157.688 341.345 158.414 341.345 159.29V164.474H339.995V159.452C339.995 158.516 339.791 157.808 339.383 157.328C338.987 156.836 338.411 156.59 337.655 156.59C336.875 156.59 336.263 156.848 335.819 157.364C335.387 157.88 335.171 158.642 335.171 159.65V164.474H333.821V155.474Z" fill="white"/>
<path d="M327.092 164.6C326.24 164.6 325.478 164.414 324.806 164.042C324.134 163.67 323.606 163.142 323.222 162.458C322.838 161.762 322.646 160.94 322.646 159.992C322.646 159.032 322.838 158.204 323.222 157.508C323.618 156.812 324.152 156.278 324.824 155.906C325.508 155.534 326.276 155.348 327.128 155.348C327.98 155.348 328.742 155.534 329.414 155.906C330.098 156.278 330.632 156.812 331.016 157.508C331.412 158.192 331.61 159.008 331.61 159.956C331.61 160.916 331.412 161.744 331.016 162.44C330.62 163.136 330.08 163.67 329.396 164.042C328.712 164.414 327.944 164.6 327.092 164.6ZM327.074 163.322C327.602 163.322 328.1 163.208 328.568 162.98C329.036 162.74 329.414 162.374 329.702 161.882C330.002 161.378 330.152 160.742 330.152 159.974C330.152 159.194 330.008 158.558 329.72 158.066C329.432 157.574 329.054 157.214 328.586 156.986C328.13 156.746 327.638 156.626 327.11 156.626C326.582 156.626 326.09 156.746 325.634 156.986C325.178 157.214 324.806 157.58 324.518 158.084C324.242 158.576 324.104 159.206 324.104 159.974C324.104 160.754 324.242 161.39 324.518 161.882C324.794 162.374 325.154 162.74 325.598 162.98C326.054 163.208 326.546 163.322 327.074 163.322Z" fill="white"/>
<path d="M317.037 164.6C316.161 164.6 315.393 164.408 314.733 164.024C314.073 163.64 313.557 163.106 313.185 162.422C312.825 161.726 312.645 160.922 312.645 160.01C312.645 159.086 312.825 158.276 313.185 157.58C313.557 156.872 314.073 156.326 314.733 155.942C315.393 155.546 316.161 155.348 317.037 155.348C317.961 155.348 318.771 155.564 319.467 155.996C320.163 156.416 320.667 157.004 320.979 157.76L319.737 158.192C319.557 157.712 319.227 157.334 318.747 157.058C318.279 156.77 317.733 156.626 317.109 156.626C316.497 156.626 315.963 156.764 315.507 157.04C315.063 157.316 314.715 157.706 314.463 158.21C314.223 158.714 314.103 159.308 314.103 159.992C314.103 161 314.373 161.81 314.913 162.422C315.453 163.022 316.173 163.322 317.073 163.322C317.685 163.322 318.231 163.184 318.711 162.908C319.191 162.632 319.545 162.26 319.773 161.792L320.997 162.224C320.673 162.968 320.163 163.55 319.467 163.97C318.771 164.39 317.961 164.6 317.037 164.6Z" fill="white"/>
<path d="M438.235 145.72C438.307 146.08 438.439 146.38 438.631 146.62C438.823 146.848 439.069 147.022 439.369 147.142C439.681 147.262 440.041 147.322 440.449 147.322C441.085 147.322 441.565 147.202 441.889 146.962C442.225 146.71 442.393 146.398 442.393 146.026C442.393 145.714 442.291 145.462 442.087 145.27C441.895 145.078 441.637 144.922 441.313 144.802C440.989 144.67 440.629 144.556 440.233 144.46C439.921 144.388 439.585 144.304 439.225 144.208C438.865 144.1 438.523 143.956 438.199 143.776C437.875 143.596 437.611 143.362 437.407 143.074C437.203 142.786 437.101 142.408 437.101 141.94C437.101 141.424 437.239 140.974 437.515 140.59C437.803 140.194 438.193 139.888 438.685 139.672C439.189 139.456 439.765 139.348 440.413 139.348C441.157 139.348 441.817 139.51 442.393 139.834C442.981 140.158 443.389 140.662 443.617 141.346L442.357 141.778C442.273 141.466 442.117 141.226 441.889 141.058C441.673 140.89 441.427 140.776 441.151 140.716C440.887 140.656 440.623 140.626 440.359 140.626C439.819 140.626 439.381 140.734 439.045 140.95C438.721 141.154 438.559 141.466 438.559 141.886C438.559 142.114 438.613 142.306 438.721 142.462C438.829 142.606 438.979 142.726 439.171 142.822C439.363 142.918 439.591 143.002 439.855 143.074C440.119 143.134 440.407 143.206 440.719 143.29C441.067 143.374 441.421 143.482 441.781 143.614C442.141 143.734 442.477 143.896 442.789 144.1C443.101 144.292 443.353 144.544 443.545 144.856C443.749 145.156 443.851 145.534 443.851 145.99C443.851 146.518 443.707 146.98 443.419 147.376C443.131 147.76 442.729 148.06 442.213 148.276C441.709 148.492 441.121 148.6 440.449 148.6C439.525 148.6 438.757 148.396 438.145 147.988C437.545 147.568 437.143 146.956 436.939 146.152L438.235 145.72Z" fill="white"/>
<path d="M430.768 148.6C429.916 148.6 429.154 148.414 428.482 148.042C427.81 147.67 427.282 147.142 426.898 146.458C426.514 145.762 426.322 144.94 426.322 143.992C426.322 143.032 426.514 142.204 426.898 141.508C427.294 140.812 427.828 140.278 428.5 139.906C429.184 139.534 429.952 139.348 430.804 139.348C431.656 139.348 432.418 139.534 433.09 139.906C433.774 140.278 434.308 140.812 434.692 141.508C435.088 142.192 435.286 143.008 435.286 143.956C435.286 144.916 435.088 145.744 434.692 146.44C434.296 147.136 433.756 147.67 433.072 148.042C432.388 148.414 431.62 148.6 430.768 148.6ZM430.75 147.322C431.278 147.322 431.776 147.208 432.244 146.98C432.712 146.74 433.09 146.374 433.378 145.882C433.678 145.378 433.828 144.742 433.828 143.974C433.828 143.194 433.684 142.558 433.396 142.066C433.108 141.574 432.73 141.214 432.262 140.986C431.806 140.746 431.314 140.626 430.786 140.626C430.258 140.626 429.766 140.746 429.31 140.986C428.854 141.214 428.482 141.58 428.194 142.084C427.918 142.576 427.78 143.206 427.78 143.974C427.78 144.754 427.918 145.39 428.194 145.882C428.47 146.374 428.83 146.74 429.274 146.98C429.73 147.208 430.222 147.322 430.75 147.322Z" fill="white"/>
<path d="M420.712 148.6C419.836 148.6 419.068 148.408 418.408 148.024C417.748 147.64 417.232 147.106 416.86 146.422C416.5 145.726 416.32 144.922 416.32 144.01C416.32 143.086 416.5 142.276 416.86 141.58C417.232 140.872 417.748 140.326 418.408 139.942C419.068 139.546 419.836 139.348 420.712 139.348C421.636 139.348 422.446 139.564 423.142 139.996C423.838 140.416 424.342 141.004 424.654 141.76L423.412 142.192C423.232 141.712 422.902 141.334 422.422 141.058C421.954 140.77 421.408 140.626 420.784 140.626C420.172 140.626 419.638 140.764 419.182 141.04C418.738 141.316 418.39 141.706 418.138 142.21C417.898 142.714 417.778 143.308 417.778 143.992C417.778 145 418.048 145.81 418.588 146.422C419.128 147.022 419.848 147.322 420.748 147.322C421.36 147.322 421.906 147.184 422.386 146.908C422.866 146.632 423.22 146.26 423.448 145.792L424.672 146.224C424.348 146.968 423.838 147.55 423.142 147.97C422.446 148.39 421.636 148.6 420.712 148.6Z" fill="white"/>
<path d="M412.507 139.474H413.839V148.474H412.507V139.474ZM413.191 137.674C412.915 137.674 412.687 137.584 412.507 137.404C412.327 137.224 412.237 137.002 412.237 136.738C412.237 136.462 412.327 136.234 412.507 136.054C412.687 135.874 412.915 135.784 413.191 135.784C413.443 135.784 413.659 135.874 413.839 136.054C414.031 136.234 414.127 136.462 414.127 136.738C414.127 137.002 414.031 137.224 413.839 137.404C413.659 137.584 413.443 137.674 413.191 137.674Z" fill="white"/>
<path d="M408.142 135.514H409.492V148.474H408.142V135.514Z" fill="white"/>
<path d="M403.051 135.604V136.738L399.667 138.61V137.638L403.051 135.604ZM401.413 148.6C400.561 148.6 399.799 148.414 399.127 148.042C398.455 147.67 397.927 147.142 397.543 146.458C397.159 145.762 396.967 144.94 396.967 143.992C396.967 143.032 397.159 142.204 397.543 141.508C397.939 140.812 398.473 140.278 399.145 139.906C399.829 139.534 400.597 139.348 401.449 139.348C402.301 139.348 403.063 139.534 403.735 139.906C404.419 140.278 404.953 140.812 405.337 141.508C405.733 142.192 405.931 143.008 405.931 143.956C405.931 144.916 405.733 145.744 405.337 146.44C404.941 147.136 404.401 147.67 403.717 148.042C403.033 148.414 402.265 148.6 401.413 148.6ZM401.395 147.322C401.923 147.322 402.421 147.208 402.889 146.98C403.357 146.74 403.735 146.374 404.023 145.882C404.323 145.378 404.473 144.742 404.473 143.974C404.473 143.194 404.329 142.558 404.041 142.066C403.753 141.574 403.375 141.214 402.907 140.986C402.451 140.746 401.959 140.626 401.431 140.626C400.903 140.626 400.411 140.746 399.955 140.986C399.499 141.214 399.127 141.58 398.839 142.084C398.563 142.576 398.425 143.206 398.425 143.974C398.425 144.754 398.563 145.39 398.839 145.882C399.115 146.374 399.475 146.74 399.919 146.98C400.375 147.208 400.867 147.322 401.395 147.322Z" fill="white"/>
<path d="M391.145 148.6C390.305 148.6 389.555 148.396 388.895 147.988C388.247 147.58 387.737 147.022 387.365 146.314C386.993 145.606 386.807 144.796 386.807 143.884C386.807 143.008 386.993 142.228 387.365 141.544C387.737 140.86 388.247 140.326 388.895 139.942C389.543 139.546 390.281 139.348 391.109 139.348C391.925 139.348 392.651 139.528 393.287 139.888C393.935 140.248 394.439 140.746 394.799 141.382C395.159 142.018 395.327 142.744 395.303 143.56C395.303 143.692 395.297 143.83 395.285 143.974C395.273 144.118 395.261 144.274 395.249 144.442H388.283C388.307 145.006 388.445 145.504 388.697 145.936C388.949 146.368 389.279 146.71 389.687 146.962C390.107 147.202 390.581 147.322 391.109 147.322C391.805 147.322 392.393 147.19 392.873 146.926C393.365 146.662 393.719 146.284 393.935 145.792L395.105 146.26C394.745 147.016 394.223 147.598 393.539 148.006C392.855 148.402 392.057 148.6 391.145 148.6ZM393.827 143.272C393.839 142.756 393.725 142.3 393.485 141.904C393.257 141.508 392.933 141.196 392.513 140.968C392.093 140.74 391.607 140.626 391.055 140.626C390.575 140.626 390.137 140.74 389.741 140.968C389.345 141.196 389.015 141.514 388.751 141.922C388.499 142.318 388.349 142.768 388.301 143.272H393.827Z" fill="white"/>
<path d="M374.515 145.72C374.587 146.08 374.719 146.38 374.911 146.62C375.103 146.848 375.349 147.022 375.649 147.142C375.961 147.262 376.321 147.322 376.729 147.322C377.365 147.322 377.845 147.202 378.169 146.962C378.505 146.71 378.673 146.398 378.673 146.026C378.673 145.714 378.571 145.462 378.367 145.27C378.175 145.078 377.917 144.922 377.593 144.802C377.269 144.67 376.909 144.556 376.513 144.46C376.201 144.388 375.865 144.304 375.505 144.208C375.145 144.1 374.803 143.956 374.479 143.776C374.155 143.596 373.891 143.362 373.687 143.074C373.483 142.786 373.381 142.408 373.381 141.94C373.381 141.424 373.519 140.974 373.795 140.59C374.083 140.194 374.473 139.888 374.965 139.672C375.469 139.456 376.045 139.348 376.693 139.348C377.437 139.348 378.097 139.51 378.673 139.834C379.261 140.158 379.669 140.662 379.897 141.346L378.637 141.778C378.553 141.466 378.397 141.226 378.169 141.058C377.953 140.89 377.707 140.776 377.431 140.716C377.167 140.656 376.903 140.626 376.639 140.626C376.099 140.626 375.661 140.734 375.325 140.95C375.001 141.154 374.839 141.466 374.839 141.886C374.839 142.114 374.893 142.306 375.001 142.462C375.109 142.606 375.259 142.726 375.451 142.822C375.643 142.918 375.871 143.002 376.135 143.074C376.399 143.134 376.687 143.206 376.999 143.29C377.347 143.374 377.701 143.482 378.061 143.614C378.421 143.734 378.757 143.896 379.069 144.1C379.381 144.292 379.633 144.544 379.825 144.856C380.029 145.156 380.131 145.534 380.131 145.99C380.131 146.518 379.987 146.98 379.699 147.376C379.411 147.76 379.009 148.06 378.493 148.276C377.989 148.492 377.401 148.6 376.729 148.6C375.805 148.6 375.037 148.396 374.425 147.988C373.825 147.568 373.423 146.956 373.219 146.152L374.515 145.72Z" fill="white"/>
<path d="M367.397 148.6C366.557 148.6 365.807 148.396 365.147 147.988C364.499 147.58 363.989 147.022 363.617 146.314C363.245 145.606 363.059 144.796 363.059 143.884C363.059 143.008 363.245 142.228 363.617 141.544C363.989 140.86 364.499 140.326 365.147 139.942C365.795 139.546 366.533 139.348 367.361 139.348C368.177 139.348 368.903 139.528 369.539 139.888C370.187 140.248 370.691 140.746 371.051 141.382C371.411 142.018 371.579 142.744 371.555 143.56C371.555 143.692 371.549 143.83 371.537 143.974C371.525 144.118 371.513 144.274 371.501 144.442H364.535C364.559 145.006 364.697 145.504 364.949 145.936C365.201 146.368 365.531 146.71 365.939 146.962C366.359 147.202 366.833 147.322 367.361 147.322C368.057 147.322 368.645 147.19 369.125 146.926C369.617 146.662 369.971 146.284 370.187 145.792L371.357 146.26C370.997 147.016 370.475 147.598 369.791 148.006C369.107 148.402 368.309 148.6 367.397 148.6ZM370.079 143.272C370.091 142.756 369.977 142.3 369.737 141.904C369.509 141.508 369.185 141.196 368.765 140.968C368.345 140.74 367.859 140.626 367.307 140.626C366.827 140.626 366.389 140.74 365.993 140.968C365.597 141.196 365.267 141.514 365.003 141.922C364.751 142.318 364.601 142.768 364.553 143.272H370.079Z" fill="white"/>
<path d="M360.871 148.474H359.647L359.557 147.178C359.281 147.634 358.909 147.988 358.441 148.24C357.973 148.48 357.427 148.6 356.803 148.6C356.107 148.6 355.501 148.456 354.985 148.168C354.469 147.88 354.067 147.448 353.779 146.872C353.503 146.296 353.365 145.57 353.365 144.694V139.474H354.697V144.55C354.697 145.474 354.895 146.176 355.291 146.656C355.699 147.124 356.281 147.358 357.037 147.358C357.805 147.358 358.411 147.112 358.855 146.62C359.311 146.116 359.539 145.36 359.539 144.352V139.474H360.871V148.474Z" fill="white"/>
<path d="M349.541 146.656C349.265 147.208 348.845 147.67 348.281 148.042C347.717 148.414 347.009 148.6 346.157 148.6C345.329 148.6 344.603 148.408 343.979 148.024C343.367 147.64 342.887 147.106 342.539 146.422C342.203 145.726 342.035 144.91 342.035 143.974C342.035 143.026 342.203 142.21 342.539 141.526C342.887 140.83 343.367 140.296 343.979 139.924C344.603 139.54 345.329 139.348 346.157 139.348C346.961 139.348 347.633 139.522 348.173 139.87C348.725 140.218 349.139 140.644 349.415 141.148L349.505 139.474H350.747V152.074H349.397V146.638L349.541 146.656ZM343.493 143.974C343.493 145.006 343.757 145.828 344.285 146.44C344.825 147.04 345.545 147.34 346.445 147.34C347.009 147.34 347.513 147.208 347.957 146.944C348.401 146.668 348.749 146.278 349.001 145.774C349.265 145.27 349.397 144.67 349.397 143.974C349.397 143.266 349.265 142.66 349.001 142.156C348.749 141.652 348.401 141.268 347.957 141.004C347.513 140.74 347.009 140.608 346.445 140.608C345.533 140.608 344.813 140.914 344.285 141.526C343.757 142.126 343.493 142.942 343.493 143.974Z" fill="white"/>
<path d="M336.106 139.474H337.348L337.42 140.788C337.66 140.464 337.948 140.188 338.284 139.96C338.632 139.732 339.01 139.576 339.418 139.492C339.838 139.396 340.282 139.39 340.75 139.474V140.824C340.246 140.728 339.79 140.728 339.382 140.824C338.986 140.92 338.644 141.1 338.356 141.364C338.068 141.628 337.846 141.964 337.69 142.372C337.534 142.768 337.456 143.23 337.456 143.758V148.474H336.106V139.474Z" fill="white"/>
<path d="M332.231 148.474L332.123 146.854C331.871 147.406 331.499 147.838 331.007 148.15C330.515 148.45 329.891 148.6 329.135 148.6C328.487 148.6 327.935 148.498 327.479 148.294C327.023 148.09 326.669 147.802 326.417 147.43C326.177 147.046 326.057 146.596 326.057 146.08C326.057 145.324 326.339 144.706 326.903 144.226C327.467 143.734 328.283 143.434 329.351 143.326L332.123 143.02V142.3C332.123 141.796 331.937 141.394 331.565 141.094C331.193 140.782 330.689 140.626 330.053 140.626C329.429 140.626 328.907 140.77 328.487 141.058C328.079 141.346 327.797 141.76 327.641 142.3L326.417 141.868C326.657 141.076 327.095 140.458 327.731 140.014C328.379 139.57 329.165 139.348 330.089 139.348C331.157 139.348 331.985 139.624 332.573 140.176C333.173 140.716 333.473 141.454 333.473 142.39V148.474H332.231ZM332.123 144.172L329.333 144.496C328.733 144.568 328.277 144.736 327.965 145C327.653 145.252 327.497 145.588 327.497 146.008C327.497 146.428 327.647 146.764 327.947 147.016C328.259 147.268 328.703 147.394 329.279 147.394C329.939 147.394 330.479 147.262 330.899 146.998C331.319 146.734 331.625 146.38 331.817 145.936C332.021 145.48 332.123 144.988 332.123 144.46V144.172Z" fill="white"/>
<path d="M316.887 146.656L317.031 146.638V152.074H315.681V139.474H316.923L317.013 141.148C317.289 140.644 317.697 140.218 318.237 139.87C318.777 139.522 319.455 139.348 320.271 139.348C321.051 139.348 321.753 139.54 322.377 139.924C323.001 140.296 323.493 140.83 323.853 141.526C324.213 142.21 324.393 143.026 324.393 143.974C324.393 144.91 324.219 145.726 323.871 146.422C323.535 147.106 323.055 147.64 322.431 148.024C321.819 148.408 321.099 148.6 320.271 148.6C319.407 148.6 318.693 148.414 318.129 148.042C317.565 147.67 317.151 147.208 316.887 146.656ZM322.935 143.974C322.935 142.942 322.665 142.126 322.125 141.526C321.597 140.914 320.883 140.608 319.983 140.608C319.419 140.608 318.909 140.74 318.453 141.004C318.009 141.268 317.661 141.652 317.409 142.156C317.157 142.66 317.031 143.266 317.031 143.974C317.031 144.67 317.157 145.27 317.409 145.774C317.661 146.278 318.009 146.668 318.453 146.944C318.909 147.208 319.419 147.34 319.983 147.34C320.883 147.34 321.597 147.04 322.125 146.44C322.665 145.828 322.935 145.006 322.935 143.974Z" fill="white"/>
<path d="M301.513 141.85C300.793 141.61 300.247 141.256 299.875 140.788C299.503 140.308 299.317 139.72 299.317 139.024C299.317 138.412 299.479 137.86 299.803 137.368C300.127 136.876 300.601 136.486 301.225 136.198C301.861 135.898 302.641 135.748 303.565 135.748C304.489 135.748 305.263 135.898 305.887 136.198C306.523 136.486 307.003 136.882 307.327 137.386C307.651 137.878 307.813 138.424 307.813 139.024C307.813 139.708 307.621 140.29 307.237 140.77C306.853 141.25 306.313 141.61 305.617 141.85C306.397 142.054 307.015 142.42 307.471 142.948C307.927 143.476 308.155 144.136 308.155 144.928C308.155 145.672 307.963 146.32 307.579 146.872C307.195 147.424 306.661 147.85 305.977 148.15C305.293 148.45 304.489 148.6 303.565 148.6C302.653 148.6 301.849 148.45 301.153 148.15C300.469 147.85 299.935 147.424 299.551 146.872C299.167 146.32 298.975 145.672 298.975 144.928C298.975 144.124 299.203 143.464 299.659 142.948C300.127 142.42 300.745 142.054 301.513 141.85ZM306.355 139.186C306.355 138.442 306.103 137.896 305.599 137.548C305.107 137.2 304.429 137.026 303.565 137.026C302.713 137.026 302.035 137.2 301.531 137.548C301.027 137.884 300.775 138.436 300.775 139.204C300.775 139.888 301.027 140.41 301.531 140.77C302.035 141.13 302.713 141.31 303.565 141.31C304.417 141.31 305.095 141.13 305.599 140.77C306.103 140.41 306.355 139.882 306.355 139.186ZM303.565 142.516C302.977 142.516 302.443 142.594 301.963 142.75C301.495 142.906 301.123 143.158 300.847 143.506C300.571 143.842 300.433 144.304 300.433 144.892C300.433 145.672 300.709 146.272 301.261 146.692C301.813 147.112 302.581 147.322 303.565 147.322C304.537 147.322 305.299 147.112 305.851 146.692C306.415 146.26 306.697 145.66 306.697 144.892C306.697 144.316 306.559 143.854 306.283 143.506C306.007 143.158 305.635 142.906 305.167 142.75C304.699 142.594 304.165 142.516 303.565 142.516Z" fill="white"/>
<path d="M294.913 137.134H293.149V135.874H296.353V148.474H294.913V137.134Z" fill="white"/>
<rect x="348" y="51" width="101.913" height="45.4974" rx="22.7487" fill="#214068"/>
<path d="M420.618 69.3833H421.86L421.932 70.6613C422.22 70.2173 422.598 69.8753 423.066 69.6353C423.534 69.3833 424.08 69.2573 424.704 69.2573C425.388 69.2573 425.988 69.4073 426.504 69.7073C427.02 69.9953 427.422 70.4333 427.71 71.0213C427.998 71.5973 428.142 72.3233 428.142 73.1993V78.3833H426.792V73.3613C426.792 72.4253 426.588 71.7173 426.18 71.2373C425.784 70.7453 425.208 70.4993 424.452 70.4993C423.672 70.4993 423.06 70.7573 422.616 71.2733C422.184 71.7893 421.968 72.5513 421.968 73.5593V78.3833H420.618V69.3833Z" fill="white"/>
<path d="M415.526 65.5137V66.6477L412.142 68.5197V67.5477L415.526 65.5137ZM413.888 78.5097C413.036 78.5097 412.274 78.3237 411.602 77.9517C410.93 77.5797 410.402 77.0517 410.018 76.3677C409.634 75.6717 409.442 74.8497 409.442 73.9017C409.442 72.9417 409.634 72.1137 410.018 71.4177C410.414 70.7217 410.948 70.1877 411.62 69.8157C412.304 69.4437 413.072 69.2577 413.924 69.2577C414.776 69.2577 415.538 69.4437 416.21 69.8157C416.894 70.1877 417.428 70.7217 417.812 71.4177C418.208 72.1017 418.406 72.9177 418.406 73.8657C418.406 74.8257 418.208 75.6537 417.812 76.3497C417.416 77.0457 416.876 77.5797 416.192 77.9517C415.508 78.3237 414.74 78.5097 413.888 78.5097ZM413.87 77.2317C414.398 77.2317 414.896 77.1177 415.364 76.8897C415.832 76.6497 416.21 76.2837 416.498 75.7917C416.798 75.2877 416.948 74.6517 416.948 73.8837C416.948 73.1037 416.804 72.4677 416.516 71.9757C416.228 71.4837 415.85 71.1237 415.382 70.8957C414.926 70.6557 414.434 70.5357 413.906 70.5357C413.378 70.5357 412.886 70.6557 412.43 70.8957C411.974 71.1237 411.602 71.4897 411.314 71.9937C411.038 72.4857 410.9 73.1157 410.9 73.8837C410.9 74.6637 411.038 75.2997 411.314 75.7917C411.59 76.2837 411.95 76.6497 412.394 76.8897C412.85 77.1177 413.342 77.2317 413.87 77.2317Z" fill="white"/>
<path d="M405.996 69.3833H407.238V76.7273C407.238 77.8313 406.992 78.7733 406.5 79.5533C406.008 80.3453 405.294 80.9453 404.358 81.3533C403.422 81.7733 402.282 81.9833 400.938 81.9833L400.722 80.7413C402.414 80.7173 403.698 80.3633 404.574 79.6793C405.45 79.0073 405.888 78.0233 405.888 76.7273V76.5293L406.032 76.5653C405.756 77.0933 405.342 77.5493 404.79 77.9333C404.238 78.3053 403.524 78.4973 402.648 78.5093C401.82 78.5093 401.094 78.3233 400.47 77.9513C399.858 77.5673 399.378 77.0273 399.03 76.3313C398.694 75.6353 398.526 74.8193 398.526 73.8833C398.526 72.9473 398.694 72.1373 399.03 71.4533C399.378 70.7573 399.858 70.2173 400.47 69.8333C401.094 69.4493 401.82 69.2573 402.648 69.2573C403.188 69.2573 403.668 69.3413 404.088 69.5093C404.508 69.6653 404.868 69.8813 405.168 70.1573C405.468 70.4213 405.714 70.7213 405.906 71.0573L405.996 69.3833ZM399.984 73.8833C399.984 74.9153 400.248 75.7373 400.776 76.3493C401.316 76.9493 402.042 77.2493 402.954 77.2493C403.506 77.2493 404.004 77.1173 404.448 76.8533C404.892 76.5893 405.24 76.2053 405.492 75.7013C405.756 75.1973 405.888 74.5913 405.888 73.8833C405.888 73.1753 405.756 72.5753 405.492 72.0833C405.24 71.5793 404.892 71.1953 404.448 70.9313C404.004 70.6553 403.506 70.5173 402.954 70.5173C402.054 70.5173 401.334 70.8233 400.794 71.4353C400.254 72.0473 399.984 72.8633 399.984 73.8833Z" fill="white"/>
<path d="M395.209 78.3833L395.101 76.7633C394.849 77.3153 394.477 77.7473 393.985 78.0593C393.493 78.3593 392.869 78.5093 392.113 78.5093C391.465 78.5093 390.913 78.4073 390.457 78.2033C390.001 77.9993 389.647 77.7113 389.395 77.3393C389.155 76.9553 389.035 76.5053 389.035 75.9893C389.035 75.2333 389.317 74.6153 389.881 74.1353C390.445 73.6433 391.261 73.3433 392.329 73.2353L395.101 72.9293V72.2093C395.101 71.7053 394.915 71.3033 394.543 71.0033C394.171 70.6913 393.667 70.5353 393.031 70.5353C392.407 70.5353 391.885 70.6793 391.465 70.9673C391.057 71.2553 390.775 71.6693 390.619 72.2093L389.395 71.7773C389.635 70.9853 390.073 70.3673 390.709 69.9233C391.357 69.4793 392.143 69.2573 393.067 69.2573C394.135 69.2573 394.963 69.5333 395.551 70.0853C396.151 70.6253 396.451 71.3633 396.451 72.2993V78.3833H395.209ZM395.101 74.0813L392.311 74.4053C391.711 74.4773 391.255 74.6453 390.943 74.9093C390.631 75.1613 390.475 75.4973 390.475 75.9173C390.475 76.3373 390.625 76.6733 390.925 76.9253C391.237 77.1773 391.681 77.3033 392.257 77.3033C392.917 77.3033 393.457 77.1713 393.877 76.9073C394.297 76.6433 394.603 76.2893 394.795 75.8453C394.999 75.3893 395.101 74.8973 395.101 74.3693V74.0813Z" fill="white"/>
<path d="M383.089 69.3835H384.331L384.403 70.6975C384.643 70.3735 384.931 70.0975 385.267 69.8695C385.615 69.6415 385.993 69.4855 386.401 69.4015C386.821 69.3055 387.265 69.2995 387.733 69.3835V70.7335C387.229 70.6375 386.773 70.6375 386.365 70.7335C385.969 70.8295 385.627 71.0095 385.339 71.2735C385.051 71.5375 384.829 71.8735 384.673 72.2815C384.517 72.6775 384.439 73.1395 384.439 73.6675V78.3835H383.089V69.3835Z" fill="white"/>
<path d="M375.981 67.0437H375.387L371.229 78.3837H369.771L374.379 65.7837H376.971L381.561 78.3837H380.103L375.981 67.0437ZM372.021 73.8117H379.365V75.0717H372.021V73.8117Z" fill="white"/>
<rect x="161" y="270" width="89.3017" height="42.1142" rx="21.0571" fill="#214068"/>
<path d="M228.477 289.644L223.419 296.214H228.531V297.474H221.727V296.304L226.785 289.734H221.781V288.474H228.477V289.644Z" fill="white"/>
<path d="M217.842 288.474H219.174V297.474H217.842V288.474ZM218.526 286.674C218.25 286.674 218.022 286.584 217.842 286.404C217.662 286.224 217.572 286.002 217.572 285.738C217.572 285.462 217.662 285.234 217.842 285.054C218.022 284.874 218.25 284.784 218.526 284.784C218.778 284.784 218.994 284.874 219.174 285.054C219.366 285.234 219.462 285.462 219.462 285.738C219.462 286.002 219.366 286.224 219.174 286.404C218.994 286.584 218.778 286.674 218.526 286.674Z" fill="white"/>
<path d="M213.604 290.292L213.46 290.31V284.514H214.81V297.474H213.568L213.478 295.8C213.202 296.304 212.788 296.73 212.236 297.078C211.696 297.426 211.024 297.6 210.22 297.6C209.392 297.6 208.666 297.414 208.042 297.042C207.43 296.658 206.95 296.118 206.602 295.422C206.266 294.726 206.098 293.91 206.098 292.974C206.098 292.038 206.266 291.228 206.602 290.544C206.95 289.848 207.43 289.308 208.042 288.924C208.666 288.54 209.392 288.348 210.22 288.348C211.072 288.348 211.78 288.534 212.344 288.906C212.908 289.278 213.328 289.74 213.604 290.292ZM207.556 292.974C207.556 294.006 207.82 294.828 208.348 295.44C208.876 296.04 209.596 296.34 210.508 296.34C211.072 296.34 211.576 296.208 212.02 295.944C212.464 295.68 212.812 295.296 213.064 294.792C213.328 294.288 213.46 293.682 213.46 292.974C213.46 292.266 213.328 291.666 213.064 291.174C212.812 290.67 212.464 290.286 212.02 290.022C211.576 289.746 211.072 289.608 210.508 289.608C209.608 289.608 208.888 289.914 208.348 290.526C207.82 291.126 207.556 291.942 207.556 292.974Z" fill="white"/>
<path d="M202.096 284.604V285.738L198.712 287.61V286.638L202.096 284.604ZM202.78 297.474L202.672 295.854C202.42 296.406 202.048 296.838 201.556 297.15C201.064 297.45 200.44 297.6 199.684 297.6C199.036 297.6 198.484 297.498 198.028 297.294C197.572 297.09 197.218 296.802 196.966 296.43C196.726 296.046 196.606 295.596 196.606 295.08C196.606 294.324 196.888 293.706 197.452 293.226C198.016 292.734 198.832 292.434 199.9 292.326L202.672 292.02V291.3C202.672 290.796 202.486 290.394 202.114 290.094C201.742 289.782 201.238 289.626 200.602 289.626C199.978 289.626 199.456 289.77 199.036 290.058C198.628 290.346 198.346 290.76 198.19 291.3L196.966 290.868C197.206 290.076 197.644 289.458 198.28 289.014C198.928 288.57 199.714 288.348 200.638 288.348C201.706 288.348 202.534 288.624 203.122 289.176C203.722 289.716 204.022 290.454 204.022 291.39V297.474H202.78ZM202.672 293.172L199.882 293.496C199.282 293.568 198.826 293.736 198.514 294C198.202 294.252 198.046 294.588 198.046 295.008C198.046 295.428 198.196 295.764 198.496 296.016C198.808 296.268 199.252 296.394 199.828 296.394C200.488 296.394 201.028 296.262 201.448 295.998C201.868 295.734 202.174 295.38 202.366 294.936C202.57 294.48 202.672 293.988 202.672 293.46V293.172Z" fill="white"/>
<path d="M182.771 291.174C182.771 290.226 182.927 289.362 183.239 288.582C183.551 287.79 183.989 287.112 184.553 286.548C185.129 285.972 185.789 285.528 186.533 285.216C187.289 284.904 188.111 284.748 188.999 284.748C190.295 284.748 191.429 285.048 192.401 285.648C193.385 286.248 194.129 287.1 194.633 288.204L193.463 288.636C193.187 288.048 192.821 287.568 192.365 287.196C191.909 286.812 191.393 286.524 190.817 286.332C190.241 286.14 189.635 286.044 188.999 286.044C188.099 286.044 187.289 286.248 186.569 286.656C185.849 287.064 185.279 287.652 184.859 288.42C184.451 289.188 184.247 290.106 184.247 291.174C184.247 292.23 184.451 293.142 184.859 293.91C185.279 294.678 185.849 295.272 186.569 295.692C187.289 296.1 188.099 296.304 188.999 296.304C189.647 296.304 190.265 296.202 190.853 295.998C191.441 295.794 191.969 295.476 192.437 295.044C192.917 294.612 193.301 294.072 193.589 293.424L194.759 293.856C194.243 295.092 193.487 296.028 192.491 296.664C191.495 297.288 190.331 297.6 188.999 297.6C188.111 297.6 187.289 297.444 186.533 297.132C185.789 296.82 185.129 296.376 184.553 295.8C183.989 295.224 183.551 294.546 183.239 293.766C182.927 292.974 182.771 292.11 182.771 291.174Z" fill="white"/>
<mask id="mask1_4782_37" style="mask-type:luminance" maskUnits="userSpaceOnUse" x="190" y="120" width="68" height="60">
<path d="M257.628 150.58C258.012 172.622 244.746 179.532 223.976 179.502C203.027 179.467 190.863 177.711 190.863 153.17C190.863 137.239 202.638 120.291 223.592 120.291C244.542 120.291 257.349 134.65 257.628 150.58Z" fill="white"/>
</mask>
<g mask="url(#mask1_4782_37)">
<path d="M245.3 149.707C243.523 148.509 235.72 138.611 235.137 137.882C234.752 137.403 234.134 137.423 233.685 137.438C233.375 137.448 232.877 137.598 232.777 137.678C232.323 138.037 225.812 147.661 222.803 149.607C221.237 150.62 222.584 151.463 223.467 151.463C225.697 151.463 227.723 150.884 228.701 150.884C229.679 150.884 230.891 151.587 232.627 151.587C234.363 151.587 234.678 151.558 235.99 151.558C237.302 151.558 239.288 150.884 240.285 150.884C241.283 150.884 242.915 151.448 244.152 151.448C245.389 151.443 246.422 150.47 245.3 149.707Z" fill="#6B9096"/>
<path d="M211.358 178.434C210.629 177.77 210.121 176.204 209.911 175.63C209.657 174.946 209.686 174.198 209.447 173.505C209.103 172.497 208.584 171.758 208.434 170.661C207.985 167.333 208.719 164.444 211.298 162.114C212.84 160.717 215.07 159.894 217.016 159.226C219.246 158.457 221.496 157.724 223.706 156.886C225.432 156.232 226.709 154.88 227.578 153.274C228.116 152.276 227.977 151.128 228.456 150.155C228.975 149.108 229.843 149.262 230.826 149.287C232.657 149.332 235.196 148.913 236.358 149.681C237.581 150.485 237.96 152.026 238.484 153.338C239.117 154.925 238.818 157.15 238.554 158.811C238.204 161.002 236.264 163.252 234.567 164.534C233.19 165.572 231.664 166.35 230.172 167.203C228.69 168.051 226.156 168.196 225.722 169.778C225.652 170.027 228.241 176.074 228.545 176.154C230.272 183.054 225.737 181.183 220.997 181.762C218.632 182.051 215.324 181.153 214.132 180.649C213.314 180.305 212.356 179.407 211.358 178.434Z" fill="#3FBFE7"/>
<path d="M233.271 149.208C233.6 149.632 234.388 150.031 235.047 150.819C236.583 152.65 239.018 154.062 238.819 156.587C238.614 159.256 235.94 161.99 233.146 163.048C229.479 164.44 225.537 164.869 223.666 168.201C222.649 170.013 223.317 174.493 226.555 177.93C228.586 180.086 229.718 180.649 232.512 180.659C236.733 180.679 237.985 180.27 242.67 178.379C244.751 177.541 245.863 176.683 249.735 172.497C252.778 169.214 251.671 165.487 251.611 164.39C251.486 162.18 251.017 161.581 250.413 159.431C249.874 157.52 249.71 158.068 248.383 155.858C246.287 152.361 246.432 151.168 242.57 149.911C239.692 148.973 238.893 149.133 233.271 149.208Z" fill="#BCCD46"/>
<path d="M230.152 149.193C233.23 151.383 233.021 154.955 231.125 157.27C228.421 160.558 223.566 160.423 219.934 161.715C216.113 163.067 211.672 165.612 210.899 169.923C209.956 175.191 211.867 178.684 215.319 181.053C208.424 181.313 200.736 177.097 197.398 175.101C193.901 173.011 192.454 166.764 192.16 161.127C191.975 157.859 192.629 154.701 194.614 151.932C196.236 149.672 199.045 149.058 201.824 148.669C209.642 147.571 219.051 148.11 221.975 148.05C223.142 148.075 228.027 148.2 230.152 149.193Z" fill="#BCCD46"/>
<path d="M232.513 153.314C229.529 153.279 224.944 153.334 221.067 153.334H221.043L193.892 153.049C193.892 153.049 195.593 149.667 196.227 148.579C197.913 145.675 201.221 139.693 202.503 136.705C203.551 134.265 204.239 132.654 204.803 131.586C205.337 130.573 205.846 129.85 206.604 129.61C207.352 129.376 207.866 129.635 208.21 129.8C208.46 129.924 208.555 129.969 208.779 129.919C208.894 129.895 208.929 129.87 209.104 129.715L209.138 129.685C209.243 129.59 209.358 129.396 209.473 129.211C209.727 128.787 210.071 128.213 210.78 128.024C212.436 127.59 213.624 128.029 214.407 129.376C214.557 129.635 215.095 130.698 216.108 132.693C216.363 133.192 216.637 133.736 216.931 134.315C217.929 132.838 218.673 131.741 218.777 131.586C219.097 131.122 219.705 130.823 220.234 130.793C220.763 130.763 221.452 131.207 221.771 131.741C222.025 132.16 227.349 142.387 230.238 148.105C231.884 151.378 232.513 151.348 232.513 153.314Z" fill="#79A5AF"/>
<path d="M245.294 166.939C245.104 165.962 245.089 164.959 244.989 163.971C244.974 163.841 244.959 163.711 244.954 163.582C244.949 163.307 244.81 163.123 244.55 163.023C244.416 162.973 244.246 162.978 244.106 162.953C243.952 162.928 243.807 162.918 243.652 162.923C243.642 162.923 243.627 162.923 243.612 162.928C243.602 162.928 243.587 162.923 243.577 162.923C243.423 162.918 243.278 162.928 243.123 162.953C242.984 162.978 242.809 162.968 242.679 163.023C242.42 163.123 242.285 163.307 242.275 163.582C242.27 163.711 242.255 163.841 242.245 163.971C242.145 164.964 242.126 165.962 241.941 166.939C241.786 167.743 240.828 169.035 242.116 169.329C243.073 169.544 244.156 169.549 245.114 169.329C246.406 169.04 245.448 167.743 245.294 166.939Z" fill="#855C52"/>
<path d="M254.011 161.222C252.554 160.813 251.411 160.269 250.603 159.805C250.548 159.755 250.463 159.71 250.488 159.63C250.508 159.575 250.578 159.555 250.628 159.545C251.112 159.481 251.531 159.411 251.835 159.336C253.537 158.932 253.547 157.844 253.547 157.844C253.547 157.844 253.796 156.547 252.269 156.118C250.927 155.739 249.845 155.245 249.046 154.806C248.992 154.771 248.942 154.731 248.962 154.666C248.977 154.631 249.002 154.611 249.036 154.606C249.286 154.576 249.515 154.546 249.705 154.511C251.182 154.237 251.237 153.309 251.237 153.309C251.237 153.309 251.486 152.276 250.224 151.777C249.051 151.313 247.874 150.625 247.101 150.131C247.061 150.086 247.006 150.036 247.036 149.976C247.061 149.921 247.126 149.916 247.176 149.911H247.18L247.405 149.936C247.405 149.936 248.712 150.186 249.116 149.068C249.52 147.951 248.278 147.357 248.278 147.357C245.823 146.209 244.207 142.947 244.207 142.947C243.863 142.293 243.613 142.418 243.613 142.418C243.613 142.418 243.364 142.293 243.025 142.947C243.025 142.947 241.408 146.209 238.953 147.357C238.953 147.357 237.711 147.946 238.115 149.068C238.519 150.186 239.826 149.936 239.826 149.936L240.056 149.911H240.061C240.111 149.921 240.181 149.921 240.206 149.976C240.231 150.036 240.176 150.091 240.141 150.131C239.367 150.625 238.19 151.313 237.018 151.777C235.755 152.276 236 153.309 236 153.309C236 153.309 236.06 154.237 237.531 154.511C237.721 154.546 237.951 154.576 238.2 154.606C238.23 154.616 238.26 154.631 238.27 154.666C238.295 154.731 238.245 154.771 238.19 154.806C237.392 155.245 236.314 155.739 234.967 156.118C233.44 156.547 233.69 157.844 233.69 157.844C233.69 157.844 233.705 158.932 235.401 159.336C235.705 159.411 236.125 159.481 236.608 159.545C236.658 159.555 236.733 159.58 236.748 159.63C236.773 159.71 236.693 159.755 236.638 159.805C235.83 160.269 234.683 160.813 233.231 161.222C231.704 161.651 231.954 162.943 231.954 162.943C231.954 162.943 231.984 163.976 233.665 164.435C234.363 164.624 235.336 164.629 236.424 164.53C236.579 164.535 236.738 164.52 236.873 164.599C237.038 164.699 237.043 164.914 237.092 165.078C237.137 165.238 237.197 165.393 237.277 165.537C237.995 166.825 239.762 166.351 241.039 165.493C241.164 165.423 241.308 165.368 241.458 165.343C241.658 165.308 241.867 165.333 242.047 165.433C242.062 165.443 242.082 165.453 242.097 165.463C242.236 165.582 242.381 165.692 242.541 165.782C242.83 165.947 243.189 166.031 243.508 166.106C244.102 166.246 244.861 166.141 245.424 165.792C245.449 165.777 245.469 165.762 245.484 165.752C245.499 165.742 245.509 165.732 245.524 165.722L245.574 165.687C245.629 165.642 245.684 165.597 245.744 165.562C245.863 165.488 245.998 165.438 246.138 165.428C246.203 165.423 246.262 165.428 246.322 165.438C246.417 165.458 246.512 165.498 246.597 165.542C246.617 165.552 246.642 165.567 246.667 165.582C247.934 166.391 249.615 166.805 250.314 165.552C250.394 165.408 250.453 165.253 250.498 165.093C250.548 164.929 250.553 164.714 250.718 164.614C250.828 164.55 250.957 164.55 251.082 164.545C252.06 164.619 252.933 164.599 253.572 164.43C255.258 163.971 255.283 162.938 255.283 162.938C255.283 162.938 255.532 161.651 254.011 161.222Z" fill="#757F3F"/>
</g>
<path d="M241.298 148.763C241.533 148.853 241.688 149.037 242.027 148.903C242.241 148.818 242.436 148.494 242.471 148.269C242.516 147.925 242.281 148.005 242.057 147.895C241.992 147.72 242.186 147.441 242.087 147.246C241.942 146.967 241.498 147.266 241.373 147.411C241.169 147.645 240.989 147.82 240.7 147.975C240.505 148.08 239.687 148.509 240.086 148.803C240.171 148.863 240.256 148.873 240.355 148.873C240.62 148.873 240.884 148.693 241.134 148.718C241.189 148.728 241.248 148.743 241.298 148.763ZM238.884 152.42C238.584 152.525 237.951 152.919 238.35 153.283C238.629 153.538 239.228 153.393 239.552 153.308C239.687 153.273 239.866 153.178 240.011 153.188C240.166 153.198 240.166 153.308 240.216 153.433C240.32 153.692 240.51 153.737 240.774 153.737C240.934 153.737 241.059 153.747 241.204 153.677C241.543 153.513 241.523 153.598 241.837 153.707C242.206 153.837 242.521 153.657 242.735 153.363C242.805 153.268 242.86 153.119 242.855 153.004C242.845 152.779 242.69 152.665 242.456 152.699C242.221 152.734 242.062 152.784 241.932 152.545C241.767 152.231 241.293 152.625 241.174 152.395C241.124 152.295 241.234 152.086 241.214 151.966C241.189 151.821 241.104 151.712 240.949 151.687C240.71 151.647 240.51 151.712 240.315 151.816C239.951 152.016 239.637 152.176 239.243 152.295C239.158 152.335 239.023 152.37 238.884 152.42ZM239.397 155.952C239.198 155.922 238.963 156.007 238.794 156.092C238.11 156.426 237.432 156.781 236.743 157.105C236.499 157.22 236.11 157.334 236.125 157.674C236.145 158.292 237.212 158.028 237.566 157.988C237.881 157.953 238.395 157.828 238.654 158.083C238.804 158.227 238.874 158.317 239.093 158.337C239.462 158.377 239.941 158.008 240.276 158.183C240.415 158.257 240.49 158.357 240.645 158.407C241.019 158.537 241.473 158.382 241.777 158.153C242.037 157.958 242.226 157.399 241.867 157.205C241.638 157.08 241.448 157.304 241.234 157.27C240.909 157.21 240.989 156.965 240.76 156.786C240.48 156.571 240.051 156.93 239.847 156.716C239.677 156.536 239.792 156.242 239.642 156.077C239.578 156.007 239.491 155.963 239.397 155.952ZM238.689 160.817C238.12 160.707 237.542 161.136 237.053 161.356C236.514 161.595 235.915 161.63 235.381 161.89C235.027 162.059 235.062 162.598 235.411 162.753C235.725 162.892 236.135 162.852 236.469 162.832C236.968 162.803 237.437 162.588 237.931 162.548C238.609 162.488 238.639 162.668 238.759 163.252C238.844 163.676 239.293 163.9 239.702 163.815C239.916 163.77 240.101 163.586 240.301 163.496C240.55 163.386 240.54 163.416 240.779 163.496C240.954 163.556 241.174 163.551 241.343 163.486C241.628 163.381 241.762 163.157 241.767 162.872C241.777 162.428 241.772 161.845 241.159 162.014C240.49 162.199 240.705 161.835 240.216 161.655C239.866 161.525 239.547 161.855 239.233 161.575C238.973 161.351 239.123 160.912 238.689 160.817Z" fill="#9AAA5F"/>
<path d="M205.511 152.954C208.699 152.72 211.798 151.063 214.876 151.313C217.954 151.562 221.382 152.929 225.538 153.034C229.694 153.139 231.629 151.647 232.513 153.318L231.485 154.241L193.712 153.393L194.555 151.752C194.555 151.742 199.415 153.403 205.511 152.954Z" fill="#BCCD46"/>
</svg>
