<svg width="60" height="60" viewBox="0 0 60 60" fill="none" xmlns="http://www.w3.org/2000/svg">
<path d="M41.25 15.9375C41.25 16.4938 41.0851 17.0375 40.776 17.5C40.467 17.9626 40.0277 18.323 39.5138 18.5359C38.9999 18.7488 38.4344 18.8045 37.8888 18.696C37.3432 18.5874 36.8421 18.3196 36.4488 17.9262C36.0554 17.5329 35.7876 17.0318 35.679 16.4862C35.5705 15.9406 35.6262 15.3751 35.8391 14.8612C36.052 14.3473 36.4124 13.908 36.875 13.599C37.3375 13.29 37.8812 13.125 38.4375 13.125C39.1834 13.125 39.8988 13.4213 40.4262 13.9488C40.9537 14.4762 41.25 15.1916 41.25 15.9375ZM56.25 18.75C56.2502 19.0588 56.1741 19.3628 56.0286 19.6351C55.883 19.9074 55.6725 20.1396 55.4156 20.3109L50.625 23.5031V28.125C50.6182 34.5876 48.0479 40.7835 43.4782 45.3532C38.9085 49.9229 32.7126 52.4932 26.25 52.5H5.625C4.9185 52.5 4.22638 52.3004 3.62835 51.9243C3.03032 51.5481 2.55072 51.0106 2.2448 50.3738C1.93888 49.737 1.81907 49.0267 1.89919 48.3247C1.97931 47.6228 2.2561 46.9578 2.69766 46.4062L2.7211 46.3781L22.5 22.6477V18.0211C22.5 10.1883 28.7789 3.7875 36.4945 3.75H36.5625C39.5498 3.74911 42.4598 4.69955 44.8706 6.46354C47.2815 8.22754 49.0679 10.7134 49.9711 13.5609L55.4156 17.1891C55.6725 17.3604 55.883 17.5926 56.0286 17.8649C56.1741 18.1372 56.2502 18.4412 56.25 18.75ZM50.9953 18.75L47.3203 16.2984C46.937 16.0435 46.6608 15.6564 46.5445 15.2109C45.9687 13.0021 44.6763 11.0468 42.8699 9.6514C41.0635 8.25598 38.8451 7.49932 36.5625 7.5H36.5109C30.8531 7.52813 26.25 12.2461 26.25 18.0211V23.325C26.2507 23.7642 26.0973 24.1897 25.8164 24.5273L5.625 48.75H11.9297L28.5563 28.8C28.7121 28.6054 28.9051 28.4438 29.1242 28.3246C29.3432 28.2055 29.5838 28.1313 29.8318 28.1062C30.0799 28.0812 30.3304 28.1059 30.5688 28.1789C30.8072 28.2519 31.0287 28.3717 31.2202 28.5313C31.4118 28.6909 31.5696 28.8871 31.6844 29.1084C31.7992 29.3297 31.8687 29.5717 31.8889 29.8202C31.909 30.0687 31.8794 30.3187 31.8018 30.5556C31.7241 30.7926 31.6 31.0116 31.4367 31.2L16.8164 48.75H26.25C31.7182 48.7438 36.9606 46.5688 40.8272 42.7022C44.6938 38.8356 46.8688 33.5932 46.875 28.125V22.5C46.8748 22.1912 46.9509 21.8872 47.0964 21.6149C47.242 21.3426 47.4525 21.1104 47.7094 20.9391L50.9953 18.75Z" fill="white"/>
</svg>
