<svg width="60" height="60" viewBox="0 0 60 60" fill="none" xmlns="http://www.w3.org/2000/svg">
<path d="M28.3248 29.1751L35.5248 36.4501C39.0498 32.9001 35.5248 29.3751 35.5248 29.3751L31.7998 25.6001C32.2498 24.6501 32.4998 23.6001 32.4998 22.5001C32.4998 19.8751 31.1498 17.5751 29.0998 16.2501L32.4998 5.27508C27.7248 3.82508 26.2498 8.60008 26.2498 8.60008L24.2248 15.0751C21.1498 15.4001 18.6498 17.5001 17.8248 20.4501L6.6748 24.0751C8.2748 28.8251 12.9998 27.2501 12.9998 27.2501L18.1748 25.5751C19.0248 27.4251 20.5748 28.8501 22.4998 29.5501V47.5001C22.4998 47.5001 17.4998 47.5001 17.4998 52.5001V55.0001H32.4998V52.5001C32.4998 52.5001 32.4998 47.5001 27.4998 47.5001V29.5501C27.7998 29.4501 28.0748 29.3001 28.3248 29.1751ZM21.2498 22.5001C21.2498 20.4251 22.9248 18.7501 24.9998 18.7501C27.0748 18.7501 28.7498 20.4251 28.7498 22.5001C28.7498 24.5751 27.0748 26.2501 24.9998 26.2501C22.9248 26.2501 21.2498 24.5751 21.2498 22.5001ZM41.8748 52.9001L34.9998 45.4001L37.8998 42.5001L41.8748 46.4751L50.8498 37.5001L53.7498 41.0251L41.8748 52.9001Z" fill="white"/>
</svg>
