<svg width="60" height="60" viewBox="0 0 60 60" fill="none" xmlns="http://www.w3.org/2000/svg">
<path d="M37.5 25L48.8825 19.31C49.2636 19.1196 49.6869 19.0297 50.1125 19.0489C50.538 19.068 50.9516 19.1956 51.314 19.4195C51.6764 19.6434 51.9756 19.9562 52.1831 20.3282C52.3907 20.7002 52.4998 21.119 52.5 21.545V38.455C52.4998 38.881 52.3907 39.2998 52.1831 39.6718C51.9756 40.0438 51.6764 40.3566 51.314 40.5805C50.9516 40.8044 50.538 40.932 50.1125 40.9511C49.6869 40.9703 49.2636 40.8804 48.8825 40.69L37.5 35V25ZM7.5 20C7.5 18.6739 8.02678 17.4021 8.96447 16.4645C9.90215 15.5268 11.1739 15 12.5 15H32.5C33.8261 15 35.0979 15.5268 36.0355 16.4645C36.9732 17.4021 37.5 18.6739 37.5 20V40C37.5 41.3261 36.9732 42.5979 36.0355 43.5355C35.0979 44.4732 33.8261 45 32.5 45H12.5C11.1739 45 9.90215 44.4732 8.96447 43.5355C8.02678 42.5979 7.5 41.3261 7.5 40V20Z" stroke="white" stroke-width="5" stroke-linecap="round" stroke-linejoin="round"/>
</svg>
