<svg width="60" height="60" viewBox="0 0 60 60" fill="none" xmlns="http://www.w3.org/2000/svg">
<path d="M4.37541 33.4999C3.83375 33.1249 3.51125 32.6149 3.40791 31.9699C3.30458 31.3249 3.41875 30.7099 3.75041 30.1249L11.3754 17.8749C12.2921 16.4166 13.5946 15.6357 15.2829 15.5324C16.9712 15.4291 18.3562 16.0224 19.4379 17.3124L22.5004 20.8749L28.4379 11.2499C29.3962 9.66656 30.7821 8.8649 32.5954 8.8449C34.4087 8.8249 35.8146 9.5849 36.8129 11.1249L40.0004 15.8749L47.0004 4.7499C47.3754 4.1249 47.9279 3.7399 48.6579 3.5949C49.3879 3.4499 50.0437 3.60573 50.6254 4.0624C51.1671 4.4374 51.4904 4.94823 51.5954 5.5949C51.7004 6.24156 51.5854 6.85573 51.2504 7.4374L44.2504 18.5624C43.2921 20.1041 41.9071 20.8749 40.0954 20.8749C38.2837 20.8749 36.8771 20.1249 35.8754 18.6249L32.6879 13.8749L26.7504 23.4999C25.8754 24.9582 24.5946 25.7499 22.9079 25.8749C21.2212 25.9999 19.8354 25.4166 18.7504 24.1249L15.6254 20.4999L8.00041 32.8124C7.62541 33.4374 7.07291 33.8232 6.34291 33.9699C5.61291 34.1166 4.95708 33.9599 4.37541 33.4999ZM36.2504 44.9999C38.0004 44.9999 39.4796 44.3957 40.6879 43.1874C41.8962 41.9791 42.5004 40.4999 42.5004 38.7499C42.5004 36.9999 41.8962 35.5207 40.6879 34.3124C39.4796 33.1041 38.0004 32.4999 36.2504 32.4999C34.5004 32.4999 33.0212 33.1041 31.8129 34.3124C30.6046 35.5207 30.0004 36.9999 30.0004 38.7499C30.0004 40.4999 30.6046 41.9791 31.8129 43.1874C33.0212 44.3957 34.5004 44.9999 36.2504 44.9999ZM36.2504 49.9999C33.1254 49.9999 30.4687 48.9066 28.2804 46.7199C26.0921 44.5332 24.9987 41.8766 25.0004 38.7499C25.0021 35.6232 26.0962 32.9674 28.2829 30.7824C30.4696 28.5974 33.1254 27.5032 36.2504 27.4999C39.3754 27.4966 42.0321 28.5907 44.2204 30.7824C46.4087 32.9741 47.5021 35.6299 47.5004 38.7499C47.5004 39.8332 47.3546 40.8857 47.0629 41.9074C46.7712 42.9291 46.3337 43.8766 45.7504 44.7499L50.7504 49.7499C51.2087 50.2082 51.4379 50.7916 51.4379 51.4999C51.4379 52.2082 51.2087 52.7916 50.7504 53.2499C50.2921 53.7082 49.7087 53.9374 49.0004 53.9374C48.2921 53.9374 47.7087 53.7082 47.2504 53.2499L42.2504 48.2499C41.3754 48.8332 40.4279 49.2707 39.4079 49.5624C38.3879 49.8541 37.3354 49.9999 36.2504 49.9999Z" fill="white"/>
</svg>
