<svg width="219" height="32" viewBox="0 0 219 32" fill="none" xmlns="http://www.w3.org/2000/svg">
<path d="M202.11 30.0004C201.683 30.0004 201.47 29.8271 201.47 29.4804C201.47 29.3471 201.523 29.1871 201.63 29.0004C201.736 28.7871 201.83 28.6137 201.91 28.4804L205.51 21.2404C207.056 18.0937 207.83 16.3471 207.83 16.0004C207.83 15.6271 208.016 15.4404 208.39 15.4404C208.896 15.4404 209.15 15.7071 209.15 16.2404C209.15 16.4271 209.03 16.8271 208.79 17.4404C208.55 18.0537 208.243 18.7471 207.87 19.5204C207.23 20.9071 206.696 21.9737 206.27 22.7204C207.07 21.7871 207.883 20.9071 208.71 20.0804C209.536 19.2537 210.376 18.4671 211.23 17.7204C213.763 15.5071 215.71 14.4004 217.07 14.4004C218.003 14.4004 218.47 14.8404 218.47 15.7204C218.47 16.5204 217.79 18.3204 216.43 21.1204C215.07 23.9471 214.39 25.7337 214.39 26.4804C214.39 26.8271 214.51 27.0004 214.75 27.0004C214.83 27.0004 214.95 26.9737 215.11 26.9204C215.296 26.8404 215.483 26.8004 215.67 26.8004C216.123 26.8004 216.35 27.0137 216.35 27.4404C216.35 27.9737 215.776 28.2404 214.63 28.2404C214.096 28.2404 213.71 28.1204 213.47 27.8804C213.23 27.6137 213.11 27.2671 213.11 26.8404C213.11 25.5604 213.763 23.6137 215.07 21.0004C216.376 18.4137 217.03 16.8537 217.03 16.3204C217.03 16.0004 216.91 15.8404 216.67 15.8404C216.083 15.8404 215.136 16.3337 213.83 17.3204C212.416 18.3871 211.003 19.6137 209.59 21.0004C208.176 22.3871 206.83 23.9737 205.55 25.7604L202.75 29.6404C202.59 29.8804 202.376 30.0004 202.11 30.0004Z" fill="white"/>
<path d="M187.065 29.4001C185.518 29.4001 184.745 28.6668 184.745 27.2001C184.745 26.2401 184.972 25.2135 185.425 24.1201C185.905 23.0001 186.545 21.9201 187.345 20.8801C188.145 19.8135 189.038 18.8535 190.025 18.0001C191.012 17.1201 192.025 16.4268 193.065 15.9201C194.105 15.3868 195.105 15.1201 196.065 15.1201C197.772 15.1201 198.625 15.9601 198.625 17.6401C198.625 18.7335 198.358 19.2801 197.825 19.2801C197.345 19.2801 197.105 19.0535 197.105 18.6001C197.105 18.4135 197.145 18.2268 197.225 18.0401C197.332 17.8268 197.385 17.6001 197.385 17.3601C197.385 16.6135 196.878 16.2401 195.865 16.2401C194.238 16.2401 192.198 17.4801 189.745 19.9601C189.158 20.5735 188.585 21.2935 188.025 22.1201C187.465 22.9468 186.998 23.7868 186.625 24.6401C186.278 25.4668 186.105 26.2535 186.105 27.0001C186.105 27.7201 186.505 28.0801 187.305 28.0801C187.998 28.0801 188.732 27.8668 189.505 27.4401C190.305 27.0135 190.998 26.5735 191.585 26.1201C192.758 25.2401 193.958 24.0401 195.185 22.5201C195.372 22.3068 195.612 22.0268 195.905 21.6801C196.198 21.3335 196.532 20.9468 196.905 20.5201C197.038 20.3868 197.198 20.3201 197.385 20.3201C197.812 20.3201 198.025 20.5335 198.025 20.9601L196.505 23.2401C195.492 24.7335 194.985 25.9601 194.985 26.9201C194.985 27.6134 195.318 27.9601 195.985 27.9601C196.545 27.9601 197.158 27.8135 197.825 27.5201C198.492 27.2268 199.038 26.9335 199.465 26.6401C200.318 26.0801 201.212 25.3868 202.145 24.5601C203.078 23.7068 203.972 22.8535 204.825 22.0001C204.932 21.8935 205.092 21.8401 205.305 21.8401C205.705 21.8401 205.905 22.0001 205.905 22.3201C205.905 22.6135 205.718 22.9468 205.345 23.3201C204.278 24.3868 203.318 25.3068 202.465 26.0801C201.612 26.8268 200.798 27.4401 200.025 27.9201C199.518 28.2134 198.892 28.5201 198.145 28.8401C197.398 29.1601 196.545 29.3201 195.585 29.3201C194.278 29.3201 193.625 28.6268 193.625 27.2401C193.625 26.7068 193.692 26.2668 193.825 25.9201C191.398 28.2401 189.145 29.4001 187.065 29.4001Z" fill="white"/>
<path d="M184.18 13.2398C183.726 13.2398 183.5 13.0131 183.5 12.5598C183.5 12.4265 183.593 12.1865 183.78 11.8398C183.966 11.4665 184.18 11.0931 184.42 10.7198C184.66 10.3465 184.846 10.0931 184.98 9.9598C185.433 9.45314 185.78 9.13314 186.02 8.9998C186.286 8.86647 186.526 8.7998 186.74 8.7998C187.3 8.7998 187.58 9.05314 187.58 9.5598C187.58 9.74647 187.46 9.97314 187.22 10.2398C187.006 10.4798 186.753 10.7065 186.46 10.9198C186.033 11.1865 185.766 11.3998 185.66 11.5598L184.78 12.7998C184.753 12.9065 184.686 13.0131 184.58 13.1198C184.5 13.1998 184.366 13.2398 184.18 13.2398ZM177.38 29.4398C176.633 29.4398 176.086 29.2931 175.74 28.9998C175.42 28.7065 175.26 28.2665 175.26 27.6798C175.26 27.1198 175.433 26.3598 175.78 25.3998C176.126 24.4131 176.566 23.3598 177.1 22.2398C177.66 21.1198 178.246 20.0531 178.86 19.0398C179.473 18.0265 180.06 17.1998 180.62 16.5598C181.206 15.8931 181.673 15.5598 182.02 15.5598C182.5 15.5598 182.74 15.7731 182.74 16.1998C182.74 16.4665 182.513 16.9731 182.06 17.7198C181.606 18.4665 181.113 19.2398 180.58 20.0398C180.366 20.3331 180.073 20.7331 179.7 21.2398C179.326 21.7465 178.966 22.2265 178.62 22.6798C178.273 23.1065 178.046 23.3998 177.94 23.5598C177.673 23.9598 177.393 24.6131 177.1 25.5198C176.78 26.4265 176.62 27.1198 176.62 27.5998C176.62 27.8131 176.66 27.9731 176.74 28.0798C176.846 28.1865 177.073 28.2398 177.42 28.2398C178.086 28.2398 178.833 28.0265 179.66 27.5998C180.486 27.1731 181.326 26.6398 182.18 25.9998C183.033 25.3331 183.833 24.6531 184.58 23.9598C185.353 23.2665 186.006 22.6665 186.54 22.1598C186.646 22.0531 186.806 21.9998 187.02 21.9998C187.42 21.9998 187.62 22.1598 187.62 22.4798C187.62 22.7731 187.433 23.1065 187.06 23.4798C186.34 24.1998 185.673 24.8398 185.06 25.3998C184.446 25.9598 183.86 26.4531 183.3 26.8798C182.42 27.5198 181.446 28.1065 180.38 28.6398C179.313 29.1731 178.313 29.4398 177.38 29.4398Z" fill="white"/>
<path d="M161.328 30.0004C160.902 30.0004 160.688 29.8271 160.688 29.4804C160.688 29.3204 160.728 29.1604 160.808 29.0004C160.915 28.8404 160.995 28.7071 161.048 28.6004L164.688 21.2404C166.235 18.0937 167.008 16.3471 167.008 16.0004C167.008 15.6271 167.195 15.4404 167.568 15.4404C168.075 15.4404 168.328 15.6937 168.328 16.2004C168.328 16.4671 168.208 16.8937 167.968 17.4804C167.728 18.0671 167.422 18.7471 167.048 19.5204C166.408 20.9071 165.875 21.9737 165.448 22.7204C166.248 21.7871 167.062 20.9071 167.888 20.0804C168.715 19.2537 169.555 18.4671 170.408 17.7204C172.942 15.5071 174.888 14.4004 176.248 14.4004C177.182 14.4004 177.648 14.8404 177.648 15.7204C177.648 16.5737 177.368 17.0004 176.808 17.0004C176.542 17.0004 176.342 16.7737 176.208 16.3204C176.128 16.0004 175.942 15.8404 175.648 15.8404C175.195 15.8404 174.315 16.3337 173.008 17.3204C171.568 18.3871 170.115 19.6537 168.648 21.1204C167.208 22.5871 165.675 24.4537 164.048 26.7204L162.048 29.5204C161.942 29.6537 161.835 29.7604 161.728 29.8404C161.648 29.9471 161.515 30.0004 161.328 30.0004Z" fill="white"/>
<path d="M153.627 31.7603C153.121 31.7603 152.867 31.3603 152.867 30.5603C152.867 29.387 153.521 27.3336 154.827 24.4003C156.161 21.467 158.134 17.627 160.747 12.8803C159.734 12.8803 158.774 13.0136 157.867 13.2803C156.987 13.5203 156.521 13.827 156.467 14.2003C156.441 14.307 156.374 14.4136 156.267 14.5203C156.187 14.6003 156.054 14.6403 155.867 14.6403C155.441 14.6403 155.227 14.427 155.227 14.0003C155.227 13.307 155.774 12.7336 156.867 12.2803C157.961 11.827 159.494 11.6003 161.467 11.6003L164.227 7.04031C164.414 6.74698 164.614 6.42698 164.827 6.08031C165.041 5.70698 165.281 5.30698 165.547 4.88031C165.814 4.50698 166.121 4.32031 166.467 4.32031C166.681 4.32031 166.841 4.38698 166.947 4.52031C167.054 4.62698 167.107 4.74698 167.107 4.88031C167.107 5.28031 166.521 6.34698 165.347 8.08031C163.881 10.2403 163.094 11.4136 162.987 11.6003C163.387 11.6003 163.987 11.6403 164.787 11.7203C165.587 11.7736 166.534 11.867 167.627 12.0003C168.027 12.027 168.227 12.227 168.227 12.6003C168.227 13.027 167.987 13.2403 167.507 13.2403C167.321 13.2403 166.947 13.2136 166.387 13.1603C165.827 13.0803 165.227 13.0136 164.587 12.9603C163.947 12.907 163.401 12.8936 162.947 12.9203L162.347 12.9603C156.934 22.4803 154.241 28.4003 154.267 30.7203L154.307 31.0403V31.1203C154.307 31.547 154.081 31.7603 153.627 31.7603Z" fill="white"/>
<path d="M143.525 29.7199C142.405 29.7199 141.525 29.3332 140.885 28.5599C140.245 27.7866 139.925 26.8399 139.925 25.7199C139.925 23.7999 140.565 21.8265 141.845 19.7999C142.191 19.2399 142.591 18.6932 143.045 18.1599C143.498 17.5999 143.991 17.0665 144.525 16.5599C145.325 15.7866 146.165 15.1466 147.045 14.6399C147.925 14.1332 148.778 13.8799 149.605 13.8799C150.965 13.8799 151.645 14.5199 151.645 15.7999C151.645 17.3999 150.711 18.8532 148.845 20.1599C147.111 21.3332 145.405 21.9199 143.725 21.9199C143.431 21.9199 143.165 21.9065 142.925 21.8799C142.711 21.8265 142.511 21.7732 142.325 21.7199C142.058 22.2265 141.818 22.8799 141.605 23.6799C141.391 24.4799 141.285 25.1732 141.285 25.7599C141.285 27.5199 142.058 28.3999 143.605 28.3999C144.858 28.3999 146.045 28.1865 147.165 27.7599C148.285 27.3065 149.618 26.4666 151.165 25.2399C152.125 24.4932 152.845 23.8932 153.325 23.4399C153.805 22.9865 154.325 22.5066 154.885 21.9999C155.045 21.8932 155.191 21.8399 155.325 21.8399C155.458 21.8399 155.591 21.8799 155.725 21.9599C155.858 22.0399 155.925 22.1599 155.925 22.3199C155.925 22.6132 155.658 23.0265 155.125 23.5599C154.671 23.9865 154.191 24.4399 153.685 24.9199C153.178 25.3732 152.378 26.0132 151.285 26.8399C150.111 27.7466 148.831 28.4532 147.445 28.9599C146.058 29.4665 144.751 29.7199 143.525 29.7199ZM143.485 20.6399C144.338 20.6399 145.151 20.5066 145.925 20.2399C146.698 19.9732 147.431 19.5866 148.125 19.0799C149.671 17.9332 150.445 16.8532 150.445 15.8399C150.445 15.3865 150.165 15.1599 149.605 15.1599C148.538 15.1599 147.298 15.8132 145.885 17.1199C145.191 17.7599 144.618 18.3465 144.165 18.8799C143.738 19.3865 143.338 19.9465 142.965 20.5599C143.125 20.6132 143.298 20.6399 143.485 20.6399Z" fill="white"/>
<path d="M110.595 31.96C110.168 31.96 109.955 31.7467 109.955 31.32C109.955 31.0267 110.048 30.6 110.235 30.04C109.781 30.04 109.555 29.84 109.555 29.44C109.555 28.96 109.941 28.7467 110.715 28.8C111.701 26.4 114.141 21.8933 118.035 15.28C119.048 13.5467 120.101 11.7867 121.195 10C122.288 8.21333 123.408 6.42667 124.555 4.64C120.955 5.6 119.275 6.08 119.515 6.08C119.088 6.08 118.875 5.85333 118.875 5.4C118.875 5.16 119.021 4.97333 119.315 4.84C119.768 4.62667 120.515 4.37333 121.555 4.08C122.595 3.76 123.928 3.4 125.555 3C125.795 2.62667 126.008 2.28 126.195 1.96C126.408 1.64 126.608 1.36 126.795 1.12C127.355 0.373333 127.755 0 127.995 0C128.421 0 128.635 0.186667 128.635 0.56C128.635 0.719999 128.488 1.01333 128.195 1.44C127.901 1.86667 127.621 2.30667 127.355 2.76C127.995 2.65333 128.795 2.52 129.755 2.36C130.715 2.17333 131.901 2.08 133.315 2.08C138.621 2.08 141.275 3.29333 141.275 5.72C141.275 6.70667 140.955 7.62667 140.315 8.48C139.675 9.30667 138.808 10.0667 137.715 10.76C136.648 11.4533 135.461 12.08 134.155 12.64C132.848 13.1733 131.528 13.64 130.195 14.04C134.141 14.9467 136.115 16.8 136.115 19.6C136.115 21.0667 135.675 22.3867 134.795 23.56C133.941 24.7333 132.808 25.7467 131.395 26.6C129.981 27.4533 128.421 28.1467 126.715 28.68C123.248 29.7467 119.208 30.28 114.595 30.28C113.635 30.28 112.648 30.24 111.635 30.16C111.368 30.72 111.235 31.1067 111.235 31.32C111.235 31.7467 111.021 31.96 110.595 31.96ZM114.875 29C119.035 29 122.755 28.52 126.035 27.56C127.555 27.1067 128.981 26.4933 130.315 25.72C131.675 24.9467 132.768 24.04 133.595 23C134.448 21.9333 134.875 20.7867 134.875 19.56C134.875 17.88 133.741 16.6 131.475 15.72C129.768 15.08 127.901 14.76 125.875 14.76C125.181 14.76 124.515 14.8 123.875 14.88C123.155 15.0667 122.755 15.16 122.675 15.16C122.275 15.16 122.075 14.9333 122.075 14.48C122.075 14.1067 122.288 13.92 122.715 13.92C125.435 13.92 128.541 13.3067 132.035 12.08C133.315 11.6267 134.555 11.0933 135.755 10.48C136.981 9.84 137.981 9.13333 138.755 8.36C139.555 7.56 139.955 6.72 139.955 5.84C139.955 4.24 137.741 3.44 133.315 3.44C132.275 3.44 131.181 3.50667 130.035 3.64C128.915 3.77333 127.728 3.97333 126.475 4.24C123.301 9.14667 120.515 13.6533 118.115 17.76C115.715 21.8667 113.728 25.5867 112.155 28.92C112.368 28.9467 112.635 28.9733 112.955 29C113.275 29 113.915 29 114.875 29Z" fill="white"/>
<path d="M90.2045 29.7199C89.0845 29.7199 88.2045 29.3332 87.5645 28.5599C86.9245 27.7866 86.6045 26.8399 86.6045 25.7199C86.6045 23.7999 87.2445 21.8265 88.5245 19.7999C88.8712 19.2399 89.2712 18.6932 89.7245 18.1599C90.1778 17.5999 90.6712 17.0665 91.2045 16.5599C92.0045 15.7866 92.8445 15.1466 93.7245 14.6399C94.6045 14.1332 95.4578 13.8799 96.2845 13.8799C97.6445 13.8799 98.3245 14.5199 98.3245 15.7999C98.3245 17.3999 97.3912 18.8532 95.5245 20.1599C93.7912 21.3332 92.0845 21.9199 90.4045 21.9199C90.1112 21.9199 89.8445 21.9065 89.6045 21.8799C89.3912 21.8265 89.1912 21.7732 89.0045 21.7199C88.7378 22.2265 88.4978 22.8799 88.2845 23.6799C88.0712 24.4799 87.9645 25.1732 87.9645 25.7599C87.9645 27.5199 88.7378 28.3999 90.2845 28.3999C91.5378 28.3999 92.7245 28.1865 93.8445 27.7599C94.9645 27.3065 96.2978 26.4666 97.8445 25.2399C98.8045 24.4932 99.5245 23.8932 100.004 23.4399C100.484 22.9865 101.004 22.5066 101.564 21.9999C101.724 21.8932 101.871 21.8399 102.004 21.8399C102.138 21.8399 102.271 21.8799 102.404 21.9599C102.538 22.0399 102.604 22.1599 102.604 22.3199C102.604 22.6132 102.338 23.0265 101.804 23.5599C101.351 23.9865 100.871 24.4399 100.364 24.9199C99.8578 25.3732 99.0578 26.0132 97.9645 26.8399C96.7912 27.7466 95.5112 28.4532 94.1245 28.9599C92.7378 29.4665 91.4312 29.7199 90.2045 29.7199ZM90.1645 20.6399C91.0178 20.6399 91.8312 20.5066 92.6045 20.2399C93.3778 19.9732 94.1112 19.5866 94.8045 19.0799C96.3512 17.9332 97.1245 16.8532 97.1245 15.8399C97.1245 15.3865 96.8445 15.1599 96.2845 15.1599C95.2178 15.1599 93.9778 15.8132 92.5645 17.1199C91.8712 17.7599 91.2978 18.3465 90.8445 18.8799C90.4178 19.3865 90.0178 19.9465 89.6445 20.5599C89.8045 20.6132 89.9778 20.6399 90.1645 20.6399Z" fill="white"/>
<path d="M55.1966 30.3597C54.7433 30.3597 54.5166 30.1464 54.5166 29.7197C54.5166 29.693 54.6766 29.3597 54.9966 28.7197C55.3166 28.0797 55.7699 27.133 56.3566 25.8797L58.3966 21.5997C59.2233 19.8664 59.8099 18.493 60.1566 17.4797C60.5299 16.4664 60.7166 15.813 60.7166 15.5197C60.7166 15.093 60.9299 14.8797 61.3566 14.8797C61.7833 14.8797 61.9966 15.093 61.9966 15.5197C61.9966 15.8664 61.8766 16.413 61.6366 17.1597C61.4233 17.8797 61.0633 18.813 60.5566 19.9597L58.5166 24.5997C64.0899 17.5597 68.2899 14.0397 71.1166 14.0397C71.6499 14.0397 72.0633 14.2664 72.3566 14.7197C72.6499 15.1464 72.7966 15.6264 72.7966 16.1597C72.7966 17.4397 71.8766 19.6664 70.0366 22.8397C71.4499 21.3997 72.8766 19.9597 74.3166 18.5197C75.7833 17.053 77.2499 15.613 78.7166 14.1997C79.0899 13.853 79.3966 13.6797 79.6366 13.6797C79.9566 13.6797 80.2233 13.8397 80.4366 14.1597C80.6499 14.453 80.7566 14.773 80.7566 15.1197C80.7566 15.3864 80.6366 15.7197 80.3966 16.1197C80.0499 16.7064 79.7299 17.413 79.4366 18.2397C79.1433 19.0397 78.8099 19.9464 78.4366 20.9597C78.0099 22.1064 77.7033 23.1064 77.5166 23.9597C77.3299 24.813 77.2366 25.5064 77.2366 26.0397C77.2366 26.7064 77.3966 27.1997 77.7166 27.5197C78.0366 27.813 78.3566 27.9597 78.6766 27.9597C79.2366 27.9597 79.8499 27.813 80.5166 27.5197C81.1833 27.2264 81.7299 26.933 82.1566 26.6397C83.0099 26.0797 83.9033 25.3864 84.8366 24.5597C85.7699 23.7064 86.6633 22.853 87.5166 21.9997C87.6233 21.893 87.7833 21.8397 87.9966 21.8397C88.3966 21.8397 88.5966 21.9997 88.5966 22.3197C88.5966 22.613 88.4099 22.9464 88.0366 23.3197C86.9699 24.3864 86.0099 25.3064 85.1566 26.0797C84.3033 26.8264 83.4899 27.4397 82.7166 27.9197C82.2099 28.213 81.5966 28.5197 80.8766 28.8397C80.1566 29.1597 79.3833 29.3197 78.5566 29.3197C77.7833 29.3197 77.1299 29.0797 76.5966 28.5997C76.0899 28.1197 75.8366 27.093 75.8366 25.5197C75.8366 24.9064 75.9433 24.1864 76.1566 23.3597C76.3699 22.5064 76.6899 21.5597 77.1166 20.5197L79.2366 15.4797L73.5166 21.2397C72.8499 21.9064 72.3033 22.4664 71.8766 22.9197C71.4499 23.373 71.1033 23.7464 70.8366 24.0397C70.3299 24.573 69.8766 25.093 69.4766 25.5997C69.1033 26.1064 68.7833 26.5464 68.5166 26.9197C68.3299 27.213 68.1166 27.3597 67.8766 27.3597C67.4233 27.3597 67.1966 27.173 67.1966 26.7997C67.1966 25.973 67.9433 24.0664 69.4366 21.0797C70.9299 18.093 71.6766 16.3064 71.6766 15.7197C71.6766 15.453 71.3833 15.3197 70.7966 15.3197C68.4233 15.3197 64.1966 19.1997 58.1166 26.9597C57.6099 27.6797 56.7699 28.7597 55.5966 30.1997C55.5166 30.3064 55.3833 30.3597 55.1966 30.3597Z" fill="white"/>
<path d="M48.9667 30.36C47.66 30.36 47.0067 29.4133 47.0067 27.52C47.0067 26.5067 47.2467 25.28 47.7267 23.84C44.5 27.6 41.9667 29.48 40.1267 29.48C38.6067 29.48 37.8467 28.56 37.8467 26.72C37.8467 26.0267 37.9533 25.2 38.1667 24.24C38.4067 23.2533 38.7133 22.24 39.0867 21.2C39.4867 20.16 39.9133 19.1867 40.3667 18.28C40.82 17.3733 41.2733 16.64 41.7267 16.08C41.8867 15.8933 42.0867 15.8 42.3267 15.8C42.46 15.8 42.5933 15.8533 42.7267 15.96C42.86 16.04 42.9267 16.1733 42.9267 16.36C42.9267 16.52 42.8333 16.7467 42.6467 17.04C41.4467 19.0133 40.5933 20.7333 40.0867 22.2C39.4467 23.88 39.1267 25.3333 39.1267 26.56C39.1267 27.7067 39.42 28.28 40.0067 28.28C40.38 28.28 40.8733 28.0933 41.4867 27.72C42.1 27.3467 42.7267 26.8933 43.3667 26.36C44.0333 25.8 44.6067 25.28 45.0867 24.8C46.42 23.3867 47.62 21.88 48.6867 20.28C49.1667 19.5333 49.5933 18.8133 49.9667 18.12C50.3667 17.4 50.7267 16.6533 51.0467 15.88C51.18 15.5867 51.2867 15.3733 51.3667 15.24C51.4733 15.08 51.62 15 51.8067 15C52.3667 15 52.6467 15.2133 52.6467 15.64C52.6467 15.9067 52.5533 16.0933 52.3667 16.2C49.6467 21.72 48.2867 25.52 48.2867 27.6C48.2867 28.16 48.34 28.56 48.4467 28.8C48.5533 29.0133 48.74 29.12 49.0067 29.12C49.38 29.12 49.9533 28.88 50.7267 28.4C51.5267 27.92 52.46 27.1867 53.5267 26.2L57.7267 22.36C57.94 22.1467 58.14 22.04 58.3267 22.04C58.7533 22.04 58.9667 22.24 58.9667 22.64C58.9667 22.9867 58.1267 23.92 56.4467 25.44C55.7267 26.1067 55.0867 26.6667 54.5267 27.12C53.9667 27.5733 53.4467 27.9733 52.9667 28.32C52.06 28.96 51.26 29.4533 50.5667 29.8C49.8733 30.1733 49.34 30.36 48.9667 30.36Z" fill="white"/>
<path d="M21.362 29.4001C19.8153 29.4001 19.042 28.6668 19.042 27.2001C19.042 26.2401 19.2687 25.2135 19.722 24.1201C20.202 23.0001 20.842 21.9201 21.642 20.8801C22.442 19.8135 23.3353 18.8535 24.322 18.0001C25.3087 17.1201 26.322 16.4268 27.362 15.9201C28.402 15.3868 29.402 15.1201 30.362 15.1201C32.0687 15.1201 32.922 15.9601 32.922 17.6401C32.922 18.7335 32.6553 19.2801 32.122 19.2801C31.642 19.2801 31.402 19.0535 31.402 18.6001C31.402 18.4135 31.442 18.2268 31.522 18.0401C31.6287 17.8268 31.682 17.6001 31.682 17.3601C31.682 16.6135 31.1753 16.2401 30.162 16.2401C28.5353 16.2401 26.4953 17.4801 24.042 19.9601C23.4553 20.5735 22.882 21.2935 22.322 22.1201C21.762 22.9468 21.2953 23.7868 20.922 24.6401C20.5753 25.4668 20.402 26.2535 20.402 27.0001C20.402 27.7201 20.802 28.0801 21.602 28.0801C22.2953 28.0801 23.0287 27.8668 23.802 27.4401C24.602 27.0135 25.2953 26.5735 25.882 26.1201C27.0553 25.2401 28.2553 24.0401 29.482 22.5201C29.6687 22.3068 29.9087 22.0268 30.202 21.6801C30.4953 21.3335 30.8287 20.9468 31.202 20.5201C31.3353 20.3868 31.4953 20.3201 31.682 20.3201C32.1087 20.3201 32.322 20.5335 32.322 20.9601L30.802 23.2401C29.7887 24.7335 29.282 25.9601 29.282 26.9201C29.282 27.6134 29.6153 27.9601 30.282 27.9601C30.842 27.9601 31.4553 27.8135 32.122 27.5201C32.7887 27.2268 33.3353 26.9335 33.762 26.6401C34.6153 26.0801 35.5087 25.3868 36.442 24.5601C37.3753 23.7068 38.2687 22.8535 39.122 22.0001C39.2287 21.8935 39.3887 21.8401 39.602 21.8401C40.002 21.8401 40.202 22.0001 40.202 22.3201C40.202 22.6135 40.0153 22.9468 39.642 23.3201C38.5753 24.3868 37.6153 25.3068 36.762 26.0801C35.9087 26.8268 35.0953 27.4401 34.322 27.9201C33.8153 28.2134 33.1887 28.5201 32.442 28.8401C31.6953 29.1601 30.842 29.3201 29.882 29.3201C28.5753 29.3201 27.922 28.6268 27.922 27.2401C27.922 26.7068 27.9887 26.2668 28.122 25.9201C25.6953 28.2401 23.442 29.4001 21.362 29.4001Z" fill="white"/>
<path d="M4.68766 30.24C3.54099 30.24 2.60766 29.8933 1.88766 29.2C1.19432 28.5067 0.847656 27.5867 0.847656 26.44C0.847656 25.6133 1.02099 24.7733 1.36766 23.92C1.71432 23.0667 2.15432 22.2667 2.68766 21.52C3.24766 20.7467 3.82099 20.1067 4.40766 19.6C4.86099 19.1733 5.26099 18.96 5.60766 18.96C5.95432 18.96 6.12766 19.1333 6.12766 19.48C6.12766 19.8 5.90099 20.16 5.44766 20.56C4.54099 21.3333 3.79432 22.28 3.20766 23.4C2.62099 24.52 2.32766 25.56 2.32766 26.52C2.32766 28.04 3.14099 28.8 4.76766 28.8C5.72766 28.8 6.68766 28.48 7.64766 27.84C8.63432 27.2 9.60766 26.36 10.5677 25.32C11.5277 24.2533 12.4477 23.0667 13.3277 21.76C14.2343 20.4533 15.0877 19.1467 15.8877 17.84C19.4343 12.1067 21.7943 7.36 22.9677 3.6C22.621 3.62667 22.0877 3.73333 21.3677 3.92C20.6743 4.10667 19.7943 4.37333 18.7277 4.72C17.7143 5.04 16.9543 5.29333 16.4477 5.48C15.941 5.64 15.5943 5.72 15.4077 5.72C14.901 5.72 14.6477 5.49333 14.6477 5.04C14.6477 4.8 14.821 4.57333 15.1677 4.36C15.7277 4.01333 16.461 3.69333 17.3677 3.4C18.301 3.08 19.3543 2.81333 20.5277 2.6C22.581 2.2 24.5543 2 26.4477 2C27.221 2 28.0077 2.04 28.8077 2.12C29.6077 2.2 30.2477 2.29333 30.7277 2.4C31.181 2.48 31.4077 2.70667 31.4077 3.08C31.4077 3.48 31.221 3.68 30.8477 3.68C30.741 3.68 30.3277 3.62667 29.6077 3.52C28.8877 3.38667 27.9277 3.32 26.7277 3.32C25.901 3.32 25.061 3.36 24.2077 3.44C24.3143 3.54666 24.3677 3.68 24.3677 3.84C24.3677 3.92 24.3143 4.09333 24.2077 4.36C24.1277 4.6 24.0477 4.82667 23.9677 5.04C23.2743 6.98667 22.3943 9.01333 21.3277 11.12C20.2877 13.2 19.0743 15.3867 17.6877 17.68C16.7277 19.2533 15.7277 20.7867 14.6877 22.28C13.6477 23.7733 12.5677 25.12 11.4477 26.32C10.3543 27.52 9.23432 28.4667 8.08766 29.16C6.96766 29.88 5.83432 30.24 4.68766 30.24Z" fill="white"/>
</svg>
