<svg width="32" height="32" viewBox="0 0 32 32" fill="none" xmlns="http://www.w3.org/2000/svg">
<path fill-rule="evenodd" clip-rule="evenodd" d="M28.6065 7.22143C28.7332 7.41371 28.7897 7.64381 28.7663 7.87288C28.743 8.10195 28.6414 8.31596 28.4785 8.47876L16.2212 20.7348C16.0958 20.8601 15.9393 20.9498 15.7679 20.9948L10.6625 22.3281C10.4938 22.3721 10.3164 22.3712 10.1481 22.3255C9.97981 22.2798 9.82637 22.1909 9.70305 22.0676C9.57973 21.9443 9.4908 21.7908 9.4451 21.6225C9.3994 21.4542 9.39851 21.2769 9.44253 21.1081L10.7759 16.0041C10.8157 15.8512 10.889 15.7092 10.9905 15.5881L23.2932 3.29343C23.4807 3.10616 23.7349 3.00098 23.9999 3.00098C24.2649 3.00098 24.519 3.10616 24.7065 3.29343L28.4785 7.0641C28.5251 7.11322 28.5679 7.16581 28.6065 7.22143ZM26.3572 7.77076L23.9999 5.41476L12.6425 16.7721L11.8092 19.9628L14.9999 19.1294L26.3572 7.77076Z" fill="#FC0000"/>
<path d="M26.1867 22.8801C26.5512 19.7654 26.6675 16.6266 26.5347 13.4934C26.5316 13.4196 26.5438 13.3459 26.5707 13.277C26.5975 13.2082 26.6384 13.1457 26.6907 13.0934L28.0027 11.7814C28.0386 11.7454 28.0841 11.7204 28.1337 11.7096C28.1834 11.6988 28.2352 11.7026 28.2828 11.7205C28.3304 11.7383 28.3718 11.7696 28.4021 11.8104C28.4323 11.8513 28.4501 11.9 28.4534 11.9508C28.6997 15.6724 28.6059 19.4088 28.1734 23.1134C27.8587 25.8094 25.6934 27.9228 23.0094 28.2228C18.3498 28.7384 13.6476 28.7384 8.98805 28.2228C6.30538 27.9228 4.13872 25.8094 3.82405 23.1134C3.27219 18.3873 3.27219 13.6129 3.82405 8.88677C4.13872 6.19077 6.30405 4.07744 8.98805 3.77744C12.5246 3.38683 16.0877 3.29184 19.64 3.49344C19.6909 3.49709 19.7396 3.51523 19.7805 3.54572C19.8213 3.57621 19.8526 3.61776 19.8705 3.66546C19.8885 3.71316 19.8924 3.76501 19.8818 3.81487C19.8712 3.86472 19.8465 3.9105 19.8107 3.94677L18.4867 5.26944C18.435 5.32123 18.3731 5.36181 18.305 5.38865C18.2368 5.41549 18.1639 5.42801 18.0907 5.42544C15.1264 5.3239 12.1586 5.43753 9.21072 5.76544C8.3493 5.86078 7.54518 6.24373 6.92825 6.85244C6.31133 7.46114 5.91761 8.26005 5.81072 9.1201C5.27586 13.6912 5.27586 18.309 5.81072 22.8801C5.91761 23.7402 6.31133 24.5391 6.92825 25.1478C7.54518 25.7565 8.3493 26.1394 9.21072 26.2348C13.684 26.7348 18.3134 26.7348 22.788 26.2348C23.6495 26.1394 24.4536 25.7565 25.0705 25.1478C25.6874 24.5391 26.0798 23.7402 26.1867 22.8801Z" fill="#FC0000"/>
</svg>
