<svg width="280" height="46" viewBox="0 0 280 46" fill="none" xmlns="http://www.w3.org/2000/svg">
<path d="M270.867 31.8001C268.707 31.8001 267.627 30.5868 267.627 28.1601C267.627 27.0401 267.894 25.8668 268.427 24.6401C268.96 23.4135 269.667 22.2801 270.547 21.2401C271.427 20.1735 272.4 19.3068 273.467 18.6401C274.56 17.9735 275.667 17.6401 276.787 17.6401C277.774 17.6401 278.494 18.0135 278.947 18.7601C279.4 19.5068 279.627 20.3335 279.627 21.2401C279.627 22.4401 279.387 23.6668 278.907 24.9201C278.427 26.1468 277.774 27.2801 276.947 28.3201C276.12 29.3601 275.187 30.2001 274.147 30.8401C273.107 31.4801 272.014 31.8001 270.867 31.8001ZM270.827 30.5201C270.987 30.5201 271.08 30.5068 271.107 30.4801C272.147 30.3468 273.107 29.9735 273.987 29.3601C274.867 28.7468 275.627 27.9868 276.267 27.0801C276.934 26.1468 277.44 25.1468 277.787 24.0801C278.134 23.0135 278.307 21.9601 278.307 20.9201C278.307 20.3068 278.134 19.8268 277.787 19.4801C277.44 19.1335 277 18.9601 276.467 18.9601C275.694 18.9601 274.867 19.2801 273.987 19.9201C273.134 20.5601 272.32 21.3735 271.547 22.3601C270.8 23.3468 270.187 24.3868 269.707 25.4801C269.227 26.5468 268.987 27.5068 268.987 28.3601C268.987 29.8001 269.6 30.5201 270.827 30.5201Z" fill="white"/>
<path d="M252.683 45.1602C251.563 45.1602 250.723 44.7335 250.163 43.8802C249.603 43.0535 249.323 42.1069 249.323 41.0402C249.323 40.2402 249.363 39.4535 249.443 38.6802C249.497 37.9335 249.59 37.1869 249.723 36.4402C249.803 36.0135 249.99 35.8002 250.283 35.8002C250.817 35.8002 251.083 36.0802 251.083 36.6402C251.083 36.8002 251.043 37.0402 250.963 37.3602C250.883 37.6269 250.843 37.8269 250.843 37.9602C250.79 38.3869 250.75 38.8269 250.723 39.2802C250.697 39.7602 250.683 40.2402 250.683 40.7202C250.683 42.8269 251.457 43.8802 253.003 43.8802C253.457 43.8802 253.977 43.5735 254.563 42.9602C255.177 42.3469 255.723 41.6802 256.203 40.9602C257.323 39.2802 258.51 36.6269 259.763 33.0002L261.083 29.2002C258.923 31.7869 256.977 33.0802 255.243 33.0802C254.177 33.0802 253.35 32.6802 252.763 31.8802C252.177 31.0802 251.883 30.1069 251.883 28.9602C251.883 26.6669 252.897 24.1335 254.923 21.3602C257.137 18.4002 259.31 16.9202 261.443 16.9202C263.123 16.9202 264.23 17.9069 264.763 19.8802C265.777 17.4269 266.71 16.2002 267.563 16.2002C267.883 16.2002 268.043 16.4669 268.043 17.0002C268.043 18.0669 267.55 19.4935 266.563 21.2802C266.35 21.6269 266.083 22.0535 265.763 22.5602C265.47 23.0669 265.137 23.6669 264.763 24.3602L263.403 27.6802C263.137 28.3202 262.803 29.1335 262.403 30.1202C262.003 31.0802 261.55 32.2135 261.043 33.5202C260.457 35.1202 259.91 36.4935 259.403 37.6402C258.923 38.8135 258.483 39.7735 258.083 40.5202C256.35 43.6135 254.603 45.1602 252.843 45.1602H252.683ZM255.243 31.6802C256.923 31.6802 259.403 29.4269 262.683 24.9202L263.843 21.9602C263.657 21.8269 263.523 21.5469 263.443 21.1202C263.203 19.9735 262.923 19.2135 262.603 18.8402C262.283 18.4669 261.857 18.2802 261.323 18.2802C260.71 18.2802 260.003 18.5602 259.203 19.1202C258.403 19.6802 257.643 20.3735 256.923 21.2002C256.203 22.0002 255.63 22.7869 255.203 23.5602C253.923 25.7469 253.283 27.6269 253.283 29.2002C253.283 30.8535 253.937 31.6802 255.243 31.6802Z" fill="white"/>
<path d="M234.625 32.9999C234.199 32.9999 233.985 32.8266 233.985 32.4799C233.985 32.3466 234.039 32.1866 234.145 31.9999C234.252 31.7866 234.345 31.6132 234.425 31.4799L238.025 24.2399C239.572 21.0932 240.345 19.3466 240.345 18.9999C240.345 18.6266 240.532 18.4399 240.905 18.4399C241.412 18.4399 241.665 18.7066 241.665 19.2399C241.665 19.4266 241.545 19.8266 241.305 20.4399C241.065 21.0532 240.759 21.7466 240.385 22.5199C239.745 23.9066 239.212 24.9732 238.785 25.7199C239.585 24.7866 240.399 23.9066 241.225 23.0799C242.052 22.2532 242.892 21.4666 243.745 20.7199C246.279 18.5066 248.225 17.3999 249.585 17.3999C250.519 17.3999 250.985 17.8399 250.985 18.7199C250.985 19.5199 250.305 21.3199 248.945 24.1199C247.585 26.9466 246.905 28.7332 246.905 29.4799C246.905 29.8266 247.025 29.9999 247.265 29.9999C247.345 29.9999 247.465 29.9732 247.625 29.9199C247.812 29.8399 247.999 29.7999 248.185 29.7999C248.639 29.7999 248.865 30.0132 248.865 30.4399C248.865 30.9732 248.292 31.2399 247.145 31.2399C246.612 31.2399 246.225 31.1199 245.985 30.8799C245.745 30.6132 245.625 30.2666 245.625 29.8399C245.625 28.5599 246.279 26.6132 247.585 23.9999C248.892 21.4132 249.545 19.8532 249.545 19.3199C249.545 18.9999 249.425 18.8399 249.185 18.8399C248.599 18.8399 247.652 19.3332 246.345 20.3199C244.932 21.3866 243.519 22.6132 242.105 23.9999C240.692 25.3866 239.345 26.9732 238.065 28.7599L235.265 32.6399C235.105 32.8799 234.892 32.9999 234.625 32.9999Z" fill="white"/>
<path d="M234.859 16.2398C234.406 16.2398 234.179 16.0131 234.179 15.5598C234.179 15.4265 234.273 15.1865 234.459 14.8398C234.646 14.4665 234.859 14.0931 235.099 13.7198C235.339 13.3465 235.526 13.0931 235.659 12.9598C236.113 12.4531 236.459 12.1331 236.699 11.9998C236.966 11.8665 237.206 11.7998 237.419 11.7998C237.979 11.7998 238.259 12.0531 238.259 12.5598C238.259 12.7465 238.139 12.9731 237.899 13.2398C237.686 13.4798 237.433 13.7065 237.139 13.9198C236.713 14.1865 236.446 14.3998 236.339 14.5598L235.459 15.7998C235.433 15.9065 235.366 16.0131 235.259 16.1198C235.179 16.1998 235.046 16.2398 234.859 16.2398ZM228.059 32.4398C227.313 32.4398 226.766 32.2931 226.419 31.9998C226.099 31.7065 225.939 31.2665 225.939 30.6798C225.939 30.1198 226.113 29.3598 226.459 28.3998C226.806 27.4131 227.246 26.3598 227.779 25.2398C228.339 24.1198 228.926 23.0531 229.539 22.0398C230.153 21.0265 230.739 20.1998 231.299 19.5598C231.886 18.8931 232.353 18.5598 232.699 18.5598C233.179 18.5598 233.419 18.7731 233.419 19.1998C233.419 19.4665 233.193 19.9731 232.739 20.7198C232.286 21.4665 231.793 22.2398 231.259 23.0398C231.046 23.3331 230.753 23.7331 230.379 24.2398C230.006 24.7465 229.646 25.2265 229.299 25.6798C228.953 26.1065 228.726 26.3998 228.619 26.5598C228.353 26.9598 228.073 27.6131 227.779 28.5198C227.459 29.4265 227.299 30.1198 227.299 30.5998C227.299 30.8131 227.339 30.9731 227.419 31.0798C227.526 31.1865 227.753 31.2398 228.099 31.2398C228.766 31.2398 229.513 31.0265 230.339 30.5998C231.166 30.1731 232.006 29.6398 232.859 28.9998C233.713 28.3331 234.513 27.6531 235.259 26.9598C236.033 26.2665 236.686 25.6665 237.219 25.1598C237.326 25.0531 237.486 24.9998 237.699 24.9998C238.099 24.9998 238.299 25.1598 238.299 25.4798C238.299 25.7731 238.113 26.1065 237.739 26.4798C237.019 27.1998 236.353 27.8398 235.739 28.3998C235.126 28.9598 234.539 29.4531 233.979 29.8798C233.099 30.5198 232.126 31.1065 231.059 31.6398C229.993 32.1731 228.993 32.4398 228.059 32.4398Z" fill="white"/>
<path d="M195.251 33.3602C194.798 33.3602 194.571 33.1468 194.571 32.7202C194.571 32.6935 194.731 32.3602 195.051 31.7202C195.371 31.0802 195.825 30.1335 196.411 28.8802L198.451 24.6002C199.278 22.8668 199.865 21.4935 200.211 20.4802C200.585 19.4668 200.771 18.8135 200.771 18.5202C200.771 18.0935 200.985 17.8802 201.411 17.8802C201.838 17.8802 202.051 18.0935 202.051 18.5202C202.051 18.8668 201.931 19.4135 201.691 20.1602C201.478 20.8802 201.118 21.8135 200.611 22.9602L198.571 27.6002C204.145 20.5602 208.345 17.0402 211.171 17.0402C211.705 17.0402 212.118 17.2668 212.411 17.7202C212.705 18.1468 212.851 18.6268 212.851 19.1602C212.851 20.4402 211.931 22.6668 210.091 25.8402C211.505 24.4002 212.931 22.9602 214.371 21.5202C215.838 20.0535 217.305 18.6135 218.771 17.2002C219.145 16.8535 219.451 16.6802 219.691 16.6802C220.011 16.6802 220.278 16.8402 220.491 17.1602C220.705 17.4535 220.811 17.7735 220.811 18.1202C220.811 18.3868 220.691 18.7202 220.451 19.1202C220.105 19.7068 219.785 20.4135 219.491 21.2402C219.198 22.0402 218.865 22.9468 218.491 23.9602C218.065 25.1068 217.758 26.1068 217.571 26.9602C217.385 27.8135 217.291 28.5068 217.291 29.0402C217.291 29.7068 217.451 30.2002 217.771 30.5202C218.091 30.8135 218.411 30.9602 218.731 30.9602C219.291 30.9602 219.905 30.8135 220.571 30.5202C221.238 30.2268 221.785 29.9335 222.211 29.6402C223.065 29.0802 223.958 28.3868 224.891 27.5602C225.825 26.7068 226.718 25.8535 227.571 25.0002C227.678 24.8935 227.838 24.8402 228.051 24.8402C228.451 24.8402 228.651 25.0002 228.651 25.3202C228.651 25.6135 228.465 25.9468 228.091 26.3202C227.025 27.3868 226.065 28.3068 225.211 29.0802C224.358 29.8268 223.545 30.4402 222.771 30.9202C222.265 31.2135 221.651 31.5202 220.931 31.8402C220.211 32.1602 219.438 32.3202 218.611 32.3202C217.838 32.3202 217.185 32.0802 216.651 31.6002C216.145 31.1202 215.891 30.0935 215.891 28.5202C215.891 27.9068 215.998 27.1868 216.211 26.3602C216.425 25.5068 216.745 24.5602 217.171 23.5202L219.291 18.4802L213.571 24.2402C212.905 24.9068 212.358 25.4668 211.931 25.9202C211.505 26.3735 211.158 26.7468 210.891 27.0402C210.385 27.5735 209.931 28.0935 209.531 28.6002C209.158 29.1068 208.838 29.5468 208.571 29.9202C208.385 30.2135 208.171 30.3602 207.931 30.3602C207.478 30.3602 207.251 30.1735 207.251 29.8002C207.251 28.9735 207.998 27.0668 209.491 24.0802C210.985 21.0935 211.731 19.3068 211.731 18.7202C211.731 18.4535 211.438 18.3202 210.851 18.3202C208.478 18.3202 204.251 22.2002 198.171 29.9602C197.665 30.6802 196.825 31.7602 195.651 33.2002C195.571 33.3068 195.438 33.3602 195.251 33.3602Z" fill="white"/>
<path d="M186.531 31.8001C184.371 31.8001 183.291 30.5868 183.291 28.1601C183.291 27.0401 183.558 25.8668 184.091 24.6401C184.624 23.4135 185.331 22.2801 186.211 21.2401C187.091 20.1735 188.064 19.3068 189.131 18.6401C190.224 17.9735 191.331 17.6401 192.451 17.6401C193.438 17.6401 194.158 18.0135 194.611 18.7601C195.064 19.5068 195.291 20.3335 195.291 21.2401C195.291 22.4401 195.051 23.6668 194.571 24.9201C194.091 26.1468 193.438 27.2801 192.611 28.3201C191.784 29.3601 190.851 30.2001 189.811 30.8401C188.771 31.4801 187.678 31.8001 186.531 31.8001ZM186.491 30.5201C186.651 30.5201 186.744 30.5068 186.771 30.4801C187.811 30.3468 188.771 29.9735 189.651 29.3601C190.531 28.7468 191.291 27.9868 191.931 27.0801C192.598 26.1468 193.104 25.1468 193.451 24.0801C193.798 23.0135 193.971 21.9601 193.971 20.9201C193.971 20.3068 193.798 19.8268 193.451 19.4801C193.104 19.1335 192.664 18.9601 192.131 18.9601C191.358 18.9601 190.531 19.2801 189.651 19.9201C188.798 20.5601 187.984 21.3735 187.211 22.3601C186.464 23.3468 185.851 24.3868 185.371 25.4801C184.891 26.5468 184.651 27.5068 184.651 28.3601C184.651 29.8001 185.264 30.5201 186.491 30.5201Z" fill="white"/>
<path d="M149.297 33.24C148.844 33.24 148.617 32.9067 148.617 32.24C148.617 31.2267 149.124 29.4933 150.137 27.04C151.151 24.56 152.684 21.3867 154.737 17.52C155.911 15.3333 156.871 13.52 157.617 12.08C158.364 10.64 158.951 9.49333 159.377 8.64C159.804 7.76 160.111 7.10667 160.297 6.68C160.484 6.22667 160.591 5.89333 160.617 5.68C160.617 5.57333 160.644 5.49333 160.697 5.44L159.137 5.36C158.791 5.33333 158.524 5.24 158.337 5.08C158.177 4.92 158.097 4.74667 158.097 4.56C158.097 4.18667 158.311 4 158.737 4C164.551 4 169.591 5.2 173.857 7.6C176.071 8.85333 177.897 10.4267 179.337 12.32C180.777 14.1867 181.497 16.3067 181.497 18.68C181.497 20.6 180.964 22.2533 179.897 23.64C178.831 25.0267 177.377 26.2267 175.537 27.24C173.724 28.2533 171.671 29.16 169.377 29.96C167.831 30.4933 166.111 31.0133 164.217 31.52C162.324 32 160.471 32.3867 158.657 32.68C156.844 32.9733 155.244 33.12 153.857 33.12C152.897 33.12 152.151 32.9867 151.617 32.72C151.057 32.4267 150.777 32.1067 150.777 31.76C150.777 31.4667 150.937 31.32 151.257 31.32C151.471 31.32 151.671 31.36 151.857 31.44C152.044 31.52 152.311 31.6 152.657 31.68C153.004 31.76 153.511 31.8 154.177 31.8C155.137 31.8 156.217 31.72 157.417 31.56C158.644 31.3733 159.911 31.1333 161.217 30.84C162.551 30.5467 163.844 30.2267 165.097 29.88C166.351 29.5067 167.497 29.1467 168.537 28.8C170.777 28.0267 172.764 27.1733 174.497 26.24C176.257 25.3067 177.631 24.2 178.617 22.92C179.604 21.64 180.097 20.0933 180.097 18.28C180.097 14.4667 177.871 11.2933 173.417 8.76C170.457 7.10667 166.604 6.02667 161.857 5.52C161.964 5.65333 162.017 5.8 162.017 5.96C162.017 6.2 161.817 6.74667 161.417 7.6C161.044 8.45333 160.537 9.48 159.897 10.68C159.284 11.88 158.631 13.1467 157.937 14.48C157.244 15.8133 156.577 17.0667 155.937 18.24C151.911 25.9467 149.897 30.5867 149.897 32.16C149.897 32.2667 149.897 32.3467 149.897 32.4C149.924 32.4533 149.937 32.5333 149.937 32.64C149.937 32.7733 149.884 32.9067 149.777 33.04C149.671 33.1733 149.511 33.24 149.297 33.24Z" fill="white"/>
<path d="M128.25 31.8001C126.09 31.8001 125.01 30.5868 125.01 28.1601C125.01 27.0401 125.276 25.8668 125.81 24.6401C126.343 23.4135 127.05 22.2801 127.93 21.2401C128.81 20.1735 129.783 19.3068 130.85 18.6401C131.943 17.9735 133.05 17.6401 134.17 17.6401C135.156 17.6401 135.876 18.0135 136.33 18.7601C136.783 19.5068 137.01 20.3335 137.01 21.2401C137.01 22.4401 136.77 23.6668 136.29 24.9201C135.81 26.1468 135.156 27.2801 134.33 28.3201C133.503 29.3601 132.57 30.2001 131.53 30.8401C130.49 31.4801 129.396 31.8001 128.25 31.8001ZM128.21 30.5201C128.37 30.5201 128.463 30.5068 128.49 30.4801C129.53 30.3468 130.49 29.9735 131.37 29.3601C132.25 28.7468 133.01 27.9868 133.65 27.0801C134.316 26.1468 134.823 25.1468 135.17 24.0801C135.516 23.0135 135.69 21.9601 135.69 20.9201C135.69 20.3068 135.516 19.8268 135.17 19.4801C134.823 19.1335 134.383 18.9601 133.85 18.9601C133.076 18.9601 132.25 19.2801 131.37 19.9201C130.516 20.5601 129.703 21.3735 128.93 22.3601C128.183 23.3468 127.57 24.3868 127.09 25.4801C126.61 26.5468 126.37 27.5068 126.37 28.3601C126.37 29.8001 126.983 30.5201 128.21 30.5201Z" fill="white"/>
<path d="M110.758 32.9999C110.331 32.9999 110.118 32.8266 110.118 32.4799C110.118 32.3199 110.158 32.1599 110.238 31.9999C110.345 31.8399 110.425 31.7066 110.478 31.5999L114.118 24.2399C115.665 21.0932 116.438 19.3466 116.438 18.9999C116.438 18.6266 116.625 18.4399 116.998 18.4399C117.505 18.4399 117.758 18.6932 117.758 19.1999C117.758 19.4666 117.638 19.8932 117.398 20.4799C117.158 21.0666 116.851 21.7466 116.478 22.5199C115.838 23.9066 115.305 24.9732 114.878 25.7199C115.678 24.7866 116.491 23.9066 117.318 23.0799C118.145 22.2532 118.985 21.4666 119.838 20.7199C122.371 18.5066 124.318 17.3999 125.678 17.3999C126.611 17.3999 127.078 17.8399 127.078 18.7199C127.078 19.5732 126.798 19.9999 126.238 19.9999C125.971 19.9999 125.771 19.7732 125.638 19.3199C125.558 18.9999 125.371 18.8399 125.078 18.8399C124.625 18.8399 123.745 19.3332 122.438 20.3199C120.998 21.3866 119.545 22.6532 118.078 24.1199C116.638 25.5866 115.105 27.4532 113.478 29.7199L111.478 32.5199C111.371 32.6532 111.265 32.7599 111.158 32.8399C111.078 32.9466 110.945 32.9999 110.758 32.9999Z" fill="white"/>
<path d="M108.359 35.56C108.146 35.56 107.879 35.4533 107.559 35.24C107.266 35.0533 107.039 34.8666 106.879 34.68C106.559 34.28 106.346 33.8 106.239 33.24C106.132 32.68 106.079 32.0666 106.079 31.4C106.079 30.84 106.092 30.24 106.119 29.6C106.172 28.9333 106.252 28.2266 106.359 27.48C105.666 28.28 104.879 29.0666 103.999 29.84C103.146 30.5866 102.266 31.2 101.359 31.68C100.479 32.16 99.6389 32.4 98.8389 32.4C96.8389 32.4 95.8389 31.3333 95.8389 29.2C95.8389 26.9866 96.6122 24.8533 98.1589 22.8C98.9322 21.7866 99.8122 20.8133 100.799 19.88C101.786 18.9466 102.826 18.1866 103.919 17.6C105.012 17.0133 106.092 16.72 107.159 16.72C107.959 16.72 108.666 17.0266 109.279 17.64C109.332 17.5333 109.399 17.36 109.479 17.12C109.586 16.88 109.732 16.5733 109.919 16.2C110.559 14.8133 111.266 13.3733 112.039 11.88C112.812 10.36 113.506 9.10665 114.119 8.11998C114.812 7.02665 115.466 6.47998 116.079 6.47998C116.506 6.47998 116.719 6.81331 116.719 7.47998C116.719 8.62665 115.639 11.3066 113.479 15.52C113.346 15.76 113.106 16.2 112.759 16.84C112.439 17.4533 112.052 18.1733 111.599 19C111.172 19.8 110.732 20.6 110.279 21.4C109.826 22.2 109.412 22.92 109.039 23.56C108.692 24.1733 108.439 24.6 108.279 24.84C107.986 26.04 107.759 27.1866 107.599 28.28C107.439 29.3466 107.359 30.4533 107.359 31.6C107.359 32.0266 107.372 32.4133 107.399 32.76C107.452 33.1333 107.559 33.4266 107.719 33.64C107.852 33.8 107.999 33.92 108.159 34C108.319 34.1066 108.506 34.2 108.719 34.28C109.039 34.36 109.199 34.5466 109.199 34.84C109.199 35.32 108.919 35.56 108.359 35.56ZM110.239 18.84C111.252 17.1066 112.146 15.4933 112.919 14C113.692 12.48 114.319 11.0533 114.799 9.71998C113.732 11.1066 112.839 12.5733 112.119 14.12C111.399 15.6666 110.772 17.24 110.239 18.84ZM98.5589 31.2C99.3322 31.2 100.146 30.9466 100.999 30.44C101.879 29.9066 102.706 29.28 103.479 28.56C104.172 27.92 104.812 27.2666 105.399 26.6C105.986 25.9066 106.532 25.2 107.039 24.48C107.252 23.5466 107.492 22.6266 107.759 21.72C108.052 20.8133 108.372 19.9066 108.719 19C108.292 18.3333 107.692 18 106.919 18C106.119 18 105.226 18.3066 104.239 18.92C103.279 19.5066 102.346 20.24 101.439 21.12C100.559 22 99.7989 22.84 99.1589 23.64C97.8255 25.4266 97.1589 27.32 97.1589 29.32C97.1589 30.5733 97.6255 31.2 98.5589 31.2Z" fill="white"/>
<path d="M78.141 32.9999C77.7143 32.9999 77.501 32.8266 77.501 32.4799C77.501 32.3466 77.5543 32.1866 77.661 31.9999C77.7676 31.7866 77.861 31.6132 77.941 31.4799L81.541 24.2399C83.0876 21.0932 83.861 19.3466 83.861 18.9999C83.861 18.6266 84.0476 18.4399 84.421 18.4399C84.9276 18.4399 85.181 18.7066 85.181 19.2399C85.181 19.4266 85.061 19.8266 84.821 20.4399C84.581 21.0532 84.2743 21.7466 83.901 22.5199C83.261 23.9066 82.7276 24.9732 82.301 25.7199C83.101 24.7866 83.9143 23.9066 84.741 23.0799C85.5676 22.2532 86.4076 21.4666 87.261 20.7199C89.7943 18.5066 91.741 17.3999 93.101 17.3999C94.0343 17.3999 94.501 17.8399 94.501 18.7199C94.501 19.5199 93.821 21.3199 92.461 24.1199C91.101 26.9466 90.421 28.7332 90.421 29.4799C90.421 29.8266 90.541 29.9999 90.781 29.9999C90.861 29.9999 90.981 29.9732 91.141 29.9199C91.3276 29.8399 91.5143 29.7999 91.701 29.7999C92.1543 29.7999 92.381 30.0132 92.381 30.4399C92.381 30.9732 91.8076 31.2399 90.661 31.2399C90.1276 31.2399 89.741 31.1199 89.501 30.8799C89.261 30.6132 89.141 30.2666 89.141 29.8399C89.141 28.5599 89.7943 26.6132 91.101 23.9999C92.4076 21.4132 93.061 19.8532 93.061 19.3199C93.061 18.9999 92.941 18.8399 92.701 18.8399C92.1143 18.8399 91.1676 19.3332 89.861 20.3199C88.4476 21.3866 87.0343 22.6132 85.621 23.9999C84.2076 25.3866 82.861 26.9732 81.581 28.7599L78.781 32.6399C78.621 32.8799 78.4076 32.9999 78.141 32.9999Z" fill="white"/>
<path d="M63.0964 32.4001C61.5497 32.4001 60.7764 31.6668 60.7764 30.2001C60.7764 29.2401 61.003 28.2135 61.4564 27.1201C61.9364 26.0001 62.5764 24.9201 63.3764 23.8801C64.1764 22.8135 65.0697 21.8535 66.0564 21.0001C67.043 20.1201 68.0564 19.4268 69.0964 18.9201C70.1364 18.3868 71.1364 18.1201 72.0964 18.1201C73.803 18.1201 74.6564 18.9601 74.6564 20.6401C74.6564 21.7335 74.3897 22.2801 73.8564 22.2801C73.3764 22.2801 73.1364 22.0535 73.1364 21.6001C73.1364 21.4135 73.1764 21.2268 73.2564 21.0401C73.363 20.8268 73.4164 20.6001 73.4164 20.3601C73.4164 19.6135 72.9097 19.2401 71.8964 19.2401C70.2697 19.2401 68.2297 20.4801 65.7764 22.9601C65.1897 23.5735 64.6164 24.2935 64.0564 25.1201C63.4964 25.9468 63.0297 26.7868 62.6564 27.6401C62.3097 28.4668 62.1364 29.2535 62.1364 30.0001C62.1364 30.7201 62.5364 31.0801 63.3364 31.0801C64.0297 31.0801 64.763 30.8668 65.5364 30.4401C66.3364 30.0135 67.0297 29.5735 67.6164 29.1201C68.7897 28.2401 69.9897 27.0401 71.2164 25.5201C71.403 25.3068 71.643 25.0268 71.9364 24.6801C72.2297 24.3335 72.563 23.9468 72.9364 23.5201C73.0697 23.3868 73.2297 23.3201 73.4164 23.3201C73.843 23.3201 74.0564 23.5335 74.0564 23.9601L72.5364 26.2401C71.523 27.7335 71.0164 28.9601 71.0164 29.9201C71.0164 30.6134 71.3497 30.9601 72.0164 30.9601C72.5764 30.9601 73.1897 30.8135 73.8564 30.5201C74.523 30.2268 75.0697 29.9335 75.4964 29.6401C76.3497 29.0801 77.243 28.3868 78.1764 27.5601C79.1097 26.7068 80.003 25.8535 80.8564 25.0001C80.963 24.8935 81.123 24.8401 81.3364 24.8401C81.7364 24.8401 81.9364 25.0001 81.9364 25.3201C81.9364 25.6135 81.7497 25.9468 81.3764 26.3201C80.3097 27.3868 79.3497 28.3068 78.4964 29.0801C77.643 29.8268 76.8297 30.4401 76.0564 30.9201C75.5497 31.2134 74.923 31.5201 74.1764 31.8401C73.4297 32.1601 72.5764 32.3201 71.6164 32.3201C70.3097 32.3201 69.6564 31.6268 69.6564 30.2401C69.6564 29.7068 69.723 29.2668 69.8564 28.9201C67.4297 31.2401 65.1764 32.4001 63.0964 32.4001Z" fill="white"/>
<path d="M60.948 16.2398C60.4946 16.2398 60.268 16.0131 60.268 15.5598C60.268 15.4265 60.3613 15.1865 60.548 14.8398C60.7346 14.4665 60.948 14.0931 61.188 13.7198C61.428 13.3465 61.6146 13.0931 61.748 12.9598C62.2013 12.4531 62.548 12.1331 62.788 11.9998C63.0546 11.8665 63.2946 11.7998 63.508 11.7998C64.068 11.7998 64.348 12.0531 64.348 12.5598C64.348 12.7465 64.228 12.9731 63.988 13.2398C63.7746 13.4798 63.5213 13.7065 63.228 13.9198C62.8013 14.1865 62.5346 14.3998 62.428 14.5598L61.548 15.7998C61.5213 15.9065 61.4546 16.0131 61.348 16.1198C61.268 16.1998 61.1346 16.2398 60.948 16.2398ZM46.828 45.3198C46.108 45.3198 45.5213 45.0665 45.068 44.5598C44.588 44.0798 44.2413 43.4798 44.028 42.7598C43.788 42.0665 43.668 41.3998 43.668 40.7598C43.668 39.9865 43.748 39.2798 43.908 38.6398C44.1213 37.7065 44.468 37.2398 44.948 37.2398C45.3746 37.2398 45.588 37.4398 45.588 37.8398C45.588 37.9465 45.5346 38.0931 45.428 38.2798C45.3213 38.4665 45.2413 38.6265 45.188 38.7598C45.028 39.1865 44.948 39.7331 44.948 40.3998C44.948 41.2265 45.108 42.0131 45.428 42.7598C45.748 43.5331 46.2546 43.9198 46.948 43.9198C47.4813 43.9198 48.0146 43.7065 48.548 43.2798C49.0813 42.8531 49.6013 42.3065 50.108 41.6398C50.588 40.9998 51.0413 40.3198 51.468 39.5998C51.868 38.8798 52.2013 38.2131 52.468 37.5998C52.8413 36.7731 53.2146 35.8798 53.588 34.9198C53.9613 33.9598 54.2946 33.0398 54.588 32.1598C54.908 31.2798 55.1213 30.5731 55.228 30.0398C55.4413 28.9731 55.6546 27.9198 55.868 26.8798C56.108 25.8131 56.348 24.7465 56.588 23.6798C57.0413 21.7865 57.4946 20.4665 57.948 19.7198C58.4013 18.9731 58.8146 18.5998 59.188 18.5998C59.3746 18.5998 59.588 18.6798 59.828 18.8398C60.0946 18.9998 60.228 19.1865 60.228 19.3998C60.228 19.5065 59.9613 20.0131 59.428 20.9198C59.1346 21.4265 58.908 21.8265 58.748 22.1198C58.588 22.4131 58.4813 22.6131 58.428 22.7198C58.348 22.9065 58.228 23.3065 58.068 23.9198C57.908 24.5331 57.7213 25.2665 57.508 26.1198C57.3213 26.9465 57.1213 27.7998 56.908 28.6798C56.6946 29.5598 56.4946 30.3731 56.308 31.1198C56.148 31.8398 56.0013 32.3998 55.868 32.7998C55.4413 34.1865 54.9346 35.5465 54.348 36.8798C53.7613 38.2131 53.1346 39.4265 52.468 40.5198C50.5213 43.7198 48.6413 45.3198 46.828 45.3198Z" fill="white"/>
<path d="M44.1654 32.7199C43.0454 32.7199 42.1654 32.3332 41.5254 31.5599C40.8854 30.7866 40.5654 29.8399 40.5654 28.7199C40.5654 26.7999 41.2054 24.8265 42.4854 22.7999C42.8321 22.2399 43.2321 21.6932 43.6854 21.1599C44.1388 20.5999 44.6321 20.0665 45.1654 19.5599C45.9654 18.7866 46.8054 18.1466 47.6854 17.6399C48.5654 17.1332 49.4188 16.8799 50.2454 16.8799C51.6054 16.8799 52.2854 17.5199 52.2854 18.7999C52.2854 20.3999 51.3521 21.8532 49.4854 23.1599C47.7521 24.3332 46.0454 24.9199 44.3654 24.9199C44.0721 24.9199 43.8054 24.9065 43.5654 24.8799C43.3521 24.8265 43.1521 24.7732 42.9654 24.7199C42.6988 25.2265 42.4588 25.8799 42.2454 26.6799C42.0321 27.4799 41.9254 28.1732 41.9254 28.7599C41.9254 30.5199 42.6988 31.3999 44.2454 31.3999C45.4988 31.3999 46.6854 31.1865 47.8054 30.7599C48.9254 30.3065 50.2588 29.4666 51.8054 28.2399C52.7654 27.4932 53.4854 26.8932 53.9654 26.4399C54.4454 25.9865 54.9654 25.5066 55.5254 24.9999C55.6854 24.8932 55.8321 24.8399 55.9654 24.8399C56.0988 24.8399 56.2321 24.8799 56.3654 24.9599C56.4988 25.0399 56.5654 25.1599 56.5654 25.3199C56.5654 25.6132 56.2988 26.0265 55.7654 26.5599C55.3121 26.9865 54.8321 27.4399 54.3254 27.9199C53.8188 28.3732 53.0188 29.0132 51.9254 29.8399C50.7521 30.7466 49.4721 31.4532 48.0854 31.9599C46.6988 32.4665 45.3921 32.7199 44.1654 32.7199ZM44.1254 23.6399C44.9788 23.6399 45.7921 23.5066 46.5654 23.2399C47.3388 22.9732 48.0721 22.5866 48.7654 22.0799C50.3121 20.9332 51.0854 19.8532 51.0854 18.8399C51.0854 18.3865 50.8054 18.1599 50.2454 18.1599C49.1788 18.1599 47.9388 18.8132 46.5254 20.1199C45.8321 20.7599 45.2588 21.3465 44.8054 21.8799C44.3788 22.3865 43.9788 22.9465 43.6054 23.5599C43.7654 23.6132 43.9388 23.6399 44.1254 23.6399Z" fill="white"/>
<path d="M34.799 33.0802C33.5724 33.0802 32.6257 32.7068 31.959 31.9602C31.319 31.1868 30.999 30.1735 30.999 28.9202C30.999 28.0135 31.159 26.9202 31.479 25.6402C32.039 23.4802 32.9857 20.9735 34.319 18.1202C35.359 15.9602 36.479 13.8402 37.679 11.7602C38.879 9.65351 40.199 7.58684 41.639 5.56018C43.9324 2.30684 45.5324 0.680176 46.439 0.680176C47.0257 0.680176 47.319 0.840176 47.319 1.16018C47.319 1.61351 46.5724 2.74684 45.079 4.56018L42.279 7.96018C39.8524 10.8935 37.8657 13.8935 36.319 16.9602C34.799 20.0268 33.6124 23.0935 32.759 26.1602C32.519 27.0402 32.399 27.8668 32.399 28.6402C32.399 30.6668 33.2257 31.6802 34.879 31.6802C35.4657 31.6802 36.0657 31.5068 36.679 31.1602C37.2924 30.8402 37.6257 30.6802 37.679 30.6802C37.999 30.6802 38.159 30.9068 38.159 31.3602C38.159 31.7602 38.0124 32.0668 37.719 32.2802C36.8124 32.8135 35.839 33.0802 34.799 33.0802Z" fill="white"/>
<path d="M1.4798 34.36C1.02647 34.36 0.799805 34.1467 0.799805 33.72C0.799805 33.56 0.813138 33.4534 0.839805 33.4C1.82647 31.24 4.50647 28.0134 8.8798 23.72C8.74647 23.7467 8.62647 23.7734 8.5198 23.8C8.41314 23.8 8.33314 23.8 8.2798 23.8C7.82647 23.8 7.5998 23.5467 7.5998 23.04C7.5998 22.7467 7.82647 22.56 8.2798 22.48C8.54647 22.4267 8.82647 22.3867 9.11981 22.36C9.43981 22.3067 9.8398 22.2267 10.3198 22.12C13.5465 18.76 16.6531 15.88 19.6398 13.48C22.6531 11.0534 25.5331 9.06671 28.2798 7.52004C28.5198 7.38671 28.7331 7.28004 28.9198 7.20004C29.1065 7.09337 29.2665 7.04004 29.3998 7.04004C29.7198 7.04004 29.8798 7.25337 29.8798 7.68004C29.8798 8.48004 29.0798 11.2267 27.4798 15.92L25.7198 21.08C26.4131 21.08 26.7598 21.2934 26.7598 21.72C26.7598 22.2 26.3065 22.44 25.3998 22.44C24.8931 23.8267 24.4131 25.36 23.9598 27.04C23.5331 28.6934 23.1731 30.4 22.8798 32.16C22.7731 32.72 22.5331 33 22.1598 33C21.7065 33 21.4798 32.76 21.4798 32.28C21.4798 32.2 21.5065 32.0267 21.5598 31.76C21.6131 31.4934 21.6931 31.1467 21.7998 30.72C22.1198 29.1734 22.3998 27.8934 22.6398 26.88C22.9065 25.8667 23.1331 25.0134 23.3198 24.32C23.5331 23.6 23.7198 22.9467 23.8798 22.36C18.9731 22.4667 14.6531 22.8267 10.9198 23.44C9.85314 24.5334 8.95981 25.4667 8.23981 26.24C7.5198 26.9867 6.98647 27.5467 6.6398 27.92C5.0398 29.68 3.7598 31.28 2.7998 32.72C2.7198 32.8534 2.62647 33.0267 2.5198 33.24C2.38647 33.4534 2.22647 33.7067 2.0398 34C1.93314 34.24 1.74647 34.36 1.4798 34.36ZM12.5598 21.8C14.1065 21.5867 15.8531 21.4267 17.7998 21.32C19.7465 21.1867 21.9331 21.0934 24.3598 21.04C24.7598 19.8134 25.1598 18.6267 25.5598 17.48C25.9598 16.3067 26.3465 15.1867 26.7198 14.12C27.1731 12.9467 27.7731 11.1867 28.5198 8.84004C25.4265 10.6267 22.5465 12.6 19.8798 14.76C17.2398 16.92 14.7998 19.2667 12.5598 21.8Z" fill="white"/>
</svg>
