<svg width="60" height="60" viewBox="0 0 60 60" fill="none" xmlns="http://www.w3.org/2000/svg">
<path fill-rule="evenodd" clip-rule="evenodd" d="M24.3327 16.0951C25.1264 15.3951 25.7789 14.4501 26.0039 13.5476C26.1314 13.0351 26.1914 12.2239 25.6252 11.5689C25.0464 10.8976 24.1902 10.8239 23.5152 10.9089C23.1003 10.9606 22.6831 10.9914 22.2652 11.0014L22.2102 11.0039C21.8227 11.0164 21.3602 11.0326 20.8502 11.1976C20.3202 11.3701 19.8177 11.6726 19.2164 12.1164C18.8242 12.4052 18.4537 12.7223 18.1077 13.0651C16.0714 11.6151 13.4502 11.0489 9.33642 11.2501C8.83914 11.2551 8.3642 11.4574 8.01609 11.8125C7.66797 12.1677 7.4752 12.6466 7.48017 13.1439C7.48514 13.6411 7.68746 14.1161 8.0426 14.4642C8.39775 14.8123 8.87664 15.0051 9.37392 15.0001H11.1702C11.2785 15.0734 11.381 15.1447 11.4777 15.2139L8.63892 18.7639C8.08573 18.8098 7.54963 18.978 7.06932 19.2562C6.58901 19.5345 6.17647 19.9159 5.86147 20.373C5.54647 20.8301 5.33687 21.3514 5.24781 21.8993C5.15874 22.4472 5.19242 23.008 5.34642 23.5414L5.70767 24.7914C5.9334 25.5723 6.4068 26.2588 7.05655 26.7474C7.70631 27.2359 8.49723 27.5001 9.31017 27.5001H13.2127C13.4843 27.5003 13.7484 27.5889 13.9652 27.7526L16.3952 29.5876C16.6085 29.7468 16.8302 29.8814 17.0602 29.9914C18.5052 33.9039 20.0627 37.2364 21.8252 39.4564L22.2252 44.2689C21.8114 44.5873 21.5077 45.0272 21.3567 45.527C21.2057 46.0268 21.2149 46.5613 21.3831 47.0555C21.5513 47.5498 21.8701 47.979 22.2946 48.2829C22.7191 48.5868 23.2281 48.7502 23.7502 48.7501H27.5002C27.8317 48.7501 28.1496 48.6184 28.3841 48.384C28.6185 48.1496 28.7502 47.8316 28.7502 47.5001V37.5001H32.6502L32.7002 37.6839C32.4159 37.834 32.2004 38.0879 32.0985 38.3928C31.9966 38.6976 32.016 39.0301 32.1528 39.321C32.2895 39.6119 32.5331 39.8389 32.8329 39.9549C33.1327 40.0709 33.4657 40.067 33.7627 39.9439L33.9014 39.8864C34.3339 40.3901 34.8539 40.8364 35.4427 41.2114L35.4377 41.2214C35.358 41.3661 35.3078 41.5253 35.29 41.6896C35.2722 41.8539 35.2872 42.02 35.334 42.1785C35.3808 42.337 35.4587 42.4846 35.5629 42.6128C35.6672 42.741 35.7958 42.8473 35.9414 42.9255C36.087 43.0036 36.2467 43.0522 36.4112 43.0682C36.5756 43.0843 36.7417 43.0676 36.8996 43.0191C37.0576 42.9706 37.2044 42.8912 37.3315 42.7856C37.4586 42.68 37.5635 42.5503 37.6402 42.4039L37.7439 42.2114C38.5692 42.427 39.4213 42.5226 40.2739 42.4951L40.3064 42.6639C40.376 42.9828 40.5676 43.2618 40.8402 43.4413C41.1128 43.6209 41.4448 43.6866 41.7652 43.6246C42.0857 43.5626 42.3692 43.3776 42.5551 43.1093C42.741 42.8411 42.8146 42.5107 42.7602 42.1889L42.7377 42.0701C43.3627 41.8664 43.9464 41.5939 44.4777 41.2639L44.7277 44.2676C44.3136 44.5857 44.0095 45.0255 43.8581 45.5253C43.7067 46.0251 43.7156 46.5597 43.8835 47.0541C44.0515 47.5486 44.37 47.978 44.7945 48.2822C45.2189 48.5864 45.728 48.75 46.2502 48.7501H50.0002C50.3317 48.7501 50.6496 48.6184 50.8841 48.384C51.1185 48.1496 51.2502 47.8316 51.2502 47.5001V26.2501C51.2502 22.9639 50.4714 20.5751 49.1602 18.9414C50.2164 19.1451 50.9114 19.4976 51.3752 19.9439C52.0714 20.6126 52.5002 21.7389 52.5002 23.7489L52.9839 30.5239C52.6889 30.9801 52.5002 31.6951 52.5002 32.4989C52.5002 33.8801 53.0589 34.9989 53.7502 34.9989C54.4414 34.9989 55.0002 33.8801 55.0002 32.4989C55.0002 31.6951 54.8102 30.9801 54.5152 30.5239L55.0002 23.7501C55.0002 21.4576 54.5214 19.5001 53.1077 18.1414C51.7114 16.8001 49.6627 16.2951 47.1414 16.2526L43.3714 16.2501H26.8752C25.9364 16.2501 25.0964 16.1926 24.3327 16.0951ZM46.9102 20.1676C45.9377 19.1664 44.6589 18.7689 43.3852 18.7514H26.8752C24.0127 18.7514 21.9127 18.2714 20.1577 17.6726C19.899 17.5844 19.6764 17.4138 19.5239 17.187C19.3714 16.9602 19.2974 16.6897 19.3133 16.4169C19.3292 16.144 19.434 15.8839 19.6118 15.6764C19.7896 15.4688 20.0305 15.3252 20.2977 15.2676C21.1514 15.0839 21.9602 14.7664 22.4539 14.4026C22.8068 14.1394 23.1089 13.8141 23.3452 13.4426C22.9364 13.4801 22.6139 13.4914 22.3552 13.5001H22.3514C21.9014 13.5164 21.7702 13.5276 21.6227 13.5751C21.4727 13.6251 21.2227 13.7426 20.6977 14.1289C20.0589 14.6001 19.5789 15.1014 19.2977 15.5151C19.1957 15.6647 19.0626 15.7904 18.9073 15.8834C18.7521 15.9765 18.5784 16.0347 18.3985 16.0541C18.2185 16.0734 18.0365 16.0535 17.865 15.9956C17.6935 15.9377 17.5366 15.8433 17.4052 15.7189C16.5427 14.9026 15.5152 14.2964 13.9302 13.9739L14.0727 14.1014C14.3071 14.3153 14.4513 14.6104 14.4762 14.9268C14.501 15.2432 14.4046 15.5572 14.2064 15.8051L10.2252 20.7801C10.1083 20.9265 9.95995 21.0448 9.79118 21.1261C9.62242 21.2075 9.43752 21.2498 9.25017 21.2501H8.95017C8.75618 21.2498 8.5648 21.2947 8.39115 21.3812C8.21751 21.4677 8.06638 21.5934 7.94971 21.7484C7.83305 21.9033 7.75406 22.0834 7.71899 22.2741C7.68392 22.4649 7.69374 22.6613 7.74767 22.8476L8.11017 24.0976C8.18545 24.3577 8.34316 24.5863 8.55957 24.7491C8.77598 24.9119 9.03939 25 9.31017 25.0001H13.2127C14.0283 25.0001 14.8218 25.266 15.4727 25.7576L17.9014 27.5926C18.0489 27.7009 18.1977 27.7734 18.3477 27.8101C18.5444 27.861 18.7258 27.9591 18.8761 28.0959C19.0264 28.2326 19.141 28.404 19.2102 28.5951C20.7714 32.9026 22.3502 36.2126 23.9939 38.1589C24.1614 38.3576 24.2628 38.6036 24.2839 38.8626L24.7889 44.9126C24.8152 45.2252 24.723 45.5363 24.5306 45.7841C24.3381 46.0318 24.0596 46.1982 23.7502 46.2501H26.2502V36.2501C26.2502 35.9186 26.3819 35.6006 26.6163 35.3662C26.8507 35.1318 27.1686 35.0001 27.5002 35.0001H35.2877L35.1752 34.8876C33.7627 33.4664 32.1214 31.6714 31.4639 30.7001L33.5352 29.3001C34.0439 30.0514 35.5264 31.6951 36.9477 33.1251C37.5266 33.7149 38.127 34.2832 38.7477 34.8289C38.9764 35.0226 39.1102 35.1201 39.1614 35.1539C39.0949 35.1237 39.0259 35.0995 38.9552 35.0814C39.1158 35.1421 39.2622 35.2353 39.3852 35.3551C41.1102 37.0339 42.9627 38.2851 45.8314 38.7676C46.1054 38.8136 46.3562 38.9495 46.5443 39.1539C46.7324 39.3583 46.8471 39.6195 46.8702 39.8964L47.2889 44.9139C47.3149 45.2263 47.2225 45.537 47.0301 45.7845C46.8377 46.032 46.5593 46.1982 46.2502 46.2501H48.7502V26.2501C48.7502 23.0251 47.9052 21.1926 46.9102 20.1676ZM40.0002 40.0001C37.5702 40.0001 35.9527 38.8039 35.3114 37.5001H38.0127C38.9877 38.4076 40.0502 39.2226 41.3002 39.8776C40.8968 39.9576 40.4635 39.9984 40.0002 40.0001Z" fill="white"/>
</svg>
