<svg width="60" height="60" viewBox="0 0 60 60" fill="none" xmlns="http://www.w3.org/2000/svg">
<path d="M15.0004 17.4998C15.0011 15.4487 15.4225 13.4194 16.2385 11.5375C17.0545 9.65567 18.2478 7.96115 19.7446 6.55872C21.2414 5.15629 23.01 4.07575 24.941 3.3839C26.8719 2.69205 28.9243 2.40358 30.9712 2.53633C33.018 2.66908 35.0159 3.22022 36.8414 4.15569C38.6668 5.09115 40.281 6.39107 41.5841 7.97509C42.8873 9.55911 43.8517 11.3936 44.4178 13.3651C44.9839 15.3366 45.1397 17.4032 44.8754 19.4373C47.7619 21.0667 50.0273 23.6063 51.3179 26.6592C52.6085 29.7122 52.8516 33.1067 52.0091 36.3125C51.1666 39.5182 49.2861 42.3546 46.6612 44.3786C44.0363 46.4025 40.815 47.5001 37.5004 47.4998H32.5004V54.9998H27.5004V47.4998H21.2504C18.116 47.5013 15.0751 46.4317 12.6317 44.4685C10.1883 42.5052 8.48906 39.766 7.81544 36.7048C7.14182 33.6437 7.53431 30.4442 8.92787 27.6366C10.3214 24.829 12.6324 22.5818 15.4779 21.2673C15.1598 20.0368 14.9993 18.7708 15.0004 17.4998ZM17.5254 25.8298C15.7288 26.6792 14.2746 28.1146 13.4018 29.9C12.5291 31.6854 12.2897 33.7146 12.7231 35.6541C13.1565 37.5936 14.2368 39.3279 15.7865 40.572C17.3362 41.8161 19.2631 42.496 21.2504 42.4998H37.5004C39.8336 42.5023 42.0941 41.6888 43.8908 40.2003C45.6874 38.7117 46.907 36.6418 47.3384 34.3489C47.7698 32.0559 47.3859 29.6843 46.2531 27.6446C45.1203 25.6049 43.3099 24.0255 41.1354 23.1798L39.0329 22.3598C39.4754 20.7598 40.0004 19.1798 40.0004 17.4998C40.0004 15.7953 39.5647 14.119 38.7346 12.6302C37.9046 11.1414 36.7077 9.88947 35.2577 8.99332C33.8077 8.09718 32.1527 7.58655 30.4499 7.50994C28.747 7.43332 27.0529 7.79325 25.5283 8.55556C24.0037 9.31786 22.6992 10.4572 21.7388 11.8655C20.7784 13.2737 20.1939 14.9041 20.0408 16.6018C19.8877 18.2995 20.1712 20.0081 20.8642 21.5654C21.5572 23.1228 22.6368 24.4771 24.0004 25.4998L21.0004 29.4998C19.6428 28.4819 18.4678 27.2409 17.5254 25.8298Z" fill="white"/>
</svg>
