<svg width="57" height="60" viewBox="0 0 57 60" fill="none" xmlns="http://www.w3.org/2000/svg">
<path d="M28.125 26.25C25.6386 26.25 23.254 25.2623 21.4959 23.5041C19.7377 21.746 18.75 19.3614 18.75 16.875C18.75 14.3886 19.7377 12.004 21.4959 10.2459C23.254 8.48772 25.6386 7.5 28.125 7.5C30.6114 7.5 32.996 8.48772 34.7541 10.2459C36.5123 12.004 37.5 14.3886 37.5 16.875C37.5 19.3614 36.5123 21.746 34.7541 23.5041C32.996 25.2623 30.6114 26.25 28.125 26.25ZM28.125 11.25C25.0125 11.25 22.5 13.7625 22.5 16.875C22.5 19.9875 25.0125 22.5 28.125 22.5C31.2375 22.5 33.75 19.9875 33.75 16.875C33.75 13.7625 31.2375 11.25 28.125 11.25Z" fill="white"/>
<path d="M50.625 41.25C49.575 41.25 48.75 40.425 48.75 39.375C48.75 38.325 49.575 37.5 50.625 37.5C51.675 37.5 52.5 36.675 52.5 35.625C52.5 33.1386 51.5123 30.754 49.7541 28.9959C47.996 27.2377 45.6114 26.25 43.125 26.25H39.375C38.325 26.25 37.5 25.425 37.5 24.375C37.5 23.325 38.325 22.5 39.375 22.5C42.4875 22.5 45 19.9875 45 16.875C45 13.7625 42.4875 11.25 39.375 11.25C38.325 11.25 37.5 10.425 37.5 9.375C37.5 8.325 38.325 7.5 39.375 7.5C41.8614 7.5 44.246 8.48772 46.0041 10.2459C47.7623 12.004 48.75 14.3886 48.75 16.875C48.75 19.2 47.925 21.3 46.5 22.95C52.0875 24.45 56.25 29.55 56.25 35.625C56.25 38.7375 53.7375 41.25 50.625 41.25ZM5.625 41.25C2.5125 41.25 0 38.7375 0 35.625C0 29.55 4.125 24.45 9.75 22.95C8.3625 21.3 7.5 19.2 7.5 16.875C7.5 14.3886 8.48772 12.004 10.2459 10.2459C12.004 8.48772 14.3886 7.5 16.875 7.5C17.925 7.5 18.75 8.325 18.75 9.375C18.75 10.425 17.925 11.25 16.875 11.25C13.7625 11.25 11.25 13.7625 11.25 16.875C11.25 19.9875 13.7625 22.5 16.875 22.5C17.925 22.5 18.75 23.325 18.75 24.375C18.75 25.425 17.925 26.25 16.875 26.25H13.125C10.6386 26.25 8.25403 27.2377 6.49587 28.9959C4.73772 30.754 3.75 33.1386 3.75 35.625C3.75 36.675 4.575 37.5 5.625 37.5C6.675 37.5 7.5 38.325 7.5 39.375C7.5 40.425 6.675 41.25 5.625 41.25ZM39.375 52.5H16.875C13.7625 52.5 11.25 49.9875 11.25 46.875V43.125C11.25 35.8875 17.1375 30 24.375 30H31.875C39.1125 30 45 35.8875 45 43.125V46.875C45 49.9875 42.4875 52.5 39.375 52.5ZM24.375 33.75C21.8886 33.75 19.504 34.7377 17.7459 36.4959C15.9877 38.254 15 40.6386 15 43.125V46.875C15 47.925 15.825 48.75 16.875 48.75H39.375C40.425 48.75 41.25 47.925 41.25 46.875V43.125C41.25 40.6386 40.2623 38.254 38.5041 36.4959C36.746 34.7377 34.3614 33.75 31.875 33.75H24.375Z" fill="white"/>
</svg>
