<svg width="314" height="436" viewBox="0 0 314 436" fill="none" xmlns="http://www.w3.org/2000/svg">
<path d="M305.279 0.888395C296.514 -1.16339 286.814 0.888395 277.902 1.57407C256.188 3.2333 233.392 3.06057 213.997 14.3873C205.686 19.2394 200.285 26.9545 194.079 34.0206C190.746 34.6435 187.351 34.1567 183.987 34.3294C163.432 35.3972 142.814 37.025 122.254 37.4752C117.255 37.5851 111.441 36.9779 106.589 37.4123C106.082 37.4595 105.721 37.4385 105.257 37.7264C104.64 38.1137 102.467 42.0864 102.013 43.0024C99.8971 47.2316 97.7137 52.9212 96.3921 57.4696C91.8371 73.1512 88.6037 89.7958 84.2576 105.624C80.4705 119.421 75.5917 132.941 71.6531 146.702L71.8725 147.194L73.7947 147.618L68.8532 162.278C67.6518 162.66 66.6488 161.985 66.3406 163.66C50.6802 214.636 38.7338 248.579 23.5227 299.68C23.0264 304.009 26.239 303.402 29.2478 304.627C34.0169 306.568 38.645 308.96 43.5082 310.703C44.7567 313.242 41.8158 312.169 41.1054 313.802C40.7658 314.577 39.998 318.194 40.2382 318.905C40.5412 319.795 46.4857 321.088 47.311 322.266C43.9731 325.155 40.4106 327.793 37.1406 330.761C27.7747 339.261 19.1766 349.682 12.2606 360.281C5.82507 370.148 -5.49972 387.625 3.10879 398.983C5.5221 402.165 9.13684 401.94 10.9912 403.673C11.3569 404.013 10.9651 404.641 11.7225 405.201C15.1179 407.708 21.1564 408.519 25.0532 410.011C37.5638 414.8 49.8758 421.961 62.517 426.687C65.9123 430.927 71.9978 431.503 76.955 432.863C82.3719 434.35 85.8508 437.328 91.9625 435.334C103.292 431.628 108.239 417.904 113.75 408.54L114.591 408.368C115.046 412.989 117.161 418.103 119.924 421.84C134.854 442.039 156.469 428.985 165.453 410.948C165.866 410.121 167.203 406.237 167.741 406.065C169.659 406.431 172.108 406.242 173.947 406.656C174.767 406.839 174.997 407.666 175.765 408.137C177.16 408.985 185.131 411.587 186.63 411.545C186.996 411.534 187.293 411.393 187.57 411.163L202.672 358.821L202.933 358.591C204.923 359.25 208.721 360.658 210.685 360.009C211.651 359.69 214.106 357.806 214.728 357.79L235.366 363.521C236.704 364.217 236.192 366.578 238.715 367.06C240.747 367.447 241.541 365.599 242.413 365.547C242.836 365.521 245.244 366.28 245.458 366.63C245.349 368.928 244.706 371.294 244.466 373.644C243.197 386.091 247.046 404.405 260.414 409.027C261.458 409.388 267.037 410.99 267.815 410.969C275.969 410.765 285.821 402.851 290.345 396.428C299.58 383.306 303.984 361.585 297.538 346.51C291.562 332.54 278.096 327.741 264.786 335.665C262.9 336.785 261.39 338.34 259.515 339.449C257.744 334.87 256.454 330.012 254.605 325.417C249.815 313.519 242.632 302.747 233.428 293.87C232.88 293.342 231.961 293.195 232.039 292.232C234.06 285.627 235.93 278.974 237.738 272.306C250.452 225.298 258.648 195.133 272.323 148.397C277.96 129.125 284.191 109.984 289.76 90.6961C290.308 88.7908 292.032 80.5941 292.816 79.7096C293.176 79.3013 293.85 79.317 294.069 78.9768C294.289 78.6366 296.373 71.9054 296.462 71.2564C296.571 70.4399 296.618 69.7961 296.409 68.9796C295.814 66.6556 293.061 63.3214 291.16 61.8768C289.363 60.5107 285.769 59.3487 286.203 56.7997C286.432 55.4545 288.825 50.4402 289.551 48.849C292.941 41.406 297.308 33.7327 302.422 27.3575C306.235 22.6049 312.237 18.4856 313.846 12.4035C315.011 8.01208 309.317 1.83054 305.3 0.888395H305.279ZM174.84 354.267L174.537 356.832L166.859 355.44C166.608 355.173 167.7 352.571 168.144 352.451L174.84 354.267ZM89.7999 339.565C87.6582 339.449 85.4956 338.581 83.354 338.455C80.319 338.272 76.1245 339.109 73.2619 340.135C71.0576 340.925 69.1562 342.349 66.9257 343.061C66.0899 342.81 64.6691 337.178 64.2982 336.063C64.0005 335.157 62.7677 332.959 62.9662 332.268C64.8989 330.996 67.0981 328.039 69.5427 328.641L87.7 334.665C88.4417 335.079 90.0663 339.308 89.7947 339.565H89.7999ZM110.485 386.447C106.176 393.016 102.316 399.841 98.633 406.782C95.6973 412.314 93.6131 419.03 88.4626 423.002C86.7598 424.316 85.3442 425.159 83.192 424.463C80.3243 423.536 77.1901 421.83 74.291 420.72C57.9306 414.476 43.3202 408.2 27.5396 400.684C24.1965 399.093 15.3373 396.203 13.5351 393.529C9.56518 387.646 15.1127 379.355 18.2521 374.33C26.0979 361.773 37.6264 347.154 50.1422 339.188C50.9101 338.696 54.8748 336.173 55.3815 336.178C55.7315 336.178 55.9039 336.319 55.9927 336.654L59.3097 350.347C48.0267 364.081 44.7149 391.702 61.4409 402.526C66.3824 405.724 77.0647 408.179 82.0794 404.442C85.5897 401.825 89.6275 399.752 92.8035 396.496C96.4809 392.733 99.6464 387.703 101.506 382.788C101.919 382.495 110.386 385.51 110.522 385.976L110.48 386.442L110.485 386.447ZM113.008 382.678L102.875 379.177C105.638 369.588 105.314 359.271 101.01 350.185C101.454 348.881 103.71 340.078 104.463 339.957L122.698 345.568C123.356 346.249 123.179 347.568 123.372 348.463C124.49 353.613 126.005 358.067 129.16 362.349L113.008 382.673V382.678ZM145.849 350.687C145.128 350.687 140.354 349.881 140.046 349.53C139.988 349.462 139.466 347.939 139.482 347.85C139.999 346.819 141.67 346.432 141.858 345.28C141.942 344.762 141.315 343.632 142.595 343.569C144.674 343.469 147.181 346.092 148.733 347.049C149.636 347.604 150.692 347.746 151.512 348.395C151.82 349.703 146.779 350.682 145.854 350.687H145.849ZM177.933 396.507L177.285 397.208C176.141 396.868 170.949 395.816 170.641 394.863C171.722 384.636 170.228 373.231 162.737 365.709C162.659 365.458 162.727 365.27 162.847 365.05C162.967 364.83 165.595 362.679 166.164 362.045C166.644 361.506 169 358.612 169.183 358.193C169.382 357.743 169.345 357.293 169.329 356.822L180.983 359.878L184.875 371.912L177.938 396.507H177.933ZM235.753 326.113C240.418 332.765 247.846 344.903 245.756 353.179C245.558 353.974 243.98 356.178 243.212 356.408C241.515 356.916 235.93 354.922 234.306 353.88L217.371 349.232C221.111 338.413 224.82 327.542 227.05 316.273C227.353 316.241 227.594 316.267 227.87 316.414C229.072 317.047 234.63 324.506 235.753 326.108V326.113ZM297.068 15.9209C289.295 24.9655 283.747 33.7484 278.649 44.5099C278.184 45.4939 276.518 50.3145 275.802 50.4925C275.384 50.5972 275.296 50.3983 275.024 50.2517C272.741 49.0165 270.129 46.5564 267.857 45.049C262.681 41.6206 247.025 30.8487 241.619 30.8958C237.492 30.9325 232.415 31.9427 228.153 32.241C221.623 32.7016 215.057 33 208.538 33.2931L213.213 27.9385C226.131 17.4493 243.891 14.9212 260.037 13.6283C271.326 12.7281 284.28 11.43 295.48 11.3462C296.906 11.3358 298.556 11.7231 300.056 11.5137L300.374 12.0686C300.437 12.9427 297.726 15.1462 297.062 15.9157L297.068 15.9209Z" fill="#2C2C2C"/>
</svg>
