<svg width="343" height="382" viewBox="0 0 343 382" fill="none" xmlns="http://www.w3.org/2000/svg">
<path d="M339.457 223.48C341.462 222.761 343.568 221.362 342.86 218.471C342.797 218.095 342.628 217.636 342.349 217.173C341.361 215.479 338.989 213.669 335.085 215.078C337.48 212.395 336.902 209.046 335.581 206.797C335.273 206.271 334.93 205.813 334.574 205.431C332.009 202.695 326.64 200.33 323.878 207.096C323.584 205.504 323.111 204.201 322.523 203.197C320.532 199.795 317.221 199.944 315.355 204.712C309.272 202.135 306.192 205.069 309.243 210.262C309.316 210.383 309.383 210.499 309.455 210.619C305.127 208.279 302.476 211.396 303.589 214.099C303.652 214.248 303.719 214.403 303.806 214.548C303.859 214.634 303.912 214.721 303.975 214.808C303.917 214.721 303.859 214.634 303.806 214.548C303.715 214.403 303.652 214.253 303.589 214.099C303.281 214.422 302.972 214.784 302.673 215.209C302.75 213.655 302.596 212.332 302.264 211.261C301.155 207.637 298.022 207.038 295.216 211.097C290.329 207.506 286.906 209.215 288.068 214.19C287.668 214.166 287.258 214.2 286.848 214.272C285.802 213.761 284.843 213.717 284.062 213.968C284.038 212.965 284.009 211.999 283.976 211.092C284.303 210.595 284.564 210.055 284.718 209.466C287.369 208.057 289.336 205.6 289.451 202.487C289.755 202.936 290.141 203.279 290.599 203.52C295.028 205.856 305.59 198.844 298.403 190.601C305.503 193.907 310.926 184.395 305.339 179.506C308.516 176.48 309.518 170.375 303.941 167.436C302.717 166.79 301.179 166.297 299.29 166.018C301.078 163.769 302.495 160.666 299.637 157.867C299.294 157.48 298.774 157.075 298.133 156.732C295.8 155.502 291.794 155.111 288.338 159.503C289.172 154.725 286.13 151.303 283.031 149.667C282.303 149.286 281.585 149.001 280.905 148.823C276.215 147.568 268.806 148.543 269.698 157.273L268.56 157.036C267.529 156.081 266.512 155.347 265.528 154.831C264.989 154.546 264.463 154.339 263.952 154.179C263.996 153.624 263.952 153.026 263.793 152.375C263.562 151.453 263.109 150.439 262.381 149.339C264.348 149.223 266.579 148.533 266.7 145.782C266.743 145.43 266.714 144.976 266.584 144.494C266.145 142.732 264.516 140.512 260.679 140.749C263.504 138.987 263.856 135.865 263.273 133.52C263.133 132.979 262.94 132.477 262.728 132.048C261.166 128.954 257.016 125.45 252.803 130.735C252.962 129.249 252.88 127.97 252.615 126.927C252.249 125.475 251.535 124.509 250.619 124.114C250.634 124.09 250.648 124.07 250.663 124.041C251.352 122.787 251.593 120.61 249.241 118.689C251.825 119.182 253.709 117.56 254.625 115.881C254.837 115.49 254.996 115.094 255.102 114.727C255.266 114.148 255.363 113.492 255.367 112.835C257.922 111.421 260.472 109.988 262.988 108.507C263.408 108.671 263.875 108.767 264.391 108.738C264.28 110.953 266.03 113.53 269.091 112.662C269.756 112.469 270.488 112.121 271.279 111.557C271.409 113.004 271.964 114.631 273.978 114.655C274.239 114.679 274.566 114.645 274.923 114.544C276.201 114.187 277.796 112.937 277.541 110.123C278.89 112.16 281.185 112.348 282.891 111.865C283.291 111.754 283.643 111.605 283.961 111.431C286.198 110.22 288.666 107.092 284.699 104.115C285.793 104.197 286.728 104.11 287.49 103.898C290.059 103.164 290.531 100.964 287.721 98.9221C290.454 95.3606 289.061 92.8414 285.128 93.9514C285.036 93.9755 284.949 94.0045 284.853 94.0334C287.036 91.6976 285.672 89.5115 283.836 89.5597C283.942 89.3136 284.067 89.0723 284.159 88.8165C284.424 88.0975 284.689 87.3495 284.949 86.587C285.426 86.9441 285.894 87.2481 286.362 87.5039C287.224 89.7962 289.056 90.6359 290.897 88.5077C295.009 87.9961 297.275 83.2715 294.479 78.7303C294.648 77.8037 294.811 76.7999 294.951 75.7237C296.397 77.4031 298.494 77.9002 300.075 76.8819C308.115 86.5628 312.796 85.892 313.529 82.3739C316.71 87.7934 323.29 86.5387 314.897 70.5985C315.717 70.6902 316.609 70.6612 317.529 70.5068C321.501 71.9208 324.514 72.5434 326.722 72.6302C329.995 85.7569 347.67 77.8616 327.213 63.5719C327.223 63.5671 327.228 63.5574 327.237 63.5526C327.276 63.4899 327.295 63.4223 327.319 63.3547C350.939 69.6671 343.698 42.7864 327.098 62.6936C327.073 62.6791 327.064 62.6501 327.045 62.6357C326.963 62.5826 326.861 62.5536 326.775 62.5391C329.339 45.822 305.937 43.9012 326.206 62.7467C326.182 62.7756 326.148 62.7997 326.119 62.8384C326.056 62.9397 326.023 63.0507 326.018 63.1665C322.027 62.93 318.947 63.07 316.589 63.4368C320.475 49.8468 306.857 47.0478 308.058 56.7866C307.98 56.7914 307.908 56.7914 307.831 56.8011C308.337 52.2647 305.45 49.0747 302.312 49.5428C302.278 47.6076 301.772 45.9426 301.059 44.7168C320.147 45.6627 318.007 19.173 290.787 37.2221C290.637 36.1701 290.468 35.1276 290.266 34.1045C303.17 7.99604 266.806 7.51344 286.227 39.2394C286.193 39.2587 286.145 39.2732 286.106 39.3021C286 39.389 285.913 39.4951 285.846 39.6158C279.204 36.1652 273.304 36.5079 269.168 38.2356C295.038 19.5735 263.639 17.4356 262.578 41.6041C262.439 41.5944 262.294 41.6137 262.154 41.6717C262.111 41.6861 262.077 41.7199 262.034 41.7392C260.906 39.6641 259.778 37.864 258.66 36.281C266.84 28.0335 260.978 15.6355 253.96 30.8808C249.385 26.7691 245.365 26.3926 242.864 27.8453C236.12 19.9693 232.341 26.8221 235.749 33.2407C234.139 35.3352 232.534 38.5251 231.15 43.187C231.136 43.1822 231.131 43.1725 231.117 43.1677C231.044 43.1484 230.977 43.1581 230.905 43.1581C229.449 18.7193 206.249 34.0756 230.355 43.5634C230.345 43.5972 230.321 43.6117 230.317 43.6455C230.292 43.742 230.292 43.8385 230.307 43.9302C227.424 44.4176 225.221 45.5083 223.587 46.8499C223.433 37.9653 213.079 34.6547 219.669 55.6814C219.63 55.7007 219.582 55.7007 219.548 55.7201C219.442 55.7828 219.355 55.8697 219.288 55.9662C193.046 38.8678 201.853 66.5737 219.259 56.6611C219.307 56.7383 219.37 56.8107 219.442 56.8735C203.429 76.8578 233.122 84.3187 220.141 56.9507C220.151 56.9459 220.165 56.9507 220.17 56.941C220.237 56.9072 220.29 56.8542 220.339 56.8011C223.086 59.5229 225.578 61.1637 227.747 62.0469C227.747 62.0469 227.747 62.0485 227.747 62.0517C220.845 66.231 222.995 77.0364 239.677 72.7461C239.408 81.6838 238.501 90.5346 236.713 99.1441C234.438 97.3682 230.206 97.2958 228.34 100.713C228.215 100.939 228.099 101.186 228.003 101.441C227.183 104.284 229.685 106.721 233.97 109.824C233.893 110.085 233.806 110.34 233.72 110.601C226.292 107.247 224.749 108.69 223.645 109.274C222.961 109.742 222.445 110.336 222.093 110.982C220.372 114.134 222.315 118.767 225.877 118.955C225.631 119.114 225.438 119.322 225.308 119.568C224.744 120.6 225.125 122.265 226.099 123.515C226.002 124.784 225.949 126.208 225.949 127.796C225.906 127.796 225.877 127.786 225.839 127.791C225.728 127.81 225.636 127.863 225.559 127.936C222.754 124.529 220.406 122.338 218.497 120.996C219.572 116.72 218.56 112.058 214.887 109.433C215.547 109.433 216.155 109.255 216.709 108.95C222.074 105.992 222.026 90.4622 208.76 92.2719C216.916 87.2288 210.852 75.2701 202.094 77.712C201.144 72.4179 195.587 67.2831 188.829 71.0184C187.349 71.834 185.811 73.0742 184.254 74.8405C183.16 71.4913 180.943 67.9539 176.161 69.0011C175.53 69.0928 174.768 69.3486 173.992 69.7829C171.167 71.3369 168.082 75.1784 170.227 81.6789C165.913 77.6058 160.379 78.4166 156.615 80.4966C155.747 80.9792 154.971 81.5293 154.325 82.1036C151.52 84.5986 148.917 88.8117 149.76 92.8269C148.469 91.437 146.521 90.6408 143.952 91.1861C142.786 91.4322 141.489 91.9486 140.077 92.8173C140.024 90.3271 139.262 87.4846 135.811 87.1998C135.372 87.1323 134.803 87.1516 134.186 87.2819C133.015 87.528 131.68 88.1988 130.677 89.468C130.108 86.0754 128.199 82.7599 125.298 80.7813C127.375 78.3828 128.113 74.1504 123.326 71.8967C128.889 72.0222 129.703 64.2861 124.666 62.7032C125.876 59.827 124.787 55.5704 120.314 55.2471C119.34 55.1844 118.202 55.3002 116.886 55.667C117.407 53.6883 117.445 51.2657 114.79 50.2619C114.452 50.1075 113.999 49.9965 113.488 49.9578C111.618 49.8275 108.904 50.7155 107.906 54.5618C107.092 51.2126 104.137 49.8565 101.65 49.6828C101.076 49.6442 100.522 49.6635 100.03 49.7359C96.4919 50.2812 91.715 53.2395 95.5423 59.0886C94.1348 58.4564 92.8526 58.1234 91.7439 58.0413C87.9841 57.7807 86.3115 60.4688 89.0542 64.5274C83.7278 67.9394 84.3689 71.9546 90.1147 72.36C90.24 72.3696 90.375 72.3745 90.5147 72.3793C86.0849 74.6572 87.4683 78.7592 90.5388 78.9716C90.722 78.986 90.9148 78.986 91.1125 78.9667C88.7939 81.4666 87.237 85.4046 88.4469 91.1813C85.0148 87.113 80.5031 85.921 76.3191 86.2491C76.3962 85.5735 76.4541 84.9027 76.5553 84.2222C76.9554 81.4376 77.5531 78.5179 78.2231 75.521C82.1371 74.6427 84.4798 70.0387 80.7055 64.6336C80.8212 64.0883 80.9417 63.5381 81.0526 62.9928C83.0096 60.0876 84.2629 55.3436 82.8987 49.8372C83.0096 47.5883 82.9759 45.3683 82.759 43.1918C83.8676 43.6503 84.9377 44.0605 85.9548 44.4032C84.205 56.0965 96.4774 62.7418 93.0598 45.9957C99.2876 46.6134 102.821 44.4997 103.997 41.7971C114.264 44.2005 113.247 36.2955 106.585 33.0814C106.648 30.3885 106.05 26.8077 104.378 22.1458C104.387 22.1458 104.402 22.1458 104.412 22.1458C104.484 22.112 104.542 22.0686 104.595 22.03C120.497 41.1987 130.296 14.6124 104.802 21.3543C104.797 21.3254 104.802 21.3012 104.788 21.2675C104.749 21.1709 104.686 21.0985 104.628 21.031C116.597 8.67167 98.285 -6.72317 104.036 20.8717C103.992 20.8862 103.954 20.8717 103.91 20.891C103.795 20.9345 103.708 21.0165 103.64 21.113C99.6588 17.9231 96.516 16.0458 94.0962 15.0613C91.3294 11.1571 86.0898 11.215 84.7883 16.5139C84.475 16.0071 84.1134 15.568 83.7085 15.206C83.6844 11.2632 79.8764 9.22184 72.1689 14.9503C70.6312 15.1143 68.92 15.4136 66.9823 15.9251C66.9726 15.8962 66.9823 15.8672 66.9678 15.8382C66.9293 15.7369 66.8714 15.6597 66.8039 15.5921C78.7678 3.23763 60.4605 -12.162 66.2062 15.4329C66.1628 15.4473 66.1243 15.4377 66.0809 15.457C65.97 15.5004 65.8881 15.5825 65.811 15.6742C63.4008 13.7389 61.304 12.3056 59.4771 11.2343C56.9706 -1.36634 50.8055 2.01666 50.4584 9.51622C50.0969 9.90712 49.9282 10.4235 49.9138 11.0074C48.217 13.3287 47.4217 17.4163 50.4488 22.194C50.3861 22.2326 50.3283 22.2809 50.2897 22.3388C33.8864 10.4235 29.1288 34.2204 50.256 22.8986C50.256 22.9083 50.256 22.9131 50.2608 22.9276C50.2946 22.9807 50.3379 23.0193 50.3765 23.0579C49.0702 24.5153 48.1158 25.8714 47.4265 27.1214C38.2295 29.071 35.9977 34.3362 37.6318 37.9122C35.747 38.1342 34.3251 39.4421 34.2769 41.4641C34.2287 41.5027 34.1805 41.5269 34.1226 41.5655C34.1082 41.5317 34.0937 41.4931 34.0696 41.4593C33.9876 41.3676 33.8864 41.2952 33.7707 41.247C42.8858 21.2095 14.2391 10.5393 32.9899 41.3049C32.9417 41.329 32.8934 41.3435 32.8501 41.3917C32.7296 41.4931 32.6621 41.6234 32.6139 41.7682C7.84742 33.1924 8.02094 44.0702 16.2732 47.2312C16.6829 49.2629 19.9077 52.5446 28.401 56.5598C28.3817 56.6032 28.3576 56.6322 28.3383 56.6708C28.3094 56.8011 28.319 56.9169 28.3528 57.0327C-2.54505 64.9039 24.2507 77.4176 28.8541 57.5394C28.9457 57.5636 29.0421 57.5636 29.1336 57.5443C32.2716 78.3152 49.7595 71.2597 41.0975 62.9445C41.6663 62.1289 42.0278 61.0334 42.0857 59.6629C43.3823 58.3454 44.732 56.6563 46.125 54.5377C46.154 54.557 46.1732 54.5811 46.2022 54.5908C46.3034 54.6342 46.395 54.6535 46.4962 54.6583C46.395 57.2595 46.8433 59.4457 47.6 61.2554C36.1375 72.6785 54.0544 89.3281 64.6734 55.0879C64.6878 55.0879 64.6975 55.1023 64.7168 55.1072C64.8276 55.1313 64.9385 55.1313 65.0397 55.1265C65.5796 66.704 69.3346 72.5723 73.239 74.7054C72.3568 78.9233 71.5808 83.1557 71.1566 87.446C71.0265 87.4991 70.8867 87.5425 70.7614 87.5956C69.5466 88.0975 68.4476 88.7007 67.5173 89.3571C60.8509 94.0575 54.1218 104.911 67.8355 112.942C64.3311 113.082 61.3715 113.704 59.0385 114.664C51.1044 117.932 50.4247 125.103 60.1134 130.58C59.588 131.454 59.1445 132.299 58.7493 133.124C56.691 131.135 52.5504 131.097 47.0987 133.804C43.31 125.61 37.4679 125.697 34.3202 131.903C33.3948 133.722 32.7006 136.077 32.3584 138.9C26.7573 127.284 17.565 132.028 13.3473 137.115C13.1304 137.375 12.9183 137.675 12.7159 137.969C12.6677 137.935 12.6146 137.906 12.5664 137.873C11.9302 139.455 10.8312 140.855 10.0551 142.385C10.2238 142.491 10.3877 142.597 10.5564 142.703C9.60199 146.386 10.0021 150.719 13.4678 154.155C6.44472 152.09 2.46801 155.536 0.896612 158.615C0.462789 159.469 0.216956 160.294 0.144652 160.965C-0.800117 166.129 3.05608 168.363 6.67609 169.425C6.44472 169.637 6.25191 169.854 6.03982 170.071C5.73132 170.139 5.42283 170.221 5.11433 170.293C4.00567 172.6 2.86327 175.042 1.7257 177.479C0.641138 183.362 5.51441 187.715 10.3925 188.425C8.10771 197.888 21.0935 203.945 26.1837 195.036C24.7328 209.292 41.3241 208.79 44.2885 202.936C44.597 202.333 44.7609 201.677 44.7368 200.962C45.6382 202.14 46.7372 203.038 47.9567 203.689C41.4494 205.431 40.3215 206.778 40.3215 206.778C40.3215 206.778 40.6541 213.775 41.7386 221.492C38.9284 225.811 36.7786 230.512 35.4867 235.439C34.7637 238.214 34.2576 241.008 33.8961 243.807C31.0039 242.533 27.0754 243.894 26.4681 247.031C26.3475 246.766 26.1644 246.549 25.933 246.384C23.8025 244.797 17.7916 247.523 20.4717 252.33C20.4186 252.374 20.3608 252.417 20.3078 252.465C16.8806 250.646 13.5257 255.095 16.037 258.078C14.0752 259.439 13.034 262.638 15.796 264.68C16.3985 265.129 17.1842 265.519 18.182 265.823C17.0348 266.89 16.0129 268.434 17.3192 270.176C17.4735 270.418 17.7193 270.678 18.0374 270.91C19.1895 271.769 21.3152 272.305 23.5325 270.23C22.689 272.725 24.0435 274.819 25.5811 275.953C25.933 276.219 26.2993 276.431 26.6512 276.581C29.1626 277.686 33.4622 277.739 33.3851 272.387C33.6647 272.811 33.9587 273.173 34.2528 273.506C34.6239 277.28 35.0288 281.059 35.3903 284.838C34.031 283.795 33.1393 283.863 32.4934 283.791C31.7173 283.8 31.0087 283.988 30.3966 284.307C27.4176 285.856 26.5066 290.46 29.1819 292.477C28.9119 292.472 28.6468 292.535 28.4154 292.656C26.1596 293.833 26.0149 300.291 31.5486 299.673C28.1069 301.685 30.4978 306.719 34.166 305.797C34.3492 306.965 35.077 308.113 36.1278 308.731C36.0989 309.233 36.0845 309.73 36.0411 310.227C35.7615 313.451 40.7264 314.527 41.0059 311.265C41.1168 309.991 41.1987 308.717 41.2614 307.447C41.3626 307.356 41.459 307.288 41.5554 307.177C41.9796 308.582 42.8617 310.078 44.867 309.692C45.1272 309.658 45.4454 309.556 45.7732 309.383C46.9686 308.765 48.2893 307.206 47.4603 304.475C49.2148 306.217 51.5237 305.937 53.1096 305.107C53.4759 304.919 53.8085 304.701 54.0785 304.465C56.0403 302.805 57.8479 299.214 53.3265 297.072C54.4207 296.932 55.3269 296.652 56.0355 296.285C58.4311 295.04 58.4456 292.767 55.2546 291.319C57.2309 287.236 55.3414 285.026 51.678 286.927C51.596 286.971 51.5141 287.019 51.4225 287.063C53.2783 284.017 50.9019 282.029 48.9352 283.047C48.6846 283.182 48.4436 283.361 48.217 283.593L48.1495 283.573C47.8218 280.707 44.1921 277.724 40.6155 279.582C40.3986 279.693 40.1817 279.824 39.9696 279.973C39.9503 279.992 39.931 280.012 39.9117 280.031C39.7189 278.067 39.5165 276.108 39.3333 274.143C39.6563 273.502 39.8491 272.657 39.8153 271.528C44.6549 271.508 45.8888 268.651 42.3411 266.026C42.2592 265.963 42.1821 265.91 42.0953 265.848C45.8888 266.2 46.6745 262.976 44.7754 261.572C44.5295 261.393 44.25 261.248 43.9174 261.133L43.9029 261.06C46.501 259.41 47.6579 254.511 44.1921 251.949C43.9848 251.794 43.7583 251.65 43.5173 251.51C41.8639 250.781 40.1865 251.307 38.3018 252.697C38.3162 252.074 38.3211 251.447 38.35 250.824C38.6585 243.788 40.36 236.684 43.3052 230.164C44.4717 235.222 46.0624 239.503 48.2074 240.989C54.869 245.603 59.453 247.581 59.453 247.581L93.0165 355.003C93.0165 355.003 109.926 382.187 164.168 381.999C218.406 381.811 236.327 355.003 236.327 355.003L261.017 270.958C261.243 270.828 261.46 270.698 261.667 270.563C261.971 270.36 262.284 270.133 262.593 269.901C266.97 266.567 270.865 260.317 265.837 254.536L266.941 250.781C267.351 250.689 267.746 250.593 268.127 250.482C270.648 252.398 274.489 252.552 276.437 249.985C276.432 250.327 276.509 250.646 276.658 250.935H276.663C274.672 253.681 274.263 257.745 278.924 260.66C272.214 259.709 270.117 268.946 275.974 271.586C274.099 274.882 274.812 280.186 280.168 281.218C281.344 281.44 282.737 281.464 284.376 281.213C283.465 283.525 283.065 286.45 286.14 288.042C286.525 288.274 287.056 288.481 287.678 288.597C287.986 288.66 288.328 288.689 288.68 288.699C290.84 288.756 293.568 287.714 295.086 283.839C295.592 287.999 298.967 290.064 301.945 290.634C302.635 290.769 303.305 290.817 303.917 290.803C308.274 290.653 314.464 287.767 310.675 280.147C312.285 281.112 313.798 281.701 315.119 281.957C319.621 282.825 322.036 279.809 319.294 274.515C326.225 271.156 326.027 266.219 319.144 264.892C318.99 264.863 318.826 264.839 318.667 264.81C324.34 262.696 323.265 257.542 319.573 256.837C319.101 256.746 318.595 256.731 318.045 256.804L317.968 256.707C320.021 253.397 319.351 247.784 315.616 244.975C316.97 244.628 318.175 243.865 319.009 242.63C319.024 243.026 319.134 243.397 319.327 243.725C319.988 244.859 321.593 245.545 323.328 245.617C323.434 245.733 328.862 244.025 328.389 243.465C329.223 242.345 329.647 240.772 329.296 238.629C332.477 243.503 339.625 239.623 338.001 234.348C341.192 233.687 344.209 230.227 341.838 226.183C341.322 225.295 340.541 224.383 339.457 223.466V223.48ZM326.346 63.7698C326.423 63.8132 326.509 63.847 326.596 63.8566C326.519 64.3489 326.476 64.8074 326.423 65.2658C326.119 65.1886 325.806 65.1355 325.492 65.0824C325.786 64.6626 326.071 64.2331 326.35 63.7698H326.346ZM312.757 70.058C313.037 70.1738 313.326 70.2752 313.63 70.3572C312.56 72.6013 312.092 74.7102 312.073 76.602C311.085 75.0722 309.619 73.6244 307.662 72.5048C309.19 71.9546 310.892 71.1439 312.753 70.058H312.757ZM304.587 63.7505C307.171 65.2224 309.383 65.6808 311.118 65.4782C310.617 65.9366 310.338 66.4289 310.256 66.9163C307.629 65.594 305.387 65.0052 303.536 64.9328C303.912 64.5371 304.264 64.1462 304.587 63.7553V63.7505ZM220.512 56.1061C220.498 56.082 220.498 56.0482 220.488 56.0193C220.44 55.9324 220.377 55.86 220.3 55.8021C220.348 55.7394 220.382 55.6766 220.435 55.6187C220.565 55.7731 220.729 55.889 220.912 55.9758C220.777 56.0193 220.657 56.0579 220.517 56.1061H220.512ZM223.853 55.0444C225.675 53.5242 228.022 50.286 230.697 44.4128C230.736 44.4273 230.76 44.4514 230.808 44.4659C230.929 44.4948 231.04 44.4804 231.146 44.4514C232.447 49.2919 233.845 52.6073 235.19 54.7935C235.185 55.1023 235.19 55.416 235.228 55.7152C233.377 54.1661 229.704 53.447 223.853 55.0444ZM238.665 47.4628C237.046 45.9378 234.756 44.6589 231.613 43.9736C231.632 43.882 231.637 43.7903 231.618 43.7034C234.443 43.2401 236.708 42.4969 238.506 41.5944C238.66 43.2304 238.805 44.8761 238.935 46.5169C238.819 46.8065 238.728 47.1202 238.66 47.4628H238.665ZM95.6387 23.1448C97.8897 23.4247 100.546 23.1013 103.554 21.7645C103.592 21.8514 103.64 21.9238 103.708 21.9865C99.9962 25.7797 98.3428 29.2255 97.9235 32.0487C96.5979 32.2948 95.2049 32.7436 93.7588 33.3806C92.8285 33.5495 91.8355 33.8439 90.7991 34.2059C93.7347 29.9832 95.1856 26.2623 95.6387 23.1448ZM85.6367 25.746C86.432 28.3278 87.666 31.291 89.488 34.6885C89.382 34.7367 89.2663 34.7946 89.1603 34.8429C87.3768 33.26 85.6945 32.0245 84.1038 31.0352C84.822 29.1 85.3233 27.3385 85.6367 25.746ZM84.0363 37.6999C83.5206 38.0474 83.0048 38.3803 82.4697 38.7712C82.4649 38.5493 82.4553 38.3417 82.4264 38.1342C82.9518 38.0039 83.4772 37.8736 84.0363 37.6999ZM29.6928 57.0472C29.6928 57.0472 29.7024 57.0327 29.7073 57.0182C29.7265 56.941 29.7265 56.8735 29.7217 56.7962C29.9338 56.7866 30.117 56.7625 30.3243 56.7528C30.3484 56.9362 30.3773 57.1148 30.4158 57.2981C30.1652 57.2161 29.9531 57.1341 29.6928 57.052V57.0472ZM30.1411 54.2964C29.8615 54.9045 29.5771 55.5222 29.2975 56.1978C29.2686 56.1833 29.2445 56.1689 29.2204 56.1592C29.1192 56.1254 29.0131 56.1254 28.9216 56.1447C28.2949 52.1151 26.5404 49.3112 24.5303 47.5111C27.167 46.792 29.9965 45.2767 32.8067 42.5982C32.8886 42.6851 32.9802 42.7478 33.0911 42.8009C30.9991 47.3325 30.1652 51.1643 30.1411 54.2964ZM33.9732 42.6803C33.9732 42.6803 33.9973 42.6706 34.0117 42.6562C34.084 42.5982 34.1323 42.5162 34.1805 42.439C34.2528 42.4872 34.3202 42.5162 34.4022 42.5596C34.4745 42.9071 34.5757 43.2691 34.73 43.6503C34.4745 43.3221 34.2479 43.0133 33.9732 42.6803ZM245.303 125.986C245.433 125.571 245.544 125.113 245.626 124.606C245.982 124.9 246.378 125.166 246.797 125.373C246.488 125.672 246.175 126.01 245.867 126.411C245.679 126.256 245.486 126.121 245.303 125.986ZM284.429 72.0753C282.134 71.361 279.435 70.7964 276.273 70.4586C276.292 70.3524 276.302 70.2462 276.273 70.1304C276.273 70.1159 276.254 70.1014 276.254 70.087C278.509 69.532 280.544 68.9239 282.385 68.2869C283.2 68.6681 284.125 69.0204 285.157 69.3293C284.92 70.2414 284.679 71.1583 284.429 72.0704V72.0753ZM295.448 63.5719C294.73 64.8749 294.214 66.1055 293.872 67.2541C293.197 65.9366 292.498 64.7736 291.789 63.7408C293.274 62.6984 294.411 61.6367 295.25 60.5895C295.414 60.5267 295.592 60.4495 295.761 60.3868C295.626 61.3809 295.51 62.4185 295.443 63.5719H295.448ZM296.667 44.0702C296.002 45.7689 295.978 49.0699 297.308 54.4412C297.226 54.6342 297.145 54.8321 297.063 55.0444C296.691 52.921 294.985 51.3091 292.657 50.7493C292.406 49.6442 292.04 48.5052 291.543 47.3422C291.524 45.6531 291.461 43.9785 291.346 42.3232C293.235 43.1098 295.009 43.6889 296.667 44.075V44.0702ZM289.302 70.2366C290.531 70.4248 291.862 70.5647 293.308 70.6468C293.298 71.1294 293.332 71.5878 293.394 72.0318C292.156 72.8474 291.095 73.7306 290.194 74.6523C289.692 74.3338 289.148 74.0298 288.564 73.7354C288.825 72.582 289.066 71.4189 289.297 70.2366H289.302ZM287.596 41.0684C287.538 40.996 287.48 40.9236 287.417 40.8561C287.475 40.8078 287.523 40.7547 287.562 40.6968C287.572 40.8223 287.586 40.9429 287.596 41.0684ZM287.398 39.0994C287.408 39.1815 287.417 39.2683 287.427 39.3552C287.383 39.3214 287.34 39.2876 287.297 39.2587C287.335 39.2056 287.364 39.1525 287.398 39.0994ZM285.88 40.5713C285.913 40.6244 285.923 40.6823 285.957 40.7306C286.072 40.8705 286.217 40.9622 286.376 41.025C285.171 44.0074 284.241 46.6665 283.537 49.0602C281.888 47.7669 279.324 46.4832 275.637 45.3346C278.5 44.2729 281.874 42.7527 285.88 40.5762V40.5713ZM266.517 50.4453C270.672 55.9324 276.21 57.6022 280.322 57.163C280.24 57.2885 280.153 57.4188 280.071 57.5443C277.757 58.4564 276.475 60.8066 277.242 63.292C276.572 65.0921 275.988 67.1045 275.516 69.3631C275.381 69.3341 275.246 69.3293 275.106 69.3631C275.102 69.3148 275.087 69.2665 275.077 69.2231C275.627 68.0697 275.444 66.9308 274.354 66.0959C272.682 60.4109 269.534 56.8349 266.194 54.8803C266.95 53.6883 267.148 52.1295 266.521 50.4501L266.517 50.4453ZM274.369 70.7143C274.109 70.8253 273.877 70.9315 273.622 71.0328C273.877 70.8109 274.109 70.584 274.311 70.3572C274.311 70.42 274.277 70.4827 274.292 70.5454C274.306 70.6082 274.35 70.6612 274.369 70.7095V70.7143ZM264.733 41.218C264.256 41.7344 263.88 42.2556 263.615 42.7672C263.586 42.7672 263.557 42.7623 263.533 42.7575C263.552 42.5886 263.562 42.41 263.49 42.2411C263.461 42.1784 263.417 42.1349 263.383 42.0867C263.865 41.7923 264.28 41.5076 264.733 41.218ZM262.492 43.6165C262.627 43.6262 262.762 43.6165 262.887 43.5586C262.959 43.7661 263.051 43.9543 263.133 44.157C262.993 45.1174 263.302 45.9668 264.145 46.5314C264.328 46.9175 264.526 47.2891 264.728 47.651C264.097 46.9802 263.316 46.3094 262.366 45.6579C262.424 44.9919 262.463 44.3211 262.492 43.6165ZM261.547 42.661C261.547 42.7672 261.566 42.8781 261.605 42.9843C261.61 42.9988 261.619 43.0084 261.634 43.0229C260.877 43.3559 260.159 43.6841 259.465 44.0171C259.204 43.8868 258.949 43.7565 258.669 43.631C258.293 43.3559 257.859 43.2015 257.397 43.1194C257.04 42.9795 256.693 42.8347 256.317 42.7044C257.932 42.7768 259.648 42.7816 261.542 42.661H261.547ZM253.222 65.2127C257.802 66.26 260.433 65.8401 261.586 64.8025C261.947 65.0004 262.313 65.1982 262.699 65.3913C259.778 65.898 256.327 66.7281 252.2 68.0263C252.181 67.9684 252.181 67.9104 252.152 67.8477C252.075 67.6885 251.94 67.5726 251.8 67.4809C252.311 66.6895 252.76 65.9559 253.218 65.2127H253.222ZM250.61 41.9805C250.899 43.3221 251.236 44.5238 251.593 45.6579C250.268 47.0044 249.091 48.8093 248.344 51.0244C248.272 51.0919 248.19 51.1595 248.118 51.2319C248.985 48.7224 249.732 45.6724 250.253 41.9178C250.369 41.9467 250.494 41.9612 250.61 41.9853V41.9805ZM250.475 67.6885C248.85 66.3806 247.289 65.2899 245.775 64.373C245.664 64.1607 245.553 63.9532 245.447 63.736C246.517 64.513 247.92 64.9377 249.463 64.8894C249.839 65.7243 250.263 66.5833 250.75 67.4568C250.644 67.5195 250.547 67.5968 250.475 67.6933V67.6885ZM250.571 69.0445C249.896 69.7347 249.279 70.4055 248.687 71.0811C248.547 70.6516 248.383 70.198 248.204 69.7298C248.908 69.421 249.622 69.0976 250.354 68.7502C250.359 68.7598 250.354 68.7743 250.369 68.7791C250.422 68.8805 250.494 68.9625 250.571 69.0349V69.0445ZM246.117 40.4652C246.951 40.8705 247.906 41.2228 248.932 41.5365C246.99 42.2025 245.288 42.9457 243.804 43.742C243.683 42.3907 243.558 41.0346 243.423 39.6785C244.262 39.9874 245.153 40.2576 246.117 40.4652ZM244.671 76.4235C244.671 76.4235 244.671 76.4331 244.666 76.4331C244.666 76.4283 244.666 76.4186 244.666 76.4138C244.666 76.4138 244.666 76.4186 244.671 76.4235ZM243.288 90.8628C247.896 96.7167 260.057 91.9776 251.598 69.2569C251.646 69.2424 251.69 69.2424 251.733 69.2183C251.853 69.1555 251.964 69.0639 252.046 68.9625C257.782 73.5375 263.528 74.3966 267.89 73.5906C239.427 87.557 269.944 94.9407 275.068 71.3321C275.203 71.3658 275.347 71.3658 275.497 71.3321C275.54 71.3321 275.584 71.2983 275.627 71.279C277.314 76.2256 279.213 79.9175 281.151 82.591C280.789 83.6045 280.433 84.5407 280.095 85.3756C278.972 84.5697 277.516 84.1788 275.892 84.6421C275.661 84.7048 275.429 84.7917 275.193 84.8882C272.696 86.2347 272.797 89.6611 273.607 94.8104C273.439 94.9648 273.27 95.1289 273.091 95.2882C270.373 87.5039 268.324 87.4508 267.187 87.084C266.435 86.9344 265.712 86.973 265.051 87.1661C261.855 88.0685 260.057 92.354 262.246 94.8442C261.981 94.7863 261.72 94.7959 261.465 94.8635C259.04 95.5536 257.614 101.784 263.104 102.295C262.048 102.653 261.407 103.338 261.099 104.129C258.443 105.761 255.719 107.305 252.981 108.82C252.229 108.555 251.275 108.463 250.06 108.651C250.942 107.869 251.593 107.078 251.993 106.335C253.377 103.796 252.037 101.774 248.344 102.397C247.665 97.5998 244.676 96.7697 242.555 100.64C242.507 100.727 242.464 100.819 242.415 100.91C242.377 100.085 242.17 99.453 241.895 98.9366C242.444 96.263 242.907 93.575 243.297 90.8724L243.288 90.8628ZM238.188 112.763C238.246 112.806 238.304 112.845 238.376 112.888C238.376 112.888 238.376 112.893 238.376 112.903C238.376 112.913 238.366 112.913 238.362 112.917C238.294 112.884 238.236 112.85 238.169 112.816C238.178 112.797 238.178 112.782 238.188 112.763ZM226.219 137.776C226.219 137.776 226.239 137.742 226.248 137.728C226.234 137.762 226.224 137.795 226.21 137.829C226.21 137.81 226.214 137.795 226.219 137.776ZM106.754 71.6554C106.802 71.6795 106.851 71.7133 106.904 71.7664C106.677 75.5982 106.692 78.5758 106.86 80.9116C106.494 80.0333 106.046 79.2032 105.491 78.46C105.92 76.4186 106.32 74.1408 106.759 71.6506L106.754 71.6554ZM83.964 136.058C85.4438 136.401 87.1116 135.884 87.8829 133.563C88.2155 137.018 93.055 136.956 93.6624 133.722C95.5278 134.258 98.0777 133.273 97.9476 130.484C97.9283 130.083 97.8319 129.63 97.6921 129.157C98.0392 128.973 98.3814 128.742 98.6947 128.409C99.1189 128.351 99.5142 128.216 99.8516 127.96C100.16 129.007 100.922 129.702 101.838 130.03C98.473 130.817 97.9427 133.741 101.24 137.047C101.341 137.149 101.442 137.245 101.548 137.346C97.7885 136.425 95.8411 138.437 95.952 140.503C94.0287 140.382 92.9152 142.105 93.4937 145.276C93.5178 145.391 93.537 145.502 93.566 145.623C90.6545 142.341 87.4587 144.417 87.9455 147.095C88.0082 147.438 88.1335 147.79 88.3215 148.142L88.2781 148.219C87.6515 148.104 86.9815 148.113 86.3067 148.234C85.4679 146.608 83.7808 145.295 80.9032 144.836C85.3474 143.654 86.003 138.987 83.9592 136.063L83.964 136.058ZM74.2705 38.723C74.2705 38.723 74.2512 38.7423 74.2464 38.7519C74.2223 38.7375 74.1886 38.723 74.1596 38.7085C74.1982 38.7133 74.2416 38.7133 74.2753 38.723H74.2705ZM71.9568 26.9766C71.5953 27.5267 71.4073 28.2072 71.4988 28.8828C69.6189 29.8818 68.5922 31.6095 68.5874 33.3565C68.2837 33.0139 67.9319 32.6664 67.5896 32.3238C68.2982 31.2379 68.7609 29.6212 68.7802 27.4109C69.9033 27.3434 70.959 27.1937 71.9568 26.9766ZM66.5966 16.6876C66.6738 16.6635 66.722 16.6104 66.7798 16.5718C67.2763 17.1702 67.7632 17.7252 68.2548 18.2319C67.956 18.507 67.6619 18.7917 67.3583 19.0813C67.1269 18.314 66.8618 17.5225 66.5629 16.6924C66.5774 16.6924 66.587 16.6924 66.6015 16.6924L66.5966 16.6876ZM60.1231 29.5729C59.7326 32.6664 59.5591 35.4268 59.5976 37.8447C59.4868 37.8881 59.3759 37.9364 59.2795 37.9846C58.1998 35.9963 57.1249 34.5147 56.0981 33.4772C57.4093 31.7784 58.7252 29.7998 60.0122 27.435C59.964 28.2024 60.0025 28.9214 60.1231 29.5778V29.5729ZM52.8686 18.6904C53.3795 19.5735 53.9676 20.4567 54.6762 21.3205C53.635 21.6198 52.4974 21.9914 51.2538 22.4498C51.2393 22.416 51.2393 22.3871 51.22 22.3581C51.167 22.2713 51.0947 22.2182 51.0128 22.1699C51.7503 20.9055 52.3624 19.7521 52.8734 18.6904H52.8686ZM51.0176 23.1013C51.0851 23.0579 51.1381 23.0048 51.1815 22.9469C53.9146 24.9111 56.5705 25.4226 58.73 25.1958C59.0433 25.4371 59.347 25.688 59.6844 25.9293C59.5976 26.0403 59.5398 26.1755 59.5157 26.3202C59.5012 26.3685 59.5157 26.4168 59.5157 26.465C56.7633 26.2865 54.3387 26.3106 52.1504 26.465C51.8563 25.4371 51.4562 24.3271 50.9453 23.1255C50.9694 23.1158 50.9935 23.111 51.0128 23.1013H51.0176ZM45.9081 53.6352C45.8696 53.7028 45.8551 53.78 45.8503 53.8524C44.0379 53.587 42.4375 53.4856 40.9818 53.5049C41.7145 52.9258 42.2785 52.3177 42.693 51.6904C43.686 52.3274 44.732 52.9596 45.9322 53.6063C45.9274 53.6159 45.9129 53.6208 45.9081 53.6304V53.6352ZM46.554 53.2492C46.6601 50.7252 46.4817 48.5583 46.1058 46.71C48.1062 46.8354 49.7691 46.5507 51.0803 45.9909C51.302 46.2949 51.5334 46.599 51.784 46.8934C49.9234 48.2446 48.1688 50.3053 46.8288 53.3119C46.742 53.2685 46.6456 53.2492 46.5589 53.2492H46.554ZM63.9793 54.2433C58.7927 55.0299 54.7822 56.4246 51.7647 58.1427C50.4729 56.9845 48.9449 55.7297 47.0795 54.3591C47.1036 54.3205 47.1421 54.2964 47.1566 54.253C47.2096 54.1371 47.2192 54.0165 47.2096 53.9007C52.3528 53.6111 56.021 52.9065 58.5613 52.0185C60.1616 52.7666 61.9548 53.3988 63.9985 53.8765C63.9696 54.002 63.9648 54.1275 63.9744 54.2481L63.9793 54.2433ZM65.4253 53.1768C65.3723 53.1526 65.3289 53.114 65.2663 53.0996C65.0831 53.0465 64.9144 53.0658 64.7505 53.1092C64.6589 52.7617 64.5721 52.4336 64.4806 52.0957C64.8614 52.3563 65.247 52.5639 65.6422 52.7231C65.5699 52.8776 65.4976 53.0175 65.4205 53.1719L65.4253 53.1768ZM62.6007 20.5966C62.0897 20.394 61.3811 20.283 60.4508 20.2926C60.4219 19.4143 60.3785 18.5553 60.3255 17.7542C61.974 17.6238 63.7768 17.1992 65.7338 16.3257C65.7676 16.4125 65.8158 16.4849 65.8881 16.5477C64.5143 17.9472 63.449 19.3033 62.6007 20.5918V20.5966ZM65.9315 54.4894C65.9459 54.446 65.9748 54.4026 65.9941 54.3591C66.0327 54.224 66.0375 54.0792 66.0182 53.9489C70.1444 53.3071 73.398 51.8641 75.8901 50.0495C74.82 53.5098 74.2319 56.333 74.0102 58.5867C71.817 57.1968 69.1562 55.8117 65.9315 54.4943V54.4894ZM283.932 209.842C283.976 209.823 284.014 209.808 284.058 209.789C284.014 209.808 283.976 209.828 283.932 209.847V209.842ZM304.023 248.928C302.124 252.644 300.548 258.015 298.586 264.535C298.586 264.535 298.581 264.535 298.571 264.545C298.562 264.545 298.547 264.53 298.533 264.52C299.969 256.92 300.336 251.876 300.157 248.46C300.466 247.765 300.692 246.964 300.76 245.965C301.396 247.707 302.649 248.638 304.018 248.923L304.023 248.928Z" fill="#2C2C2C"/>
</svg>
