<svg width="90" height="75" viewBox="0 0 90 75" fill="none" xmlns="http://www.w3.org/2000/svg">
<path d="M52.812 34.5H57.25C57.7141 34.5 58.1592 34.6844 58.4874 35.0126C58.8156 35.3408 59 35.7859 59 36.25C59 36.7142 58.8156 37.1593 58.4874 37.4875C58.1592 37.8157 57.7141 38 57.25 38H32.75C32.2859 38 31.8408 37.8157 31.5126 37.4875C31.1844 37.1593 31 36.7142 31 36.25C31 35.7859 31.1844 35.3408 31.5126 35.0126C31.8408 34.6844 32.2859 34.5 32.75 34.5H35.3995C34.9042 33.9505 34.5957 33.2583 34.5184 32.5225C34.441 31.7868 34.5988 31.0455 34.969 30.405L43.719 15.25C44.1831 14.4462 44.9476 13.8596 45.8442 13.6194C46.7408 13.3791 47.6961 13.5049 48.5 13.969L57.593 19.219C58.3969 19.6832 58.9834 20.4476 59.2236 21.3442C59.4639 22.2408 59.3381 23.1961 58.874 24L52.812 34.5ZM55.843 22.25L46.75 17L38 32.155L42.06 34.5H48.773L55.843 22.25ZM58.86 31L60.8795 27.5C61.4008 27.5196 61.9112 27.6555 62.3732 27.8977C62.8353 28.1399 63.2374 28.4824 63.55 28.9L72.3 40.5655C72.7544 41.1714 73 41.9082 73 42.6655V59C73 59.9283 72.6313 60.8185 71.9749 61.4749C71.3185 62.1313 70.4283 62.5 69.5 62.5H20.5C19.5717 62.5 18.6815 62.1313 18.0251 61.4749C17.3687 60.8185 17 59.9283 17 59V42.6655C17 41.9082 17.2456 41.1714 17.7 40.5655L26.45 28.9C26.776 28.4653 27.1988 28.1125 27.6848 27.8695C28.1707 27.6265 28.7066 27.5 29.25 27.5H32.6205L30.944 30.405C30.8346 30.5944 30.7432 30.7936 30.671 31H29.25L21.375 41.5H68.625L60.75 31H58.86ZM20.5 59H69.5V45H20.5V59Z" fill="#2B5C6C"/>
</svg>
