<svg width="90" height="75" viewBox="0 0 90 75" fill="none" xmlns="http://www.w3.org/2000/svg">
<path d="M43.5417 32.1666L37.7083 29.25L30.4167 38M55.2083 59.8254C53.5652 62.1014 51.4044 63.9541 48.9043 65.2305C46.4041 66.5069 43.6363 67.1706 40.8292 67.1666C31.0496 67.1666 23.125 59.2771 23.125 49.5441C23.125 46.9921 23.6033 44.5654 24.5833 42.375M46.8958 26.3333L44.6967 31.7175C42.4625 37.1979 41.3454 39.9366 42.6171 41.885C43.8887 43.8333 46.7938 43.8333 52.6038 43.8333C54.6279 43.8333 56.5821 43.3083 57.7079 45.28L66.875 61.3333M50.8333 20.5C49.2862 20.5 47.8025 19.8854 46.7085 18.7914C45.6146 17.6975 45 16.2137 45 14.6666C45 13.1196 45.6146 11.6358 46.7085 10.5419C47.8025 9.44789 49.2862 8.83331 50.8333 8.83331C52.3804 8.83331 53.8642 9.44789 54.9581 10.5419C56.0521 11.6358 56.6667 13.1196 56.6667 14.6666C56.6667 16.2137 56.0521 17.6975 54.9581 18.7914C53.8642 19.8854 52.3804 20.5 50.8333 20.5Z" stroke="#2B5C6C" stroke-width="4.375" stroke-linecap="round" stroke-linejoin="round"/>
</svg>
