<svg width="72" height="75" viewBox="0 0 72 75" fill="none" xmlns="http://www.w3.org/2000/svg">
<path d="M44.75 20.5H40.375C40.375 17.5992 39.2227 14.8172 37.1715 12.766C35.1203 10.7148 32.3383 9.5625 29.4375 9.5625C26.5367 9.5625 23.7547 10.7148 21.7035 12.766C19.6523 14.8172 18.5 17.5992 18.5 20.5H14.125C14.125 16.4389 15.7383 12.5441 18.6099 9.67243C21.4816 6.80078 25.3764 5.1875 29.4375 5.1875C33.4986 5.1875 37.3934 6.80078 40.2651 9.67243C43.1367 12.5441 44.75 16.4389 44.75 20.5Z" fill="#2B5C6C"/>
<path d="M55.6876 35.8125C54.5574 35.8166 53.4483 36.1184 52.472 36.6875C51.8822 35.7521 51.0656 34.9809 50.0981 34.4455C49.1305 33.9101 48.0434 33.6278 46.9376 33.625C45.8074 33.6291 44.6983 33.9309 43.722 34.5C42.9261 33.2477 41.7294 32.3021 40.327 31.8174C38.9246 31.3327 37.3993 31.3376 36.0001 31.8313V20.5C36.0001 18.7595 35.3087 17.0903 34.078 15.8596C32.8473 14.6289 31.1781 13.9375 29.4376 13.9375C27.6971 13.9375 26.0279 14.6289 24.7972 15.8596C23.5665 17.0903 22.8751 18.7595 22.8751 20.5V44.7812L17.997 41.4562C16.8787 40.6234 15.5194 40.178 14.1251 40.1875C12.8235 40.1843 11.5503 40.5682 10.4675 41.2905C9.38461 42.0127 8.541 43.0406 8.04388 44.2436C7.54676 45.4465 7.41858 46.7701 7.67566 48.0461C7.93273 49.3221 8.56344 50.4928 9.48759 51.4094L26.9876 67.3781C29.4651 69.5956 32.6751 70.8189 36.0001 70.8125H46.9376C50.9987 70.8125 54.8935 69.1992 57.7652 66.3276C60.6368 63.4559 62.2501 59.5611 62.2501 55.5V42.375C62.2501 40.6345 61.5587 38.9653 60.328 37.7346C59.0973 36.5039 57.4281 35.8125 55.6876 35.8125ZM57.8751 55.5C57.8751 58.4008 56.7227 61.1828 54.6716 63.234C52.6204 65.2852 49.8384 66.4375 46.9376 66.4375H36.0001C33.789 66.4642 31.6434 65.6869 29.9626 64.25L12.572 48.2812C12.1678 47.8738 11.94 47.3239 11.9376 46.75C11.9376 46.3438 12.0507 45.9455 12.2643 45.6C12.4779 45.2544 12.7835 44.9751 13.1468 44.7934C13.5102 44.6118 13.9169 44.5349 14.3215 44.5713C14.7261 44.6078 15.1126 44.7563 15.4376 45L27.2501 53.0938V20.5C27.2501 19.9198 27.4806 19.3634 27.8908 18.9532C28.301 18.543 28.8574 18.3125 29.4376 18.3125C30.0177 18.3125 30.5741 18.543 30.9844 18.9532C31.3946 19.3634 31.6251 19.9198 31.6251 20.5V44.5625H36.0001V38C36.0001 37.4198 36.2306 36.8634 36.6408 36.4532C37.051 36.043 37.6074 35.8125 38.1876 35.8125C38.7677 35.8125 39.3241 36.043 39.7344 36.4532C40.1446 36.8634 40.3751 37.4198 40.3751 38V44.5625H44.7501V40.1875C44.7501 39.6073 44.9806 39.0509 45.3908 38.6407C45.801 38.2305 46.3574 38 46.9376 38C47.5177 38 48.0742 38.2305 48.4844 38.6407C48.8946 39.0509 49.1251 39.6073 49.1251 40.1875V44.5625H53.5001V42.375C53.5001 41.7948 53.7306 41.2384 54.1408 40.8282C54.551 40.418 55.1074 40.1875 55.6876 40.1875C56.2677 40.1875 56.8242 40.418 57.2344 40.8282C57.6446 41.2384 57.8751 41.7948 57.8751 42.375V55.5Z" fill="#2B5C6C"/>
</svg>
