<svg width="60" height="60" viewBox="0 0 60 60" fill="none" xmlns="http://www.w3.org/2000/svg">
<path d="M30.0008 7.49992C29.2549 7.49992 28.5395 7.79624 28.0121 8.32368C27.4846 8.85113 27.1883 9.5665 27.1883 10.3124V43.2637L16.1596 30.9374C15.661 30.3865 14.9646 30.0552 14.2225 30.016C13.4805 29.9768 12.7531 30.2329 12.1992 30.7283C11.6453 31.2237 11.31 31.9182 11.2665 32.66C11.2231 33.4018 11.4749 34.1307 11.9671 34.6874L27.9046 52.4999C28.1684 52.7955 28.4917 53.0319 28.8533 53.1938C29.2148 53.3558 29.6065 53.4395 30.0027 53.4395C30.3989 53.4395 30.7906 53.3558 31.1521 53.1938C31.5137 53.0319 31.837 52.7955 32.1008 52.4999L48.0383 34.6874C48.2871 34.4126 48.479 34.0912 48.6032 33.7419C48.7273 33.3926 48.7811 33.0222 48.7616 32.652C48.742 32.2817 48.6495 31.9191 48.4893 31.5848C48.329 31.2504 48.1043 30.9511 47.828 30.704C47.5517 30.4568 47.2292 30.2667 46.8792 30.1446C46.5292 30.0225 46.1584 29.9709 45.7884 29.9926C45.4183 30.0143 45.0561 30.1089 44.7228 30.2711C44.3894 30.4332 44.0914 30.6597 43.8458 30.9374L32.8133 43.2637V10.3124C32.8133 9.5665 32.517 8.85113 31.9896 8.32368C31.4621 7.79624 30.7467 7.49992 30.0008 7.49992Z" fill="#FC0000"/>
</svg>
