<svg width="60" height="60" viewBox="0 0 60 60" fill="none" xmlns="http://www.w3.org/2000/svg">
<path d="M5 25C6.95 15.46 14.175 7.825 23.515 5.225C24.3 5.0075 24.69 4.8975 24.9025 5.13C25.115 5.365 24.9575 5.75 24.6475 6.525L22.5 11.25M35 5C44.54 6.95 52.175 14.175 54.775 23.515C54.9925 24.3 55.1025 24.69 54.87 24.9025C54.635 25.115 54.25 24.9575 53.475 24.6475L48.75 22.5M55 35C53.05 44.54 45.825 52.175 36.485 54.775C35.7 54.9925 35.31 55.1025 35.0975 54.87C34.885 54.635 35.0425 54.25 35.3525 53.475L37.5 48.75M25 55C15.46 53.05 7.825 45.825 5.225 36.485C5.0075 35.7 4.8975 35.31 5.13 35.0975C5.365 34.885 5.75 35.0425 6.525 35.3525L11.25 37.5" stroke="#FC0000" stroke-width="3.75" stroke-linecap="round"/>
<path d="M30 27.7479C26.7175 29.9979 22.7475 34.4479 21.25 41.2504M23.4375 35.2604C18.2575 23.2754 28.7075 19.2329 36.66 18.7829C37.62 18.7279 38.1 18.7004 38.4425 19.0504C38.7875 19.4004 38.7675 19.9004 38.7275 20.8954C38.4 29.1854 35.095 40.5904 23.4375 35.2604Z" stroke="#FC0000" stroke-width="3.75" stroke-linecap="round" stroke-linejoin="round"/>
</svg>
