<svg width="60" height="60" viewBox="0 0 60 60" fill="none" xmlns="http://www.w3.org/2000/svg">
<path d="M17.5002 29.9996H42.5002M30.0002 29.9996V14.9996M29.3527 19.3521C30.7252 15.5071 29.9177 11.1071 26.9052 8.09463C23.8927 5.08213 19.4927 4.27463 15.6502 5.64463C14.2777 9.49213 15.0852 13.8946 18.0977 16.9046C21.1102 19.9171 25.5102 20.7246 29.3552 19.3546M18.7927 29.9996H9.74266C8.67266 29.9996 8.13516 29.9996 7.80516 30.3421C7.47266 30.6846 7.48516 31.2146 7.51266 32.2721C7.53766 33.3496 7.60016 34.4221 7.74516 35.4921C7.80766 35.9346 7.83766 36.1571 7.98266 36.2696C8.12766 36.3846 8.39016 36.3521 8.91766 36.2921C11.8352 35.9496 14.6552 38.3321 14.6552 41.4596C14.6552 43.0171 13.9802 44.4171 12.9152 45.3721C12.5252 45.7221 12.3302 45.8971 12.3152 46.0796C12.3002 46.2621 12.4452 46.4346 12.7252 46.7771C13.7452 48.0196 14.8927 49.1496 16.1452 50.1471C16.4452 50.3846 16.5927 50.5021 16.7552 50.4971C16.9177 50.4921 17.0852 50.3446 17.4177 50.0471C18.3177 49.2396 19.5002 48.7521 20.7927 48.7521C23.5652 48.7521 25.7852 51.0721 25.9027 53.7621C25.9202 54.2096 25.9302 54.4321 26.0402 54.5546C26.1477 54.6746 26.3327 54.7046 26.7027 54.7596C28.8893 55.08 31.111 55.08 33.2977 54.7596C33.6677 54.7021 33.8527 54.6746 33.9602 54.5546C34.0702 54.4321 34.0802 54.2096 34.0977 53.7621C34.2152 51.0721 36.4352 48.7521 39.2077 48.7521C40.5002 48.7521 41.6827 49.2396 42.5827 50.0446C42.9152 50.3446 43.0827 50.4946 43.2452 50.4971C43.4077 50.4996 43.5577 50.3846 43.8552 50.1471C45.1077 49.1471 46.2552 48.0171 47.2752 46.7771C47.5552 46.4346 47.6977 46.2621 47.6827 46.0771C47.6677 45.8946 47.4727 45.7196 47.0827 45.3721C46.5344 44.8786 46.0964 44.2752 45.797 43.601C45.4976 42.9269 45.3437 42.1972 45.3452 41.4596C45.3452 38.3321 48.1652 35.9496 51.0827 36.2921C51.6077 36.3521 51.8727 36.3846 52.0177 36.2696C52.1627 36.1571 52.1927 35.9346 52.2552 35.4946C52.4002 34.4221 52.4627 33.3496 52.4877 32.2721C52.5127 31.2146 52.5277 30.6846 52.1952 30.3421C51.8652 29.9996 51.3277 29.9996 50.2577 29.9996H41.2077C40.6902 35.8396 35.8702 40.4171 30.0002 40.4171C24.1302 40.4171 19.3102 35.8421 18.7927 29.9996ZM30.5402 24.4596C29.3952 21.2571 30.0677 17.5896 32.5802 15.0771C35.0927 12.5646 38.7552 11.8946 41.9602 13.0396C43.1052 16.2421 42.4327 19.9096 39.9227 22.4221C37.4127 24.9346 33.7427 25.6046 30.5402 24.4596Z" stroke="#FC0000" stroke-width="3.75" stroke-linecap="round" stroke-linejoin="round"/>
</svg>
