<svg width="60" height="60" viewBox="0 0 60 60" fill="none" xmlns="http://www.w3.org/2000/svg">
<path d="M40.725 6.25H20.0425C17.1825 6.25 15.7525 6.25 14.69 6.9825C13.625 7.7175 13.205 8.9925 12.365 11.545L6.595 29.045C5.1325 33.485 4.4 35.705 5.605 37.2275C6.81 38.75 9.2975 38.75 14.275 38.75H34.9575C37.8175 38.75 39.245 38.75 40.31 38.0175C41.375 37.2825 41.795 36.0075 42.635 33.455L48.405 15.955C49.8675 11.515 50.6 9.295 49.395 7.7725C48.19 6.25 45.7025 6.25 40.725 6.25Z" stroke="#FC0000" stroke-width="3.75" stroke-linecap="round" stroke-linejoin="round"/>
<path d="M55 15L47.395 38.0325C46.285 41.39 45.73 43.07 44.3275 44.0325C42.9275 45 41.04 45 37.27 45H10M11.25 17.5H47.5M43.75 27.5H7.5M27.5 46.25V53.75M27.5 53.75H32.5M27.5 53.75H22.5" stroke="#FC0000" stroke-width="3.75" stroke-linecap="round" stroke-linejoin="round"/>
<path d="M38.75 6.25H26.25L16.25 38.75H28.75L38.75 6.25Z" stroke="#FC0000" stroke-width="3.75" stroke-linecap="round" stroke-linejoin="round"/>
</svg>
