<svg width="60" height="60" viewBox="0 0 60 60" fill="none" xmlns="http://www.w3.org/2000/svg">
<path d="M15 37.5V40C15 40.7083 14.76 41.3025 14.28 41.7825C13.8 42.2625 13.2067 42.5017 12.5 42.5H10C9.29167 42.5 8.69833 42.26 8.22 41.78C7.74167 41.3 7.50167 40.7067 7.5 40V20L12.75 5C13 4.25 13.4483 3.64583 14.095 3.1875C14.7417 2.72917 15.46 2.5 16.25 2.5H43.75C44.5417 2.5 45.2608 2.72917 45.9075 3.1875C46.5542 3.64583 47.0017 4.25 47.25 5L52.5 20V40C52.5 40.7083 52.2608 41.3025 51.7825 41.7825C51.3042 42.2625 50.71 42.5017 50 42.5H47.5C46.7917 42.5 46.1983 42.26 45.72 41.78C45.2417 41.3 45.0017 40.7067 45 40V37.5H15ZM14.5 15H45.5L42.875 7.5H17.125L14.5 15ZM18.75 30C19.7917 30 20.6775 29.6358 21.4075 28.9075C22.1375 28.1792 22.5017 27.2933 22.5 26.25C22.4983 25.2067 22.1342 24.3217 21.4075 23.595C20.6808 22.8683 19.795 22.5033 18.75 22.5C17.705 22.4967 16.82 22.8617 16.095 23.595C15.37 24.3283 15.005 25.2133 15 26.25C14.995 27.2867 15.36 28.1725 16.095 28.9075C16.83 29.6425 17.715 30.0067 18.75 30ZM41.25 30C42.2917 30 43.1775 29.6358 43.9075 28.9075C44.6375 28.1792 45.0017 27.2933 45 26.25C44.9983 25.2067 44.6342 24.3217 43.9075 23.595C43.1808 22.8683 42.295 22.5033 41.25 22.5C40.205 22.4967 39.32 22.8617 38.595 23.595C37.87 24.3283 37.505 25.2133 37.5 26.25C37.495 27.2867 37.86 28.1725 38.595 28.9075C39.33 29.6425 40.215 30.0067 41.25 30ZM32.5 57.5L17.5 50H27.5V45L42.5 52.5H32.5V57.5ZM12.5 32.5H47.5V20H12.5V32.5Z" fill="#FC0000"/>
</svg>
