<svg width="200" height="200" viewBox="0 0 200 200" fill="none" xmlns="http://www.w3.org/2000/svg">
<path d="M76.0036 152.32C75.7095 152.316 75.4183 152.26 75.1436 152.155C68.6227 152.145 62.1021 152.052 55.5836 151.875C50.8686 151.76 46.4936 151.655 41.4286 151.655C33.4767 151.647 25.8528 148.485 20.2295 142.862C14.6062 137.24 11.4429 129.617 11.4336 121.665C11.4336 111.645 16.2836 102.505 24.4886 96.9098C23.8206 93.6369 23.4822 90.3052 23.4786 86.9648C23.4786 59.7898 45.5886 37.6748 72.7736 37.6748C81.6758 37.6836 90.4103 40.0978 98.0534 44.6621C105.696 49.2265 111.964 55.7714 116.194 63.6048C118.977 60.752 122.305 58.4874 125.98 56.9457C129.655 55.4039 133.603 54.6164 137.589 54.6298C142.145 54.6336 146.641 55.6745 150.736 57.6736C154.83 59.6726 158.416 62.5774 161.222 66.1679C164.028 69.7583 165.979 73.9402 166.929 78.3967C167.879 82.8533 167.802 87.4675 166.704 91.8898C172.996 93.6636 178.536 97.4443 182.482 102.657C186.428 107.869 188.564 114.227 188.564 120.765C188.564 137.305 175.109 150.765 158.569 150.765C150.859 150.765 133.354 151.165 116.429 151.555C99.3436 151.955 83.2086 152.32 76.0036 152.32ZM72.7736 42.3298C48.1586 42.3298 28.1336 62.3498 28.1336 86.9648C28.1336 90.4998 28.5536 94.0248 29.3786 97.4398C29.4942 97.9202 29.4537 98.4248 29.2631 98.8806C29.0725 99.3365 28.7417 99.7197 28.3186 99.9748C24.5718 102.217 21.4734 105.396 19.3281 109.199C17.1828 113.002 16.0646 117.298 16.0836 121.665C16.0915 128.382 18.764 134.823 23.5146 139.572C28.2652 144.322 34.7059 146.993 41.4236 147C46.5286 147 50.9386 147.105 55.6936 147.22C61.2186 147.35 67.2136 147.495 75.3436 147.495C75.6377 147.499 75.9289 147.555 76.2036 147.66C83.4686 147.65 100.164 147.27 116.314 146.9C133.269 146.51 150.799 146.11 158.564 146.11C165.283 146.102 171.724 143.429 176.475 138.677C181.225 133.926 183.897 127.484 183.904 120.765C183.905 114.872 181.852 109.163 178.097 104.62C174.343 100.078 169.122 96.9872 163.334 95.8798C163.007 95.8176 162.697 95.6859 162.425 95.4934C162.154 95.301 161.927 95.0524 161.76 94.7645C161.593 94.4766 161.49 94.1562 161.458 93.8249C161.426 93.4937 161.465 93.1594 161.574 92.8448C162.876 89.0284 163.249 84.9566 162.663 80.967C162.076 76.9775 160.547 73.1852 158.203 69.9047C155.858 66.6242 152.764 63.95 149.179 62.104C145.594 60.2579 141.621 59.2932 137.589 59.2898C133.703 59.2802 129.868 60.1693 126.383 61.8875C122.897 63.6058 119.857 66.1067 117.499 69.1948C117.255 69.5163 116.931 69.7685 116.56 69.9264C116.188 70.0842 115.782 70.1423 115.382 70.0948C114.981 70.0473 114.6 69.8959 114.275 69.6556C113.951 69.4153 113.696 69.0944 113.534 68.7248C110.001 60.869 104.275 54.1998 97.0452 49.5178C89.815 44.8358 81.3873 42.3399 72.7736 42.3298Z" fill="#FC0000" stroke="#FC0000" stroke-width="3"/>
<path d="M89.2909 107.57C89.4028 107.569 89.5133 107.594 89.6146 107.641C89.7158 107.689 89.8051 107.758 89.8759 107.845L91.4909 109.585C90.2587 111.003 88.7337 112.138 87.0209 112.91C85.2709 113.703 83.1543 114.1 80.6709 114.1C78.5209 114.1 76.5676 113.727 74.8109 112.98C73.1046 112.265 71.5704 111.195 70.3109 109.84C69.0282 108.436 68.0449 106.786 67.4209 104.99C66.7166 102.995 66.3696 100.891 66.3959 98.7749C66.3959 96.5149 66.7526 94.4415 67.4659 92.5549C68.1016 90.7552 69.1116 89.1107 70.4294 87.73C71.7472 86.3493 73.3428 85.2637 75.1109 84.5449C77.0064 83.7838 79.0335 83.4049 81.0759 83.4299C83.2093 83.4299 85.0943 83.7715 86.7309 84.4549C88.3609 85.1349 89.7976 86.0615 91.0409 87.2349L89.7009 89.0999C89.6218 89.2392 89.5103 89.3576 89.3759 89.4449C89.2138 89.5391 89.0284 89.5859 88.8409 89.5799C88.5876 89.5799 88.2809 89.4432 87.9209 89.1699C86.8377 88.3425 85.6102 87.7237 84.3009 87.3449C83.2457 87.0472 82.152 86.9091 81.0559 86.9349C79.5093 86.9349 78.0909 87.2049 76.8009 87.7449C75.5368 88.2684 74.4046 89.0659 73.4859 90.0799C72.5593 91.0965 71.8376 92.3382 71.3209 93.8049C70.7875 95.4032 70.5272 97.08 70.5509 98.7649C70.5509 100.632 70.8193 102.298 71.3559 103.765C71.8893 105.232 72.6226 106.47 73.5559 107.48C74.9559 108.995 75.5759 109.265 76.8409 109.795C78.1076 110.325 79.4726 110.59 80.9359 110.59C81.8293 110.59 82.6343 110.537 83.3509 110.43C84.0293 110.335 84.6961 110.171 85.3409 109.94C85.9356 109.722 86.5042 109.439 87.0359 109.095C87.5593 108.748 88.0809 108.34 88.6009 107.87C88.7831 107.684 89.0306 107.576 89.2909 107.57ZM123.336 98.7799C123.336 101.023 122.979 103.087 122.266 104.97C121.592 106.769 120.567 108.416 119.251 109.815C117.932 111.184 116.339 112.259 114.576 112.97C112.653 113.728 110.602 114.107 108.536 114.085C106.329 114.085 104.319 113.713 102.506 112.97C100.746 112.258 99.1568 111.183 97.8409 109.815C96.5139 108.424 95.4876 106.775 94.8259 104.97C94.0988 102.988 93.7363 100.891 93.7559 98.7799C93.7559 96.5332 94.1126 94.4699 94.8259 92.5899C95.5426 90.7132 96.5476 89.0949 97.8409 87.7349C99.1554 86.3615 100.745 85.2813 102.506 84.5649C104.421 83.7902 106.471 83.406 108.536 83.4349C110.746 83.4349 112.759 83.8115 114.576 84.5649C116.393 85.3182 117.951 86.3749 119.251 87.7349C120.551 89.0949 121.556 90.7132 122.266 92.5899C122.979 94.4699 123.336 96.5332 123.336 98.7799ZM119.166 98.7799C119.166 96.9332 118.914 95.2799 118.411 93.8199C117.962 92.4479 117.235 91.1833 116.276 90.1049C115.347 89.0867 114.203 88.2889 112.926 87.7699C111.527 87.211 110.032 86.9324 108.526 86.9499C106.923 86.9499 105.464 87.2232 104.151 87.7699C102.872 88.2883 101.726 89.0861 100.796 90.1049C99.8659 91.1149 99.1493 92.3532 98.6459 93.8199C98.1459 95.2832 97.8942 96.9365 97.8909 98.7799C97.8909 100.62 98.1426 102.27 98.6459 103.73C99.1459 105.183 99.8626 106.418 100.796 107.435C101.723 108.448 102.841 109.222 104.151 109.755C105.464 110.295 106.923 110.565 108.526 110.565C110.143 110.565 111.609 110.295 112.926 109.755C114.236 109.222 115.353 108.448 116.276 107.435C117.196 106.418 117.908 105.183 118.411 103.73C118.918 102.27 119.169 100.62 119.166 98.7799ZM137.346 125.65C137.579 125.65 137.768 125.72 137.911 125.86C137.979 125.931 138.033 126.015 138.069 126.106C138.105 126.198 138.123 126.296 138.121 126.395V127.715H126.451V126.97C126.459 126.62 126.602 126.286 126.851 126.04L132.451 120.415C132.914 119.942 133.338 119.487 133.721 119.05C134.101 118.617 134.426 118.178 134.696 117.735C134.963 117.295 135.169 116.85 135.316 116.4C135.46 115.93 135.534 115.441 135.536 114.95C135.543 114.49 135.46 114.033 135.291 113.605C135.147 113.241 134.923 112.915 134.636 112.65C134.348 112.385 134.005 112.189 133.631 112.075C132.829 111.819 131.966 111.822 131.166 112.085C130.452 112.327 129.844 112.809 129.446 113.45C129.252 113.775 129.112 114.13 129.031 114.5C128.934 114.783 128.803 114.973 128.636 115.07C128.469 115.167 128.234 115.193 127.931 115.15L126.796 114.95C126.909 114.157 127.133 113.452 127.466 112.835C127.793 112.225 128.208 111.71 128.711 111.29C129.211 110.88 129.781 110.565 130.421 110.345C131.064 110.132 131.761 110.025 132.511 110.025C133.251 110.025 133.941 110.133 134.581 110.35C135.196 110.541 135.764 110.863 136.244 111.292C136.725 111.722 137.107 112.25 137.366 112.84C137.642 113.487 137.778 114.186 137.766 114.89C137.766 115.543 137.669 116.147 137.476 116.7C137.281 117.261 137.016 117.796 136.686 118.29C136.353 118.797 135.968 119.29 135.531 119.77C135.094 120.25 134.633 120.735 134.146 121.225L129.531 125.93C129.858 125.843 130.188 125.773 130.521 125.72C130.854 125.667 131.176 125.64 131.486 125.64H137.346V125.65Z" fill="#FC0000"/>
</svg>
