<svg width="105" height="50" viewBox="0 0 105 50" fill="none" xmlns="http://www.w3.org/2000/svg">
<path d="M9.40704 12.6H13.307C17.507 13.6 20.507 16.3 20.507 21.3C20.507 26.9 16.307 30.4 10.907 30.4C4.50704 30.4 0.807037 25.5 0.807037 18.9C0.807037 8.10001 10.307 0.200012 23.807 0.300011V4.40001C16.707 4.90001 10.107 7.40001 9.40704 12.6ZM32.007 12.6H35.807C40.007 13.6 43.107 16.3 43.107 21.3C43.107 26.9 38.807 30.4 33.507 30.4C27.007 30.4 23.307 25.5 23.307 18.9C23.307 8.10001 32.907 0.200012 46.407 0.300011V4.40001C39.307 4.90001 32.607 7.40001 32.007 12.6Z" fill="black" fill-opacity="0.52"/>
<path d="M95.593 37.4L91.693 37.4C87.493 36.4 84.493 33.7 84.493 28.7C84.493 23.1 88.693 19.6 94.093 19.6C100.493 19.6 104.193 24.5 104.193 31.1C104.193 41.9 94.693 49.8 81.193 49.7L81.193 45.6C88.293 45.1 94.893 42.6 95.593 37.4ZM72.993 37.4L69.193 37.4C64.993 36.4 61.893 33.7 61.893 28.7C61.893 23.1 66.193 19.6 71.493 19.6C77.993 19.6 81.693 24.5 81.693 31.1C81.693 41.9 72.093 49.8 58.593 49.7L58.593 45.6C65.693 45.1 72.393 42.6 72.993 37.4Z" fill="black" fill-opacity="0.52"/>
</svg>
