<svg width="36" height="80" viewBox="0 0 36 80" fill="none" xmlns="http://www.w3.org/2000/svg">
<path fill-rule="evenodd" clip-rule="evenodd" d="M35.5513 49.9199C35.5513 50.6682 34.9585 51.2677 34.2228 51.2677H26.2428C25.5114 51.2677 24.9143 50.6682 24.9143 49.9199C24.9143 49.1848 25.5071 48.5853 26.2428 48.5853H34.2228C34.9585 48.5853 35.5513 49.1848 35.5513 49.9199ZM24.9185 39.9296C24.9185 39.1945 25.5114 38.5819 26.247 38.5819H30.2371C30.9684 38.5819 31.5656 39.1945 31.5656 39.9296C31.5656 40.6779 30.9727 41.2774 30.2371 41.2774H26.247C25.5156 41.2774 24.9185 40.6779 24.9185 39.9296ZM35.5513 29.9437C35.5513 30.6789 34.9585 31.2784 34.2228 31.2784H26.2428C25.5114 31.2784 24.9143 30.6789 24.9143 29.9437C24.9143 29.1954 25.5071 28.596 26.2428 28.596H34.2228C34.9585 28.6004 35.5513 29.1999 35.5513 29.9437ZM24.9185 19.9491C24.9185 19.2139 25.5114 18.6013 26.247 18.6013H30.2371C30.9684 18.6013 31.5656 19.214 31.5656 19.9491C31.5656 20.6974 30.9727 21.2968 30.2371 21.2968H26.247C25.5156 21.2925 24.9185 20.693 24.9185 19.9491ZM24.9185 9.96317C24.9185 9.21489 25.5114 8.61541 26.247 8.61541H34.227C34.9584 8.61541 35.5556 9.21492 35.5556 9.96317C35.5556 10.6983 34.9627 11.2978 34.227 11.2978H26.247C25.5156 11.2978 24.9185 10.6983 24.9185 9.96317ZM13.225 68.9291C11.9744 68.9291 10.953 67.8877 10.953 66.623C10.953 65.3584 11.9744 64.3256 13.225 64.3256C14.48 64.3256 15.5014 65.354 15.5014 66.623C15.5014 67.8876 14.4801 68.9291 13.225 68.9291ZM14.5536 61.8271V11.4903C14.5536 10.742 13.9607 10.1425 13.225 10.1425C12.4937 10.1425 11.8965 10.742 11.8965 11.4903V61.8271C9.82359 62.4134 8.29597 64.3389 8.29597 66.623C8.29597 69.3711 10.5074 71.6115 13.225 71.6115C15.9427 71.6115 18.1541 69.3711 18.1541 66.623C18.1541 64.3387 16.6265 62.4134 14.5536 61.8271ZM13.225 77.3087C19.0543 77.3087 23.793 72.5128 23.793 66.6227C23.793 62.8113 21.7548 59.2624 18.4787 57.3501C18.0676 57.1138 17.8123 56.6719 17.8123 56.1861L17.8166 7.32916C17.8166 4.77367 15.7567 2.6907 13.2294 2.6907C10.6977 2.6907 8.64222 4.77367 8.64222 7.32916V56.1861C8.64222 56.6718 8.39122 57.1138 7.97578 57.3501C4.69984 59.2624 2.6615 62.8113 2.6615 66.6227C2.65717 72.5127 7.40004 77.3087 13.225 77.3087ZM20.4694 55.4383V7.32972C20.4694 3.2907 17.2194 0 13.225 0C9.23066 0 5.98065 3.2907 5.98065 7.32972V55.4383C2.27188 57.8932 0 62.1116 0 66.6232C0 73.9967 5.93313 80 13.2256 80C20.5181 80 26.4512 73.9962 26.4512 66.6232C26.4512 62.1117 24.1781 57.902 20.4694 55.4383Z" fill="#EF7908"/>
</svg>
