<svg width="45" height="79" viewBox="0 0 45 79" fill="none" xmlns="http://www.w3.org/2000/svg">
<g clip-path="url(#clip0_11124_100)">
<path fill-rule="evenodd" clip-rule="evenodd" d="M18.451 51.7371C8.227 49.5975 0.382812 39.0743 0.382812 26.35C0.382812 12.0686 10.2579 0.565308 22.2894 0.565308C34.3217 0.565308 44.1959 12.0686 44.1959 26.35C44.1959 39.112 36.3105 49.6594 26.0419 51.7573L28.4694 73.1768C28.6133 74.4181 28.1784 75.6559 27.2985 76.5371L26.689 77.1474C24.234 79.6059 20.2518 79.6059 17.7965 77.1474C16.533 75.8787 15.9133 74.1026 16.1118 72.3196L18.451 51.7371ZM23.7787 52.0766C23.2857 52.1143 22.7892 52.1349 22.2893 52.1349C21.762 52.1349 21.2313 52.1109 20.7108 52.0697L18.3825 72.5772C18.2559 73.6676 18.6393 74.7546 19.4132 75.5329C20.9745 77.0964 23.5117 77.0964 25.0764 75.5329L25.6859 74.9226C26.0762 74.5317 26.2646 73.9831 26.2029 73.4345L23.7787 52.0766ZM22.2893 2.84904C11.4044 2.84904 2.66963 13.4271 2.66963 26.3498C2.66963 39.2698 11.4042 49.8479 22.2893 49.8479C33.1812 49.8479 41.916 39.2698 41.916 26.3498C41.916 13.4263 33.1814 2.84904 22.2893 2.84904ZM22.2893 5.44121C31.7227 5.44121 39.5116 14.7536 39.5116 26.3499C39.5116 37.9462 31.722 47.2585 22.2893 47.2585C12.8559 47.2585 5.07311 37.9462 5.07311 26.3499C5.07311 14.7536 12.8558 5.44121 22.2893 5.44121ZM22.2893 7.72826C13.9758 7.72826 7.35387 16.1289 7.35387 26.3503C7.35387 36.5718 13.9759 44.9724 22.2893 44.9724C30.6027 44.9724 37.2247 36.5718 37.2247 26.3503C37.2247 16.1289 30.6027 7.72826 22.2893 7.72826ZM29.9111 27.602C30.4247 27.2386 31.1369 27.362 31.4998 27.8798C31.8594 28.3941 31.7395 29.1072 31.2225 29.4707L18.8106 38.2176C18.2936 38.5811 17.5815 38.4576 17.2185 37.9433C16.859 37.4256 16.9788 36.7124 17.4958 36.3489L29.9111 27.602ZM29.8563 18.8928C30.3528 18.5019 31.0718 18.5842 31.4621 19.0814C31.8525 19.5751 31.7669 20.2952 31.2772 20.686L14.722 33.8079C14.2255 34.1988 13.5133 34.1131 13.123 33.6194C12.7258 33.1256 12.8114 32.4056 13.3079 32.0147L29.8563 18.8928ZM25.7714 14.4799C26.2851 14.1165 27.0006 14.2434 27.3602 14.7577C27.7231 15.2754 27.5999 15.9886 27.0828 16.3521L14.6745 25.099C14.1575 25.4624 13.4453 25.3355 13.0823 24.8212C12.7194 24.3035 12.8461 23.5903 13.3563 23.2268L25.7714 14.4799Z" fill="#646464"/>
</g>
<defs>
<clipPath id="clip0_11124_100">
<rect width="45" height="79" fill="white"/>
</clipPath>
</defs>
</svg>
