<svg width="59" height="59" viewBox="0 0 59 59" fill="none" xmlns="http://www.w3.org/2000/svg">
<path d="M10.1363 50.6946C15.3712 55.2804 22.124 57.8007 29.1159 57.8007C30.8728 57.8007 32.5969 57.6441 34.3029 57.328C39.3941 56.3972 44.1681 54.128 48.0951 50.6946C54.2579 45.3377 57.7841 37.614 57.7841 29.5C57.7841 13.8991 44.9168 1.19666 29.1132 1.19666C13.3127 1.19666 0.445312 13.8991 0.445312 29.5C0.445312 37.6163 3.97382 45.3377 10.1363 50.6946ZM26.8493 54.5565C26.6099 54.5417 26.3555 54.4944 26.116 54.4619C25.6222 54.3999 25.1104 54.3526 24.6165 54.2581C24.3292 54.2108 24.0418 54.131 23.7694 54.069C23.3235 53.9744 22.8745 53.8798 22.4285 53.7705C22.1262 53.6907 21.8389 53.5814 21.5516 53.5016C21.1355 53.3746 20.7045 53.2505 20.3065 53.0909C20.0042 52.9816 19.7168 52.8546 19.4295 52.7275C19.0314 52.5709 18.6303 52.4113 18.2472 52.2222C17.9449 52.0804 17.6576 51.9238 17.3702 51.782C17.0021 51.5929 16.619 51.4038 16.2688 51.1822C15.9814 51.0079 15.6941 50.8365 15.4068 50.6474C15.0566 50.4258 14.7214 50.2071 14.3861 49.9707C14.0988 49.7669 13.8264 49.56 13.5571 49.3414C13.3506 49.1848 13.159 49.0252 12.9495 48.8539C14.4341 41.2898 21.2194 35.6961 29.1208 35.6787H29.1538H29.1867C37.0735 35.6935 43.8739 41.2898 45.3581 48.8539C45.1665 49.0105 44.96 49.17 44.7684 49.3266C44.4811 49.5482 44.2087 49.7669 43.9213 49.956C43.5861 50.1924 43.2509 50.3962 42.9157 50.6178C42.6283 50.8069 42.341 50.996 42.0387 51.1526C41.6885 51.3565 41.3204 51.5456 40.9522 51.7347C40.6499 51.8913 40.3626 52.0509 40.0572 52.1927C39.6741 52.367 39.291 52.5236 38.8929 52.6802C38.5906 52.8073 38.3033 52.9314 37.998 53.0437C37.5819 53.1855 37.1689 53.3125 36.7528 53.4366C36.4505 53.5312 36.1632 53.6257 35.8579 53.7055C35.4119 53.8326 34.9629 53.9094 34.517 54.0039C34.2296 54.066 33.9573 54.1458 33.6699 54.193C33.176 54.2876 32.6642 54.3349 32.1704 54.3969C31.9309 54.4294 31.6765 54.4767 31.4371 54.4915C30.6858 54.5535 29.9376 54.586 29.1713 54.586C28.3961 54.589 27.5976 54.6185 26.8493 54.5565ZM20.5579 24.0958C20.5579 19.4303 24.389 15.6483 29.1152 15.6483C33.8413 15.6483 37.6725 19.4303 37.6725 24.0958C37.6725 28.7436 33.8413 32.526 29.1328 32.5434H29.1178H29.1029C24.3888 32.5257 20.5579 28.7437 20.5579 24.0958ZM29.1152 4.34975C43.1618 4.34975 54.5924 15.6339 54.5924 29.5004C54.5924 35.7881 52.198 41.8072 47.9687 46.4099C46.1639 40.4532 41.5366 35.7582 35.709 33.6932C38.8218 31.5983 40.8661 28.0821 40.8661 24.111C40.8661 17.714 35.5983 12.5137 29.1182 12.5137C22.6382 12.5137 17.3703 17.714 17.3703 24.111C17.3703 28.0969 19.4147 31.613 22.5275 33.6932C16.6999 35.7586 12.0875 40.4536 10.2677 46.4099C6.03254 41.8065 3.63805 35.7877 3.63805 29.5004C3.63805 15.6339 15.0686 4.34975 29.1152 4.34975Z" fill="#379D2F"/>
</svg>
