<svg width="69" height="47" viewBox="0 0 69 47" fill="none" xmlns="http://www.w3.org/2000/svg">
<path d="M59.9608 7.39098C60.1717 6.28938 59.4725 5.25038 58.4021 5.03938C57.8631 4.93001 57.3319 5.03938 56.8905 5.32844C56.4491 5.6175 56.1522 6.06672 56.0389 6.59014C55.8904 7.34014 52.1795 24.9881 33.9999 24.9881C15.8203 24.9881 12.1209 7.34714 11.9609 6.59714C11.8515 6.06589 11.5507 5.60886 11.1093 5.31594C10.6679 5.02688 10.1406 4.9175 9.60933 5.02688C8.53123 5.24563 7.82023 6.29638 8.03123 7.36668C8.37107 9.07758 9.87103 15.0776 14.8515 20.6287L16.121 22.0389L8.58193 29.578C7.80068 30.3592 7.80068 31.6288 8.58193 32.4061C9.36318 33.1873 10.6717 33.1444 11.41 32.4061L19.2186 24.5975L20.5584 25.4061C23.4295 27.1444 26.6873 28.2655 30.2498 28.7264L31.9881 28.9568V38.9958C31.9881 40.0974 32.8866 40.9958 33.9881 40.9958C35.0897 40.9958 35.9881 40.0974 35.9881 38.9958V28.9568L37.7264 28.7264C41.285 28.2654 44.5467 27.1483 47.4178 25.4061L48.7576 24.5975L56.5662 32.4061C57.3045 33.1444 58.656 33.1444 59.3943 32.4061C60.1756 31.6248 60.1756 30.3553 59.3943 29.578L51.8552 22.0389L53.1247 20.6287C58.1052 15.0779 59.6052 9.08968 59.945 7.37868L59.9608 7.39098Z" fill="#0B438C"/>
</svg>
