<svg width="79" height="47" viewBox="0 0 79 47" fill="none" xmlns="http://www.w3.org/2000/svg">
<path d="M6.33265 30.0979C5.37128 30.0979 4.58789 29.3314 4.58789 28.3843C4.58789 27.4401 5.36824 26.6707 6.33265 26.6707H12.3087C12.7152 26.6707 13.0802 26.5512 13.368 26.3473C13.6588 26.1403 13.8843 25.8314 14.0059 25.4526L15.9228 19.5135C16.2729 18.4324 16.9435 17.5319 17.8218 16.8995C18.6912 16.27 19.7624 15.9116 20.9225 15.9087C22.0768 15.9029 23.1509 16.2526 24.0292 16.8762C24.9135 17.5028 25.59 18.3946 25.949 19.4728L26.8867 22.2996C27.0172 22.6901 27.2605 23.0077 27.5691 23.2118C27.8807 23.4187 28.2724 23.5265 28.6937 23.5032C29.1121 23.4799 29.4831 23.3254 29.7649 23.0835C30.0468 22.8417 30.2516 22.5007 30.3287 22.0956L33.299 7.22424C33.5423 6.00903 34.1951 4.97159 35.1001 4.22847C36.0021 3.49409 37.1653 3.05989 38.4323 3.05116C39.6904 3.04242 40.8536 3.46206 41.7704 4.18476C42.6903 4.91039 43.3549 5.94203 43.6161 7.15433L47.8355 26.7436H77.2113C78.1757 26.7436 78.9561 27.51 78.9561 28.4572C78.9561 29.4014 78.1758 30.1708 77.2113 30.1708H62.5561C62.1377 30.1708 61.7579 30.299 61.4612 30.5205C61.1645 30.7419 60.9419 31.0654 60.8351 31.4559L57.8234 42.3726C57.5029 43.5354 56.8056 44.5087 55.8828 45.1848C54.963 45.855 53.8175 46.228 52.5921 46.1931C51.3637 46.1581 50.2391 45.7239 49.3578 45.0041L49.3608 44.9982C48.4765 44.2726 47.8416 43.2672 47.5864 42.0957L40.2099 7.85138C40.1208 7.44048 39.8983 7.0908 39.5897 6.84595C39.2811 6.6011 38.8805 6.45837 38.4444 6.46419C38.02 6.46711 37.6254 6.61573 37.3198 6.86635C37.0171 7.11114 36.7975 7.46376 36.7144 7.8805L33.7442 22.7519C33.5127 23.9147 32.9044 24.9171 32.0499 25.6515C31.1953 26.3859 30.1004 26.8434 28.8927 26.9163C27.691 26.9891 26.5516 26.6627 25.6139 26.0362C24.6733 25.4067 23.9434 24.4829 23.5695 23.3581L22.6318 20.5313C22.5072 20.1553 22.2817 19.8523 21.9909 19.6483C21.6942 19.4414 21.3292 19.3219 20.9257 19.3248C20.5281 19.3277 20.1631 19.4472 19.8664 19.6599C19.5786 19.8668 19.3561 20.1728 19.2344 20.5487L17.3176 26.4878C16.9675 27.5719 16.2939 28.4724 15.4126 29.1077C14.5313 29.7401 13.4543 30.1014 12.294 30.1014H6.31798L6.33265 30.0979Z" fill="#EF7908"/>
</svg>
