<svg width="78" height="79" viewBox="0 0 78 79" fill="none" xmlns="http://www.w3.org/2000/svg">
<circle cx="39" cy="39" r="39" fill="#E7E3D5"/>
<path fill-rule="evenodd" clip-rule="evenodd" d="M39.4999 17C39.7872 17 40.0628 17.1141 40.2659 17.3173C40.4691 17.5205 40.5832 17.796 40.5832 18.0833V18.157C43.6144 18.4733 45.9273 19.7766 47.4332 21.4352C48.4688 22.5759 49.1546 23.9355 49.3702 25.2615L49.4872 25.3514C50.7048 26.295 51.5986 27.439 51.3862 28.7509C51.1815 30.0184 50.0364 30.7898 48.9704 31.261C48.701 31.3803 48.4262 31.4873 48.1471 31.5817C48.1601 31.7745 48.1666 31.9695 48.1666 32.1667C48.166 33.3291 47.9317 34.4795 47.4774 35.5495C47.0232 36.6195 46.3583 37.5872 45.5224 38.395C44.6865 39.2027 43.6966 39.8341 42.6117 40.2515C41.5268 40.6688 40.369 40.8637 39.2072 40.8244C38.0455 40.7852 36.9035 40.5126 35.8492 40.023C34.795 39.5333 33.85 38.8366 33.0705 37.9742C32.291 37.1119 31.693 36.1015 31.312 35.0033C30.931 33.9051 30.7748 32.7415 30.8527 31.5817C30.5736 31.4873 30.2989 31.3803 30.0294 31.261C28.9634 30.7898 27.8183 30.0184 27.6136 28.7509C27.4012 27.439 28.295 26.295 29.5127 25.3514L29.6502 25.2453C29.678 25.0728 29.7127 24.9014 29.7542 24.7318C30.0399 23.6052 30.5609 22.5518 31.2828 21.641C32.7345 19.7907 35.1102 18.2957 38.4166 18.105V18.0833C38.4166 17.796 38.5307 17.5205 38.7339 17.3173C38.937 17.1141 39.2126 17 39.4999 17ZM47.7982 28.31C48.0199 28.3903 48.2617 28.396 48.4869 28.3264C48.7121 28.2568 48.9085 28.1156 49.0462 27.9243C49.2597 28.2222 49.2521 28.3804 49.2477 28.4053C49.2337 28.492 49.0679 28.8495 48.094 29.2807C46.9576 29.7833 45.2481 30.1473 43.2872 30.3532C43.2407 29.38 42.8213 28.4622 42.1162 27.79C41.411 27.1177 40.4741 26.7427 39.4999 26.7427C38.5257 26.7427 37.5888 27.1177 36.8837 27.79C36.1785 28.4622 35.7591 29.38 35.7126 30.3532C33.7517 30.1473 32.0422 29.7833 30.9058 29.2807C29.9319 28.8495 29.7662 28.492 29.7521 28.4053C29.7477 28.3804 29.7402 28.2233 29.9536 27.9243C30.1065 28.1375 30.3316 28.288 30.5871 28.3477C30.8425 28.4075 31.111 28.3725 31.3426 28.2493C31.5743 28.126 31.7533 27.9229 31.8465 27.6777C31.9397 27.4324 31.9407 27.1617 31.8494 26.9158C31.7194 26.5648 31.6793 25.983 31.8592 25.2442C32.072 24.4181 32.4566 23.6462 32.988 22.9789L32.9999 22.9638V25.125C32.9999 25.4123 33.114 25.6879 33.3172 25.891C33.5204 26.0942 33.7959 26.2083 34.0832 26.2083C34.3706 26.2083 34.6461 26.0942 34.8493 25.891C35.0524 25.6879 35.1666 25.4123 35.1666 25.125V21.1665C36.0571 20.6952 37.135 20.3659 38.4166 20.2749V22.9583C38.4166 23.2457 38.5307 23.5212 38.7339 23.7244C38.937 23.9275 39.2126 24.0417 39.4999 24.0417C39.7872 24.0417 40.0628 23.9275 40.2659 23.7244C40.4691 23.5212 40.5832 23.2457 40.5832 22.9583V20.3378C41.8507 20.497 42.9319 20.8599 43.8332 21.3452V25.125C43.8332 25.4123 43.9474 25.6879 44.1505 25.891C44.3537 26.0942 44.6293 26.2083 44.9166 26.2083C45.2039 26.2083 45.4794 26.0942 45.6826 25.891C45.8858 25.6879 45.9999 25.4123 45.9999 25.125V23.0873C47.2089 24.5248 47.4646 26.0458 47.1482 26.9233C47.0507 27.1934 47.0643 27.4912 47.1862 27.7512C47.3081 28.0112 47.5282 28.2122 47.7982 28.31ZM36.7558 33.1579C35.5022 33.0783 34.2546 32.9209 33.0205 32.6867C33.1505 34.3159 33.8895 35.8364 35.0902 36.9452C36.291 38.054 37.8655 38.6698 39.4999 38.6698C41.1343 38.6698 42.7088 38.054 43.9096 36.9452C45.1104 35.8364 45.8494 34.3159 45.9793 32.6867C44.831 32.912 43.5592 33.068 42.244 33.1579C41.8899 33.5293 41.4642 33.825 40.9925 34.027C40.5208 34.2291 40.013 34.3333 39.4999 34.3333C38.9868 34.3333 38.479 34.2291 38.0073 34.027C37.5356 33.825 37.1099 33.5293 36.7558 33.1579ZM41.1249 30.5417C41.1249 30.9726 40.9537 31.386 40.649 31.6907C40.3442 31.9955 39.9309 32.1667 39.4999 32.1667C39.0689 32.1667 38.6556 31.9955 38.3509 31.6907C38.0461 31.386 37.8749 30.9726 37.8749 30.5417C37.8749 30.1107 38.0461 29.6974 38.3509 29.3926C38.6556 29.0879 39.0689 28.9167 39.4999 28.9167C39.9309 28.9167 40.3442 29.0879 40.649 29.3926C40.9537 29.6974 41.1249 30.1107 41.1249 30.5417Z" fill="#FC0000"/>
<path d="M39.4999 52.7498C40.0746 52.7498 40.6257 52.5216 41.032 52.1152C41.4383 51.7089 41.6666 51.1578 41.6666 50.5832C41.6666 50.0085 41.4383 49.4574 41.032 49.0511C40.6257 48.6448 40.0746 48.4165 39.4999 48.4165C38.9253 48.4165 38.3742 48.6448 37.9679 49.0511C37.5615 49.4574 37.3333 50.0085 37.3333 50.5832C37.3333 51.1578 37.5615 51.7089 37.9679 52.1152C38.3742 52.5216 38.9253 52.7498 39.4999 52.7498Z" fill="#FC0000"/>
<path fill-rule="evenodd" clip-rule="evenodd" d="M34.6618 41.2666L38.4167 44.0833H40.5833L44.3382 41.2666C50.9411 42.3239 59 45.2641 59 49.4999V55.9999H20V49.4999C20 45.2641 28.0589 42.3239 34.6618 41.2666ZM41.3059 46.2499L44.8918 43.56C45.9783 43.7594 47.0844 44.0096 48.1667 44.3032V53.8333H50.3333V44.9662C51.0917 45.2262 51.8186 45.5089 52.5 45.8134V53.8333H26.5V45.8134C27.1814 45.51 27.9083 45.2262 28.6667 44.9662V53.8333H30.8333V44.3032C31.9156 44.0096 33.0217 43.7594 34.1083 43.56L37.6941 46.2499H41.3059ZM56.0804 48.0808C56.6914 48.7134 56.8333 49.1804 56.8333 49.4999V53.8333H54.6667V46.9606C55.2517 47.3354 55.724 47.7124 56.0804 48.0819M22.9196 48.0819C23.2771 47.7135 23.7494 47.3365 24.3333 46.9617V53.8333H22.1667V49.4999C22.1667 49.1804 22.3075 48.7134 22.9196 48.0808" fill="#FC0000"/>
</svg>
