<svg width="78" height="78" viewBox="0 0 78 78" fill="none" xmlns="http://www.w3.org/2000/svg">
<circle cx="39" cy="39" r="39" fill="#E7E3D5"/>
<path fill-rule="evenodd" clip-rule="evenodd" d="M23.375 33.25C25.0989 33.25 26.7522 32.5652 27.9712 31.3462C29.1902 30.1272 29.875 28.4739 29.875 26.75C29.875 25.0261 29.1902 23.3728 27.9712 22.1538C26.7522 20.9348 25.0989 20.25 23.375 20.25C21.6511 20.25 19.9978 20.9348 18.7788 22.1538C17.5598 23.3728 16.875 25.0261 16.875 26.75C16.875 28.4739 17.5598 30.1272 18.7788 31.3462C19.9978 32.5652 21.6511 33.25 23.375 33.25ZM23.375 36.5C24.6554 36.5 25.9232 36.2478 27.1062 35.7578C28.2891 35.2678 29.3639 34.5497 30.2693 33.6443C31.1747 32.7389 31.8928 31.6641 32.3828 30.4812C32.8728 29.2982 33.125 28.0304 33.125 26.75C33.125 25.4696 32.8728 24.2018 32.3828 23.0188C31.8928 21.8359 31.1747 20.7611 30.2693 19.8557C29.3639 18.9503 28.2891 18.2322 27.1062 17.7422C25.9232 17.2522 24.6554 17 23.375 17C20.7891 17 18.3092 18.0272 16.4807 19.8557C14.6522 21.6842 13.625 24.1641 13.625 26.75C13.625 29.3359 14.6522 31.8158 16.4807 33.6443C18.3092 35.4728 20.7891 36.5 23.375 36.5Z" fill="#FC0000"/>
<path fill-rule="evenodd" clip-rule="evenodd" d="M19.6505 32.9119C19.8018 33.0628 19.9219 33.2421 20.0038 33.4396C20.0857 33.637 20.1279 33.8486 20.1279 34.0624C20.1279 34.2761 20.0857 34.4878 20.0038 34.6852C19.9219 34.8826 19.8018 35.0619 19.6505 35.2129L18.552 36.3081C16.438 38.4227 15.2503 41.2903 15.25 44.2804V50.3124C15.25 50.7434 15.0788 51.1567 14.774 51.4614C14.4693 51.7662 14.056 51.9374 13.625 51.9374C13.194 51.9374 12.7807 51.7662 12.476 51.4614C12.1712 51.1567 12 50.7434 12 50.3124V44.2804C12.0005 40.4284 13.5307 36.7343 16.2543 34.0104L17.3495 32.9119C17.5004 32.7605 17.6798 32.6405 17.8772 32.5586C18.0746 32.4766 18.2863 32.4345 18.5 32.4345C18.7137 32.4345 18.9254 32.4766 19.1228 32.5586C19.3202 32.6405 19.4996 32.7605 19.6505 32.9119ZM57.9745 31.9369C57.8232 32.0878 57.7031 32.2671 57.6212 32.4646C57.5393 32.662 57.4971 32.8736 57.4971 33.0874C57.4971 33.3011 57.5393 33.5128 57.6212 33.7102C57.7031 33.9076 57.8232 34.0869 57.9745 34.2379L59.073 35.3331C61.187 37.4477 62.3747 40.3153 62.375 43.3054V50.3124C62.375 50.7434 62.5462 51.1567 62.851 51.4614C63.1557 51.7662 63.569 51.9374 64 51.9374C64.431 51.9374 64.8443 51.7662 65.1491 51.4614C65.4538 51.1567 65.625 50.7434 65.625 50.3124V43.3054C65.6245 39.4534 64.0943 35.7593 61.3708 33.0354L60.2755 31.9369C60.1246 31.7855 59.9452 31.6655 59.7478 31.5836C59.5504 31.5016 59.3387 31.4595 59.125 31.4595C58.9113 31.4595 58.6996 31.5016 58.5022 31.5836C58.3048 31.6655 58.1255 31.7855 57.9745 31.9369Z" fill="#FC0000"/>
<path fill-rule="evenodd" clip-rule="evenodd" d="M52.625 33.25C50.9011 33.25 49.2478 32.5652 48.0288 31.3462C46.8098 30.1272 46.125 28.4739 46.125 26.75C46.125 25.0261 46.8098 23.3728 48.0288 22.1538C49.2478 20.9348 50.9011 20.25 52.625 20.25C54.3489 20.25 56.0022 20.9348 57.2212 22.1538C58.4402 23.3728 59.125 25.0261 59.125 26.75C59.125 28.4739 58.4402 30.1272 57.2212 31.3462C56.0022 32.5652 54.3489 33.25 52.625 33.25ZM52.625 36.5C51.3446 36.5 50.0768 36.2478 48.8938 35.7578C47.7109 35.2678 46.6361 34.5497 45.7307 33.6443C44.8253 32.7389 44.1072 31.6641 43.6172 30.4812C43.1272 29.2982 42.875 28.0304 42.875 26.75C42.875 25.4696 43.1272 24.2018 43.6172 23.0188C44.1072 21.8359 44.8253 20.7611 45.7307 19.8557C46.6361 18.9503 47.7109 18.2322 48.8938 17.7422C50.0768 17.2522 51.3446 17 52.625 17C55.2109 17 57.6908 18.0272 59.5193 19.8557C61.3478 21.6842 62.375 24.1641 62.375 26.75C62.375 29.3359 61.3478 31.8158 59.5193 33.6443C57.6908 35.4728 55.2109 36.5 52.625 36.5ZM38 47.0625C35.8451 47.0625 33.7785 47.9185 32.2548 49.4423C30.731 50.966 29.875 53.0326 29.875 55.1875V59.4125C29.875 59.8435 29.7038 60.2568 29.399 60.5615C29.0943 60.8663 28.681 61.0375 28.25 61.0375C27.819 61.0375 27.4057 60.8663 27.101 60.5615C26.7962 60.2568 26.625 59.8435 26.625 59.4125V55.1875C26.625 52.1707 27.8234 49.2774 29.9567 47.1442C32.0899 45.0109 34.9832 43.8125 38 43.8125C41.0168 43.8125 43.9101 45.0109 46.0433 47.1442C48.1766 49.2774 49.375 52.1707 49.375 55.1875V59.4125C49.375 59.8435 49.2038 60.2568 48.899 60.5615C48.5943 60.8663 48.181 61.0375 47.75 61.0375C47.319 61.0375 46.9057 60.8663 46.601 60.5615C46.2962 60.2568 46.125 59.8435 46.125 59.4125V55.1875C46.125 54.1205 45.9148 53.064 45.5065 52.0782C45.0982 51.0924 44.4997 50.1967 43.7452 49.4423C42.9908 48.6878 42.0951 48.0893 41.1093 47.681C40.1235 47.2727 39.067 47.0625 38 47.0625Z" fill="#FC0000"/>
<path fill-rule="evenodd" clip-rule="evenodd" d="M38 42.1875C39.7239 42.1875 41.3772 41.5027 42.5962 40.2837C43.8152 39.0647 44.5 37.4114 44.5 35.6875C44.5 33.9636 43.8152 32.3103 42.5962 31.0913C41.3772 29.8723 39.7239 29.1875 38 29.1875C36.2761 29.1875 34.6228 29.8723 33.4038 31.0913C32.1848 32.3103 31.5 33.9636 31.5 35.6875C31.5 37.4114 32.1848 39.0647 33.4038 40.2837C34.6228 41.5027 36.2761 42.1875 38 42.1875ZM38 45.4375C40.5859 45.4375 43.0658 44.4103 44.8943 42.5818C46.7228 40.7533 47.75 38.2734 47.75 35.6875C47.75 33.1016 46.7228 30.6217 44.8943 28.7932C43.0658 26.9647 40.5859 25.9375 38 25.9375C35.4141 25.9375 32.9342 26.9647 31.1057 28.7932C29.2772 30.6217 28.25 33.1016 28.25 35.6875C28.25 38.2734 29.2772 40.7533 31.1057 42.5818C32.9342 44.4103 35.4141 45.4375 38 45.4375Z" fill="#FC0000"/>
</svg>
