<svg width="78" height="78" viewBox="0 0 78 78" fill="none" xmlns="http://www.w3.org/2000/svg">
<path d="M37.3999 43.1667L25.0145 41.725C24.2811 41.6473 23.811 41.2584 23.604 40.5584C23.3971 39.8584 23.5659 39.2667 24.1103 38.7834L44.4915 20.4917C44.5846 20.3973 44.6922 20.3271 44.8145 20.2813C44.9367 20.2341 45.1131 20.2104 45.3436 20.2104C45.7186 20.2104 46.0145 20.3723 46.2311 20.6959C46.4478 21.0195 46.4499 21.3598 46.2374 21.7167L38.4811 34.8729L50.9457 36.3146C51.679 36.3924 52.1561 36.7743 52.377 37.4604C52.5978 38.1466 52.4353 38.732 51.8895 39.2167L31.5082 57.55C31.4152 57.6431 31.3075 57.7063 31.1853 57.7396C31.0631 57.7729 30.8867 57.7896 30.6561 57.7896C30.2811 57.7896 29.9985 57.6285 29.8082 57.3063C29.6179 56.9841 29.6159 56.657 29.802 56.325L37.3999 43.1667ZM34.8999 51.5354L49.8561 38.2667L35.1228 36.6167L41.1686 26.3959L26.1436 39.7063L40.8249 41.4646L34.8999 51.5354Z" fill="#FC0000"/>
<circle cx="39" cy="39" r="38.5" stroke="#FC0000"/>
</svg>
