<svg width="15" height="15" viewBox="0 0 15 15" fill="none" xmlns="http://www.w3.org/2000/svg">
<path fill-rule="evenodd" clip-rule="evenodd" d="M2.66667 5.70192V4.83325C2.66667 3.63978 3.14077 2.49519 3.98469 1.65127C4.8286 0.807358 5.97319 0.333252 7.16667 0.333252C8.36014 0.333252 9.50473 0.807358 10.3486 1.65127C11.1926 2.49519 11.6667 3.63978 11.6667 4.83325V5.70192C11.8178 5.71214 11.9604 5.72636 12.0947 5.74459C12.6947 5.82458 13.2 5.99792 13.6013 6.39859C14.0027 6.79992 14.1747 7.30525 14.256 7.90525C14.3333 8.48325 14.3333 9.21859 14.3333 10.1299V10.2033C14.3333 11.1146 14.3333 11.8499 14.256 12.4279C14.1747 13.0279 14.0027 13.5333 13.6013 13.9346C13.2 14.3359 12.6947 14.5079 12.0947 14.5893C11.5167 14.6666 10.7813 14.6666 9.87 14.6666H4.46333C3.552 14.6666 2.81667 14.6666 2.23867 14.5893C1.63867 14.5079 1.13333 14.3359 0.732 13.9346C0.330667 13.5333 0.158667 13.0279 0.078 12.4279C-9.93411e-09 11.8499 0 11.1146 0 10.2033V10.1299C0 9.21859 -9.93411e-09 8.48325 0.078 7.90525C0.158 7.30525 0.331333 6.79992 0.732 6.39859C1.13333 5.99725 1.63867 5.82525 2.23867 5.74459C2.37244 5.72636 2.51511 5.71214 2.66667 5.70192ZM3.66667 4.83325C3.66667 3.90499 4.03542 3.01476 4.69179 2.35838C5.34817 1.702 6.23841 1.33325 7.16667 1.33325C8.09492 1.33325 8.98516 1.702 9.64154 2.35838C10.2979 3.01476 10.6667 3.90499 10.6667 4.83325V5.66859C10.4178 5.66681 10.1522 5.66614 9.87 5.66659H4.46333C4.18156 5.66659 3.916 5.66725 3.66667 5.66859V4.83325ZM1.43933 7.10592C1.624 6.92125 1.88267 6.80125 2.37267 6.73525C2.87533 6.66792 3.54333 6.66659 4.5 6.66659H9.83333C10.79 6.66659 11.4573 6.66792 11.9613 6.73525C12.4507 6.80125 12.7093 6.92192 12.894 7.10592C13.0787 7.29059 13.1987 7.54925 13.2647 8.03925C13.332 8.54259 13.3333 9.20992 13.3333 10.1666C13.3333 11.1233 13.332 11.7906 13.2647 12.2946C13.1987 12.7839 13.078 13.0426 12.894 13.2273C12.7093 13.4119 12.4507 13.5319 11.9607 13.5979C11.4573 13.6653 10.79 13.6666 9.83333 13.6666H4.5C3.54333 13.6666 2.87533 13.6653 2.372 13.5979C1.88267 13.5319 1.624 13.4113 1.43933 13.2273C1.25467 13.0426 1.13467 12.7839 1.06867 12.2939C1.00133 11.7906 1 11.1233 1 10.1666C1 9.20992 1.00133 8.54192 1.06867 8.03859C1.13467 7.54925 1.25533 7.29059 1.43933 7.10592Z" fill="#86A8D5"/>
</svg>
