<svg width="15" height="16" viewBox="0 0 15 16" fill="none" xmlns="http://www.w3.org/2000/svg">
<path fill-rule="evenodd" clip-rule="evenodd" d="M3.16667 6.20198V5.33331C3.16667 4.13984 3.64077 2.99525 4.48469 2.15133C5.3286 1.30742 6.47319 0.833313 7.66667 0.833313C8.86014 0.833313 10.0047 1.30742 10.8486 2.15133C11.6926 2.99525 12.1667 4.13984 12.1667 5.33331V6.20198C12.3178 6.2122 12.4604 6.22642 12.5947 6.24465C13.1947 6.32465 13.7 6.49798 14.1013 6.89865C14.5027 7.29998 14.6747 7.80531 14.756 8.40531C14.8333 8.98331 14.8333 9.71865 14.8333 10.63V10.7033C14.8333 11.6146 14.8333 12.35 14.756 12.928C14.6747 13.528 14.5027 14.0333 14.1013 14.4346C13.7 14.836 13.1947 15.008 12.5947 15.0893C12.0167 15.1666 11.2813 15.1666 10.37 15.1666H4.96333C4.052 15.1666 3.31667 15.1666 2.73867 15.0893C2.13867 15.008 1.63333 14.836 1.232 14.4346C0.830667 14.0333 0.658667 13.528 0.578 12.928C0.5 12.35 0.5 11.6146 0.5 10.7033V10.63C0.5 9.71865 0.5 8.98331 0.578 8.40531C0.658 7.80531 0.831333 7.29998 1.232 6.89865C1.63333 6.49731 2.13867 6.32531 2.73867 6.24465C2.87244 6.22642 3.01511 6.2122 3.16667 6.20198ZM4.16667 5.33331C4.16667 4.40506 4.53542 3.51482 5.19179 2.85844C5.84817 2.20206 6.73841 1.83331 7.66667 1.83331C8.59492 1.83331 9.48516 2.20206 10.1415 2.85844C10.7979 3.51482 11.1667 4.40506 11.1667 5.33331V6.16865C10.9178 6.16687 10.6522 6.1662 10.37 6.16665H4.96333C4.68156 6.16665 4.416 6.16731 4.16667 6.16865V5.33331ZM1.93933 7.60598C2.124 7.42131 2.38267 7.30131 2.87267 7.23531C3.37533 7.16798 4.04333 7.16665 5 7.16665H10.3333C11.29 7.16665 11.9573 7.16798 12.4613 7.23531C12.9507 7.30131 13.2093 7.42198 13.394 7.60598C13.5787 7.79065 13.6987 8.04931 13.7647 8.53931C13.832 9.04265 13.8333 9.70998 13.8333 10.6666C13.8333 11.6233 13.832 12.2906 13.7647 12.7946C13.6987 13.284 13.578 13.5426 13.394 13.7273C13.2093 13.912 12.9507 14.032 12.4607 14.098C11.9573 14.1653 11.29 14.1666 10.3333 14.1666H5C4.04333 14.1666 3.37533 14.1653 2.872 14.098C2.38267 14.032 2.124 13.9113 1.93933 13.7273C1.75467 13.5426 1.63467 13.284 1.56867 12.794C1.50133 12.2906 1.5 11.6233 1.5 10.6666C1.5 9.70998 1.50133 9.04198 1.56867 8.53865C1.63467 8.04931 1.75533 7.79065 1.93933 7.60598Z" fill="#74B0FF"/>
</svg>
