<svg width="31" height="31" viewBox="0 0 31 31" fill="none" xmlns="http://www.w3.org/2000/svg">
<path d="M25.1875 14.0469H23.1289V7.26562C23.1289 5.12529 21.3942 3.39062 19.2539 3.39062H11.7461C9.60576 3.39062 7.87109 5.12529 7.87109 7.26562V14.0469H5.8125C5.27666 14.0469 4.84375 14.4798 4.84375 15.0156V26.6406C4.84375 27.1765 5.27666 27.6094 5.8125 27.6094H25.1875C25.7233 27.6094 26.1562 27.1765 26.1562 26.6406V15.0156C26.1562 14.4798 25.7233 14.0469 25.1875 14.0469ZM10.0508 7.26562C10.0508 6.33018 10.8106 5.57031 11.7461 5.57031H19.2539C20.1894 5.57031 20.9492 6.33018 20.9492 7.26562V14.0469H10.0508V7.26562ZM23.9766 25.4297H7.02344V16.2266H23.9766V25.4297ZM14.6523 21.2217V22.8262C14.6523 22.9594 14.7613 23.0684 14.8945 23.0684H16.1055C16.2387 23.0684 16.3477 22.9594 16.3477 22.8262V21.2217C16.5976 21.0423 16.7841 20.7882 16.8804 20.496C16.9767 20.2038 16.9778 19.8886 16.8836 19.5958C16.7893 19.303 16.6046 19.0476 16.356 18.8664C16.1073 18.6852 15.8076 18.5876 15.5 18.5876C15.1924 18.5876 14.8927 18.6852 14.644 18.8664C14.3954 19.0476 14.2107 19.303 14.1164 19.5958C14.0222 19.8886 14.0233 20.2038 14.1196 20.496C14.2159 20.7882 14.4024 21.0423 14.6523 21.2217Z" fill="white"/>
</svg>
