<?xml version="1.0" encoding="UTF-8"?>
<svg id="Capa_2" data-name="Capa 2" xmlns="http://www.w3.org/2000/svg" viewBox="0 0 1718.49 238.81">
  <defs>
    <style>
      .cls-1 {
        fill: #fff;
      }

      .cls-2 {
        fill: none;
        stroke: #fff;
        stroke-miterlimit: 10;
        stroke-width: 3.63px;
      }
    </style>
  </defs>
  <g id="Capa_1-2" data-name="Capa 1">
    <g>
      <g>
        <polyline class="cls-2" points="1.81 72.51 1.81 1.81 72.51 1.81"/>
        <polyline class="cls-2" points="1645.98 1.81 1716.68 1.81 1716.68 72.51"/>
        <g>
          <polyline class="cls-2" points="1716.68 166.3 1716.68 237 1645.98 237"/>
          <polyline class="cls-2" points="72.51 237 1.81 237 1.81 166.3"/>
        </g>
      </g>
      <g>
        <path class="cls-1" d="M64.55,194.86c-3.9,0-7.02-.66-9.39-1.98-2.37-1.32-3.55-3.93-3.55-7.82s1.18-6.71,3.55-8.03c2.36-1.32,5.49-1.98,9.39-1.98h28.16V59.26h-28.16c-3.9,0-7.02-.66-9.39-1.98-2.37-1.32-3.55-3.93-3.55-7.82s1.18-6.71,3.55-8.03c2.36-1.32,5.49-1.98,9.39-1.98h76.35c3.89,0,7.02.66,9.39,1.98,2.36,1.32,3.55,4,3.55,8.03s-1.18,6.5-3.55,7.82c-2.37,1.32-5.5,1.98-9.39,1.98h-28.37v115.78h28.37c3.89,0,7.02.66,9.39,1.98,2.36,1.32,3.55,4,3.55,8.03s-1.18,6.5-3.55,7.82c-2.37,1.32-5.5,1.98-9.39,1.98h-76.35Z"/>
        <path class="cls-1" d="M190.13,49.67c0-3.61.83-6.4,2.5-8.34,1.67-1.95,3.89-2.92,6.68-2.92,3.06,0,5.39.87,6.99,2.61,1.6,1.74,2.88,3.37,3.86,4.9l30.25,53.61,30.25-53.61c.83-1.53,2.09-3.16,3.76-4.9,1.67-1.74,4.03-2.61,7.09-2.61,2.78,0,5.01.97,6.68,2.92,1.67,1.95,2.5,4.73,2.5,8.34v133.3c0,3.9-.66,7.02-1.98,9.39-1.32,2.37-4,3.55-8.03,3.55s-6.5-1.18-7.82-3.55c-1.32-2.36-1.98-5.49-1.98-9.39v-97.01l-17.11,30.25c-1.25,2.23-2.92,4.56-5.01,6.99-2.09,2.43-4.87,3.65-8.34,3.65s-6.26-1.22-8.34-3.65c-2.09-2.43-3.76-4.76-5.01-6.99l-17.11-30.25v97.01c0,3.9-.66,7.02-1.98,9.39-1.32,2.37-3.93,3.55-7.82,3.55s-6.71-1.18-8.03-3.55c-1.32-2.36-1.98-5.49-1.98-9.39V49.67Z"/>
        <path class="cls-1" d="M339.49,186.73c-1.11,2.78-2.37,5.01-3.76,6.68-1.39,1.67-3.27,2.5-5.63,2.5-3.62,0-6.29-1.04-8.03-3.13-1.74-2.09-2.61-4.1-2.61-6.05s.55-4.38,1.67-7.3l45.06-129.76c1.11-3.06,2.57-5.7,4.38-7.93,1.81-2.22,4.31-3.34,7.51-3.34s5.74,1.11,7.61,3.34c1.88,2.23,3.37,4.87,4.49,7.93l44.85,129.76c1.11,2.92,1.67,5.36,1.67,7.3s-.83,3.96-2.5,6.05c-1.67,2.09-4.38,3.13-8.14,3.13-2.37,0-4.24-.83-5.63-2.5-1.39-1.67-2.64-3.89-3.75-6.68l-10.01-28.79h-57.16l-10.01,28.79ZM356.39,138.12h43.39l-21.49-62.58-21.9,62.58Z"/>
        <path class="cls-1" d="M516.4,194.86c-7.51,0-13.56-1.53-18.15-4.59-4.59-3.06-8.48-7.79-11.68-14.19l-18.15-36.93c-1.67-3.34-2.99-6.85-3.96-10.54-.97-3.68-1.46-7.47-1.46-11.37s.49-7.89,1.46-11.58c.97-3.68,2.29-7.2,3.96-10.54l18.15-36.92c3.2-6.4,7.09-11.13,11.68-14.19,4.59-3.06,10.64-4.59,18.15-4.59h38.8c3.89,0,7.02.66,9.39,1.98,2.36,1.32,3.55,4,3.55,8.03s-1.18,6.5-3.55,7.82c-2.37,1.32-5.5,1.98-9.39,1.98h-36.51c-3.62,0-6.54.56-8.76,1.67-2.23,1.11-4.24,3.48-6.05,7.09l-16.9,34.21c-1.11,2.37-2.09,4.73-2.92,7.09-.83,2.37-1.25,4.94-1.25,7.72,0,2.92.42,5.56,1.25,7.93.83,2.37,1.81,4.73,2.92,7.09l16.9,34.21c1.81,3.62,3.82,5.98,6.05,7.09,2.22,1.11,5.14,1.67,8.76,1.67h15.44c3.61,0,6.71-.63,9.28-1.88,2.57-1.25,3.86-4.03,3.86-8.34v-29.83h-14.39c-3.9,0-7.02-.66-9.39-1.98-2.37-1.32-3.55-3.93-3.55-7.82s1.18-6.71,3.55-8.03c2.36-1.32,5.49-1.98,9.39-1.98h21.28c4.73,0,8.06.97,10.01,2.92,1.95,1.95,2.92,5.29,2.92,10.01v35.67c0,9.6-2.92,17.18-8.76,22.74-5.84,5.56-13.49,8.34-22.95,8.34h-18.98Z"/>
        <path class="cls-1" d="M615.28,194.86c-3.9,0-7.03-.66-9.39-1.98-2.37-1.32-3.55-3.93-3.55-7.82s1.18-6.71,3.55-8.03c2.36-1.32,5.49-1.98,9.39-1.98h28.16V59.26h-28.16c-3.9,0-7.03-.66-9.39-1.98-2.37-1.32-3.55-3.93-3.55-7.82s1.18-6.71,3.55-8.03c2.36-1.32,5.49-1.98,9.39-1.98h76.35c3.89,0,7.02.66,9.39,1.98,2.36,1.32,3.55,4,3.55,8.03s-1.18,6.5-3.55,7.82c-2.37,1.32-5.5,1.98-9.39,1.98h-28.37v115.78h28.37c3.89,0,7.02.66,9.39,1.98,2.36,1.32,3.55,4,3.55,8.03s-1.18,6.5-3.55,7.82c-2.37,1.32-5.5,1.98-9.39,1.98h-76.35Z"/>
        <path class="cls-1" d="M744.61,51.96c0-4.17.66-7.47,1.98-9.91,1.32-2.43,3.72-3.65,7.2-3.65s6.57,1.22,8.87,3.65c2.3,2.43,4.83,6.5,7.62,12.2l47.56,93.25V51.33c0-3.89.66-7.02,1.98-9.39,1.32-2.36,4-3.55,8.03-3.55s6.5,1.18,7.82,3.55c1.32,2.37,1.98,5.49,1.98,9.39v131.64c0,8.62-2.99,12.93-8.97,12.93-3.75,0-6.75-1.22-8.97-3.65-2.23-2.43-4.8-6.57-7.72-12.41l-47.56-93.25v96.38c0,3.9-.66,7.02-1.98,9.39-1.32,2.37-3.93,3.55-7.82,3.55s-6.71-1.18-8.03-3.55c-1.32-2.36-1.98-5.49-1.98-9.39V51.96Z"/>
        <path class="cls-1" d="M890.22,186.73c-1.12,2.78-2.37,5.01-3.76,6.68-1.39,1.67-3.27,2.5-5.63,2.5-3.62,0-6.29-1.04-8.03-3.13-1.74-2.09-2.61-4.1-2.61-6.05s.55-4.38,1.67-7.3l45.06-129.76c1.11-3.06,2.57-5.7,4.38-7.93,1.81-2.22,4.31-3.34,7.51-3.34s5.74,1.11,7.61,3.34c1.88,2.23,3.37,4.87,4.48,7.93l44.85,129.76c1.11,2.92,1.67,5.36,1.67,7.3s-.83,3.96-2.5,6.05c-1.67,2.09-4.38,3.13-8.14,3.13-2.37,0-4.24-.83-5.63-2.5-1.39-1.67-2.64-3.89-3.76-6.68l-10.01-28.79h-57.16l-10.01,28.79ZM907.12,138.12h43.39l-21.49-62.58-21.9,62.58Z"/>
        <path class="cls-1" d="M1033.54,194.86c-4.73,0-8.07-.97-10.01-2.92-1.95-1.95-2.92-5.28-2.92-10.01V52.38c0-4.73.97-8.06,2.92-10.01s5.28-2.92,10.01-2.92h32.13c7.37,0,13.42,1.53,18.15,4.59,4.73,3.06,8.69,7.86,11.89,14.4l17.94,36.72c1.53,3.2,2.82,6.57,3.86,10.12,1.04,3.55,1.56,7.55,1.56,11.99,0,3.9-.49,7.69-1.46,11.37-.97,3.69-2.3,7.2-3.96,10.54l-18.15,36.93c-3.2,6.4-7.09,11.13-11.68,14.19-4.59,3.06-10.64,4.59-18.15,4.59h-32.13ZM1063.37,175.04c3.61,0,6.54-.55,8.76-1.67,2.22-1.11,4.24-3.48,6.05-7.09l16.9-34.21c1.11-2.36,2.09-4.73,2.92-7.09.83-2.36,1.25-4.94,1.25-7.72,0-3.06-.42-5.81-1.25-8.24-.83-2.43-1.81-4.69-2.92-6.78l-16.9-34.21c-1.81-3.61-3.86-5.98-6.15-7.09-2.29-1.11-5.18-1.67-8.66-1.67h-22.95v115.78h22.95Z"/>
        <path class="cls-1" d="M1204.18,195.9c-3.34,0-6.4-.28-9.18-.83-2.78-.55-5.36-1.49-7.72-2.82-2.37-1.32-4.59-3.09-6.67-5.32-2.09-2.22-4.04-5.08-5.84-8.55l-21.9-39.64c-2.23-4.03-3.86-7.65-4.9-10.85-1.04-3.2-1.56-6.81-1.56-10.85s.52-7.61,1.56-10.74c1.04-3.13,2.68-6.71,4.9-10.74l21.9-39.64c3.76-6.81,7.93-11.44,12.52-13.87,4.59-2.43,10.22-3.65,16.9-3.65s12.31,1.22,16.9,3.65c4.59,2.43,8.76,7.06,12.52,13.87l21.9,39.64c2.22,4.03,3.86,7.61,4.9,10.74,1.04,3.13,1.56,6.71,1.56,10.74s-.52,7.65-1.56,10.85c-1.04,3.2-2.68,6.82-4.9,10.85l-21.9,39.64c-1.95,3.48-3.93,6.33-5.95,8.55-2.02,2.23-4.21,4-6.57,5.32-2.37,1.32-4.94,2.26-7.72,2.82-2.78.55-5.84.83-9.18.83ZM1192.08,168.78c2.5,4.87,6.54,7.3,12.1,7.3s9.6-2.43,12.1-7.3l22.32-40.26c1.11-2.09,1.98-4.03,2.61-5.84.63-1.81.94-3.68.94-5.63s-.31-3.79-.94-5.53c-.63-1.74-1.5-3.65-2.61-5.74l-22.32-40.47c-2.5-4.73-6.54-7.09-12.1-7.09s-9.6,2.37-12.1,7.09l-22.32,40.47c-1.11,2.09-1.98,4-2.61,5.74-.63,1.74-.94,3.58-.94,5.53s.31,3.83.94,5.63c.63,1.81,1.49,3.76,2.61,5.84l22.32,40.26Z"/>
        <path class="cls-1" d="M1332.89,125.6h-16.69v57.37c0,3.9-.66,7.02-1.98,9.39-1.32,2.37-3.93,3.55-7.82,3.55s-6.71-1.18-8.03-3.55c-1.32-2.36-1.98-5.49-1.98-9.39V52.38c0-4.73.97-8.06,2.92-10.01,1.95-1.95,5.28-2.92,10.01-2.92h47.36c5.01,0,9.77.56,14.29,1.67,4.52,1.11,8.66,3.75,12.41,7.93,1.95,2.23,3.47,4.31,4.59,6.26,1.11,1.95,1.91,3.93,2.4,5.95.49,2.02.8,4,.94,5.95.14,1.95.21,4.03.21,6.26v17.11c0,5.15-.45,9.63-1.36,13.46-.91,3.83-3.17,7.82-6.78,11.99-3.2,3.76-7.06,6.29-11.58,7.62-4.52,1.32-9.42,1.98-14.71,1.98l35.88,51.94c1.11,1.53,2.01,3.06,2.71,4.59.69,1.53,1.04,2.99,1.04,4.38,0,2.09-1.08,4.17-3.23,6.26-2.16,2.09-4.49,3.13-6.99,3.13-1.95,0-3.69-.63-5.22-1.88-1.53-1.25-3.06-2.99-4.59-5.22l-43.81-63.21ZM1357.3,105.78c5.28,0,9-1.08,11.16-3.23s3.23-5.87,3.23-11.16v-17.94c0-5.14-1.08-8.79-3.23-10.95-2.16-2.15-5.88-3.23-11.16-3.23h-41.1v46.52h41.1Z"/>
        <path class="cls-1" d="M1447.63,194.86c-4.73,0-8.07-.97-10.01-2.92-1.95-1.95-2.92-5.28-2.92-10.01V52.38c0-4.73.97-8.06,2.92-10.01s5.28-2.92,10.01-2.92h72.6c3.89,0,7.02.66,9.39,1.98,2.36,1.32,3.55,4,3.55,8.03s-1.18,6.5-3.55,7.82c-2.37,1.32-5.5,1.98-9.39,1.98h-65.71v43.81h46.94c3.89,0,7.02.66,9.39,1.98,2.36,1.32,3.55,4,3.55,8.03s-1.18,6.5-3.55,7.82c-2.37,1.32-5.49,1.98-9.39,1.98h-46.94v52.15h65.71c3.89,0,7.02.66,9.39,1.98,2.36,1.32,3.55,4,3.55,8.03s-1.18,6.5-3.55,7.82c-2.37,1.32-5.5,1.98-9.39,1.98h-72.6Z"/>
        <path class="cls-1" d="M1594.28,194.86c-3.9,0-7.51-.69-10.85-2.09-3.34-1.39-6.23-3.23-8.66-5.53-2.44-2.3-4.35-4.97-5.74-8.03-1.39-3.06-2.09-6.26-2.09-9.6s.76-5.95,2.29-8.24c1.53-2.29,4.1-3.44,7.72-3.44,2.92,0,5.22.87,6.88,2.61,1.67,1.74,2.64,4,2.92,6.78.42,3.34,1.46,5.46,3.13,6.36,1.67.91,4.1,1.36,7.3,1.36h36.51c2.92,0,5.25-.38,6.99-1.15,1.74-.76,3.09-1.77,4.07-3.02.97-1.25,1.6-2.74,1.88-4.48.28-1.74.42-3.58.42-5.53s-.1-4.31-.31-7.09c-.21-2.78-.63-5.56-1.25-8.34-.63-2.78-1.64-5.35-3.02-7.72-1.39-2.36-3.2-4.17-5.42-5.42-3.06-1.53-6.92-3.03-11.58-4.49-4.66-1.46-9.46-2.88-14.39-4.28-4.94-1.39-9.7-2.78-14.29-4.17-4.59-1.39-8.21-2.85-10.85-4.38-5.56-2.92-9.88-6.81-12.93-11.68-3.06-4.87-4.87-10.08-5.42-15.65-.28-3.2-.45-6.54-.52-10.01-.07-3.48-.1-6.68-.1-9.6,0-4.59.9-8.66,2.71-12.2,1.81-3.55,4.17-6.54,7.09-8.97,2.92-2.43,6.22-4.28,9.91-5.53,3.68-1.25,7.47-1.88,11.37-1.88h41.51c3.89,0,7.51.7,10.85,2.09,3.34,1.39,6.22,3.23,8.66,5.53,2.43,2.29,4.35,4.97,5.74,8.03,1.39,3.06,2.09,6.26,2.09,9.6s-.77,5.95-2.29,8.24c-1.53,2.3-4.1,3.44-7.72,3.44-2.92,0-5.22-.87-6.88-2.61-1.67-1.74-2.64-4-2.92-6.78-.42-3.34-1.46-5.46-3.13-6.36-1.67-.9-4.1-1.36-7.3-1.36h-36.72c-4.45,0-7.75.87-9.91,2.61-2.16,1.74-3.23,4.21-3.23,7.41v8.24c0,1.18.03,2.37.1,3.55.07,1.18.17,2.61.31,4.28.28,3.34,1.28,5.98,3.02,7.93,1.74,1.95,3.96,3.55,6.67,4.8,2.71,1.25,5.84,2.37,9.39,3.34,3.55.97,7.41,2.09,11.58,3.34,5.42,1.67,10.88,3.37,16.38,5.11,5.49,1.74,10.25,3.79,14.29,6.15,4.31,2.64,7.68,5.98,10.12,10.01,2.43,4.04,4.24,8.38,5.42,13.04,1.18,4.66,1.91,9.39,2.19,14.19.28,4.8.42,9.15.42,13.04,0,4.59-.87,8.69-2.61,12.31-1.74,3.62-4.07,6.61-6.99,8.97-2.92,2.37-6.26,4.17-10.01,5.42s-7.58,1.88-11.47,1.88h-41.31Z"/>
      </g>
    </g>
  </g>
</svg>