<svg width="78" height="78" viewBox="0 0 78 78" fill="none" xmlns="http://www.w3.org/2000/svg">
<path d="M24.9354 42.6751H21.1687C19.9624 42.6751 18.9854 43.6542 18.9854 44.8584V59.0876C18.9854 60.2917 19.9645 61.2709 21.1687 61.2709H24.9374C26.1458 61.2709 27.1229 60.2917 27.1229 59.0855V44.8584C27.1223 44.279 26.8919 43.7234 26.4821 43.3137C26.0724 42.904 25.5169 42.6735 24.9374 42.673M38.8833 22.7292H35.1166C33.9083 22.7292 32.9312 23.7084 32.9312 24.9146V59.0834C32.9312 60.2917 33.9104 61.2688 35.1187 61.2688H38.8833C40.0916 61.2688 41.0687 60.2897 41.0687 59.0834V24.9167C41.0687 23.7084 40.0895 22.7313 38.8812 22.7313M52.8312 13.5146H49.0624C47.8541 13.5146 46.877 14.4938 46.877 15.7021V59.0834C46.877 60.2917 47.8562 61.2688 49.0624 61.2688H52.8291C53.4085 61.2683 53.9641 61.0378 54.3738 60.6281C54.7835 60.2184 55.014 59.6628 55.0145 59.0834V15.7001C55.0145 14.4917 54.0353 13.5146 52.827 13.5146" stroke="#FC0000" stroke-width="2.7" stroke-linecap="round" stroke-linejoin="round"/>
<circle cx="39" cy="39" r="38.5" stroke="#FC0000"/>
</svg>
