<svg width="78" height="79" viewBox="0 0 78 79" fill="none" xmlns="http://www.w3.org/2000/svg">
<circle cx="39" cy="39" r="39" fill="#E7E3D5"/>
<path d="M31.7383 65.2813C30.4153 65.4203 29.0862 65.4933 27.7559 65.5002C26.3368 65.5002 26.0031 65.3972 24.8558 65.2813C23.3717 65.1297 22.2558 63.9163 22.1367 62.4289L21.3274 52.3268C20.4348 52.2857 18.5498 52.2402 17.8521 52.1968C16.1166 52.0874 14.8209 50.5881 15.0203 48.8602C15.4817 44.9257 16.3393 41.0479 17.5802 37.2858C18.1338 35.6175 19.5735 34.4627 21.3263 34.3175C22.8094 34.1918 24.9219 34.0835 27.7559 34.0835C30.5899 34.0835 32.7024 34.1918 34.1844 34.3164C35.9351 34.4616 37.3759 35.6164 37.9295 37.2847C38.5228 39.081 39.0286 40.9049 39.4451 42.7502M43.1674 48.1668C43.3928 47.0391 43.8445 45.7987 44.2399 44.8388C44.6765 43.7772 45.5908 42.9917 46.7316 42.8563C47.3466 42.7857 47.9651 42.7502 48.5841 42.7502C49.2958 42.7502 49.9177 42.7946 50.4366 42.8563C51.5773 42.9917 52.4917 43.7772 52.9283 44.8388C53.3237 45.7987 53.7754 47.038 54.0008 48.1668" stroke="#FC0000" stroke-width="3" stroke-linecap="round" stroke-linejoin="round"/>
<path d="M32.7343 32.0209C34.0548 30.7003 34.7967 28.9092 34.7967 27.0417C34.7967 25.1741 34.0548 23.383 32.7343 22.0625C31.4137 20.7419 29.6226 20 27.755 20C25.8875 20 24.0964 20.7419 22.7758 22.0625C21.4553 23.383 20.7134 25.1741 20.7134 27.0417C20.7134 28.9092 21.4553 30.7003 22.7758 32.0209C24.0964 33.3414 25.8875 34.0833 27.755 34.0833C29.6226 34.0833 31.4137 33.3414 32.7343 32.0209Z" stroke="#FC0000" stroke-width="3" stroke-linecap="round" stroke-linejoin="round"/>
<path d="M39.7605 48.5881C38.1875 48.7777 37.0565 50.0029 36.906 51.5792C36.7814 52.8976 36.6676 54.6829 36.6676 56.8333C36.6652 58.5875 36.7448 60.3408 36.906 62.0875C37.0565 63.6637 38.1875 64.889 39.7605 65.0786C41.521 65.2909 44.3322 65.5 48.5843 65.5C52.8364 65.5 55.6465 65.292 57.4081 65.0786C58.981 64.889 60.112 63.6637 60.2626 62.0875C60.3872 60.7691 60.501 58.9838 60.501 56.8333C60.501 54.6829 60.3872 52.8976 60.2626 51.5792C60.112 50.0029 58.981 48.7777 57.4081 48.5881C55.6476 48.3747 52.8364 48.1667 48.5843 48.1667C44.3322 48.1667 41.522 48.3747 39.7605 48.5881Z" stroke="#FC0000" stroke-width="3" stroke-linecap="round" stroke-linejoin="round"/>
</svg>
