<svg width="78" height="78" viewBox="0 0 78 78" fill="none" xmlns="http://www.w3.org/2000/svg">
<circle cx="39" cy="39" r="39" fill="#E7E3D5"/>
<path fill-rule="evenodd" clip-rule="evenodd" d="M24.424 51.2821C21.35 47.9021 20.51 43.6261 20.884 39.8061C21.296 35.5921 23.218 31.5501 25.72 29.4641C29.064 26.6781 32.576 25.5341 35.624 24.9741C37.1085 24.7206 38.6032 24.5318 40.104 24.4081C40.912 24.3321 41.73 24.2561 42.516 24.0601C44.172 23.6461 45.806 22.9741 47.152 21.9061C47.768 21.4161 48.392 20.9201 49.222 21.0121C49.5204 21.0453 49.8075 21.1452 50.0619 21.3045C50.3164 21.4637 50.5318 21.6782 50.692 21.9321C57.092 32.0661 56.126 42.8241 50.78 49.6001C48.11 52.9821 44.36 55.3421 39.986 56.0401C36.17 56.6461 32 55.9681 27.798 53.7681C27.4288 54.9156 27.1546 56.0916 26.978 57.2841C26.903 57.8092 26.6224 58.283 26.198 58.6013C25.7736 58.9195 25.2402 59.0561 24.715 58.9811C24.1899 58.906 23.7161 58.6254 23.3979 58.201C23.0796 57.7766 22.943 57.2432 23.018 56.7181C23.266 54.9881 23.738 53.1461 24.424 51.2821ZM36.344 28.9081C37.752 28.6501 39.074 28.5261 40.358 28.4001C41.406 28.3001 42.462 28.1961 43.486 27.9401C45.2106 27.5175 46.8622 26.8394 48.386 25.9281C52.742 34.1621 51.526 42.1961 47.64 47.1241C45.544 49.7801 42.662 51.5641 39.36 52.0881C36.394 52.5601 32.96 52.0401 29.3 50.0361C31.524 45.5021 35.16 41.1561 39.894 38.7901C40.3688 38.553 40.7299 38.137 40.8979 37.6336C41.0659 37.1303 41.0271 36.5808 40.79 36.1061C40.5529 35.6313 40.1369 35.2702 39.6336 35.1022C39.1303 34.9342 38.5808 34.973 38.106 35.2101C32.89 37.8181 28.894 42.3281 26.296 47.1381C25.014 45.0381 24.63 42.5961 24.866 40.1941C25.204 36.7381 26.786 33.7841 28.28 32.5361C30.936 30.3221 33.736 29.3881 36.346 28.9081H36.344Z" fill="#FC0000"/>
</svg>
