<svg width="78" height="78" viewBox="0 0 78 78" fill="none" xmlns="http://www.w3.org/2000/svg">
<path d="M33.0014 50.0802C32.9279 50.0792 32.8551 50.0652 32.7864 50.0389C31.1562 50.0366 29.526 50.0133 27.8964 49.9689C26.7176 49.9402 25.6239 49.9139 24.3576 49.9139C22.3697 49.912 20.4637 49.1214 19.0579 47.7159C17.652 46.3103 16.8612 44.4044 16.8589 42.4164C16.8589 39.9114 18.0714 37.6264 20.1226 36.2277C19.9556 35.4095 19.871 34.5765 19.8701 33.7414C19.8701 26.9477 25.3976 21.4189 32.1939 21.4189C34.4195 21.4211 36.6031 22.0247 38.5138 23.1658C40.4246 24.3069 41.9915 25.9431 43.0489 27.9014C43.7447 27.1882 44.5767 26.6221 45.4955 26.2367C46.4143 25.8512 47.4012 25.6543 48.3976 25.6577C49.5368 25.6587 50.6608 25.9189 51.6844 26.4186C52.7081 26.9184 53.6046 27.6446 54.306 28.5422C55.0074 29.4398 55.4953 30.4853 55.7327 31.5994C55.9701 32.7136 55.9509 33.8671 55.6764 34.9727C57.2494 35.4162 58.6346 36.3613 59.6211 37.6644C60.6076 38.9674 61.1414 40.5571 61.1414 42.1914C61.1414 46.3264 57.7776 49.6914 53.6426 49.6914C51.7151 49.6914 47.3389 49.7914 43.1076 49.8889C38.8364 49.9889 34.8026 50.0802 33.0014 50.0802ZM32.1939 22.5827C26.0401 22.5827 21.0339 27.5877 21.0339 33.7414C21.0339 34.6252 21.1389 35.5064 21.3451 36.3602C21.374 36.4803 21.3639 36.6065 21.3163 36.7204C21.2686 36.8344 21.1859 36.9302 21.0801 36.9939C20.1434 37.5545 19.3688 38.3493 18.8325 39.3C18.2962 40.2508 18.0166 41.3248 18.0214 42.4164C18.0234 44.0959 18.6915 45.7059 19.8791 46.8933C21.0668 48.0807 22.677 48.7485 24.3564 48.7502C25.6326 48.7502 26.7351 48.7764 27.9239 48.8052C29.3051 48.8377 30.8039 48.8739 32.8364 48.8739C32.9099 48.8749 32.9827 48.8889 33.0514 48.9152C34.8676 48.9127 39.0414 48.8177 43.0789 48.7252C47.3176 48.6277 51.7001 48.5277 53.6414 48.5277C55.3211 48.5257 56.9315 47.8575 58.1192 46.6696C59.3068 45.4817 59.9747 43.8712 59.9764 42.1914C59.9767 40.7182 59.4634 39.2909 58.5248 38.1553C57.5861 37.0198 56.2809 36.2471 54.8339 35.9702C54.7522 35.9547 54.6747 35.9217 54.6068 35.8736C54.539 35.8255 54.4822 35.7633 54.4405 35.6914C54.3988 35.6194 54.373 35.5393 54.365 35.4565C54.3569 35.3737 54.3668 35.2901 54.3939 35.2114C54.7194 34.2573 54.8127 33.2394 54.6662 32.242C54.5196 31.2446 54.1373 30.2965 53.5511 29.4764C52.9649 28.6563 52.1916 27.9878 51.2953 27.5262C50.3991 27.0647 49.4057 26.8235 48.3976 26.8227C47.4262 26.8203 46.4674 27.0426 45.5961 27.4721C44.7249 27.9017 43.9647 28.5269 43.3751 29.2989C43.3142 29.3793 43.2333 29.4424 43.1404 29.4818C43.0476 29.5213 42.9461 29.5358 42.8459 29.5239C42.7457 29.5121 42.6504 29.4742 42.5693 29.4141C42.4883 29.3541 42.4244 29.2738 42.3839 29.1814C41.5006 27.2175 40.0693 25.5502 38.2618 24.3797C36.4543 23.2092 34.3473 22.5852 32.1939 22.5827Z" fill="#FC0000" stroke="#FC0000"/>
<path d="M36.3227 38.8927C36.3507 38.8925 36.3783 38.8986 36.4036 38.9105C36.4289 38.9224 36.4513 38.9398 36.469 38.9615L36.8727 39.3965C36.5647 39.751 36.1834 40.0346 35.7552 40.2277C35.3177 40.426 34.7886 40.5252 34.1677 40.5252C33.6302 40.5252 33.1419 40.4319 32.7027 40.2452C32.2761 40.0666 31.8926 39.7989 31.5777 39.4602C31.2571 39.1093 31.0112 38.6967 30.8552 38.2477C30.6792 37.7489 30.5924 37.2229 30.599 36.694C30.599 36.129 30.6881 35.6106 30.8665 35.139C31.0254 34.689 31.2779 34.2779 31.6074 33.9327C31.9368 33.5876 32.3357 33.3162 32.7777 33.1365C33.2516 32.9462 33.7584 32.8515 34.269 32.8577C34.8023 32.8577 35.2736 32.9431 35.6827 33.114C36.0902 33.284 36.4494 33.5156 36.7602 33.809L36.4252 34.2752C36.4055 34.3101 36.3776 34.3396 36.344 34.3615C36.3034 34.385 36.2571 34.3967 36.2102 34.3952C36.1469 34.3952 36.0702 34.361 35.9802 34.2927C35.7094 34.0859 35.4026 33.9312 35.0752 33.8365C34.8114 33.7621 34.538 33.7275 34.264 33.734C33.8773 33.734 33.5227 33.8015 33.2002 33.9365C32.8842 34.0674 32.6012 34.2667 32.3715 34.5202C32.1398 34.7744 31.9594 35.0848 31.8302 35.4515C31.6969 35.851 31.6318 36.2702 31.6377 36.6915C31.6377 37.1581 31.7048 37.5748 31.839 37.9415C31.9723 38.3081 32.1556 38.6177 32.389 38.8702C32.739 39.249 32.894 39.3165 33.2102 39.449C33.5269 39.5815 33.8681 39.6477 34.234 39.6477C34.4573 39.6477 34.6586 39.6344 34.8377 39.6077C35.0073 39.584 35.174 39.543 35.3352 39.4852C35.4839 39.4308 35.626 39.3599 35.759 39.274C35.8898 39.1873 36.0202 39.0852 36.1502 38.9677C36.1958 38.9212 36.2577 38.8943 36.3227 38.8927ZM44.834 36.6952C44.834 37.256 44.7448 37.7719 44.5665 38.2427C44.3979 38.6924 44.1417 39.1041 43.8127 39.454C43.483 39.7962 43.0848 40.065 42.644 40.2427C42.1634 40.4323 41.6506 40.5269 41.134 40.5215C40.5823 40.5215 40.0798 40.4285 39.6265 40.2427C39.1866 40.0647 38.7892 39.7959 38.4602 39.454C38.1285 39.1062 37.8719 38.6939 37.7065 38.2427C37.5247 37.7472 37.4341 37.223 37.439 36.6952C37.439 36.1335 37.5281 35.6177 37.7065 35.1477C37.8856 34.6785 38.1369 34.274 38.4602 33.934C38.7888 33.5906 39.1863 33.3206 39.6265 33.1415C40.1051 32.9478 40.6177 32.8517 41.134 32.859C41.6865 32.859 42.1898 32.9531 42.644 33.1415C43.0981 33.3298 43.4877 33.594 43.8127 33.934C44.1377 34.274 44.389 34.6785 44.5665 35.1477C44.7448 35.6177 44.834 36.1335 44.834 36.6952ZM43.7915 36.6952C43.7915 36.2335 43.7286 35.8202 43.6027 35.4552C43.4905 35.1122 43.3088 34.7961 43.069 34.5265C42.8368 34.2719 42.5506 34.0725 42.2315 33.9427C41.8818 33.803 41.508 33.7333 41.1315 33.7377C40.7306 33.7377 40.3661 33.806 40.0377 33.9427C39.7181 34.0723 39.4315 34.2718 39.199 34.5265C38.9665 34.779 38.7873 35.0885 38.6615 35.4552C38.5365 35.821 38.4736 36.2344 38.4727 36.6952C38.4727 37.1552 38.5356 37.5677 38.6615 37.9327C38.7865 38.296 38.9656 38.6048 39.199 38.859C39.4306 39.1123 39.7102 39.3056 40.0377 39.439C40.3661 39.574 40.7306 39.6415 41.1315 39.6415C41.5356 39.6415 41.9023 39.574 42.2315 39.439C42.559 39.3056 42.8381 39.1123 43.069 38.859C43.299 38.6048 43.4769 38.296 43.6027 37.9327C43.7294 37.5677 43.7923 37.1552 43.7915 36.6952ZM48.3365 43.4127C48.3948 43.4127 48.4419 43.4302 48.4777 43.4652C48.4948 43.483 48.5083 43.5039 48.5173 43.5269C48.5263 43.5498 48.5307 43.5743 48.5302 43.599V43.929H45.6127V43.7427C45.6146 43.6552 45.6505 43.5718 45.7127 43.5102L47.1127 42.104C47.2286 41.9856 47.3344 41.8719 47.4302 41.7627C47.5252 41.6544 47.6065 41.5448 47.674 41.434C47.7406 41.324 47.7923 41.2127 47.829 41.1002C47.865 40.9827 47.8836 40.8606 47.884 40.7377C47.8859 40.6227 47.8651 40.5084 47.8227 40.4015C47.7868 40.3106 47.7308 40.229 47.6589 40.1628C47.5871 40.0966 47.5012 40.0474 47.4077 40.019C47.2072 39.9549 46.9915 39.9558 46.7915 40.0215C46.6129 40.0819 46.4609 40.2025 46.3615 40.3627C46.3129 40.444 46.2779 40.5327 46.2577 40.6252C46.2336 40.696 46.2006 40.7435 46.159 40.7677C46.1173 40.7919 46.0586 40.7985 45.9827 40.7877L45.699 40.7377C45.7273 40.5394 45.7831 40.3631 45.8665 40.209C45.9481 40.0565 46.0519 39.9277 46.1777 39.8227C46.3027 39.7202 46.4452 39.6415 46.6052 39.5865C46.7661 39.5331 46.9402 39.5065 47.1277 39.5065C47.3127 39.5065 47.4852 39.5335 47.6452 39.5877C47.7991 39.6356 47.9409 39.7159 48.061 39.8233C48.1811 39.9307 48.2768 40.0626 48.3415 40.2102C48.4105 40.3721 48.4446 40.5467 48.4415 40.7227C48.4415 40.886 48.4173 41.0369 48.369 41.1752C48.3203 41.3156 48.2539 41.4491 48.1715 41.5727C48.0881 41.6994 47.9919 41.8227 47.8827 41.9427C47.7736 42.0627 47.6581 42.184 47.5365 42.3065L46.3827 43.4827C46.4644 43.461 46.5469 43.4435 46.6302 43.4302C46.7136 43.4169 46.794 43.4102 46.8715 43.4102H48.3365V43.4127Z" fill="#FC0000" stroke="#FC0000"/>
<circle cx="39" cy="39" r="38.5" stroke="#FC0000"/>
</svg>
