<svg width="70" height="70" viewBox="0 0 70 70" fill="none" xmlns="http://www.w3.org/2000/svg">
<path d="M58.6294 4.62848C58.8833 4.49397 59.1612 4.41081 59.4473 4.38375C59.7334 4.35668 60.022 4.38625 60.2967 4.47076C60.5713 4.55526 60.8266 4.69306 61.048 4.87626C61.2694 5.05946 61.4525 5.28449 61.5869 5.53848C64.2414 10.5745 65.6275 16.1819 65.625 21.8747C65.6275 27.5675 64.2414 33.175 61.5869 38.211C61.4524 38.4649 61.2693 38.6899 61.0479 38.8731C60.8265 39.0562 60.5712 39.194 60.2966 39.2785C60.022 39.363 59.7334 39.3926 59.4473 39.3656C59.1613 39.3385 58.8833 39.2554 58.6294 39.121C58.3754 38.9865 58.1505 38.8034 57.9673 38.582C57.7841 38.3606 57.6464 38.1053 57.5619 37.8307C57.4774 37.5561 57.4478 37.2675 57.4748 36.9814C57.5018 36.6954 57.5849 36.4174 57.7194 36.1635C60.0403 31.7584 61.2522 26.8538 61.25 21.8747C61.25 16.7122 59.9725 11.8472 57.7194 7.58598C57.5849 7.33205 57.5017 7.05411 57.4746 6.76803C57.4476 6.48196 57.4771 6.19335 57.5616 5.9187C57.6462 5.64405 57.7839 5.38875 57.9672 5.16737C58.1504 4.94599 58.3754 4.76287 58.6294 4.62848ZM21.875 21.8747C21.875 19.5541 22.7969 17.3285 24.4378 15.6875C26.0788 14.0466 28.3044 13.1247 30.625 13.1247C32.9456 13.1247 35.1712 14.0466 36.8122 15.6875C38.4531 17.3285 39.375 19.5541 39.375 21.8747C39.375 24.1954 38.4531 26.421 36.8122 28.0619C35.1712 29.7029 32.9456 30.6247 30.625 30.6247C28.3044 30.6247 26.0788 29.7029 24.4378 28.0619C22.7969 26.421 21.875 24.1954 21.875 21.8747ZM30.625 8.74973C27.144 8.74973 23.8056 10.1325 21.3442 12.594C18.8828 15.0554 17.5 18.3938 17.5 21.8747C17.5 25.3557 18.8828 28.6941 21.3442 31.1555C23.8056 33.6169 27.144 34.9997 30.625 34.9997C34.106 34.9997 37.4444 33.6169 39.9058 31.1555C42.3672 28.6941 43.75 25.3557 43.75 21.8747C43.75 18.3938 42.3672 15.0554 39.9058 12.594C37.4444 10.1325 34.106 8.74973 30.625 8.74973ZM52.5 45.9372C52.5 44.1968 51.8086 42.5275 50.5779 41.2968C49.3472 40.0661 47.678 39.3747 45.9375 39.3747H15.3125C13.572 39.3747 11.9028 40.0661 10.6721 41.2968C9.4414 42.5275 8.75 44.1968 8.75 45.9372V48.1247C8.75 56.7479 16.8875 65.6247 30.625 65.6247C44.3625 65.6247 52.5 56.7479 52.5 48.1247V45.9372ZM13.125 45.9372C13.125 45.3571 13.3555 44.8007 13.7657 44.3904C14.1759 43.9802 14.7323 43.7497 15.3125 43.7497H45.9375C46.5177 43.7497 47.0741 43.9802 47.4843 44.3904C47.8945 44.8007 48.125 45.3571 48.125 45.9372V48.1247C48.125 54.416 41.86 61.2497 30.625 61.2497C19.39 61.2497 13.125 54.416 13.125 48.1247V45.9372ZM52.2812 11.3616C52.1554 11.1031 51.9799 10.8718 51.7647 10.6811C51.5495 10.4904 51.2989 10.344 51.0271 10.2501C50.7553 10.1563 50.4677 10.1169 50.1807 10.1342C49.8937 10.1515 49.6129 10.2252 49.3544 10.351C49.0958 10.4768 48.8646 10.6523 48.6739 10.8675C48.4832 11.0827 48.3367 11.3333 48.2429 11.6051C48.149 11.8769 48.1096 12.1645 48.127 12.4515C48.1443 12.7385 48.2179 13.0193 48.3438 13.2779C49.6081 15.8722 50.3125 18.7904 50.3125 21.8747C50.3148 24.8524 49.6417 27.7917 48.3438 30.4716C48.2179 30.7301 48.1443 31.0109 48.127 31.2979C48.1096 31.585 48.149 31.8726 48.2429 32.1444C48.3367 32.4161 48.4832 32.6668 48.6739 32.882C48.8646 33.0971 49.0958 33.2727 49.3544 33.3985C49.6129 33.5243 49.8937 33.598 50.1807 33.6153C50.4677 33.6326 50.7553 33.5932 51.0271 33.4993C51.2989 33.4055 51.5495 33.259 51.7647 33.0683C51.9799 32.8776 52.1554 32.6464 52.2812 32.3879C53.8685 29.1107 54.6912 25.516 54.6875 21.8747C54.6875 18.1122 53.8256 14.5422 52.2812 11.3616Z" fill="#2C5C6C"/>
</svg>
