<svg width="70" height="70" viewBox="0 0 70 70" fill="none" xmlns="http://www.w3.org/2000/svg">
<path d="M24.0982 23.275C24.0982 22.5324 24.3277 21.8202 24.7363 21.2951C25.1449 20.77 25.699 20.475 26.2768 20.475H48.0625C48.6403 20.475 49.1944 20.77 49.603 21.2951C50.0115 21.8202 50.2411 22.5324 50.2411 23.275C50.2411 24.0176 50.0115 24.7298 49.603 25.2549C49.1944 25.78 48.6403 26.075 48.0625 26.075H26.2768C25.699 26.075 25.1449 25.78 24.7363 25.2549C24.3277 24.7298 24.0982 24.0176 24.0982 23.275ZM26.2768 37.275H48.0625C48.6403 37.275 49.1944 36.98 49.603 36.4549C50.0115 35.9298 50.2411 35.2176 50.2411 34.475C50.2411 33.7324 50.0115 33.0202 49.603 32.4951C49.1944 31.97 48.6403 31.675 48.0625 31.675H26.2768C25.699 31.675 25.1449 31.97 24.7363 32.4951C24.3277 33.0202 24.0982 33.7324 24.0982 34.475C24.0982 35.2176 24.3277 35.9298 24.7363 36.4549C25.1449 36.98 25.699 37.275 26.2768 37.275ZM63.3125 6.475V48.475C63.3125 50.7028 62.6239 52.8394 61.3982 54.4147C60.1726 55.99 58.5102 56.875 56.7768 56.875H8.84821C7.12001 56.875 5.46215 55.9953 4.23732 54.4283C3.0125 52.8613 2.32042 50.7346 2.3125 48.5135V14.875C2.3125 14.1324 2.54203 13.4202 2.95059 12.8951C3.35915 12.37 3.91328 12.075 4.49107 12.075C5.06886 12.075 5.62299 12.37 6.03155 12.8951C6.44012 13.4202 6.66964 14.1324 6.66964 14.875V48.475C6.66964 49.2176 6.89917 49.9298 7.30773 50.4549C7.71629 50.98 8.27042 51.275 8.84821 51.275C9.42601 51.275 9.98014 50.98 10.3887 50.4549C10.7973 49.9298 11.0268 49.2176 11.0268 48.475V6.475C11.0268 4.98979 11.4858 3.56541 12.303 2.5152C13.1201 1.465 14.2283 0.875 15.3839 0.875H58.9554C60.1109 0.875 61.2192 1.465 62.0363 2.5152C62.8534 3.56541 63.3125 4.98979 63.3125 6.475ZM58.9554 6.475H15.3839V48.475C15.3852 49.4289 15.259 50.376 15.0108 51.275H56.7768C57.3546 51.275 57.9087 50.98 58.3173 50.4549C58.7258 49.9298 58.9554 49.2176 58.9554 48.475V6.475Z" fill="#2B5C6C"/>
</svg>
