<svg width="70" height="70" viewBox="0 0 70 70" fill="none" xmlns="http://www.w3.org/2000/svg">
<path d="M11.6665 23.333C11.6665 15.0847 11.6665 10.9576 14.2303 8.39676C16.7911 5.83301 20.9182 5.83301 29.1665 5.83301H40.8332C49.0815 5.83301 53.2086 5.83301 55.7694 8.39676C58.3332 10.9576 58.3332 15.0847 58.3332 23.333V46.6663C58.3332 54.9147 58.3332 59.0418 55.7694 61.6026C53.2086 64.1663 49.0815 64.1663 40.8332 64.1663H29.1665C20.9182 64.1663 16.7911 64.1663 14.2303 61.6026C11.6665 59.0418 11.6665 54.9147 11.6665 46.6663V23.333Z" stroke="#2B5C6C" stroke-width="4.375"/>
<path d="M58.0357 46.666H23.0357C20.3232 46.666 18.9669 46.666 17.8528 46.9635C16.3691 47.3614 15.0163 48.1428 13.9304 49.2292C12.8444 50.3157 12.0637 51.6688 11.6665 53.1527" stroke="#2B5C6C" stroke-width="4.375"/>
<path d="M23.333 20.416H46.6663M23.333 30.6243H37.9163" stroke="#2B5C6C" stroke-width="4.375" stroke-linecap="round"/>
</svg>
