<svg width="70" height="70" viewBox="0 0 70 70" fill="none" xmlns="http://www.w3.org/2000/svg">
<path d="M21.875 52.5H26.25V65.625H21.875V52.5Z" fill="#2B5C6C"/>
<path d="M45.9375 43.75H15.3125C13.5725 43.7483 11.9044 43.0563 10.674 41.826C9.4437 40.5956 8.75174 38.9275 8.75 37.1875V13.125H4.375V37.1875C4.37847 40.0872 5.53193 42.8672 7.58236 44.9176C9.63278 46.9681 12.4128 48.1215 15.3125 48.125H45.9375C47.5315 48.129 49.1046 48.4884 50.5422 49.1772L37.1875 62.5319L40.2806 65.625L54.0772 51.8284C55.8693 53.8127 56.8656 56.3888 56.875 59.0625V65.625H61.25V59.0625C61.2442 55.0032 59.6291 51.1117 56.7587 48.2413C53.8883 45.3709 49.9968 43.7558 45.9375 43.75Z" fill="#2B5C6C"/>
<path d="M55.2893 8.83532L39.9768 4.46032C39.5836 4.34786 39.1668 4.34786 38.7736 4.46032L23.4611 8.83532C22.9161 8.99143 22.453 9.35306 22.1694 9.84397C21.8857 10.3349 21.8038 10.9167 21.9408 11.4669L24.0627 19.9566V24.0625C24.0627 26.0734 24.4588 28.0645 25.2283 29.9223C25.9978 31.7801 27.1257 33.4682 28.5476 34.8901C29.9695 36.312 31.6576 37.4399 33.5154 38.2094C35.3731 38.9789 37.3643 39.375 39.3752 39.375C41.3861 39.375 43.3772 38.9789 45.235 38.2094C47.0928 37.4399 48.7809 36.312 50.2028 34.8901C51.6247 33.4682 52.7526 31.7801 53.5221 29.9223C54.2916 28.0645 54.6877 26.0734 54.6877 24.0625V19.9566L56.8096 11.4691C56.9472 10.9186 56.8656 10.3362 56.5819 9.8448C56.2983 9.35339 55.8348 8.99143 55.2893 8.83532ZM39.3752 8.8375L52.0518 12.46L50.7939 17.5H41.5627V13.125H37.1877V17.5H27.9586L26.6986 12.46L39.3752 8.8375ZM39.3752 35C36.4755 34.9965 33.6955 33.8431 31.645 31.7926C29.5946 29.7422 28.4412 26.9622 28.4377 24.0625V21.875H50.3127V24.0625C50.3092 26.9622 49.1558 29.7422 47.1053 31.7926C45.0549 33.8431 42.2749 34.9965 39.3752 35Z" fill="#2B5C6C"/>
</svg>
