<svg width="70" height="70" viewBox="0 0 70 70" fill="none" xmlns="http://www.w3.org/2000/svg">
<path d="M19.6875 26.25C19.6875 32.6318 22.2227 38.7522 26.7352 43.2648C31.2478 47.7774 37.3682 50.3125 43.75 50.3125C50.1318 50.3125 56.2522 47.7774 60.7648 43.2648C65.2774 38.7522 67.8125 32.6318 67.8125 26.25C67.8125 19.8682 65.2774 13.7478 60.7648 9.23524C56.2522 4.72265 50.1318 2.1875 43.75 2.1875C37.3682 2.1875 31.2478 4.72265 26.7352 9.23524C22.2227 13.7478 19.6875 19.8682 19.6875 26.25Z" stroke="#2B5C6C" stroke-width="4.375" stroke-linecap="round" stroke-linejoin="round"/>
<path d="M43.75 50.3129H10.9375C8.61686 50.3129 6.39126 51.2348 4.75032 52.8757C3.10937 54.5167 2.1875 56.7423 2.1875 59.0629C2.1875 61.3836 3.10937 63.6092 4.75032 65.2501C6.39126 66.891 8.61686 67.8129 10.9375 67.8129H67.8125M53.0308 16.9696L56.1254 13.875M34.4692 35.5313L31.3746 38.6258M53.0308 35.5313L56.1254 38.6258M34.4692 16.9696L31.3746 13.875M37.1875 26.2504C37.1875 27.9909 37.8789 29.6601 39.1096 30.8908C40.3403 32.1215 42.0095 32.8129 43.75 32.8129C45.4905 32.8129 47.1597 32.1215 48.3904 30.8908C49.6211 29.6601 50.3125 27.9909 50.3125 26.2504C50.3125 24.5099 49.6211 22.8407 48.3904 21.61C47.1597 20.3793 45.4905 19.6879 43.75 19.6879C42.0095 19.6879 40.3403 20.3793 39.1096 21.61C37.8789 22.8407 37.1875 24.5099 37.1875 26.2504Z" stroke="#2B5C6C" stroke-width="4.375" stroke-linecap="round" stroke-linejoin="round"/>
</svg>
