<svg width="90" height="75" viewBox="0 0 90 75" fill="none" xmlns="http://www.w3.org/2000/svg">
<path d="M74.1668 49.6667C74.1668 57.915 74.1668 62.0421 71.6031 64.6029C69.0422 67.1667 64.9152 67.1667 56.6668 67.1667H33.3335C25.0852 67.1667 20.9581 67.1667 18.3972 64.6029C15.8335 62.0421 15.8335 57.915 15.8335 49.6667V38C15.8335 29.7517 15.8335 25.6246 18.3972 23.0638C20.9581 20.5 25.0852 20.5 33.3335 20.5H56.6668C64.9152 20.5 69.0422 20.5 71.6031 23.0638C74.1668 25.6246 74.1668 29.7517 74.1668 38V49.6667Z" stroke="#2B5C6C" stroke-width="4.375"/>
<path d="M36.25 8.83331L45 19.0416L53.75 8.83331M56.6667 20.5V67.1666" stroke="#2B5C6C" stroke-width="4.375" stroke-linecap="round"/>
<path d="M68.3333 49.6666C68.3333 48.8931 68.026 48.1512 67.4791 47.6043C66.9321 47.0573 66.1902 46.75 65.4167 46.75C64.6431 46.75 63.9013 47.0573 63.3543 47.6043C62.8073 48.1512 62.5 48.8931 62.5 49.6666C62.5 50.4402 62.8073 51.1821 63.3543 51.729C63.9013 52.276 64.6431 52.5833 65.4167 52.5833C66.1902 52.5833 66.9321 52.276 67.4791 51.729C68.026 51.1821 68.3333 50.4402 68.3333 49.6666ZM68.3333 38C68.3333 37.2264 68.026 36.4846 67.4791 35.9376C66.9321 35.3906 66.1902 35.0833 65.4167 35.0833C64.6431 35.0833 63.9013 35.3906 63.3543 35.9376C62.8073 36.4846 62.5 37.2264 62.5 38C62.5 38.7735 62.8073 39.5154 63.3543 40.0624C63.9013 40.6094 64.6431 40.9166 65.4167 40.9166C66.1902 40.9166 66.9321 40.6094 67.4791 40.0624C68.026 39.5154 68.3333 38.7735 68.3333 38Z" fill="#2B5C6C"/>
</svg>
