<svg width="90" height="75" viewBox="0 0 90 75" fill="none" xmlns="http://www.w3.org/2000/svg">
<path d="M34.145 53.43C32.5949 53.4033 31.0732 53.0092 29.705 52.28C24.9655 49.8287 21.0017 46.1068 18.2572 41.5309C15.5126 36.9549 14.0957 31.7055 14.165 26.37L14.315 13.37C20.5762 10.0963 27.5519 8.42738 34.6168 8.51289C41.6817 8.59841 48.6149 10.4357 54.795 13.86L54.675 23.825" stroke="#2B5C6C" stroke-width="5" stroke-linecap="round" stroke-linejoin="round"/>
<path d="M51.2403 68.1C49.7288 68.4426 48.1575 68.4219 46.6556 68.0394C45.1537 67.657 43.7639 66.9238 42.6003 65.9C38.5558 62.4166 35.5609 57.8761 33.951 52.7868C32.3412 47.6976 32.1799 42.2607 33.4853 37.085L36.6403 24.475C43.4891 22.7403 50.6614 22.7321 57.5142 24.4512C64.367 26.1703 70.6862 29.5629 75.9053 34.325L72.7553 46.895C71.4852 52.0761 68.8011 56.8026 65.0022 60.5477C61.2033 64.2927 56.439 66.904 51.2403 68.1Z" stroke="#2B5C6C" stroke-width="5" stroke-linecap="round" stroke-linejoin="round"/>
<path d="M58.2101 43.855C59.8051 43.145 61.9951 43.49 63.1551 44.07M48.0651 41.19C47.0351 39.66 44.9801 39.14 43.7051 39.34" stroke="#2B5C6C" stroke-width="5" stroke-linecap="round" stroke-linejoin="round"/>
</svg>
