<svg width="70" height="70" viewBox="0 0 70 70" fill="none" xmlns="http://www.w3.org/2000/svg">
<path d="M35 8.75C19.2937 8.75 6.5625 18.8562 6.5625 31.2958C6.5625 39.1562 11.6667 46.0687 19.3813 50.0937L16.8146 60.3896C16.7816 60.5181 16.7876 60.6535 16.8316 60.7787C16.8756 60.9039 16.9558 61.0132 17.0619 61.0928C17.1681 61.1724 17.2954 61.2188 17.4279 61.226C17.5604 61.2332 17.6921 61.2009 17.8063 61.1333L30.625 53.5208C32.0758 53.7094 33.537 53.8068 35 53.8125C50.7063 53.8125 63.4375 43.7354 63.4375 31.2958C63.4375 18.8562 50.7063 8.75 35 8.75Z" stroke="#2B5C6C" stroke-width="4.46" stroke-linecap="round" stroke-linejoin="round"/>
<path d="M34.8686 35.2479C37.0513 35.2479 38.8207 33.4785 38.8207 31.2958C38.8207 29.1132 37.0513 27.3438 34.8686 27.3438C32.6859 27.3438 30.9165 29.1132 30.9165 31.2958C30.9165 33.4785 32.6859 35.2479 34.8686 35.2479Z" stroke="#2B5C6C" stroke-width="4.46" stroke-linecap="round" stroke-linejoin="round"/>
<path d="M49.0727 35.2479C51.2554 35.2479 53.0248 33.4785 53.0248 31.2958C53.0248 29.1132 51.2554 27.3438 49.0727 27.3438C46.89 27.3438 45.1206 29.1132 45.1206 31.2958C45.1206 33.4785 46.89 35.2479 49.0727 35.2479Z" stroke="#2B5C6C" stroke-width="4.46" stroke-linecap="round" stroke-linejoin="round"/>
<path d="M20.6791 35.2479C22.8618 35.2479 24.6312 33.4785 24.6312 31.2958C24.6312 29.1132 22.8618 27.3438 20.6791 27.3438C18.4965 27.3438 16.7271 29.1132 16.7271 31.2958C16.7271 33.4785 18.4965 35.2479 20.6791 35.2479Z" stroke="#2B5C6C" stroke-width="4.46" stroke-linecap="round" stroke-linejoin="round"/>
</svg>
