<?xml version="1.0" encoding="UTF-8"?>
<svg id="Capa_1" xmlns="http://www.w3.org/2000/svg" version="1.1" viewBox="0 0 1440 957">
  <!-- Generator: Adobe Illustrator 30.0.0, SVG Export Plug-In . SVG Version: 2.1.1 Build 123)  -->
  <defs>
    <style>
      .st0 {
        fill: #5ea0b8;
      }
    </style>
  </defs>
  <path class="st0" d="M860.4,317.3c-1.2-1-2.6-1.4-4.3-1.4-3.8,0-6,1.8-6.6,5.5h12.7c0-1.8-.6-3.1-1.7-4Z"/>
  <path class="st0" d="M962.8,532.2c-1.5-1.6-3.4-2.4-5.7-2.4s-4.2.8-5.7,2.4c-1.5,1.6-2.2,3.8-2.2,6.7s.7,5.1,2.2,6.7c1.5,1.6,3.4,2.4,5.7,2.4s4.2-.8,5.7-2.4c1.5-1.6,2.2-3.8,2.2-6.7s-.7-5.1-2.2-6.7Z"/>
  <path class="st0" d="M1113.7,336c2.3,0,4.2-.8,5.7-2.4,1.5-1.6,2.2-3.8,2.2-6.7s-.7-5.1-2.2-6.7c-1.5-1.6-3.4-2.4-5.7-2.4s-4.2.8-5.7,2.4c-1.5,1.6-2.2,3.8-2.2,6.7s.7,5.1,2.2,6.7c1.5,1.6,3.4,2.4,5.7,2.4Z"/>
  <path class="st0" d="M1256.6,336c2.3,0,4.2-.8,5.7-2.4,1.5-1.6,2.2-3.8,2.2-6.7s-.7-5.1-2.2-6.7c-1.5-1.6-3.4-2.4-5.7-2.4s-4.2.8-5.7,2.4c-1.5,1.6-2.2,3.8-2.2,6.7s.7,5.1,2.2,6.7c1.5,1.6,3.4,2.4,5.7,2.4Z"/>
  <path class="st0" d="M1038.5,421.9c-3.8,0-6,1.8-6.6,5.5h12.7c0-1.8-.6-3.1-1.7-4-1.2-1-2.6-1.4-4.3-1.4Z"/>
  <path class="st0" d="M1046.5,336c2.3,0,4.2-.8,5.7-2.4,1.5-1.6,2.2-3.8,2.2-6.7s-.7-5.1-2.2-6.7c-1.5-1.6-3.4-2.4-5.7-2.4s-4.2.8-5.7,2.4c-1.5,1.6-2.2,3.8-2.2,6.7s.7,5.1,2.2,6.7c1.5,1.6,3.4,2.4,5.7,2.4Z"/>
  <path class="st0" d="M1197.6,426.2c-1.5-1.6-3.4-2.4-5.7-2.4s-4.2.8-5.7,2.4c-1.5,1.6-2.2,3.8-2.2,6.7s.7,5.1,2.2,6.7c1.5,1.6,3.4,2.4,5.7,2.4s4.2-.8,5.7-2.4c1.5-1.6,2.2-3.8,2.2-6.7s-.7-5.1-2.2-6.7Z"/>
  <path class="st0" d="M860.7,230.2c2,0,3.6-.8,5-2.3,1.3-1.6,2-3.9,2-7s-.7-5.4-2-6.9c-1.3-1.6-3-2.4-5-2.4s-3.6.8-5,2.4c-1.3,1.5-2,3.8-2,6.9s.6,5.4,1.9,7c1.3,1.5,3,2.3,5.1,2.3Z"/>
  <path class="st0" d="M1056.9,230.2c2,0,3.6-.8,5-2.3,1.3-1.6,2-3.9,2-7s-.7-5.4-2-6.9c-1.3-1.6-3-2.4-5-2.4s-3.7.8-5,2.4c-1.3,1.5-2,3.8-2,6.9s.6,5.4,1.9,7c1.3,1.5,3,2.3,5.1,2.3Z"/>
  <path class="st0" d="M975.7,442c2.3,0,4.2-.8,5.7-2.4,1.5-1.6,2.2-3.8,2.2-6.7s-.7-5.1-2.2-6.7c-1.5-1.6-3.4-2.4-5.7-2.4s-4.2.8-5.7,2.4c-1.5,1.6-2.2,3.8-2.2,6.7s.7,5.1,2.2,6.7c1.5,1.6,3.4,2.4,5.7,2.4Z"/>
  <path class="st0" d="M1210.3,211.3c-1.1-1-2.6-1.4-4.3-1.4-3.8,0-6,1.8-6.6,5.5h12.7c0-1.8-.6-3.1-1.7-4Z"/>
  <path class="st0" d="M979.4,336c2.3,0,4.2-.8,5.7-2.4,1.5-1.6,2.2-3.8,2.2-6.7s-.7-5.1-2.2-6.7c-1.5-1.6-3.4-2.4-5.7-2.4s-4.2.8-5.7,2.4c-1.5,1.6-2.2,3.8-2.2,6.7s.7,5.1,2.2,6.7c1.5,1.6,3.4,2.4,5.7,2.4Z"/>
  <path class="st0" d="M458.7,741.8c-2.3,0-4.2.8-5.7,2.4-1.5,1.6-2.2,3.8-2.2,6.7s.7,5.1,2.2,6.7c1.5,1.6,3.4,2.4,5.7,2.4s4.2-.8,5.7-2.4c1.5-1.6,2.2-3.8,2.2-6.7s-.7-5.1-2.2-6.7c-1.5-1.6-3.4-2.4-5.7-2.4Z"/>
  <path class="st0" d="M595.2,635.8c-2.3,0-4.2.8-5.7,2.4-1.5,1.6-2.2,3.8-2.2,6.7s.7,5.1,2.2,6.7c1.5,1.6,3.4,2.4,5.7,2.4s4.2-.8,5.7-2.4c1.5-1.6,2.2-3.8,2.2-6.7s-.7-5.1-2.2-6.7c-1.5-1.6-3.4-2.4-5.7-2.4Z"/>
  <path class="st0" d="M592.2,741.8c-2.3,0-4.2.8-5.7,2.4-1.5,1.6-2.2,3.8-2.2,6.7s.7,5.1,2.2,6.7c1.5,1.6,3.4,2.4,5.7,2.4s4.2-.8,5.7-2.4c1.5-1.6,2.2-3.8,2.2-6.7s-.7-5.1-2.2-6.7c-1.5-1.6-3.4-2.4-5.7-2.4Z"/>
  <path class="st0" d="M750.3,635.3c-1.2-1-2.6-1.4-4.3-1.4-3.8,0-6,1.8-6.6,5.5h12.7c0-1.8-.6-3.1-1.7-4Z"/>
  <path class="st0" d="M211.1,423.8c-2.3,0-4.2.8-5.7,2.4-1.5,1.6-2.2,3.8-2.2,6.7s.7,5.1,2.2,6.7c1.5,1.6,3.4,2.4,5.7,2.4s4.2-.8,5.7-2.4c1.5-1.6,2.2-3.8,2.2-6.7s-.7-5.1-2.2-6.7c-1.5-1.6-3.4-2.4-5.7-2.4Z"/>
  <path class="st0" d="M647.9,548.2c2,0,3.6-.8,5-2.3,1.3-1.6,2-3.9,2-7s-.7-5.4-2-6.9c-1.3-1.6-3-2.4-5-2.4s-3.6.8-5,2.4c-1.3,1.5-2,3.8-2,6.9s.6,5.4,1.9,7c1.3,1.5,3,2.3,5.1,2.3Z"/>
  <path class="st0" d="M335,423.6c-2,0-3.6.8-5,2.4-1.3,1.5-2,3.8-2,6.9s.6,5.4,1.9,7c1.3,1.5,3,2.3,5.1,2.3s3.6-.8,5-2.3c1.3-1.6,2-3.9,2-7s-.7-5.4-2-6.9c-1.3-1.6-3-2.4-5-2.4Z"/>
  <path class="st0" d="M272.3,529.6c-2,0-3.6.8-5,2.4-1.3,1.5-2,3.8-2,6.9s.6,5.4,1.9,7c1.3,1.5,3,2.3,5.1,2.3s3.6-.8,5-2.3c1.3-1.6,2-3.9,2-7s-.7-5.4-2-6.9c-1.3-1.6-3-2.4-5-2.4Z"/>
  <path class="st0" d="M382.3,529.3c-1.2-1-2.6-1.4-4.3-1.4-3.8,0-6,1.8-6.6,5.5h12.7c0-1.8-.6-3.1-1.7-4Z"/>
  <path class="st0" d="M379.5,635.6c-2,0-3.6.8-5,2.4-1.3,1.5-2,3.8-2,6.9s.6,5.4,1.9,7c1.3,1.5,3,2.3,5.1,2.3s3.6-.8,5-2.3c1.3-1.6,2-3.9,2-7s-.7-5.4-2-6.9c-1.3-1.6-3-2.4-5-2.4Z"/>
  <path class="st0" d="M446.5,532.2c-1.5-1.6-3.4-2.4-5.7-2.4s-4.2.8-5.7,2.4c-1.5,1.6-2.2,3.8-2.2,6.7s.7,5.1,2.2,6.7c1.5,1.6,3.4,2.4,5.7,2.4s4.2-.8,5.7-2.4c1.5-1.6,2.2-3.8,2.2-6.7s-.7-5.1-2.2-6.7Z"/>
  <path class="st0" d="M1273.5,529.8c-2.3,0-4.2.8-5.7,2.4-1.5,1.6-2.2,3.8-2.2,6.7s.7,5.1,2.2,6.7c1.5,1.6,3.4,2.4,5.7,2.4s4.2-.8,5.7-2.4c1.5-1.6,2.2-3.8,2.2-6.7s-.7-5.1-2.2-6.7c-1.5-1.6-3.4-2.4-5.7-2.4Z"/>
  <path class="st0" d="M1322,315.9c-3.8,0-6,1.8-6.6,5.5h12.7c0-1.8-.6-3.1-1.7-4-1.2-1-2.6-1.4-4.3-1.4Z"/>
  <path class="st0" d="M1259.1,442c2.3,0,4.2-.8,5.7-2.4,1.5-1.6,2.2-3.8,2.2-6.7s-.7-5.1-2.2-6.7c-1.5-1.6-3.4-2.4-5.7-2.4s-4.2.8-5.7,2.4c-1.5,1.6-2.2,3.8-2.2,6.7s.7,5.1,2.2,6.7c1.5,1.6,3.4,2.4,5.7,2.4Z"/>
  <path class="st0" d="M0,0v957h1440V0H0ZM1242.3,177h21.3v71h-21.3v-71ZM1238.1,302.5c3.4-2.2,7.2-3.4,11.4-3.4s6.5.7,9,2.2c2.6,1.4,4.5,3.4,5.8,5.9v-24.3h21.3v71h-21.3v-7.4c-1.3,2.5-3.3,4.5-5.8,6-2.5,1.4-5.5,2.1-9,2.1s-8-1.1-11.4-3.3c-3.4-2.2-6.1-5.4-8.1-9.6-1.9-4.2-2.9-9.2-2.9-14.9s1-10.6,2.9-14.8c2-4.2,4.7-7.4,8.1-9.6ZM1181.8,206.2c2.4-4.2,5.6-7.5,9.8-9.7,4.2-2.2,9-3.4,14.4-3.4s10.1,1.1,14.3,3.4c4.2,2.2,7.5,5.3,9.8,9.4,2.4,4.1,3.6,8.9,3.6,14.5s0,2.9-.3,4.2h-34.3c.3,4.7,2.3,7,5.9,7s4-1.1,5-3.2h22.6c-.8,3.8-2.4,7.3-4.9,10.4-2.4,3-5.5,5.4-9.3,7.2-3.7,1.7-7.8,2.6-12.3,2.6s-10.2-1.1-14.4-3.4c-4.2-2.2-7.4-5.4-9.8-9.6-2.3-4.2-3.5-9.2-3.5-14.8s1.2-10.5,3.5-14.7ZM1193.9,458.6c-2.6,1.4-5.6,2.1-9.1,2.1s-8-1.1-11.4-3.3c-3.4-2.2-6.1-5.4-8.1-9.6-1.9-4.2-2.9-9.2-2.9-14.9s1-10.6,2.9-14.8c2-4.2,4.7-7.4,8.1-9.6,3.4-2.2,7.2-3.4,11.4-3.4s6.6.7,9.1,2.2c2.6,1.4,4.5,3.4,5.9,5.9v-7.4h21.2v54.1h-21.2v-7.4c-1.3,2.5-3.3,4.5-5.9,6ZM1156.5,308c1.8-2.8,4.4-4.9,7.9-6.4,3.5-1.6,7.7-2.4,12.6-2.4,7.3,0,13,1.8,17.1,5.4,4.2,3.6,6.7,8.3,7.5,14h-18.9c-.3-1.5-1-2.6-2-3.4-1-.8-2.4-1.2-4.1-1.2s-1.9.2-2.5.7c-.6.4-.9,1-.9,1.8s.7,1.9,2,2.5c1.3.5,3.5,1.1,6.4,1.6,3.9.8,7.2,1.6,9.9,2.6,2.7,1,5,2.6,7,5,2,2.3,3,5.5,3,9.6s-.9,6.1-2.8,8.6c-1.9,2.6-4.5,4.6-8.1,6-3.5,1.5-7.5,2.2-12.2,2.2s-9.7-.8-13.6-2.5c-3.9-1.7-7-4-9.3-6.9-2.3-2.9-3.6-6.3-3.9-10h20.4c.3,1.6.9,2.8,2,3.6,1.2.8,2.6,1.2,4.3,1.2s1.9-.2,2.6-.7c.6-.5,1-1.1,1-1.8,0-1.2-.7-2.1-2-2.6-1.3-.5-3.6-1.1-6.8-1.7-3.9-.8-7.1-1.6-9.7-2.5-2.5-.9-4.7-2.4-6.6-4.6-1.9-2.2-2.8-5.2-2.8-9s.9-6.3,2.6-9ZM1094.1,193.9h21.3v8.3c1.7-2.6,3.9-4.6,6.6-6.2,2.8-1.6,6.1-2.4,10-2.4,6.2,0,11,2.1,14.5,6.2,3.5,4.2,5.3,9.8,5.3,16.9v31.4h-21.2v-28.7c0-2.6-.7-4.6-2.1-6-1.3-1.5-3.2-2.3-5.5-2.3s-4.2.8-5.6,2.3c-1.3,1.5-2,3.5-2,6v28.7h-21.3v-54.1ZM1095.2,302.5c3.4-2.2,7.2-3.4,11.4-3.4s6.6.7,9.1,2.2c2.6,1.4,4.5,3.4,5.8,5.9v-7.4h21.2v54.1h-21.2v-7.4c-1.3,2.5-3.3,4.5-5.8,6-2.6,1.4-5.6,2.1-9.1,2.1s-8-1.1-11.4-3.3c-3.4-2.2-6.1-5.4-8.1-9.6-1.9-4.2-2.9-9.2-2.9-14.9s1-10.6,2.9-14.8c2-4.2,4.7-7.4,8.1-9.6ZM1104.1,408.4c3.1-1.9,6.4-2.9,9.8-2.9v22.8h-6.1c-4,0-7,.7-8.9,2.1-1.9,1.4-2.8,3.9-2.8,7.5v22.2h-21.3v-54.1h21.3v10c2.2-3.1,4.8-5.6,8-7.5ZM1032,206.2c2.5-4.2,5.9-7.5,10.3-9.7s9.2-3.4,14.7-3.4,10.3,1.1,14.7,3.4c4.4,2.2,7.8,5.5,10.2,9.7,2.5,4.2,3.7,9.1,3.7,14.7s-1.2,10.6-3.7,14.8c-2.4,4.2-5.8,7.4-10.2,9.6-4.3,2.2-9.2,3.4-14.7,3.4s-10.3-1.1-14.7-3.4c-4.3-2.2-7.8-5.4-10.3-9.6-2.4-4.2-3.6-9.2-3.6-14.8s1.2-10.5,3.6-14.7ZM1028,302.5c3.4-2.2,7.2-3.4,11.4-3.4s6.5.7,9,2.2c2.6,1.4,4.5,3.4,5.9,5.9v-24.3h21.3v71h-21.3v-7.4c-1.4,2.5-3.3,4.5-5.9,6-2.5,1.4-5.5,2.1-9,2.1s-8-1.1-11.4-3.3c-3.4-2.2-6.1-5.4-8.1-9.6-1.9-4.2-2.9-9.2-2.9-14.9s1-10.6,2.9-14.8c2-4.2,4.7-7.4,8.1-9.6ZM1037.5,443.7c2.3,0,4-1.1,5-3.2h22.6c-.8,3.8-2.4,7.3-4.9,10.4-2.4,3-5.5,5.4-9.3,7.2-3.7,1.7-7.8,2.6-12.3,2.6s-10.2-1.1-14.4-3.4c-4.2-2.2-7.4-5.4-9.8-9.6-2.3-4.2-3.5-9.2-3.5-14.8s1.2-10.5,3.5-14.7c2.4-4.2,5.6-7.5,9.8-9.7,4.2-2.2,9-3.4,14.4-3.4s10.1,1.1,14.3,3.4c4.2,2.2,7.5,5.3,9.8,9.4,2.4,4.1,3.5,8.9,3.5,14.5s0,2.9-.3,4.2h-34.3c.3,4.7,2.3,7,5.9,7ZM1056.9,483.4v15.7l-24.9,9v-14.2l24.9-10.6ZM999.2,228.9c-1.3-.5-3.6-1.1-6.8-1.7-3.9-.8-7.1-1.6-9.7-2.5-2.5-.9-4.7-2.4-6.6-4.6-1.9-2.2-2.8-5.2-2.8-9s.9-6.3,2.6-9c1.8-2.8,4.4-4.9,7.9-6.4,3.5-1.6,7.6-2.4,12.6-2.4,7.3,0,13,1.8,17.1,5.4,4.2,3.6,6.7,8.3,7.5,14h-18.9c-.3-1.5-1-2.6-2-3.4-1-.8-2.4-1.2-4.1-1.2s-1.9.2-2.5.7c-.6.4-.9,1-.9,1.8s.7,1.9,2,2.5c1.3.5,3.5,1.1,6.4,1.6,3.9.8,7.2,1.6,9.9,2.6,2.7,1,5,2.6,7,5,2,2.3,3,5.5,3,9.6s-.9,6.1-2.8,8.6c-1.9,2.6-4.6,4.6-8.1,6-3.5,1.5-7.5,2.2-12.2,2.2s-9.7-.8-13.6-2.5c-3.9-1.7-7-4-9.3-6.9-2.3-2.9-3.6-6.3-3.9-10h20.4c.3,1.6.9,2.8,2,3.6,1.2.8,2.6,1.2,4.3,1.2s2-.2,2.6-.7c.6-.5,1-1.1,1-1.8,0-1.2-.7-2.1-2-2.6ZM952.8,312.1c2-4.2,4.7-7.4,8.1-9.6,3.4-2.2,7.2-3.4,11.4-3.4s6.6.7,9.1,2.2c2.6,1.4,4.5,3.4,5.9,5.9v-7.4h21.2v54.1h-21.2v-7.4c-1.3,2.5-3.3,4.5-5.9,6-2.6,1.4-5.6,2.1-9.1,2.1s-8-1.1-11.4-3.3c-3.4-2.2-6.1-5.4-8.1-9.6-1.9-4.2-2.9-9.2-2.9-14.9s1-10.6,2.9-14.8ZM946.6,389h21.3v24.3c1.3-2.5,3.3-4.4,5.8-5.9,2.6-1.5,5.6-2.2,9.1-2.2s8,1.1,11.4,3.4c3.4,2.2,6.1,5.4,8,9.6,2,4.2,3,9.1,3,14.8s-1,10.7-3,14.9c-1.9,4.2-4.6,7.4-8,9.6-3.4,2.2-7.2,3.3-11.4,3.3s-6.6-.7-9.1-2.1c-2.5-1.5-4.4-3.5-5.8-6v7.4h-21.3v-71ZM959.1,564.6c-2.6,1.4-5.6,2.1-9.1,2.1s-8-1.1-11.4-3.3c-3.4-2.2-6.1-5.4-8.1-9.6-1.9-4.2-2.9-9.2-2.9-14.9s1-10.6,2.9-14.8c2-4.2,4.7-7.4,8.1-9.6,3.4-2.2,7.2-3.4,11.4-3.4s6.6.7,9.1,2.2c2.6,1.4,4.5,3.4,5.9,5.9v-7.4h21.2v54.1h-21.2v-7.4c-1.3,2.5-3.3,4.5-5.9,6ZM897.6,495h21.3v71h-21.3v-71ZM880.9,460v-71h21.3v71h-21.3ZM913.7,460v-54.1h21.3v54.1h-21.3ZM912.2,391.1c0-3.1,1.1-5.6,3.4-7.6,2.2-2,5.2-3.1,8.9-3.1s6.6,1,8.8,3.1c2.2,2,3.4,4.5,3.4,7.6s-1.1,5.5-3.4,7.5c-2.2,2-5.2,3-8.8,3s-6.7-1-8.9-3c-2.2-2-3.4-4.5-3.4-7.5ZM923.5,228.9c-1.3-.5-3.6-1.1-6.8-1.7-3.9-.8-7.1-1.6-9.7-2.5-2.5-.9-4.7-2.4-6.6-4.6-1.9-2.2-2.8-5.2-2.8-9s.9-6.3,2.6-9c1.8-2.8,4.4-4.9,7.9-6.4,3.5-1.6,7.6-2.4,12.6-2.4,7.3,0,13,1.8,17.1,5.4,4.2,3.6,6.7,8.3,7.5,14h-18.9c-.3-1.5-1-2.6-2-3.4-1-.8-2.4-1.2-4.1-1.2s-1.9.2-2.5.7c-.6.4-.9,1-.9,1.8s.7,1.9,2,2.5c1.3.5,3.5,1.1,6.4,1.6,3.9.8,7.2,1.6,9.9,2.6,2.7,1,5,2.6,7,5,2,2.3,3,5.5,3,9.6s-.9,6.1-2.8,8.6c-1.9,2.6-4.5,4.6-8.1,6-3.5,1.5-7.5,2.2-12.2,2.2s-9.7-.8-13.6-2.5c-3.9-1.7-7-4-9.3-6.9-2.3-2.9-3.6-6.3-3.9-10h20.4c.3,1.6.9,2.8,2,3.6,1.2.8,2.6,1.2,4.3,1.2s2-.2,2.6-.7c.6-.5,1-1.1,1-1.8,0-1.2-.7-2.1-2-2.6ZM892.9,312.2c2.4-4.2,5.6-7.5,9.8-9.7,4.2-2.2,9-3.4,14.4-3.4s13,2,17.8,6c4.9,4,7.9,9.5,9.2,16.5h-22.6c-.8-2.8-2.5-4.2-4.9-4.2s-3.1.8-4.1,2.4c-1,1.6-1.4,4-1.4,7.1s.5,5.5,1.4,7.1c1,1.6,2.4,2.4,4.1,2.4s4.1-1.4,4.9-4.2h22.6c-1.3,7-4.4,12.5-9.2,16.5-4.8,4-10.7,6-17.8,6s-10.2-1.1-14.4-3.4c-4.2-2.2-7.4-5.4-9.8-9.6-2.3-4.2-3.5-9.2-3.5-14.8s1.2-10.5,3.5-14.7ZM835.7,206.2c2.5-4.2,5.9-7.5,10.3-9.7,4.4-2.2,9.2-3.4,14.7-3.4s10.3,1.1,14.7,3.4,7.7,5.5,10.2,9.7c2.5,4.2,3.7,9.1,3.7,14.7s-1.2,10.6-3.7,14.8c-2.4,4.2-5.8,7.4-10.2,9.6-4.4,2.2-9.2,3.4-14.7,3.4s-10.3-1.1-14.7-3.4c-4.4-2.2-7.8-5.4-10.3-9.6-2.4-4.2-3.6-9.2-3.6-14.8s1.2-10.5,3.6-14.7ZM868.3,270.8v15.7l-24.9,9v-14.2l24.9-10.6ZM831.8,312.2c2.4-4.2,5.6-7.5,9.8-9.7,4.2-2.2,9-3.4,14.4-3.4s10.1,1.1,14.3,3.4c4.2,2.2,7.5,5.3,9.8,9.4,2.4,4.1,3.6,8.9,3.6,14.5,0,1.5,0,2.9-.3,4.2h-34.3c.3,4.7,2.3,7,5.9,7,2.3,0,4-1.1,5-3.2h22.6c-.8,3.8-2.4,7.3-4.9,10.4-2.4,3-5.5,5.4-9.3,7.2-3.7,1.7-7.8,2.6-12.3,2.6s-10.2-1.1-14.4-3.4c-4.2-2.2-7.4-5.4-9.8-9.6-2.3-4.2-3.5-9.2-3.5-14.8s1.2-10.5,3.5-14.7ZM842.7,531c1.3.5,3.5,1.1,6.4,1.6,3.9.8,7.2,1.6,9.9,2.6,2.7,1,5,2.6,7,5,2,2.3,3,5.5,3,9.6s-.9,6.1-2.8,8.6c-1.9,2.6-4.5,4.6-8.1,6-3.5,1.5-7.5,2.2-12.2,2.2s-9.7-.8-13.6-2.5c-3.9-1.7-7-4-9.3-6.9-2.3-2.9-3.6-6.3-3.9-10h20.4c.3,1.6.9,2.8,2,3.6,1.2.8,2.6,1.2,4.3,1.2s2-.2,2.6-.7c.6-.5,1-1.1,1-1.8,0-1.2-.7-2.1-2-2.6-1.3-.5-3.6-1.1-6.8-1.7-3.9-.8-7.1-1.6-9.7-2.5-2.5-.9-4.7-2.4-6.6-4.6-1.9-2.2-2.8-5.2-2.8-9s.9-6.3,2.6-9c1.8-2.8,4.4-4.9,7.9-6.4,3.5-1.6,7.6-2.4,12.6-2.4,7.3,0,13,1.8,17.1,5.4,4.2,3.6,6.7,8.3,7.5,14h-18.9c-.3-1.5-1-2.6-2-3.4-1-.8-2.4-1.2-4.1-1.2s-1.9.2-2.5.7c-.6.4-.9,1-.9,1.8s.7,1.9,2,2.5ZM829.9,413.2v-7.4h21.2v54.1h-21.2v-7.4c-1.3,2.5-3.3,4.5-5.9,6-2.6,1.4-5.6,2.1-9.1,2.1s-8-1.1-11.4-3.3c-3.4-2.2-6.1-5.4-8.1-9.6-1.9-4.2-2.9-9.2-2.9-14.9s1-10.6,2.9-14.8c2-4.2,4.7-7.4,8.1-9.6,3.4-2.2,7.2-3.4,11.4-3.4s6.6.7,9.1,2.2c2.6,1.4,4.5,3.4,5.9,5.9ZM766.1,177h21.3v25.2c1.7-2.6,3.9-4.6,6.6-6.2,2.8-1.6,6.1-2.4,10-2.4,6.2,0,11,2.1,14.5,6.2,3.5,4.2,5.3,9.8,5.3,16.9v31.4h-21.2v-28.7c0-2.6-.7-4.6-2.1-6-1.3-1.5-3.2-2.3-5.5-2.3s-4.2.8-5.6,2.3c-1.3,1.5-2,3.5-2,6v28.7h-21.3v-71ZM764.1,312.1c2-4.2,4.7-7.4,8.1-9.6,3.4-2.2,7.2-3.4,11.4-3.4s6.5.7,9,2.2c2.6,1.4,4.5,3.4,5.9,5.9v-24.3h21.3v71h-21.3v-7.4c-1.3,2.5-3.3,4.5-5.9,6-2.5,1.4-5.5,2.1-9,2.1s-8-1.1-11.4-3.3c-3.4-2.2-6.1-5.4-8.1-9.6-1.9-4.2-2.9-9.2-2.9-14.9s1-10.6,2.9-14.8ZM783.9,389v71h-21.3v-71h21.3ZM761.4,524.2c2.4-4.2,5.6-7.5,9.8-9.7,4.2-2.2,9-3.4,14.4-3.4s10.1,1.1,14.3,3.4c4.2,2.2,7.5,5.3,9.8,9.4,2.4,4.1,3.6,8.9,3.6,14.5s0,2.9-.3,4.2h-34.3c.3,4.7,2.3,7,5.9,7s4-1.1,5-3.2h22.6c-.8,3.8-2.4,7.3-4.9,10.4-2.4,3-5.5,5.4-9.3,7.2-3.7,1.7-7.8,2.6-12.3,2.6s-10.2-1.1-14.4-3.4c-4.2-2.2-7.4-5.4-9.8-9.6-2.3-4.2-3.5-9.2-3.5-14.8s1.2-10.5,3.5-14.7ZM706.3,206.2c2.4-4.2,5.6-7.5,9.8-9.7,4.2-2.2,9-3.4,14.4-3.4s13,2,17.8,6c4.9,4,7.9,9.5,9.2,16.5h-22.6c-.8-2.8-2.5-4.2-4.9-4.2s-3.1.8-4.1,2.4c-1,1.6-1.4,4-1.4,7.1s.5,5.5,1.4,7.1c1,1.6,2.4,2.4,4.1,2.4s4.1-1.4,4.9-4.2h22.6c-1.3,7-4.4,12.5-9.2,16.5-4.8,4-10.7,6-17.8,6s-10.2-1.1-14.4-3.4c-4.2-2.2-7.4-5.4-9.8-9.6-2.3-4.2-3.5-9.2-3.5-14.8s1.2-10.5,3.5-14.7ZM708.5,337.7c2.3,0,4-1.1,5-3.2h22.6c-.8,3.8-2.4,7.3-4.9,10.4-2.4,3-5.5,5.4-9.3,7.2-3.7,1.7-7.8,2.6-12.3,2.6s-10.2-1.1-14.4-3.4c-4.2-2.2-7.4-5.4-9.8-9.6-2.3-4.2-3.5-9.2-3.5-14.8s1.2-10.5,3.5-14.7c2.4-4.2,5.6-7.5,9.8-9.7,4.2-2.2,9-3.4,14.4-3.4s10.1,1.1,14.3,3.4c4.2,2.2,7.5,5.3,9.8,9.4,2.4,4.1,3.6,8.9,3.6,14.5s0,2.9-.3,4.2h-34.3c.3,4.7,2.3,7,5.9,7ZM705.9,531c1.3.5,3.5,1.1,6.4,1.6,3.9.8,7.2,1.6,9.9,2.6,2.7,1,5,2.6,7,5,2,2.3,3,5.5,3,9.6s-.9,6.1-2.8,8.6c-1.9,2.6-4.5,4.6-8.1,6-3.5,1.5-7.5,2.2-12.2,2.2s-9.7-.8-13.6-2.5c-3.9-1.7-7-4-9.3-6.9-2.3-2.9-3.6-6.3-3.9-10h20.4c.3,1.6.9,2.8,2,3.6,1.2.8,2.6,1.2,4.3,1.2s2-.2,2.6-.7c.6-.5,1-1.1,1-1.8,0-1.2-.7-2.1-2-2.6s-3.6-1.1-6.8-1.7c-3.9-.8-7.1-1.6-9.7-2.5-2.5-.9-4.7-2.4-6.6-4.6-1.9-2.2-2.8-5.2-2.8-9s.9-6.3,2.6-9c1.8-2.8,4.4-4.9,7.9-6.4,3.5-1.6,7.6-2.4,12.6-2.4,7.3,0,13,1.8,17.1,5.4,4.2,3.6,6.7,8.3,7.5,14h-18.9c-.3-1.5-1-2.6-2-3.4-1-.8-2.4-1.2-4.1-1.2s-1.9.2-2.5.7c-.6.4-.9,1-.9,1.8s.7,1.9,2,2.5ZM682.6,670.6c-2.5,1.4-5.5,2.1-9,2.1s-8-1.1-11.4-3.3c-3.4-2.2-6.1-5.4-8.1-9.6-1.9-4.2-2.9-9.2-2.9-14.9s1-10.6,2.9-14.8c2-4.2,4.7-7.4,8.1-9.6,3.4-2.2,7.2-3.4,11.4-3.4s6.5.7,9,2.2c2.6,1.4,4.5,3.4,5.9,5.9v-24.3h21.3v71h-21.3v-7.4c-1.3,2.5-3.3,4.5-5.9,6ZM711.7,460v-7.4c-1.3,2.5-3.3,4.5-5.9,6-2.6,1.4-5.6,2.1-9.1,2.1s-8-1.1-11.4-3.3c-3.4-2.2-6.1-5.4-8.1-9.6-1.9-4.2-2.9-9.2-2.9-14.9s1-10.6,2.9-14.8c2-4.2,4.7-7.4,8.1-9.6,3.4-2.2,7.2-3.4,11.4-3.4s6.6.7,9.1,2.2c2.6,1.4,4.5,3.4,5.9,5.9v-7.4h21.2v54.1h-21.2ZM645.2,206.2c2.4-4.2,5.6-7.5,9.8-9.7,4.2-2.2,9-3.4,14.4-3.4s10.1,1.1,14.3,3.4c4.2,2.2,7.5,5.3,9.8,9.4,2.4,4.1,3.6,8.9,3.6,14.5s0,2.9-.3,4.2h-34.3c.3,4.7,2.3,7,5.9,7s4-1.1,5-3.2h22.6c-.8,3.8-2.4,7.3-4.9,10.4-2.4,3-5.5,5.4-9.3,7.2-3.7,1.7-7.8,2.6-12.3,2.6s-10.2-1.1-14.4-3.4c-4.2-2.2-7.4-5.4-9.8-9.6-2.3-4.2-3.5-9.2-3.5-14.8s1.2-10.5,3.5-14.7ZM646.1,301.4c2.6,1.4,4.5,3.4,5.9,5.9v-24.3h21.3v71h-21.3v-7.4c-1.3,2.5-3.3,4.5-5.9,6-2.5,1.4-5.5,2.1-9,2.1s-8-1.1-11.4-3.3c-3.4-2.2-6.1-5.4-8.1-9.6-1.9-4.2-2.9-9.2-2.9-14.9s1-10.6,2.9-14.8c2-4.2,4.7-7.4,8.1-9.6,3.4-2.2,7.2-3.4,11.4-3.4s6.5.7,9,2.2ZM664,398.6c-2.2,2-5.2,3-8.8,3s-6.7-1-8.9-3c-2.2-2-3.4-4.5-3.4-7.5s1.1-5.6,3.4-7.6c2.2-2,5.2-3.1,8.9-3.1s6.6,1,8.8,3.1c2.2,2,3.4,4.5,3.4,7.6s-1.1,5.5-3.4,7.5ZM665.7,405.9v54.1h-21.3v-54.1h21.3ZM597.9,193.9h21.3v10c2.2-3.1,4.8-5.6,8-7.5,3.1-1.9,6.4-2.9,9.8-2.9v22.8h-6c-4,0-7,.7-8.9,2.1-1.9,1.4-2.8,3.9-2.8,7.5v22.2h-21.3v-54.1ZM608.7,405.2c7,0,13,2,17.8,6,4.9,4,7.9,9.5,9.2,16.5h-22.6c-.8-2.8-2.5-4.2-4.9-4.2s-3.1.8-4.1,2.4c-1,1.6-1.4,4-1.4,7.1s.5,5.5,1.4,7.1c1,1.6,2.4,2.4,4.1,2.4s4.1-1.4,4.9-4.2h22.6c-1.3,7-4.4,12.5-9.2,16.5-4.8,4-10.7,6-17.8,6s-10.2-1.1-14.4-3.4c-4.2-2.2-7.4-5.4-9.8-9.6-2.3-4.2-3.5-9.2-3.5-14.8s1.2-10.5,3.5-14.7c2.4-4.2,5.6-7.5,9.8-9.7,4.2-2.2,9-3.4,14.4-3.4ZM610.6,495v71h-21.3v-71h21.3ZM505.2,549.7c2.3,0,4-1.1,5-3.2h22.6c-.8,3.8-2.4,7.3-4.9,10.4-2.4,3-5.5,5.4-9.3,7.2-3.7,1.7-7.8,2.6-12.3,2.6s-10.2-1.1-14.4-3.4c-4.2-2.2-7.4-5.4-9.8-9.6-2.3-4.2-3.5-9.2-3.5-14.8s1.2-10.5,3.5-14.7c2.4-4.2,5.6-7.5,9.8-9.7,4.2-2.2,9-3.4,14.4-3.4s10.1,1.1,14.3,3.4c4.2,2.2,7.5,5.3,9.8,9.4,2.4,4.1,3.6,8.9,3.6,14.5s0,2.9-.3,4.2h-34.3c.3,4.7,2.3,7,5.9,7ZM475.9,407.9c2.8-1.6,6.1-2.4,10-2.4,6.2,0,11,2.1,14.5,6.2,3.5,4.2,5.3,9.8,5.3,16.9v31.4h-21.2v-28.7c0-2.6-.7-4.6-2.1-6-1.3-1.5-3.2-2.3-5.5-2.3s-4.2.8-5.6,2.3c-1.3,1.5-2,3.5-2,6v28.7h-21.3v-71h21.3v25.2c1.7-2.6,3.9-4.6,6.6-6.2ZM524.8,457.4c-3.4-2.2-6.1-5.4-8.1-9.6-1.9-4.2-2.9-9.2-2.9-14.9s1-10.6,2.9-14.8c2-4.2,4.7-7.4,8.1-9.6,3.4-2.2,7.2-3.4,11.4-3.4s6.6.7,9.1,2.2c2.6,1.4,4.5,3.4,5.9,5.9v-7.4h21.2v54.1h-21.2v-7.4c-1.3,2.5-3.3,4.5-5.9,6-2.6,1.4-5.6,2.1-9.1,2.1s-8-1.1-11.4-3.3ZM542.5,511.9h21.3v10c2.2-3.1,4.8-5.6,8-7.5,3.1-1.9,6.4-2.9,9.8-2.9v22.8h-6c-4,0-7,.7-8.9,2.1-1.9,1.4-2.8,3.9-2.8,7.5v22.2h-21.3v-54.1ZM537.4,206.2c2.4-4.2,5.6-7.5,9.8-9.7,4.2-2.2,9-3.4,14.4-3.4s10.1,1.1,14.3,3.4c4.2,2.2,7.5,5.3,9.8,9.4,2.4,4.1,3.6,8.9,3.6,14.5s0,2.9-.3,4.2h-34.3c.3,4.7,2.3,7,5.9,7s4-1.1,5-3.2h22.6c-.8,3.8-2.4,7.3-4.9,10.4-2.4,3-5.5,5.4-9.3,7.2-3.7,1.7-7.8,2.6-12.3,2.6s-10.2-1.1-14.4-3.4c-4.2-2.2-7.4-5.4-9.8-9.6-2.3-4.2-3.5-9.2-3.5-14.8s1.2-10.5,3.5-14.7ZM537.2,312.2c2.5-4.2,5.9-7.5,10.3-9.7,4.4-2.2,9.2-3.4,14.7-3.4s10.3,1.1,14.7,3.4c4.4,2.2,7.7,5.5,10.2,9.7,2.5,4.2,3.7,9.1,3.7,14.7s-1.2,10.6-3.7,14.8c-2.4,4.2-5.8,7.4-10.2,9.6-4.4,2.2-9.2,3.4-14.7,3.4s-10.3-1.1-14.7-3.4c-4.4-2.2-7.8-5.4-10.3-9.6-2.4-4.2-3.6-9.2-3.6-14.8s1.2-10.5,3.6-14.7ZM469.6,206.1c2-4.2,4.7-7.4,8.1-9.6,3.4-2.2,7.2-3.4,11.4-3.4s6.5.7,9,2.2c2.6,1.4,4.5,3.4,5.9,5.9v-24.3h21.3v71h-21.3v-7.4c-1.3,2.5-3.3,4.5-5.9,6-2.5,1.4-5.5,2.1-9,2.1s-8-1.1-11.4-3.3c-3.4-2.2-6.1-5.4-8.1-9.6-1.9-4.2-2.9-9.2-2.9-14.9s1-10.6,2.9-14.8ZM469.3,312.1c2-4.2,4.7-7.4,8.1-9.6,3.4-2.2,7.2-3.4,11.4-3.4s6.5.7,9,2.2c2.6,1.4,4.5,3.4,5.9,5.9v-24.3h21.3v71h-21.3v-7.4c-1.3,2.5-3.3,4.5-5.9,6-2.5,1.4-5.5,2.1-9,2.1s-8-1.1-11.4-3.3c-3.4-2.2-6.1-5.4-8.1-9.6-1.9-4.2-2.9-9.2-2.9-14.9s1-10.6,2.9-14.8ZM457.8,354h-21.2v-7.4c-1.3,2.5-3.3,4.5-5.9,6-2.6,1.4-5.6,2.1-9.1,2.1s-8-1.1-11.4-3.3c-3.4-2.2-6.1-5.4-8.1-9.6-1.9-4.2-2.9-9.2-2.9-14.9s1-10.6,2.9-14.8c2-4.2,4.7-7.4,8.1-9.6,3.4-2.2,7.2-3.4,11.4-3.4s6.6.7,9.1,2.2c2.6,1.4,4.5,3.4,5.9,5.9v-7.4h21.2v54.1ZM419.4,228.9c-1.3-.5-3.6-1.1-6.8-1.7-3.9-.8-7.1-1.6-9.7-2.5-2.5-.9-4.7-2.4-6.6-4.6-1.9-2.2-2.8-5.2-2.8-9s.9-6.3,2.6-9c1.8-2.8,4.4-4.9,7.9-6.4,3.5-1.6,7.6-2.4,12.6-2.4,7.3,0,13,1.8,17.1,5.4,4.2,3.6,6.7,8.3,7.5,14h-18.9c-.3-1.5-1-2.6-2-3.4-1-.8-2.4-1.2-4.1-1.2s-1.9.2-2.5.7c-.6.4-.9,1-.9,1.8s.7,1.9,2,2.5c1.3.5,3.5,1.1,6.4,1.6,3.9.8,7.2,1.6,9.9,2.6,2.7,1,5,2.6,7,5,2,2.3,3,5.5,3,9.6s-.9,6.1-2.8,8.6c-1.9,2.6-4.5,4.6-8.1,6-3.5,1.5-7.5,2.2-12.2,2.2s-9.7-.8-13.6-2.5c-3.9-1.7-7-4-9.3-6.9-2.3-2.9-3.6-6.3-3.9-10h20.4c.3,1.6.9,2.8,2,3.6,1.2.8,2.6,1.2,4.3,1.2s2-.2,2.6-.7c.6-.5,1-1.1,1-1.8,0-1.2-.7-2.1-2-2.6ZM355,317.6v-17.8h6.7v-13.1h21.3v13.1h8.8v17.8h-8.8v14.6c0,1.3.3,2.2.9,2.8.6.6,1.7.9,3.1.9h5.1v18.1h-8.1c-14.8,0-22.3-7.4-22.3-22.2v-14.2h-6.7ZM331.7,206.2c2.5-4.2,5.9-7.5,10.3-9.7s9.2-3.4,14.7-3.4,10.3,1.1,14.7,3.4c4.4,2.2,7.7,5.5,10.2,9.7,2.5,4.2,3.7,9.1,3.7,14.7s-1.2,10.6-3.7,14.8c-2.4,4.2-5.8,7.4-10.2,9.6-4.4,2.2-9.2,3.4-14.7,3.4s-10.3-1.1-14.7-3.4c-4.4-2.2-7.8-5.4-10.3-9.6-2.4-4.2-3.6-9.2-3.6-14.8s1.2-10.5,3.6-14.7ZM325.5,283h21.3v71h-21.3v-71ZM283.9,193.9h6.7v-13.1h21.3v13.1h8.8v17.8h-8.8v14.6c0,1.3.3,2.2.9,2.8.6.6,1.7.9,3.1.9h5.1v18.1h-8.1c-14.8,0-22.3-7.4-22.3-22.2v-14.2h-6.7v-17.8ZM279.5,334.7c1.4,1.5,3.3,2.2,5.6,2.2s4.2-.7,5.6-2.2c1.3-1.5,2-3.6,2-6.1v-28.7h21.3v54.1h-21.3v-8.3c-1.7,2.6-3.9,4.6-6.7,6.2-2.8,1.6-6,2.4-9.9,2.4-6.2,0-11.1-2.1-14.6-6.2-3.5-4.2-5.2-9.8-5.2-16.9v-31.4h21.2v28.7c0,2.6.7,4.6,2,6.1ZM272.5,425c1.3.5,3.5,1.1,6.4,1.6,3.9.8,7.2,1.6,9.9,2.6,2.7,1,5,2.6,7,5,2,2.3,3,5.5,3,9.6s-.9,6.1-2.8,8.6c-1.9,2.6-4.5,4.6-8.1,6-3.5,1.5-7.5,2.2-12.2,2.2s-9.7-.8-13.6-2.5c-3.9-1.7-7-4-9.3-6.9-2.3-2.9-3.6-6.3-3.9-10h20.4c.3,1.6.9,2.8,2,3.6,1.2.8,2.6,1.2,4.3,1.2s2-.2,2.6-.7c.6-.5,1-1.1,1-1.8,0-1.2-.7-2.1-2-2.6-1.3-.5-3.6-1.1-6.8-1.7-3.9-.8-7.1-1.6-9.7-2.5-2.5-.9-4.7-2.4-6.6-4.6-1.9-2.2-2.8-5.2-2.8-9s.9-6.3,2.6-9c1.8-2.8,4.4-4.9,7.9-6.4,3.5-1.6,7.6-2.4,12.6-2.4,7.3,0,13,1.8,17.1,5.4,4.2,3.6,6.7,8.3,7.5,14h-18.9c-.3-1.5-1-2.6-2-3.4-1-.8-2.4-1.2-4.1-1.2s-1.9.2-2.5.7c-.6.4-.9,1-.9,1.8s.7,1.9,2,2.5ZM255.2,228.9c-1.3-.5-3.6-1.1-6.8-1.7-3.9-.8-7.1-1.6-9.7-2.5-2.5-.9-4.7-2.4-6.6-4.6-1.9-2.2-2.8-5.2-2.8-9s.9-6.3,2.6-9c1.8-2.8,4.4-4.9,7.9-6.4,3.5-1.6,7.6-2.4,12.6-2.4,7.3,0,13,1.8,17.1,5.4,4.2,3.6,6.7,8.3,7.5,14h-18.9c-.3-1.5-1-2.6-2-3.4-1-.8-2.4-1.2-4.1-1.2s-1.9.2-2.5.7c-.6.4-.9,1-.9,1.8s.7,1.9,2,2.5c1.3.5,3.5,1.1,6.4,1.6,3.9.8,7.2,1.6,9.9,2.6,2.7,1,5,2.6,7,5,2,2.3,3,5.5,3,9.6s-.9,6.1-2.8,8.6c-1.9,2.6-4.5,4.6-8.1,6-3.5,1.5-7.5,2.2-12.2,2.2s-9.7-.8-13.6-2.5c-3.9-1.7-7-4-9.3-6.9-2.3-2.9-3.6-6.3-3.9-10h20.4c.3,1.6.9,2.8,2,3.6,1.2.8,2.6,1.2,4.3,1.2s2-.2,2.6-.7c.6-.5,1-1.1,1-1.8,0-1.2-.7-2.1-2-2.6ZM174.4,180h45.3v17h-24v8.4h21.1v16h-21.1v9.6h24v17h-45.3v-68ZM138.6,312.2c2.4-4.2,5.6-7.5,9.8-9.7,4.2-2.2,9-3.4,14.4-3.4s10.1,1.1,14.3,3.4c4.2,2.2,7.5,5.3,9.8,9.4,2.4,4.1,3.6,8.9,3.6,14.5s0,2.9-.3,4.2h-34.3c.3,4.7,2.3,7,5.9,7s4-1.1,5-3.2h22.6c-.8,3.8-2.4,7.3-4.9,10.4-2.4,3-5.5,5.4-9.3,7.2-3.7,1.7-7.8,2.6-12.3,2.6s-10.2-1.1-14.4-3.4c-4.2-2.2-7.4-5.4-9.8-9.6-2.3-4.2-3.5-9.2-3.5-14.8s1.2-10.5,3.5-14.7ZM112.6,331.8v22.2h-21.3v-54.1h21.3v10c2.2-3.1,4.8-5.6,8-7.5,3.1-1.9,6.4-2.9,9.8-2.9v22.8h-6c-4,0-7,.7-8.9,2.1-1.9,1.4-2.8,3.9-2.8,7.5ZM117.4,405.9h21.3v7.4c1.3-2.5,3.3-4.4,5.8-5.9,2.6-1.5,5.6-2.2,9.1-2.2s8,1.1,11.4,3.4c3.4,2.2,6,5.4,8,9.6,2,4.2,3,9.1,3,14.8s-1,10.7-3,14.9c-1.9,4.2-4.6,7.4-8,9.6-3.4,2.2-7.2,3.3-11.4,3.3s-6.6-.7-9.1-2.1c-2.5-1.5-4.4-3.5-5.8-6v33.3h-21.3v-80.1ZM188.1,533.1c-2,3.5-4.9,6.2-8.8,8.3-3.8,2-8.5,3.1-14,3.1h-8.4v21.6h-21.3v-68h29.8c8.3,0,14.7,2.1,19.1,6.3,4.5,4.2,6.7,9.9,6.7,17s-1,8.2-3,11.7ZM238.9,534.2h-6c-4,0-7,.7-8.9,2.1-1.9,1.4-2.8,3.9-2.8,7.5v22.2h-21.3v-54.1h21.3v10c2.2-3.1,4.8-5.6,8-7.5,3.1-1.9,6.4-2.9,9.8-2.9v22.8ZM240.2,460h-21.2v-7.4c-1.3,2.5-3.3,4.5-5.9,6-2.6,1.4-5.6,2.1-9.1,2.1s-8-1.1-11.4-3.3c-3.4-2.2-6.1-5.4-8.1-9.6-1.9-4.2-2.9-9.2-2.9-14.9s1-10.6,2.9-14.8c2-4.2,4.7-7.4,8.1-9.6,3.4-2.2,7.2-3.4,11.4-3.4s6.6.7,9.1,2.2c2.6,1.4,4.5,3.4,5.9,5.9v-7.4h21.2v54.1ZM235.4,352.5c-3.5,1.5-7.5,2.2-12.2,2.2s-9.7-.8-13.6-2.5c-3.9-1.7-7-4-9.3-6.9-2.3-2.9-3.6-6.3-3.9-10h20.4c.3,1.6.9,2.8,2,3.6,1.2.8,2.6,1.2,4.3,1.2s2-.2,2.6-.7c.6-.5,1-1.1,1-1.8,0-1.2-.7-2.1-2-2.6-1.3-.5-3.6-1.1-6.8-1.7-3.9-.8-7.1-1.6-9.7-2.5-2.5-.9-4.7-2.4-6.6-4.6-1.9-2.2-2.8-5.2-2.8-9s.9-6.3,2.6-9c1.8-2.8,4.4-4.9,7.9-6.4,3.5-1.6,7.6-2.4,12.6-2.4,7.3,0,13,1.8,17.1,5.4,4.2,3.6,6.7,8.3,7.5,14h-18.9c-.3-1.5-1-2.6-2-3.4-1-.8-2.4-1.2-4.1-1.2s-1.9.2-2.5.7c-.6.4-.9,1-.9,1.8s.7,1.9,2,2.5c1.3.5,3.5,1.1,6.4,1.6,3.9.8,7.2,1.6,9.9,2.6,2.7,1,5,2.6,7,5,2,2.3,3,5.5,3,9.6s-.9,6.1-2.8,8.6c-1.9,2.6-4.5,4.6-8.1,6ZM297.1,553.7c-2.4,4.2-5.8,7.4-10.2,9.6-4.4,2.2-9.2,3.4-14.7,3.4s-10.3-1.1-14.7-3.4c-4.4-2.2-7.8-5.4-10.3-9.6-2.4-4.2-3.6-9.2-3.6-14.8s1.2-10.5,3.6-14.7c2.5-4.2,5.9-7.5,10.3-9.7,4.4-2.2,9.2-3.4,14.7-3.4s10.3,1.1,14.7,3.4,7.7,5.5,10.2,9.7c2.5,4.2,3.7,9.1,3.7,14.7s-1.2,10.6-3.7,14.8ZM306.1,511.9h6.7v-13.1h21.3v13.1h8.8v17.8h-8.8v14.6c0,1.3.3,2.2.9,2.8.6.6,1.7.9,3.1.9h5.1v18.1h-8.1c-14.8,0-22.3-7.4-22.3-22.2v-14.2h-6.7v-17.8ZM346.1,614c-1.2-.1-2-.2-2.4-.2-1.6,0-2.8.3-3.6,1-.8.6-1.4,1.6-1.7,3.1h7.8v17.8h-8v36.4h-21.3v-36.4h-5.8v-17.8h5.8c.1-7,2.3-12.5,6.6-16.3,4.4-3.9,10.4-5.9,18.2-5.9s2.4,0,4.4.2v18.1ZM335,460.7c-5.4,0-10.3-1.1-14.7-3.4-4.4-2.2-7.8-5.4-10.3-9.6-2.4-4.2-3.6-9.2-3.6-14.8s1.2-10.5,3.6-14.7c2.5-4.2,5.9-7.5,10.3-9.7,4.4-2.2,9.2-3.4,14.7-3.4s10.3,1.1,14.7,3.4c4.4,2.2,7.7,5.5,10.2,9.7,2.5,4.2,3.7,9.1,3.7,14.7s-1.2,10.6-3.7,14.8c-2.4,4.2-5.8,7.4-10.2,9.6-4.4,2.2-9.2,3.4-14.7,3.4ZM353.8,524.2c2.4-4.2,5.6-7.5,9.8-9.7,4.2-2.2,9-3.4,14.4-3.4s10.1,1.1,14.3,3.4c4.2,2.2,7.5,5.3,9.8,9.4,2.4,4.1,3.6,8.9,3.6,14.5s0,2.9-.3,4.2h-34.3c.3,4.7,2.3,7,5.9,7s4-1.1,5-3.2h22.6c-.8,3.8-2.4,7.3-4.9,10.4-2.4,3-5.5,5.4-9.3,7.2-3.7,1.7-7.8,2.6-12.3,2.6s-10.2-1.1-14.4-3.4c-4.2-2.2-7.4-5.4-9.8-9.6-2.3-4.2-3.5-9.2-3.5-14.8s1.2-10.5,3.5-14.7ZM404.3,659.7c-2.4,4.2-5.8,7.4-10.2,9.6-4.4,2.2-9.2,3.4-14.7,3.4s-10.3-1.1-14.7-3.4c-4.4-2.2-7.8-5.4-10.3-9.6-2.4-4.2-3.6-9.2-3.6-14.8s1.2-10.5,3.6-14.7c2.5-4.2,5.9-7.5,10.3-9.7,4.4-2.2,9.2-3.4,14.7-3.4s10.3,1.1,14.7,3.4c4.4,2.2,7.7,5.5,10.2,9.7,2.5,4.2,3.7,9.1,3.7,14.7s-1.2,10.6-3.7,14.8ZM396.3,460.7c-5.1,0-9.7-.8-13.6-2.5-3.9-1.7-7-4-9.3-6.9-2.3-2.9-3.6-6.3-3.9-10h20.4c.3,1.6.9,2.8,2,3.6,1.2.8,2.6,1.2,4.3,1.2s2-.2,2.6-.7c.6-.5,1-1.1,1-1.8,0-1.2-.7-2.1-2-2.6-1.3-.5-3.6-1.1-6.8-1.7-3.9-.8-7.1-1.6-9.7-2.5-2.5-.9-4.7-2.4-6.6-4.6-1.9-2.2-2.8-5.2-2.8-9s.9-6.3,2.6-9c1.8-2.8,4.4-4.9,7.9-6.4,3.5-1.6,7.6-2.4,12.6-2.4,7.3,0,13,1.8,17.1,5.4,4.2,3.6,6.7,8.3,7.5,14h-18.9c-.3-1.5-1-2.6-2-3.4-1-.8-2.4-1.2-4.1-1.2s-1.9.2-2.5.7c-.6.4-.9,1-.9,1.8s.7,1.9,2,2.5c1.3.5,3.5,1.1,6.4,1.6,3.9.8,7.2,1.6,9.9,2.6,2.7,1,5,2.6,7,5,2,2.3,3,5.5,3,9.6,0,3.2-.9,6.1-2.8,8.6-1.9,2.6-4.5,4.6-8.1,6-3.5,1.5-7.5,2.2-12.2,2.2ZM442.9,564.6c-2.6,1.4-5.6,2.1-9.1,2.1s-8-1.1-11.4-3.3c-3.4-2.2-6.1-5.4-8.1-9.6-1.9-4.2-2.9-9.2-2.9-14.9s1-10.6,2.9-14.8c2-4.2,4.7-7.4,8.1-9.6,3.4-2.2,7.2-3.4,11.4-3.4s6.6.7,9.1,2.2c2.6,1.4,4.5,3.4,5.9,5.9v-7.4h21.2v53.2c0,5.1-.9,9.7-2.8,13.8-1.9,4.2-4.9,7.5-9,10-4.1,2.5-9.4,3.7-15.8,3.7s-15.6-2-20.7-6.1c-5.1-4-7.9-9.5-8.6-16.5h20.9c.6,2.8,2.9,4.2,6.9,4.2s4.4-.6,5.9-1.9c1.4-1.3,2.1-3.7,2.1-7.2v-6.4c-1.3,2.5-3.3,4.5-5.9,6ZM416.7,617.9h21.3v10c2.2-3.1,4.8-5.6,8-7.5,3.1-1.9,6.4-2.9,9.8-2.9v22.8h-6c-4,0-7,.7-8.9,2.1-1.9,1.4-2.8,3.9-2.8,7.5v22.2h-21.3v-54.1ZM487.8,778h-21.2v-7.4c-1.3,2.5-3.3,4.5-5.9,6-2.6,1.4-5.6,2.1-9.1,2.1s-8-1.1-11.4-3.3c-3.4-2.2-6.1-5.4-8.1-9.6-1.9-4.2-2.9-9.2-2.9-14.9s1-10.6,2.9-14.8c2-4.2,4.7-7.4,8.1-9.6,3.4-2.2,7.2-3.4,11.4-3.4s6.6.7,9.1,2.2c2.6,1.4,4.5,3.4,5.9,5.9v-7.4h21.2v54.1ZM486.7,637.9c-1.3,1.3-2,3.1-2,5.4v28.7h-21.3v-54.1h21.3v7.3c1.5-2.3,3.6-4.2,6.2-5.6,2.7-1.4,5.8-2.1,9.4-2.1s7.4.9,10.4,2.6c3,1.7,5.4,4,7.2,7.1,2-2.8,4.5-5.1,7.6-6.9,3.1-1.9,6.5-2.8,10.2-2.8,6.9,0,12.3,2.1,16,6.2,3.8,4.2,5.8,9.8,5.8,16.9v31.4h-21.2v-28.7c0-2.3-.7-4.1-2.1-5.4-1.3-1.3-3.2-2-5.5-2s-4.2.7-5.6,2c-1.3,1.3-2,3.1-2,5.4v28.7h-21.2v-28.7c0-2.3-.7-4.1-2.1-5.4-1.3-1.3-3.2-2-5.5-2s-4.2.7-5.6,2ZM540,778h-26.6l-18-54.1h22.7l8.7,33.9,8.6-33.9h22.7l-18,54.1ZM621.3,778h-21.2v-7.4c-1.3,2.5-3.3,4.5-5.9,6-2.6,1.4-5.6,2.1-9.1,2.1s-8-1.1-11.4-3.3c-3.4-2.2-6.1-5.4-8.1-9.6-1.9-4.2-2.9-9.2-2.9-14.9s1-10.6,2.9-14.8c2-4.2,4.7-7.4,8.1-9.6,3.4-2.2,7.2-3.4,11.4-3.4s6.6.7,9.1,2.2c2.6,1.4,4.5,3.4,5.9,5.9v-7.4h21.2v54.1ZM624.3,672h-21.2v-7.4c-1.3,2.5-3.3,4.5-5.9,6-2.6,1.4-5.6,2.1-9.1,2.1s-8-1.1-11.4-3.3c-3.4-2.2-6.1-5.4-8.1-9.6-1.9-4.2-2.9-9.2-2.9-14.9s1-10.6,2.9-14.8c2-4.2,4.7-7.4,8.1-9.6,3.4-2.2,7.2-3.4,11.4-3.4s6.6.7,9.1,2.2c2.6,1.4,4.5,3.4,5.9,5.9v-7.4h21.2v54.1ZM622.9,553.7c-2.4-4.2-3.6-9.2-3.6-14.8s1.2-10.5,3.6-14.7c2.5-4.2,5.9-7.5,10.3-9.7,4.4-2.2,9.2-3.4,14.7-3.4s10.3,1.1,14.7,3.4,7.7,5.5,10.2,9.7c2.5,4.2,3.7,9.1,3.7,14.7s-1.2,10.6-3.7,14.8c-2.4,4.2-5.8,7.4-10.2,9.6s-9.2,3.4-14.7,3.4-10.3-1.1-14.7-3.4c-4.4-2.2-7.8-5.4-10.3-9.6ZM690.5,778h-21.2v-28.7c0-2.6-.7-4.6-2.1-6-1.3-1.5-3.2-2.3-5.5-2.3s-4.2.8-5.6,2.3c-1.3,1.5-2,3.5-2,6v28.7h-21.3v-54.1h21.3v8.3c1.7-2.6,3.9-4.6,6.6-6.2,2.8-1.6,6.1-2.4,10-2.4,6.2,0,11,2.1,14.5,6.2,3.5,4.2,5.3,9.8,5.3,16.9v31.4ZM744.7,778h-45.9v-16.7l20.6-19.8h-20.4v-17.7h44.6v16.7l-21.6,19.8h22.6v17.7ZM731.6,669.3c-4.2-2.2-7.4-5.4-9.8-9.6-2.3-4.2-3.5-9.2-3.5-14.8s1.2-10.5,3.5-14.7c2.4-4.2,5.6-7.5,9.8-9.7,4.2-2.2,9-3.4,14.4-3.4s10.1,1.1,14.3,3.4c4.2,2.2,7.5,5.3,9.8,9.4,2.4,4.1,3.6,8.9,3.6,14.5s0,2.9-.3,4.2h-34.3c.3,4.7,2.3,7,5.9,7s4-1.1,5-3.2h22.6c-.8,3.8-2.4,7.3-4.9,10.4-2.4,3-5.5,5.4-9.3,7.2-3.7,1.7-7.8,2.6-12.3,2.6s-10.2-1.1-14.4-3.4ZM808.9,778h-21.2v-7.4c-1.3,2.5-3.3,4.5-5.9,6-2.6,1.4-5.6,2.1-9.1,2.1s-8-1.1-11.4-3.3c-3.4-2.2-6.1-5.4-8.1-9.6-1.9-4.2-2.9-9.2-2.9-14.9s1-10.6,2.9-14.8c2-4.2,4.7-7.4,8.1-9.6,3.4-2.2,7.2-3.4,11.4-3.4s6.6.7,9.1,2.2c2.6,1.4,4.5,3.4,5.9,5.9v-7.4h21.2v54.1ZM801.7,663.3c-2.3-2.9-3.6-6.3-3.9-10h20.4c.3,1.6.9,2.8,2,3.6,1.2.8,2.6,1.2,4.3,1.2s2-.2,2.6-.7c.6-.5,1-1.1,1-1.8,0-1.2-.7-2.1-2-2.6-1.3-.5-3.6-1.1-6.8-1.7-3.9-.8-7.1-1.6-9.7-2.5-2.5-.9-4.7-2.4-6.6-4.6-1.9-2.2-2.8-5.2-2.8-9s.9-6.3,2.6-9c1.8-2.8,4.4-4.9,7.9-6.4,3.5-1.6,7.6-2.4,12.6-2.4,7.3,0,13,1.8,17.1,5.4,4.2,3.6,6.7,8.3,7.5,14h-18.9c-.3-1.5-1-2.6-2-3.4-1-.8-2.4-1.2-4.1-1.2s-1.9.2-2.5.7c-.6.4-.9,1-.9,1.8s.7,1.9,2,2.5c1.3.5,3.5,1.1,6.4,1.6,3.9.8,7.2,1.6,9.9,2.6,2.7,1,5,2.6,7,5,2,2.3,3,5.5,3,9.6s-.9,6.1-2.8,8.6c-1.9,2.6-4.5,4.6-8.1,6-3.5,1.5-7.5,2.2-12.2,2.2s-9.7-.8-13.6-2.5c-3.9-1.7-7-4-9.3-6.9ZM878.1,778h-21.2v-28.7c0-2.6-.7-4.6-2.1-6-1.3-1.5-3.2-2.3-5.5-2.3s-4.2.8-5.6,2.3c-1.3,1.5-2,3.5-2,6v28.7h-21.3v-54.1h21.3v8.3c1.7-2.6,3.9-4.6,6.6-6.2,2.8-1.6,6.1-2.4,10-2.4,6.2,0,11,2.1,14.5,6.2,3.5,4.2,5.3,9.8,5.3,16.9v31.4ZM868.4,669.3c-4.2-2.2-7.4-5.4-9.8-9.6-2.3-4.2-3.5-9.2-3.5-14.8s1.2-10.5,3.5-14.7c2.4-4.2,5.6-7.5,9.8-9.7,4.2-2.2,9-3.4,14.4-3.4s10.1,1.1,14.3,3.4c4.2,2.2,7.5,5.3,9.8,9.4,2.4,4.1,3.6,8.9,3.6,14.5s0,2.9-.3,4.2h-34.3c.3,4.7,2.3,7,5.9,7s4-1.1,5-3.2h22.6c-.8,3.8-2.4,7.3-4.9,10.4-2.4,3-5.5,5.4-9.3,7.2-3.7,1.7-7.8,2.6-12.3,2.6s-10.2-1.1-14.4-3.4ZM945,778h-21.3v-7.4c-1.3,2.5-3.3,4.5-5.9,6-2.5,1.4-5.5,2.1-9,2.1s-8-1.1-11.4-3.3c-3.4-2.2-6.1-5.4-8.1-9.6-1.9-4.2-2.9-9.2-2.9-14.9s1-10.6,2.9-14.8c2-4.2,4.7-7.4,8.1-9.6,3.4-2.2,7.2-3.4,11.4-3.4s6.5.7,9,2.2c2.6,1.4,4.5,3.4,5.9,5.9v-24.3h21.3v71ZM926.4,692.4c-5.1-4-7.9-9.5-8.6-16.5h20.9c.6,2.8,2.9,4.2,6.9,4.2s4.4-.6,5.9-1.9c1.4-1.3,2.1-3.7,2.1-7.2v-6.4c-1.3,2.5-3.3,4.5-5.9,6-2.6,1.4-5.6,2.1-9.1,2.1s-8-1.1-11.4-3.3c-3.4-2.2-6.1-5.4-8.1-9.6-1.9-4.2-2.9-9.2-2.9-14.9s1-10.6,2.9-14.8c2-4.2,4.7-7.4,8.1-9.6,3.4-2.2,7.2-3.4,11.4-3.4s6.6.7,9.1,2.2c2.6,1.4,4.5,3.4,5.9,5.9v-7.4h21.2v53.2c0,5.1-.9,9.7-2.8,13.8-1.9,4.2-4.9,7.5-9,10-4.1,2.5-9.4,3.7-15.8,3.7s-15.6-2-20.7-6.1ZM1007,765.7c-2.4,4.2-5.8,7.4-10.2,9.6-4.4,2.2-9.2,3.4-14.7,3.4s-10.3-1.1-14.7-3.4c-4.4-2.2-7.8-5.4-10.3-9.6-2.4-4.2-3.6-9.2-3.6-14.8s1.2-10.5,3.6-14.7c2.5-4.2,5.9-7.5,10.3-9.7,4.4-2.2,9.2-3.4,14.7-3.4s10.3,1.1,14.7,3.4c4.4,2.2,7.7,5.5,10.2,9.7,2.5,4.2,3.8,9.1,3.8,14.7s-1.2,10.6-3.8,14.8ZM1043.6,672h-21.3v-8.3c-1.7,2.6-3.9,4.6-6.7,6.2-2.8,1.6-6,2.4-9.9,2.4-6.2,0-11.1-2.1-14.6-6.2-3.5-4.2-5.2-9.8-5.2-16.9v-31.4h21.2v28.7c0,2.6.7,4.6,2,6.1,1.4,1.5,3.3,2.2,5.6,2.2s4.2-.7,5.6-2.2c1.3-1.5,2-3.6,2-6.1v-28.7h21.3v54.1ZM1045.2,564c-2.8,1.6-6,2.4-9.9,2.4-6.2,0-11.1-2.1-14.6-6.2-3.5-4.2-5.2-9.8-5.2-16.9v-31.4h21.2v28.7c0,2.6.7,4.6,2,6.1,1.4,1.5,3.3,2.2,5.6,2.2s4.2-.7,5.6-2.2c1.3-1.5,2-3.6,2-6.1v-28.7h21.3v54.1h-21.3v-8.3c-1.7,2.6-3.9,4.6-6.7,6.2ZM1076.4,672h-21.3v-54.1h21.3v54.1ZM1074.7,610.6c-2.2,2-5.2,3-8.8,3s-6.7-1-8.9-3c-2.2-2-3.3-4.5-3.3-7.5s1.1-5.6,3.3-7.6c2.2-2,5.2-3.1,8.9-3.1s6.6,1,8.8,3.1c2.2,2,3.3,4.5,3.3,7.6s-1.1,5.5-3.3,7.5ZM1127.1,640.2h-6c-4,0-7,.7-8.9,2.1-1.8,1.4-2.8,3.9-2.8,7.5v22.2h-21.3v-54.1h21.3v10c2.2-3.1,4.8-5.6,8-7.5,3.1-1.9,6.4-2.9,9.8-2.9v22.8ZM1142.5,566h-21.2v-28.7c0-2.6-.7-4.6-2.1-6-1.3-1.5-3.2-2.3-5.5-2.3s-4.2.8-5.6,2.3c-1.3,1.5-2,3.5-2,6v28.7h-21.3v-54.1h21.3v8.3c1.7-2.6,3.9-4.6,6.6-6.2,2.8-1.6,6.1-2.4,10-2.4,6.2,0,11,2.1,14.5,6.2,3.5,4.2,5.3,9.8,5.3,16.9v31.4ZM1124.9,437.8v-14.2h-6.7v-17.8h6.7v-13.1h21.3v13.1h8.8v17.8h-8.8v14.6c0,1.3.3,2.2.9,2.8.6.6,1.7.9,3.1.9h5.1v18.1h-8.1c-14.8,0-22.3-7.4-22.3-22.2ZM1174.9,566h-21.3v-54.1h21.3v54.1ZM1173.2,504.6c-2.2,2-5.2,3-8.8,3s-6.7-1-8.9-3c-2.2-2-3.4-4.5-3.4-7.5s1.1-5.6,3.4-7.6c2.2-2,5.2-3.1,8.9-3.1s6.6,1,8.8,3.1c2.2,2,3.4,4.5,3.4,7.6s-1.1,5.5-3.4,7.5ZM1206.6,546c1,1.6,2.4,2.4,4.1,2.4s4.1-1.4,4.9-4.2h22.6c-1.3,7-4.3,12.5-9.2,16.5-4.8,4-10.7,6-17.8,6s-10.2-1.1-14.4-3.4c-4.2-2.2-7.4-5.4-9.8-9.6-2.3-4.2-3.5-9.2-3.5-14.8s1.2-10.5,3.5-14.7c2.4-4.2,5.6-7.5,9.8-9.7,4.2-2.2,9-3.4,14.4-3.4s13,2,17.8,6c4.9,4,7.9,9.5,9.2,16.5h-22.6c-.8-2.8-2.5-4.2-4.9-4.2s-3.1.8-4.1,2.4c-1,1.6-1.4,4-1.4,7.1s.5,5.5,1.4,7.1ZM1232.5,447.8c-1.9-4.2-2.9-9.2-2.9-14.9s1-10.6,2.9-14.8c2-4.2,4.7-7.4,8.1-9.6,3.4-2.2,7.2-3.4,11.4-3.4s6.5.7,9,2.2c2.6,1.4,4.5,3.4,5.8,5.9v-24.3h21.3v71h-21.3v-7.4c-1.3,2.5-3.3,4.5-5.8,6-2.5,1.4-5.5,2.1-9,2.1s-8-1.1-11.4-3.3c-3.4-2.2-6.1-5.4-8.1-9.6ZM1302.6,566h-21.2v-7.4c-1.3,2.5-3.3,4.5-5.8,6-2.6,1.4-5.6,2.1-9.1,2.1s-8-1.1-11.4-3.3c-3.4-2.2-6.1-5.4-8.1-9.6-1.9-4.2-2.9-9.2-2.9-14.9s1-10.6,2.9-14.8c2-4.2,4.7-7.4,8.1-9.6,3.4-2.2,7.2-3.4,11.4-3.4s6.6.7,9.1,2.2c2.6,1.4,4.5,3.4,5.8,5.9v-7.4h21.2v54.1ZM1319.1,457.8c-2.2,2-5.2,3-8.8,3s-6.7-1-8.9-3-3.4-4.5-3.4-7.5,1.1-5.6,3.4-7.6c2.2-2,5.2-3.1,8.9-3.1,3.7,0,6.6,1,8.8,3.1,2.2,2,3.4,4.5,3.4,7.6s-1.1,5.5-3.4,7.5ZM1349.3,330.7h-34.3c.3,4.7,2.3,7,5.9,7s4-1.1,5-3.2h22.6c-.8,3.8-2.4,7.3-4.9,10.4-2.4,3-5.5,5.4-9.3,7.2-3.7,1.7-7.8,2.6-12.3,2.6s-10.2-1.1-14.4-3.4c-4.2-2.2-7.4-5.4-9.8-9.6-2.3-4.2-3.5-9.2-3.5-14.8s1.2-10.5,3.5-14.7c2.4-4.2,5.6-7.5,9.8-9.7,4.2-2.2,9-3.4,14.4-3.4s10.2,1.1,14.3,3.4c4.2,2.2,7.5,5.3,9.8,9.4,2.4,4.1,3.5,8.9,3.5,14.5s0,2.9-.3,4.2Z"/>
  <path class="st0" d="M915.9,741.8c-2.3,0-4.2.8-5.7,2.4-1.5,1.6-2.2,3.8-2.2,6.7s.7,5.1,2.2,6.7c1.5,1.6,3.4,2.4,5.7,2.4s4.2-.8,5.7-2.4c1.5-1.6,2.2-3.8,2.2-6.7s-.7-5.1-2.2-6.7c-1.5-1.6-3.4-2.4-5.7-2.4Z"/>
  <path class="st0" d="M982.2,741.6c-2,0-3.6.8-5,2.4-1.3,1.5-2,3.8-2,6.9s.6,5.4,1.9,7c1.3,1.5,3,2.3,5.1,2.3s3.6-.8,5-2.3c1.3-1.6,2-3.9,2-7s-.7-5.4-2-6.9c-1.3-1.6-3-2.4-5-2.4Z"/>
  <path class="st0" d="M887.1,635.3c-1.2-1-2.6-1.4-4.3-1.4-3.8,0-6,1.8-6.6,5.5h12.7c0-1.8-.6-3.1-1.7-4Z"/>
  <path class="st0" d="M779.8,741.8c-2.3,0-4.2.8-5.7,2.4-1.5,1.6-2.2,3.8-2.2,6.7s.7,5.1,2.2,6.7c1.5,1.6,3.4,2.4,5.7,2.4s4.2-.8,5.7-2.4c1.5-1.6,2.2-3.8,2.2-6.7s-.7-5.1-2.2-6.7c-1.5-1.6-3.4-2.4-5.7-2.4Z"/>
  <path class="st0" d="M945.7,635.8c-2.3,0-4.2.8-5.7,2.4-1.5,1.6-2.2,3.8-2.2,6.7s.7,5.1,2.2,6.7c1.5,1.6,3.4,2.4,5.7,2.4s4.2-.8,5.7-2.4c1.5-1.6,2.2-3.8,2.2-6.7s-.7-5.1-2.2-6.7c-1.5-1.6-3.4-2.4-5.7-2.4Z"/>
  <path class="st0" d="M562.2,336.2c2,0,3.6-.8,5-2.3,1.3-1.6,2-3.9,2-7s-.7-5.4-2-6.9c-1.3-1.6-3-2.4-5-2.4s-3.6.8-5,2.4c-1.3,1.5-2,3.8-2,6.9s.6,5.4,1.9,7c1.3,1.5,3,2.3,5.1,2.3Z"/>
  <path class="st0" d="M673.7,211.3c-1.2-1-2.6-1.4-4.3-1.4-3.8,0-6,1.8-6.6,5.5h12.7c0-1.8-.6-3.1-1.7-4Z"/>
  <path class="st0" d="M703.8,423.8c-2.3,0-4.2.8-5.7,2.4-1.5,1.6-2.2,3.8-2.2,6.7s.7,5.1,2.2,6.7c1.5,1.6,3.4,2.4,5.7,2.4s4.2-.8,5.7-2.4c1.5-1.6,2.2-3.8,2.2-6.7s-.7-5.1-2.2-6.7c-1.5-1.6-3.4-2.4-5.7-2.4Z"/>
  <path class="st0" d="M644.2,336c2.3,0,4.2-.8,5.7-2.4,1.5-1.6,2.2-3.8,2.2-6.7s-.7-5.1-2.2-6.7c-1.5-1.6-3.4-2.4-5.7-2.4s-4.2.8-5.7,2.4c-1.5,1.6-2.2,3.8-2.2,6.7s.7,5.1,2.2,6.7c1.5,1.6,3.4,2.4,5.7,2.4Z"/>
  <path class="st0" d="M506.2,527.9c-3.8,0-6,1.8-6.6,5.5h12.7c0-1.8-.6-3.1-1.7-4-1.2-1-2.6-1.4-4.3-1.4Z"/>
  <path class="st0" d="M713.9,317.3c-1.2-1-2.6-1.4-4.3-1.4-3.8,0-6,1.8-6.6,5.5h12.7c0-1.8-.6-3.1-1.7-4Z"/>
  <path class="st0" d="M686.3,638.2c-1.5-1.6-3.4-2.4-5.7-2.4s-4.2.8-5.7,2.4c-1.5,1.6-2.2,3.8-2.2,6.7s.7,5.1,2.2,6.7c1.5,1.6,3.4,2.4,5.7,2.4s4.2-.8,5.7-2.4c1.5-1.6,2.2-3.8,2.2-6.7s-.7-5.1-2.2-6.7Z"/>
  <path class="st0" d="M789.9,529.3c-1.2-1-2.6-1.4-4.3-1.4-3.8,0-6,1.8-6.6,5.5h12.7c0-1.8-.6-3.1-1.7-4Z"/>
  <path class="st0" d="M790.7,336c2.3,0,4.2-.8,5.7-2.4,1.5-1.6,2.2-3.8,2.2-6.7s-.7-5.1-2.2-6.7c-1.5-1.6-3.4-2.4-5.7-2.4s-4.2.8-5.7,2.4c-1.5,1.6-2.2,3.8-2.2,6.7s.7,5.1,2.2,6.7c1.5,1.6,3.4,2.4,5.7,2.4Z"/>
  <path class="st0" d="M543.4,442c2.3,0,4.2-.8,5.7-2.4,1.5-1.6,2.2-3.8,2.2-6.7s-.7-5.1-2.2-6.7c-1.5-1.6-3.4-2.4-5.7-2.4s-4.2.8-5.7,2.4c-1.5,1.6-2.2,3.8-2.2,6.7s.7,5.1,2.2,6.7c1.5,1.6,3.4,2.4,5.7,2.4Z"/>
  <path class="st0" d="M167.1,317.3c-1.2-1-2.6-1.4-4.3-1.4-3.8,0-6,1.8-6.6,5.5h12.7c0-1.8-.6-3.1-1.7-4Z"/>
  <path class="st0" d="M162.9,515.1h-6v12.5h6c4.4,0,6.6-2.1,6.6-6.2,0-4.2-2.2-6.2-6.6-6.2Z"/>
  <path class="st0" d="M428.7,317.8c-2.3,0-4.2.8-5.7,2.4-1.5,1.6-2.2,3.8-2.2,6.7s.7,5.1,2.2,6.7c1.5,1.6,3.4,2.4,5.7,2.4s4.2-.8,5.7-2.4c1.5-1.6,2.2-3.8,2.2-6.7s-.7-5.1-2.2-6.7c-1.5-1.6-3.4-2.4-5.7-2.4Z"/>
  <path class="st0" d="M356.7,230.2c2,0,3.6-.8,5-2.3,1.3-1.6,2-3.9,2-7s-.7-5.4-2-6.9c-1.3-1.6-3-2.4-5-2.4s-3.6.8-5,2.4c-1.3,1.5-2,3.8-2,6.9s.6,5.4,1.9,7c1.3,1.5,3,2.3,5.1,2.3Z"/>
  <path class="st0" d="M565.9,211.3c-1.2-1-2.6-1.4-4.3-1.4-3.8,0-6,1.8-6.6,5.5h12.7c0-1.8-.6-3.1-1.7-4Z"/>
  <path class="st0" d="M146.5,442c2.3,0,4.2-.8,5.7-2.4,1.5-1.6,2.2-3.8,2.2-6.7s-.7-5.1-2.2-6.7c-1.5-1.6-3.4-2.4-5.7-2.4s-4.2.8-5.7,2.4c-1.5,1.6-2.2,3.8-2.2,6.7s.7,5.1,2.2,6.7c1.5,1.6,3.4,2.4,5.7,2.4Z"/>
  <path class="st0" d="M816.4,439.6c1.5,1.6,3.4,2.4,5.7,2.4s4.2-.8,5.7-2.4c1.5-1.6,2.2-3.8,2.2-6.7s-.7-5.1-2.2-6.7c-1.5-1.6-3.4-2.4-5.7-2.4s-4.2.8-5.7,2.4c-1.5,1.6-2.2,3.8-2.2,6.7s.7,5.1,2.2,6.7Z"/>
  <path class="st0" d="M496.2,230c2.3,0,4.2-.8,5.7-2.4,1.5-1.6,2.2-3.8,2.2-6.7s-.7-5.1-2.2-6.7c-1.5-1.6-3.4-2.4-5.7-2.4s-4.2.8-5.7,2.4c-1.5,1.6-2.2,3.8-2.2,6.7s.7,5.1,2.2,6.7c1.5,1.6,3.4,2.4,5.7,2.4Z"/>
  <path class="st0" d="M495.9,336c2.3,0,4.2-.8,5.7-2.4,1.5-1.6,2.2-3.8,2.2-6.7s-.7-5.1-2.2-6.7c-1.5-1.6-3.4-2.4-5.7-2.4s-4.2.8-5.7,2.4c-1.5,1.6-2.2,3.8-2.2,6.7s.7,5.1,2.2,6.7c1.5,1.6,3.4,2.4,5.7,2.4Z"/>
</svg>