<svg width="204" height="89" viewBox="0 0 204 89" fill="none" xmlns="http://www.w3.org/2000/svg">
<g clip-path="url(#clip0_2109_182)">
<mask id="mask0_2109_182" style="mask-type:luminance" maskUnits="userSpaceOnUse" x="0" y="0" width="204" height="61">
<path d="M0 0H204V61H0V0Z" fill="white"/>
</mask>
<g mask="url(#mask0_2109_182)">
<path d="M188.166 60.258C188.116 60.358 188.066 60.457 188 60.54C187.966 60.59 187.883 60.656 187.834 60.639C187.584 60.589 187.335 60.539 187.086 60.473C186.853 60.407 186.621 60.291 186.388 60.291C186.139 60.291 185.923 60.258 185.723 60.143C185.557 60.043 185.408 60.043 185.225 60.093C184.876 60.193 184.56 60.242 184.245 59.927C184.062 59.745 183.746 59.663 183.464 59.563C183.364 59.53 183.231 59.613 183.098 59.646C183.007 59.5536 182.924 59.4539 182.849 59.348H182.417C182.367 59.348 182.284 59.365 182.251 59.348C181.919 59.133 181.52 59.133 181.188 58.984C180.839 58.818 180.506 58.769 180.174 58.951C180.174 58.951 180.141 58.984 180.141 58.967C179.576 58.769 179.36 59.331 178.978 59.497C178.744 59.5903 178.498 59.6516 178.247 59.679C178.031 59.712 177.831 59.712 177.632 59.845C177.399 60.027 177.217 59.812 177.05 59.58C176.917 59.96 176.618 59.993 176.353 59.993C176.07 59.993 175.754 60.027 175.555 59.762C175.439 59.612 175.306 59.646 175.173 59.712C175.073 59.762 174.973 59.812 174.874 59.878C174.708 59.977 174.541 59.96 174.442 59.828C174.143 59.464 173.694 59.514 173.295 59.448C172.764 59.348 172.282 59.199 171.85 58.835C171.617 58.901 171.368 58.984 171.119 58.785C171.019 58.703 170.803 58.719 170.67 58.769C170.487 58.819 170.354 58.835 170.188 58.703C170.144 58.6682 170.093 58.644 170.038 58.6323C169.984 58.6207 169.927 58.622 169.873 58.636C169.474 58.852 169.258 58.586 169.025 58.339C168.975 58.272 168.926 58.189 168.859 58.09C168.71 58.19 168.543 58.256 168.427 58.372C167.979 58.802 167.463 58.951 166.882 58.752C166.45 58.603 166.051 58.686 165.636 58.785C165.42 58.835 165.254 58.802 165.137 58.653C164.921 58.388 164.656 58.405 164.39 58.487C163.991 58.603 163.609 58.587 163.227 58.405C163.175 58.3804 163.118 58.3677 163.061 58.3677C163.003 58.3677 162.946 58.3804 162.894 58.405C162.678 58.504 162.496 58.487 162.263 58.455C161.881 58.388 161.482 58.405 161.166 58.719C161.017 58.869 160.851 58.835 160.685 58.785C160.419 58.703 160.153 58.67 159.87 58.769C159.837 58.769 159.787 58.769 159.737 58.785C159.422 58.819 159.173 58.521 158.807 58.653C158.508 58.753 158.159 58.686 157.827 58.703C157.554 58.7003 157.282 58.7224 157.013 58.769C156.664 58.819 156.614 58.835 156.481 58.504C156.398 58.305 156.298 58.19 156.082 58.173H155.999C155.833 58.471 155.534 58.256 155.334 58.372C155.268 58.405 155.168 58.422 155.135 58.372C154.902 58.19 154.736 58.339 154.62 58.405C154.215 58.344 153.81 58.2776 153.407 58.206C153.241 58.173 153.091 58.106 152.925 58.09C152.709 58.057 152.477 58.007 152.277 58.09C151.995 58.173 151.795 58.09 151.596 57.892C151.38 57.991 151.197 57.991 150.948 57.925C150.632 57.842 150.267 57.759 149.935 57.892C149.735 57.974 149.569 57.925 149.403 57.842C148.886 57.5784 148.296 57.4913 147.725 57.594C147.276 57.66 147.093 57.594 146.761 57.279C146.526 57.3799 146.264 57.3988 146.017 57.3328C145.77 57.2668 145.552 57.1196 145.399 56.915C145.249 56.7 145.066 56.717 144.867 56.799C144.555 56.9171 144.22 56.9626 143.887 56.932C143.794 56.9286 143.704 56.9007 143.625 56.8512C143.546 56.8017 143.482 56.7323 143.438 56.65C143.405 56.584 143.388 56.502 143.338 56.452C143.255 56.369 143.156 56.319 143.039 56.237C142.936 56.2729 142.831 56.3003 142.724 56.319C142.641 56.319 142.508 56.353 142.474 56.303C142.125 55.923 141.577 55.939 141.212 55.608C141.129 55.542 141.062 55.475 140.979 55.409C140.865 55.331 140.754 55.2482 140.647 55.161C140.527 55.0841 140.425 54.9825 140.348 54.863C140.248 54.681 140.098 54.582 139.932 54.631C139.683 54.697 139.55 54.549 139.401 54.416C139.151 54.201 138.919 53.969 138.653 53.771C138.52 53.671 138.354 53.638 138.188 53.556C138.121 53.754 138.088 53.903 138.038 54.086H137.839C137.673 54.086 137.606 54.185 137.673 54.35C137.673 54.383 137.706 54.433 137.722 54.466C137.855 54.83 137.756 55.029 137.407 55.194C137.29 55.244 137.158 55.244 137.058 55.409C136.875 55.707 136.642 55.972 136.692 56.369C136.692 56.419 136.692 56.452 136.726 56.502C136.958 57.147 136.559 57.478 136.094 57.792C135.973 57.8877 135.871 58.0059 135.795 58.14C135.745 58.223 135.729 58.322 135.679 58.421C135.562 58.736 135.346 58.967 135.064 59.166C134.715 59.414 134.416 59.746 134.117 60.043C134.068 60.0938 134.034 60.1566 134.017 60.225C133.951 60.473 133.835 60.622 133.552 60.507C133.502 60.49 133.419 60.507 133.386 60.507C133.17 60.755 132.804 60.656 132.572 60.837C132.536 60.8614 132.495 60.8783 132.453 60.8869C132.41 60.8955 132.366 60.8955 132.323 60.887C131.758 60.771 131.176 60.804 130.661 60.507C130.578 60.457 130.478 60.407 130.412 60.341C130.146 60.027 129.814 59.828 129.465 59.663C129.083 59.481 128.9 59.15 128.667 58.852C128.601 58.769 128.584 58.653 128.501 58.603C128.069 58.322 127.803 57.875 127.488 57.495C127.172 57.114 126.989 56.65 126.574 56.319C126.374 56.17 126.275 55.906 126.142 55.674C126.025 55.475 125.893 55.277 125.809 55.078C125.76 54.962 125.76 54.83 125.743 54.714C125.544 54.582 125.328 54.482 125.145 54.317C125.066 54.2563 125.001 54.1788 124.955 54.0902C124.909 54.0015 124.883 53.9038 124.879 53.804C124.879 53.605 124.746 53.407 124.646 53.224C124.364 52.744 123.998 52.314 123.782 51.784C123.734 51.6494 123.659 51.5259 123.562 51.4208C123.464 51.3157 123.347 51.2311 123.217 51.172C123.118 51.122 123.001 51.024 122.985 50.924C122.918 50.594 122.636 50.394 122.47 50.13C122.354 49.964 122.254 49.799 122.138 49.633C122.088 49.55 122.005 49.484 121.938 49.418C121.822 49.269 121.689 49.104 121.573 48.955C121.523 48.889 121.473 48.822 121.406 48.756C121.307 48.64 121.224 48.508 121.124 48.392C121.024 48.276 120.958 48.127 120.842 48.028C120.785 47.9852 120.737 47.9306 120.702 47.8678C120.668 47.805 120.647 47.7355 120.642 47.664C120.642 47.564 120.609 47.432 120.542 47.382C120.227 47.184 119.911 46.969 119.562 46.852C119.28 46.77 118.931 46.852 118.615 46.836C118.366 46.82 118.117 46.786 117.901 46.687C117.336 46.439 116.721 46.39 116.123 46.29C115.658 46.207 115.176 46.257 114.727 46.059C114.495 45.959 114.212 45.992 113.963 45.959C113.282 45.876 112.6 45.777 111.919 45.694C111.836 45.694 111.736 45.628 111.67 45.661C111.471 45.744 111.354 45.661 111.205 45.545C111.088 45.463 110.906 45.479 110.756 45.479C110.607 45.479 110.457 45.512 110.274 45.529V46.191C110.274 46.489 110.474 46.704 110.773 46.721C111.105 46.721 111.288 46.952 111.454 47.217C111.753 47.117 111.986 47.267 112.168 47.465C112.318 47.631 112.484 47.713 112.684 47.763C112.949 47.813 113.132 47.945 113.182 48.243C113.215 48.475 113.348 48.5743 113.581 48.541C113.797 48.508 113.93 48.641 114.079 48.756C114.345 48.955 114.544 49.203 114.877 49.319C115.043 49.369 115.176 49.584 115.259 49.749C115.442 50.113 115.807 50.246 116.106 50.444C116.422 50.659 116.738 50.874 117.053 51.106C117.12 51.156 117.12 51.288 117.17 51.371C117.219 51.487 117.269 51.636 117.352 51.685C117.602 51.851 117.751 52.083 117.917 52.315C118.2 52.728 118.565 53.092 118.864 53.489C118.981 53.639 119.047 53.804 119.097 53.986C119.147 54.201 119.13 54.416 119.18 54.631C119.246 54.846 119.313 55.078 119.446 55.261C119.712 55.624 119.795 55.971 119.546 56.402C119.762 56.65 119.845 56.932 119.728 57.262C119.695 57.362 119.811 57.511 119.811 57.627C119.811 57.727 119.811 57.925 119.778 57.941C119.562 58.024 119.546 58.206 119.479 58.388C119.426 58.5045 119.346 58.6067 119.246 58.686C119.18 58.752 119.064 58.786 118.997 58.868C118.781 59.15 118.515 59.232 118.167 59.133C117.884 59.067 117.618 59.282 117.319 59.166C117.103 59.083 116.887 59.05 116.588 58.967C116.467 59.0356 116.331 59.0731 116.192 59.0761C116.053 59.079 115.915 59.0474 115.791 58.984C115.674 58.934 115.508 58.984 115.292 59.001C115.192 58.885 115.043 58.736 114.91 58.571C114.727 58.339 114.528 58.157 114.212 58.107C113.963 58.057 113.714 57.957 113.581 57.693C113.514 57.561 113.348 57.478 113.215 57.363C112.983 57.147 112.767 56.899 112.517 56.733C112.252 56.568 112.052 56.386 112.135 56.088C111.803 55.889 111.52 55.708 111.238 55.508C111.188 55.475 111.188 55.376 111.138 55.327C111.088 55.26 111.022 55.161 110.939 55.127C110.673 55.012 110.524 54.813 110.424 54.532C110.329 54.2467 110.188 53.9786 110.008 53.738C109.743 53.407 109.626 53.026 109.593 52.628C109.593 52.546 109.593 52.447 109.56 52.381C109.095 51.619 109.211 50.709 108.945 49.881C108.945 49.848 108.912 49.799 108.912 49.749C108.902 49.2769 108.823 48.8087 108.679 48.359C108.58 48.078 108.596 47.796 108.812 47.548C108.696 47.184 108.413 47.035 108.098 46.968C107.782 46.902 107.549 46.77 107.3 46.588C107.018 46.373 106.685 46.24 106.386 46.042C106.087 45.844 105.788 45.645 105.506 45.43C105.423 45.38 105.34 45.264 105.257 45.264C104.841 45.264 104.625 44.999 104.426 44.701C104.077 44.834 103.778 45.065 103.396 44.883C103.329 44.85 103.23 44.933 103.146 44.933C102.847 44.916 102.548 44.9 102.249 44.85C102.183 44.85 102.133 44.701 102.1 44.619C102.033 44.437 101.917 44.37 101.734 44.437C101.641 44.4819 101.539 44.5052 101.435 44.5052C101.332 44.5052 101.229 44.4819 101.136 44.437C101.102 44.4209 101.065 44.4125 101.028 44.4125C100.991 44.4125 100.954 44.4209 100.92 44.437C100.588 44.586 100.355 44.453 100.189 44.172C100.089 44.205 100.023 44.238 99.907 44.272C99.857 44.188 99.79 44.089 99.74 44.006H99.64C99.192 44.254 98.743 44.221 98.278 44.056C97.9493 43.9437 97.6098 43.866 97.265 43.824C96.807 43.7576 96.3467 43.7079 95.885 43.675C95.553 43.675 95.287 43.576 95.088 43.328C94.739 43.46 94.407 43.526 94.058 43.378C93.958 43.344 93.825 43.378 93.709 43.378C93.526 43.361 93.344 43.328 93.161 43.295C92.995 43.261 92.811 43.195 92.646 43.228C92.214 43.295 91.832 43.162 91.449 42.98C91.25 42.88 91.034 42.765 90.802 42.947C90.752 42.98 90.652 42.98 90.585 42.947C90.32 42.798 90.054 42.914 89.788 42.897C89.304 42.847 88.8217 42.781 88.342 42.699C87.993 42.633 87.645 42.549 87.279 42.599C87.079 42.616 86.88 42.533 86.681 42.533C86.232 42.5 85.784 42.517 85.335 42.434C84.87 42.351 84.371 42.302 83.973 41.921C83.707 42.219 83.424 42.219 83.093 42.12C82.793 42.037 82.461 42.07 82.145 42.02C81.945 42.004 81.746 41.937 81.547 41.921C81.3757 41.9046 81.2033 41.9046 81.032 41.921C80.832 41.938 80.65 41.921 80.45 41.805C80.234 41.673 80.002 41.656 79.72 41.722C79.403 41.789 79.038 41.706 78.69 41.64C78.274 41.573 77.858 41.54 77.476 41.342C77.41 41.309 77.31 41.342 77.226 41.358C76.845 41.408 76.463 41.425 76.064 41.308C75.781 41.226 75.499 41.143 75.167 41.226C74.884 41.292 74.585 41.259 74.369 40.994C74.087 41.094 73.821 41.11 73.522 40.994C73.289 40.894 72.973 40.812 72.741 40.878C72.326 40.978 72.093 40.828 71.943 40.481C71.495 40.647 71.063 40.779 70.597 40.647C70.415 40.597 70.215 40.63 70.033 40.647C69.717 40.647 69.418 40.647 69.185 40.415C69.135 40.365 69.019 40.349 68.953 40.365C68.438 40.515 67.923 40.448 67.407 40.382C66.6882 40.2842 65.9682 40.1959 65.247 40.117C65.164 40.117 65.081 40.067 64.998 40.051C64.965 39.968 64.932 39.869 64.915 39.836C64.5598 39.8664 64.2054 39.9051 63.852 39.952C64.084 40.432 64.234 40.944 64.55 41.292C64.866 41.64 64.948 42.086 65.214 42.417C65.364 42.599 65.546 42.765 65.696 42.947C65.796 43.063 65.896 43.179 65.929 43.311C65.979 43.593 66.129 43.775 66.327 43.957C66.411 44.023 66.444 44.155 66.477 44.254C66.527 44.503 66.56 44.768 66.842 44.9C66.926 44.933 66.959 45.066 67.009 45.148C67.059 45.248 67.125 45.33 67.191 45.463C67.374 45.281 67.524 45.148 67.657 45.033C67.707 44.833 67.74 44.668 67.807 44.437C68.172 44.734 68.487 44.569 68.77 44.404C69.003 44.254 69.169 44.288 69.351 44.454C69.368 44.47 69.401 44.486 69.418 44.503C69.8 44.751 69.949 44.734 70.265 44.437C70.481 44.47 70.681 44.519 70.863 44.536C71.196 44.569 71.528 44.586 71.86 44.602C72.06 44.602 72.242 44.668 72.359 44.834C72.509 45.049 72.708 45.132 72.957 45.132C73.173 45.132 73.339 45.198 73.505 45.347C73.688 45.512 73.887 45.645 74.103 45.794C74.1951 45.862 74.3048 45.9023 74.419 45.91C75.067 45.876 75.349 46.39 75.732 46.737C75.765 46.77 75.782 46.869 75.815 46.886C76.296 47.035 76.529 47.564 77.028 47.664C77.128 47.68 77.227 47.78 77.327 47.846C77.41 47.912 77.477 48.011 77.576 48.028C77.958 48.094 78.124 48.408 78.356 48.64C78.556 48.855 78.789 49.038 79.038 49.253C79.254 49.17 79.47 49.103 79.769 48.988C79.586 49.286 79.071 49.236 79.204 49.65C79.437 49.75 79.686 49.782 79.802 49.915C79.902 50.047 79.852 50.312 79.869 50.51C80.5 50.411 80.567 50.411 80.766 50.974C80.932 51.421 81.165 51.752 81.58 51.967C81.58 51.967 81.613 51.967 81.613 52C81.746 52.43 82.178 52.496 82.461 52.761C82.561 52.844 82.661 52.943 82.727 53.059C83.142 53.738 83.591 54.399 84.155 54.962C84.2299 55.0338 84.282 55.1259 84.305 55.227C84.355 55.558 84.455 55.856 84.571 56.171C84.654 56.386 84.721 56.634 84.853 56.833C84.903 56.915 84.92 57.048 84.936 57.147C84.936 57.428 84.936 57.727 84.953 58.007C84.953 58.057 84.953 58.107 84.97 58.14C85.219 58.421 85.152 58.785 85.235 59.116C85.285 59.365 85.402 59.596 85.435 59.861C85.451 60.043 85.385 60.126 85.235 60.192C84.986 60.308 84.737 60.44 84.471 60.192C84.388 60.126 84.255 60.126 84.139 60.076V59.613C83.839 59.315 83.557 59.05 83.259 58.769C83.259 58.769 83.225 58.752 83.225 58.736C83.192 58.223 82.627 57.925 82.693 57.346C82.71 57.196 82.51 56.998 82.361 56.882C82.212 56.766 82.161 56.65 82.178 56.485C82.212 56.137 82.095 55.922 81.813 55.674C81.463 55.376 81.231 54.929 80.949 54.549C80.616 54.085 80.317 53.589 79.952 53.159C79.819 52.993 79.835 52.745 79.57 52.629C79.387 52.563 79.27 52.347 79.104 52.215C78.7261 51.8902 78.3441 51.5702 77.958 51.255L77.41 50.759C77.293 50.643 77.21 50.494 76.994 50.461C76.894 50.461 76.812 50.328 76.745 50.246C76.463 49.948 76.18 49.666 75.781 49.517C75.681 49.484 75.565 49.435 75.532 49.352C75.25 48.806 74.668 48.558 74.286 48.111C74.136 47.945 73.854 47.896 73.621 47.829C73.471 47.779 73.339 47.747 73.239 47.598C73.156 47.482 72.99 47.399 72.857 47.333C72.641 47.217 72.425 47.085 72.193 47.018C71.96 46.952 71.711 46.968 71.478 46.968C71.378 46.968 71.246 47.035 71.179 47.002C70.913 46.77 70.631 46.902 70.349 46.952C70.116 46.985 69.866 46.952 69.601 46.952C69.601 47.316 69.567 47.714 69.567 48.111C69.567 48.21 69.651 48.326 69.7 48.425C69.833 48.64 69.983 48.855 70.116 49.087C70.1631 49.173 70.1859 49.2701 70.182 49.368C70.182 49.534 70.215 49.716 70.182 49.882C70.049 50.461 70.398 50.792 70.814 51.09C71.113 51.305 71.345 51.57 71.412 51.967C71.445 52.116 71.512 52.265 71.594 52.397C71.761 52.645 71.96 52.877 71.894 53.225C71.86 53.374 72.126 53.638 72.309 53.655C72.459 53.655 72.525 53.738 72.608 53.853C72.874 54.201 73.189 54.533 73.306 54.995C73.322 55.095 73.439 55.178 73.522 55.26C73.672 55.393 73.688 55.542 73.622 55.724C73.5805 55.8406 73.5635 55.9645 73.572 56.088C73.605 56.733 73.622 56.898 72.924 57.064C72.641 57.362 72.259 57.263 71.91 57.279C71.7954 57.273 71.6853 57.2326 71.594 57.163C71.162 56.766 70.764 56.369 70.598 55.79C70.514 55.508 70.248 55.26 70.033 55.029C69.9235 54.9056 69.8338 54.7659 69.767 54.615C69.601 54.235 69.484 53.82 69.119 53.555C69.085 53.523 69.052 53.506 69.036 53.473C68.87 53.125 68.67 52.778 68.554 52.413C68.371 51.834 68.006 51.371 67.724 50.858C67.624 50.676 67.424 50.527 67.358 50.328C67.208 49.898 66.859 49.6 66.626 49.219C66.5904 49.1573 66.539 49.1062 66.477 49.071C66.227 48.955 66.195 48.723 66.145 48.508C66.062 48.226 65.979 47.945 65.845 47.697C65.43 46.903 64.799 46.207 64.566 45.314C64.516 45.148 64.334 45.016 64.267 44.85C64.001 44.205 63.47 43.708 63.204 43.08C63.137 42.93 63.087 42.782 63.021 42.65C62.938 42.5 62.921 42.269 62.639 42.302C62.606 42.302 62.539 42.252 62.506 42.202C62.34 41.987 62.206 41.755 62.041 41.54C61.941 41.408 61.841 41.259 61.741 41.127C61.709 41.093 61.659 41.06 61.659 41.027C61.692 40.697 61.326 40.547 61.259 40.266C61.243 40.166 61.094 40.084 60.977 40.034C60.745 39.918 60.496 39.836 60.263 39.736C60.23 39.736 60.213 39.703 60.18 39.703C59.548 39.819 59.033 39.339 58.419 39.422H58.369C57.987 39.091 57.522 39.24 57.089 39.157C56.641 39.074 56.192 39.091 55.76 38.975C55.411 38.892 55.046 38.81 54.714 38.627C54.63 38.577 54.498 38.594 54.398 38.627C54.198 38.677 53.999 38.727 53.816 38.611C53.7519 38.582 53.6848 38.5599 53.616 38.545C53.019 38.462 52.404 38.346 51.806 38.28C51.49 38.247 51.175 38.23 50.859 38.197C50.559 38.164 50.377 38.065 50.277 37.85C49.762 37.883 49.28 37.916 48.782 37.949C48.749 37.767 48.716 37.651 48.699 37.552C48.068 37.552 47.453 37.602 46.838 37.552C46.556 37.552 46.273 37.386 45.974 37.304C45.924 37.287 45.858 37.221 45.824 37.237C45.409 37.387 45.027 37.187 44.644 37.121C44.562 37.121 44.479 37.105 44.313 37.088C44.413 37.287 44.512 37.419 44.562 37.568C44.628 37.734 44.662 37.899 44.712 38.065C44.712 38.081 44.744 38.115 44.762 38.131C45.193 38.28 45.309 38.711 45.575 39.008C46.024 39.538 46.14 40.216 46.522 40.763C46.788 41.127 46.954 41.573 47.17 41.971C47.187 42.004 47.203 42.07 47.237 42.087C47.536 42.252 47.685 42.517 47.768 42.831C47.768 42.864 47.818 42.914 47.852 42.914C48.184 42.964 48.3 43.179 48.333 43.494C48.333 43.593 48.433 43.692 48.516 43.774C48.816 44.056 48.981 44.404 49.114 44.768C49.164 44.9 49.181 45.098 49.414 45.065C49.446 45.065 49.513 45.148 49.563 45.198C49.679 45.38 49.795 45.562 49.928 45.728C50.128 45.976 50.328 46.208 50.427 46.522C50.477 46.687 50.676 46.82 50.792 46.985C50.942 47.184 51.092 47.399 51.224 47.615C51.241 47.647 51.224 47.714 51.241 47.747C51.474 48.077 51.606 48.442 51.756 48.806C51.789 48.872 51.889 48.922 51.972 48.938C52.0776 48.9633 52.1733 49.0192 52.2472 49.0987C52.321 49.1783 52.3697 49.2779 52.387 49.385C52.471 49.799 52.753 50.064 53.035 50.328C53.185 50.461 53.285 50.577 53.335 50.775C53.368 50.925 53.501 51.073 53.617 51.205C53.867 51.47 54.099 51.735 54.115 52.132C54.115 52.331 54.265 52.43 54.415 52.513C54.697 52.695 54.946 52.877 54.996 53.258C55.013 53.407 55.179 53.556 55.295 53.655C55.611 53.953 55.91 54.251 56.075 54.681C56.125 54.797 56.209 54.896 56.292 54.995C56.558 55.31 56.84 55.608 57.122 55.922C57.189 55.988 57.222 56.104 57.256 56.187C57.306 56.336 57.322 56.518 57.422 56.634C57.854 57.246 57.505 57.792 57.289 58.339C57.256 58.438 57.023 58.487 56.89 58.537C56.774 58.57 56.624 58.554 56.491 58.57C56.441 58.653 56.408 58.769 56.341 58.835C56.274 58.901 56.159 58.984 56.093 58.967C55.86 58.885 55.561 58.868 55.428 58.603C55.278 58.289 55.046 58.041 54.797 57.793C54.597 57.593 54.481 57.279 54.431 56.981C54.365 56.584 54.082 56.369 53.866 56.088C53.733 55.922 53.567 55.757 53.517 55.558C53.417 55.178 53.201 54.88 52.936 54.615C52.586 54.267 52.437 53.804 52.188 53.407V53.324C51.839 53.076 51.656 52.712 51.408 52.397C51.291 52.248 51.141 52.116 51.091 51.95C51.008 51.735 50.991 51.503 50.726 51.404C50.709 51.404 50.676 51.371 50.676 51.338C50.626 50.808 50.178 50.527 49.912 50.113C49.729 49.832 49.447 49.633 49.463 49.253C49.463 49.203 49.397 49.17 49.363 49.12C49.2598 49.0061 49.1656 48.8844 49.081 48.756C48.981 48.607 48.881 48.442 48.765 48.293C48.682 48.177 48.615 48.061 48.533 47.929C48.383 47.697 48.233 47.482 48.084 47.25C48.084 47.233 48.051 47.2 48.034 47.184C47.719 46.671 47.42 46.158 47.071 45.661C46.738 45.165 46.356 44.701 46.007 44.205C45.807 43.923 45.592 43.642 45.459 43.328C45.259 42.798 44.861 42.384 44.595 41.888C44.395 41.474 44.146 41.094 43.897 40.713C43.6132 40.2871 43.3198 39.8677 43.017 39.455C42.967 39.372 42.867 39.289 42.85 39.207C42.784 38.843 42.535 38.594 42.352 38.313C42.152 38.015 41.97 37.701 41.787 37.403C41.505 36.956 41.172 36.608 40.591 36.592C40.408 36.592 40.225 36.526 40.042 36.459C39.976 36.426 39.892 36.327 39.892 36.244C39.892 36.029 39.743 35.98 39.577 35.963C39.461 35.963 39.345 35.946 39.228 35.963C38.8832 36.0788 38.5099 36.0788 38.165 35.963C37.965 35.913 37.749 35.996 37.533 36.013C37.351 36.013 37.201 35.98 37.068 35.831C36.918 35.665 36.719 35.5 36.454 35.648C36.171 35.433 35.756 35.615 35.457 35.334C35.291 35.169 35.041 35.102 34.809 35.004C34.759 34.987 34.643 34.987 34.609 35.02C34.443 35.202 34.244 35.119 34.044 35.102C33.712 35.052 33.38 35.102 33.047 35.052C32.8147 35.044 32.5873 34.982 32.383 34.871C32.033 34.672 31.702 34.672 31.336 34.771C31.286 34.771 31.22 34.771 31.136 34.804C30.987 34.507 30.771 34.457 30.439 34.524C30.173 34.589 29.857 34.606 29.609 34.374C29.559 34.341 29.459 34.308 29.409 34.324C29.226 34.407 29.093 34.324 28.96 34.242C28.927 34.225 28.877 34.176 28.844 34.192C28.462 34.308 28.179 33.977 27.814 33.993C27.731 33.993 27.614 33.911 27.531 33.845C27.398 33.712 27.299 33.563 27.215 33.447C27.049 33.447 27 33.679 26.833 33.53C26.783 33.497 26.634 33.58 26.485 33.63C26.252 33.282 25.853 33.48 25.521 33.447C25.305 33.431 25.089 33.48 24.889 33.497C24.673 33.199 24.424 33.067 24.075 33.1C23.875 33.116 23.677 33.067 23.477 33.067C23.344 33.067 23.211 33.067 23.095 33.1C22.813 33.166 22.763 33.15 22.663 32.901C22.596 32.736 22.53 32.587 22.48 32.421H22.198C22.198 32.421 22.165 32.322 22.181 32.306C22.264 32.239 22.381 32.14 22.464 32.156C22.696 32.19 22.912 32.256 23.128 32.322C23.378 32.405 23.593 32.554 23.876 32.422C23.926 32.388 24.009 32.422 24.092 32.454C24.69 32.57 25.272 32.653 25.853 32.868C26.053 32.934 26.318 33.133 26.567 32.918C26.567 32.918 26.634 32.918 26.651 32.951C26.801 33.183 26.983 33.051 27.149 32.951L27.548 33.298C27.798 33.232 28.046 33.116 28.278 33.133C28.478 33.133 28.694 33.282 28.844 33.414C29.027 33.58 29.193 33.613 29.425 33.58C29.591 33.547 29.791 33.613 29.957 33.68C30.173 33.762 30.356 33.845 30.588 33.745C30.755 33.679 30.888 33.745 31.07 33.828C31.32 33.96 31.652 34.06 31.918 34.027C32.217 33.977 32.383 34.093 32.516 34.308C32.7267 34.176 32.998 34.198 33.33 34.374C33.712 34.142 34.16 34.242 34.526 34.374C35.025 34.54 35.556 34.507 36.055 34.656C36.237 34.706 36.437 34.755 36.57 34.854C36.77 35.004 36.985 35.053 37.218 35.069C37.882 35.102 38.547 35.135 39.212 35.185C39.345 35.185 39.461 35.235 39.577 35.285C39.81 35.384 39.993 35.351 40.175 35.152C40.1621 35.0534 40.127 34.9591 40.0725 34.876C40.0179 34.7929 39.9453 34.7231 39.86 34.672C39.627 34.523 39.494 34.242 39.328 34.01C39.028 33.58 38.746 33.15 38.481 32.703C38.2504 32.3029 37.9893 31.9211 37.7 31.561C37.4009 31.2014 37.1075 30.837 36.82 30.468C36.67 30.27 36.52 30.071 36.437 29.856C36.237 29.326 35.756 29.012 35.473 28.532C35.407 28.416 35.34 28.317 35.273 28.202L34.875 27.705C34.825 27.655 34.759 27.605 34.742 27.539C34.692 27.324 34.492 27.258 34.343 27.125C34.111 26.927 33.895 26.645 33.812 26.348C33.712 26.033 33.546 25.818 33.33 25.603C32.782 25.073 32.4 24.411 32.034 23.749C31.6744 23.0804 31.275 22.4339 30.838 21.813C30.705 21.631 30.605 21.433 30.505 21.267C30.289 21.217 30.14 21.597 29.924 21.267C30.057 21.2 30.173 21.134 30.356 21.052C30.173 20.787 29.99 20.555 29.841 20.307C29.691 20.042 29.558 19.761 29.425 19.496C29.825 19.363 29.874 19.214 29.725 18.519C30.023 18.486 30.305 18.437 30.588 18.453C30.721 18.453 30.854 18.603 30.954 18.718C31.22 19.016 31.502 19.314 31.734 19.645C31.984 19.992 32.217 20.356 32.449 20.704C32.699 21.068 32.964 21.416 33.214 21.78C33.546 22.276 33.878 22.756 34.194 23.253C34.26 23.352 34.26 23.468 34.294 23.583C34.377 23.815 34.476 23.997 34.709 24.146C34.991 24.312 35.174 24.643 35.357 24.941C35.407 25.023 35.34 25.189 35.324 25.305C35.722 25.685 36.121 26.05 36.537 26.414C36.753 26.596 36.869 26.794 36.902 27.076C36.9151 27.2172 36.9733 27.3505 37.068 27.456C37.484 27.87 37.916 28.251 38.331 28.648C38.531 28.846 38.697 29.045 38.597 29.376C38.53 29.608 38.647 29.856 38.847 29.939C39.327 30.121 39.577 30.519 39.827 30.915C39.91 31.048 39.976 31.197 40.042 31.345C40.059 31.395 40.076 31.478 40.109 31.495C40.508 31.677 40.591 32.107 40.839 32.405C41.039 32.653 41.222 32.918 41.421 33.166C41.488 33.266 41.538 33.398 41.621 33.431C41.804 33.514 41.837 33.679 41.92 33.828C42.036 34.043 42.236 34.225 42.418 34.408C42.485 34.49 42.568 34.54 42.651 34.606C42.834 34.771 42.933 34.936 42.801 35.186C42.767 35.235 42.784 35.301 42.767 35.384C43.199 35.516 43.581 35.714 43.581 36.294C43.764 36.244 43.897 36.194 44.03 36.178C44.246 36.162 44.479 36.128 44.678 36.178C45.309 36.377 45.974 36.41 46.638 36.526C47.12 36.608 47.602 36.741 48.084 36.741C48.599 36.741 49.081 36.774 49.546 36.956C49.546 36.956 49.579 36.972 49.579 36.956C49.962 36.741 50.261 37.105 50.593 37.121C51.125 37.155 51.606 37.452 52.155 37.353C52.321 37.32 52.52 37.453 52.687 37.503C52.869 37.568 53.052 37.668 53.268 37.503C53.318 37.469 53.434 37.503 53.501 37.519C53.783 37.601 54.049 37.717 54.348 37.635C54.414 37.618 54.498 37.635 54.564 37.668C54.896 37.899 55.295 37.866 55.661 37.85C56.059 37.85 56.458 37.9 56.857 37.883C57.505 37.85 58.153 37.965 58.801 38.048C58.951 38.065 59.083 38.164 59.233 38.247L59.765 37.982C59.765 37.75 59.681 37.535 59.499 37.32C59.116 36.824 58.784 36.26 58.435 35.748C58.369 35.648 58.269 35.549 58.186 35.45C58.103 35.334 58.003 35.218 57.97 35.086C57.654 34.126 57.19 33.249 56.74 32.339C56.69 32.223 56.574 32.14 56.508 32.041C56.3302 31.7466 56.1585 31.4485 55.993 31.147C55.96 31.081 55.993 30.982 55.926 30.948C55.611 30.717 55.594 30.303 55.378 30.005C55.212 29.773 55.096 29.459 55.029 29.177C54.979 28.996 54.879 28.897 54.78 28.747C54.564 28.417 54.365 28.052 54.149 27.705C53.966 27.39 53.766 27.075 53.584 26.745C53.517 26.629 53.501 26.48 53.451 26.331C53.368 26.05 53.384 25.719 53.035 25.57C52.985 25.553 52.935 25.454 52.935 25.388C52.903 25.09 52.72 24.891 52.57 24.659C52.271 24.146 51.972 23.633 51.74 23.104C51.5709 22.7521 51.3647 22.4192 51.125 22.111C51.008 21.961 50.925 21.763 50.842 21.598C50.742 21.416 50.659 21.25 50.56 21.068C50.26 20.488 49.978 19.893 49.662 19.314C49.53 19.066 49.33 18.834 49.231 18.569C49.014 18.023 48.682 17.559 48.383 17.063C48.333 16.98 48.233 16.881 48.233 16.798C48.267 16.268 47.719 16.004 47.636 15.524C47.619 15.424 47.436 15.342 47.303 15.292C47.103 15.226 46.888 15.192 46.639 15.143C46.439 15.358 46.157 15.325 45.858 15.293C45.758 15.293 45.658 15.293 45.558 15.309C45.426 15.309 45.26 15.359 45.176 15.292C44.927 15.11 44.628 15.259 44.362 15.16C44.296 15.127 44.179 15.21 44.096 15.259C43.881 15.375 43.665 15.375 43.432 15.375C43.082 15.358 42.717 15.408 42.352 15.408C42.02 15.408 41.687 15.342 41.388 15.54C41.372 15.54 41.322 15.557 41.305 15.54C41.039 15.358 40.79 15.54 40.525 15.59C40.458 15.59 40.375 15.607 40.308 15.59C39.876 15.408 39.444 15.425 39.012 15.59C38.83 15.656 38.614 15.64 38.414 15.64C38.181 15.64 37.916 15.59 37.749 15.855C37.716 15.905 37.583 15.905 37.5 15.888C36.902 15.772 36.304 15.822 35.706 15.888C35.091 15.954 34.46 15.971 33.845 16.004C33.579 16.004 33.297 16.037 33.031 16.054C32.615 16.087 32.167 16.054 31.768 16.186C31.452 16.302 31.12 16.186 30.804 16.335C30.704 16.385 30.539 16.335 30.422 16.285C30.156 16.185 29.891 16.202 29.625 16.268C29.475 16.302 29.292 16.302 29.06 16.318C28.96 16.468 28.777 16.55 28.495 16.468C28.362 16.418 28.212 16.468 28.063 16.468C27.93 16.468 27.813 16.451 27.681 16.434C27.598 16.434 27.498 16.384 27.431 16.434C26.801 16.765 26.052 16.616 25.404 16.864C25.338 16.897 25.205 16.831 25.139 16.782C25.056 16.732 25.022 16.632 24.956 16.55C24.79 16.65 24.64 16.732 24.491 16.831C24.3172 16.9475 24.1204 17.0255 23.914 17.0598C23.7076 17.0941 23.4962 17.084 23.294 17.03C22.9245 16.9432 22.5377 16.9662 22.181 17.096C21.55 17.344 20.935 17.394 20.271 17.328C20.137 17.328 19.955 17.311 19.855 17.378C19.489 17.642 19.058 17.708 18.642 17.808C18.277 17.907 17.862 17.907 17.512 17.692C17.362 17.609 17.247 17.592 17.13 17.692C16.715 18.089 16.167 18.039 15.668 18.072C15.336 18.106 15.003 18.056 14.704 18.238C14.6553 18.274 14.5981 18.2967 14.538 18.304C14.222 18.204 14.007 18.42 13.741 18.519C13.475 18.602 13.176 18.602 12.927 18.784C12.827 18.85 12.677 18.834 12.561 18.85C12.478 18.85 12.361 18.85 12.328 18.883C12.228 19.016 12.146 18.95 12.029 18.917C11.78 18.867 11.531 18.834 11.315 19.065C11.165 19.231 10.966 19.265 10.75 19.148C10.55 19.032 10.368 19.066 10.185 19.198C9.91354 19.3668 9.63674 19.5269 9.35503 19.678C9.23803 19.744 9.07203 19.744 8.93903 19.761C8.67303 19.777 8.42403 19.761 8.15803 19.794C7.97509 19.835 7.80077 19.9077 7.64303 20.009C7.21103 20.257 6.72903 20.406 6.26303 20.539C5.91503 20.638 5.59903 20.77 5.33303 21.035C5.15103 21.217 4.85203 21.283 4.60303 21.399C4.45303 21.482 4.30303 21.564 4.17003 21.664C3.87103 21.862 3.60603 22.127 3.20703 22.078C2.97403 22.392 2.75803 22.706 2.45903 22.988C2.02703 23.385 1.94403 23.948 2.02703 24.51C2.07703 24.841 2.14303 25.189 2.22703 25.52C2.24303 25.62 2.32703 25.735 2.39303 25.818C2.64203 26.165 2.90803 26.513 3.15703 26.86C3.27303 27.026 3.42303 27.109 3.62203 27.208C3.90503 27.341 4.20403 27.374 4.46903 27.556C4.76903 27.754 5.08403 27.903 5.46603 27.936C5.61603 27.936 5.74903 28.102 5.86603 28.234C6.01503 28.384 6.14803 28.549 6.29703 28.731C6.71303 28.499 7.07803 28.499 7.47703 28.714C7.62703 28.797 7.84203 28.797 8.00803 28.814C8.34103 28.864 8.69003 28.913 8.93803 29.194C8.98803 29.244 9.05503 29.31 9.10503 29.31C9.48703 29.293 9.88603 29.575 10.235 29.31C10.75 29.509 11.232 29.724 11.714 29.89C11.93 29.972 12.179 30.022 12.411 30.022C12.794 30.022 13.126 30.187 13.491 30.286C13.691 30.336 13.891 30.419 14.073 30.402C14.455 30.402 14.787 30.502 15.12 30.65C15.22 30.7 15.352 30.75 15.452 30.733C15.735 30.651 15.984 30.733 16.25 30.849C16.715 31.064 17.23 31.031 17.728 31.097C18.293 31.18 18.858 31.296 19.39 31.561C19.49 31.611 19.606 31.627 19.722 31.643C19.888 31.677 20.072 31.677 20.237 31.71C20.437 31.743 20.669 31.743 20.669 32.09C20.852 31.958 20.952 31.892 21.101 31.776C21.218 31.892 21.334 31.991 21.467 32.106C21.567 32.057 21.667 31.991 21.782 31.925C21.816 31.941 21.866 31.958 21.882 31.991C21.965 32.123 21.982 32.272 21.849 32.388C21.733 32.488 21.616 32.653 21.4 32.587C21.218 32.521 21.018 32.471 20.819 32.421C20.785 32.421 20.752 32.371 20.736 32.388C20.37 32.653 20.038 32.256 19.689 32.322C19.456 32.372 19.207 32.372 18.991 32.222C18.958 32.19 18.875 32.19 18.825 32.206C18.277 32.256 17.778 32.123 17.28 31.925C17.18 31.892 17.047 31.842 16.947 31.875C16.648 31.975 16.466 31.825 16.316 31.627C16.166 31.428 16.034 31.346 15.818 31.511C15.651 31.66 15.468 31.577 15.319 31.511C15.037 31.379 14.738 31.379 14.439 31.395C14.2244 31.3958 14.011 31.362 13.807 31.295C13.707 31.263 13.657 31.147 13.557 31.031C13.226 31.213 12.893 31.131 12.544 31.031C12.2528 30.9476 11.9495 30.9138 11.647 30.931C11.265 30.948 11.149 30.717 11.032 30.435C10.9977 30.3278 10.9756 30.2171 10.966 30.105C10.866 30.105 10.75 30.071 10.684 30.105C10.384 30.303 10.036 30.27 9.72003 30.336C9.37003 30.402 9.03903 30.353 8.69003 30.22C8.40703 30.104 8.12503 30.055 7.82603 29.988C7.57603 29.938 7.34403 29.922 7.09503 29.889C6.84503 29.873 6.72903 29.674 6.59603 29.509C6.26403 29.062 6.26403 29.062 5.79903 29.343C5.78203 29.343 5.74903 29.36 5.68203 29.393C5.51603 29.177 5.28403 29.012 4.96803 29.111C4.43603 28.846 3.80503 28.896 3.29003 28.581C3.05703 28.433 2.77503 28.383 2.52603 28.267C2.32195 28.1626 2.12724 28.0408 1.94403 27.903C1.89403 27.87 1.86103 27.803 1.81103 27.787C1.34603 27.655 1.04703 27.34 0.781026 26.96C0.515026 26.58 0.266026 26.198 0.249026 25.719C0.249026 25.536 0.149026 25.371 0.0830259 25.172C0.183026 25.122 0.266026 25.057 0.366026 24.99C0.332026 24.924 0.316026 24.858 0.266026 24.825C0.0330259 24.643 -0.0659741 24.428 0.100026 24.146C0.133026 24.096 0.150026 24.03 0.133026 23.981C0.0170259 23.435 0.366026 23.037 0.565026 22.607C0.615026 22.507 0.798026 22.458 0.930026 22.392C0.930026 21.895 1.33003 21.68 1.66203 21.432C1.82803 21.316 1.94403 21.2 2.04403 21.018C2.21003 20.721 2.47603 20.423 2.82403 20.488C3.05703 20.29 3.24003 20.108 3.42303 19.959C3.47303 19.909 3.57303 19.859 3.62303 19.876C4.02103 20.009 4.27003 19.711 4.53603 19.529C4.71903 19.396 4.90103 19.363 5.11703 19.314C5.58303 19.214 6.13103 19.264 6.49703 18.834C6.56303 18.751 6.69603 18.734 6.79603 18.684C6.91203 18.768 7.01203 18.85 7.06103 18.884C7.29403 18.718 7.46103 18.552 7.67603 18.42C7.89203 18.304 8.12503 18.221 8.37403 18.106C8.45703 18.139 8.55703 18.205 8.65603 18.254C8.95603 18.387 9.03903 18.354 9.30403 18.139C9.45403 18.023 9.65403 17.957 9.83603 17.907C9.98603 17.857 10.186 17.89 10.301 17.807C10.733 17.493 11.298 17.593 11.731 17.327H11.764C12.312 17.51 12.694 17.063 13.176 16.98C13.508 16.914 13.824 16.765 14.173 16.732C14.721 16.682 15.236 16.451 15.801 16.517C15.901 16.517 16.001 16.434 16.117 16.384C16.349 16.268 16.565 16.169 16.864 16.235C17.03 16.285 17.23 16.219 17.413 16.169C17.698 16.0821 17.9953 16.0429 18.293 16.053C18.543 16.053 18.792 15.954 19.058 15.904C19.307 15.854 19.573 15.64 19.822 15.888C20.072 15.822 20.337 15.805 20.57 15.706C20.918 15.573 21.666 15.524 22.065 15.474C22.315 15.458 22.596 15.574 22.845 15.342C23.062 15.16 23.195 15.441 23.361 15.573C23.411 15.523 23.461 15.458 23.527 15.408C23.61 15.342 23.693 15.242 23.777 15.259C24.324 15.342 24.807 14.978 25.338 15.027C25.521 15.044 25.704 15.077 25.886 15.11C25.969 15.11 26.086 15.16 26.136 15.11C26.352 14.928 26.617 15.044 26.833 14.961C27.049 14.895 27.282 14.861 27.498 14.796C27.748 14.713 27.947 14.746 28.113 14.911C28.246 14.861 28.362 14.779 28.478 14.762C28.811 14.729 29.143 14.762 29.458 14.712C29.908 14.647 30.406 14.829 30.821 14.498C31.021 14.332 31.253 14.332 31.469 14.432C31.702 14.547 31.918 14.498 32.15 14.448C32.4 14.398 32.665 14.348 32.914 14.316C33.114 14.282 33.314 14.266 33.479 14.415C33.546 14.465 33.695 14.498 33.779 14.465C34.078 14.349 34.377 14.398 34.676 14.332C34.991 14.266 35.207 14.332 35.39 14.597C35.49 14.531 35.556 14.465 35.623 14.398C35.656 14.365 35.689 14.316 35.723 14.316C36.005 14.249 36.287 14.2 36.553 14.134C36.853 14.067 37.002 14.1 37.318 14.349C37.666 14.249 37.982 14.15 38.314 14.084C38.414 14.067 38.564 14.117 38.664 14.184C38.913 14.382 39.145 14.382 39.361 14.134C39.561 13.902 39.743 13.77 40.109 13.918C40.359 14.034 40.69 14.068 40.973 13.836C41.073 13.753 41.305 13.753 41.455 13.77C41.721 13.82 41.986 13.918 42.269 14.001C42.501 13.819 42.767 13.836 43.066 13.803C43.565 13.769 44.046 13.72 44.546 13.538C44.977 13.372 45.492 13.306 45.974 13.438C46.0307 13.4414 46.0866 13.4529 46.14 13.472C46.14 13.472 46.157 13.472 46.207 13.422C46.19 13.356 46.173 13.273 46.14 13.207C45.791 12.528 45.326 11.916 44.827 11.337C44.647 11.1157 44.4807 10.8836 44.329 10.642C44.2648 10.5304 44.2252 10.4062 44.213 10.278C44.179 10.078 44.213 9.88001 44.395 9.78101C44.595 9.68101 44.811 9.59901 44.994 9.78101C45.127 9.91301 45.243 9.86401 45.392 9.79701C45.742 9.64901 46.207 9.76401 46.456 10.046C46.722 10.327 46.938 10.625 46.871 11.039C46.871 11.121 46.938 11.27 47.004 11.287C47.469 11.37 47.602 11.8 47.884 12.065C48.217 12.379 48.4 12.826 48.815 13.075C48.915 13.141 48.948 13.29 48.998 13.372C49.43 13.322 49.845 13.273 50.261 13.24C50.361 13.24 50.477 13.223 50.56 13.24C50.875 13.356 51.191 13.389 51.523 13.306C51.59 13.29 51.706 13.406 51.789 13.472C51.872 13.538 51.922 13.637 52.022 13.752C52.088 13.604 52.105 13.522 52.155 13.472C52.238 13.389 52.404 13.24 52.454 13.256C52.687 13.372 52.952 13.124 53.152 13.339C53.168 13.372 53.252 13.339 53.302 13.339C53.65 13.256 53.999 13.174 54.348 13.107C54.414 13.107 54.514 13.057 54.548 13.107C54.863 13.356 55.262 13.307 55.611 13.455C56.01 13.24 56.408 13.141 56.857 13.339C56.973 13.389 57.139 13.372 57.256 13.323C57.372 13.289 57.455 13.173 57.571 13.091C58.2896 13.0158 59.016 13.1005 59.698 13.339C59.781 13.239 59.848 13.174 59.931 13.074C60.13 13.157 60.313 13.256 60.562 13.372C60.645 13.24 60.728 13.108 60.778 13.058C61.26 13.108 61.658 13.141 62.041 13.19C62.207 13.207 62.373 13.24 62.539 13.24C62.639 13.24 62.739 13.223 62.822 13.174C63.27 12.959 63.403 13.008 63.636 13.455C63.669 13.505 63.686 13.555 63.736 13.62C63.819 13.554 63.885 13.472 63.968 13.439C64.035 13.405 64.168 13.339 64.201 13.372C64.45 13.538 64.766 13.522 64.981 13.786C65.248 14.101 65.58 14.349 65.912 14.614C66.327 14.944 66.477 15.391 66.294 15.888C66.261 15.971 66.228 16.07 66.244 16.136C66.294 16.302 66.211 16.401 66.112 16.516C65.995 16.649 65.929 16.831 65.846 17.013C65.713 16.947 65.596 16.881 65.496 16.831C64.998 17.179 64.916 17.162 64.699 16.583C64.662 16.4752 64.6342 16.3645 64.616 16.252C64.583 15.938 64.45 15.656 64.267 15.375C64.167 15.242 64.084 15.176 63.918 15.16C63.702 15.16 63.503 15.127 63.37 14.878C63.3527 14.8448 63.3279 14.816 63.2976 14.7939C63.2673 14.7718 63.2323 14.757 63.1953 14.7506C63.1584 14.7442 63.1205 14.7465 63.0845 14.7571C63.0486 14.7677 63.0155 14.7865 62.988 14.812C62.822 14.962 62.638 14.895 62.456 14.895C62.206 14.895 62.024 14.812 61.825 14.696C61.675 14.614 61.426 14.796 61.243 14.547C61.177 14.448 61.011 14.481 60.944 14.597C60.828 14.796 60.678 14.779 60.462 14.762C59.947 14.729 59.416 14.762 58.9 14.729C58.552 14.729 58.186 14.696 57.837 14.663C57.771 14.663 57.687 14.647 57.637 14.663C57.355 14.813 57.057 14.796 56.74 14.729C56.6282 14.7169 56.5151 14.7285 56.408 14.763C55.9964 14.9364 55.5358 14.9542 55.112 14.813C55.062 14.813 54.996 14.796 54.946 14.813C54.714 14.911 54.514 14.845 54.282 14.813C53.982 14.779 53.667 14.729 53.352 14.813C53.218 14.845 53.035 14.763 52.819 14.713C52.7474 14.7919 52.6532 14.8469 52.5493 14.8705C52.4454 14.8941 52.3367 14.8852 52.238 14.845C52.072 14.779 51.872 14.845 51.69 14.862C51.34 14.895 50.975 14.912 50.626 14.962C50.426 14.994 50.227 15.094 50.011 15.176C50.211 15.756 50.361 16.318 50.776 16.782C50.859 16.864 50.826 17.046 50.842 17.162C51.058 17.394 51.258 17.626 51.49 17.841C51.806 18.139 51.773 18.585 51.989 18.916C52.022 18.966 52.022 19.049 52.055 19.066C52.337 19.214 52.355 19.512 52.437 19.761C52.653 20.439 52.952 21.068 53.417 21.614C53.484 21.697 53.567 21.796 53.667 21.862C54.016 22.061 54.115 22.392 54.115 22.74C54.115 22.988 54.215 23.186 54.365 23.369C54.597 23.666 54.88 23.915 54.896 24.329C54.896 24.411 54.979 24.477 55.029 24.544C55.079 24.626 55.179 24.709 55.195 24.792C55.229 25.172 55.428 25.47 55.627 25.768C55.86 26.116 56.109 26.463 56.308 26.828C56.408 26.993 56.508 27.192 56.508 27.374C56.491 27.738 56.674 27.986 56.907 28.184C57.173 28.416 57.405 28.648 57.538 28.979C57.621 29.211 57.87 29.393 57.904 29.608C57.954 30.022 58.203 30.22 58.518 30.418C58.768 30.568 58.834 30.866 58.801 31.147C58.768 31.577 58.934 31.892 59.233 32.207C59.449 32.421 59.681 32.669 59.798 32.967C59.864 33.117 60.064 33.249 60.064 33.397C60.08 33.745 60.28 33.96 60.462 34.209C60.745 34.589 61.011 34.986 61.243 35.4C61.409 35.698 61.526 36.046 61.659 36.377C61.675 36.427 61.659 36.509 61.709 36.526C62.124 36.84 62.14 37.386 62.456 37.766C62.622 37.966 62.639 38.296 62.722 38.578C62.722 38.628 62.772 38.678 62.805 38.793C63.038 38.793 63.303 38.826 63.553 38.843C63.6384 38.8444 63.7228 38.8613 63.802 38.893C63.852 38.893 63.935 38.975 63.952 38.959C64.251 38.71 64.55 38.992 64.832 38.959C65.397 38.892 65.945 38.992 66.494 39.041C66.843 39.074 67.208 39.174 67.557 39.256C67.873 39.339 68.172 39.422 68.504 39.339C68.57 39.323 68.654 39.306 68.72 39.339C69.55 39.637 70.431 39.489 71.262 39.654C71.578 39.72 71.927 39.819 72.242 39.786C72.791 39.736 73.289 39.902 73.804 39.968C74.037 40.001 74.303 39.885 74.502 40.034C74.718 40.2 74.917 40.167 75.133 40.067C75.349 39.985 75.549 39.952 75.798 40.034C76.014 40.117 76.28 40.084 76.529 40.1C76.695 40.1 76.878 40.1 77.044 40.167C77.344 40.266 77.609 40.365 77.924 40.282C77.968 40.2731 78.0135 40.2744 78.0569 40.2861C78.1003 40.2977 78.1404 40.3192 78.174 40.349C78.39 40.514 78.623 40.514 78.872 40.531C79.055 40.531 79.221 40.614 79.453 40.68C79.753 40.415 80.068 40.498 80.367 40.829C80.633 40.547 80.949 40.63 81.247 40.63C81.697 40.63 82.128 40.68 82.577 40.73C82.843 40.763 83.125 40.812 83.391 40.845C83.491 40.845 83.591 40.878 83.691 40.878C83.89 40.878 84.039 40.928 84.221 41.011C84.538 41.16 84.87 41.292 85.252 41.259C85.518 41.242 85.8 41.11 86.066 41.259C86.366 41.06 86.681 41.242 86.98 41.193C87.329 41.143 87.611 41.209 87.794 41.623C87.861 41.491 87.894 41.408 87.96 41.293H88.691C88.857 41.293 89.041 41.325 89.19 41.408C89.422 41.524 89.638 41.606 89.888 41.408C90.137 41.656 90.403 41.689 90.735 41.673C91.234 41.623 91.749 41.557 92.197 41.855C92.214 41.855 92.264 41.905 92.28 41.888C92.795 41.673 93.244 42.07 93.742 42.02C94.158 41.987 94.59 42.053 95.005 42.103C95.205 42.12 95.387 42.203 95.587 42.219C96.052 42.252 96.534 42.252 96.999 42.269C97.099 42.269 97.215 42.269 97.281 42.335C97.597 42.55 97.929 42.55 98.278 42.5C98.461 42.484 98.611 42.5 98.777 42.566C98.943 42.649 99.142 42.649 99.325 42.682C99.441 42.699 99.558 42.732 99.657 42.732H100.787C100.538 42.566 100.305 42.517 100.339 42.235C100.339 42.185 100.089 42.053 99.956 42.053C99.774 42.053 99.641 42.003 99.574 41.838C99.441 41.491 99.126 41.391 98.81 41.308C98.659 41.2824 98.5165 41.2203 98.395 41.127C97.995 40.845 97.697 40.448 97.232 40.266C97.165 40.249 97.132 40.183 97.082 40.117C97.049 40.067 97.032 39.985 96.999 39.968C96.617 39.918 96.401 39.588 96.102 39.388C95.752 39.158 95.404 38.908 95.005 38.777C94.64 38.644 94.44 38.347 94.158 38.114C94.091 38.064 94.041 37.966 93.975 37.949C93.675 37.883 93.443 37.701 93.26 37.453C92.928 37.039 92.43 36.857 92.014 36.543C91.699 36.31 91.4 36.063 91.084 35.831C90.552 35.417 90.037 34.986 89.505 34.573C89.439 34.523 89.355 34.473 89.306 34.407C88.907 33.994 88.542 33.563 88.126 33.166C87.8962 32.9307 87.6335 32.7299 87.346 32.57C86.896 32.339 86.615 31.941 86.282 31.577C86.132 31.412 85.917 31.279 85.9 31.015C85.9 30.965 85.817 30.899 85.75 30.882C85.468 30.799 85.302 30.584 85.136 30.352C84.786 29.856 84.438 29.343 84.089 28.83C84.0606 28.778 84.021 28.7329 83.973 28.698C83.507 28.482 83.391 28.003 83.159 27.605C83.042 27.407 82.992 27.175 82.876 26.976C82.726 26.695 82.626 26.43 82.81 26.116C82.394 25.917 82.278 25.586 82.344 25.189C82.3575 25.0614 82.3463 24.9324 82.311 24.809C82.211 24.477 82.311 24.179 82.427 23.849C82.361 23.749 82.277 23.649 82.195 23.55C82.395 22.971 82.627 22.392 82.56 21.747C82.5706 21.6464 82.6049 21.5498 82.66 21.465C82.926 21.101 83.042 20.655 83.375 20.356C83.391 20.34 83.425 20.306 83.425 20.29C83.391 19.91 83.723 19.694 83.823 19.38C83.923 19.066 84.106 18.768 84.488 18.652C84.82 18.552 85.069 18.304 85.235 17.99C85.269 17.924 85.302 17.84 85.352 17.824C85.717 17.642 85.867 17.261 86.149 16.997C86.299 16.847 86.432 16.682 86.581 16.533C86.963 16.186 87.362 15.838 87.678 15.408C87.694 15.391 87.694 15.342 87.728 15.342C88.126 15.094 88.508 14.862 88.908 14.63C89.04 14.547 89.223 14.481 89.256 14.365C89.356 14.067 89.638 13.918 89.838 13.736C90.087 13.521 90.386 13.372 90.668 13.206C90.785 13.141 90.901 13.108 91.018 13.058C91.051 13.058 91.134 13.058 91.134 13.025C91.3 12.645 91.715 12.561 91.964 12.33C91.881 12.065 91.815 11.817 91.715 11.585C91.6671 11.4906 91.5836 11.419 91.483 11.386C91.3 11.353 91.2 11.237 91.133 11.105C91.051 10.939 90.951 10.774 90.901 10.592C90.701 9.98001 90.27 9.45001 90.22 8.78801C90.203 8.60601 90.054 8.42401 89.938 8.27501C89.538 7.76201 89.29 7.21501 89.107 6.58701C88.891 5.89201 88.874 5.13001 88.542 4.46801C88.16 3.70801 88.309 2.94601 88.392 2.18501C88.392 2.10201 88.459 2.03501 88.492 1.95301C88.525 1.88701 88.608 1.82001 88.592 1.77101C88.475 1.40701 88.742 1.15801 88.891 0.911011C89.123 0.530011 89.489 0.231011 89.971 0.248011C90.1263 0.257981 90.2799 0.211056 90.403 0.116011C90.536 0.0330108 90.668 -0.0499892 90.818 -0.115989C90.984 -0.181989 91.167 -0.215989 91.3 -0.0499892C91.416 0.116011 91.566 0.100011 91.732 0.0500108C91.865 0.0160108 91.982 -0.0499892 92.114 -0.0499892C92.247 -0.0499892 92.38 -0.0169892 92.513 0.0160108C92.762 0.0830108 92.995 0.216011 93.243 0.248011C93.576 0.298011 93.892 0.381011 94.158 0.596011C94.374 0.761011 94.623 0.877011 94.872 1.00901C94.939 1.04301 95.022 1.09201 95.072 1.05901C95.321 0.943011 95.52 1.07601 95.719 1.19201C96.185 1.45601 96.65 1.68801 96.999 2.11801C97.049 2.18501 97.215 2.21801 97.315 2.20101C97.497 2.16801 97.63 2.21801 97.713 2.36701C97.996 2.81301 98.444 3.02901 98.893 3.26001C99.009 3.31001 99.109 3.41001 99.175 3.50901C99.408 3.85601 99.657 4.15401 100.089 4.31901C100.388 4.43501 100.621 4.74901 100.82 5.01501C101.036 5.31201 101.236 5.59401 101.618 5.69301C101.734 5.72601 101.884 5.85901 101.9 5.97401C101.983 6.35501 102.266 6.55401 102.532 6.76901C102.665 6.88501 102.831 6.95101 102.847 7.14901C102.881 7.34901 103.03 7.44701 103.213 7.44701C103.462 7.44701 103.562 7.58001 103.645 7.79501C103.711 7.97701 103.844 8.14301 103.911 8.34101C103.961 8.45701 103.961 8.60601 103.977 8.78801C104.077 8.72201 104.177 8.65601 104.26 8.60601C104.492 8.50601 104.642 8.58901 104.675 8.83801C104.692 8.98701 104.692 9.13601 104.758 9.25101C104.941 9.58201 105.157 9.88101 105.639 9.79701C105.838 9.76401 106.071 9.84701 106.27 9.89701C106.735 9.99701 107.201 10.095 107.666 10.178C107.849 10.211 108.197 10.493 108.214 10.675C108.214 10.79 108.181 10.939 108.098 11.022C107.832 11.303 107.5 11.402 107.117 11.287C107.034 11.27 106.951 11.237 106.852 11.221C106.669 11.535 106.818 11.8 106.985 11.982C107.167 12.181 107.201 12.33 107.101 12.545C107.068 12.611 107.101 12.694 107.101 12.793C107.217 12.793 107.3 12.826 107.4 12.81C107.865 12.76 108.048 12.925 107.932 13.372C107.865 13.654 107.832 13.902 107.965 14.167C107.981 14.217 107.998 14.299 108.031 14.316C108.347 14.448 108.347 14.696 108.314 14.961C108.281 15.209 108.497 15.242 108.646 15.358C108.614 15.484 108.612 15.6158 108.641 15.7425C108.67 15.8693 108.729 15.9874 108.812 16.087C108.845 16.137 108.879 16.202 108.862 16.235C108.746 16.55 108.895 16.782 109.095 17.013C109.145 17.063 109.178 17.146 109.161 17.212C109.078 17.808 109.244 18.37 109.311 18.966C109.311 19.066 109.361 19.198 109.427 19.231C109.676 19.396 109.643 19.611 109.643 19.86C109.643 20.489 109.743 21.118 109.793 21.747V22.26C109.793 22.409 109.759 22.59 109.826 22.723C109.975 23.038 110.058 23.335 109.859 23.617C109.992 23.766 110.108 23.898 110.208 24.03C110.324 24.196 110.341 24.345 110.291 24.56C110.224 24.825 110.241 25.123 110.241 25.404C110.241 25.867 110.341 26.314 110.158 26.778C110.108 26.91 110.224 27.092 110.274 27.324C110.258 27.357 110.175 27.44 110.141 27.556C110.108 27.655 110.058 27.804 110.108 27.87C110.258 28.069 110.208 28.284 110.208 28.499C110.208 28.929 110.191 29.359 110.125 29.789C110.085 29.9982 110.012 30.1998 109.909 30.386C109.776 30.601 109.626 30.799 109.709 31.064C109.826 31.428 110.025 31.743 110.391 31.842C110.656 31.908 110.706 32.107 110.823 32.272C110.856 32.322 110.839 32.422 110.889 32.471C111.055 32.653 111.271 32.785 111.404 32.984C111.537 33.166 111.52 33.431 111.77 33.58C112.019 33.729 112.185 34.01 112.384 34.242C112.534 34.407 112.717 34.556 112.733 34.821C112.733 34.921 112.833 35.02 112.916 35.102C113.149 35.334 113.398 35.549 113.631 35.781C113.73 35.881 113.813 36.013 113.88 36.129C114.029 36.393 114.146 36.675 114.279 36.939C114.312 37.006 114.395 37.055 114.461 37.121C114.611 37.237 114.843 37.287 114.877 37.535C115.342 37.701 115.491 38.197 115.824 38.495C116.239 38.859 116.422 39.372 116.804 39.736C116.92 39.852 116.871 40.001 116.804 40.134C116.771 40.184 116.787 40.249 116.771 40.332C117.269 40.382 117.485 40.812 117.851 41.044C118.299 41.342 118.399 41.854 118.748 42.219C118.947 42.434 119.064 42.732 119.313 42.914C119.413 42.98 119.529 43.096 119.562 43.212C119.612 43.394 119.728 43.444 119.894 43.51C120.21 43.626 120.227 43.659 120.194 44.023C120.16 44.288 120.26 44.47 120.576 44.553C120.808 44.619 120.875 44.734 120.908 44.95C120.944 45.1709 121.055 45.3729 121.221 45.5231C121.387 45.6733 121.599 45.7628 121.822 45.777C122.005 45.777 122.221 45.827 122.387 45.777C122.819 45.645 123.217 45.81 123.633 45.827C123.899 45.827 124.181 45.91 124.447 45.943C124.713 45.993 124.979 46.059 125.195 46.257C125.261 46.323 125.328 46.373 125.394 46.423C125.461 46.389 125.51 46.373 125.544 46.323C125.793 46.092 125.959 46.059 126.225 46.24C126.408 46.356 126.541 46.356 126.74 46.34C126.972 46.307 127.222 46.373 127.454 46.39C127.571 46.39 127.704 46.39 127.82 46.406C128.019 46.423 128.219 46.456 128.418 46.489C128.601 46.505 128.784 46.522 128.966 46.522C129.033 46.522 129.116 46.489 129.182 46.489C129.648 46.589 130.113 46.721 130.595 46.787C130.86 46.837 131.126 46.886 131.375 47.002C131.475 47.052 131.641 47.068 131.741 47.018C132.023 46.886 132.223 47.018 132.406 47.2C132.522 47.3 132.622 47.416 132.771 47.581C132.854 47.416 132.921 47.3 132.987 47.167C133.072 47.1684 133.157 47.1853 133.236 47.217C133.286 47.234 133.353 47.317 133.386 47.3C133.818 47.035 134.267 47.548 134.715 47.3C134.831 47.234 135.047 47.366 135.214 47.416C135.413 47.466 135.612 47.515 135.812 47.548C136.028 47.581 136.244 47.565 136.443 47.631C137.124 47.862 137.839 47.813 138.52 48.011C138.786 48.094 139.102 47.995 139.384 48.011C139.833 48.061 140.281 48.161 140.73 48.226C140.979 48.276 141.228 48.376 141.477 48.342C141.81 48.309 142.076 48.425 142.358 48.508C142.508 48.541 142.674 48.64 142.823 48.608C143.089 48.558 143.289 48.608 143.488 48.806C143.538 48.856 143.754 48.872 143.787 48.806C143.903 48.673 144.003 48.723 144.136 48.723C144.568 48.756 145 48.773 145.415 48.823C145.598 48.839 145.764 48.922 146.013 49.004C146.213 48.889 146.495 48.806 146.778 49.054C146.794 49.071 146.828 49.087 146.861 49.071C147.343 48.971 147.775 49.153 148.223 49.319C148.389 49.385 148.605 49.419 148.771 49.385C149.187 49.319 149.602 49.418 150.001 49.451C150.45 49.501 150.882 49.584 151.33 49.666C151.447 49.683 151.563 49.782 151.646 49.865C151.779 49.981 151.895 50.097 152.061 50.245C152.161 50.13 152.244 50.014 152.36 49.898C152.427 49.998 152.493 50.08 152.576 50.196C152.676 49.948 152.826 49.865 153.091 49.981C153.191 50.031 153.324 50.047 153.424 50.031C153.872 49.948 154.271 50.163 154.686 50.196C154.736 50.196 154.786 50.213 154.803 50.246C154.986 50.576 155.285 50.461 155.567 50.461C156.265 50.461 156.946 50.511 157.611 50.742C157.91 50.842 158.259 50.808 158.574 50.875C158.691 50.891 158.807 51.007 158.973 51.123C159.056 51.123 159.206 51.073 159.372 51.057H159.837C160.07 51.09 160.319 51.139 160.552 51.172C160.618 51.172 160.685 51.206 160.751 51.222C160.801 51.239 160.867 51.322 160.9 51.305C161.316 51.189 161.648 51.487 162.014 51.503C162.18 51.503 162.346 51.47 162.562 51.437C162.662 51.52 162.795 51.619 162.928 51.735C163.127 51.934 163.127 51.934 163.36 51.735C163.393 51.702 163.426 51.702 163.476 51.669C163.642 51.719 163.808 51.95 164.008 51.719H164.124C164.656 51.834 165.187 52.033 165.735 52.049C166.467 52.083 167.148 52.381 167.862 52.381C168.145 52.381 168.394 52.347 168.61 52.579C168.643 52.612 168.726 52.612 168.776 52.579C169.258 52.447 169.673 52.612 170.089 52.844C170.305 52.96 170.521 53.092 170.737 52.894C170.886 52.96 171.002 53.01 171.135 53.059C171.368 53.142 171.584 53.241 171.817 53.324C171.933 53.357 172.099 53.407 172.182 53.357C172.498 53.158 172.797 53.257 173.096 53.357C173.262 53.423 173.412 53.44 173.594 53.423C173.927 53.39 174.242 53.423 174.558 53.589C174.807 53.721 175.057 53.887 175.372 53.754H175.455C175.705 53.969 176.07 53.904 176.319 54.102C176.402 54.168 176.485 54.234 176.569 54.251C176.917 54.284 177.266 54.367 177.582 54.383C177.997 54.4 178.346 54.533 178.712 54.631C178.944 54.697 179.194 54.681 179.443 54.631C179.742 54.581 180.008 54.681 180.24 54.797C180.472 54.913 180.656 54.897 180.839 54.813C181.055 54.714 181.271 54.747 181.42 54.88C181.752 55.16 182.068 55.144 182.434 54.995C182.583 55.128 182.716 55.244 182.965 55.161C183.098 55.111 183.298 55.277 183.48 55.343C183.563 55.376 183.663 55.475 183.73 55.459C184.178 55.343 184.56 55.575 184.992 55.657C185.242 55.707 185.491 55.691 185.707 55.873C185.757 55.906 185.923 55.84 186.006 55.773C186.155 55.624 186.288 55.624 186.471 55.707C186.704 55.807 186.97 55.857 187.219 55.922C187.285 55.939 187.352 55.988 187.402 56.022C187.572 56.1838 187.798 56.2728 188.033 56.27C188.232 56.27 188.415 56.336 188.565 56.518C188.714 56.717 188.847 56.7 189.03 56.518C189.063 56.485 189.096 56.435 189.13 56.402C189.329 56.435 189.512 56.452 189.678 56.518C189.844 56.584 189.977 56.7 190.176 56.816C190.293 56.684 190.426 56.568 190.525 56.419C190.608 56.303 190.675 56.22 190.824 56.237C190.957 56.237 191.107 56.22 191.256 56.204C191.323 56.336 191.389 56.484 191.489 56.601C191.572 56.701 191.721 56.766 191.854 56.866C192.104 56.634 192.32 56.684 192.552 56.866C192.702 56.981 192.868 57.031 193.067 57.031C193.466 57.048 193.865 57.131 194.264 57.197C194.33 57.197 194.43 57.197 194.463 57.247C194.862 57.61 195.393 57.544 195.859 57.627C196.075 57.66 196.291 57.627 196.507 57.627C196.556 57.627 196.606 57.61 196.64 57.627C196.939 57.875 197.321 57.776 197.653 57.825C197.686 57.825 197.72 57.859 197.736 57.842C198.201 57.594 198.633 58.041 199.099 57.925C199.182 57.908 199.298 58.008 199.398 58.074C199.614 58.223 199.813 58.454 200.129 58.239C200.195 58.189 200.378 58.322 200.527 58.372C200.677 58.305 200.86 58.239 201.059 58.157C201.059 58.09 201.076 58.007 201.076 57.925C201.076 57.495 201.358 57.279 201.691 57.13C201.873 57.048 202.089 57.031 202.239 57.246C202.322 57.362 202.422 57.478 202.521 57.577C202.671 57.71 202.804 57.842 203.053 57.825C203.385 57.809 203.601 57.975 203.668 58.322C203.687 58.4096 203.72 58.4935 203.767 58.57C203.934 58.852 204 59.116 203.751 59.398C203.668 59.497 203.701 59.696 203.668 59.911C203.468 59.977 203.236 60.06 202.987 60.142C202.937 60.159 202.854 60.142 202.82 60.142C202.471 60.342 202.139 60.374 201.79 60.109C201.707 60.043 201.441 60.142 201.308 60.225C200.993 60.44 200.694 60.457 200.328 60.291C200.112 60.192 199.83 60.241 199.58 60.225C199.531 60.225 199.447 60.275 199.414 60.242C199.099 60.027 198.75 60.159 198.417 60.126C198.068 60.093 197.736 59.911 197.387 60.076C197.337 60.093 197.238 60.01 197.155 59.977C197.088 59.96 197.005 59.911 196.955 59.944C196.739 60.076 196.573 59.944 196.374 59.878C195.942 59.778 195.56 59.563 195.161 59.381C194.961 59.281 194.662 59.265 194.413 59.232C194.131 59.199 193.965 59.067 193.848 58.802C193.549 58.967 193.217 58.967 192.984 59.298C192.785 59.58 192.486 59.828 192.054 59.845C191.788 59.845 191.555 59.993 191.256 59.927C191.057 59.877 190.874 59.845 190.725 59.629C190.558 59.795 190.442 59.927 190.293 60.076C189.91 59.828 189.661 60.01 189.478 60.324C188.997 60.225 188.548 60.126 188.033 60.01L188.166 60.258ZM106.835 30.452C106.619 30.319 106.453 30.253 106.353 30.137C106.187 29.906 106.054 29.641 105.905 29.393C105.871 29.326 105.838 29.227 105.772 29.194C105.34 29.012 105.057 28.648 104.858 28.251C104.692 27.887 104.393 27.671 104.16 27.391C104.094 27.307 103.994 27.225 103.927 27.141C103.678 26.861 103.462 26.546 103.196 26.281C102.947 26.033 102.764 25.686 102.382 25.57C102.332 25.553 102.266 25.47 102.249 25.404C102.166 25.106 101.967 24.908 101.751 24.709C101.668 24.626 101.634 24.527 101.568 24.428C101.402 24.212 101.269 23.931 101.036 23.782C100.571 23.468 100.272 23.021 99.94 22.574C99.79 22.375 99.657 22.094 99.458 21.994C99.176 21.846 99.076 21.631 98.96 21.383C98.925 21.3057 98.8803 21.2331 98.827 21.167C98.627 20.936 98.345 20.737 98.228 20.456C97.929 19.744 97.265 19.363 96.833 18.784C96.434 18.238 95.819 17.89 95.487 17.278C95.304 16.948 95.038 16.649 94.839 16.318C94.589 15.904 94.341 15.491 93.975 15.16C93.759 14.978 93.593 14.68 93.493 14.398C93.393 14.117 93.277 13.885 92.961 13.703C92.811 13.803 92.629 13.918 92.446 14.018C92.23 14.15 92.014 14.299 91.782 14.415C91.55 14.531 91.283 14.58 91.084 14.729C90.735 15.011 90.452 15.342 90.037 15.524C89.987 15.54 89.971 15.607 89.937 15.656C89.722 15.987 89.472 16.302 89.057 16.417C88.974 16.451 88.907 16.55 88.824 16.599C88.509 16.782 88.409 17.245 87.977 17.279C87.927 17.279 87.877 17.394 87.827 17.477C87.777 17.543 87.761 17.642 87.694 17.692C87.196 18.155 86.781 18.718 86.183 19.099C85.95 19.247 85.833 19.595 85.667 19.859C85.517 20.109 85.418 20.373 85.252 20.605C85.019 20.935 84.77 21.233 84.538 21.548C84.5079 21.5794 84.4901 21.6206 84.488 21.664C84.488 21.895 84.338 22.044 84.172 22.194C84.322 22.491 84.272 22.773 84.106 23.038C84.039 23.137 84.022 23.286 84.006 23.402C83.973 23.55 84.006 23.716 83.939 23.865C83.757 24.428 83.723 24.99 83.956 25.553C83.9827 25.6214 83.9939 25.6948 83.989 25.768C83.989 26.331 84.355 26.745 84.554 27.241C84.571 27.291 84.671 27.324 84.737 27.341C85.036 27.473 85.435 27.986 85.468 28.284C85.501 28.565 85.618 28.764 85.883 28.896C86 28.962 86.183 29.062 86.199 29.161C86.216 29.36 86.382 29.409 86.481 29.509C86.631 29.657 86.764 29.823 86.931 29.989C87.096 30.154 87.263 30.303 87.429 30.452C87.545 30.552 87.694 30.65 87.761 30.782C87.9041 31.0684 88.1299 31.3053 88.409 31.462C88.625 31.594 88.808 31.759 88.874 32.008C88.924 32.173 89.024 32.239 89.174 32.272C89.273 32.289 89.356 32.355 89.439 32.422C89.572 32.504 89.689 32.587 89.821 32.686C89.954 32.786 90.071 32.918 90.203 33.017C90.336 33.133 90.469 33.331 90.619 33.365C90.901 33.398 91.034 33.563 91.15 33.762C91.383 34.192 91.765 34.358 92.18 34.54C92.214 34.656 92.23 34.804 92.297 34.904C92.347 34.986 92.447 35.086 92.547 35.102C92.978 35.202 93.161 35.301 93.393 35.632C93.427 35.682 93.46 35.732 93.51 35.748C93.992 35.88 94.141 36.46 94.606 36.592C94.689 36.824 94.906 36.857 95.105 36.906C95.337 36.956 95.52 37.022 95.553 37.287C95.553 37.353 95.653 37.436 95.719 37.486C96.035 37.684 96.218 38.048 96.633 38.081C96.716 38.081 96.799 38.197 96.833 38.28C96.933 38.495 97.115 38.545 97.331 38.578C97.497 38.594 97.663 38.678 97.796 38.76C98.079 38.925 98.361 39.124 98.644 39.29C98.91 39.455 99.209 39.57 99.458 39.736C99.906 40.051 100.289 40.432 100.787 40.696C100.903 40.763 100.953 40.928 101.053 41.027C101.119 41.11 101.219 41.209 101.302 41.209C101.452 41.209 101.535 41.275 101.634 41.359C101.751 41.441 101.917 41.524 102.066 41.54C102.498 41.54 102.764 41.938 103.146 42.037C103.163 42.037 103.196 42.07 103.213 42.103C103.296 42.401 103.562 42.417 103.811 42.434C103.944 42.434 104.094 42.484 104.094 42.633C104.127 42.947 104.393 43.046 104.609 43.08C104.974 43.146 105.24 43.526 105.655 43.41C105.672 43.41 105.722 43.477 105.755 43.493C105.885 43.5426 106.001 43.6226 106.093 43.7263C106.186 43.83 106.252 43.9544 106.287 44.089C106.685 43.874 107.068 43.775 107.417 44.089C107.666 43.857 107.882 43.841 108.214 44.006C108.364 43.923 108.43 43.824 108.38 43.659C108.327 43.4857 108.289 43.3085 108.264 43.129C108.181 42.583 108.098 42.053 108.031 41.507C108.015 41.3809 108.015 41.2532 108.031 41.127C108.081 40.647 108.131 40.15 108.197 39.67C108.247 39.34 108.364 39.008 108.281 38.66C108.264 38.594 108.33 38.495 108.33 38.412C108.364 38.065 108.43 37.734 108.43 37.386C108.43 37.221 108.43 37.088 108.48 36.939C108.546 36.791 108.646 36.575 108.596 36.443C108.447 36.029 108.546 35.615 108.596 35.202C108.679 34.622 108.596 34.06 108.563 33.497C108.542 33.0325 108.399 32.5817 108.148 32.19C107.944 31.8474 107.685 31.5401 107.383 31.28C107.084 31.031 106.885 30.783 106.852 30.435L106.835 30.452ZM122.503 46.936C122.603 47.498 123.018 47.862 123.217 48.326C123.234 48.359 123.317 48.392 123.367 48.409C123.766 48.574 123.982 48.889 123.998 49.302C123.998 49.517 124.081 49.633 124.281 49.732C124.497 49.832 124.663 49.964 124.729 50.229C124.763 50.362 124.896 50.51 125.029 50.593C125.361 50.792 125.544 51.09 125.743 51.388C125.826 51.52 125.843 51.619 125.743 51.752C125.693 51.818 125.66 51.901 125.61 52.016C125.843 52.216 126.042 52.43 126.275 52.579C126.707 52.844 126.906 53.225 126.972 53.721C127.338 53.903 127.687 54.135 127.62 54.648C127.62 54.681 127.687 54.731 127.72 54.78C127.903 55.062 128.069 55.36 128.268 55.674C128.318 55.674 128.401 55.707 128.501 55.74V56.137H128.767C128.933 56.137 129.049 56.204 129.083 56.369C129.116 56.667 129.332 56.766 129.548 56.899C129.664 56.965 129.797 57.014 129.947 57.097C129.913 57.263 129.864 57.412 129.83 57.577C130.163 57.594 130.379 57.727 130.495 58.007C130.528 58.074 130.595 58.107 130.661 58.157C130.894 58.305 131.126 58.437 131.342 58.603C131.475 58.703 131.591 58.736 131.741 58.636C132.007 58.471 132.306 58.405 132.622 58.504C132.771 58.256 132.854 57.908 133.253 57.974C133.286 57.974 133.336 57.941 133.353 57.908C133.535 57.643 133.702 57.362 133.884 57.098C134.034 56.882 134.15 56.601 134.35 56.502C134.619 56.3717 134.832 56.1478 134.948 55.872C135.147 55.442 135.313 54.995 135.496 54.549C135.557 54.3864 135.635 54.2308 135.729 54.085C135.812 53.953 136.177 53.191 136.194 53.059C136.21 52.91 136.227 52.778 136.26 52.629L136.46 51.437C136.477 51.3128 136.53 51.1964 136.613 51.1022C136.696 51.008 136.804 50.9401 136.925 50.907C137.141 50.825 137.307 50.957 137.457 51.107C137.59 51.222 137.739 51.321 137.889 51.371C138.221 51.487 138.603 51.503 138.786 51.884C138.802 51.934 138.886 51.934 138.935 51.967C139.018 52.05 139.085 52.149 139.102 52.165C139.384 52.215 139.617 52.215 139.816 52.298C140.231 52.496 140.514 52.844 140.63 53.191C140.962 53.307 141.278 53.324 141.477 53.489C141.66 53.639 141.81 53.738 142.042 53.738C142.325 53.738 142.425 53.87 142.425 54.151V54.416C142.69 54.449 142.923 54.482 143.156 54.516C143.355 54.532 143.521 54.764 143.754 54.615C143.787 54.598 143.853 54.648 143.903 54.665C144.053 54.715 144.202 54.764 144.352 54.797C144.634 54.863 144.933 54.913 145.282 54.979C145.465 54.896 145.465 54.946 145.764 54.995C146.146 55.062 146.445 55.459 146.877 55.31C146.911 55.31 146.977 55.36 147.027 55.393C147.143 55.459 147.26 55.508 147.409 55.591C147.592 55.343 147.841 55.442 148.107 55.459C148.456 55.459 148.539 55.757 148.738 55.922C148.805 55.922 148.871 55.922 148.921 55.889C149.137 55.724 149.37 55.757 149.619 55.839C149.735 55.873 149.885 55.889 150.001 55.839C150.499 55.658 150.948 56.005 151.43 55.939C151.447 55.939 151.496 55.955 151.496 55.972C151.696 56.237 151.945 56.17 152.211 56.072C152.294 56.22 152.377 56.352 152.46 56.502C152.676 56.352 152.859 56.237 153.091 56.055C153.341 56.568 153.889 56.22 154.238 56.468C154.338 56.402 154.47 56.27 154.504 56.286C154.703 56.402 154.869 56.286 155.035 56.286C155.285 56.286 155.55 56.22 155.8 56.352C155.949 56.435 156.115 56.468 156.298 56.518C156.331 56.286 156.365 56.071 156.398 55.856C156.448 55.476 156.498 55.426 156.863 55.492C157.096 55.525 157.229 55.492 157.295 55.26C157.361 55.078 157.511 55.012 157.71 54.962L157.96 55.26C158.176 55.475 158.375 55.707 158.608 55.906C158.774 56.055 158.957 56.104 159.173 55.972C159.355 55.839 159.488 55.922 159.638 56.055C159.721 56.137 159.87 56.237 159.97 56.22C160.518 56.137 160.967 56.468 161.482 56.551C161.681 56.584 161.864 56.667 162.047 56.485C162.097 56.435 162.23 56.452 162.329 56.452C162.562 56.452 162.778 56.485 163.011 56.485C163.443 56.485 163.875 56.667 164.307 56.585H164.34C164.639 56.75 164.921 56.915 165.27 57.097C165.387 57.014 165.536 56.899 165.719 56.767C165.819 56.767 165.951 56.816 166.068 56.767C166.45 56.634 166.865 56.767 167.247 56.584C167.344 56.5512 167.45 56.5512 167.547 56.584C167.713 56.667 167.812 56.584 167.929 56.501C168.261 56.253 168.344 56.27 168.643 56.568C168.727 56.6541 168.839 56.707 168.959 56.717C169.175 56.7 169.391 56.65 169.574 56.551C169.939 56.369 170.238 56.352 170.521 56.684C170.537 56.717 170.587 56.75 170.637 56.75C170.836 56.717 170.969 56.816 171.069 56.965C171.102 57.015 171.202 57.031 171.268 57.031C171.601 57.064 171.933 57.064 172.265 57.097C172.398 57.097 172.564 57.13 172.681 57.197C172.913 57.329 173.113 57.511 173.345 57.66C173.478 57.743 173.644 57.859 173.794 57.875C174.01 57.908 174.259 57.892 174.475 57.842C174.708 57.792 174.857 57.842 175.023 57.991C175.123 58.074 175.289 58.19 175.405 58.173C175.821 58.057 176.269 57.941 176.635 57.726C176.967 57.544 177.217 57.61 177.482 57.776C177.565 57.826 177.632 57.941 177.715 57.974C177.831 58.008 177.997 58.024 178.064 57.958C178.213 57.842 178.396 57.676 178.446 57.511C178.562 57.097 178.911 57.081 179.177 57.114C179.509 57.164 179.759 57.097 180.041 56.932C180.191 56.849 180.34 56.832 180.456 57.014C180.573 57.197 180.756 57.23 180.988 57.23C181.354 57.23 181.719 57.197 182.002 57.495C182.043 57.533 182.095 57.5563 182.151 57.561C182.65 57.594 183.115 57.743 183.497 58.074C183.647 58.206 183.779 58.19 183.979 58.124C184.145 58.057 184.344 58.074 184.527 58.074C184.843 58.074 185.026 58.305 185.192 58.521C185.674 58.256 185.723 58.256 186.189 58.62C186.23 58.583 186.275 58.5496 186.322 58.52C186.521 58.388 186.77 58.289 186.953 58.421C187.252 58.636 187.568 58.686 187.917 58.703C188.133 58.703 188.315 58.818 188.515 58.653C188.565 58.62 188.681 58.67 188.764 58.67C188.864 58.67 188.997 58.703 189.046 58.653C189.229 58.487 189.445 58.521 189.661 58.57C189.711 58.405 189.811 58.272 189.578 58.206C189.412 58.156 189.312 57.925 189.063 58.041C189.03 58.041 188.947 57.958 188.88 57.941C188.614 57.859 188.332 57.693 188.083 57.726C187.734 57.776 187.501 57.726 187.368 57.478C187.019 57.478 186.704 57.561 186.438 57.461C186.089 57.312 185.74 57.279 185.391 57.23C185.302 57.2277 185.215 57.1988 185.142 57.147C185.062 57.0585 184.959 56.9944 184.844 56.9622C184.73 56.93 184.608 56.931 184.494 56.965C184.328 56.998 184.145 56.899 183.962 56.865C183.68 56.799 183.447 56.501 183.131 56.717C183.131 56.717 183.065 56.717 183.048 56.7C182.666 56.402 182.135 56.518 181.736 56.253C181.703 56.237 181.653 56.253 181.62 56.253H181.104C180.756 56.203 180.39 56.121 180.058 56.071C179.941 55.971 179.842 55.806 179.709 55.79C179.443 55.74 179.26 55.608 179.094 55.426C178.596 55.7347 178.186 55.7677 177.865 55.525C177.748 55.558 177.648 55.608 177.532 55.608C177.416 55.608 177.3 55.492 177.167 55.475C176.718 55.409 176.253 55.36 175.788 55.277C175.655 55.26 175.522 55.177 175.405 55.095C175.223 54.979 175.057 54.896 174.841 54.979C174.774 55.012 174.674 54.979 174.591 54.979C174.069 54.9536 173.564 54.7877 173.129 54.499C172.963 54.383 172.83 54.399 172.647 54.482C172.504 54.5359 172.349 54.5477 172.199 54.516C171.9 54.449 171.617 54.251 171.268 54.366C171.218 54.366 171.135 54.316 171.086 54.284C170.986 54.201 170.87 54.201 170.737 54.184C170.188 54.102 169.623 54.102 169.075 53.887C168.793 53.771 168.427 53.853 168.145 53.638H168.062C167.497 53.688 166.932 53.638 166.417 53.357C166.35 53.324 166.251 53.357 166.167 53.357C166.083 53.357 165.951 53.374 165.918 53.34C165.769 53.158 165.586 53.274 165.436 53.225C165.254 53.175 165.104 53.125 164.921 53.175C164.855 53.192 164.772 53.208 164.705 53.175C164.273 53.026 163.792 53.142 163.393 52.844C163.293 52.761 163.11 52.794 162.977 52.778C162.844 52.778 162.712 52.811 162.595 52.778C162.28 52.745 161.964 52.745 161.665 52.628C161.449 52.546 161.283 52.48 161.05 52.579C161 52.596 160.934 52.513 160.867 52.496C160.552 52.397 160.219 52.216 159.904 52.216C159.621 52.216 159.372 52.248 159.189 51.983C158.957 52.05 158.741 52.099 158.541 52.149C158.458 51.999 158.375 51.884 158.292 51.769C158.262 51.7869 158.234 51.8088 158.209 51.834C158.109 51.901 157.993 51.967 157.91 52.033C157.394 51.8886 156.879 51.7396 156.365 51.586C156.258 51.5517 156.144 51.5404 156.032 51.553C155.766 51.603 155.534 51.553 155.268 51.503C154.736 51.388 154.238 51.189 153.69 51.156C153.557 51.156 153.341 51.222 153.274 51.156C153.025 50.891 152.742 50.957 152.443 51.023C152.394 51.023 152.311 51.023 152.277 51.007C151.995 50.792 151.679 50.891 151.38 50.924C151.181 50.941 150.948 50.99 150.799 50.742C150.765 50.676 150.632 50.626 150.549 50.642C149.835 50.709 149.137 50.726 148.489 50.362C148.456 50.345 148.406 50.362 148.356 50.362H147.459C147.376 50.362 147.243 50.362 147.21 50.312C147.044 50.097 146.844 50.162 146.612 50.162C146.362 50.162 146.096 50.13 145.831 50.097C145.448 50.047 145.066 49.915 144.668 49.931C144.252 49.931 143.87 49.931 143.471 49.799C143.324 49.7477 143.174 49.7033 143.023 49.666C142.474 49.551 141.909 49.7 141.361 49.501C141.311 49.501 141.245 49.551 141.195 49.551C140.863 49.551 140.514 49.551 140.281 49.236C140.148 49.269 139.999 49.336 139.866 49.319C139.334 49.253 138.819 49.153 138.287 49.071C137.938 49.021 137.573 48.921 137.224 48.938C136.942 48.938 136.775 48.905 136.709 48.657C136.327 48.657 135.961 48.475 135.612 48.657H135.579C135.313 48.425 135.014 48.541 134.732 48.574C134.599 48.574 134.466 48.574 134.35 48.541C133.967 48.359 133.569 48.342 133.137 48.359C132.871 48.359 132.622 48.359 132.356 48.326C131.774 48.26 131.209 48.061 130.595 48.028C130.146 48.011 129.697 47.862 129.249 47.78C129.083 47.747 128.916 47.763 128.767 47.647C128.667 47.565 128.435 47.565 128.318 47.631C128.036 47.813 127.803 47.78 127.554 47.631C127.471 47.581 127.355 47.581 127.272 47.565C126.707 47.482 126.158 47.383 125.593 47.349C125.228 47.333 124.896 47.167 124.513 47.184C124.199 47.1943 123.885 47.1552 123.583 47.068C123.217 46.985 122.852 46.968 122.47 46.936H122.503ZM108.546 29.558C108.497 29.028 108.829 28.565 108.696 28.052C108.679 27.969 108.713 27.854 108.729 27.754C108.729 27.622 108.746 27.506 108.762 27.374C108.762 26.993 108.729 26.596 108.796 26.215C108.912 25.669 108.978 25.155 108.796 24.626C108.746 24.494 108.746 24.378 108.879 24.279C109.061 24.129 109.061 23.915 108.962 23.733C108.779 23.319 108.679 22.922 108.829 22.475C108.829 22.442 108.845 22.392 108.829 22.342C108.733 21.8798 108.71 21.4053 108.762 20.936C108.762 20.754 108.762 20.572 108.796 20.39C108.829 20.257 108.746 20.092 108.713 19.943C108.596 19.578 108.413 19.214 108.347 18.85C108.281 18.387 108.247 17.94 107.998 17.526C107.965 17.46 107.932 17.361 107.948 17.295C108.015 16.914 107.898 16.599 107.699 16.285C107.5 15.971 107.3 15.656 107.25 15.259C107.234 15.127 107.151 15.027 107.117 14.895C107.051 14.696 106.901 14.465 106.935 14.299C107.018 13.935 106.818 13.719 106.619 13.489C106.702 13.058 106.685 13.041 106.303 12.809C106.165 12.7307 106.046 12.6236 105.954 12.495C105.705 12.131 105.423 11.8 105.273 11.37C105.124 10.956 104.908 10.89 104.509 11.039C104.442 11.072 104.376 11.072 104.293 11.089C103.977 11.105 103.678 11.155 103.362 11.138C103.03 11.138 102.681 11.072 102.332 11.038C102.199 11.105 102.033 11.221 101.867 11.254C101.585 11.304 101.286 11.403 101.036 11.337C100.737 11.254 100.455 11.337 100.189 11.32C100.006 11.303 99.889 11.337 99.774 11.469C99.541 11.684 99.275 11.817 98.943 11.651C98.827 11.601 98.693 11.585 98.561 11.551C98.5183 11.6717 98.4299 11.7707 98.3148 11.8266C98.1997 11.8826 98.0673 11.891 97.946 11.85C97.646 11.767 97.481 11.883 97.281 12.048C97.165 12.148 96.999 12.247 96.866 12.247C96.534 12.247 96.235 12.33 95.952 12.445C95.802 12.512 95.603 12.495 95.52 12.595C95.287 12.892 94.972 12.909 94.656 12.959C94.59 12.959 94.506 13.025 94.456 13.041C94.556 13.471 94.939 13.654 95.171 13.935C95.421 14.216 95.869 14.365 95.803 14.862C95.803 14.962 95.886 15.077 95.953 15.16C96.085 15.342 96.218 15.507 96.368 15.673C96.617 15.937 96.816 16.219 96.916 16.583C96.966 16.782 97.049 16.963 97.281 17.08C97.497 17.195 97.747 17.344 97.846 17.626C97.879 17.708 97.946 17.808 98.029 17.857C98.461 18.155 98.943 18.387 99.059 18.983C99.059 19.065 99.176 19.148 99.259 19.198C99.425 19.281 99.475 19.413 99.491 19.578C99.524 19.728 99.591 19.893 99.707 19.976C100.123 20.274 100.405 20.671 100.704 21.052C101.003 21.432 101.402 21.714 101.668 22.144C101.767 22.293 102.033 22.376 102.15 22.591C102.249 22.773 102.399 22.938 102.532 23.087C102.798 23.369 103.146 23.6 103.313 23.981C103.362 24.081 103.446 24.163 103.545 24.229C103.761 24.411 104.01 24.56 104.094 24.858C104.094 24.908 104.177 24.941 104.21 24.974C104.559 25.371 105.074 25.652 105.157 26.248C105.157 26.281 105.19 26.331 105.223 26.364C105.572 26.579 105.822 26.894 106.104 27.158C106.42 27.456 106.802 27.688 106.918 28.135C106.951 28.235 107.068 28.367 107.184 28.4C107.466 28.466 107.566 28.665 107.699 28.88C107.882 29.194 108.148 29.426 108.546 29.558ZM103.894 10.013C103.994 9.71501 103.878 9.58301 103.678 9.53301C103.479 9.48301 103.379 9.36701 103.379 9.16901C103.379 8.90401 103.213 8.78801 103.014 8.67201C102.432 8.30801 101.834 7.96001 101.502 7.31501C101.468 7.24901 101.402 7.19901 101.352 7.15001L100.87 6.67001C100.687 6.60301 100.455 6.58701 100.289 6.47101C99.923 6.20601 99.857 5.69301 99.441 5.46101V5.42801C99.475 5.24601 99.325 5.23001 99.225 5.14701C98.827 4.86601 98.378 4.66701 98.095 4.22001C98.012 4.08801 97.83 3.98801 97.68 3.92201C97.4027 3.8302 97.1557 3.6642 96.966 3.44201C96.849 3.29301 96.683 3.22701 96.5 3.14401C96.085 2.96201 95.603 2.91301 95.287 2.51601C95.237 2.44901 95.105 2.44901 95.005 2.41601C94.54 2.25101 94.041 2.15101 93.626 1.90301C93.194 1.63801 92.746 1.44001 92.28 1.24101C91.815 1.47301 91.317 1.48901 90.851 1.39101C90.552 1.60501 90.486 1.87101 90.436 2.18501C90.386 2.51501 90.186 2.83001 90.037 3.19501C90.153 3.39301 90.369 3.62501 90.037 3.88901C89.987 3.92201 89.987 4.03901 90.004 4.08801C90.087 4.43501 90.137 4.81601 90.32 5.09801C90.586 5.49501 90.619 5.89201 90.619 6.32201C90.619 6.52101 90.652 6.67001 90.785 6.78501C90.935 6.93501 91.084 7.05001 91.217 7.19901C91.367 7.34901 91.516 7.51401 91.616 7.69601C91.766 7.97701 91.848 8.29101 92.014 8.55601C92.214 8.83801 92.28 9.11901 92.23 9.45001C92.33 9.50001 92.446 9.53301 92.496 9.59901C92.563 9.68201 92.529 9.81401 92.596 9.91301C92.762 10.178 92.945 10.426 93.111 10.691C93.277 10.972 93.41 11.254 93.543 11.535C93.709 11.866 93.942 11.932 94.241 11.701C94.291 11.651 94.357 11.601 94.407 11.551C94.739 11.271 95.088 11.204 95.454 11.469C95.604 11.386 95.72 11.287 95.852 11.254C96.152 11.171 96.168 11.188 96.052 10.874C96.318 10.857 96.567 10.824 96.766 10.608C96.816 10.558 96.932 10.509 96.999 10.526C97.249 10.608 97.464 10.526 97.68 10.41C97.747 10.377 97.846 10.377 97.93 10.344C98.095 10.31 98.262 10.261 98.411 10.228C98.528 10.195 98.627 10.162 98.743 10.145C99.093 10.095 99.441 10.079 99.773 10.029C100.006 9.99601 100.255 9.97901 100.438 9.86401C100.687 9.73101 100.87 9.74801 101.119 9.81401C101.385 9.88001 101.751 9.86401 101.967 9.71401C102.199 9.56601 102.382 9.58201 102.565 9.66501C102.914 9.79801 103.23 9.86401 103.545 9.63201C103.612 9.68201 103.662 9.69801 103.711 9.74801C103.761 9.79801 103.811 9.84801 103.911 9.93001L103.894 10.013ZM113.464 44.586C113.896 44.834 113.896 44.817 114.445 44.817C114.578 44.817 114.727 44.867 114.86 44.9C115.143 44.933 115.442 45.049 115.691 44.983C116.123 44.867 116.538 45.033 116.97 44.983C117.286 44.933 117.618 45.049 117.951 45.066C118.117 45.066 118.266 45.016 118.466 44.983C118.399 44.867 118.366 44.784 118.316 44.735C118.034 44.42 117.768 44.105 117.602 43.708C117.552 43.576 117.352 43.51 117.219 43.411C117.17 43.377 117.087 43.344 117.053 43.295C116.854 42.964 116.638 42.649 116.505 42.285C116.339 41.838 115.824 41.705 115.707 41.259C115.707 41.259 115.691 41.242 115.674 41.242C115.292 41.192 115.176 40.878 114.993 40.63L114.644 40.134C114.495 39.952 114.328 39.803 114.179 39.62C113.88 39.24 113.664 38.793 113.265 38.495C113.215 38.445 113.165 38.395 113.116 38.33C112.85 38.015 112.567 37.7 112.301 37.386C112.019 37.072 111.653 36.807 111.67 36.31C111.67 36.244 111.57 36.145 111.504 36.129C111.022 36.046 110.823 35.649 110.54 35.334C110.424 35.218 110.374 35.036 110.092 35.102C110.258 35.301 110.191 35.467 110.108 35.665C110.042 35.831 109.975 36.029 109.992 36.211C110.025 36.641 109.859 37.022 109.676 37.453C110.025 37.717 110.075 38.081 109.892 38.495V38.578C109.975 39.108 109.743 39.62 109.859 40.167C109.959 40.63 109.859 41.143 109.826 41.623C109.826 41.822 109.809 41.987 109.959 42.153C110.125 42.318 110.125 42.533 110.058 42.765C110.042 42.831 109.992 42.914 110.008 42.964C110.125 43.278 110.042 43.576 109.975 43.89C109.925 44.155 110.141 44.503 110.357 44.536C110.573 44.569 110.773 44.602 110.956 44.619C111.122 44.536 111.255 44.42 111.371 44.42C111.986 44.42 112.6 44.503 113.182 44.8C113.282 44.734 113.365 44.668 113.448 44.602L113.464 44.586ZM112.235 53.705C112.318 53.804 112.384 53.87 112.451 53.953C112.75 54.267 112.966 54.664 113.348 54.913C113.431 54.979 113.481 55.095 113.548 55.178C113.614 55.26 113.68 55.36 113.764 55.409C113.896 55.492 114.063 55.525 114.212 55.575C114.711 55.74 115.176 56.005 115.525 56.369C115.741 56.601 115.957 56.749 116.239 56.783C116.688 56.816 116.954 57.031 117.087 57.445C117.203 57.329 117.303 57.213 117.419 57.114C117.834 56.799 117.884 56.468 117.568 56.022C117.53 55.9601 117.502 55.8926 117.485 55.822C117.455 55.6247 117.433 55.4262 117.419 55.227C117.253 55.111 117.07 54.979 117.003 54.797C116.738 54.102 116.289 53.523 115.824 52.96C115.691 52.794 115.591 52.612 115.442 52.397C115.043 52.48 115.093 52.116 115.043 51.884C114.86 51.801 114.644 51.784 114.561 51.669C114.336 51.3852 114.053 51.1535 113.73 50.99C113.614 50.924 113.464 50.825 113.415 50.693C113.298 50.362 113.132 50.13 112.75 50.146C112.75 50.146 112.733 50.146 112.717 50.13C112.468 49.964 112.218 49.782 111.969 49.617C111.72 49.452 111.454 49.302 111.238 49.104C111.055 48.9409 110.84 48.8171 110.607 48.74C110.623 48.905 110.64 49.037 110.673 49.17C110.773 49.6 110.906 50.03 110.839 50.477C110.823 50.593 110.839 50.759 110.889 50.841C111.055 51.09 111.088 51.421 111.371 51.603C111.421 51.636 111.454 51.735 111.437 51.785C111.388 52.017 111.487 52.165 111.67 52.298C111.836 52.43 111.836 52.579 111.67 52.728C111.62 52.778 111.587 52.828 111.57 52.844C111.637 53.175 111.687 53.44 111.736 53.754C111.903 53.738 112.052 53.704 112.235 53.688V53.705Z" fill="black"/>
</g>
</g>
<path d="M149.194 78.5937V84.5H147.686V74.6818H149.143V76.2159H149.271C149.501 75.7173 149.851 75.3167 150.319 75.0142C150.788 74.7074 151.393 74.554 152.135 74.554C152.799 74.554 153.381 74.6903 153.88 74.963C154.378 75.2315 154.766 75.6406 155.043 76.1903C155.32 76.7358 155.459 77.4261 155.459 78.2613V84.5H153.95V78.3636C153.95 77.5923 153.75 76.9915 153.349 76.5611C152.949 76.1264 152.399 75.9091 151.7 75.9091C151.218 75.9091 150.788 76.0135 150.409 76.2223C150.034 76.4311 149.738 76.7358 149.52 77.1363C149.303 77.5369 149.194 78.0227 149.194 78.5937Z" fill="#2E2E33"/>
<path d="M141.169 84.4999V74.6817H142.626V76.1647H142.728C142.907 75.6789 143.231 75.2847 143.7 74.9822C144.169 74.6796 144.697 74.5283 145.285 74.5283C145.396 74.5283 145.534 74.5305 145.701 74.5347C145.867 74.539 145.992 74.5454 146.078 74.5539V76.088C146.027 76.0752 145.909 76.056 145.726 76.0305C145.547 76.0006 145.358 75.9857 145.157 75.9857C144.68 75.9857 144.254 76.0858 143.879 76.2861C143.508 76.4822 143.214 76.7549 142.997 77.1043C142.784 77.4495 142.677 77.8437 142.677 78.2868V84.4999H141.169Z" fill="#2E2E33"/>
<path d="M134.988 84.7045C134.042 84.7045 133.226 84.4957 132.54 84.0781C131.858 83.6562 131.332 83.0682 130.961 82.3139C130.595 81.5554 130.412 80.6733 130.412 79.6676C130.412 78.6619 130.595 77.7755 130.961 77.0085C131.332 76.2372 131.848 75.6363 132.508 75.2059C133.173 74.7713 133.949 74.554 134.835 74.554C135.346 74.554 135.851 74.6392 136.35 74.8096C136.849 74.9801 137.302 75.2571 137.711 75.6406C138.121 76.0199 138.447 76.5227 138.689 77.1491C138.932 77.7755 139.054 78.5469 139.054 79.463V80.1023H131.486V78.7983H137.52C137.52 78.2443 137.409 77.75 137.187 77.3153C136.97 76.8807 136.659 76.5376 136.254 76.2862C135.854 76.0348 135.381 75.9091 134.835 75.9091C134.234 75.9091 133.714 76.0582 133.275 76.3565C132.841 76.6505 132.506 77.0341 132.272 77.5071C132.037 77.9801 131.92 78.4872 131.92 79.0284V79.8977C131.92 80.6392 132.048 81.2677 132.304 81.7834C132.564 82.2947 132.924 82.6846 133.384 82.9531C133.844 83.2173 134.379 83.3494 134.988 83.3494C135.385 83.3494 135.743 83.294 136.062 83.1832C136.386 83.0682 136.665 82.8977 136.9 82.6719C137.134 82.4417 137.315 82.1562 137.443 81.8153L138.9 82.2244C138.747 82.7187 138.489 83.1534 138.127 83.5284C137.765 83.8991 137.317 84.1889 136.785 84.3977C136.252 84.6023 135.653 84.7045 134.988 84.7045Z" fill="#2E2E33"/>
<path d="M128.888 74.6819V75.9603H123.8V74.6819H128.888ZM125.283 72.3296H126.792V81.6875C126.792 82.1137 126.854 82.4333 126.977 82.6464C127.105 82.8552 127.267 82.9958 127.463 83.0682C127.663 83.1364 127.874 83.1705 128.096 83.1705C128.262 83.1705 128.398 83.162 128.505 83.1449C128.611 83.1236 128.697 83.1066 128.76 83.0938L129.067 84.4489C128.965 84.4873 128.822 84.5256 128.639 84.564C128.456 84.6066 128.224 84.6279 127.942 84.6279C127.516 84.6279 127.099 84.5363 126.689 84.353C126.285 84.1698 125.948 83.8907 125.68 83.5157C125.415 83.1407 125.283 82.6677 125.283 82.0966V72.3296Z" fill="#2E2E33"/>
<path d="M120.684 74.6819C120.607 74.0342 120.296 73.5314 119.75 73.1734C119.205 72.8155 118.536 72.6365 117.743 72.6365C117.164 72.6365 116.657 72.7302 116.222 72.9177C115.791 73.1052 115.455 73.363 115.212 73.6912C114.973 74.0193 114.854 74.3922 114.854 74.8098C114.854 75.1592 114.937 75.4596 115.103 75.711C115.274 75.9582 115.491 76.1649 115.755 76.3311C116.019 76.493 116.296 76.6272 116.586 76.7338C116.876 76.836 117.142 76.9191 117.385 76.9831L118.715 77.341C119.056 77.4305 119.435 77.5541 119.853 77.7118C120.274 77.8694 120.677 78.0846 121.061 78.3574C121.448 78.6258 121.768 78.971 122.019 79.3929C122.271 79.8147 122.397 80.3325 122.397 80.9461C122.397 81.6535 122.211 82.2927 121.84 82.8637C121.474 83.4348 120.937 83.8886 120.23 84.2253C119.527 84.5619 118.672 84.7302 117.666 84.7302C116.729 84.7302 115.917 84.5789 115.231 84.2764C114.549 83.9738 114.012 83.552 113.62 83.0108C113.233 82.4696 113.013 81.841 112.962 81.1251H114.598C114.641 81.6194 114.807 82.0285 115.097 82.3524C115.391 82.672 115.762 82.9106 116.209 83.0683C116.661 83.2217 117.147 83.2984 117.666 83.2984C118.272 83.2984 118.815 83.2004 119.296 83.0044C119.778 82.8041 120.159 82.5271 120.441 82.1734C120.722 81.8155 120.862 81.3978 120.862 80.9206C120.862 80.4859 120.741 80.1322 120.498 79.8595C120.255 79.5868 119.936 79.3652 119.539 79.1947C119.143 79.0243 118.715 78.8751 118.255 78.7473L116.644 78.287C115.621 77.993 114.811 77.5733 114.215 77.0278C113.618 76.4824 113.32 75.7686 113.32 74.8865C113.32 74.1535 113.518 73.5143 113.914 72.9689C114.315 72.4191 114.852 71.993 115.525 71.6905C116.203 71.3836 116.959 71.2302 117.794 71.2302C118.638 71.2302 119.388 71.3815 120.044 71.6841C120.701 71.9824 121.22 72.3914 121.604 72.9113C121.992 73.4312 122.196 74.0214 122.218 74.6819H120.684Z" fill="#2E2E33"/>
<path d="M99.5694 88.1819C99.3137 88.1819 99.0858 88.1606 98.8855 88.118C98.6852 88.0796 98.5467 88.0413 98.47 88.0029L98.8535 86.6734C99.22 86.7671 99.5439 86.8012 99.8251 86.7756C100.106 86.7501 100.356 86.6244 100.573 86.3985C100.795 86.1769 100.997 85.8168 101.18 85.3182L101.461 84.5512L97.8308 74.6819H99.4672L102.177 82.5057H102.28L104.99 74.6819H106.626L102.459 85.9319C102.271 86.439 102.039 86.8587 101.762 87.1911C101.485 87.5278 101.163 87.7771 100.797 87.939C100.435 88.1009 100.025 88.1819 99.5694 88.1819Z" fill="#2E2E33"/>
<path d="M91.7817 84.4999V74.6817H93.2391V76.1647H93.3414C93.5204 75.6789 93.8442 75.2847 94.313 74.9822C94.7817 74.6796 95.3102 74.5283 95.8982 74.5283C96.009 74.5283 96.1475 74.5305 96.3137 74.5347C96.4799 74.539 96.6056 74.5454 96.6908 74.5539V76.088C96.6397 76.0752 96.5225 76.056 96.3393 76.0305C96.1603 76.0006 95.9707 75.9857 95.7704 75.9857C95.2931 75.9857 94.867 76.0858 94.492 76.2861C94.1212 76.4822 93.8272 76.7549 93.6099 77.1043C93.3968 77.4495 93.2903 77.8437 93.2903 78.2868V84.4999H91.7817Z" fill="#2E2E33"/>
<path d="M85.2645 84.4999V74.6817H86.7219V76.1647H86.8242C87.0032 75.6789 87.327 75.2847 87.7958 74.9822C88.2645 74.6796 88.7929 74.5283 89.381 74.5283C89.4918 74.5283 89.6303 74.5305 89.7965 74.5347C89.9627 74.539 90.0884 74.5454 90.1736 74.5539V76.088C90.1225 76.0752 90.0053 76.056 89.8221 76.0305C89.6431 76.0006 89.4535 75.9857 89.2532 75.9857C88.7759 75.9857 88.3498 76.0858 87.9748 76.2861C87.604 76.4822 87.31 76.7549 87.0927 77.1043C86.8796 77.4495 86.773 77.8437 86.773 78.2868V84.4999H85.2645Z" fill="#2E2E33"/>
<path d="M79.0844 84.7045C78.1384 84.7045 77.3223 84.4957 76.6363 84.0781C75.9544 83.6562 75.4282 83.0682 75.0574 82.3139C74.691 81.5554 74.5077 80.6733 74.5077 79.6676C74.5077 78.6619 74.691 77.7755 75.0574 77.0085C75.4282 76.2372 75.9438 75.6363 76.6043 75.2059C77.2691 74.7713 78.0446 74.554 78.931 74.554C79.4424 74.554 79.9473 74.6392 80.4459 74.8096C80.9445 74.9801 81.3983 75.2571 81.8074 75.6406C82.2165 76.0199 82.5425 76.5227 82.7854 77.1491C83.0283 77.7755 83.1497 78.5469 83.1497 79.463V80.1023H75.5816V78.7983H81.6157C81.6157 78.2443 81.5049 77.75 81.2833 77.3153C81.0659 76.8807 80.7549 76.5376 80.35 76.2862C79.9495 76.0348 79.4765 75.9091 78.931 75.9091C78.3301 75.9091 77.8103 76.0582 77.3713 76.3565C76.9367 76.6505 76.6022 77.0341 76.3678 77.5071C76.1334 77.9801 76.0162 78.4872 76.0162 79.0284V79.8977C76.0162 80.6392 76.1441 81.2677 76.3997 81.7834C76.6597 82.2947 77.0198 82.6846 77.48 82.9531C77.9402 83.2173 78.475 83.3494 79.0844 83.3494C79.4807 83.3494 79.8387 83.294 80.1583 83.1832C80.4821 83.0682 80.7613 82.8977 80.9956 82.6719C81.23 82.4417 81.4111 82.1562 81.5389 81.8153L82.9963 82.2244C82.8429 82.7187 82.5851 83.1534 82.2229 83.5284C81.8607 83.8991 81.4133 84.1889 80.8806 84.3977C80.3479 84.6023 79.7492 84.7045 79.0844 84.7045Z" fill="#2E2E33"/>
<path d="M70.8765 84.5V74.6818H72.385V84.5H70.8765ZM71.6435 73.0455C71.3495 73.0455 71.0959 72.9453 70.8829 72.745C70.6741 72.5447 70.5696 72.304 70.5696 72.0227C70.5696 71.7415 70.6741 71.5007 70.8829 71.3004C71.0959 71.1001 71.3495 71 71.6435 71C71.9376 71 72.189 71.1001 72.3978 71.3004C72.6108 71.5007 72.7174 71.7415 72.7174 72.0227C72.7174 72.304 72.6108 72.5447 72.3978 72.745C72.189 72.9453 71.9376 73.0455 71.6435 73.0455Z" fill="#2E2E33"/>
<path d="M61.9302 78.5938V84.5001H60.4217V71.4092H61.9302V76.216H62.0581C62.2882 75.7089 62.6333 75.3062 63.0936 75.0079C63.5581 74.7053 64.176 74.5541 64.9473 74.5541C65.6163 74.5541 66.2022 74.6883 66.7051 74.9568C67.2079 75.221 67.5978 75.6279 67.8748 76.1776C68.1561 76.7231 68.2967 77.4177 68.2967 78.2615V84.5001H66.7882V78.3637C66.7882 77.5839 66.5858 76.9809 66.1809 76.5548C65.7804 76.1244 65.2243 75.9092 64.5126 75.9092C64.0183 75.9092 63.5751 76.0136 63.1831 76.2224C62.7953 76.4312 62.4885 76.7359 62.2626 77.1365C62.041 77.537 61.9302 78.0228 61.9302 78.5938Z" fill="#2E2E33"/>
<path d="M48.5415 72.8154V71.4092H58.3597V72.8154H54.2432V84.5001H52.658V72.8154H48.5415Z" fill="#2E2E33"/>
<defs>
<clipPath id="clip0_2109_182">
<rect width="204" height="61" fill="white"/>
</clipPath>
</defs>
</svg>
