<svg width="160" height="88" viewBox="0 0 160 88" fill="none" xmlns="http://www.w3.org/2000/svg">
<g clip-path="url(#clip0_2167_587)">
<path d="M21.4045 60.4967H13.6633L12.0958 64.5953H9.85376L16.6377 47.417H18.7192L25.3875 64.5953H22.9656L21.4045 60.4967ZM14.3765 58.6337H20.6979L17.55 50.3721L14.3765 58.6337Z" fill="#211E1E"/>
<path d="M2.67782 49.2474V55.4596H5.7036C5.7036 55.4596 6.2497 55.441 6.52591 55.441C7.44458 55.441 8.05493 55.2419 8.63309 54.7086C9.21769 54.1625 9.47465 53.276 9.47465 52.3445C9.47465 51.413 9.21778 50.6163 8.62666 49.9611C8.02919 49.3058 6.91142 49.248 6.71865 49.248C6.51959 49.248 6.41654 49.248 6.41654 49.248L2.67782 49.2474ZM0.5 47.4229H6.41676C7.30969 47.4229 8.89648 47.6285 9.96932 48.5022C11.4469 49.7035 11.7103 51.2646 11.7103 52.3117C11.7103 53.3589 11.4534 54.7658 10.4254 55.7744C9.08277 57.0914 7.67585 57.2906 5.7036 57.2906H2.67782V64.5949H0.5V47.4229Z" fill="#211E1E"/>
<path d="M82.7944 47.417H84.9723V54.7919H92.6878V47.417H94.8656V64.5953H92.6878V56.6872H84.9723V64.5953H82.7944V47.417Z" fill="#211E1E"/>
<path d="M98.7136 47.417H100.891V64.5889H98.7136V47.417Z" fill="#211E1E"/>
<path d="M104.637 47.417H106.815V62.6938H114.254V64.5953H104.637V47.417Z" fill="#211E1E"/>
<path d="M35.4929 47.417V49.3185H30.2572V64.5953H28.0793V49.3185H22.8372V47.417H35.4929Z" fill="#211E1E"/>
<path d="M47.0758 47.417L45.9901 49.3185H39.4952V54.6956H45.5661V56.5972H39.4952V62.6938H45.8488L46.9344 64.5953H37.3174V47.417H47.0758Z" fill="#211E1E"/>
<path d="M51.5918 55.4725L58.9798 47.4102L61.6972 47.4149L56.0374 53.5371L61.8192 64.5932H59.3395L54.5406 55.1303L51.5918 58.3039V64.5931H49.4141V47.4147H51.5918V55.4725Z" fill="#211E1E"/>
<path d="M71.2693 49.2474V55.4596H74.2952C74.2952 55.4596 74.8412 55.441 75.1175 55.441C76.0426 55.441 76.6529 55.2419 77.2246 54.7086C77.8092 54.1625 78.0662 53.276 78.0662 52.3445C78.0662 51.413 77.8093 50.6163 77.2118 49.9611C76.6207 49.3058 75.5029 49.248 75.3038 49.248C75.1112 49.248 75.0082 49.248 75.0082 49.248L71.2693 49.2474ZM69.0916 47.4229H75.0083C75.9013 47.4229 77.4944 47.6285 78.5673 48.5022C80.0384 49.7035 80.3018 51.2646 80.3018 52.3117C80.3018 53.3589 80.0449 54.7658 79.017 55.7744C77.6743 57.0914 76.2674 57.2906 74.2952 57.2906H71.2693V64.5949H69.0916V47.4229Z" fill="#211E1E"/>
<path d="M116.091 47.417H118.263V64.5889H116.091V47.417Z" fill="#211E1E"/>
<path d="M124.134 49.2474V55.4596H127.16C127.16 55.4596 127.7 55.441 127.983 55.441C128.901 55.441 129.512 55.2419 130.083 54.7086C130.674 54.1625 130.925 53.276 130.925 52.3445C130.925 51.413 130.674 50.6163 130.077 49.9611C129.479 49.3058 128.362 49.248 128.169 49.248C127.976 49.248 127.873 49.248 127.873 49.248L124.134 49.2474ZM121.957 47.4229H127.873C128.773 47.4229 130.353 47.6285 131.426 48.5022C132.903 49.7035 133.167 51.2646 133.167 52.3117C133.167 53.3589 132.91 54.7658 131.882 55.7744C130.539 57.0914 129.126 57.2906 127.16 57.2906H124.134V64.5949H121.957V47.4229Z" fill="#211E1E"/>
<path d="M137.741 49.2474V55.4596H140.767C140.767 55.4596 141.307 55.441 141.589 55.441C142.508 55.441 143.118 55.2419 143.69 54.7086C144.281 54.1625 144.538 53.276 144.538 52.3445C144.538 51.413 144.281 50.6163 143.684 49.9611C143.086 49.3058 141.975 49.248 141.775 49.248C141.583 49.248 141.48 49.248 141.48 49.248L137.741 49.2474ZM135.563 47.4229H141.48C142.373 47.4229 143.96 47.6285 145.033 48.5022C146.51 49.7035 146.774 51.2646 146.774 52.3117C146.774 53.3589 146.517 54.7658 145.489 55.7744C144.146 57.0914 142.739 57.2906 140.767 57.2906H137.741V64.5949H135.563V47.4229Z" fill="#211E1E"/>
<path d="M159.005 47.417L157.92 49.3185H151.425V54.6956H157.496V56.5972H151.425V62.6938H157.785L158.864 64.5953H149.247V47.417H159.005Z" fill="#211E1E"/>
<path d="M84.4903 85.1656H89.1094L89.8996 86.5468H82.9036V74.0645H91.4285L95.0582 84.3946L98.8293 74.0645H100.455L95.7199 86.5468H94.2038L90.1758 75.4393H84.4903V79.3516H88.9038V80.7392H84.4903V85.1656Z" fill="#211E1E"/>
<path d="M69.8431 74.0645L69.0594 75.4393H64.3311V79.358H68.7445V80.7328H64.3311V85.1656H68.9566L69.7403 86.5468H62.7507V74.0645H69.8431Z" fill="#211E1E"/>
<path d="M78.7986 74.1289H80.3083V86.6112H78.6958L73.0361 76.4095V86.6112H71.5264V74.1289H73.5822L78.7986 83.5468V74.1289Z" fill="#211E1E"/>
<path d="M108.935 74.0645L108.145 75.4393H103.416V79.358H107.836V80.7328H103.416V85.1656H108.042L108.826 86.5468H101.836V74.0645H108.935Z" fill="#211E1E"/>
<path d="M60.4188 80.1613V84.6903C59.3909 85.6668 58.0868 86.7718 55.5043 86.7718C52.6069 86.7718 49.9858 84.3178 49.9858 80.4311C49.9858 76.7436 52.4527 73.8398 55.8383 73.8398C58.5879 73.8398 59.9434 75.5358 60.4573 76.2939L59.3203 77.3603C59.3203 77.3603 58.1703 75.1761 55.8383 75.1761C53.5449 75.1761 51.7268 77.2318 51.7268 80.5082C51.7268 83.6111 53.6798 85.4356 55.7613 85.4356C57.5729 85.4356 58.787 84.215 58.8706 84.125V81.5232H55.0738V80.1613H60.4188Z" fill="#211E1E"/>
<path d="M78.9592 19.9529H71.2887C70.0488 19.9529 68.7961 20.711 68.7961 21.726C68.7961 22.0925 69.0917 22.786 70.1195 22.786C71.4429 22.786 72.58 21.4177 73.762 21.4177C74.8028 21.4177 74.9505 22.3749 74.9505 22.3749C74.3274 22.3609 74.1025 22.3889 73.3316 22.773C72.5992 23.1264 71.6292 24.0065 70.9868 24.7003C70.3443 25.3941 69.3036 26.2871 68.0573 26.2871C66.8046 26.2871 65.5776 25.4841 65.5776 24.0322C65.5776 22.1113 67.113 21.4946 67.113 20.7944C67.113 20.5888 67.0165 20.3189 66.6118 20.3189C65.9887 20.3189 64.7745 21.2248 63.5989 21.2248C61.9864 21.2248 60.5859 19.4131 60.5859 19.4131C60.5859 19.4131 61.9864 17.6015 63.5989 17.6015C64.7745 17.6015 65.9887 18.5073 66.6118 18.5073C67.0165 18.5073 67.113 18.2374 67.113 18.0255C67.113 17.3381 65.5776 16.715 65.5776 14.7941C65.5776 13.3422 66.8046 12.5392 68.0573 12.5392C69.3036 12.5392 70.3443 13.4321 70.9868 14.126C71.6292 14.8198 72.5992 15.7 73.3316 16.0533C74.1025 16.4388 74.3274 16.4644 74.9505 16.4513C74.9505 16.4513 74.8028 17.4086 73.762 17.4086C72.58 17.4086 71.4429 16.0402 70.1195 16.0402C69.0916 16.0402 68.7961 16.734 68.7961 17.1002C68.7961 18.1217 70.0488 18.8733 71.2887 18.8733H78.9592V11.2028C78.9592 9.96289 78.2012 8.71661 77.1862 8.71661C76.8202 8.71661 76.1262 9.00562 76.1262 10.04C76.1262 11.357 77.4945 12.5005 77.4945 13.6826C77.4945 14.7169 76.5373 14.8646 76.5373 14.8646C76.5513 14.2414 76.5233 14.023 76.1392 13.2457C75.7858 12.5197 74.9057 11.5497 74.2119 10.9008C73.5181 10.2584 72.6251 9.2177 72.6251 7.9714C72.6251 6.71866 73.4281 5.49165 74.88 5.49165C76.8008 5.49165 77.424 7.03346 78.1178 7.03346C78.3234 7.03346 78.5932 6.93046 78.5932 6.52595C78.5932 5.90279 77.6874 4.6886 77.6874 3.51297C77.6874 1.90053 79.499 0.5 79.499 0.5C79.499 0.5 81.3107 1.90053 81.3107 3.51297C81.3107 4.6886 80.4048 5.90279 80.4048 6.52595C80.4048 6.9306 80.6748 7.03346 80.8803 7.03346C81.5741 7.03346 82.1972 5.49165 84.1181 5.49165C85.5699 5.49165 86.3729 6.71866 86.3729 7.9714C86.3729 9.2177 85.48 10.2584 84.7861 10.9008C84.0924 11.5497 83.2123 12.5197 82.8525 13.2457C82.4735 14.023 82.4479 14.2414 82.4604 14.8646C82.4604 14.8646 81.5032 14.7169 81.5032 13.6826C81.5032 12.5005 82.8716 11.357 82.8716 10.04C82.8716 9.00566 82.1777 8.71661 81.8116 8.71661C80.7965 8.71661 80.0385 9.96289 80.0385 11.2028V18.8733H87.709C88.9424 18.8733 90.1952 18.1217 90.1952 17.1002C90.1952 16.7338 89.9061 16.0402 88.8718 16.0402C87.5548 16.0402 86.4113 17.4086 85.2292 17.4086C84.1885 17.4086 84.0472 16.4513 84.0472 16.4513C84.6704 16.4653 84.8952 16.4374 85.6661 16.0533C86.392 15.6999 87.3621 14.8198 88.0045 14.126C88.6534 13.4321 89.6941 12.5392 90.9404 12.5392C92.1931 12.5392 93.4202 13.3422 93.4202 14.7941C93.4202 16.715 91.8783 17.3381 91.8783 18.0255C91.8783 18.2376 91.9748 18.5073 92.3858 18.5073C93.009 18.5073 94.2232 17.6015 95.3988 17.6015C97.0113 17.6015 98.4118 19.4131 98.4118 19.4131C98.4118 19.4131 97.0113 21.2248 95.3988 21.2248C94.2232 21.2248 93.009 20.3189 92.3858 20.3189C91.9747 20.3189 91.8783 20.5889 91.8783 20.7944C91.8783 21.4946 93.4202 22.1113 93.4202 24.0322C93.4202 25.4841 92.1931 26.2871 90.9404 26.2871C89.6941 26.2871 88.6534 25.3941 88.0045 24.7003C87.3621 24.0065 86.392 23.1263 85.6661 22.773C84.8952 22.3875 84.6704 22.3618 84.0472 22.3749C84.0472 22.3749 84.1884 21.4177 85.2292 21.4177C86.4113 21.4177 87.5548 22.786 88.8718 22.786C89.9061 22.786 90.1952 22.0922 90.1952 21.726C90.1952 20.711 88.9424 19.9529 87.709 19.9529H80.0385V27.6235C80.0385 28.8634 80.7965 30.1097 81.8116 30.1097C82.178 30.1097 82.8716 29.8206 82.8716 28.7927C82.8716 27.4693 81.5032 26.3258 81.5032 25.1438C81.5032 24.1094 82.4604 23.9617 82.4604 23.9617C82.4465 24.5848 82.4744 24.8097 82.8525 25.5806C83.2124 26.3066 84.0924 27.283 84.7861 27.9254C85.48 28.5679 86.3729 29.6086 86.3729 30.8613C86.3729 32.1077 85.5699 33.3347 84.1181 33.3347C82.1972 33.3347 81.5741 31.7993 80.8803 31.7993C80.6747 31.7993 80.4048 31.8957 80.4048 32.3003C80.4048 32.9235 81.3107 34.1377 81.3107 35.3133C81.3107 36.9258 79.499 38.3263 79.499 38.3263C79.499 38.3263 77.6874 36.9258 77.6874 35.3133C77.6874 34.1377 78.5932 32.9235 78.5932 32.3003C78.5932 31.8957 78.3233 31.7993 78.1178 31.7993C77.424 31.7993 76.8008 33.3347 74.88 33.3347C73.4281 33.3347 72.6251 32.1077 72.6251 30.8613C72.6251 29.6086 73.5181 28.5679 74.2119 27.9254C74.9057 27.283 75.7858 26.3066 76.1392 25.5806C76.5247 24.8097 76.5503 24.5848 76.5373 23.9617C76.5373 23.9617 77.4945 24.1095 77.4945 25.1438C77.4945 26.3258 76.1262 27.4693 76.1262 28.7927C76.1262 29.8206 76.82 30.1097 77.1862 30.1097C78.2012 30.1097 78.9592 28.8634 78.9592 27.6235V19.9529Z" fill="#B09145"/>
</g>
<defs>
<clipPath id="clip0_2167_587">
<rect width="159.505" height="87.2715" fill="white"/>
</clipPath>
</defs>
</svg>
