<svg width="73" height="32" viewBox="0 0 73 32" fill="none" xmlns="http://www.w3.org/2000/svg">
<path d="M64.6672 1.22412C67.0472 1.22412 68.8832 2.04012 70.1752 3.67212C71.5352 5.30412 72.2152 7.78612 72.2152 11.1181C72.2152 14.7221 71.3312 18.1901 69.5632 21.5221C67.8632 24.7861 65.3472 28.0501 62.0152 31.3141C61.9472 31.3821 61.8452 31.4161 61.7092 31.4161C61.5052 31.4161 61.3352 31.3481 61.1992 31.2121C61.1312 31.0081 61.1312 30.8041 61.1992 30.6001C63.0352 28.3561 64.2932 26.1461 64.9732 23.9701C65.7212 21.7261 66.0952 19.2441 66.0952 16.5241C66.0952 14.6201 65.9252 13.2261 65.5852 12.3421C65.2452 11.3901 64.7012 10.6081 63.9532 9.99612L67.7272 9.28212C67.7952 10.4381 67.4552 11.3221 66.7072 11.9341C65.9592 12.5461 64.9392 12.8521 63.6472 12.8521C61.8792 12.8521 60.4852 12.3421 59.4652 11.3221C58.5132 10.3021 58.0372 8.90812 58.0372 7.14012C58.0372 5.30412 58.6152 3.87612 59.7712 2.85612C60.9952 1.76812 62.6272 1.22412 64.6672 1.22412ZM47.0212 1.22412C49.4012 1.22412 51.2372 2.04012 52.5292 3.67212C53.8892 5.30412 54.5692 7.78612 54.5692 11.1181C54.5692 14.7221 53.6852 18.1901 51.9172 21.5221C50.2172 24.7861 47.7012 28.0501 44.3692 31.3141C44.3012 31.3821 44.1992 31.4161 44.0632 31.4161C43.8592 31.4161 43.6892 31.3481 43.5532 31.2121C43.4852 31.0081 43.4852 30.8041 43.5532 30.6001C45.3892 28.3561 46.6472 26.1461 47.3272 23.9701C48.0752 21.7261 48.4492 19.2441 48.4492 16.5241C48.4492 14.6201 48.2792 13.2261 47.9392 12.3421C47.5992 11.3901 47.0552 10.6081 46.3072 9.99612L50.0812 9.28212C50.1492 10.4381 49.8092 11.3221 49.0612 11.9341C48.3132 12.5461 47.2932 12.8521 46.0012 12.8521C44.2332 12.8521 42.8392 12.3421 41.8192 11.3221C40.8672 10.3021 40.3912 8.90812 40.3912 7.14012C40.3912 5.30412 40.9692 3.87612 42.1252 2.85612C43.3492 1.76812 44.9812 1.22412 47.0212 1.22412Z" fill="#AFA294"/>
<path d="M7.548 30.192C5.168 30.192 3.298 29.376 1.938 27.744C0.646 26.112 0 23.63 0 20.298C0 16.694 0.85 13.26 2.55 9.996C4.318 6.664 6.868 3.366 10.2 0.101997C10.268 0.0339983 10.37 0 10.506 0C10.71 0 10.846 0.102002 10.914 0.306004C11.05 0.442002 11.084 0.612 11.016 0.816002C9.18 3.06 7.888 5.304 7.14 7.548C6.46 9.724 6.12 12.172 6.12 14.892C6.12 16.796 6.29 18.224 6.63 19.176C6.97 20.06 7.514 20.808 8.262 21.42L4.488 22.134C4.42 20.978 4.76 20.094 5.508 19.482C6.256 18.87 7.276 18.564 8.568 18.564C10.336 18.564 11.696 19.074 12.648 20.094C13.668 21.114 14.178 22.508 14.178 24.276C14.178 26.112 13.566 27.574 12.342 28.662C11.186 29.682 9.588 30.192 7.548 30.192ZM25.194 30.192C22.814 30.192 20.944 29.376 19.584 27.744C18.292 26.112 17.646 23.63 17.646 20.298C17.646 16.694 18.496 13.26 20.196 9.996C21.964 6.664 24.514 3.366 27.846 0.101997C27.914 0.0339983 28.016 0 28.152 0C28.356 0 28.492 0.102002 28.56 0.306004C28.696 0.442002 28.73 0.612 28.662 0.816002C26.826 3.06 25.534 5.304 24.786 7.548C24.106 9.724 23.766 12.172 23.766 14.892C23.766 16.796 23.936 18.224 24.276 19.176C24.616 20.06 25.16 20.808 25.908 21.42L22.134 22.134C22.066 20.978 22.406 20.094 23.154 19.482C23.902 18.87 24.922 18.564 26.214 18.564C27.982 18.564 29.342 19.074 30.294 20.094C31.314 21.114 31.824 22.508 31.824 24.276C31.824 26.112 31.212 27.574 29.988 28.662C28.832 29.682 27.234 30.192 25.194 30.192Z" fill="#AFA294"/>
</svg>
