<svg width="28" height="27" viewBox="0 0 28 27" fill="none" xmlns="http://www.w3.org/2000/svg">
<path d="M5.26588 16.1688L13.9557 25L22.6454 16.1688C22.748 16.089 22.8325 15.9877 22.8934 15.8716C22.9542 15.7556 22.99 15.6275 22.9982 15.4962C23.0064 15.3648 22.9869 15.2331 22.9409 15.1101C22.895 14.9871 22.8237 14.8756 22.732 14.7832C22.6402 14.6908 22.5301 14.6196 22.409 14.5744C22.288 14.5293 22.1588 14.5112 22.0303 14.5215C21.9019 14.5317 21.777 14.5701 21.6643 14.6339C21.5516 14.6977 21.4536 14.7855 21.377 14.8914L14.8552 21.4987L14.8552 3.91897C14.8552 3.67524 14.7604 3.4415 14.5917 3.26916C14.423 3.09682 14.1942 3 13.9557 3C13.7171 3 13.4883 3.09682 13.3196 3.26916C13.1509 3.4415 13.0561 3.67524 13.0561 3.91897L13.0561 21.4987L6.53426 14.8914C6.36487 14.7196 6.1356 14.6235 5.89689 14.6244C5.65818 14.6252 5.42958 14.7229 5.26138 14.896C5.09318 15.069 4.99916 15.3032 5 15.5471C5.00085 15.791 5.09649 16.0245 5.26588 16.1963L5.26588 16.1688Z" fill="white"/>
</svg>
