<svg width="204" height="36" viewBox="0 0 204 36" fill="none" xmlns="http://www.w3.org/2000/svg">
<path d="M194.547 31.7996C192.387 31.7996 191.307 30.5863 191.307 28.1596C191.307 27.0396 191.573 25.8663 192.107 24.6396C192.64 23.413 193.347 22.2796 194.227 21.2396C195.107 20.173 196.08 19.3063 197.147 18.6396C198.24 17.973 199.347 17.6396 200.467 17.6396C201.453 17.6396 202.173 18.013 202.627 18.7596C203.08 19.5063 203.307 20.333 203.307 21.2396C203.307 22.4396 203.067 23.6663 202.587 24.9196C202.107 26.1463 201.453 27.2796 200.627 28.3196C199.8 29.3596 198.867 30.1996 197.827 30.8396C196.787 31.4796 195.693 31.7996 194.547 31.7996ZM194.507 30.5196C194.667 30.5196 194.76 30.5063 194.787 30.4796C195.827 30.3463 196.787 29.973 197.667 29.3596C198.547 28.7463 199.307 27.9863 199.947 27.0796C200.613 26.1463 201.12 25.1463 201.467 24.0796C201.813 23.013 201.987 21.9596 201.987 20.9196C201.987 20.3063 201.813 19.8263 201.467 19.4796C201.12 19.133 200.68 18.9596 200.147 18.9596C199.373 18.9596 198.547 19.2796 197.667 19.9196C196.813 20.5596 196 21.373 195.227 22.3596C194.48 23.3463 193.867 24.3863 193.387 25.4796C192.907 26.5463 192.667 27.5063 192.667 28.3596C192.667 29.7996 193.28 30.5196 194.507 30.5196Z" fill="white"/>
<path d="M174.008 33.0004C173.581 33.0004 173.368 32.8271 173.368 32.4804C173.368 32.3471 173.422 32.1871 173.528 32.0004C173.635 31.7871 173.728 31.6137 173.808 31.4804L177.408 24.2404C178.955 21.0937 179.728 19.3471 179.728 19.0004C179.728 18.6271 179.915 18.4404 180.288 18.4404C180.795 18.4404 181.048 18.7071 181.048 19.2404C181.048 19.4271 180.928 19.8271 180.688 20.4404C180.448 21.0537 180.141 21.7471 179.768 22.5204C179.128 23.9071 178.595 24.9737 178.168 25.7204C178.968 24.7871 179.782 23.9071 180.608 23.0804C181.435 22.2537 182.275 21.4671 183.128 20.7204C185.661 18.5071 187.608 17.4004 188.968 17.4004C189.902 17.4004 190.368 17.8404 190.368 18.7204C190.368 19.5204 189.688 21.3204 188.328 24.1204C186.968 26.9471 186.288 28.7337 186.288 29.4804C186.288 29.8271 186.408 30.0004 186.648 30.0004C186.728 30.0004 186.848 29.9737 187.008 29.9204C187.195 29.8404 187.381 29.8004 187.568 29.8004C188.021 29.8004 188.248 30.0137 188.248 30.4404C188.248 30.9737 187.675 31.2404 186.528 31.2404C185.995 31.2404 185.608 31.1204 185.368 30.8804C185.128 30.6137 185.008 30.2671 185.008 29.8404C185.008 28.5604 185.662 26.6137 186.968 24.0004C188.275 21.4137 188.928 19.8537 188.928 19.3204C188.928 19.0004 188.808 18.8404 188.568 18.8404C187.981 18.8404 187.035 19.3337 185.728 20.3204C184.315 21.3871 182.901 22.6137 181.488 24.0004C180.075 25.3871 178.728 26.9737 177.448 28.7604L174.648 32.6404C174.488 32.8804 174.275 33.0004 174.008 33.0004Z" fill="white"/>
<path d="M158.964 32.4001C157.417 32.4001 156.644 31.6668 156.644 30.2001C156.644 29.2401 156.87 28.2135 157.324 27.1201C157.804 26.0001 158.444 24.9201 159.244 23.8801C160.044 22.8135 160.937 21.8535 161.924 21.0001C162.91 20.1201 163.924 19.4268 164.964 18.9201C166.004 18.3868 167.004 18.1201 167.964 18.1201C169.67 18.1201 170.524 18.9601 170.524 20.6401C170.524 21.7335 170.257 22.2801 169.724 22.2801C169.244 22.2801 169.004 22.0535 169.004 21.6001C169.004 21.4135 169.044 21.2268 169.124 21.0401C169.23 20.8268 169.284 20.6001 169.284 20.3601C169.284 19.6135 168.777 19.2401 167.764 19.2401C166.137 19.2401 164.097 20.4801 161.644 22.9601C161.057 23.5735 160.484 24.2935 159.924 25.1201C159.364 25.9468 158.897 26.7868 158.524 27.6401C158.177 28.4668 158.004 29.2535 158.004 30.0001C158.004 30.7201 158.404 31.0801 159.204 31.0801C159.897 31.0801 160.63 30.8668 161.404 30.4401C162.204 30.0135 162.897 29.5735 163.484 29.1201C164.657 28.2401 165.857 27.0401 167.084 25.5201C167.27 25.3068 167.51 25.0268 167.804 24.6801C168.097 24.3335 168.43 23.9468 168.804 23.5201C168.937 23.3868 169.097 23.3201 169.284 23.3201C169.71 23.3201 169.924 23.5335 169.924 23.9601L168.404 26.2401C167.39 27.7335 166.884 28.9601 166.884 29.9201C166.884 30.6134 167.217 30.9601 167.884 30.9601C168.444 30.9601 169.057 30.8135 169.724 30.5201C170.39 30.2268 170.937 29.9335 171.364 29.6401C172.217 29.0801 173.11 28.3868 174.044 27.5601C174.977 26.7068 175.87 25.8535 176.724 25.0001C176.83 24.8935 176.99 24.8401 177.204 24.8401C177.604 24.8401 177.804 25.0001 177.804 25.3201C177.804 25.6135 177.617 25.9468 177.244 26.3201C176.177 27.3868 175.217 28.3068 174.364 29.0801C173.51 29.8268 172.697 30.4401 171.924 30.9201C171.417 31.2134 170.79 31.5201 170.044 31.8401C169.297 32.1601 168.444 32.3201 167.484 32.3201C166.177 32.3201 165.524 31.6268 165.524 30.2401C165.524 29.7068 165.59 29.2668 165.724 28.9201C163.297 31.2401 161.044 32.4001 158.964 32.4001Z" fill="white"/>
<path d="M153.445 35.5605C153.231 35.5605 152.965 35.4538 152.645 35.2405C152.351 35.0538 152.125 34.8671 151.965 34.6805C151.645 34.2805 151.431 33.8005 151.325 33.2405C151.218 32.6805 151.165 32.0671 151.165 31.4005C151.165 30.8405 151.178 30.2405 151.205 29.6005C151.258 28.9338 151.338 28.2271 151.445 27.4805C150.751 28.2805 149.965 29.0671 149.085 29.8405C148.231 30.5871 147.351 31.2005 146.445 31.6805C145.565 32.1605 144.725 32.4005 143.925 32.4005C141.925 32.4005 140.925 31.3338 140.925 29.2005C140.925 26.9871 141.698 24.8538 143.245 22.8005C144.018 21.7871 144.898 20.8138 145.885 19.8805C146.871 18.9471 147.911 18.1871 149.005 17.6005C150.098 17.0138 151.178 16.7205 152.245 16.7205C153.045 16.7205 153.751 17.0271 154.365 17.6405C154.418 17.5338 154.485 17.3605 154.565 17.1205C154.671 16.8805 154.818 16.5738 155.005 16.2005C155.645 14.8138 156.351 13.3738 157.125 11.8805C157.898 10.3605 158.591 9.10714 159.205 8.12047C159.898 7.02714 160.551 6.48047 161.165 6.48047C161.591 6.48047 161.805 6.8138 161.805 7.48047C161.805 8.62713 160.725 11.3071 158.565 15.5205C158.431 15.7605 158.191 16.2005 157.845 16.8405C157.525 17.4538 157.138 18.1738 156.685 19.0005C156.258 19.8005 155.818 20.6005 155.365 21.4005C154.911 22.2005 154.498 22.9205 154.125 23.5605C153.778 24.1738 153.525 24.6005 153.365 24.8405C153.071 26.0405 152.845 27.1871 152.685 28.2805C152.525 29.3471 152.445 30.4538 152.445 31.6005C152.445 32.0271 152.458 32.4138 152.485 32.7605C152.538 33.1338 152.645 33.4271 152.805 33.6405C152.938 33.8005 153.085 33.9205 153.245 34.0005C153.405 34.1071 153.591 34.2005 153.805 34.2805C154.125 34.3605 154.285 34.5471 154.285 34.8405C154.285 35.3205 154.005 35.5605 153.445 35.5605ZM155.325 18.8405C156.338 17.1071 157.231 15.4938 158.005 14.0005C158.778 12.4805 159.405 11.0538 159.885 9.72047C158.818 11.1071 157.925 12.5738 157.205 14.1205C156.485 15.6671 155.858 17.2405 155.325 18.8405ZM143.645 31.2005C144.418 31.2005 145.231 30.9471 146.085 30.4405C146.965 29.9071 147.791 29.2805 148.565 28.5605C149.258 27.9205 149.898 27.2671 150.485 26.6005C151.071 25.9071 151.618 25.2005 152.125 24.4805C152.338 23.5471 152.578 22.6271 152.845 21.7205C153.138 20.8138 153.458 19.9071 153.805 19.0005C153.378 18.3338 152.778 18.0005 152.005 18.0005C151.205 18.0005 150.311 18.3071 149.325 18.9205C148.365 19.5071 147.431 20.2405 146.525 21.1205C145.645 22.0005 144.885 22.8405 144.245 23.6405C142.911 25.4271 142.245 27.3205 142.245 29.3205C142.245 30.5738 142.711 31.2005 143.645 31.2005Z" fill="white"/>
<path d="M130.462 32.7199C129.342 32.7199 128.462 32.3332 127.822 31.5599C127.182 30.7866 126.862 29.8399 126.862 28.7199C126.862 26.7999 127.502 24.8265 128.782 22.7999C129.129 22.2399 129.529 21.6932 129.982 21.1599C130.436 20.5999 130.929 20.0665 131.462 19.5599C132.262 18.7866 133.102 18.1466 133.982 17.6399C134.862 17.1332 135.716 16.8799 136.542 16.8799C137.902 16.8799 138.582 17.5199 138.582 18.7999C138.582 20.3999 137.649 21.8532 135.782 23.1599C134.049 24.3332 132.342 24.9199 130.662 24.9199C130.369 24.9199 130.102 24.9065 129.862 24.8799C129.649 24.8265 129.449 24.7732 129.262 24.7199C128.996 25.2265 128.756 25.8799 128.542 26.6799C128.329 27.4799 128.222 28.1732 128.222 28.7599C128.222 30.5199 128.996 31.3999 130.542 31.3999C131.796 31.3999 132.982 31.1865 134.102 30.7599C135.222 30.3065 136.556 29.4666 138.102 28.2399C139.062 27.4932 139.782 26.8932 140.262 26.4399C140.742 25.9865 141.262 25.5066 141.822 24.9999C141.982 24.8932 142.129 24.8399 142.262 24.8399C142.396 24.8399 142.529 24.8799 142.662 24.9599C142.796 25.0399 142.862 25.1599 142.862 25.3199C142.862 25.6132 142.596 26.0265 142.062 26.5599C141.609 26.9865 141.129 27.4399 140.622 27.9199C140.116 28.3732 139.316 29.0132 138.222 29.8399C137.049 30.7466 135.769 31.4532 134.382 31.9599C132.996 32.4665 131.689 32.7199 130.462 32.7199ZM130.422 23.6399C131.276 23.6399 132.089 23.5066 132.862 23.2399C133.636 22.9732 134.369 22.5866 135.062 22.0799C136.609 20.9332 137.382 19.8532 137.382 18.8399C137.382 18.3865 137.102 18.1599 136.542 18.1599C135.476 18.1599 134.236 18.8132 132.822 20.1199C132.129 20.7599 131.556 21.3465 131.102 21.8799C130.676 22.3865 130.276 22.9465 129.902 23.5599C130.062 23.6132 130.236 23.6399 130.422 23.6399Z" fill="white"/>
<path d="M121.096 33.0797C119.869 33.0797 118.923 32.7064 118.256 31.9597C117.616 31.1864 117.296 30.173 117.296 28.9197C117.296 28.013 117.456 26.9197 117.776 25.6397C118.336 23.4797 119.283 20.973 120.616 18.1197C121.656 15.9597 122.776 13.8397 123.976 11.7597C125.176 9.65302 126.496 7.58635 127.936 5.55969C130.229 2.30635 131.829 0.679688 132.736 0.679688C133.323 0.679688 133.616 0.839688 133.616 1.15969C133.616 1.61302 132.869 2.74635 131.376 4.55969L128.576 7.95969C126.149 10.893 124.163 13.893 122.616 16.9597C121.096 20.0264 119.909 23.093 119.056 26.1597C118.816 27.0397 118.696 27.8664 118.696 28.6397C118.696 30.6664 119.523 31.6797 121.176 31.6797C121.763 31.6797 122.363 31.5064 122.976 31.1597C123.589 30.8397 123.923 30.6797 123.976 30.6797C124.296 30.6797 124.456 30.9064 124.456 31.3597C124.456 31.7597 124.309 32.0664 124.016 32.2797C123.109 32.813 122.136 33.0797 121.096 33.0797Z" fill="white"/>
<path d="M106.656 31.7996C104.496 31.7996 103.416 30.5863 103.416 28.1596C103.416 27.0396 103.683 25.8663 104.216 24.6396C104.749 23.413 105.456 22.2796 106.336 21.2396C107.216 20.173 108.189 19.3063 109.256 18.6396C110.349 17.973 111.456 17.6396 112.576 17.6396C113.563 17.6396 114.283 18.013 114.736 18.7596C115.189 19.5063 115.416 20.333 115.416 21.2396C115.416 22.4396 115.176 23.6663 114.696 24.9196C114.216 26.1463 113.563 27.2796 112.736 28.3196C111.909 29.3596 110.976 30.1996 109.936 30.8396C108.896 31.4796 107.803 31.7996 106.656 31.7996ZM106.616 30.5196C106.776 30.5196 106.869 30.5063 106.896 30.4796C107.936 30.3463 108.896 29.973 109.776 29.3596C110.656 28.7463 111.416 27.9863 112.056 27.0796C112.723 26.1463 113.229 25.1463 113.576 24.0796C113.923 23.013 114.096 21.9596 114.096 20.9196C114.096 20.3063 113.923 19.8263 113.576 19.4796C113.229 19.133 112.789 18.9596 112.256 18.9596C111.483 18.9596 110.656 19.2796 109.776 19.9196C108.923 20.5596 108.109 21.373 107.336 22.3596C106.589 23.3463 105.976 24.3863 105.496 25.4796C105.016 26.5463 104.776 27.5063 104.776 28.3596C104.776 29.7996 105.389 30.5196 106.616 30.5196Z" fill="white"/>
<path d="M91.7018 34.3998C91.2485 34.3998 91.0218 34.1332 91.0218 33.5998C91.0218 32.7465 91.4885 31.2532 92.4218 29.1198C93.3552 26.9598 94.7552 24.1865 96.6218 20.7998L104.222 7.11984H103.462C97.2485 7.11984 93.1952 7.87984 91.3018 9.39985C90.5285 10.0132 89.9952 10.8932 89.7018 12.0398C89.6752 12.4398 89.5018 12.6398 89.1818 12.6398C88.6485 12.6398 88.3818 12.3998 88.3818 11.9198C88.3818 10.5865 89.1152 9.38651 90.5818 8.31985C92.7952 6.66651 96.9418 5.83984 103.022 5.83984C104.782 5.83984 106.555 5.87984 108.342 5.95984L112.502 6.23984C113.355 6.29318 114.129 6.34651 114.822 6.39984C115.515 6.42651 116.129 6.43984 116.662 6.43984C117.089 6.43984 117.302 6.65318 117.302 7.07984C117.302 7.50651 117.089 7.71984 116.662 7.71984C115.729 7.71984 114.342 7.63984 112.502 7.47984C111.169 7.34651 110.129 7.26651 109.382 7.23985C108.635 7.21318 107.955 7.19985 107.342 7.19985C106.782 7.19985 106.369 7.19985 106.102 7.19985C105.835 7.17318 105.649 7.15984 105.542 7.15984C105.222 7.98651 104.409 9.57318 103.102 11.9198L99.0618 19.1198C96.7952 23.1732 95.1018 26.3998 93.9818 28.7998C92.8885 31.1998 92.3418 32.7465 92.3418 33.4398V33.6398C92.3418 34.1465 92.1285 34.3998 91.7018 34.3998Z" fill="white"/>
<path d="M58.6901 32.4001C57.1435 32.4001 56.3701 31.6668 56.3701 30.2001C56.3701 29.2401 56.5968 28.2135 57.0501 27.1201C57.5301 26.0001 58.1701 24.9201 58.9701 23.8801C59.7701 22.8135 60.6635 21.8535 61.6501 21.0001C62.6368 20.1201 63.6501 19.4268 64.6901 18.9201C65.7301 18.3868 66.7301 18.1201 67.6901 18.1201C69.3968 18.1201 70.2501 18.9601 70.2501 20.6401C70.2501 21.7335 69.9834 22.2801 69.4501 22.2801C68.9701 22.2801 68.7301 22.0535 68.7301 21.6001C68.7301 21.4135 68.7701 21.2268 68.8501 21.0401C68.9568 20.8268 69.0101 20.6001 69.0101 20.3601C69.0101 19.6135 68.5034 19.2401 67.4901 19.2401C65.8634 19.2401 63.8235 20.4801 61.3701 22.9601C60.7835 23.5735 60.2101 24.2935 59.6501 25.1201C59.0901 25.9468 58.6235 26.7868 58.2501 27.6401C57.9035 28.4668 57.7301 29.2535 57.7301 30.0001C57.7301 30.7201 58.1301 31.0801 58.9301 31.0801C59.6235 31.0801 60.3568 30.8668 61.1301 30.4401C61.9301 30.0135 62.6235 29.5735 63.2101 29.1201C64.3835 28.2401 65.5834 27.0401 66.8101 25.5201C66.9968 25.3068 67.2368 25.0268 67.5301 24.6801C67.8235 24.3335 68.1568 23.9468 68.5301 23.5201C68.6635 23.3868 68.8235 23.3201 69.0101 23.3201C69.4368 23.3201 69.6501 23.5335 69.6501 23.9601L68.1301 26.2401C67.1168 27.7335 66.6101 28.9601 66.6101 29.9201C66.6101 30.6134 66.9435 30.9601 67.6101 30.9601C68.1701 30.9601 68.7834 30.8135 69.4501 30.5201C70.1168 30.2268 70.6635 29.9335 71.0901 29.6401C71.9435 29.0801 72.8368 28.3868 73.7701 27.5601C74.7034 26.7068 75.5968 25.8535 76.4501 25.0001C76.5568 24.8935 76.7168 24.8401 76.9301 24.8401C77.3301 24.8401 77.5301 25.0001 77.5301 25.3201C77.5301 25.6135 77.3435 25.9468 76.9701 26.3201C75.9035 27.3868 74.9435 28.3068 74.0901 29.0801C73.2368 29.8268 72.4235 30.4401 71.6501 30.9201C71.1435 31.2134 70.5168 31.5201 69.7701 31.8401C69.0235 32.1601 68.1701 32.3201 67.2101 32.3201C65.9035 32.3201 65.2501 31.6268 65.2501 30.2401C65.2501 29.7068 65.3168 29.2668 65.4501 28.9201C63.0234 31.2401 60.7701 32.4001 58.6901 32.4001Z" fill="white"/>
<path d="M42.7191 33.0004C42.2924 33.0004 42.0791 32.8271 42.0791 32.4804C42.0791 32.3204 42.1191 32.1604 42.1991 32.0004C42.3058 31.8404 42.3858 31.7071 42.4391 31.6004L46.0791 24.2404C47.6258 21.0937 48.3991 19.3471 48.3991 19.0004C48.3991 18.6271 48.5858 18.4404 48.9591 18.4404C49.4658 18.4404 49.7191 18.6937 49.7191 19.2004C49.7191 19.4671 49.5991 19.8937 49.3591 20.4804C49.1191 21.0671 48.8124 21.7471 48.4391 22.5204C47.7991 23.9071 47.2658 24.9737 46.8391 25.7204C47.6391 24.7871 48.4524 23.9071 49.2791 23.0804C50.1058 22.2537 50.9458 21.4671 51.7991 20.7204C54.3324 18.5071 56.2791 17.4004 57.6391 17.4004C58.5724 17.4004 59.0391 17.8404 59.0391 18.7204C59.0391 19.5737 58.7591 20.0004 58.1991 20.0004C57.9324 20.0004 57.7324 19.7737 57.5991 19.3204C57.5191 19.0004 57.3324 18.8404 57.0391 18.8404C56.5858 18.8404 55.7058 19.3337 54.3991 20.3204C52.9591 21.3871 51.5058 22.6537 50.0391 24.1204C48.5991 25.5871 47.0658 27.4537 45.4391 29.7204L43.4391 32.5204C43.3324 32.6537 43.2258 32.7604 43.1191 32.8404C43.0391 32.9471 42.9058 33.0004 42.7191 33.0004Z" fill="white"/>
<path d="M27.6745 32.4001C26.1278 32.4001 25.3545 31.6668 25.3545 30.2001C25.3545 29.2401 25.5812 28.2135 26.0345 27.1201C26.5145 26.0001 27.1545 24.9201 27.9545 23.8801C28.7545 22.8135 29.6478 21.8535 30.6345 21.0001C31.6212 20.1201 32.6345 19.4268 33.6745 18.9201C34.7145 18.3868 35.7145 18.1201 36.6745 18.1201C38.3812 18.1201 39.2345 18.9601 39.2345 20.6401C39.2345 21.7335 38.9678 22.2801 38.4345 22.2801C37.9545 22.2801 37.7145 22.0535 37.7145 21.6001C37.7145 21.4135 37.7545 21.2268 37.8345 21.0401C37.9412 20.8268 37.9945 20.6001 37.9945 20.3601C37.9945 19.6135 37.4878 19.2401 36.4745 19.2401C34.8478 19.2401 32.8078 20.4801 30.3545 22.9601C29.7678 23.5735 29.1945 24.2935 28.6345 25.1201C28.0745 25.9468 27.6078 26.7868 27.2345 27.6401C26.8878 28.4668 26.7145 29.2535 26.7145 30.0001C26.7145 30.7201 27.1145 31.0801 27.9145 31.0801C28.6078 31.0801 29.3412 30.8668 30.1145 30.4401C30.9145 30.0135 31.6078 29.5735 32.1945 29.1201C33.3678 28.2401 34.5678 27.0401 35.7945 25.5201C35.9812 25.3068 36.2212 25.0268 36.5145 24.6801C36.8078 24.3335 37.1412 23.9468 37.5145 23.5201C37.6478 23.3868 37.8078 23.3201 37.9945 23.3201C38.4212 23.3201 38.6345 23.5335 38.6345 23.9601L37.1145 26.2401C36.1012 27.7335 35.5945 28.9601 35.5945 29.9201C35.5945 30.6134 35.9278 30.9601 36.5945 30.9601C37.1545 30.9601 37.7678 30.8135 38.4345 30.5201C39.1012 30.2268 39.6478 29.9335 40.0745 29.6401C40.9278 29.0801 41.8212 28.3868 42.7545 27.5601C43.6878 26.7068 44.5812 25.8535 45.4345 25.0001C45.5412 24.8935 45.7012 24.8401 45.9145 24.8401C46.3145 24.8401 46.5145 25.0001 46.5145 25.3201C46.5145 25.6135 46.3278 25.9468 45.9545 26.3201C44.8878 27.3868 43.9278 28.3068 43.0745 29.0801C42.2212 29.8268 41.4078 30.4401 40.6345 30.9201C40.1278 31.2134 39.5012 31.5201 38.7545 31.8401C38.0078 32.1601 37.1545 32.3201 36.1945 32.3201C34.8878 32.3201 34.2345 31.6268 34.2345 30.2401C34.2345 29.7068 34.3012 29.2668 34.4345 28.9201C32.0078 31.2401 29.7545 32.4001 27.6745 32.4001Z" fill="white"/>
<path d="M10.1603 33.7196C8.45361 33.7196 6.84027 33.4396 5.32027 32.8796C3.82694 32.3196 2.61361 31.5196 1.68027 30.4796C0.74694 29.4396 0.280273 28.2129 0.280273 26.7996C0.280273 26.3462 0.360273 25.8662 0.520273 25.3596C0.733607 24.6662 0.973607 24.3196 1.24027 24.3196C1.64027 24.3196 1.84027 24.5462 1.84027 24.9996C1.84027 25.1862 1.78694 25.4396 1.68027 25.7596C1.57361 26.0796 1.52027 26.3862 1.52027 26.6796C1.52027 27.8529 1.92027 28.8796 2.72027 29.7596C3.52027 30.6129 4.54694 31.2662 5.80027 31.7196C7.08027 32.1729 8.41361 32.3996 9.80027 32.3996C12.8136 32.3996 15.3736 31.6796 17.4803 30.2396C18.5736 29.4929 19.4803 28.5996 20.2003 27.5596C20.9203 26.4929 21.2803 25.3596 21.2803 24.1596C21.2803 23.0662 21.0003 22.1596 20.4403 21.4396C19.9069 20.7196 19.1603 20.1062 18.2003 19.5996C17.2403 19.0662 16.1336 18.5862 14.8803 18.1596C11.3069 16.9062 9.52027 15.3862 9.52027 13.5996C9.52027 12.6396 9.88027 11.7196 10.6003 10.8396C11.3203 9.95957 12.2003 9.18624 13.2403 8.51957C14.2803 7.82624 15.2803 7.30624 16.2403 6.95957C17.6536 6.42624 18.9603 6.06624 20.1603 5.87957C21.3869 5.66624 22.5203 5.55957 23.5603 5.55957C24.9736 5.55957 25.9736 5.8929 26.5603 6.55957C27.1469 7.19957 27.4403 7.99957 27.4403 8.95957C27.4403 9.70624 27.2536 10.4262 26.8803 11.1196C26.5336 11.8129 26.0536 12.4129 25.4403 12.9196C24.7469 13.5062 24.1869 13.7996 23.7603 13.7996C23.3069 13.7996 23.0803 13.5862 23.0803 13.1596C23.0803 12.9196 23.2003 12.7462 23.4403 12.6396C25.2269 11.7329 26.1203 10.4929 26.1203 8.91957C26.1203 8.22624 25.9203 7.71957 25.5203 7.39957C25.1469 7.0529 24.4936 6.87957 23.5603 6.87957C22.7069 6.87957 21.7469 6.9729 20.6803 7.15957C19.6403 7.34624 18.5736 7.62624 17.4803 7.99957C16.5203 8.34624 15.5469 8.8129 14.5603 9.39957C13.5736 9.98624 12.7469 10.6262 12.0803 11.3196C11.4403 12.0129 11.1203 12.7062 11.1203 13.3996C11.1203 14.8662 12.5336 16.0396 15.3603 16.9196C20.2403 18.4662 22.6803 20.8396 22.6803 24.0396C22.6803 24.9996 22.4536 25.9462 22.0003 26.8796C21.5736 27.8129 21.0003 28.6662 20.2803 29.4396C19.5869 30.2129 18.8403 30.8796 18.0403 31.4396C16.8936 32.2396 15.6403 32.8129 14.2803 33.1596C12.9469 33.5329 11.5736 33.7196 10.1603 33.7196Z" fill="white"/>
</svg>
