<svg width="138" height="81" viewBox="0 0 138 81" fill="none" xmlns="http://www.w3.org/2000/svg">
<g clip-path="url(#clip0_9478_8)">
<path d="M35.9916 31.8494H49.4673V19.2948C43.0037 19.2236 38.5675 21.6918 35.9916 24.5635V19.2948H21.7051V60.8034H35.9916V31.8494Z" fill="#E20513"/>
<path d="M0.90625 30.734V60.8271H15.1928V19.3185C4.12609 19.3185 0.90625 24.3498 0.90625 30.734Z" fill="#E20513"/>
<path d="M116.511 18.6065C104.657 18.6065 95.0449 28.1708 95.0449 39.966C95.0449 51.7612 104.657 61.3493 116.511 61.3493C128.364 61.3493 138 51.7849 138 39.966C138 28.1471 128.388 18.6065 116.511 18.6065ZM116.511 49.9575C110.977 49.9575 106.493 45.4958 106.493 39.9897C106.493 34.4837 110.977 30.022 116.511 30.022C122.044 30.022 126.528 34.4837 126.528 39.9897C126.528 45.4958 122.044 49.9575 116.511 49.9575Z" fill="#E20513"/>
<path d="M16.3616 8.14035C16.3616 3.63112 12.6886 0 8.18078 0C3.673 0 0 3.65485 0 8.14035C0 12.6258 3.64915 16.2807 8.18078 16.2807C12.7124 16.2807 16.3616 12.6258 16.3616 8.14035Z" fill="#E20513"/>
<path d="M84.2643 19.3185L76.2743 41.4612L70.6694 27.0079C68.7375 22.0478 64.182 19.3185 56.6452 19.3185H52.209L68.8806 56.6264L65.8039 64.6244C63.061 71.7917 67.7119 78.5081 73.1499 81L75.9881 73.714L97.9069 19.3185H84.2643Z" fill="#E20513"/>
</g>
<defs>
<clipPath id="clip0_9478_8">
<rect width="138" height="81" fill="white"/>
</clipPath>
</defs>
</svg>
