<svg width="387" height="143" viewBox="0 0 387 143" fill="none" xmlns="http://www.w3.org/2000/svg">
<path d="M8.83599 74.8753C8.53402 74.5441 7.76562 74.5937 7.34649 74.6208C7.13693 74.6343 6.87105 74.8619 6.87105 74.8619C6.80119 74.8664 5.97866 74.0778 5.76458 74.0215C5.62036 73.9607 5.34546 74.0486 5.20575 74.0576C5.13589 74.0621 5.12236 73.8525 5.12236 73.8525C5.05251 73.857 4.93084 74.1455 4.79113 74.1545C4.51623 74.2424 4.54548 73.6092 4.22779 74.1207C4.22327 74.0509 3.90777 73.5101 3.90326 73.4402C3.8334 73.4447 3.50668 73.8166 3.45706 73.0482C3.41414 71.2973 5.22339 67.8135 6.02774 66.1482C7.09346 64.1854 8.30341 62.2835 9.22492 60.2599C9.05363 59.7799 8.76519 59.6583 8.59841 59.2482C8.35727 58.7727 8.60962 58.3355 7.99898 58.6556L7.9674 58.1666L7.47842 58.1981L7.03674 57.8759L7.60678 56.9272L7.1178 56.9588L7.15157 56.3955L6.73244 56.4225C7.20338 56.1115 6.57469 56.1521 6.42144 55.9516C6.27722 55.8908 6.40791 55.742 6.4034 55.6722C6.39889 55.6023 6.18932 55.6159 6.18932 55.6159C6.18932 55.6159 6.79997 55.2958 6.42363 54.8993L6.06985 54.852C8.411 53.0874 11.6108 52.6703 14.4162 51.5773C17.2844 47.1132 20.1482 42.5792 23.3049 38.2367C25.8127 34.7078 31.9954 26.1716 36.1371 25.1325C36.7568 24.9522 37.2593 25.1302 37.8835 25.0197C37.7235 25.8017 38.3905 25.2676 38.7398 25.245C39.2986 25.2089 41.9126 26.5833 42.4332 27.0407C43.6883 28.0119 44.4433 29.9272 44.6125 31.4595C45.2324 35.6282 44.8271 40.2138 44.7439 44.3578C45.242 44.4659 45.1158 44.6845 45.1947 44.8197C45.269 44.8851 45.4741 44.8017 45.4741 44.8017C45.553 44.9369 45.4966 45.151 45.5011 45.2208C45.5845 45.4259 45.8414 45.0585 45.5327 45.7098L45.882 45.6872L46.1051 45.8833L45.7874 46.3948L46.9321 46.7418C46.9209 47.6544 47.7953 48.1591 46.788 48.8554C47.3649 49.0988 47.5091 49.1596 47.6241 49.8536C47.7165 50.1984 47.5138 51.404 47.2389 51.4919C47.1735 51.5662 46.955 51.4401 46.8896 51.5144C46.8198 51.5189 46.8986 51.6541 46.6936 51.7375C45.9996 51.8525 45.1433 51.6272 44.5506 52.2266L44.2969 66.7632C44.2361 66.9074 43.1928 67.0449 42.9877 67.1283C42.7872 67.2816 42.6137 67.8539 42.6137 67.8539C42.4042 67.8675 41.861 67.0608 41.1896 67.525C40.9845 67.6084 41.1558 68.0884 40.8719 68.0366C40.5834 67.9149 40.5564 67.4958 40.5564 67.4958C40.5519 67.4259 40.3468 67.5093 40.1936 67.3088C39.9569 66.9032 40.1169 66.1212 39.8893 65.8554C39.8847 65.7855 39.2898 65.2628 39.22 65.2673C38.9315 65.1456 38.3119 65.3259 38.1631 65.1952C37.5637 64.6026 37.8448 54.8342 37.75 53.3673C37.741 53.2276 37.2565 53.329 37.1168 53.338C35.0302 53.6131 31.7268 54.598 29.5884 55.157C26.8303 55.8962 22.2695 56.9624 19.8134 58.0329L19.3334 58.2042L18.4412 59.5946C16.1339 62.9703 13.9687 67.4591 12.0153 70.8821C11.7584 71.2495 11.0486 72.2072 11.1456 72.6218C11.1501 72.6917 11.3596 72.6781 11.3642 72.748C11.3822 73.0274 11.0172 73.8927 10.9001 74.251L10.7378 73.9108C10.7378 73.9108 10.5553 74.3434 10.3502 74.4268C10.3502 74.4268 9.53003 74.7604 9.32046 74.7739C9.18076 74.7829 9.0636 75.1412 8.96217 74.6567L8.83599 74.8753ZM37.8554 45.2235C37.8802 44.5205 37.9094 43.8873 37.799 43.2631L37.7133 41.9359C37.7741 41.7917 38.3757 41.3319 38.0647 40.861L37.7943 41.0187L37.7984 34.5651L37.44 32.2734C36.3945 33.4632 35.144 34.7365 34.1075 36.066C31.8295 38.8085 29.4524 42.1888 27.6116 45.1836C27.037 46.0625 26.5413 47.0765 26.0411 48.0207L37.8554 45.2235ZM53.7462 71.6243C53.5322 71.568 53.6201 71.8429 53.4804 71.852C53.2663 71.7956 53.086 71.176 53.1333 70.8222L52.8809 71.2594C52.7412 71.2684 52.7232 70.989 52.5835 70.998C52.3694 70.9417 52.117 71.3788 52.0201 70.9642L51.8466 71.5366C51.3577 71.5682 51.5739 70.5722 50.907 71.1062C50.8955 67.6698 51.0892 66.3246 51.213 64.9838C51.5779 61.944 52.301 59.0213 52.8755 55.9679C52.8619 55.7584 52.0665 55.3889 51.8298 54.9833C51.751 54.8481 51.5616 54.0887 51.5616 54.0887C51.3295 53.7529 50.6265 53.7282 50.516 53.104L50.9441 53.2167C50.9441 53.2167 50.3267 52.3446 50.3875 52.2004C50.383 52.1306 51.3068 51.2292 51.3767 51.2246C51.9265 51.0488 53.229 51.6662 53.9929 51.5467C55.322 46.0597 57.014 40.7596 58.7758 35.455C59.0101 34.7384 60.5309 31.1329 60.3641 30.7228C60.2852 30.5876 60.141 30.5268 60.0622 30.3916C59.9607 29.9071 61.0288 29.0666 61.36 28.7646C61.4907 28.6159 61.6078 28.2576 61.8084 28.1043C61.8692 27.9601 62.5407 27.4959 62.5632 27.8451C64.9742 26.0761 67.6174 24.6428 70.5941 24.0297C73.7104 23.4075 76.4709 23.7904 79.0556 25.798C81.6358 27.7358 83.7002 31.4605 84.1037 34.4507C84.2863 36.1926 84.0026 38.3153 83.3289 39.8318L83.2365 39.4871C83.0675 40.1293 82.7634 40.8504 82.52 41.4273C78.8205 49.3121 68.879 56.1269 60.3861 58.2186C60.1766 58.2321 59.958 58.1059 59.7529 58.1893C58.8653 61.8241 58.0521 65.5242 57.4485 71.3853L56.937 71.0676L56.955 71.347C56.6621 71.1555 56.7545 71.5002 56.6328 71.7887L56.4007 71.4529L56.2881 71.8811L55.8735 71.978C55.4836 71.3719 55.4408 71.7955 55.1569 71.7437C55.0172 71.7527 55.0036 71.5431 54.8639 71.5522C54.6544 71.5657 54.4764 72.0682 54.4493 71.6491L54.0572 72.0953L53.7462 71.6243ZM62.0576 49.3424C62.2716 49.3987 62.2671 49.3289 62.3235 49.1148C62.6141 48.1841 62.7605 47.1926 63.1255 46.3273C63.3351 46.3138 63.2089 46.5324 63.1435 46.6067C63.0399 47.1746 62.7403 47.9656 62.7673 48.3847C62.7764 48.5244 62.4677 49.1756 62.6029 49.0968C63.3577 48.8376 64.8494 48.0398 65.5908 47.571C70.8072 44.7089 78.1258 38.5545 78.2605 31.9521C78.283 30.1268 77.2351 30.1945 75.7029 30.3636C75.4933 30.3771 74.9435 30.5529 74.8038 30.5619C74.6641 30.571 74.7902 30.3524 74.6505 30.3614C74.5807 30.3659 74.6596 30.5011 74.5942 30.5755C74.3846 30.589 74.0962 30.4673 73.8912 30.5507L74.1525 30.2533C72.6248 30.4922 71.0407 30.9453 69.6143 31.6687L67.9221 32.6197C67.7959 32.8383 67.6968 33.476 67.4309 33.7036C67.1334 33.4422 67.8612 32.7639 67.3903 33.0749C65.3491 38.3975 63.5963 43.8418 62.0576 49.3424ZM85.885 72.5651L85.5695 72.0243L85.1729 72.4007C84.8529 71.79 84.9701 71.4317 84.9993 70.7985C84.7042 71.6593 84.2309 70.8482 83.6203 71.1682C83.28 71.3304 82.9984 72.4008 82.9082 71.0037L82.782 71.2223L82.293 71.2539C82.471 70.7514 82.2952 70.2016 82.3335 69.7081C82.4236 68.9306 82.7796 67.9256 82.944 67.2135C85.0839 54.7297 88.5083 42.5838 93.3659 30.9064C93.5439 30.4039 93.8818 29.1195 94.4316 28.9437L94.7809 28.9211L95.4141 28.9504C95.6191 28.867 96.5024 27.3369 96.6939 27.0439C99.4856 23.5668 104.684 18.2507 109.65 19.1225C110.074 19.1653 110.52 19.5573 110.935 19.4604C111.005 19.4559 110.926 19.3207 110.996 19.3162C111.065 19.3117 111.367 19.6429 111.708 19.4807L111.586 19.7691C111.861 19.6812 112.424 19.715 112.573 19.8456C112.643 19.8411 112.512 19.9899 112.587 20.0552C112.949 20.2422 113.871 20.3931 114.378 20.641C114.597 20.7672 116.368 22.1258 116.377 22.2655L116.176 22.4188C116.456 22.4007 116.749 22.5923 116.902 22.7928C117.799 23.6468 118.509 24.8636 118.948 26.2381C120.165 29.8772 117.585 34.463 115.456 37.3362C115.199 37.7035 114.167 39.1029 113.901 39.3305C113.505 39.7069 113.548 39.2832 113.739 38.9903C113.931 38.6973 114.275 38.6049 114.336 38.4607C114.402 38.3863 114.776 37.6607 114.832 37.4467C114.897 37.3723 115.111 37.4286 115.177 37.3542L115.868 36.1171C115.929 35.9729 116.143 36.0292 116.209 35.9548C116.718 35.1503 117.457 33.5594 117.822 32.6941C118.009 32.3313 118.556 31.0333 118.534 30.684C118.59 30.47 118.525 30.5443 118.385 30.5533C118.417 31.0423 118.185 30.7066 118.049 30.7855C117.984 30.8598 118.072 31.1347 117.788 31.0829C117.752 30.5241 118.349 29.9945 118.103 29.4492C117.93 30.0216 117.369 31.11 117.335 31.6733C117.222 32.1015 117.727 31.2271 117.723 31.1573C117.759 31.7161 117.31 32.3764 117.063 32.8834C114.192 38.3999 108.834 44.4979 103.811 48.1892C103.34 48.5002 100.231 50.3144 100.244 50.5239C100.249 50.5938 100.472 50.7898 100.542 50.7853C100.826 50.8371 104.309 48.2973 104.846 47.912C106.847 46.3097 108.694 44.5069 110.686 42.7649C110.573 43.193 110.107 43.5739 109.645 44.0246C107.597 45.9807 105.195 47.8894 102.919 49.5796C102.719 49.7328 100.821 50.7673 100.975 50.9678C105.79 52.7612 107.368 53.2906 112.197 55.2936C113.35 55.7802 118.245 57.7088 118.858 58.511C118.858 58.511 119.252 59.187 119.182 59.1915L118.759 59.1487C118.977 59.2749 118.856 59.5633 119.131 59.4754L118.93 59.6287L119.158 59.8946L118.292 59.5296C118.315 59.8788 118.804 59.8473 118.962 60.1177C119.5 60.8545 118.691 60.2754 118.337 60.2281C118.486 60.3588 119.16 61.0167 118.536 61.1272L119.047 61.4449C119 61.7987 118.646 61.7514 118.585 61.8956C118.585 61.8956 118.725 61.8866 118.804 62.0218C119.002 62.9209 118.299 62.8961 117.601 62.9412C117.47 63.09 118.935 64.0475 117.664 63.9192C118.193 64.5163 116.706 65.3839 116.353 65.3366C116.138 65.2803 115.767 64.9536 115.553 64.8973C110.624 63.532 105.768 61.11 100.953 59.3166C97.5003 57.9963 97.2209 58.0144 93.7731 56.7639C93.5681 56.8473 93.5771 56.987 93.5162 57.1313C92.8516 58.7875 92.7165 61.0409 92.0519 62.6972L91.7815 62.855L90.9412 66.1359C90.8849 66.35 91.0562 66.83 90.7159 66.9922C90.6168 67.6299 89.7518 71.614 89.4814 71.7717C89.3462 71.8506 89.1929 71.6501 89.0532 71.6591L88.0325 72.1459C87.8973 72.2247 87.9761 72.3599 87.8409 72.4388C87.7057 72.5177 87.7575 72.2338 87.6178 72.2428C87.4038 72.1865 86.7097 72.3014 86.7097 72.3014C86.6354 72.2361 86.757 71.9477 86.5475 71.9612C86.4484 72.5989 86.1148 71.7787 85.885 72.5651ZM96.6162 46.4793C101.258 42.3216 104.038 39.757 106.008 37.6658C107.716 35.872 108.743 34.4027 110.228 32.4129C110.681 31.8225 111.199 31.1577 111.508 30.5065C111.769 30.209 112.429 28.4829 112.285 28.422C111.683 28.8818 111.821 29.9251 111.145 30.3194C111.693 29.0215 112.648 26.4345 112.134 24.9946C111.884 24.3795 111.334 24.5553 110.775 24.5914C110.36 24.6883 108.062 26.0292 107.657 26.2658C105.642 27.6585 101.688 32.6838 100.5 34.935L99.6306 36.6747C98.3396 39.4938 97.7652 42.5471 96.837 45.5532L96.6162 46.4793ZM132.523 67.2385C132.523 67.2385 132.366 66.9681 132.082 66.9163C131.649 66.7338 130.676 66.8668 130.317 66.7496C130.317 66.7496 130.229 66.4747 130.085 66.4139C129.583 66.2359 128.377 66.0332 128.001 65.6366C128.001 65.6366 127.575 64.4716 127.426 64.3409C127.198 64.0751 125.844 63.7416 125.664 63.122C125.224 59.5729 125.623 55.9698 126.673 52.6752C126.713 53.3039 126.493 54.2301 126.328 54.9422C126.211 55.3005 126.019 55.5934 126.037 55.8728C126.046 56.0125 126.051 56.0824 126.186 56.0035C126.387 55.8503 127.29 51.3728 127.267 51.0235C127.18 50.7486 126.051 51.7334 125.016 52.0106C124.327 52.1954 123.518 51.6164 123.518 51.6164C123.518 51.6164 122.441 50.1427 122.157 50.0909C122.087 50.0954 121.747 50.2577 121.747 50.2577C121.742 50.1878 121.785 49.7642 121.427 49.647C121.562 49.5682 121.916 49.6155 121.828 49.3405L121.409 49.3676C121.578 48.7254 121.172 48.962 121.172 48.962C121.172 48.962 121.298 48.7434 121.219 48.6082C121.131 48.3333 120.66 48.6443 120.908 48.1373C120.568 48.2996 120.485 48.0945 120.196 47.9728L120.401 47.8895C120.401 47.8895 120.225 47.3396 120.343 46.9813L119.919 46.9386C120.39 46.6276 120.367 46.2783 120.838 45.9673C122.391 45.0253 127.657 42.9316 129.419 41.976C129.759 41.8138 129.532 41.5479 130.104 41.7214L135.027 27.7952C134.808 27.669 134.684 26.8352 134.54 26.7744C134.54 26.7744 134.2 26.9367 134.195 26.8668C134.051 26.806 134.238 26.4432 134.233 26.3733C134.233 26.3733 133.395 26.4275 134.355 26.0849L134.136 25.9587C133.974 25.6185 134.332 25.7356 134.384 25.4517L133.965 25.4787C134.427 25.028 133.627 24.5887 133.203 24.5459C133.325 24.2575 133.294 23.7685 133.638 23.6761C133.769 23.5273 133.001 23.577 133.267 23.3493C133.523 22.982 136.203 22.1076 136.748 21.8619C136.856 21.3639 137.953 19.8901 138.368 19.7932C138.643 19.7053 139.085 20.0275 138.893 20.3205L139.098 20.2371C139.069 20.8703 139.186 20.512 139.47 20.5638C139.61 20.5548 139.688 20.69 139.968 20.6719C141.155 20.5952 144.637 19.1078 146.011 18.6683L150.838 17.3745C151.872 17.0973 156.503 16.0267 157.238 16.5404C157.312 16.6057 157.567 17.2907 157.65 17.4958C157.808 17.7662 158.074 17.5386 158.049 18.2416C158.053 18.3115 157.839 18.2552 157.844 18.325C158.011 18.7351 158.835 18.4714 158.98 18.5323C159.054 18.5976 159.651 20.2425 159.59 20.3868C159.595 20.4566 158.91 20.7113 159.059 20.842C159.683 20.7315 160.043 21.9709 160.075 22.4598C160.079 22.5297 159.87 22.5432 159.874 22.6131C159.559 24.2468 158.525 24.524 156.992 24.6931L157.324 24.3912L156.416 24.4498L156.747 24.1478C154.385 24.5108 152.037 25.0833 149.764 25.7211C148.044 26.253 144.056 27.4926 142.411 28.0899C141.386 30.6813 139.991 36.2428 139.295 37.4101C142.049 36.6009 144.618 35.1023 147.371 34.2931C148.196 34.0294 150.954 33.2902 151.549 33.8129L152.734 34.7885L152.394 34.9508L152.504 35.575L153.343 35.5209C153.631 35.6425 153.518 36.0707 153.593 36.136C153.593 36.136 154.3 36.2306 153.816 36.332C153.746 36.3365 153.518 36.0707 153.615 36.4853C154.034 36.4582 154.005 37.0914 154.237 37.4272C152.915 37.5827 154.474 37.8327 154.677 38.8017C154.76 39.0067 154.697 40.2033 154.567 40.352C154.506 40.4962 154.217 40.3746 154.156 40.5188C154.156 40.5188 154.109 40.8726 153.834 40.9605C153.769 41.0348 153.593 40.485 153.323 40.6428L153.354 41.1318C153.149 41.2152 153.201 40.9312 153.061 40.9402C152.847 40.8839 152.442 41.1206 152.237 41.2039C151.682 41.3099 151.193 41.3415 150.643 41.5173L147.829 42.4706L146.166 42.7884C144.87 43.3631 143.793 44.064 142.275 44.4427L136.001 47.2327C135.12 49.885 134.244 52.6072 133.577 55.3158C133.465 55.7439 132.487 60.1561 132.771 60.2079C136.994 58.2517 140.887 55.5452 145.114 53.6588C147.16 52.7551 149.603 51.475 151.748 52.1081L151.552 52.3312L152.041 52.2996L151.994 52.6534C152.134 52.6444 152.409 52.5565 152.553 52.6173C152.981 52.7299 154.529 53.8926 154.216 54.474L154.63 54.3771C154.592 54.8705 155.016 54.9133 155.248 55.2491C155.48 55.5848 155.582 56.0693 155.325 56.4366C155.133 56.7296 151.704 57.9331 151.088 58.1832C147.821 59.727 135.013 67.7791 132.523 67.2385ZM164.08 56.9936C163.563 56.606 163.509 55.7678 162.633 56.3154C162.097 56.7007 162.29 57.53 161.846 56.0856L161.301 56.3312C160.715 55.9482 161.916 49.5575 162.132 48.5615C162.772 45.4338 163.727 40.6723 164.75 36.9587C165.543 34.0315 165.32 33.8355 166.183 30.9038C166.3 30.5455 167.097 27.6882 167.762 28.2064C167.906 28.2672 167.672 28.9838 168.251 28.1748L168.082 28.817C168.366 28.8689 168.395 28.2357 168.684 28.3573C168.758 28.4227 168.576 28.8553 168.51 28.9297L168.977 28.5488C169.112 28.47 169.279 28.8801 169.348 28.8756C169.912 28.9093 169.653 28.1545 170.561 28.0958L170.797 28.5014L170.592 28.5848L170.881 28.7065C170.901 27.9335 171.25 27.911 171.516 27.6834C171.708 27.3904 171.946 26.7437 172.133 26.3809C172.456 25.9392 172.942 24.7854 173.499 23.6272C173.877 22.9714 174.182 22.2503 174.7 21.5855C175.414 20.6977 176.351 20.0058 176.766 19.9089C177.316 19.7331 177.334 20.0125 177.334 20.0125C177.474 20.0035 177.879 19.7669 177.954 19.8322C178.023 19.8277 178.037 20.0373 178.181 20.0981C178.251 20.0936 178.447 19.8705 178.657 19.8569C179.844 19.7803 182.715 20.7873 183.472 21.6503C184.908 23.2411 185.077 26.9479 185.352 29.0345L186.092 40.4907C186.04 40.7746 186.277 43.3547 186.308 43.8437C186.362 44.6819 186.509 45.865 186.768 46.6198L189.055 39.668C191.558 31.7202 192.126 29.6493 192.97 26.4382C193.308 25.1537 194.786 21.9719 196.096 21.6067C196.51 21.5098 197.148 21.6089 197.628 21.4376L197.576 21.7216C197.689 21.2934 198.755 21.5052 198.829 21.5705C198.973 21.6313 198.939 22.1947 199.433 22.233C199.577 22.2938 200.816 21.9332 201.035 22.0594C201.04 22.1292 200.927 22.5574 201.15 22.7534C201.303 22.9539 201.639 22.7218 201.783 22.7826C202.351 22.8863 201.218 23.8012 201.161 24.0153C200.242 27.1611 199.028 31.1676 197.739 35.1089C196.511 38.9059 194.635 45.6909 192.503 51.791C191.843 53.5171 190.996 55.606 189.746 56.8793C189.746 56.8793 188.276 58.0263 188.071 58.1097C187.657 58.2067 187.573 58.0016 187.359 57.9453C186.591 57.9949 186.151 58.7949 185.264 58.0806C184.748 57.6931 184.804 57.479 184.078 57.105C184.008 57.1095 183.925 56.9044 183.855 56.9089C183.855 56.9089 183.533 57.3506 183.393 57.3596C183.188 57.443 182.131 57.371 182.677 57.1253C182.812 57.0465 183.454 57.2154 183.283 56.7355C183.121 56.3952 182.165 56.8076 182.165 56.8076C181.951 56.7513 181.595 55.5818 181.367 55.316C181.288 55.1808 181.083 55.2641 180.926 54.9938C180.763 54.6535 180.885 54.3651 180.863 54.0158C180.849 53.8062 180.45 53.0604 180.344 52.5061C178.929 45.7933 179.097 38.6276 178.621 34.5197C178.603 34.2403 178.13 29.0801 177.925 29.1634C177.485 29.9634 177.051 30.8333 176.686 31.6986C175.651 34.1503 174.906 36.7237 174.095 39.3715C173.743 40.4464 172.7 42.7584 172.249 44.471C171.344 47.8264 170.573 51.1028 169.375 54.2666C169.253 54.5551 168.602 56.4209 168.467 56.4998C168.397 56.5043 168.113 56.4525 167.908 56.5359C167.707 56.6891 167.66 57.0429 167.59 57.0474L166.682 57.1061C166.398 57.0542 165.742 56.6757 165.127 56.9259C164.992 57.0048 165.076 57.2098 164.866 57.2233L164.08 56.9936ZM204.962 60.1053C204.814 59.9747 205.42 59.5848 204.311 59.7967L204.494 59.364L203.953 59.6795L203.996 59.2559L203.516 59.4272C203.833 58.9156 203.628 58.999 203.466 58.6588L203.43 58.0999C203.225 58.1833 202.997 57.9174 202.783 57.8611C202.36 57.8183 202.526 58.2284 202.747 57.3023L202.323 57.2595C202.301 56.9102 202.977 56.5158 202.972 56.446C202.88 56.1012 202.231 56.9147 202.652 55.8353L202.233 55.8624C202.486 55.4252 201.931 55.5312 201.586 55.6236L202.087 54.6794L201.598 54.711C201.981 54.1251 202.661 53.8005 203.123 53.3498C204.718 43.2861 207.099 33.4522 209.834 23.6656C208.917 23.5846 207.925 23.4382 207.017 23.4968L206.362 23.1183C206.217 23.0575 205.942 23.1454 205.942 23.1454C205.942 23.1454 205.999 22.9313 205.994 22.8614C205.99 22.7916 205.487 22.6136 205.483 22.5437C205.334 22.413 205.14 21.5838 204.991 21.4531C204.987 21.3833 204.852 21.4621 204.782 21.4667L204.764 21.1872C204.475 21.0656 204.149 21.4374 204.453 20.7163L204.034 20.7434C204.635 20.2836 204.3 20.5158 204.273 20.0966C204.268 20.0268 204.678 19.86 204.669 19.7203L204.385 19.6685L204.511 19.4499C203.966 19.6956 204.293 19.3237 203.86 19.1412L203.991 18.9925L203.222 19.0421C203.833 18.7221 203.033 18.2827 203.867 18.1588C203.779 17.8838 203.243 18.2692 203.355 17.8411C203.416 17.6968 204.441 17.2799 204.572 17.1312C207.008 16.8336 209.498 17.3742 211.956 17.4259C212.339 16.84 212.43 16.0626 213.259 15.8687C213.259 15.8687 213.268 16.0084 213.342 16.0738L213.552 16.0602C213.622 16.0557 213.313 16.707 213.766 16.1166L213.858 16.4613L214.548 16.2765L215.143 16.7993L215.465 16.3576C215.605 16.3486 215.683 16.4838 215.828 16.5446C215.897 16.5401 216.033 16.4612 216.107 16.5265C216.177 16.522 216.344 16.9321 216.344 16.9321C216.414 16.9276 216.614 16.7744 216.688 16.8397C216.758 16.8352 216.272 17.989 216.621 17.9664C216.835 18.0227 216.952 17.6644 217.087 17.5856C217.707 17.4053 217.673 17.9686 217.748 18.0339C217.817 18.0294 217.878 17.8852 218.023 17.946C218.311 18.0677 218.421 18.6919 218.566 18.7527C218.714 18.8834 220.571 19.3948 220.934 19.5818C224.893 21.1499 227.744 22.9299 229.943 26.5757C232.458 30.7624 232.792 35.9316 230.697 40.416C230.14 41.5742 228.502 43.3635 227.592 44.4745C227.331 44.772 226.263 45.6125 226.136 45.8311C226.141 45.901 226.224 46.106 226.154 46.1105C226.159 46.1804 225.627 46.6356 225.562 46.71C225.497 46.7843 225.348 46.6537 225.282 46.728C225.213 46.7325 225.296 46.9376 225.231 47.0119C225.161 47.0165 225.017 46.9556 224.881 47.0345C224.751 47.1832 224.904 47.3838 224.773 47.5325C224.577 47.7556 224.023 47.8615 223.692 48.1635C223.426 48.3911 223.444 48.6705 223.243 48.8238C223.108 48.9027 222.894 48.8463 222.689 48.9297C221.952 49.4683 220.832 50.5928 220.161 51.0571C217.684 52.9005 214.994 54.6876 212.43 56.2561C211.283 56.9615 210.458 57.2252 209.372 57.7863C208.696 58.1807 205.6 60.2045 205.107 60.1662L204.962 60.1053ZM212.411 47.2786C217.181 44.0245 222.837 40.3624 225.66 35.1997C226.474 33.6741 227.26 31.7294 227.147 29.983C226.983 28.5206 225.851 28.3832 224.824 27.678C224.605 27.5518 224.229 27.1552 224.01 27.0291C223.28 26.5852 218.246 24.6656 217.845 24.9721L212.411 47.2786ZM244.252 56.5159L239.583 55.9055C239.29 55.714 239.045 55.1687 238.686 55.0515C238.179 54.8037 238.193 55.0132 237.463 54.5694C235.124 53.1071 236.266 47.9828 236.531 45.5807L237.462 41.5223L237.248 41.466C237.565 40.9544 237.146 40.9815 237.146 40.9815C237.058 40.7066 237.665 40.3167 237.87 40.2333L237.865 40.1635C236.56 40.5985 238.235 39.368 237.209 39.785L237.266 39.5709L237.299 39.0075C237.202 38.5929 237.608 38.3563 237.608 38.3563C238 37.9101 237.133 38.5974 237.25 38.2391C237.428 37.7366 238.126 37.6915 238.514 37.1755L241.362 26.9607C241.012 26.9833 240.854 26.7129 240.78 26.6475L240.012 26.6972L239.84 26.2172L239.557 26.1654C239.399 25.895 239.043 24.7255 238.502 25.041C238.68 24.5385 238.405 24.6264 238.405 24.6264C238.405 24.6264 238.536 24.4777 238.531 24.4078C238.527 24.338 238.373 24.1374 238.373 24.1374C238.369 24.0676 239.128 23.8782 238.364 23.9977C238.207 23.7273 238.56 23.7746 238.556 23.7048C238.556 23.7048 238.319 23.2992 238.249 23.3037C238.096 23.1031 237.337 23.2925 237.803 22.9116L237.659 22.8508L237.916 22.4835L237.618 22.2221C238.089 21.9111 238.49 21.6046 239.036 21.359C243.346 19.6777 251.83 17.4463 256.377 16.1706C257.481 15.8889 259.611 15.1902 260.672 15.3321C260.952 15.314 261.026 15.3794 261.166 15.3704L260.979 15.7332L261.258 15.7151L261.202 15.9292L261.472 15.7714L261.556 15.9765L261.001 16.0824C261.164 16.4227 261.831 15.8886 261.862 16.3776L261.028 16.5016C261.526 16.6097 261.959 16.7922 262.387 16.9048C261.925 17.3555 262.628 17.3803 262.628 17.3803C262.628 17.3803 262.567 17.5245 262.572 17.5943C262.642 17.5898 262.874 17.9256 262.878 17.9954C262.883 18.0653 262.743 18.0743 262.678 18.1487C261.995 19.5255 262.484 19.494 261.567 19.4129L261.59 19.7622C262.004 19.6652 262.288 19.717 262.712 19.7598L262.529 20.1925C263.032 20.3705 262.793 21.0172 262.453 21.1795C262.602 21.3102 262.741 21.3011 262.48 21.5986C262.153 21.9704 261.114 22.1778 260.574 22.4933L259.334 22.8539L255.682 23.8614L249.965 25.4932L249.354 25.8132L247.178 33.3892C249.988 32.366 252.84 30.9192 255.72 29.8915C256.2 29.7202 258.74 28.8547 259.033 29.0462L258.841 29.3392L259.195 29.3865L259.488 29.578C259.283 29.6614 258.65 29.6321 258.668 29.9116C258.873 29.8282 259.157 29.88 259.366 29.8665C259.362 29.7966 259.427 29.7222 259.427 29.7222C259.907 29.5509 259.305 30.0107 259.319 30.2202C259.524 30.1368 260.087 30.1706 259.97 30.5289C259.9 30.5334 259.612 30.4118 259.695 30.6168C260.049 30.6641 260.687 30.7632 260.072 31.0134L260.561 30.9818L260.229 31.2838L260.579 31.2612L260.452 31.4798L260.736 31.5316L260.57 33.296L261.216 33.5348C260.606 33.8549 261.467 34.15 261.476 34.2897C261.476 34.2897 261.262 34.2334 261.266 34.3032C261.228 34.7967 261.14 34.5218 261.088 34.8058C261.027 34.95 261.316 35.0716 260.84 35.3128C259.959 35.7906 258.785 36.0768 257.825 36.4194C253.515 38.1007 249.366 40.1222 245.288 42.1392C245.026 42.4367 244.254 44.591 244.155 45.2287C243.778 47.0066 243.341 48.9288 243.393 50.8194L243.781 50.3033C243.986 50.2199 243.93 50.434 243.999 50.4295C244.423 50.4723 250.108 46.177 250.985 45.6294C251.791 45.0863 253.801 43.6237 254.556 43.3645L255.315 43.1752C255.385 43.1707 256.803 44.482 257.021 44.6082C258.087 44.82 257.803 44.7682 258.538 45.2819C258.538 45.2819 258.673 45.203 258.747 45.2683C259.403 45.6469 259.989 46.0299 259.41 46.8389C258.234 48.1775 253.058 51.6683 251.31 52.8334C249.701 53.9895 246.077 56.5383 244.252 56.5159ZM269.343 58.6133C269.451 58.1153 269.124 58.4871 268.84 58.4353C268.342 58.3272 268.403 58.183 268.516 57.7548C268.162 57.7075 268.193 58.1965 268.193 58.1965C268.193 58.1965 267.909 58.1447 267.77 58.1537C267.77 58.1537 267.438 58.4557 267.36 58.3205C267.29 58.325 267.272 58.0456 267.272 58.0456C267.049 57.8495 266.442 58.2394 266.71 56.9595C266.267 57.6896 266.161 57.1353 265.947 57.079C265.444 56.901 265.401 57.3246 265.262 57.3336C264.791 57.6446 264.802 56.732 264.779 56.3827L264.527 56.8199C264.527 56.8199 264.367 55.4273 264.405 54.9338C264.675 52.6016 265.263 49.7578 265.739 47.3421C266.27 44.7124 266.946 42.1435 267.482 39.5836C267.469 39.374 267.185 39.3222 267.101 39.1172C266.754 38.0874 268.802 33.9568 269.14 32.6724C270.467 28.2377 270.771 23.1675 272.028 18.7373C272.254 17.881 273.148 15.4383 274.099 17.1305L274.421 16.6888C274.252 17.3311 275.082 17.1372 275.165 17.3423C275.314 17.473 275.336 17.8222 275.336 17.8222C275.564 18.0881 275.999 17.2183 276.069 17.2138C276.138 17.2093 276.305 17.6194 276.348 17.1957C276.641 17.3873 276.869 17.6531 276.826 18.0768C277.148 17.6351 277.319 18.115 277.389 18.1105C277.599 18.097 279.14 15.8931 279.397 15.5258C281.871 12.5602 286.929 7.25316 290.823 6.72112C291.242 6.69405 293.505 6.96882 293.588 7.17388C293.662 7.23922 293.466 7.46232 293.536 7.45781C293.611 7.52315 294.244 7.5524 294.532 7.67407C295.035 7.85205 296.745 9.35495 297.191 9.74701C303.305 16.4369 294.928 30.0952 290.534 35.9204C289.498 37.25 287.449 39.2061 286.692 40.5176C286.627 40.5919 286.557 40.5964 286.566 40.7362C289.228 41.7568 291.889 42.7774 294.429 44.0864C295.884 44.9043 298.122 45.8822 298.579 47.5361L298.217 47.3491C297.951 47.5767 298.444 47.615 298.449 47.6848L298.611 48.0251C298.638 48.4442 298.652 48.6538 298.228 48.611C298.377 48.7417 298.902 49.2689 298.859 49.6926C298.864 49.7624 298.724 49.7714 298.663 49.9157C298.672 50.0554 298.595 51.0424 298.526 51.0469C298.465 51.1911 297.91 51.297 297.91 51.297C297.784 51.5156 298.221 51.768 298.235 51.9775L298.028 53.1133L297.613 53.2102C297.413 53.3634 297.365 53.7172 297.09 53.8051L296.182 53.8637C296.038 53.8029 296.025 53.5933 296.025 53.5933C294.81 53.2509 293.266 52.1581 292.034 51.5363C290.661 50.9234 288.73 50.3467 287.493 49.655L286.981 49.3373L285.609 48.7244C285.111 48.6163 284.958 48.4158 284.744 48.3595C283.097 47.8345 279.02 46.6247 277.33 46.5234C276.557 46.5032 275.602 46.9156 274.923 46.1878C274.775 46.0571 274.682 45.7124 274.887 45.629C274.25 45.5299 274.558 44.8786 274.139 44.9057L270.936 58.3L270.773 57.9597L270.251 58.5546L270.149 58.0702C269.771 58.7259 269.73 58.0972 269.343 58.6133ZM278.72 38.7176C284.321 32.0428 289.761 25.0276 292.302 16.5863C292.588 15.5858 292.755 13.8214 292.606 13.6907C292.457 13.56 290.857 14.8558 290.591 15.0834C290.121 15.3944 289.654 15.7753 289.192 16.226C286.896 18.6891 284.418 21.5848 282.433 24.5188C281.601 25.765 280.61 27.7931 279.765 28.8297L279.456 29.481C279.147 30.1322 278.003 31.9598 277.273 33.6904C276.473 35.4256 276.088 37.0638 275.98 37.5618C275.993 37.7714 275.558 38.6412 275.912 38.6885C276.056 38.7493 276.183 38.5307 276.322 38.5217C276.816 38.56 278.454 38.9452 278.72 38.7176ZM324.562 56.9413C324.003 56.9773 323.919 56.7723 323.496 56.7295L321.522 56.5764L321.504 56.297L320.834 55.7089C319.728 54.8684 317.786 55.2043 317.589 53.2529C317.501 52.978 317.693 52.685 317.684 52.5453C317.583 52.0609 317.425 51.7905 317.375 51.0221C317.199 46.1232 318.677 40.7669 320.089 35.4848C321.455 30.5566 322.615 25.7118 324.021 21.4122C324.607 19.6208 325.262 17.8248 325.708 16.0423C326.449 13.3991 327.4 10.7423 328.43 8.22068C328.734 7.49958 329.55 4.92167 330.235 4.66699C330.309 4.73234 330.313 4.80219 330.313 4.80219C330.676 4.9892 330.471 5.07259 330.541 5.06807C330.546 5.13793 330.672 4.91934 330.746 4.98469C330.89 5.04552 330.908 5.32494 330.978 5.32043C330.978 5.32043 331.035 5.10635 331.109 5.17169C331.179 5.16718 331.122 5.38126 331.327 5.29787L331.519 5.00492L331.738 5.13109C332.035 5.39247 331.537 5.28434 331.69 5.48488C332.091 5.17839 332.38 5.30006 332.202 5.80257C332.686 5.70114 332.697 4.78852 333.205 5.03636C333.423 5.16254 333.083 5.3248 333.166 5.52985L333.633 5.149C333.865 5.48474 333.608 5.85206 333.626 6.13148L334.07 5.40135L334.113 7.15223L334.604 6.06832C334.944 5.90606 335.325 6.37248 335.399 6.43783L335.767 6.69469C336.348 7.00787 336.111 6.60228 336.235 7.43602L336.431 7.21293L336.587 8.53565C336.657 8.53114 336.661 8.60099 336.666 8.67085C336.688 9.02012 335.603 11.7558 335.429 12.3282C335.204 13.1845 334.983 14.1106 334.688 14.9714L333.034 19.778C332.027 22.6489 331.299 25.5017 330.488 28.1494C328.918 33.1611 327.375 38.5918 326.088 43.6552C325.868 44.5814 324.462 51.0554 324.759 51.3168C328.349 49.3314 329.552 48.4119 331.711 47.08C332.587 46.5324 334.602 45.1397 335.51 45.081C335.864 45.1283 336.082 45.2545 336.366 45.3063C336.646 45.2883 337.558 45.2995 337.703 45.3603C337.842 45.3513 337.79 45.6352 337.86 45.6307L338.201 45.4684C338.27 45.4639 338.214 45.678 338.358 45.7388C338.507 45.8695 338.847 45.7073 338.991 45.7681C339.136 45.8289 339.307 46.3089 339.456 46.4396C339.604 46.5703 339.954 46.5477 340.102 46.6784C340.688 47.0614 340.864 47.6112 340.337 48.1363L333.958 52.5466C332.815 53.3218 329.737 55.625 328.638 55.9765C328.293 56.069 327.795 55.9608 327.66 56.0397C327.525 56.1186 327.748 56.3146 327.408 56.4769C327.067 56.6391 326.77 56.3778 326.495 56.4657C325.866 56.5063 325.26 56.8961 324.562 56.9413ZM358.767 50.734C358.409 50.6168 358.055 50.5695 357.701 50.5222C352.917 49.2178 349.72 48.5826 347.09 43.7019C341.733 33.526 345.536 18.5498 353.073 10.347C354.911 8.40448 357.976 5.89177 360.682 5.43642C361.097 5.3395 361.381 5.3913 361.739 5.50846L361.8 5.36424C362.185 5.90052 362.726 5.58501 363.294 5.68863C363.717 5.73142 364.504 5.96121 364.867 6.14822C365.229 6.33523 365.75 6.79263 365.829 6.92783C365.903 6.99318 366.331 7.10582 366.406 7.17116C366.843 7.42351 367.6 8.28651 367.702 8.77098C367.711 8.91069 367.875 10.3731 367.805 10.3776C367.702 10.9455 367.47 10.6098 367.4 10.6143L367.055 10.7067C366.78 10.7946 366.667 11.2227 366.57 10.8081L366.449 11.0965L366.291 10.8262L366.03 11.1236C365.863 10.7135 365.518 10.8059 365.221 10.5445C365.076 10.4837 365.124 10.1299 364.876 10.637C364.425 10.175 364.527 10.6595 364.322 10.7429C364.256 10.8173 364.168 10.5424 364.029 10.5514C364.029 10.5514 363.828 10.7046 363.754 10.6393C363.684 10.6438 363.796 10.2156 363.452 10.308C363.382 10.3126 363.391 10.4523 363.391 10.4523C363.251 10.4613 363.195 10.6754 362.985 10.6889L361.577 11.6917C356.433 15.6715 352.738 23.6262 352.004 29.636C351.591 33.0296 351.743 36.457 352.658 39.7649L353.023 41.0741C353.44 42.0994 353.87 43.3342 354.497 44.3459C355.29 45.7677 355.941 46.0764 357.656 45.4747C364.245 43.2254 368.548 33.8285 369.404 27.5303C369.713 24.7045 369.656 20.5696 367.822 18.2329C366.985 17.2347 365.376 16.2163 364.022 15.8829L364.083 15.7387C363.925 15.4683 363.725 15.6215 363.725 15.6215C363.72 15.5516 363.786 15.4773 363.781 15.4074C363.777 15.3376 363.279 15.2294 363.204 15.1641C363.121 14.959 363.468 13.8143 363.598 13.6656C363.24 13.5484 363.781 13.2329 363.986 13.1495C364.536 12.9737 364.899 13.1607 365.397 13.2689L365.104 13.0773C365.234 12.9286 365.602 13.1855 365.811 13.1719C368.982 13.3881 370.744 14.607 373.119 16.6282C374.313 17.7435 375.019 18.8905 375.974 20.6525L376.229 21.3375C376.475 21.8828 376.603 22.7864 376.793 23.5458C376.666 23.7644 376.75 23.9695 376.768 24.2489C376.968 26.2701 376.755 28.3883 376.453 30.2316C376.396 30.4457 376.498 30.9302 376.223 31.0181L376.367 31.0789C376.097 31.2367 376.315 31.3628 376.264 31.6468C375.939 33.1408 375.297 35.1463 374.693 36.6584L373.781 38.8217C372.711 40.7146 371.645 42.6773 370.086 44.6018C369.694 45.048 369.306 45.5641 368.77 45.9494C368.779 46.0891 368.979 45.9359 368.979 45.9359C369.245 45.7083 369.432 45.3455 369.707 45.2576C369.254 45.848 368.601 46.5917 368.069 47.0469C367.21 47.8739 365.462 49.039 364.306 49.6047L362.046 50.4521L361.282 50.5716C360.378 50.7001 359.522 50.4748 358.605 50.3937L358.767 50.734ZM29.2037 139.066C25.9048 140.121 22.3287 140.141 19.1266 139.436C18.9125 139.38 18.5497 139.193 18.3311 139.067L18.4889 139.337C18.419 139.342 18.3537 139.416 18.2838 139.421C18.214 139.425 17.4658 138.702 17.3216 138.641C17.103 138.515 16.4653 138.416 16.3909 138.35C15.8794 138.033 14.0383 136.679 13.6619 136.282C13.2856 135.885 13.7971 136.203 13.6394 135.933C13.3982 135.457 12.8033 134.934 12.5667 134.529C12.0236 133.722 11.4669 132.706 11.2641 131.737C10.9892 131.825 11.1334 131.886 11.1469 132.095C11.5593 133.051 12.134 134.346 12.6817 135.223C12.9093 135.489 13.6349 135.863 13.3825 136.3C12.9183 135.629 12.3234 135.106 11.929 134.43C10.3514 131.726 9.16365 127.454 9.51265 123.082C9.81435 119.064 10.2603 115.107 10.997 112.394C12.9254 105.325 17.7064 94.6348 25.228 91.6238C27.0735 90.8733 28.7771 91.1841 30.6203 91.486C30.8344 91.5423 31.0395 91.4589 31.3234 91.5107C33.1712 91.8824 35.0596 92.8828 36.0308 93.8021C37.5925 95.1743 38.2371 96.4655 38.458 97.7138L38.5166 98.6219C38.4085 99.1199 38.6632 99.8049 38.5415 100.093C38.4852 100.307 38.296 101.723 37.7102 103.514L36.7077 106.455C36.5161 106.748 35.8199 107.915 35.7703 107.147C35.6441 107.365 34.7631 107.843 34.6189 107.782L34.6053 107.573C34.6008 107.503 34.3304 107.661 34.256 107.595C34.1862 107.6 34.1772 107.46 34.0329 107.399L32.6786 107.066C32.5434 107.145 32.3564 107.507 32.2032 107.307C32.05 107.106 32.3158 106.879 31.775 107.194L31.9666 106.901L31.5474 106.928L31.5812 106.365L31.3897 106.658C30.8691 106.201 30.7159 106 29.9746 106.469C30.0827 105.971 29.8168 106.198 29.7424 106.133C29.5937 106.002 29.9294 105.77 29.7762 105.57C28.6338 106.345 29.4787 105.308 29.5959 104.95C29.5959 104.95 29.5035 104.605 30.3777 102.935C30.603 102.079 30.9071 101.358 31.0761 100.716C31.2969 99.7896 31.4185 99.5012 31.4613 99.0776C31.5604 98.4398 31.5942 97.8765 31.5626 97.3875C31.4477 96.6935 31.1412 96.2924 30.713 96.1798C30.0708 96.0108 28.7233 96.8694 28.4574 97.097C22.8242 101.108 18.9153 111.181 17.78 117.498C17.361 119.699 16.7685 122.473 16.8701 125.132C17.0077 128.35 17.6389 131.606 18.9843 133.974C19.2998 134.515 20.4514 136.054 21.1544 136.079C21.2243 136.074 22.3419 136.002 22.4771 135.923C25.6589 135.227 29.7845 130.681 31.5781 128.04C33.1192 125.836 33.4279 125.185 33.7974 124.39C34.2413 123.66 34.6761 122.79 35.5751 120.417C35.7012 120.198 35.6742 119.779 36.1541 119.608C36.2285 119.673 37.0668 119.619 37.1411 119.684C37.4678 119.313 37.3642 119.88 37.4386 119.946C37.4386 119.946 38.2498 119.472 38.1552 120.18L38.4166 119.883L38.5135 120.297L38.8357 119.856L38.9191 120.061C38.8312 119.786 39.3247 119.824 39.4035 119.959C39.6221 120.085 39.2954 120.457 39.9015 120.067L39.9219 121.469C40.1224 121.316 40.03 120.971 40.1607 120.822C40.2869 120.604 40.7804 120.642 40.999 120.768C41.1432 120.829 41.1612 121.108 41.1612 121.108C41.2356 121.174 41.3618 120.955 41.4316 120.95C41.506 121.016 41.3934 121.444 41.7201 121.072C41.7562 121.631 42.1753 121.604 42.2903 122.298C42.4278 123.341 41.5738 124.238 41.4837 125.016C41.4973 125.225 41.5852 125.5 41.5897 125.57C41.5897 125.57 41.1525 125.318 41.3418 126.077C40.6299 128.087 39.9764 128.831 39.7286 129.338C39.3501 129.993 39.2983 130.277 37.5475 132.495C36.2497 134.122 34.7986 135.548 33.0591 136.853C32.1217 137.545 30.7472 137.984 29.9405 138.528C29.4696 138.839 30.0239 138.733 29.2037 139.066ZM48.7772 134.926C48.5113 135.154 48.0741 134.901 47.9344 134.91C47.8646 134.915 46.6184 134.084 46.4832 134.162C46.4832 134.162 46.3751 134.66 46.0641 134.189L45.9243 134.198L45.868 134.413L45.53 133.523L44.8495 133.847L44.561 133.725L44.5926 134.214L44.0112 133.901C43.7926 133.775 43.9796 133.412 43.36 133.593C43.1954 132.13 43.7429 130.832 44.2858 129.464C45.9531 124.867 48.5058 119.862 50.7454 115.439C53.6587 109.499 58.8115 99.1351 63.5005 94.6235C64.2238 93.8754 65.4834 92.7418 66.5718 93.3029C66.4748 92.8883 66.7768 93.2195 67.0472 93.0617L66.8557 93.3547C67.2185 93.5417 67.5542 93.3096 67.7683 93.3659C68.4759 93.4605 73.0954 95.477 73.6949 96.0696C75.5022 97.9871 75.9194 103.361 76.0165 105.951C76.1338 107.767 75.9716 109.601 76.0889 111.417L76.2331 111.478L77.5086 111.676L77.2427 111.904C77.9277 111.649 77.6145 112.231 77.9503 111.998C77.8984 112.282 77.9638 112.208 78.1824 112.334L77.5109 112.798C77.7813 112.641 78.7728 112.787 78.8517 112.922C78.9305 113.057 78.9396 113.197 79.0184 113.332C79.0973 113.468 79.539 113.79 79.5435 113.86C79.4782 113.934 79.2686 113.948 79.2731 114.017C79.2821 114.157 79.4354 114.358 79.3655 114.362C79.37 114.432 78.8765 114.394 79.0343 114.664C79.9289 114.396 79.7982 114.545 79.8343 115.103C79.8501 116.435 79.9853 116.356 80.0687 116.561C80.0777 116.701 79.857 117.627 79.7916 117.702C79.5348 118.069 77.9461 118.452 77.4662 118.623C77.1259 118.786 77.0696 119 76.7812 118.878L76.8646 119.083L76.7113 118.883C76.5987 119.311 76.1525 118.919 76.3846 119.254C76.0398 119.347 75.8911 119.216 75.8438 119.57C75.7134 124.068 75.7857 127.36 75.9302 131.77C75.6035 132.142 75.3894 132.085 75.0266 131.898C75.2069 132.518 72.8161 133.514 72.7485 132.466L72.566 132.899C72.7395 132.327 72.0566 131.529 72.1153 132.437C71.8268 132.315 71.9012 132.381 71.8494 132.665L71.4122 132.412L71.3041 132.91C71.0292 132.998 71.0381 130.963 70.7451 130.772L69.6928 130.77C69.6973 130.839 69.5328 131.552 69.2264 131.15C69.152 131.085 68.9062 128.365 68.8791 127.946C68.7213 125.501 68.3606 124.262 68.2073 121.887L61.5284 124.914C60.9786 125.089 60.4378 125.405 60.0232 125.502L59.6041 125.529L59.408 125.752L58.7974 126.072L58.3039 126.034C58.0989 126.117 58.1822 126.322 57.7631 126.349C56.9992 126.469 57.1862 126.106 57.1164 126.11L56.6274 126.142C55.9762 125.833 55.7621 125.777 55.3722 125.171C55.2933 125.036 55.2618 124.547 54.917 124.639C53.6733 127.104 53.0559 128.407 51.9519 130.863L51.8956 131.077L50.5618 134.32L50.4784 134.115L50.1698 134.766C49.6965 133.955 49.8205 134.789 49.6943 135.007L49.2797 135.104C49.0701 135.118 48.8651 135.201 48.8651 135.201L48.7772 134.926ZM68.8715 113.707C68.8735 110.48 69.146 107.096 68.8641 103.817C68.7874 102.629 68.6364 101.377 68.3501 100.203C68.0662 100.151 68.0054 100.295 67.94 100.369C67.4173 100.964 66.4033 102.643 65.8941 103.448C63.7221 106.744 62.1832 110.071 60.3695 113.485C60.0608 114.136 59.6913 114.931 59.3037 115.447L59.1866 115.806L58.8081 116.461C58.7472 116.606 57.7423 118.424 57.8167 118.489L68.8715 113.707ZM122.246 135.232C121.935 134.761 121.367 134.658 121.06 134.257C119.69 132.591 119.638 126.352 119.699 124.033C119.667 117.021 120.477 110.024 120.804 103.128C120.856 102.844 120.896 101.299 120.822 101.233C120.677 101.172 119.111 104.079 118.985 104.298C116.858 108.293 114.946 112.345 112.819 116.34L108.612 123.977C108.49 124.266 108.272 124.14 108.141 124.288C108.006 124.367 107.884 124.656 107.749 124.735C107.413 124.967 106.347 124.755 105.937 124.922C105.728 124.935 105.266 125.386 105.266 125.386L105.034 125.05C104.964 125.055 104.702 125.352 104.698 125.282C104.698 125.282 104.754 125.068 104.68 125.003L104.4 125.021C104.173 124.755 104.36 124.392 104.047 124.974L103.884 124.633C103.702 125.066 103.208 125.028 102.947 125.325C102.915 124.836 102.487 124.724 102.068 124.751L102.014 123.912C101.917 123.498 101.726 123.791 101.581 123.73C101.433 123.599 101.065 121.168 101.038 120.749C100.481 115.383 100.749 109.755 100.541 104.367L100.125 105.516L99.897 105.25C99.9286 105.739 99.3405 106.408 99.2932 106.762C99.2369 106.976 99.4419 106.893 99.4464 106.963C99.4554 107.102 99.1896 107.33 99.1287 107.474L98.0292 110C95.2084 116.285 92.881 122.608 90.1391 129.028C89.7696 129.824 89.4091 130.759 88.9652 131.489C88.9044 131.633 88.8526 131.917 88.7872 131.992C88.6566 132.14 88.5078 132.01 88.3726 132.089C88.3073 132.163 87.6066 133.26 87.4916 132.566L87.0297 133.017L86.9328 132.602L86.6151 133.114C86.4708 133.053 86.7277 132.686 86.7232 132.616C86.5046 132.49 86.1577 133.635 86.0607 133.22C86.0562 133.15 86.2523 132.927 86.0382 132.871C85.61 132.758 85.5627 133.112 85.4929 133.116C85.2743 132.99 85.3824 132.492 85.0039 133.148L84.9813 132.799L84.5059 133.04L84.2647 132.564L84.0034 132.862L83.9808 132.512C83.7622 132.386 83.8546 132.731 83.7848 132.736C83.7149 132.74 83.5662 132.609 83.431 132.688C83.2958 132.767 83.3184 133.116 83.1133 133.2C83.2733 132.418 82.737 132.803 82.7054 132.314C82.4913 132.258 82.6446 132.458 82.5094 132.537C82.0204 132.569 82.3426 132.127 82.2502 131.782L81.6778 131.609C82.1667 129.403 83.0138 127.314 83.6514 125.239C84.9874 120.944 86.1138 116.662 87.4543 112.437C88.04 110.645 88.6033 108.505 89.3332 106.774C89.5675 106.057 90.0069 105.257 90.6085 104.798C90.6401 105.287 90.897 104.919 90.897 104.919L91.3995 105.097C91.7961 104.721 91.5235 105.931 92.0282 105.057C92.2468 105.183 92.1431 105.751 92.0823 105.895C92.2874 105.812 92.4834 105.589 92.5442 105.444C93.3013 104.133 93.9997 101.913 94.6779 100.466C96.086 97.2891 97.8209 93.7399 99.5919 90.7496C99.9141 90.3079 101.115 88.2663 101.687 88.4398C101.832 88.5006 101.64 88.7935 101.845 88.7101C101.949 88.1423 102.116 88.5524 102.185 88.5479C102.33 88.6087 102.456 88.3901 102.605 88.5208L103.01 88.2842C103.215 88.2008 103.098 88.5591 103.103 88.6289C103.251 88.7596 103.359 88.2616 103.355 88.1918C103.425 88.1873 103.713 88.3089 103.857 88.3698C104.346 88.3382 104.189 88.0678 104.779 88.5207C104.853 88.586 104.932 88.7212 104.932 88.7212C105.007 88.7866 104.98 88.3674 105.198 88.4936L105.318 89.2575L105.784 88.8767C106.649 89.2416 107.375 89.6157 107.643 90.5102C108.105 92.234 107.74 95.2739 107.862 97.1599C107.885 97.5092 108.063 97.0067 108.085 97.356C108.02 97.4303 107.876 97.3695 107.885 97.5092C107.777 98.0072 108.04 98.8319 107.797 99.4088L108.016 99.535C107.732 99.4832 107.786 100.321 107.799 100.531L107.761 103.199C107.766 103.269 107.635 103.418 107.639 103.487L107.653 103.697L107.69 112.954C107.737 112.6 108.129 112.154 108.181 111.87C108.289 111.372 108.109 110.752 108.077 110.263L108.234 104.01L108.457 93.3337L108.594 94.377L108.363 111.437C111.238 105.991 113.89 100.348 116.765 94.9015C118.2 92.1433 119.944 88.7338 121.603 86.1716C121.733 86.0229 122.504 84.9209 122.574 84.9164C122.713 84.9074 123.225 85.2251 123.43 85.1417C123.919 85.1101 123.887 84.6211 124.077 85.3805C124.365 85.5022 124.674 84.8509 124.744 84.8464L125.656 84.8576C126.08 84.9004 126.81 85.3443 126.632 85.8468C126.637 85.9167 127.033 85.5403 127.103 85.5358C127.173 85.5313 128.113 85.9616 128.187 86.027L128.804 86.899C129.143 87.7891 128.958 91.4486 128.899 92.715C128.458 101.091 127.388 109.507 127.087 117.874C126.961 120.267 127.036 122.507 127.045 124.821L126.808 124.416C126.761 124.769 126.919 125.04 126.941 125.389L127.025 127.769L127.27 130.488L127.518 132.156C127.773 132.841 128.07 133.102 127.766 133.823L127.059 133.729C127.068 133.869 127.095 134.288 127.025 134.292C126.759 134.52 126.299 133.918 126.563 134.743C126.205 134.626 125.283 134.475 124.952 134.777C124.817 134.856 124.83 135.065 124.76 135.07C124.625 135.149 124.402 134.953 124.258 134.892C124.188 134.896 124.053 134.975 123.983 134.98C123.843 134.989 123.598 134.443 123.453 134.383C123.183 134.54 123.411 134.806 123.411 134.806C123.341 134.811 123.039 134.479 122.969 134.484C122.755 134.428 122.773 134.707 122.773 134.707C122.703 134.712 122.48 134.516 122.345 134.594C122.349 134.664 122.446 135.079 122.246 135.232ZM144.603 133.087C143.621 133.08 142.839 132.92 141.922 132.839C141.638 132.787 140.227 132.668 140.083 132.607C139.794 132.486 139.26 131.819 138.906 131.771C138.692 131.715 138.659 132.278 138.386 131.314L138.125 131.611C137.888 131.206 137.744 131.145 137.782 130.651C137.403 131.307 137.455 131.023 137.21 130.478L137.023 130.841L136.795 130.575L136.272 131.17L135.86 130.214L135.529 130.516C135.269 129.761 135.639 128.966 135.589 128.198C135.571 127.918 135.215 126.749 135.211 126.679C135.262 126.395 136.017 126.136 136.065 125.782C138.82 115.222 141.575 104.663 144.544 94.1598L144.461 93.9547L141.142 95.7824L140.574 95.6788C139.884 95.8636 140.076 95.5706 139.923 95.3701C139.923 95.3701 139.373 95.5459 139.63 95.1786L139.28 95.2011C139.524 94.6243 139.179 94.7167 139.03 94.586L138.422 93.8537C138.278 93.7928 137.768 94.5973 138.041 93.3872L137.617 93.3445C138.032 93.2475 137.744 93.1259 137.73 92.9163C137.782 92.6324 138.174 92.1862 137.572 92.6459L137.597 91.9429L137.261 92.175C137.085 91.6252 136.973 92.0533 136.479 92.015L136.761 90.9447L136.477 90.8929C136.398 90.7577 136.529 90.6089 136.529 90.6089C137.169 89.6557 141.941 87.5237 143.167 86.9535C144.118 86.4712 146.252 85.8424 146.993 85.3737C147.194 85.2204 147.18 85.0109 147.311 84.8621C147.572 84.5647 147.735 84.9049 147.804 84.9004C148.163 85.0176 149.729 84.2851 150.209 84.1138C155.838 82.2071 163.902 80.0028 168.632 84.818C169.98 86.1339 171.111 88.4458 171.443 90.3183C171.912 93.2342 166.632 97.2928 164.487 98.8343C163.14 99.6929 161.718 100.486 160.44 101.34L160.672 101.676L161.305 101.705C161.375 101.701 161.245 101.849 161.249 101.919C161.328 102.055 163.802 103.438 164.17 103.695C169.977 107.809 173.254 115.103 168.975 121.622C166.481 125.361 163.554 126.742 159.833 128.877C159.698 128.955 159.577 129.244 159.376 129.397C158.63 129.796 156.566 130.42 155.676 130.758C154.921 131.018 154.157 131.137 153.402 131.396L153.905 131.574C150.872 132.401 147.756 133.024 144.603 133.087ZM144.082 126.106C148.391 125.477 152.598 124.364 156.545 122.495C160.633 120.618 166.243 116.257 165.63 111.106C165.387 109.508 164.959 109.396 163.652 108.709C163.289 108.522 162.721 108.418 162.284 108.166C162.14 108.105 162.34 107.952 161.693 107.713C160.186 107.179 158.077 107.105 156.461 107.069L156.797 106.836C155.74 106.764 154.618 106.767 153.574 106.904C153.016 106.94 151.283 107.263 150.877 107.499C150.737 107.508 150.751 107.718 150.611 107.727C150.546 107.801 149.437 108.013 149.367 108.018C149.223 107.957 149.065 107.687 148.869 107.91L144.082 126.106ZM151.53 98.0577C153.898 96.7122 156.341 95.4322 158.63 93.9516C160.784 92.5498 163.069 90.9994 164.628 89.0749L163.991 88.9758L164.047 88.7617L159.315 89.3479C158.664 89.0392 159.581 89.1203 159.772 88.8273C157.699 89.3119 155.608 89.5171 153.697 90.342C152.952 92.9154 152.136 95.4933 151.53 98.0577ZM182.047 125.338C181.916 125.486 180.887 125.834 180.287 125.241C180.073 125.185 180.143 125.18 179.719 125.137C179.37 125.16 179.408 124.666 179.318 125.444L178.969 125.466L178.868 124.982C178.584 124.93 178.624 125.559 178.392 125.223L177.806 124.84L177.561 124.295C177.173 124.811 176.761 123.855 176.819 124.763C176.456 124.576 176.605 124.707 176.405 124.86C176.36 124.162 175.652 124.067 175.652 124.067C174.951 122.99 176.521 115.804 176.911 114.236L178.828 105.905L180.7 99.0499C180.93 98.2634 181.804 94.4191 182.234 93.4794C182.604 92.6839 182.685 91.7668 182.84 90.915C183.039 89.6396 183.446 88.3506 184.068 87.118C184.251 86.6853 184.864 85.313 185.357 85.3513L185.454 85.7659L185.72 85.5383L185.97 86.1534C185.995 85.4504 186.624 85.4098 186.533 86.1872C186.847 85.6058 186.896 86.3742 187.004 85.8762L187.241 86.2818C187.311 86.2773 187.854 84.9095 188.052 85.8085C188.095 85.3849 188.69 85.9077 188.834 85.9685C188.908 86.0338 189.114 85.9504 189.114 85.9504C189.118 86.0203 188.836 87.0907 189.19 87.138C189.195 87.2078 189.499 86.4867 189.992 86.525C190.346 86.5723 190.085 86.8698 190.085 86.8698C190.229 86.9306 190.43 86.7773 190.499 86.7728L190.959 87.3745L191.16 87.2212C191.117 87.6449 191.405 87.7665 191.502 88.1811L191.092 90.5224L190.135 94.1617C189.457 95.6084 188.47 99.8809 188.071 101.31C187.672 102.738 187.348 104.232 186.884 105.735L185.832 110.082L185.728 110.65L185.019 113.782L184.98 114.276C184.277 116.425 183.998 118.618 183.509 120.824C183.457 121.108 182.994 124.786 182.514 124.957C182.518 125.027 182.092 123.862 182.047 125.338ZM194.694 125.503C194.428 125.731 193.991 125.478 193.851 125.487C193.781 125.492 192.535 124.66 192.4 124.739C192.4 124.739 192.292 125.237 191.981 124.766L191.841 124.775L191.785 124.989L191.447 124.099L190.766 124.424L190.478 124.302L190.509 124.791L189.928 124.478C189.709 124.352 189.896 123.989 189.277 124.169C189.112 122.707 189.66 121.409 190.203 120.041C191.87 115.444 194.423 110.439 196.662 106.016C199.575 100.076 204.728 89.712 209.417 85.2004C210.141 84.4522 211.4 83.3187 212.489 83.8797C212.392 83.4651 212.694 83.7964 212.964 83.6386L212.772 83.9316C213.135 84.1186 213.471 83.8864 213.685 83.9428C214.393 84.0374 219.012 86.0538 219.612 86.6464C221.419 88.564 221.836 93.9382 221.933 96.5274C222.051 98.3436 221.888 100.178 222.006 101.994L222.15 102.055L223.425 102.253L223.159 102.481C223.844 102.226 223.531 102.807 223.867 102.575C223.815 102.859 223.881 102.785 224.099 102.911L223.428 103.375C223.698 103.218 224.69 103.364 224.768 103.499C224.847 103.634 224.856 103.774 224.935 103.909C225.014 104.044 225.456 104.367 225.46 104.437C225.395 104.511 225.185 104.524 225.19 104.594C225.199 104.734 225.352 104.935 225.282 104.939C225.287 105.009 224.793 104.971 224.951 105.241C225.846 104.973 225.715 105.122 225.751 105.68C225.767 107.012 225.902 106.933 225.985 107.138C225.994 107.278 225.774 108.204 225.708 108.279C225.452 108.646 223.863 109.029 223.383 109.2C223.043 109.363 222.986 109.577 222.698 109.455L222.781 109.66L222.628 109.459C222.515 109.888 222.069 109.496 222.301 109.831C221.957 109.924 221.808 109.793 221.761 110.147C221.63 114.645 221.702 117.937 221.847 122.347C221.52 122.718 221.306 122.662 220.943 122.475C221.124 123.095 218.733 124.091 218.665 123.043L218.483 123.476C218.656 122.903 217.973 122.106 218.032 123.014C217.744 122.892 217.818 122.958 217.766 123.241L217.329 122.989L217.221 123.487C216.946 123.575 216.955 121.54 216.662 121.349L215.61 121.346C215.614 121.416 215.45 122.128 215.143 121.727C215.069 121.662 214.823 118.942 214.796 118.523C214.638 116.078 214.277 114.839 214.124 112.464L207.445 115.49C206.895 115.666 206.355 115.982 205.94 116.079L205.521 116.106L205.325 116.329L204.714 116.649L204.221 116.611C204.016 116.694 204.099 116.899 203.68 116.926C202.916 117.046 203.103 116.683 203.033 116.687L202.544 116.719C201.893 116.41 201.679 116.354 201.289 115.748C201.21 115.613 201.179 115.124 200.834 115.216C199.59 117.681 198.973 118.984 197.869 121.44L197.812 121.654L196.479 124.897L196.395 124.692L196.087 125.343C195.613 124.532 195.737 125.366 195.611 125.584L195.196 125.681C194.987 125.695 194.782 125.778 194.782 125.778L194.694 125.503ZM214.788 104.284C214.79 101.057 215.063 97.6725 214.781 94.3939C214.704 93.2063 214.553 91.9535 214.267 90.7795C213.983 90.7277 213.922 90.8719 213.857 90.9463C213.334 91.5412 212.32 93.22 211.811 94.0245C209.639 97.3213 208.1 100.647 206.286 104.061C205.978 104.713 205.608 105.508 205.221 106.024L205.103 106.382L204.725 107.038C204.664 107.182 203.659 109.001 203.733 109.066L214.788 104.284ZM257.078 124.491C257.069 124.351 256.99 124.216 256.911 124.081C256.53 123.614 256.702 124.094 256.492 124.108C255.981 123.79 256.111 123.641 256.071 123.012L255.753 123.524L255.582 123.044C255.228 122.997 255.534 123.398 255.185 123.42C254.836 123.443 254.944 122.945 254.579 123.81L254.04 123.073L253.779 123.371C253.236 118.215 254.159 112.965 255.166 107.919C256.376 101.668 257.944 95.5346 259.507 89.331L251.312 91.684C251.127 90.9945 251.089 91.488 250.739 91.5105C250.32 91.5376 250.228 91.1928 250.079 91.0622L249.025 89.9378C248.583 89.6156 248.382 89.7688 248.382 89.7688C248.234 89.6381 248.551 89.1266 248.001 89.3024L248.188 88.9396C248.04 88.8089 248.074 88.2456 247.925 88.1149C247.697 87.849 247.292 88.0856 247.539 87.5786L246.71 87.7724C247.172 87.3217 246.861 86.8508 246.624 86.4452C247.24 86.195 247.418 85.6925 248.098 85.368C248.643 85.1223 249.473 84.9285 250.088 84.6783C253.792 83.3869 257.664 82.5056 261.46 81.5589C261.373 81.284 261.69 80.7725 261.729 80.279C261.897 79.6368 261.852 78.9382 262.267 78.8413C262.402 78.7624 262.751 78.7399 262.76 78.8796C262.835 78.9449 262.779 79.159 262.853 79.2244L263.114 78.9269C263.067 79.2807 263.328 78.9832 263.403 79.0486C263.547 79.1094 263.491 79.3235 263.709 79.4496C263.923 79.506 264.194 79.3482 264.264 79.3437C264.268 79.4136 264.164 79.9814 264.448 80.0332C264.802 80.0805 264.48 78.3477 265.185 79.4946L265.377 79.2017C265.465 79.4766 266.177 79.641 266.26 79.8461C266.339 79.9813 266.082 80.3486 266.156 80.4139C266.305 80.5446 266.636 80.2426 266.776 80.2336C268.653 79.9721 274.672 78.6715 276.006 79.7779C276.155 79.9086 276.168 80.1181 276.247 80.2533C276.252 80.3232 276.387 80.2443 276.461 80.3096C276.54 80.4448 275.968 80.2714 276.488 80.7288C276.786 80.9901 277.135 80.9676 277.423 81.0892C277.935 81.4069 278.208 82.3714 278.453 82.9167C278.541 83.1916 279.082 82.8761 278.145 83.5679C278.298 83.7685 278.861 83.8022 278.94 83.9374C279.023 84.1425 278.967 84.3565 279.046 84.4917C279.055 84.6315 279.26 84.5481 279.339 84.6833C279.427 84.9582 279.224 86.1637 279.098 86.3823C278.967 86.5311 278.282 86.7857 278.278 86.7159C278.208 86.7204 278.334 86.5018 278.19 86.441C277.757 86.2585 277.859 86.7429 277.789 86.7475C277.584 86.8308 277.282 86.4996 277.282 86.4996C276.29 86.3532 273.994 86.6418 272.951 86.7793C272.047 86.9078 271.157 87.2459 270.244 87.2347L271.274 86.8876L272.732 86.6531L272.514 86.527L267.52 87.4106L267.673 87.6111L269.686 87.2707L270.044 87.3879L267.477 87.8342C267.342 87.9131 267.173 88.5553 267.117 88.7694C266.198 91.9152 265.445 95.4711 264.675 98.7475C262.744 106.869 261.028 115.046 260.517 123.427L260.014 123.249C260.102 123.524 259.748 123.476 259.748 123.476C259.687 123.621 259.85 123.961 259.64 123.974L259.426 123.918C259.194 123.582 258.788 123.819 258.955 124.229C258.565 123.623 258.173 124.069 258.173 124.069C257.959 124.013 257.918 123.384 257.583 123.616C257.583 123.616 257.666 123.821 257.605 123.966C257.47 124.044 257.112 123.927 257.112 123.927C257.051 124.071 257.288 124.477 257.078 124.491ZM292.62 121.143C292.262 121.026 291.908 120.979 291.554 120.931C286.77 119.627 283.573 118.992 280.943 114.111C275.586 103.935 279.389 88.9589 286.926 80.7562C288.764 78.8136 291.829 76.3009 294.535 75.8456C294.95 75.7487 295.234 75.8005 295.592 75.9176L295.653 75.7734C296.038 76.3097 296.579 75.9942 297.147 76.0978C297.57 76.1406 298.357 76.3704 298.72 76.5574C299.083 76.7444 299.603 77.2018 299.682 77.337C299.756 77.4023 300.184 77.515 300.259 77.5803C300.696 77.8327 301.453 78.6957 301.555 79.1801C301.564 79.3199 301.728 80.7823 301.658 80.7868C301.555 81.3547 301.323 81.0189 301.253 81.0234L300.908 81.1158C300.633 81.2037 300.52 81.6319 300.424 81.2173L300.302 81.5057L300.144 81.2353L299.883 81.5328C299.716 81.1227 299.371 81.2151 299.074 80.9537C298.93 80.8929 298.977 80.5391 298.729 81.0461C298.278 80.5842 298.38 81.0687 298.175 81.1521C298.109 81.2264 298.021 80.9515 297.882 80.9605C297.882 80.9605 297.681 81.1138 297.607 81.0484C297.537 81.053 297.65 80.6248 297.305 80.7172C297.235 80.7217 297.244 80.8614 297.244 80.8614C297.104 80.8705 297.048 81.0845 296.838 81.0981L295.43 82.1009C290.286 86.0807 286.591 94.0354 285.857 100.045C285.444 103.439 285.596 106.866 286.511 110.174L286.876 111.483C287.293 112.509 287.723 113.743 288.35 114.755C289.143 116.177 289.794 116.486 291.509 115.884C298.098 113.635 302.401 104.238 303.257 97.9394C303.566 95.1137 303.509 90.9787 301.675 88.6421C300.839 87.6439 299.23 86.6255 297.875 86.292L297.936 86.1478C297.778 85.8774 297.578 86.0307 297.578 86.0307C297.573 85.9608 297.639 85.8865 297.634 85.8166C297.63 85.7467 297.132 85.6386 297.057 85.5733C296.974 85.3682 297.321 84.2235 297.452 84.0747C297.093 83.9576 297.634 83.6421 297.839 83.5587C298.389 83.3829 298.752 83.5699 299.25 83.678L298.957 83.4865C299.087 83.3378 299.455 83.5947 299.664 83.5811C302.835 83.7972 304.597 85.0162 306.972 87.0373C308.167 88.1527 308.872 89.2996 309.828 91.0617L310.082 91.7467C310.328 92.292 310.456 93.1956 310.646 93.955C310.519 94.1736 310.603 94.3786 310.621 94.658C310.822 96.6793 310.608 98.7975 310.306 100.641C310.25 100.855 310.351 101.339 310.076 101.427L310.22 101.488C309.95 101.646 310.168 101.772 310.117 102.056C309.792 103.55 309.15 105.555 308.546 107.068L307.634 109.231C306.564 111.124 305.498 113.087 303.939 115.011C303.547 115.457 303.159 115.973 302.623 116.359C302.632 116.498 302.832 116.345 302.832 116.345C303.098 116.117 303.285 115.755 303.56 115.667C303.107 116.257 302.454 117.001 301.922 117.456C301.064 118.283 299.315 119.448 298.159 120.014L295.899 120.861L295.135 120.981C294.231 121.109 293.375 120.884 292.458 120.803L292.62 121.143ZM320.084 121.544C319.782 121.213 319.298 121.314 319.293 121.244L319.275 120.965C319.205 120.97 319.009 121.193 318.721 121.071L318.615 120.517C318.196 120.544 318.245 121.312 317.702 120.505C317.75 120.152 317.308 119.829 317.312 119.899C316.623 120.084 317.202 119.275 317.197 119.205C316.835 119.018 316.884 119.787 316.684 119.94C316.549 120.019 315.575 120.152 315.37 120.235C315.095 120.323 315.192 120.738 314.838 120.69L314.811 120.271C314.597 120.215 314.755 120.485 314.685 120.49C314.187 120.382 314.054 119.408 314.027 118.989C315.638 110.257 318.458 101.798 320.497 93.1785C320.891 91.68 323.532 80.4264 323.076 79.8947L322.369 79.8001C322.299 79.8046 322.326 80.2237 321.814 79.906C321.452 79.719 321.652 79.5658 321.648 79.4959C321.499 79.3652 320.136 78.8921 319.838 78.6307C319.471 78.3739 319.514 77.9502 319.43 77.7452C319.036 77.0692 317.896 76.7921 317.785 76.1679C317.706 76.0327 317.907 75.8795 317.898 75.7398C317.814 75.5347 317.587 75.2688 317.634 74.915L316.699 74.5546C316.881 74.1219 317.12 73.4752 316.618 73.2972C317.555 72.6053 317.528 72.1862 318.725 72.2492C320.489 72.4159 323.482 73.1345 325.334 73.5761C330.532 74.7835 336.545 76.64 340.696 80.0896C342.848 81.9147 346.767 87.2032 347.017 89.9928C347.026 90.1325 346.825 90.2858 346.904 90.421L347.17 90.1934C347.116 91.5296 347.761 92.8208 347.772 94.0827C348.104 102.479 338.883 109.598 332.649 114.069C328.69 116.85 324.512 119.504 320.084 121.544ZM323.306 110.604C323.446 110.595 323.259 110.958 323.328 110.953C323.547 111.079 327.026 108.47 327.497 108.159C331.251 105.461 334.511 102.725 337.885 99.5613C338.02 99.4824 338.006 99.2728 338.076 99.2683C338.141 99.1939 338.421 99.1759 338.364 99.39L335.92 101.722C335.785 101.801 335.64 101.74 335.728 102.015C335.99 101.718 336.866 101.17 337.058 100.877L338.378 99.5995C338.579 99.4463 339.62 98.1866 339.68 98.0424C339.915 97.3258 338.443 99.5252 338.464 98.7523C340.377 96.8751 342.283 93.8058 342.526 91.0545C342.825 88.089 341.394 86.568 338.99 85.1801C336.437 83.6615 333.492 82.5891 330.569 81.8659C329.801 86.2646 329.028 90.5934 327.976 94.9402C327.444 97.5699 326.712 100.353 326.041 102.992C325.989 103.276 325.78 103.289 325.784 103.359C325.719 103.433 325.838 104.197 325.717 104.486C325.656 104.63 325.442 104.574 325.372 104.578C325.376 104.648 325.525 104.779 325.53 104.848C325.534 104.918 325.212 105.36 325.212 105.36C325.156 105.574 325.149 106.557 324.903 106.011L326.71 99.2307C327.884 94.5954 328.988 89.9647 329.659 85.1514L329.58 85.0162C329.206 85.7418 328.512 90.2058 328.309 91.4114C326.895 97.7457 325.056 104.037 323.497 110.311L323.209 110.189L323.058 111.111L323.306 110.604ZM366.704 116.359C366.346 116.242 365.992 116.194 365.638 116.147C360.854 114.843 357.657 114.207 355.027 109.327C349.67 99.1509 353.473 84.1747 361.01 75.9719C362.848 74.0294 365.913 71.5167 368.619 71.0613C369.034 70.9644 369.318 71.0162 369.676 71.1334L369.737 70.9892C370.122 71.5254 370.663 71.2099 371.231 71.3135C371.654 71.3563 372.441 71.5861 372.804 71.7731C373.166 71.9601 373.687 72.4175 373.766 72.5527C373.84 72.6181 374.268 72.7307 374.343 72.7961C374.78 73.0484 375.537 73.9114 375.639 74.3959C375.648 74.5356 375.812 75.998 375.742 76.0025C375.639 76.5704 375.407 76.2347 375.337 76.2392L374.992 76.3316C374.717 76.4195 374.604 76.8476 374.508 76.433L374.386 76.7215L374.228 76.4511L373.967 76.7485C373.8 76.3384 373.455 76.4308 373.158 76.1695C373.013 76.1086 373.061 75.7548 372.813 76.2619C372.362 75.8 372.464 76.2844 372.259 76.3678C372.193 76.4422 372.105 76.1673 371.966 76.1763C371.966 76.1763 371.765 76.3295 371.691 76.2642C371.621 76.2687 371.734 75.8406 371.389 75.933C371.319 75.9375 371.328 76.0772 371.328 76.0772C371.188 76.0862 371.132 76.3003 370.922 76.3138L369.514 77.3167C364.37 81.2964 360.675 89.2511 359.941 95.2609C359.528 98.6545 359.68 102.082 360.595 105.39L360.96 106.699C361.377 107.724 361.807 108.959 362.434 109.971C363.227 111.393 363.878 111.701 365.593 111.1C372.182 108.85 376.485 99.4534 377.341 93.1552C377.65 90.3294 377.593 86.1945 375.759 83.8578C374.923 82.8596 373.314 81.8412 371.959 81.5078L372.02 81.3636C371.862 81.0932 371.662 81.2464 371.662 81.2464C371.657 81.1766 371.723 81.1022 371.718 81.0323C371.714 80.9625 371.216 80.8544 371.141 80.789C371.058 80.584 371.405 79.4392 371.535 79.2905C371.177 79.1733 371.718 78.8578 371.923 78.7744C372.473 78.5986 372.836 78.7857 373.334 78.8938L373.041 78.7023C373.171 78.5535 373.539 78.8104 373.748 78.7969C376.919 79.013 378.681 80.232 381.056 82.2531C382.251 83.3684 382.956 84.5154 383.911 86.2774L384.166 86.9625C384.412 87.5078 384.54 88.4114 384.73 89.1707C384.603 89.3893 384.687 89.5944 384.705 89.8738C384.906 91.8951 384.692 94.0133 384.39 95.8565C384.333 96.0706 384.435 96.5551 384.16 96.643L384.304 96.7038C384.034 96.8616 384.252 96.9877 384.201 97.2717C383.876 98.7657 383.234 100.771 382.63 102.283L381.718 104.447C380.648 106.339 379.582 108.302 378.023 110.227C377.631 110.673 377.243 111.189 376.707 111.574C376.716 111.714 376.916 111.561 376.916 111.561C377.182 111.333 377.369 110.97 377.644 110.882C377.191 111.473 376.538 112.217 376.006 112.672C375.148 113.499 373.399 114.664 372.243 115.23L369.983 116.077L369.219 116.196C368.315 116.325 367.459 116.1 366.542 116.019L366.704 116.359Z" fill="#CC0000"/>
</svg>
