<svg width="385" height="143" viewBox="0 0 385 143" fill="none" xmlns="http://www.w3.org/2000/svg">
<path d="M45.1059 72.4039C44.8039 72.0727 44.0355 72.1223 43.6164 72.1494C43.4068 72.1629 43.1409 72.3905 43.1409 72.3905C43.0711 72.395 42.2486 71.6064 42.0345 71.5501C41.8903 71.4892 41.6153 71.5771 41.4756 71.5862C41.4058 71.5907 41.3923 71.3811 41.3923 71.3811C41.3224 71.3856 41.2007 71.6741 41.061 71.6831C40.7861 71.771 40.8154 71.1378 40.4977 71.6493C40.4932 71.5795 40.1777 71.0387 40.1731 70.9688C40.1033 70.9733 39.7766 71.3451 39.727 70.5767C39.684 68.8259 41.4933 65.342 42.2976 63.6767C43.3634 61.714 44.5733 59.812 45.4948 57.7885C45.3235 57.3085 45.0351 57.1868 44.8683 56.7767C44.6272 56.3013 44.8795 55.8641 44.2689 56.1841L44.2373 55.6951L43.7483 55.7267L43.3066 55.4045L43.8767 54.4558L43.3877 54.4874L43.4215 53.924L43.0023 53.9511C43.4733 53.6401 42.8446 53.6807 42.6913 53.4802C42.5471 53.4193 42.6778 53.2706 42.6733 53.2008C42.6688 53.1309 42.4592 53.1444 42.4592 53.1444C42.4592 53.1444 43.0699 52.8244 42.6935 52.4278L42.3397 52.3805C44.6809 50.616 47.8807 50.1989 50.6861 49.1059C53.5543 44.6417 56.4181 40.1078 59.5748 35.7653C62.0826 32.2363 68.2653 23.7002 72.407 22.6611C73.0267 22.4808 73.5292 22.6588 74.1533 22.5483C73.9934 23.3302 74.6604 22.7962 75.0096 22.7736C75.5685 22.7375 78.1825 24.1119 78.703 24.5693C79.9582 25.5404 80.7132 27.4558 80.8823 28.9881C81.5023 33.1568 81.097 37.7424 81.0138 41.8864C81.5118 41.9945 81.3857 42.2131 81.4645 42.3483C81.5389 42.4137 81.744 42.3303 81.744 42.3303C81.8228 42.4655 81.7665 42.6795 81.771 42.7494C81.8544 42.9544 82.1113 42.5871 81.8026 43.2384L82.1519 43.2158L82.375 43.4118L82.0573 43.9234L83.202 44.2703C83.1908 45.1829 84.0652 45.6877 83.0579 46.384C83.6348 46.6273 83.779 46.6882 83.894 47.3822C83.9864 47.727 83.7837 48.9325 83.5088 49.0204C83.4434 49.0948 83.2249 48.9686 83.1595 49.043C83.0896 49.0475 83.1685 49.1827 82.9635 49.2661C82.2694 49.3811 81.4131 49.1558 80.8205 49.7552L80.5668 64.2918C80.506 64.436 79.4627 64.5735 79.2576 64.6569C79.0571 64.8101 78.8836 65.3825 78.8836 65.3825C78.674 65.396 78.1309 64.5894 77.4595 65.0536C77.2544 65.137 77.4257 65.617 77.1418 65.5651C76.8533 65.4435 76.8263 65.0244 76.8263 65.0244C76.8217 64.9545 76.6167 65.0379 76.4634 64.8373C76.2268 64.4318 76.3868 63.6498 76.1591 63.3839C76.1546 63.3141 75.5597 62.7913 75.4899 62.7958C75.2014 62.6742 74.5818 62.8545 74.433 62.7238C73.8336 62.1312 74.1146 52.3628 74.0199 50.8958C74.0109 50.7561 73.5264 50.8576 73.3867 50.8666C71.3001 51.1416 67.9967 52.1266 65.8583 52.6855C63.1002 53.4248 58.5394 54.4909 56.0833 55.5615L55.6033 55.7327L54.7111 57.1231C52.4038 60.4988 50.2386 64.9877 48.2852 68.4107C48.0283 68.778 47.3185 69.7358 47.4155 70.1504C47.42 70.2202 47.6295 70.2067 47.634 70.2766C47.6521 70.556 47.2871 71.4213 47.1699 71.7796L47.0077 71.4393C47.0077 71.4393 46.8252 71.872 46.6201 71.9554C46.6201 71.9554 45.7999 72.2889 45.5904 72.3025C45.4506 72.3115 45.3335 72.6698 45.2321 72.1853L45.1059 72.4039ZM74.1253 42.7521C74.1501 42.0491 74.1793 41.4159 74.0689 40.7917L73.9831 39.4644C74.044 39.3202 74.6456 38.8605 74.3346 38.3896L74.0642 38.5473L74.0683 32.0936L73.7099 29.802C72.6644 30.9918 71.4138 32.2651 70.3774 33.5946C68.0994 36.3371 65.7223 39.7173 63.8814 42.7122C63.3069 43.5911 62.8112 44.6051 62.311 45.5493L74.1253 42.7521ZM90.0161 69.1529C89.8021 69.0966 89.89 69.3715 89.7503 69.3805C89.5362 69.3242 89.3559 68.7045 89.4032 68.3508L89.1508 68.7879C89.0111 68.797 88.9931 68.5175 88.8534 68.5266C88.6393 68.4702 88.3869 68.9074 88.29 68.4928L88.1165 69.0652C87.6276 69.0967 87.8438 68.1007 87.1768 68.6348C87.1654 65.1984 87.3591 63.8531 87.4829 62.5124C87.8478 59.4725 88.5709 56.5499 89.1454 53.4965C89.1318 53.2869 88.3364 52.9174 88.0997 52.5118C88.0209 52.3766 87.8315 51.6173 87.8315 51.6173C87.5994 51.2815 86.8963 51.2568 86.7859 50.6326L87.214 50.7452C87.214 50.7452 86.5966 49.8732 86.6574 49.729C86.6529 49.6591 87.5767 48.7577 87.6466 48.7532C88.1964 48.5774 89.4989 49.1948 90.2628 49.0753C91.5919 43.5882 93.2839 38.2882 95.0457 32.9836C95.28 32.267 96.8008 28.6615 96.634 28.2514C96.5551 28.1162 96.4109 28.0554 96.332 27.9202C96.2306 27.4357 97.2987 26.5951 97.6299 26.2932C97.7606 26.1444 97.8777 25.7861 98.0783 25.6329C98.1391 25.4887 98.8106 25.0244 98.8331 25.3737C101.244 23.6047 103.887 22.1713 106.864 21.5582C109.98 20.9361 112.741 21.319 115.325 23.3266C117.906 25.2644 119.97 28.9891 120.374 31.9793C120.556 33.7211 120.272 35.8438 119.599 37.3604L119.506 37.0156C119.337 37.6579 119.033 38.379 118.79 38.9558C115.09 46.8406 105.149 53.6555 96.656 55.7472C96.4464 55.7607 96.2279 55.6345 96.0228 55.7179C95.1352 59.3527 94.322 63.0528 93.7184 68.9138L93.2069 68.5961L93.2249 68.8756C92.932 68.684 93.0244 69.0288 92.9027 69.3172L92.6706 68.9815L92.558 69.4096L92.1434 69.5066C91.7535 68.9004 91.7107 69.3241 91.4268 69.2723C91.2871 69.2813 91.2735 69.0717 91.1338 69.0807C90.9242 69.0943 90.7463 69.5968 90.7192 69.1777L90.3271 69.6239L90.0161 69.1529ZM98.3275 46.871C98.5415 46.9273 98.537 46.8575 98.5934 46.6434C98.884 45.7127 99.0304 44.7212 99.3954 43.8559C99.6049 43.8424 99.4788 44.0609 99.4134 44.1353C99.3098 44.7032 99.0102 45.4941 99.0372 45.9133C99.0462 46.053 98.7376 46.7042 98.8728 46.6253C99.6276 46.3661 101.119 45.5684 101.861 45.0996C107.077 42.2375 114.396 36.0831 114.53 29.4806C114.553 27.6554 113.505 27.7231 111.973 27.8922C111.763 27.9057 111.213 28.0815 111.074 28.0905C110.934 28.0995 111.06 27.881 110.92 27.89C110.851 27.8945 110.929 28.0297 110.864 28.1041C110.655 28.1176 110.366 27.9959 110.161 28.0793L110.422 27.7818C108.895 28.0208 107.311 28.4738 105.884 29.1973L104.192 30.1483C104.066 30.3669 103.967 31.0046 103.701 31.2322C103.403 30.9708 104.131 30.2925 103.66 30.6035C101.619 35.9261 99.8662 41.3704 98.3275 46.871ZM122.155 70.0937L121.839 69.5529L121.443 69.9293C121.123 69.3186 121.24 68.9603 121.269 68.3271C120.974 69.1879 120.501 68.3767 119.89 68.6968C119.55 68.859 119.268 69.9294 119.178 68.5323L119.052 68.7509L118.563 68.7825C118.741 68.28 118.565 67.7301 118.603 67.2366C118.693 66.4592 119.049 65.4542 119.214 64.7421C121.354 52.2583 124.778 40.1123 129.636 28.435C129.814 27.9325 130.152 26.648 130.702 26.4722L131.051 26.4497L131.684 26.479C131.889 26.3956 132.772 24.8655 132.964 24.5725C135.755 21.0954 140.954 15.7793 145.92 16.6511C146.344 16.6939 146.79 17.0859 147.205 16.989C147.275 16.9845 147.196 16.8493 147.265 16.8448C147.335 16.8403 147.637 17.1715 147.978 17.0092L147.856 17.2977C148.131 17.2098 148.694 17.2435 148.843 17.3742C148.913 17.3697 148.782 17.5184 148.856 17.5838C149.219 17.7708 150.141 17.9217 150.648 18.1696C150.866 18.2957 152.638 19.6544 152.647 19.7941L152.446 19.9474C152.726 19.9293 153.019 20.1208 153.172 20.3214C154.069 21.1753 154.779 22.3921 155.218 23.7667C156.435 27.4058 153.855 31.9916 151.726 34.8648C151.469 35.2321 150.437 36.6315 150.171 36.8591C149.775 37.2355 149.818 36.8118 150.009 36.5189C150.201 36.2259 150.545 36.1335 150.606 35.9893C150.672 35.9149 151.046 35.1893 151.102 34.9752C151.167 34.9009 151.381 34.9572 151.447 34.8828L152.138 33.6457C152.199 33.5015 152.413 33.5578 152.479 33.4834C152.988 32.6789 153.727 31.088 154.092 30.2227C154.279 29.8599 154.826 28.5619 154.804 28.2126C154.86 27.9985 154.795 28.0729 154.655 28.0819C154.687 28.5709 154.454 28.2352 154.319 28.314C154.254 28.3884 154.342 28.6633 154.058 28.6115C154.022 28.0527 154.619 27.5231 154.373 26.9778C154.2 27.5502 153.639 28.6386 153.605 29.2019C153.492 29.6301 153.997 28.7557 153.993 28.6859C154.029 29.2447 153.58 29.905 153.332 30.412C150.462 35.9285 145.104 42.0264 140.081 45.7178C139.61 46.0288 136.501 47.8429 136.514 48.0525C136.519 48.1224 136.742 48.3184 136.812 48.3139C137.096 48.3657 140.579 45.8259 141.116 45.4406C143.116 43.8383 144.964 42.0355 146.956 40.2935C146.843 40.7216 146.377 41.1025 145.915 41.5532C143.867 43.5092 141.465 45.418 139.189 47.1082C138.988 47.2614 137.091 48.2958 137.244 48.4964C142.06 50.2898 143.637 50.8192 148.467 52.8222C149.62 53.3088 154.515 55.2374 155.128 56.0396C155.128 56.0396 155.522 56.7156 155.452 56.7201L155.029 56.6773C155.247 56.8035 155.126 57.0919 155.4 57.004L155.2 57.1572L155.428 57.4231L154.562 57.0581C154.585 57.4074 155.074 57.3758 155.231 57.6462C155.77 58.3831 154.961 57.804 154.607 57.7567C154.756 57.8874 155.43 58.5453 154.806 58.6558L155.317 58.9735C155.27 59.3272 154.916 59.2799 154.855 59.4242C154.855 59.4242 154.995 59.4151 155.074 59.5503C155.272 60.4494 154.569 60.4247 153.871 60.4698C153.74 60.6185 155.205 61.5761 153.934 61.4478C154.463 62.0449 152.976 62.9125 152.622 62.8652C152.408 62.8089 152.036 62.4822 151.822 62.4259C146.894 61.0606 142.038 58.6385 137.222 56.8451C133.77 55.5249 133.491 55.5429 130.043 54.2925C129.838 54.3759 129.847 54.5156 129.786 54.6598C129.121 56.3161 128.986 58.5695 128.322 60.2258L128.051 60.3835L127.211 63.6645C127.155 63.8786 127.326 64.3585 126.986 64.5208C126.887 65.1585 126.022 69.1425 125.751 69.3003C125.616 69.3792 125.463 69.1786 125.323 69.1877L124.302 69.6744C124.167 69.7533 124.246 69.8885 124.111 69.9674C123.976 70.0463 124.027 69.7623 123.888 69.7714C123.674 69.715 122.98 69.83 122.98 69.83C122.905 69.7647 123.027 69.4762 122.817 69.4898C122.718 70.1275 122.385 69.3073 122.155 70.0937ZM132.886 44.0079C137.528 39.8501 140.308 37.2856 142.278 35.1944C143.986 33.4006 145.013 31.9313 146.498 29.9415C146.951 29.3511 147.469 28.6863 147.778 28.035C148.039 27.7376 148.699 26.0114 148.555 25.9506C147.953 26.4103 148.091 27.4536 147.415 27.848C147.962 26.55 148.918 23.9631 148.404 22.5232C148.154 21.9081 147.604 22.0839 147.045 22.12C146.63 22.2169 144.332 23.5578 143.926 23.7944C141.912 25.1871 137.958 30.2124 136.77 32.4636L135.901 34.2033C134.61 37.0223 134.035 40.0757 133.107 43.0818L132.886 44.0079ZM168.793 64.767C168.793 64.767 168.636 64.4967 168.352 64.4448C167.919 64.2623 166.945 64.3954 166.587 64.2782C166.587 64.2782 166.499 64.0033 166.355 63.9425C165.853 63.7645 164.647 63.5617 164.271 63.1652C164.271 63.1652 163.845 62.0002 163.696 61.8695C163.468 61.6036 162.114 61.2702 161.934 60.6506C161.494 57.1015 161.893 53.4983 162.943 50.2038C162.983 50.8325 162.762 51.7587 162.598 52.4707C162.481 52.829 162.289 53.122 162.307 53.4014C162.316 53.5411 162.321 53.611 162.456 53.5321C162.657 53.3788 163.56 48.9013 163.537 48.5521C163.449 48.2771 162.321 49.2619 161.286 49.5392C160.597 49.724 159.788 49.1449 159.788 49.1449C159.788 49.1449 158.711 47.6713 158.427 47.6195C158.357 47.624 158.017 47.7862 158.017 47.7862C158.012 47.7164 158.055 47.2928 157.697 47.1756C157.832 47.0967 158.186 47.144 158.098 46.8691L157.678 46.8962C157.847 46.254 157.442 46.4906 157.442 46.4906C157.442 46.4906 157.568 46.272 157.489 46.1368C157.401 45.8619 156.93 46.1729 157.178 45.6659C156.838 45.8281 156.755 45.6231 156.466 45.5014L156.671 45.418C156.671 45.418 156.495 44.8682 156.612 44.5099L156.189 44.4671C156.66 44.1561 156.637 43.8069 157.108 43.4959C158.661 42.5539 163.927 40.4601 165.689 39.5046C166.029 39.3423 165.801 39.0765 166.374 39.2499L171.297 25.3237C171.078 25.1976 170.954 24.3638 170.81 24.303C170.81 24.303 170.47 24.4652 170.465 24.3954C170.321 24.3346 170.508 23.9718 170.503 23.9019C170.503 23.9019 169.665 23.956 170.625 23.6135L170.406 23.4873C170.244 23.147 170.602 23.2642 170.654 22.9803L170.235 23.0073C170.697 22.5566 169.897 22.1173 169.473 22.0745C169.595 21.786 169.563 21.297 169.908 21.2046C170.039 21.0559 169.271 21.1055 169.536 20.8779C169.793 20.5106 172.472 19.6361 173.018 19.3905C173.126 18.8925 174.223 17.4187 174.638 17.3218C174.913 17.2339 175.354 17.5561 175.163 17.849L175.368 17.7656C175.339 18.3988 175.456 18.0405 175.74 18.0924C175.879 18.0833 175.958 18.2185 176.238 18.2005C177.425 18.1238 180.907 16.6364 182.281 16.1969L187.108 14.9031C188.142 14.6259 192.773 13.5552 193.507 14.069C193.582 14.1343 193.836 14.8193 193.92 15.0244C194.078 15.2948 194.343 15.0672 194.319 15.7702C194.323 15.8401 194.109 15.7838 194.114 15.8536C194.28 16.2637 195.105 16 195.249 16.0608C195.324 16.1262 195.921 17.7711 195.86 17.9153C195.865 17.9852 195.18 18.2399 195.328 18.3706C195.953 18.2601 196.313 19.4994 196.345 19.9884C196.349 20.0583 196.14 20.0718 196.144 20.1417C195.829 21.7754 194.795 22.0526 193.262 22.2217L193.594 21.9197L192.685 21.9784L193.017 21.6764C190.655 22.0393 188.307 22.6119 186.034 23.2497C184.314 23.7816 180.326 25.0212 178.681 25.6185C177.656 28.2099 176.261 33.7713 175.565 34.9386C178.319 34.1295 180.887 32.6308 183.641 31.8217C184.466 31.558 187.224 30.8187 187.819 31.3415L189.004 32.3171L188.664 32.4794L188.774 33.1036L189.613 33.0494C189.901 33.1711 189.788 33.5992 189.863 33.6646C189.863 33.6646 190.57 33.7592 190.086 33.8606C190.016 33.8651 189.788 33.5992 189.885 34.0139C190.304 33.9868 190.275 34.62 190.507 34.9557C189.185 35.1113 190.744 35.3613 190.947 36.3303C191.03 36.5353 190.967 37.7319 190.836 37.8806C190.776 38.0248 190.487 37.9032 190.426 38.0474C190.426 38.0474 190.379 38.4012 190.104 38.4891C190.039 38.5634 189.863 38.0136 189.593 38.1714L189.624 38.6603C189.419 38.7437 189.471 38.4598 189.331 38.4688C189.117 38.4125 188.712 38.6491 188.506 38.7325C187.952 38.8385 187.463 38.87 186.913 39.0458L184.099 39.9992L182.436 40.317C181.14 40.8917 180.063 41.5926 178.544 41.9712L172.271 44.7613C171.39 47.4136 170.514 50.1357 169.847 52.8443C169.734 53.2725 168.757 57.6847 169.041 57.7365C173.263 55.7803 177.157 53.0737 181.384 51.1874C183.43 50.2837 185.873 49.0036 188.018 49.6367L187.822 49.8598L188.311 49.8282L188.264 50.182C188.404 50.1729 188.678 50.085 188.823 50.1459C189.251 50.2585 190.799 51.4212 190.486 52.0026L190.9 51.9056C190.862 52.3991 191.286 52.4419 191.518 52.7776C191.75 53.1134 191.851 53.5979 191.595 53.9652C191.403 54.2581 187.973 55.4616 187.358 55.7118C184.091 57.2556 171.283 65.3077 168.793 64.767ZM200.349 54.5221C199.833 54.1346 199.779 53.2963 198.903 53.844C198.366 54.2293 198.56 55.0585 198.116 53.6142L197.571 53.8598C196.985 53.4768 198.186 47.0861 198.402 46.0901C199.042 42.9624 199.997 38.2009 201.02 34.4873C201.813 31.5601 201.59 31.3641 202.452 28.4324C202.57 28.0741 203.367 25.2167 204.032 25.735C204.176 25.7958 203.942 26.5124 204.521 25.7034L204.352 26.3456C204.636 26.3974 204.665 25.7642 204.954 25.8859C205.028 25.9512 204.845 26.3839 204.78 26.4583L205.246 26.0774C205.382 25.9985 205.548 26.4086 205.618 26.4041C206.182 26.4379 205.922 25.683 206.831 25.6244L207.067 26.03L206.862 26.1134L207.151 26.235C207.171 25.4621 207.52 25.4396 207.786 25.212C207.978 24.919 208.216 24.2723 208.403 23.9095C208.726 23.4678 209.212 22.314 209.769 21.1557C210.147 20.5 210.451 19.7789 210.97 19.1141C211.684 18.2262 212.621 17.5344 213.036 17.4375C213.586 17.2617 213.604 17.5411 213.604 17.5411C213.743 17.5321 214.149 17.2954 214.223 17.3608C214.293 17.3563 214.307 17.5658 214.451 17.6267C214.521 17.6222 214.717 17.3991 214.926 17.3855C216.114 17.3088 218.985 18.3159 219.742 19.1789C221.178 20.7697 221.347 24.4765 221.622 26.5631L222.362 38.0193C222.31 38.3032 222.547 40.8833 222.578 41.3723C222.632 42.2105 222.779 43.3935 223.038 44.1484L225.325 37.1966C227.828 29.2488 228.396 27.1779 229.24 23.9667C229.578 22.6823 231.056 19.5004 232.365 19.1353C232.78 19.0384 233.418 19.1375 233.898 18.9662L233.846 19.2501C233.959 18.822 235.024 19.0337 235.099 19.0991C235.243 19.1599 235.209 19.7233 235.703 19.7615C235.847 19.8224 237.086 19.4618 237.305 19.5879C237.309 19.6578 237.197 20.0859 237.42 20.282C237.573 20.4825 237.909 20.2504 238.053 20.3112C238.621 20.4148 237.488 21.3298 237.431 21.5439C236.512 24.6896 235.298 28.6962 234.009 32.6375C232.781 36.4345 230.905 43.2195 228.773 49.3196C228.113 51.0457 227.266 53.1346 226.015 54.4079C226.015 54.4079 224.546 55.5549 224.341 55.6383C223.927 55.7352 223.843 55.5302 223.629 55.4739C222.861 55.5235 222.421 56.3235 221.534 55.6092C221.017 55.2216 221.074 55.0076 220.348 54.6336C220.278 54.6381 220.195 54.433 220.125 54.4375C220.125 54.4375 219.803 54.8792 219.663 54.8882C219.458 54.9716 218.401 54.8996 218.947 54.6539C219.082 54.575 219.724 54.744 219.553 54.264C219.39 53.9238 218.435 54.3362 218.435 54.3362C218.221 54.2799 217.865 53.1104 217.637 52.8445C217.558 52.7093 217.353 52.7927 217.196 52.5223C217.033 52.1821 217.155 51.8936 217.132 51.5444C217.119 51.3348 216.72 50.589 216.614 50.0346C215.198 43.3219 215.367 36.1561 214.891 32.0483C214.873 31.7688 214.4 26.6086 214.195 26.692C213.755 27.492 213.32 28.3618 212.955 29.2272C211.921 31.6789 211.176 34.2523 210.365 36.9001C210.013 37.975 208.97 40.287 208.519 41.9996C207.614 45.3549 206.843 48.6314 205.645 51.7952C205.523 52.0836 204.872 53.9495 204.737 54.0284C204.667 54.0329 204.383 53.9811 204.178 54.0645C203.977 54.2177 203.93 54.5715 203.86 54.576L202.952 54.6346C202.668 54.5828 202.012 54.2043 201.397 54.4545C201.262 54.5333 201.345 54.7384 201.136 54.7519L200.349 54.5221ZM241.232 57.6339C241.083 57.5032 241.69 57.1134 240.581 57.3253L240.763 56.8926L240.223 57.2081L240.265 56.7845L239.785 56.9557C240.103 56.4442 239.898 56.5276 239.736 56.1873L239.7 55.6285C239.495 55.7119 239.267 55.446 239.053 55.3897C238.629 55.3469 238.796 55.757 239.017 54.8309L238.593 54.7881C238.571 54.4388 239.247 54.0444 239.242 53.9746C239.15 53.6298 238.501 54.4433 238.922 53.3639L238.503 53.391C238.755 52.9538 238.201 53.0598 237.856 53.1522L238.357 52.208L237.868 52.2395C238.251 51.6536 238.931 51.3291 239.393 50.8784C240.988 40.8147 243.369 30.9808 246.104 21.1942C245.187 21.1132 244.195 20.9667 243.287 21.0254L242.631 20.6469C242.487 20.586 242.212 20.6739 242.212 20.6739C242.212 20.6739 242.269 20.4599 242.264 20.39C242.26 20.3201 241.757 20.1422 241.753 20.0723C241.604 19.9416 241.41 19.1124 241.261 18.9817C241.257 18.9118 241.122 18.9907 241.052 18.9952L241.034 18.7158C240.745 18.5941 240.419 18.966 240.723 18.2449L240.304 18.2719C240.905 17.8122 240.569 18.0443 240.542 17.6252C240.538 17.5554 240.948 17.3886 240.939 17.2489L240.655 17.1971L240.781 16.9785C240.236 17.2241 240.563 16.8523 240.13 16.6698L240.261 16.5211L239.492 16.5707C240.103 16.2507 239.303 15.8113 240.137 15.6873C240.049 15.4124 239.513 15.7978 239.625 15.3696C239.686 15.2254 240.711 14.8085 240.842 14.6597C243.278 14.3621 245.768 14.9028 248.226 14.9545C248.609 14.3686 248.699 13.5911 249.529 13.3973C249.529 13.3973 249.538 13.537 249.612 13.6024L249.822 13.5888C249.891 13.5843 249.583 14.2356 250.036 13.6451L250.128 13.9899L250.818 13.8051L251.413 14.3278L251.735 13.8862C251.874 13.8771 251.953 14.0123 252.098 14.0732C252.167 14.0686 252.303 13.9898 252.377 14.0551C252.447 14.0506 252.614 14.4607 252.614 14.4607C252.683 14.4562 252.884 14.303 252.958 14.3683C253.028 14.3638 252.542 15.5175 252.891 15.495C253.105 15.5513 253.222 15.193 253.357 15.1141C253.977 14.9338 253.943 15.4972 254.018 15.5625C254.087 15.558 254.148 15.4138 254.292 15.4746C254.581 15.5963 254.691 16.2205 254.836 16.2813C254.984 16.412 256.841 16.9234 257.204 17.1104C261.163 18.6785 264.014 20.4585 266.213 24.1043C268.728 28.2909 269.062 33.4602 266.967 37.9445C266.41 39.1028 264.772 40.8921 263.862 42.0031C263.601 42.3005 262.532 43.1411 262.406 43.3597C262.411 43.4295 262.494 43.6346 262.424 43.6391C262.429 43.709 261.897 44.1642 261.832 44.2385C261.766 44.3129 261.618 44.1822 261.552 44.2566C261.482 44.2611 261.566 44.4662 261.501 44.5405C261.431 44.545 261.286 44.4842 261.151 44.5631C261.021 44.7118 261.174 44.9124 261.043 45.0611C260.847 45.2842 260.293 45.3901 259.962 45.6921C259.696 45.9197 259.714 46.1991 259.513 46.3524C259.378 46.4312 259.164 46.3749 258.959 46.4583C258.222 46.9969 257.102 48.1214 256.431 48.5857C253.954 50.4291 251.264 52.2162 248.7 53.7847C247.553 54.4901 246.728 54.7538 245.642 55.3149C244.966 55.7093 241.87 57.733 241.376 57.6948L241.232 57.6339ZM248.681 44.8072C253.451 41.553 259.107 37.8909 261.93 32.7283C262.744 31.2027 263.53 29.258 263.417 27.5116C263.253 26.0492 262.121 25.9118 261.094 25.2065C260.875 25.0804 260.499 24.6838 260.28 24.5576C259.55 24.1138 254.516 22.1942 254.115 22.5007L248.681 44.8072ZM280.522 54.0444L275.853 53.4341C275.56 53.2426 275.314 52.6972 274.956 52.5801C274.449 52.3323 274.463 52.5418 273.733 52.0979C271.393 50.6357 272.536 45.5114 272.801 43.1093L273.732 39.0509L273.518 38.9946C273.835 38.483 273.416 38.5101 273.416 38.5101C273.328 38.2352 273.934 37.8453 274.139 37.7619L274.135 37.6921C272.83 38.1271 274.504 36.8966 273.479 37.3135L273.536 37.0995L273.569 36.5361C273.472 36.1215 273.878 35.8849 273.878 35.8849C274.27 35.4387 273.403 36.126 273.52 35.7677C273.698 35.2652 274.396 35.2201 274.784 34.704L277.631 24.4893C277.282 24.5118 277.124 24.2415 277.05 24.1761L276.282 24.2257L276.11 23.7458L275.826 23.694C275.669 23.4236 275.313 22.2541 274.772 22.5696C274.95 22.0671 274.675 22.155 274.675 22.155C274.675 22.155 274.805 22.0062 274.801 21.9364C274.796 21.8665 274.643 21.666 274.643 21.666C274.639 21.5961 275.398 21.4068 274.634 21.5263C274.476 21.2559 274.83 21.3032 274.826 21.2333C274.826 21.2333 274.589 20.8277 274.519 20.8323C274.366 20.6317 273.607 20.821 274.073 20.4402L273.929 20.3794L274.186 20.012L273.888 19.7507C274.359 19.4397 274.76 19.1332 275.306 18.8875C279.616 17.2062 288.1 14.9749 292.647 13.6992C293.751 13.4174 295.881 12.7188 296.942 12.8607C297.222 12.8426 297.296 12.9079 297.436 12.8989L297.249 13.2617L297.528 13.2437L297.472 13.4578L297.742 13.3L297.825 13.5051L297.271 13.611C297.433 13.9513 298.1 13.4172 298.132 13.9061L297.298 14.0301C297.796 14.1383 298.229 14.3208 298.657 14.4334C298.195 14.8841 298.898 14.9088 298.898 14.9088C298.898 14.9088 298.837 15.0531 298.842 15.1229C298.912 15.1184 299.144 15.4542 299.148 15.524C299.153 15.5939 299.013 15.6029 298.948 15.6773C298.265 17.0541 298.754 17.0225 297.837 16.9415L297.86 17.2907C298.274 17.1938 298.558 17.2456 298.982 17.2884L298.799 17.7211C299.302 17.8991 299.063 18.5458 298.723 18.7081C298.871 18.8387 299.011 18.8297 298.75 19.1272C298.423 19.499 297.384 19.7064 296.843 20.0219L295.604 20.3825L291.951 21.39L286.235 23.0218L285.624 23.3418L283.448 30.9178C286.258 29.8946 289.11 28.4478 291.99 27.42C292.47 27.2488 295.01 26.3833 295.303 26.5748L295.111 26.8678L295.465 26.9151L295.758 27.1066C295.553 27.19 294.919 27.1607 294.938 27.4401C295.143 27.3568 295.427 27.4086 295.636 27.395C295.632 27.3252 295.697 27.2508 295.697 27.2508C296.177 27.0795 295.575 27.5393 295.589 27.7488C295.794 27.6654 296.357 27.6992 296.24 28.0575C296.17 28.062 295.882 27.9403 295.965 28.1454C296.319 28.1927 296.957 28.2918 296.341 28.542L296.83 28.5104L296.499 28.8124L296.848 28.7898L296.722 29.0084L297.006 29.0602L296.84 30.8246L297.486 31.0634C296.876 31.3834 297.736 31.6786 297.746 31.8183C297.746 31.8183 297.531 31.762 297.536 31.8318C297.498 32.3253 297.41 32.0504 297.358 32.3343C297.297 32.4786 297.586 32.6002 297.11 32.8414C296.229 33.3191 295.055 33.6054 294.095 33.948C289.785 35.6292 285.636 37.6508 281.558 39.6678C281.296 39.9653 280.524 42.1196 280.424 42.7573C280.048 44.5352 279.611 46.4574 279.663 48.348L280.051 47.8319C280.256 47.7485 280.199 47.9626 280.269 47.9581C280.693 48.0009 286.378 43.7056 287.254 43.1579C288.061 42.6148 290.071 41.1523 290.826 40.8931L291.585 40.7037C291.655 40.6992 293.073 42.0106 293.291 42.1368C294.357 42.3485 294.073 42.2967 294.808 42.8105C294.808 42.8105 294.943 42.7316 295.017 42.7969C295.673 43.1754 296.259 43.5585 295.68 44.3675C294.504 45.7061 289.328 49.1969 287.579 50.362C285.971 51.5181 282.347 54.0669 280.522 54.0444ZM305.612 56.1419C305.721 55.6439 305.394 56.0157 305.11 55.9639C304.612 55.8557 304.673 55.7115 304.785 55.2834C304.432 55.2361 304.463 55.7251 304.463 55.7251C304.463 55.7251 304.179 55.6733 304.04 55.6823C304.04 55.6823 303.708 55.9842 303.629 55.8491C303.56 55.8536 303.542 55.5741 303.542 55.5741C303.318 55.3781 302.712 55.768 302.98 54.488C302.537 55.2182 302.431 54.6638 302.216 54.6075C301.714 54.4295 301.671 54.8532 301.531 54.8622C301.061 55.1732 301.072 54.2606 301.049 53.9113L300.797 54.3485C300.797 54.3485 300.637 52.9559 300.675 52.4624C300.945 50.1301 301.533 47.2863 302.009 44.8707C302.54 42.241 303.216 39.6721 303.752 37.1122C303.739 36.9026 303.455 36.8508 303.371 36.6458C303.024 35.616 305.072 31.4854 305.41 30.201C306.737 25.7662 307.041 20.6961 308.298 16.2659C308.524 15.4096 309.418 12.9669 310.369 14.6591L310.691 14.2174C310.522 14.8596 311.351 14.6658 311.435 14.8709C311.584 15.0015 311.606 15.3508 311.606 15.3508C311.834 15.6167 312.269 14.7469 312.338 14.7424C312.408 14.7378 312.575 15.1479 312.618 14.7243C312.911 14.9158 313.138 15.1817 313.096 15.6053C313.418 15.1637 313.589 15.6436 313.659 15.6391C313.869 15.6256 315.41 13.4217 315.667 13.0544C318.141 10.0888 323.199 4.78174 327.093 4.24969C327.512 4.22263 329.774 4.4974 329.858 4.70245C329.932 4.76779 329.736 4.99089 329.806 4.98638C329.88 5.05172 330.514 5.08098 330.802 5.20264C331.305 5.38063 333.015 6.88352 333.461 7.27559C339.575 13.9655 331.198 27.6237 326.804 33.449C325.768 34.7786 323.719 36.7346 322.962 38.0461C322.897 38.1205 322.827 38.125 322.836 38.2647C325.497 39.2853 328.159 40.306 330.698 41.615C332.154 42.4329 334.392 43.4107 334.849 45.0647L334.487 44.8777C334.221 45.1053 334.714 45.1436 334.719 45.2134L334.881 45.5537C334.908 45.9728 334.922 46.1824 334.498 46.1396C334.647 46.2702 335.172 46.7975 335.129 47.2211C335.133 47.291 334.994 47.3 334.933 47.4442C334.942 47.584 334.865 48.5709 334.795 48.5754C334.735 48.7197 334.18 48.8256 334.18 48.8256C334.054 49.0442 334.491 49.2965 334.505 49.5061L334.298 50.6418L333.883 50.7387C333.682 50.892 333.635 51.2458 333.36 51.3337L332.452 51.3923C332.308 51.3315 332.294 51.1219 332.294 51.1219C331.08 50.7795 329.536 49.6867 328.304 49.0648C326.931 48.452 325 47.8753 323.763 47.1835L323.251 46.8659L321.879 46.253C321.381 46.1449 321.228 45.9443 321.014 45.888C319.366 45.3631 315.29 44.1533 313.6 44.052C312.827 44.0318 311.872 44.4442 311.193 43.7164C311.045 43.5857 310.952 43.2409 311.157 43.1575C310.519 43.0584 310.828 42.4072 310.409 42.4343L307.206 55.8285L307.043 55.4883L306.521 56.0832L306.419 55.5988C306.041 56.2545 306 55.6258 305.612 56.1419ZM314.99 36.2462C320.591 29.5713 326.03 22.5562 328.572 14.1149C328.858 13.1144 329.025 11.35 328.876 11.2193C328.727 11.0886 327.127 12.3844 326.861 12.612C326.39 12.923 325.924 13.3038 325.462 13.7546C323.166 16.2176 320.687 19.1134 318.702 22.0474C317.871 23.2936 316.88 25.3217 316.035 26.3583L315.726 27.0095C315.417 27.6608 314.273 29.4883 313.543 31.219C312.743 32.9541 312.358 34.5924 312.25 35.0904C312.263 35.2999 311.828 36.1698 312.182 36.2171C312.326 36.2779 312.452 36.0593 312.592 36.0503C313.086 36.0886 314.724 36.4738 314.99 36.2462ZM27.2037 139.066C23.9048 140.121 20.3287 140.141 17.1266 139.436C16.9125 139.38 16.5497 139.193 16.3311 139.067L16.4889 139.337C16.419 139.342 16.3537 139.416 16.2838 139.421C16.214 139.425 15.4658 138.702 15.3216 138.641C15.103 138.515 14.4653 138.416 14.3909 138.35C13.8794 138.033 12.0383 136.679 11.6619 136.282C11.2856 135.885 11.7971 136.203 11.6394 135.933C11.3982 135.457 10.8033 134.934 10.5667 134.529C10.0236 133.722 9.46693 132.706 9.26406 131.737C8.98916 131.825 9.13338 131.886 9.14691 132.095C9.55934 133.051 10.134 134.346 10.6817 135.223C10.9093 135.489 11.6349 135.863 11.3825 136.3C10.9183 135.629 10.3234 135.106 9.92898 134.43C8.35145 131.726 7.16365 127.454 7.51265 123.082C7.81435 119.064 8.26027 115.107 8.99696 112.394C10.9254 105.325 15.7064 94.6348 23.228 91.6238C25.0735 90.8733 26.7771 91.1841 28.6203 91.486C28.8344 91.5423 29.0395 91.4589 29.3234 91.5107C31.1712 91.8824 33.0596 92.8828 34.0308 93.8021C35.5925 95.1743 36.2371 96.4655 36.458 97.7138L36.5166 98.6219C36.4085 99.1199 36.6632 99.8049 36.5415 100.093C36.4852 100.307 36.296 101.723 35.7102 103.514L34.7077 106.455C34.5161 106.748 33.8199 107.915 33.7703 107.147C33.6441 107.365 32.7631 107.843 32.6189 107.782L32.6053 107.573C32.6008 107.503 32.3304 107.661 32.256 107.595C32.1862 107.6 32.1772 107.46 32.0329 107.399L30.6786 107.066C30.5434 107.145 30.3564 107.507 30.2032 107.307C30.05 107.106 30.3158 106.879 29.775 107.194L29.9666 106.901L29.5474 106.928L29.5812 106.365L29.3897 106.658C28.8691 106.201 28.7159 106 27.9746 106.469C28.0827 105.971 27.8168 106.198 27.7424 106.133C27.5937 106.002 27.9294 105.77 27.7762 105.57C26.6338 106.345 27.4787 105.308 27.5959 104.95C27.5959 104.95 27.5035 104.605 28.3777 102.935C28.603 102.079 28.9071 101.358 29.0761 100.716C29.2969 99.7896 29.4185 99.5012 29.4613 99.0776C29.5604 98.4398 29.5942 97.8765 29.5626 97.3875C29.4477 96.6935 29.1412 96.2924 28.713 96.1798C28.0708 96.0108 26.7233 96.8694 26.4574 97.097C20.8242 101.108 16.9153 111.181 15.78 117.498C15.361 119.699 14.7685 122.473 14.8701 125.132C15.0077 128.35 15.6389 131.606 16.9843 133.974C17.2998 134.515 18.4514 136.054 19.1544 136.079C19.2243 136.074 20.3419 136.002 20.4771 135.923C23.6589 135.227 27.7845 130.681 29.5781 128.04C31.1192 125.836 31.4279 125.185 31.7974 124.39C32.2413 123.66 32.6761 122.79 33.5751 120.417C33.7012 120.198 33.6742 119.779 34.1541 119.608C34.2285 119.673 35.0668 119.619 35.1411 119.684C35.4678 119.313 35.3642 119.88 35.4386 119.946C35.4386 119.946 36.2498 119.472 36.1552 120.18L36.4166 119.883L36.5135 120.297L36.8357 119.856L36.9191 120.061C36.8312 119.786 37.3247 119.824 37.4035 119.959C37.6221 120.085 37.2954 120.457 37.9015 120.067L37.9219 121.469C38.1224 121.316 38.03 120.971 38.1607 120.822C38.2869 120.604 38.7804 120.642 38.999 120.768C39.1432 120.829 39.1612 121.108 39.1612 121.108C39.2356 121.174 39.3618 120.955 39.4316 120.95C39.506 121.016 39.3934 121.444 39.7201 121.072C39.7562 121.631 40.1753 121.604 40.2903 122.298C40.4278 123.341 39.5738 124.238 39.4837 125.016C39.4973 125.225 39.5852 125.5 39.5897 125.57C39.5897 125.57 39.1525 125.318 39.3418 126.077C38.6299 128.087 37.9764 128.831 37.7286 129.338C37.3501 129.993 37.2983 130.277 35.5475 132.495C34.2497 134.122 32.7986 135.548 31.0591 136.853C30.1217 137.545 28.7472 137.984 27.9405 138.528C27.4696 138.839 28.0239 138.733 27.2037 139.066ZM46.7772 134.926C46.5113 135.154 46.0741 134.901 45.9344 134.91C45.8646 134.915 44.6184 134.084 44.4832 134.162C44.4832 134.162 44.3751 134.66 44.0641 134.189L43.9243 134.198L43.868 134.413L43.53 133.523L42.8495 133.847L42.561 133.725L42.5926 134.214L42.0112 133.901C41.7926 133.775 41.9796 133.412 41.36 133.593C41.1954 132.13 41.7429 130.832 42.2858 129.464C43.9531 124.867 46.5058 119.862 48.7454 115.439C51.6587 109.499 56.8115 99.1351 61.5005 94.6235C62.2238 93.8754 63.4834 92.7418 64.5718 93.3029C64.4748 92.8883 64.7768 93.2195 65.0472 93.0617L64.8557 93.3547C65.2185 93.5417 65.5542 93.3096 65.7683 93.3659C66.4759 93.4605 71.0954 95.477 71.6949 96.0696C73.5022 97.9871 73.9194 103.361 74.0165 105.951C74.1338 107.767 73.9716 109.601 74.0889 111.417L74.2331 111.478L75.5086 111.676L75.2427 111.904C75.9277 111.649 75.6145 112.231 75.9503 111.998C75.8984 112.282 75.9638 112.208 76.1824 112.334L75.5109 112.798C75.7813 112.641 76.7728 112.787 76.8517 112.922C76.9305 113.057 76.9396 113.197 77.0184 113.332C77.0973 113.468 77.539 113.79 77.5435 113.86C77.4782 113.934 77.2686 113.948 77.2731 114.017C77.2821 114.157 77.4354 114.358 77.3655 114.362C77.37 114.432 76.8765 114.394 77.0343 114.664C77.9289 114.396 77.7982 114.545 77.8343 115.103C77.8501 116.435 77.9853 116.356 78.0687 116.561C78.0777 116.701 77.857 117.627 77.7916 117.702C77.5348 118.069 75.9461 118.452 75.4662 118.623C75.1259 118.786 75.0696 119 74.7812 118.878L74.8646 119.083L74.7113 118.883C74.5987 119.311 74.1525 118.919 74.3846 119.254C74.0398 119.347 73.8911 119.216 73.8438 119.57C73.7134 124.068 73.7857 127.36 73.9302 131.77C73.6035 132.142 73.3894 132.085 73.0266 131.898C73.2069 132.518 70.8161 133.514 70.7485 132.466L70.566 132.899C70.7395 132.327 70.0566 131.529 70.1153 132.437C69.8268 132.315 69.9012 132.381 69.8494 132.665L69.4122 132.412L69.3041 132.91C69.0292 132.998 69.0381 130.963 68.7451 130.772L67.6928 130.77C67.6973 130.839 67.5328 131.552 67.2264 131.15C67.152 131.085 66.9062 128.365 66.8791 127.946C66.7213 125.501 66.3606 124.262 66.2073 121.887L59.5284 124.914C58.9786 125.089 58.4378 125.405 58.0232 125.502L57.6041 125.529L57.408 125.752L56.7974 126.072L56.3039 126.034C56.0989 126.117 56.1822 126.322 55.7631 126.349C54.9992 126.469 55.1862 126.106 55.1164 126.11L54.6274 126.142C53.9762 125.833 53.7621 125.777 53.3722 125.171C53.2933 125.036 53.2618 124.547 52.917 124.639C51.6733 127.104 51.0559 128.407 49.9519 130.863L49.8956 131.077L48.5618 134.32L48.4784 134.115L48.1698 134.766C47.6965 133.955 47.8205 134.789 47.6943 135.007L47.2797 135.104C47.0701 135.118 46.8651 135.201 46.8651 135.201L46.7772 134.926ZM66.8715 113.707C66.8735 110.48 67.146 107.096 66.8641 103.817C66.7874 102.629 66.6364 101.377 66.3501 100.203C66.0662 100.151 66.0054 100.295 65.94 100.369C65.4173 100.964 64.4033 102.643 63.8941 103.448C61.7221 106.744 60.1832 110.071 58.3695 113.485C58.0608 114.136 57.6913 114.931 57.3037 115.447L57.1866 115.806L56.8081 116.461C56.7472 116.606 55.7423 118.424 55.8167 118.489L66.8715 113.707ZM120.246 135.232C119.935 134.761 119.367 134.658 119.06 134.257C117.69 132.591 117.638 126.352 117.699 124.033C117.667 117.021 118.477 110.024 118.804 103.128C118.856 102.844 118.896 101.299 118.822 101.233C118.677 101.172 117.111 104.079 116.985 104.298C114.858 108.293 112.946 112.345 110.819 116.34L106.612 123.977C106.49 124.266 106.272 124.14 106.141 124.288C106.006 124.367 105.884 124.656 105.749 124.735C105.413 124.967 104.347 124.755 103.937 124.922C103.728 124.935 103.266 125.386 103.266 125.386L103.034 125.05C102.964 125.055 102.702 125.352 102.698 125.282C102.698 125.282 102.754 125.068 102.68 125.003L102.4 125.021C102.173 124.755 102.36 124.392 102.047 124.974L101.884 124.633C101.702 125.066 101.208 125.028 100.947 125.325C100.915 124.836 100.487 124.724 100.068 124.751L100.014 123.912C99.9172 123.498 99.7256 123.791 99.5814 123.73C99.4327 123.599 99.0652 121.168 99.0382 120.749C98.4812 115.383 98.7491 109.755 98.5414 104.367L98.1246 105.516L97.897 105.25C97.9286 105.739 97.3405 106.408 97.2932 106.762C97.2369 106.976 97.4419 106.893 97.4464 106.963C97.4554 107.102 97.1896 107.33 97.1287 107.474L96.0292 110C93.2084 116.285 90.881 122.608 88.1391 129.028C87.7696 129.824 87.4091 130.759 86.9652 131.489C86.9044 131.633 86.8526 131.917 86.7872 131.992C86.6566 132.14 86.5078 132.01 86.3726 132.089C86.3073 132.163 85.6066 133.26 85.4916 132.566L85.0297 133.017L84.9328 132.602L84.6151 133.114C84.4708 133.053 84.7277 132.686 84.7232 132.616C84.5046 132.49 84.1577 133.635 84.0607 133.22C84.0562 133.15 84.2523 132.927 84.0382 132.871C83.61 132.758 83.5627 133.112 83.4929 133.116C83.2743 132.99 83.3824 132.492 83.0039 133.148L82.9813 132.799L82.5059 133.04L82.2647 132.564L82.0034 132.862L81.9808 132.512C81.7622 132.386 81.8546 132.731 81.7848 132.736C81.7149 132.74 81.5662 132.609 81.431 132.688C81.2958 132.767 81.3184 133.116 81.1133 133.2C81.2733 132.418 80.737 132.803 80.7054 132.314C80.4913 132.258 80.6446 132.458 80.5094 132.537C80.0204 132.569 80.3426 132.127 80.2502 131.782L79.6778 131.609C80.1667 129.403 81.0138 127.314 81.6514 125.239C82.9874 120.944 84.1138 116.662 85.4543 112.437C86.04 110.645 86.6033 108.505 87.3332 106.774C87.5675 106.057 88.0069 105.257 88.6085 104.798C88.6401 105.287 88.897 104.919 88.897 104.919L89.3995 105.097C89.7961 104.721 89.5235 105.931 90.0282 105.057C90.2468 105.183 90.1431 105.751 90.0823 105.895C90.2874 105.812 90.4834 105.589 90.5442 105.444C91.3013 104.133 91.9997 101.913 92.6779 100.466C94.086 97.2891 95.8209 93.7399 97.5919 90.7496C97.9141 90.3079 99.115 88.2663 99.6874 88.4398C99.8316 88.5006 99.6401 88.7935 99.8451 88.7101C99.9488 88.1423 100.116 88.5524 100.185 88.5479C100.33 88.6087 100.456 88.3901 100.605 88.5208L101.01 88.2842C101.215 88.2008 101.098 88.5591 101.103 88.6289C101.251 88.7596 101.359 88.2616 101.355 88.1918C101.425 88.1873 101.713 88.3089 101.857 88.3698C102.346 88.3382 102.189 88.0678 102.779 88.5207C102.853 88.586 102.932 88.7212 102.932 88.7212C103.007 88.7866 102.98 88.3674 103.198 88.4936L103.318 89.2575L103.784 88.8767C104.649 89.2416 105.375 89.6157 105.643 90.5102C106.105 92.234 105.74 95.2739 105.862 97.1599C105.885 97.5092 106.063 97.0067 106.085 97.356C106.02 97.4303 105.876 97.3695 105.885 97.5092C105.777 98.0072 106.04 98.8319 105.797 99.4088L106.016 99.535C105.732 99.4832 105.786 100.321 105.799 100.531L105.761 103.199C105.766 103.269 105.635 103.418 105.639 103.487L105.653 103.697L105.69 112.954C105.737 112.6 106.129 112.154 106.181 111.87C106.289 111.372 106.109 110.752 106.077 110.263L106.234 104.01L106.457 93.3337L106.594 94.377L106.363 111.437C109.238 105.991 111.89 100.348 114.765 94.9015C116.2 92.1433 117.944 88.7338 119.603 86.1716C119.733 86.0229 120.504 84.9209 120.574 84.9164C120.713 84.9074 121.225 85.2251 121.43 85.1417C121.919 85.1101 121.887 84.6211 122.077 85.3805C122.365 85.5022 122.674 84.8509 122.744 84.8464L123.656 84.8576C124.08 84.9004 124.81 85.3443 124.632 85.8468C124.637 85.9167 125.033 85.5403 125.103 85.5358C125.173 85.5313 126.113 85.9616 126.187 86.027L126.804 86.899C127.143 87.7891 126.958 91.4486 126.899 92.715C126.458 101.091 125.388 109.507 125.087 117.874C124.961 120.267 125.036 122.507 125.045 124.821L124.808 124.416C124.761 124.769 124.919 125.04 124.941 125.389L125.025 127.769L125.27 130.488L125.518 132.156C125.773 132.841 126.07 133.102 125.766 133.823L125.059 133.729C125.068 133.869 125.095 134.288 125.025 134.292C124.759 134.52 124.299 133.918 124.563 134.743C124.205 134.626 123.283 134.475 122.952 134.777C122.817 134.856 122.83 135.065 122.76 135.07C122.625 135.149 122.402 134.953 122.258 134.892C122.188 134.896 122.053 134.975 121.983 134.98C121.843 134.989 121.598 134.443 121.453 134.383C121.183 134.54 121.411 134.806 121.411 134.806C121.341 134.811 121.039 134.479 120.969 134.484C120.755 134.428 120.773 134.707 120.773 134.707C120.703 134.712 120.48 134.516 120.345 134.594C120.349 134.664 120.446 135.079 120.246 135.232ZM142.603 133.087C141.621 133.08 140.839 132.92 139.922 132.839C139.638 132.787 138.227 132.668 138.083 132.607C137.794 132.486 137.26 131.819 136.906 131.771C136.692 131.715 136.659 132.278 136.386 131.314L136.125 131.611C135.888 131.206 135.744 131.145 135.782 130.651C135.403 131.307 135.455 131.023 135.21 130.478L135.023 130.841L134.795 130.575L134.272 131.17L133.86 130.214L133.529 130.516C133.269 129.761 133.639 128.966 133.589 128.198C133.571 127.918 133.215 126.749 133.211 126.679C133.262 126.395 134.017 126.136 134.065 125.782C136.82 115.222 139.575 104.663 142.544 94.1598L142.461 93.9547L139.142 95.7824L138.574 95.6788C137.884 95.8636 138.076 95.5706 137.923 95.3701C137.923 95.3701 137.373 95.5459 137.63 95.1786L137.28 95.2011C137.524 94.6243 137.179 94.7167 137.03 94.586L136.422 93.8537C136.278 93.7928 135.768 94.5973 136.041 93.3872L135.617 93.3445C136.032 93.2475 135.744 93.1259 135.73 92.9163C135.782 92.6324 136.174 92.1862 135.572 92.6459L135.597 91.9429L135.261 92.175C135.085 91.6252 134.973 92.0533 134.479 92.015L134.761 90.9447L134.477 90.8929C134.398 90.7577 134.529 90.6089 134.529 90.6089C135.169 89.6557 139.941 87.5237 141.167 86.9535C142.118 86.4712 144.252 85.8424 144.993 85.3737C145.194 85.2204 145.18 85.0109 145.311 84.8621C145.572 84.5647 145.735 84.9049 145.804 84.9004C146.163 85.0176 147.729 84.2851 148.209 84.1138C153.838 82.2071 161.902 80.0028 166.632 84.818C167.98 86.1339 169.111 88.4458 169.443 90.3183C169.912 93.2342 164.632 97.2928 162.487 98.8343C161.14 99.6929 159.718 100.486 158.44 101.34L158.672 101.676L159.305 101.705C159.375 101.701 159.245 101.849 159.249 101.919C159.328 102.055 161.802 103.438 162.17 103.695C167.977 107.809 171.254 115.103 166.975 121.622C164.481 125.361 161.554 126.742 157.833 128.877C157.698 128.955 157.577 129.244 157.376 129.397C156.63 129.796 154.566 130.42 153.676 130.758C152.921 131.018 152.157 131.137 151.402 131.396L151.905 131.574C148.872 132.401 145.756 133.024 142.603 133.087ZM142.082 126.106C146.391 125.477 150.598 124.364 154.545 122.495C158.633 120.618 164.243 116.257 163.63 111.106C163.387 109.508 162.959 109.396 161.652 108.709C161.289 108.522 160.721 108.418 160.284 108.166C160.14 108.105 160.34 107.952 159.693 107.713C158.186 107.179 156.077 107.105 154.461 107.069L154.797 106.836C153.74 106.764 152.618 106.767 151.574 106.904C151.016 106.94 149.283 107.263 148.877 107.499C148.737 107.508 148.751 107.718 148.611 107.727C148.546 107.801 147.437 108.013 147.367 108.018C147.223 107.957 147.065 107.687 146.869 107.91L142.082 126.106ZM149.53 98.0577C151.898 96.7122 154.341 95.4322 156.63 93.9516C158.784 92.5498 161.069 90.9994 162.628 89.0749L161.991 88.9758L162.047 88.7617L157.315 89.3479C156.664 89.0392 157.581 89.1203 157.772 88.8273C155.699 89.3119 153.608 89.5171 151.697 90.342C150.952 92.9154 150.136 95.4933 149.53 98.0577ZM180.047 125.338C179.916 125.486 178.887 125.834 178.287 125.241C178.073 125.185 178.143 125.18 177.719 125.137C177.37 125.16 177.408 124.666 177.318 125.444L176.969 125.466L176.868 124.982C176.584 124.93 176.624 125.559 176.392 125.223L175.806 124.84L175.561 124.295C175.173 124.811 174.761 123.855 174.819 124.763C174.456 124.576 174.605 124.707 174.405 124.86C174.36 124.162 173.652 124.067 173.652 124.067C172.951 122.99 174.521 115.804 174.911 114.236L176.828 105.905L178.7 99.0499C178.93 98.2634 179.804 94.4191 180.234 93.4794C180.604 92.6839 180.685 91.7668 180.84 90.915C181.039 89.6396 181.446 88.3506 182.068 87.118C182.251 86.6853 182.864 85.313 183.357 85.3513L183.454 85.7659L183.72 85.5383L183.97 86.1534C183.995 85.4504 184.624 85.4098 184.533 86.1872C184.847 85.6058 184.896 86.3742 185.004 85.8762L185.241 86.2818C185.311 86.2773 185.854 84.9095 186.052 85.8085C186.095 85.3849 186.69 85.9077 186.834 85.9685C186.908 86.0338 187.114 85.9504 187.114 85.9504C187.118 86.0203 186.836 87.0907 187.19 87.138C187.195 87.2078 187.499 86.4867 187.992 86.525C188.346 86.5723 188.085 86.8698 188.085 86.8698C188.229 86.9306 188.43 86.7773 188.499 86.7728L188.959 87.3745L189.16 87.2212C189.117 87.6449 189.405 87.7665 189.502 88.1811L189.092 90.5224L188.135 94.1617C187.457 95.6084 186.47 99.8809 186.071 101.31C185.672 102.738 185.348 104.232 184.884 105.735L183.832 110.082L183.728 110.65L183.019 113.782L182.98 114.276C182.277 116.425 181.998 118.618 181.509 120.824C181.457 121.108 180.994 124.786 180.514 124.957C180.518 125.027 180.092 123.862 180.047 125.338ZM192.694 125.503C192.428 125.731 191.991 125.478 191.851 125.487C191.781 125.492 190.535 124.66 190.4 124.739C190.4 124.739 190.292 125.237 189.981 124.766L189.841 124.775L189.785 124.989L189.447 124.099L188.766 124.424L188.478 124.302L188.509 124.791L187.928 124.478C187.709 124.352 187.896 123.989 187.277 124.169C187.112 122.707 187.66 121.409 188.203 120.041C189.87 115.444 192.423 110.439 194.662 106.016C197.575 100.076 202.728 89.712 207.417 85.2004C208.141 84.4522 209.4 83.3187 210.489 83.8797C210.392 83.4651 210.694 83.7964 210.964 83.6386L210.772 83.9316C211.135 84.1186 211.471 83.8864 211.685 83.9428C212.393 84.0374 217.012 86.0538 217.612 86.6464C219.419 88.564 219.836 93.9382 219.933 96.5274C220.051 98.3436 219.888 100.178 220.006 101.994L220.15 102.055L221.425 102.253L221.159 102.481C221.844 102.226 221.531 102.807 221.867 102.575C221.815 102.859 221.881 102.785 222.099 102.911L221.428 103.375C221.698 103.218 222.69 103.364 222.768 103.499C222.847 103.634 222.856 103.774 222.935 103.909C223.014 104.044 223.456 104.367 223.46 104.437C223.395 104.511 223.185 104.524 223.19 104.594C223.199 104.734 223.352 104.935 223.282 104.939C223.287 105.009 222.793 104.971 222.951 105.241C223.846 104.973 223.715 105.122 223.751 105.68C223.767 107.012 223.902 106.933 223.985 107.138C223.994 107.278 223.774 108.204 223.708 108.279C223.452 108.646 221.863 109.029 221.383 109.2C221.043 109.363 220.986 109.577 220.698 109.455L220.781 109.66L220.628 109.459C220.515 109.888 220.069 109.496 220.301 109.831C219.957 109.924 219.808 109.793 219.761 110.147C219.63 114.645 219.702 117.937 219.847 122.347C219.52 122.718 219.306 122.662 218.943 122.475C219.124 123.095 216.733 124.091 216.665 123.043L216.483 123.476C216.656 122.903 215.973 122.106 216.032 123.014C215.744 122.892 215.818 122.958 215.766 123.241L215.329 122.989L215.221 123.487C214.946 123.575 214.955 121.54 214.662 121.349L213.61 121.346C213.614 121.416 213.45 122.128 213.143 121.727C213.069 121.662 212.823 118.942 212.796 118.523C212.638 116.078 212.277 114.839 212.124 112.464L205.445 115.49C204.895 115.666 204.355 115.982 203.94 116.079L203.521 116.106L203.325 116.329L202.714 116.649L202.221 116.611C202.016 116.694 202.099 116.899 201.68 116.926C200.916 117.046 201.103 116.683 201.033 116.687L200.544 116.719C199.893 116.41 199.679 116.354 199.289 115.748C199.21 115.613 199.179 115.124 198.834 115.216C197.59 117.681 196.973 118.984 195.869 121.44L195.812 121.654L194.479 124.897L194.395 124.692L194.087 125.343C193.613 124.532 193.737 125.366 193.611 125.584L193.196 125.681C192.987 125.695 192.782 125.778 192.782 125.778L192.694 125.503ZM212.788 104.284C212.79 101.057 213.063 97.6725 212.781 94.3939C212.704 93.2063 212.553 91.9535 212.267 90.7795C211.983 90.7277 211.922 90.8719 211.857 90.9463C211.334 91.5412 210.32 93.22 209.811 94.0245C207.639 97.3213 206.1 100.647 204.286 104.061C203.978 104.713 203.608 105.508 203.221 106.024L203.103 106.382L202.725 107.038C202.664 107.182 201.659 109.001 201.733 109.066L212.788 104.284ZM255.078 124.491C255.069 124.351 254.99 124.216 254.911 124.081C254.53 123.614 254.702 124.094 254.492 124.108C253.981 123.79 254.111 123.641 254.071 123.012L253.753 123.524L253.582 123.044C253.228 122.997 253.534 123.398 253.185 123.42C252.836 123.443 252.944 122.945 252.579 123.81L252.04 123.073L251.779 123.371C251.236 118.215 252.159 112.965 253.166 107.919C254.376 101.668 255.944 95.5346 257.507 89.331L249.312 91.684C249.127 90.9945 249.089 91.488 248.739 91.5105C248.32 91.5376 248.228 91.1928 248.079 91.0622L247.025 89.9378C246.583 89.6156 246.382 89.7688 246.382 89.7688C246.234 89.6381 246.551 89.1266 246.001 89.3024L246.188 88.9396C246.04 88.8089 246.074 88.2456 245.925 88.1149C245.697 87.849 245.292 88.0856 245.539 87.5786L244.71 87.7724C245.172 87.3217 244.861 86.8508 244.624 86.4452C245.24 86.195 245.418 85.6925 246.098 85.368C246.643 85.1223 247.473 84.9285 248.088 84.6783C251.792 83.3869 255.664 82.5056 259.46 81.5589C259.373 81.284 259.69 80.7725 259.729 80.279C259.897 79.6368 259.852 78.9382 260.267 78.8413C260.402 78.7624 260.751 78.7399 260.76 78.8796C260.835 78.9449 260.779 79.159 260.853 79.2244L261.114 78.9269C261.067 79.2807 261.328 78.9832 261.403 79.0486C261.547 79.1094 261.491 79.3235 261.709 79.4496C261.923 79.506 262.194 79.3482 262.264 79.3437C262.268 79.4136 262.164 79.9814 262.448 80.0332C262.802 80.0805 262.48 78.3477 263.185 79.4946L263.377 79.2017C263.465 79.4766 264.177 79.641 264.26 79.8461C264.339 79.9813 264.082 80.3486 264.156 80.4139C264.305 80.5446 264.636 80.2426 264.776 80.2336C266.653 79.9721 272.672 78.6715 274.006 79.7779C274.155 79.9086 274.168 80.1181 274.247 80.2533C274.252 80.3232 274.387 80.2443 274.461 80.3096C274.54 80.4448 273.968 80.2714 274.488 80.7288C274.786 80.9901 275.135 80.9676 275.423 81.0892C275.935 81.4069 276.208 82.3714 276.453 82.9167C276.541 83.1916 277.082 82.8761 276.145 83.5679C276.298 83.7685 276.861 83.8022 276.94 83.9374C277.023 84.1425 276.967 84.3565 277.046 84.4917C277.055 84.6315 277.26 84.5481 277.339 84.6833C277.427 84.9582 277.224 86.1637 277.098 86.3823C276.967 86.5311 276.282 86.7857 276.278 86.7159C276.208 86.7204 276.334 86.5018 276.19 86.441C275.757 86.2585 275.859 86.7429 275.789 86.7475C275.584 86.8308 275.282 86.4996 275.282 86.4996C274.29 86.3532 271.994 86.6418 270.951 86.7793C270.047 86.9078 269.157 87.2459 268.244 87.2347L269.274 86.8876L270.732 86.6531L270.514 86.527L265.52 87.4106L265.673 87.6111L267.686 87.2707L268.044 87.3879L265.477 87.8342C265.342 87.9131 265.173 88.5553 265.117 88.7694C264.198 91.9152 263.445 95.4711 262.675 98.7475C260.744 106.869 259.028 115.046 258.517 123.427L258.014 123.249C258.102 123.524 257.748 123.476 257.748 123.476C257.687 123.621 257.85 123.961 257.64 123.974L257.426 123.918C257.194 123.582 256.788 123.819 256.955 124.229C256.565 123.623 256.173 124.069 256.173 124.069C255.959 124.013 255.918 123.384 255.583 123.616C255.583 123.616 255.666 123.821 255.605 123.966C255.47 124.044 255.112 123.927 255.112 123.927C255.051 124.071 255.288 124.477 255.078 124.491ZM290.62 121.143C290.262 121.026 289.908 120.979 289.554 120.931C284.77 119.627 281.573 118.992 278.943 114.111C273.586 103.935 277.389 88.9589 284.926 80.7562C286.764 78.8136 289.829 76.3009 292.535 75.8456C292.95 75.7487 293.234 75.8005 293.592 75.9176L293.653 75.7734C294.038 76.3097 294.579 75.9942 295.147 76.0978C295.57 76.1406 296.357 76.3704 296.72 76.5574C297.083 76.7444 297.603 77.2018 297.682 77.337C297.756 77.4023 298.184 77.515 298.259 77.5803C298.696 77.8327 299.453 78.6957 299.555 79.1801C299.564 79.3199 299.728 80.7823 299.658 80.7868C299.555 81.3547 299.323 81.0189 299.253 81.0234L298.908 81.1158C298.633 81.2037 298.52 81.6319 298.424 81.2173L298.302 81.5057L298.144 81.2353L297.883 81.5328C297.716 81.1227 297.371 81.2151 297.074 80.9537C296.93 80.8929 296.977 80.5391 296.729 81.0461C296.278 80.5842 296.38 81.0687 296.175 81.1521C296.109 81.2264 296.021 80.9515 295.882 80.9605C295.882 80.9605 295.681 81.1138 295.607 81.0484C295.537 81.053 295.65 80.6248 295.305 80.7172C295.235 80.7217 295.244 80.8614 295.244 80.8614C295.104 80.8705 295.048 81.0845 294.838 81.0981L293.43 82.1009C288.286 86.0807 284.591 94.0354 283.857 100.045C283.444 103.439 283.596 106.866 284.511 110.174L284.876 111.483C285.293 112.509 285.723 113.743 286.35 114.755C287.143 116.177 287.794 116.486 289.509 115.884C296.098 113.635 300.401 104.238 301.257 97.9394C301.566 95.1137 301.509 90.9787 299.675 88.6421C298.839 87.6439 297.23 86.6255 295.875 86.292L295.936 86.1478C295.778 85.8774 295.578 86.0307 295.578 86.0307C295.573 85.9608 295.639 85.8865 295.634 85.8166C295.63 85.7467 295.132 85.6386 295.057 85.5733C294.974 85.3682 295.321 84.2235 295.452 84.0747C295.093 83.9576 295.634 83.6421 295.839 83.5587C296.389 83.3829 296.752 83.5699 297.25 83.678L296.957 83.4865C297.087 83.3378 297.455 83.5947 297.664 83.5811C300.835 83.7972 302.597 85.0162 304.972 87.0373C306.167 88.1527 306.872 89.2996 307.828 91.0617L308.082 91.7467C308.328 92.292 308.456 93.1956 308.646 93.955C308.519 94.1736 308.603 94.3786 308.621 94.658C308.822 96.6793 308.608 98.7975 308.306 100.641C308.25 100.855 308.351 101.339 308.076 101.427L308.22 101.488C307.95 101.646 308.168 101.772 308.117 102.056C307.792 103.55 307.15 105.555 306.546 107.068L305.634 109.231C304.564 111.124 303.498 113.087 301.939 115.011C301.547 115.457 301.159 115.973 300.623 116.359C300.632 116.498 300.832 116.345 300.832 116.345C301.098 116.117 301.285 115.755 301.56 115.667C301.107 116.257 300.454 117.001 299.922 117.456C299.064 118.283 297.315 119.448 296.159 120.014L293.899 120.861L293.135 120.981C292.231 121.109 291.375 120.884 290.458 120.803L290.62 121.143ZM318.084 121.544C317.782 121.213 317.298 121.314 317.293 121.244L317.275 120.965C317.205 120.97 317.009 121.193 316.721 121.071L316.615 120.517C316.196 120.544 316.245 121.312 315.702 120.505C315.75 120.152 315.308 119.829 315.312 119.899C314.623 120.084 315.202 119.275 315.197 119.205C314.835 119.018 314.884 119.787 314.684 119.94C314.549 120.019 313.575 120.152 313.37 120.235C313.095 120.323 313.192 120.738 312.838 120.69L312.811 120.271C312.597 120.215 312.755 120.485 312.685 120.49C312.187 120.382 312.054 119.408 312.027 118.989C313.638 110.257 316.458 101.798 318.497 93.1785C318.891 91.68 321.532 80.4264 321.076 79.8947L320.369 79.8001C320.299 79.8046 320.326 80.2237 319.814 79.906C319.452 79.719 319.652 79.5658 319.648 79.4959C319.499 79.3652 318.136 78.8921 317.838 78.6307C317.471 78.3739 317.514 77.9502 317.43 77.7452C317.036 77.0692 315.896 76.7921 315.785 76.1679C315.706 76.0327 315.907 75.8795 315.898 75.7398C315.814 75.5347 315.587 75.2688 315.634 74.915L314.699 74.5546C314.881 74.1219 315.12 73.4752 314.618 73.2972C315.555 72.6053 315.528 72.1862 316.725 72.2492C318.489 72.4159 321.482 73.1345 323.334 73.5761C328.532 74.7835 334.545 76.64 338.696 80.0896C340.848 81.9147 344.767 87.2032 345.017 89.9928C345.026 90.1325 344.825 90.2858 344.904 90.421L345.17 90.1934C345.116 91.5296 345.761 92.8208 345.772 94.0827C346.104 102.479 336.883 109.598 330.649 114.069C326.69 116.85 322.512 119.504 318.084 121.544ZM321.306 110.604C321.446 110.595 321.259 110.958 321.328 110.953C321.547 111.079 325.026 108.47 325.497 108.159C329.251 105.461 332.511 102.725 335.885 99.5613C336.02 99.4824 336.006 99.2728 336.076 99.2683C336.141 99.1939 336.421 99.1759 336.364 99.39L333.92 101.722C333.785 101.801 333.64 101.74 333.728 102.015C333.99 101.718 334.866 101.17 335.058 100.877L336.378 99.5995C336.579 99.4463 337.62 98.1866 337.68 98.0424C337.915 97.3258 336.443 99.5252 336.464 98.7523C338.377 96.8751 340.283 93.8058 340.526 91.0545C340.825 88.089 339.394 86.568 336.99 85.1801C334.437 83.6615 331.492 82.5891 328.569 81.8659C327.801 86.2646 327.028 90.5934 325.976 94.9402C325.444 97.5699 324.712 100.353 324.041 102.992C323.989 103.276 323.78 103.289 323.784 103.359C323.719 103.433 323.838 104.197 323.717 104.486C323.656 104.63 323.442 104.574 323.372 104.578C323.376 104.648 323.525 104.779 323.53 104.848C323.534 104.918 323.212 105.36 323.212 105.36C323.156 105.574 323.149 106.557 322.903 106.011L324.71 99.2307C325.884 94.5954 326.988 89.9647 327.659 85.1514L327.58 85.0162C327.206 85.7418 326.512 90.2058 326.309 91.4114C324.895 97.7457 323.056 104.037 321.497 110.311L321.209 110.189L321.058 111.111L321.306 110.604ZM364.704 116.359C364.346 116.242 363.992 116.194 363.638 116.147C358.854 114.843 355.657 114.207 353.027 109.327C347.67 99.1509 351.473 84.1747 359.01 75.9719C360.848 74.0294 363.913 71.5167 366.619 71.0613C367.034 70.9644 367.318 71.0162 367.676 71.1334L367.737 70.9892C368.122 71.5254 368.663 71.2099 369.231 71.3135C369.654 71.3563 370.441 71.5861 370.804 71.7731C371.166 71.9601 371.687 72.4175 371.766 72.5527C371.84 72.6181 372.268 72.7307 372.343 72.7961C372.78 73.0484 373.537 73.9114 373.639 74.3959C373.648 74.5356 373.812 75.998 373.742 76.0025C373.639 76.5704 373.407 76.2347 373.337 76.2392L372.992 76.3316C372.717 76.4195 372.604 76.8476 372.508 76.433L372.386 76.7215L372.228 76.4511L371.967 76.7485C371.8 76.3384 371.455 76.4308 371.158 76.1695C371.013 76.1086 371.061 75.7548 370.813 76.2619C370.362 75.8 370.464 76.2844 370.259 76.3678C370.193 76.4422 370.105 76.1673 369.966 76.1763C369.966 76.1763 369.765 76.3295 369.691 76.2642C369.621 76.2687 369.734 75.8406 369.389 75.933C369.319 75.9375 369.328 76.0772 369.328 76.0772C369.188 76.0862 369.132 76.3003 368.922 76.3138L367.514 77.3167C362.37 81.2964 358.675 89.2511 357.941 95.2609C357.528 98.6545 357.68 102.082 358.595 105.39L358.96 106.699C359.377 107.724 359.807 108.959 360.434 109.971C361.227 111.393 361.878 111.701 363.593 111.1C370.182 108.85 374.485 99.4534 375.341 93.1552C375.65 90.3294 375.593 86.1945 373.759 83.8578C372.923 82.8596 371.314 81.8412 369.959 81.5078L370.02 81.3636C369.862 81.0932 369.662 81.2464 369.662 81.2464C369.657 81.1766 369.723 81.1022 369.718 81.0323C369.714 80.9625 369.216 80.8544 369.141 80.789C369.058 80.584 369.405 79.4392 369.535 79.2905C369.177 79.1733 369.718 78.8578 369.923 78.7744C370.473 78.5986 370.836 78.7857 371.334 78.8938L371.041 78.7023C371.171 78.5535 371.539 78.8104 371.748 78.7969C374.919 79.013 376.681 80.232 379.056 82.2531C380.251 83.3684 380.956 84.5154 381.911 86.2774L382.166 86.9625C382.412 87.5078 382.54 88.4114 382.73 89.1707C382.603 89.3893 382.687 89.5944 382.705 89.8738C382.906 91.8951 382.692 94.0133 382.39 95.8565C382.333 96.0706 382.435 96.5551 382.16 96.643L382.304 96.7038C382.034 96.8616 382.252 96.9877 382.201 97.2717C381.876 98.7657 381.234 100.771 380.63 102.283L379.718 104.447C378.648 106.339 377.582 108.302 376.023 110.227C375.631 110.673 375.243 111.189 374.707 111.574C374.716 111.714 374.916 111.561 374.916 111.561C375.182 111.333 375.369 110.97 375.644 110.882C375.191 111.473 374.538 112.217 374.006 112.672C373.148 113.499 371.399 114.664 370.243 115.23L367.983 116.077L367.219 116.196C366.315 116.325 365.459 116.1 364.542 116.019L364.704 116.359Z" fill="#CC0000"/>
</svg>
