<svg width="48" height="48" viewBox="0 0 48 48" fill="none" xmlns="http://www.w3.org/2000/svg">
<path d="M12 14C12 11.3478 13.0536 8.8043 14.9289 6.92893C16.8043 5.05357 19.3478 4 22 4C24.6522 4 27.1957 5.05357 29.0711 6.92893C30.9464 8.8043 32 11.3478 32 14C32 16.6522 30.9464 19.1957 29.0711 21.0711C27.1957 22.9464 24.6522 24 22 24C19.3478 24 16.8043 22.9464 14.9289 21.0711C13.0536 19.1957 12 16.6522 12 14ZM9.644 29.344C12.85 27.388 17.21 26 22 26C22.8947 26 23.772 26.0467 24.632 26.14C24.9755 26.1769 25.3037 26.3021 25.5844 26.5035C25.8652 26.7049 26.089 26.9755 26.234 27.2891C26.379 27.6027 26.4403 27.9486 26.4119 28.2929C26.3835 28.6373 26.2664 28.9684 26.072 29.254C24.7174 31.2425 23.9952 33.5939 24 36C24 37.84 24.414 39.58 25.15 41.134C25.2934 41.4367 25.3585 41.7706 25.3392 42.1051C25.32 42.4395 25.217 42.7638 25.0399 43.048C24.8627 43.3323 24.6169 43.5676 24.3252 43.7322C24.0334 43.8967 23.705 43.9854 23.37 43.99L22 44C17.542 44 13.33 43.72 10.174 42.884C8.604 42.468 7.126 41.872 6.006 40.972C4.82 40.02 4 38.69 4 37C4 35.426 4.716 33.954 5.688 32.722C6.676 31.472 8.042 30.322 9.644 29.342V29.344ZM34 42C34.0001 41.5101 34.1799 41.0373 34.5054 40.6713C34.8309 40.3052 35.2795 40.0713 35.766 40.014L36.004 40C36.5138 40.0006 37.0041 40.1958 37.3747 40.5457C37.7454 40.8956 37.9685 41.3739 37.9983 41.8828C38.0282 42.3917 37.8626 42.8928 37.5355 43.2837C37.2083 43.6746 36.7442 43.9258 36.238 43.986L36 44C35.4696 44 34.9609 43.7893 34.5858 43.4142C34.2107 43.0391 34 42.5304 34 42ZM35.134 32.5C35.2441 32.3094 35.414 32.1604 35.6173 32.0762C35.8207 31.9919 36.0462 31.9771 36.2588 32.0341C36.4714 32.0911 36.6593 32.2166 36.7933 32.3913C36.9273 32.5659 37 32.7799 37 33C37 33.27 36.904 33.51 36.358 33.96L36.068 34.188L35.848 34.352C35.7 34.462 35.524 34.592 35.362 34.724L35.084 34.956C34.6458 35.3304 34.3099 35.8101 34.108 36.35C33.9443 36.828 33.9676 37.3501 34.1732 37.8116C34.3787 38.2731 34.7513 38.6397 35.2161 38.8378C35.6808 39.0358 36.2033 39.0507 36.6786 38.8793C37.1538 38.708 37.5466 38.3631 37.778 37.914L37.972 37.76L38.686 37.22L38.9 37.048L39.262 36.732C40.074 35.984 41 34.796 41 33C41.0008 31.9001 40.6388 30.8306 39.9702 29.9572C39.3016 29.0839 38.3636 28.4553 37.3017 28.169C36.2397 27.8826 35.1129 27.9545 34.0958 28.3734C33.0788 28.7922 32.2283 29.5348 31.676 30.486C31.4089 30.9446 31.335 31.4904 31.4704 32.0035C31.6058 32.5166 31.9394 32.9549 32.398 33.222C32.8566 33.4891 33.4024 33.563 33.9155 33.4276C34.4286 33.2922 34.8669 32.9586 35.134 32.5Z" fill="white"/>
</svg>
