<svg width="64" height="64" viewBox="0 0 64 64" fill="none" xmlns="http://www.w3.org/2000/svg">
<path d="M50.6667 26.6668H53.3333C54.0406 26.6668 54.7189 26.9478 55.219 27.4479C55.7191 27.948 56 28.6263 56 29.3335V56.0002C56 56.7074 55.7191 57.3857 55.219 57.8858C54.7189 58.3859 54.0406 58.6668 53.3333 58.6668H10.6667C9.95942 58.6668 9.28115 58.3859 8.78105 57.8858C8.28095 57.3857 8 56.7074 8 56.0002V29.3335C8 28.6263 8.28095 27.948 8.78105 27.4479C9.28115 26.9478 9.95942 26.6668 10.6667 26.6668H13.3333V24.0002C13.3333 19.0495 15.3 14.3015 18.8007 10.8008C22.3014 7.30016 27.0493 5.3335 32 5.3335C36.9507 5.3335 41.6986 7.30016 45.1993 10.8008C48.7 14.3015 50.6667 19.0495 50.6667 24.0002V26.6668ZM13.3333 32.0002V53.3335H50.6667V32.0002H13.3333ZM29.3333 37.3335H34.6667V48.0002H29.3333V37.3335ZM45.3333 26.6668V24.0002C45.3333 20.4639 43.9286 17.0726 41.4281 14.5721C38.9276 12.0716 35.5362 10.6668 32 10.6668C28.4638 10.6668 25.0724 12.0716 22.5719 14.5721C20.0714 17.0726 18.6667 20.4639 18.6667 24.0002V26.6668H45.3333Z" fill="white"/>
</svg>
