<svg width="41" height="35" viewBox="0 0 41 35" fill="none" xmlns="http://www.w3.org/2000/svg">
<path d="M37.0487 15.2949C37.2309 14.9729 37.3175 14.604 37.298 14.2329C37.2785 13.8618 37.1539 13.5045 36.9391 13.204C36.7243 12.9036 36.4287 12.6729 36.0878 12.54C35.747 12.4071 35.3757 12.3776 35.0187 12.455C35.0098 12.0687 34.9187 11.689 34.7517 11.342C34.5847 10.995 34.3458 10.689 34.0514 10.4451C33.7571 10.2012 33.4143 10.0252 33.0467 9.92922C32.679 9.83325 32.2954 9.81958 31.922 9.88917C31.6166 9.29147 31.1282 8.81141 30.5307 8.52173C29.9332 8.23204 29.2593 8.14853 28.6111 8.28383C27.9628 8.41912 27.3755 8.76587 26.9382 9.27152C26.5009 9.77717 26.2373 10.4142 26.1875 11.086C25.7107 11.0882 25.2411 11.2043 24.8164 11.425C24.3918 11.6457 24.0239 11.9648 23.7425 12.3566C23.4611 12.7485 23.2739 13.2021 23.1961 13.681C23.1182 14.1599 23.1519 14.6508 23.2943 15.114C22.9415 15.2542 22.6389 15.5005 22.427 15.8202C22.2152 16.1399 22.1041 16.5177 22.1085 16.9034C22.113 17.289 22.2328 17.6641 22.452 17.9786C22.6712 18.2932 22.9793 18.5322 23.3353 18.6638C23.4513 19.1524 23.6824 19.605 24.0085 19.9823C24.3347 20.3596 24.7462 20.6504 25.2075 20.8295C25.6688 21.0086 26.166 21.0707 26.6561 21.0104C27.1462 20.95 27.6146 20.7691 28.0206 20.4832C28.2108 22.9412 27.8709 25.4117 27.0248 27.7219C27.0069 27.7736 27.0014 27.829 27.0087 27.8833C27.0161 27.9376 27.0362 27.9893 27.0673 28.0341C27.0984 28.0789 27.1395 28.1155 27.1874 28.1407C27.2352 28.1659 27.2882 28.1791 27.3421 28.1791H32.6578C32.7136 28.1791 32.7686 28.1649 32.8177 28.1379C32.8668 28.1109 32.9086 28.0718 32.9392 28.0243C32.9698 27.9767 32.9883 27.9222 32.9931 27.8655C32.9979 27.8089 32.9887 27.7519 32.9665 27.6998C31.7092 24.7585 31.212 22.1189 31.4732 19.724C31.592 19.9273 31.7366 20.1139 31.9033 20.2788C32.2497 20.6209 32.6821 20.8592 33.1529 20.9674C33.6236 21.0756 34.1146 21.0495 34.5718 20.892C35.029 20.7345 35.4346 20.4517 35.7442 20.0747C36.0538 19.6977 36.2552 19.2411 36.3264 18.7551C36.6973 18.6939 37.0413 18.52 37.3133 18.2563C37.5854 17.9925 37.7727 17.6511 37.8509 17.277C37.929 16.9029 37.8942 16.5134 37.751 16.1598C37.6079 15.8061 37.3631 15.5048 37.0487 15.2954V15.2949ZM32.1495 27.4934H27.8134C28.9136 24.1136 29.0407 21.0217 28.2205 17.3859C28.3888 17.7545 28.5334 18.1339 28.6535 18.5217C28.6722 18.5807 28.7063 18.6335 28.7521 18.6744C28.798 18.7153 28.8539 18.7427 28.9138 18.7538C28.9738 18.7648 29.0356 18.7591 29.0926 18.7372C29.1496 18.7153 29.1997 18.6781 29.2376 18.6294C29.7306 17.9961 29.8318 16.4851 29.496 14.8459C29.5158 14.8149 29.544 14.7904 29.5771 14.7752C29.6031 14.7629 29.6319 14.7579 29.6604 14.7606C29.8886 15.2043 29.9008 16.081 29.9129 16.928C29.9196 17.4144 29.9268 17.9183 29.9705 18.396C29.9783 18.481 30.0169 18.5599 30.0788 18.6174C30.1408 18.6749 30.2216 18.7068 30.3054 18.7068H30.311C30.3957 18.7054 30.4769 18.6715 30.5382 18.6118C30.5995 18.5521 30.6363 18.4711 30.6414 18.3849C30.6877 17.6122 31.2898 16.6068 31.7956 16.0782C30.9457 17.9286 30.5899 19.9744 30.7642 22.0095C30.9394 23.9003 31.4069 25.7511 32.1495 27.4934ZM36.0272 18.0937H36.0171C35.9296 18.0937 35.8457 18.1283 35.7829 18.1902C35.7201 18.2522 35.6834 18.3365 35.6806 18.4255C35.665 18.9414 35.4527 19.4309 35.0887 19.7902C34.7247 20.1496 34.2377 20.3505 33.7307 20.3505C33.2237 20.3505 32.7366 20.1496 32.3727 19.7902C32.0087 19.4309 31.7964 18.9414 31.7808 18.4255C31.7791 18.3681 31.7631 18.3121 31.7345 18.2628C31.9443 17.4299 32.2525 16.626 32.6522 15.8686C32.6747 15.8258 32.688 15.7788 32.6912 15.7305C32.6945 15.6821 32.6877 15.6336 32.6712 15.5882C32.6371 15.4946 32.5823 15.4103 32.5111 15.3416C32.4399 15.273 32.3542 15.2219 32.2606 15.1923C32.1699 15.1604 32.0733 15.1493 31.9779 15.16C31.8824 15.1707 31.7905 15.2028 31.7088 15.2541C31.2509 15.6221 30.8679 16.0774 30.581 16.5946C30.5655 15.7221 30.5231 14.9183 30.2315 14.3951C30.1617 14.2818 30.0611 14.1916 29.9418 14.1354C29.8226 14.0793 29.69 14.0595 29.5599 14.0787C29.3901 14.0975 29.2295 14.167 29.0984 14.2785C28.9672 14.3899 28.8714 14.5384 28.8228 14.7052C28.8048 14.7627 28.802 14.8242 28.8147 14.8832C29.0138 15.7108 29.0657 16.568 28.9678 17.4142C28.8358 17.0984 28.6781 16.7653 28.4562 16.314C28.4104 16.2135 28.3343 16.1306 28.2389 16.0774C28.1435 16.0242 28.0339 16.0035 27.9262 16.0183C27.7891 16.0416 27.6621 16.1064 27.5616 16.2041C27.4611 16.3019 27.3918 16.4281 27.3627 16.5665C27.3516 16.6191 27.3528 16.6736 27.3662 16.7257C27.6211 17.693 27.8124 18.6765 27.9389 19.6697C27.6288 19.9751 27.2426 20.1885 26.8221 20.2868C26.4016 20.3852 25.9627 20.3647 25.5528 20.2277C25.1429 20.0907 24.7775 19.8423 24.496 19.5094C24.2146 19.1764 24.0278 18.7716 23.9557 18.3385C23.9447 18.2719 23.9147 18.2102 23.8694 18.161C23.8241 18.1118 23.7655 18.0773 23.701 18.0619C23.4314 17.9977 23.1922 17.8399 23.0245 17.6157C22.8568 17.3914 22.771 17.1147 22.782 16.833C22.7929 16.5513 22.8999 16.2824 23.0846 16.0723C23.2692 15.8623 23.5199 15.7243 23.7936 15.682C23.8453 15.6741 23.8944 15.654 23.9371 15.6233C23.9799 15.5926 24.015 15.5522 24.0397 15.5054C24.0644 15.4585 24.0781 15.4064 24.0796 15.3532C24.0811 15.3 24.0704 15.2472 24.0484 15.1989C23.8812 14.8312 23.8076 14.4265 23.8345 14.0223C23.8613 13.618 23.9877 13.2271 24.2019 12.8856C24.4161 12.5441 24.7114 12.2631 25.0603 12.0683C25.4093 11.8736 25.8008 11.7714 26.1988 11.7712C26.2928 11.7713 26.3868 11.7769 26.4802 11.7882C26.5286 11.7939 26.5777 11.7889 26.624 11.7734C26.6703 11.7579 26.7127 11.7324 26.7484 11.6985C26.784 11.6647 26.812 11.6234 26.8305 11.5774C26.8489 11.5315 26.8573 11.482 26.8551 11.4324C26.8532 11.3921 26.8526 11.3548 26.8526 11.3185C26.8526 10.7583 27.044 10.2156 27.394 9.78339C27.7441 9.35118 28.2309 9.05644 28.771 8.94972C29.3111 8.84299 29.8709 8.93093 30.3543 9.19845C30.8377 9.46597 31.2146 9.8964 31.4204 10.4159C31.4519 10.4952 31.5113 10.5597 31.5871 10.5967C31.6629 10.6336 31.7495 10.6404 31.8299 10.6156C32.152 10.5166 32.4937 10.504 32.822 10.5791C33.1503 10.6541 33.4539 10.8143 33.7035 11.0441C33.953 11.2738 34.1401 11.5653 34.2464 11.8903C34.3527 12.2153 34.3747 12.5628 34.3103 12.899C34.298 12.9635 34.3041 13.0302 34.328 13.0913C34.3519 13.1523 34.3925 13.2051 34.445 13.2432C34.4975 13.2814 34.5596 13.3035 34.6241 13.3067C34.6885 13.3099 34.7525 13.2942 34.8084 13.2614C35.0611 13.1142 35.3573 13.0642 35.6432 13.1206C35.929 13.177 36.1854 13.336 36.3658 13.5687C36.5462 13.8014 36.6385 14.0923 36.626 14.3885C36.6134 14.6846 36.4969 14.9664 36.2975 15.1824C36.2592 15.2238 36.2317 15.2742 36.2173 15.3291C36.203 15.384 36.2022 15.4417 36.2152 15.497C36.2282 15.5522 36.2545 15.6033 36.2917 15.6457C36.3289 15.688 36.3758 15.7203 36.4283 15.7396C36.6925 15.8357 36.9149 16.0238 37.0562 16.2706C37.1976 16.5174 37.2488 16.807 37.2008 17.0885C37.1529 17.37 37.0088 17.6252 36.7941 17.8091C36.5794 17.993 36.3078 18.0938 36.0272 18.0937Z" fill="white"/>
</svg>
