<svg width="41" height="35" viewBox="0 0 41 35" fill="none" xmlns="http://www.w3.org/2000/svg">
<path d="M18.0487 8.29488C18.2309 7.97286 18.3175 7.60399 18.298 7.23292C18.2785 6.86184 18.1539 6.50446 17.9391 6.20401C17.7243 5.90356 17.4287 5.67292 17.0878 5.54C16.747 5.40707 16.3757 5.37756 16.0187 5.45503C16.0098 5.06873 15.9187 4.68899 15.7517 4.342C15.5847 3.995 15.3458 3.68901 15.0514 3.44511C14.7571 3.20121 14.4143 3.0252 14.0467 2.92922C13.679 2.83325 13.2954 2.81958 12.922 2.88917C12.6166 2.29147 12.1282 1.81141 11.5307 1.52173C10.9332 1.23204 10.2593 1.14853 9.61108 1.28383C8.96282 1.41912 8.37553 1.76587 7.9382 2.27152C7.50086 2.77717 7.2373 3.41418 7.18746 4.08604C6.71069 4.08822 6.24109 4.20432 5.81644 4.42501C5.39178 4.64569 5.02394 4.96478 4.7425 5.35662C4.46106 5.74845 4.2739 6.20209 4.19606 6.68101C4.11822 7.15993 4.15188 7.65077 4.29434 8.11403C3.94146 8.25417 3.63891 8.5005 3.42705 8.82019C3.21519 9.13989 3.10407 9.51774 3.10853 9.90338C3.11298 10.289 3.23279 10.6641 3.45197 10.9786C3.67116 11.2932 3.97931 11.5322 4.33533 11.6638C4.45129 12.1524 4.68235 12.605 5.00854 12.9823C5.33473 13.3596 5.74625 13.6504 6.20753 13.8295C6.66882 14.0086 7.166 14.0707 7.65612 14.0104C8.14625 13.95 8.61457 13.7691 9.02064 13.4832C9.21078 15.9412 8.87091 18.4117 8.02485 20.7219C8.00688 20.7736 8.00136 20.829 8.00874 20.8833C8.01612 20.9376 8.0362 20.9893 8.06728 21.0341C8.09836 21.0789 8.13954 21.1155 8.18736 21.1407C8.23518 21.1659 8.28825 21.1791 8.34211 21.1791H13.6578C13.7136 21.1791 13.7686 21.1649 13.8177 21.1379C13.8668 21.1109 13.9086 21.0718 13.9392 21.0243C13.9698 20.9767 13.9883 20.9222 13.9931 20.8655C13.9979 20.8089 13.9887 20.7519 13.9665 20.6998C12.7092 17.7585 12.212 15.1189 12.4732 12.724C12.592 12.9273 12.7366 13.1139 12.9033 13.2788C13.2497 13.6209 13.6821 13.8592 14.1529 13.9674C14.6236 14.0756 15.1146 14.0495 15.5718 13.892C16.029 13.7345 16.4346 13.4517 16.7442 13.0747C17.0538 12.6977 17.2552 12.2411 17.3264 11.7551C17.6973 11.6939 18.0413 11.52 18.3133 11.2563C18.5854 10.9925 18.7727 10.6511 18.8509 10.277C18.929 9.90285 18.8942 9.51341 18.751 9.15977C18.6079 8.80613 18.3631 8.50481 18.0487 8.29535V8.29488ZM13.1495 20.4934H8.81337C9.9136 17.1136 10.0407 14.0217 9.22049 10.3859C9.38879 10.7545 9.53345 11.1339 9.65354 11.5217C9.67222 11.5807 9.7063 11.6335 9.75214 11.6744C9.79799 11.7153 9.85388 11.7427 9.91384 11.7538C9.97381 11.7648 10.0356 11.7591 10.0926 11.7372C10.1496 11.7153 10.1997 11.6781 10.2376 11.6294C10.7306 10.9961 10.8318 9.48515 10.496 7.84594C10.5158 7.81493 10.544 7.79038 10.5771 7.7752C10.6031 7.7629 10.6319 7.75786 10.6604 7.76058C10.8886 8.20434 10.9008 9.081 10.9129 9.92796C10.9196 10.4144 10.9268 10.9183 10.9705 11.396C10.9783 11.481 11.0169 11.5599 11.0788 11.6174C11.1408 11.6749 11.2216 11.7068 11.3054 11.7068H11.311C11.3957 11.7054 11.4769 11.6715 11.5382 11.6118C11.5995 11.5521 11.6363 11.4711 11.6414 11.3849C11.6877 10.6122 12.2898 9.60681 12.7956 9.07817C11.9457 10.9286 11.5899 12.9744 11.7642 15.0095C11.9394 16.9003 12.4069 18.7511 13.1495 20.4934ZM17.0272 11.0937H17.0171C16.9296 11.0937 16.8457 11.1283 16.7829 11.1902C16.7201 11.2522 16.6834 11.3365 16.6806 11.4255C16.665 11.9414 16.4527 12.4309 16.0887 12.7902C15.7247 13.1496 15.2377 13.3505 14.7307 13.3505C14.2237 13.3505 13.7366 13.1496 13.3727 12.7902C13.0087 12.4309 12.7964 11.9414 12.7808 11.4255C12.7791 11.3681 12.7631 11.3121 12.7345 11.2628C12.9443 10.4299 13.2525 9.62598 13.6522 8.86856C13.6747 8.82585 13.688 8.77878 13.6912 8.73045C13.6945 8.68213 13.6877 8.63364 13.6712 8.5882C13.6371 8.49463 13.5823 8.41028 13.5111 8.34165C13.4399 8.27301 13.3542 8.22192 13.2606 8.19231C13.1699 8.16037 13.0733 8.14934 12.9779 8.16002C12.8824 8.17071 12.7905 8.20284 12.7088 8.25409C12.2509 8.62213 11.8679 9.07742 11.581 9.59455C11.5655 8.72213 11.5231 7.91833 11.2315 7.39511C11.1617 7.28182 11.0611 7.1916 10.9418 7.13543C10.8226 7.07926 10.69 7.05954 10.5599 7.07868C10.3901 7.0975 10.2295 7.16701 10.0984 7.27848C9.96722 7.38994 9.87136 7.53839 9.82283 7.70517C9.80477 7.76275 9.80197 7.82416 9.81472 7.88319C10.0138 8.71076 10.0657 9.56797 9.96779 10.4142C9.83579 10.0984 9.67809 9.76526 9.45624 9.31396C9.41044 9.21353 9.33429 9.13064 9.23891 9.07744C9.14353 9.02424 9.03393 9.00351 8.92615 9.01828C8.78908 9.04162 8.66207 9.10637 8.5616 9.20412C8.46112 9.30188 8.39183 9.42814 8.36272 9.56649C8.35159 9.61909 8.35278 9.67361 8.36619 9.72565C8.62106 10.693 8.81238 11.6765 8.93889 12.6697C8.62876 12.9751 8.24262 13.1885 7.82212 13.2868C7.40163 13.3852 6.96274 13.3647 6.55282 13.2277C6.1429 13.0907 5.7775 12.8423 5.49604 12.5094C5.21459 12.1764 5.02777 11.7716 4.95573 11.3385C4.94473 11.2719 4.91468 11.2102 4.86937 11.161C4.82405 11.1118 4.76548 11.0773 4.70099 11.0619C4.43141 10.9977 4.1922 10.8399 4.02448 10.6157C3.85676 10.3914 3.77101 10.1147 3.78197 9.83301C3.79294 9.55135 3.89993 9.28237 4.08455 9.07232C4.26918 8.86228 4.5199 8.72428 4.79363 8.68205C4.8453 8.67408 4.89444 8.65396 4.93715 8.62329C4.97986 8.59262 5.01497 8.55224 5.03969 8.50536C5.06441 8.45848 5.07806 8.40637 5.07957 8.35318C5.08107 8.29999 5.07039 8.24717 5.04836 8.19891C4.8812 7.83119 4.80764 7.42654 4.83448 7.02227C4.86131 6.61799 4.98767 6.2271 5.2019 5.88562C5.41614 5.54414 5.71135 5.26307 6.06034 5.06832C6.40932 4.87357 6.80084 4.77141 7.1988 4.77124C7.29284 4.77127 7.38679 4.77694 7.48017 4.78822C7.52859 4.79394 7.57765 4.78888 7.62396 4.77339C7.67027 4.75791 7.71272 4.73236 7.74838 4.69852C7.78404 4.66468 7.81205 4.62336 7.83047 4.57741C7.8489 4.53147 7.8573 4.48199 7.8551 4.43241C7.85325 4.39209 7.85255 4.35484 7.85255 4.31853C7.85257 3.75833 8.04401 3.21559 8.39404 2.78339C8.74408 2.35118 9.2309 2.05644 9.77102 1.94972C10.3111 1.84299 10.8709 1.93093 11.3543 2.19845C11.8377 2.46597 12.2146 2.8964 12.4204 3.41593C12.4519 3.49525 12.5113 3.55972 12.5871 3.59668C12.6629 3.63364 12.7495 3.6404 12.8299 3.61564C13.152 3.51661 13.4937 3.50402 13.822 3.57908C14.1503 3.65414 14.4539 3.81431 14.7035 4.04405C14.953 4.27379 15.1401 4.56531 15.2464 4.89032C15.3527 5.21532 15.3747 5.5628 15.3103 5.89902C15.298 5.96351 15.3041 6.03024 15.328 6.09127C15.3519 6.1523 15.3925 6.20506 15.445 6.24325C15.4975 6.28144 15.5596 6.30346 15.6241 6.30669C15.6885 6.30991 15.7525 6.2942 15.8084 6.26143C16.0611 6.11419 16.3573 6.06422 16.6432 6.12061C16.929 6.17701 17.1854 6.33603 17.3658 6.56872C17.5462 6.80142 17.6385 7.09232 17.626 7.38848C17.6134 7.68465 17.4969 7.96638 17.2975 8.18241C17.2592 8.22378 17.2317 8.27419 17.2173 8.3291C17.203 8.384 17.2022 8.44169 17.2152 8.49696C17.2282 8.55222 17.2545 8.60333 17.2917 8.64569C17.3289 8.68804 17.3758 8.72031 17.4283 8.73958C17.6925 8.83573 17.9149 9.02378 18.0562 9.27057C18.1976 9.51736 18.2488 9.80704 18.2008 10.0885C18.1529 10.37 18.0088 10.6252 17.7941 10.8091C17.5794 10.993 17.3078 11.0938 17.0272 11.0937Z" fill="white"/>
<path d="M37.0487 15.2949C37.2309 14.9729 37.3175 14.604 37.298 14.2329C37.2785 13.8618 37.1539 13.5045 36.9391 13.204C36.7243 12.9036 36.4287 12.6729 36.0878 12.54C35.747 12.4071 35.3757 12.3776 35.0187 12.455C35.0098 12.0687 34.9187 11.689 34.7517 11.342C34.5847 10.995 34.3458 10.689 34.0514 10.4451C33.7571 10.2012 33.4143 10.0252 33.0467 9.92922C32.679 9.83325 32.2954 9.81958 31.922 9.88917C31.6166 9.29147 31.1282 8.81141 30.5307 8.52173C29.9332 8.23204 29.2593 8.14853 28.6111 8.28383C27.9628 8.41912 27.3755 8.76587 26.9382 9.27152C26.5009 9.77717 26.2373 10.4142 26.1875 11.086C25.7107 11.0882 25.2411 11.2043 24.8164 11.425C24.3918 11.6457 24.0239 11.9648 23.7425 12.3566C23.4611 12.7485 23.2739 13.2021 23.1961 13.681C23.1182 14.1599 23.1519 14.6508 23.2943 15.114C22.9415 15.2542 22.6389 15.5005 22.427 15.8202C22.2152 16.1399 22.1041 16.5177 22.1085 16.9034C22.113 17.289 22.2328 17.6641 22.452 17.9786C22.6712 18.2932 22.9793 18.5322 23.3353 18.6638C23.4513 19.1524 23.6824 19.605 24.0085 19.9823C24.3347 20.3596 24.7462 20.6504 25.2075 20.8295C25.6688 21.0086 26.166 21.0707 26.6561 21.0104C27.1462 20.95 27.6146 20.7691 28.0206 20.4832C28.2108 22.9412 27.8709 25.4117 27.0248 27.7219C27.0069 27.7736 27.0014 27.829 27.0087 27.8833C27.0161 27.9376 27.0362 27.9893 27.0673 28.0341C27.0984 28.0789 27.1395 28.1155 27.1874 28.1407C27.2352 28.1659 27.2882 28.1791 27.3421 28.1791H32.6578C32.7136 28.1791 32.7686 28.1649 32.8177 28.1379C32.8668 28.1109 32.9086 28.0718 32.9392 28.0243C32.9698 27.9767 32.9883 27.9222 32.9931 27.8655C32.9979 27.8089 32.9887 27.7519 32.9665 27.6998C31.7092 24.7585 31.212 22.1189 31.4732 19.724C31.592 19.9273 31.7366 20.1139 31.9033 20.2788C32.2497 20.6209 32.6821 20.8592 33.1529 20.9674C33.6236 21.0756 34.1146 21.0495 34.5718 20.892C35.029 20.7345 35.4346 20.4517 35.7442 20.0747C36.0538 19.6977 36.2552 19.2411 36.3264 18.7551C36.6973 18.6939 37.0413 18.52 37.3133 18.2563C37.5854 17.9925 37.7727 17.6511 37.8509 17.277C37.929 16.9029 37.8942 16.5134 37.751 16.1598C37.6079 15.8061 37.3631 15.5048 37.0487 15.2954V15.2949ZM32.1495 27.4934H27.8134C28.9136 24.1136 29.0407 21.0217 28.2205 17.3859C28.3888 17.7545 28.5334 18.1339 28.6535 18.5217C28.6722 18.5807 28.7063 18.6335 28.7521 18.6744C28.798 18.7153 28.8539 18.7427 28.9138 18.7538C28.9738 18.7648 29.0356 18.7591 29.0926 18.7372C29.1496 18.7153 29.1997 18.6781 29.2376 18.6294C29.7306 17.9961 29.8318 16.4851 29.496 14.8459C29.5158 14.8149 29.544 14.7904 29.5771 14.7752C29.6031 14.7629 29.6319 14.7579 29.6604 14.7606C29.8886 15.2043 29.9008 16.081 29.9129 16.928C29.9196 17.4144 29.9268 17.9183 29.9705 18.396C29.9783 18.481 30.0169 18.5599 30.0788 18.6174C30.1408 18.6749 30.2216 18.7068 30.3054 18.7068H30.311C30.3957 18.7054 30.4769 18.6715 30.5382 18.6118C30.5995 18.5521 30.6363 18.4711 30.6414 18.3849C30.6877 17.6122 31.2898 16.6068 31.7956 16.0782C30.9457 17.9286 30.5899 19.9744 30.7642 22.0095C30.9394 23.9003 31.4069 25.7511 32.1495 27.4934ZM36.0272 18.0937H36.0171C35.9296 18.0937 35.8457 18.1283 35.7829 18.1902C35.7201 18.2522 35.6834 18.3365 35.6806 18.4255C35.665 18.9414 35.4527 19.4309 35.0887 19.7902C34.7247 20.1496 34.2377 20.3505 33.7307 20.3505C33.2237 20.3505 32.7366 20.1496 32.3727 19.7902C32.0087 19.4309 31.7964 18.9414 31.7808 18.4255C31.7791 18.3681 31.7631 18.3121 31.7345 18.2628C31.9443 17.4299 32.2525 16.626 32.6522 15.8686C32.6747 15.8258 32.688 15.7788 32.6912 15.7305C32.6945 15.6821 32.6877 15.6336 32.6712 15.5882C32.6371 15.4946 32.5823 15.4103 32.5111 15.3416C32.4399 15.273 32.3542 15.2219 32.2606 15.1923C32.1699 15.1604 32.0733 15.1493 31.9779 15.16C31.8824 15.1707 31.7905 15.2028 31.7088 15.2541C31.2509 15.6221 30.8679 16.0774 30.581 16.5946C30.5655 15.7221 30.5231 14.9183 30.2315 14.3951C30.1617 14.2818 30.0611 14.1916 29.9418 14.1354C29.8226 14.0793 29.69 14.0595 29.5599 14.0787C29.3901 14.0975 29.2295 14.167 29.0984 14.2785C28.9672 14.3899 28.8714 14.5384 28.8228 14.7052C28.8048 14.7627 28.802 14.8242 28.8147 14.8832C29.0138 15.7108 29.0657 16.568 28.9678 17.4142C28.8358 17.0984 28.6781 16.7653 28.4562 16.314C28.4104 16.2135 28.3343 16.1306 28.2389 16.0774C28.1435 16.0242 28.0339 16.0035 27.9262 16.0183C27.7891 16.0416 27.6621 16.1064 27.5616 16.2041C27.4611 16.3019 27.3918 16.4281 27.3627 16.5665C27.3516 16.6191 27.3528 16.6736 27.3662 16.7257C27.6211 17.693 27.8124 18.6765 27.9389 19.6697C27.6288 19.9751 27.2426 20.1885 26.8221 20.2868C26.4016 20.3852 25.9627 20.3647 25.5528 20.2277C25.1429 20.0907 24.7775 19.8423 24.496 19.5094C24.2146 19.1764 24.0278 18.7716 23.9557 18.3385C23.9447 18.2719 23.9147 18.2102 23.8694 18.161C23.8241 18.1118 23.7655 18.0773 23.701 18.0619C23.4314 17.9977 23.1922 17.8399 23.0245 17.6157C22.8568 17.3914 22.771 17.1147 22.782 16.833C22.7929 16.5513 22.8999 16.2824 23.0846 16.0723C23.2692 15.8623 23.5199 15.7243 23.7936 15.682C23.8453 15.6741 23.8944 15.654 23.9371 15.6233C23.9799 15.5926 24.015 15.5522 24.0397 15.5054C24.0644 15.4585 24.0781 15.4064 24.0796 15.3532C24.0811 15.3 24.0704 15.2472 24.0484 15.1989C23.8812 14.8312 23.8076 14.4265 23.8345 14.0223C23.8613 13.618 23.9877 13.2271 24.2019 12.8856C24.4161 12.5441 24.7114 12.2631 25.0603 12.0683C25.4093 11.8736 25.8008 11.7714 26.1988 11.7712C26.2928 11.7713 26.3868 11.7769 26.4802 11.7882C26.5286 11.7939 26.5777 11.7889 26.624 11.7734C26.6703 11.7579 26.7127 11.7324 26.7484 11.6985C26.784 11.6647 26.812 11.6234 26.8305 11.5774C26.8489 11.5315 26.8573 11.482 26.8551 11.4324C26.8532 11.3921 26.8526 11.3548 26.8526 11.3185C26.8526 10.7583 27.044 10.2156 27.394 9.78339C27.7441 9.35118 28.2309 9.05644 28.771 8.94972C29.3111 8.84299 29.8709 8.93093 30.3543 9.19845C30.8377 9.46597 31.2146 9.8964 31.4204 10.4159C31.4519 10.4952 31.5113 10.5597 31.5871 10.5967C31.6629 10.6336 31.7495 10.6404 31.8299 10.6156C32.152 10.5166 32.4937 10.504 32.822 10.5791C33.1503 10.6541 33.4539 10.8143 33.7035 11.0441C33.953 11.2738 34.1401 11.5653 34.2464 11.8903C34.3527 12.2153 34.3747 12.5628 34.3103 12.899C34.298 12.9635 34.3041 13.0302 34.328 13.0913C34.3519 13.1523 34.3925 13.2051 34.445 13.2432C34.4975 13.2814 34.5596 13.3035 34.6241 13.3067C34.6885 13.3099 34.7525 13.2942 34.8084 13.2614C35.0611 13.1142 35.3573 13.0642 35.6432 13.1206C35.929 13.177 36.1854 13.336 36.3658 13.5687C36.5462 13.8014 36.6385 14.0923 36.626 14.3885C36.6134 14.6846 36.4969 14.9664 36.2975 15.1824C36.2592 15.2238 36.2317 15.2742 36.2173 15.3291C36.203 15.384 36.2022 15.4417 36.2152 15.497C36.2282 15.5522 36.2545 15.6033 36.2917 15.6457C36.3289 15.688 36.3758 15.7203 36.4283 15.7396C36.6925 15.8357 36.9149 16.0238 37.0562 16.2706C37.1976 16.5174 37.2488 16.807 37.2008 17.0885C37.1529 17.37 37.0088 17.6252 36.7941 17.8091C36.5794 17.993 36.3078 18.0938 36.0272 18.0937Z" fill="white"/>
</svg>
