<svg width="263" height="242" viewBox="0 0 263 242" fill="none" xmlns="http://www.w3.org/2000/svg">
<path d="M65.75 219.167C65.75 179.826 95.1896 147.938 131.5 147.938C167.81 147.938 197.25 179.826 197.25 219.167" stroke="white" stroke-width="2.66667" stroke-linecap="round"/>
<path d="M71.2292 202.73C71.2292 208.209 84.9272 213.688 93.1459 208.209C101.365 202.73 103.885 189.004 112.323 191.366C120.761 193.727 120.542 210.948 131.5 219.167C142.458 227.386 161.635 224.646 169.854 210.948C178.073 197.25 169.416 193.552 175.668 184.665C179.832 178.742 185.147 180.194 186.292 180.813" stroke="white" stroke-width="2.66667" stroke-linecap="round"/>
<path d="M126.021 115.062H136.979M176.161 123.117L185.453 128.925M77.5357 128.925L86.8339 123.117M214.011 154.151L219.49 163.641M44.1566 163.641L49.6358 154.151M229.55 202.762L230.695 213.66M26.8206 213.66L27.9657 202.757" stroke="white" stroke-width="2.66667" stroke-linecap="round" stroke-linejoin="round"/>
<path d="M230.125 54.792L49.3125 98.6253" stroke="white" stroke-width="2.66667" stroke-linecap="round"/>
<path d="M49.3125 98.6253L32.875 76.7087M87.6667 38.3545L158.896 71.2295L93.1458 87.667L65.75 49.3128L87.6667 38.3545Z" stroke="white" stroke-width="2.66667" stroke-linecap="round" stroke-linejoin="round"/>
</svg>
