<svg width="432" height="362" viewBox="0 0 432 362" fill="none" xmlns="http://www.w3.org/2000/svg">
<g clip-path="url(#clip0_2577_914)">
<mask id="mask0_2577_914" style="mask-type:luminance" maskUnits="userSpaceOnUse" x="30" y="15" width="393" height="315">
<path d="M337.5 148.52L338.44 147.4C338.44 147.4 345.05 146.01 346.45 144.62L345.23 143.23C345.23 143.23 344.19 142.19 342.45 142.19C340.71 142.19 341.58 140.1 343.32 138.71C345.06 137.32 349.76 127.75 354.98 128.62L356.72 129.66C356.72 129.66 357.94 126.53 362.64 126.53C367.34 126.53 370.65 123.05 376.21 122.53C381.77 122.01 385.43 120.62 387.35 117.66C389.26 114.7 391.35 111.4 395.18 110.35C399.01 109.31 404.23 105.65 408.41 103.21C412.59 100.77 415.55 99.7301 416.07 96.9501C416.07 96.9501 420.42 97.8201 420.42 92.2501C420.42 92.2501 418.51 90.3401 419.38 88.7701C420.25 87.2001 416.77 87.2001 416.77 85.4601C416.77 83.7201 417.12 79.0201 418.68 78.8501C420.25 78.6801 419.2 80.0701 420.07 80.0701C420.94 80.0701 422.33 78.8501 422.33 78.8501C422.33 78.8501 423.2 76.4101 420.59 76.7601C417.98 77.1101 418.15 73.4501 418.15 73.4501C418.15 73.4501 417.11 72.2301 415.71 72.7501C414.31 73.2701 414.32 70.1401 409.1 72.4001C403.88 74.6601 403.71 71.8801 403.88 74.6601C404.05 77.4401 400.92 76.0501 400.92 76.0501C400.92 76.0501 399.01 78.4901 397.44 77.0901C395.87 75.6901 392.74 72.9101 389.96 73.2601C387.18 73.6101 387.35 75.3501 385.44 75.5201C383.53 75.6901 381.44 74.8201 380.39 72.3901C379.35 69.9501 373.78 69.9501 372.04 71.8701C370.3 73.7801 364.21 73.0901 364.21 73.0901C364.21 73.0901 363.34 69.7801 364.91 69.2601C366.48 68.7401 364.74 61.7801 362.13 61.4301C359.52 61.0801 356.56 61.4301 356.56 61.4301C356.56 61.4301 354.82 57.9501 351.51 58.1201C348.2 58.2901 341.94 50.8101 341.42 57.7701V61.6001L333.24 62.3001L330.8 60.9101L329.06 62.8201L327.49 60.5601C327.49 60.5601 320.53 63.0001 319.14 61.7801C317.75 60.5601 313.57 58.3001 312.53 56.9101C311.49 55.5201 309.57 55.1701 307.66 57.0801C305.75 58.9901 304.18 56.7301 304.18 56.7301L302.44 57.9501L297.92 52.9001C297.92 52.9001 295.31 50.4601 291.83 50.2901C288.35 50.1201 287.65 48.5501 284.17 48.2001C280.69 47.8501 278.95 46.1101 278.95 44.8401C278.95 43.5701 277.44 45.0701 277.91 46.7001C278.37 48.3201 273.85 47.4001 274.43 45.3101C275.01 43.2201 276.87 42.9901 276.52 41.4801C276.17 39.9701 277.33 37.5401 274.66 37.6501C271.99 37.7701 271.99 35.3301 271.18 38.0001C271.18 38.0001 269.21 38.8101 268.74 36.1401C268.74 36.1401 268.28 35.2101 266.19 35.5601C266.19 35.5601 265.49 33.8201 263.06 33.9401C263.06 33.9401 264.51 30.8101 260.86 33.4201C257.21 36.0301 251.64 37.2501 250.07 36.3801C248.5 35.5101 246.42 35.8601 238.24 31.8601C230.06 27.8601 226.93 30.4701 226.23 33.4301C225.53 36.3901 222.75 32.9101 219.44 32.9101C216.13 32.9101 216.31 30.4701 214.57 31.1701C212.83 31.8701 212.66 27.3401 208.83 27.5201C205 27.6901 204.13 30.8301 201.17 31.0001C198.21 31.1701 200.82 27.5201 200.82 27.5201C200.82 27.5201 195.6 28.0401 193.86 29.9601C192.12 31.8701 175.41 32.4001 173.15 31.8701C170.89 31.3501 162.88 27.6901 157.31 28.7401C157.31 28.7401 155.22 25.6101 150.7 25.9601C146.18 26.3101 141.3 25.7901 141.3 25.7901C141.3 25.7901 139.04 21.9601 137.12 21.6101C135.21 21.2601 134.16 25.0901 131.55 24.9201C128.94 24.7501 125.98 25.7901 125.11 24.2201C125.11 24.2201 121.63 25.6101 118.15 25.0901C114.67 24.5701 105.45 24.2201 102.84 24.9201C100.23 25.6201 92.92 25.0901 92.92 25.0901C92.92 25.0901 89.61 22.1301 89.96 20.0401C90.31 17.9501 84.39 16.9101 83.35 19.5201C82.31 22.1301 81.78 21.0901 81.44 18.6501C81.09 16.2101 76.57 16.9101 76.05 17.9501C75.53 18.9901 72.74 22.6501 72.05 19.6901C72.05 19.6901 74.31 16.9101 73.27 15.8601C72.23 14.8101 72.05 18.1201 70.66 18.3001C69.27 18.4801 67.7 18.4701 68.75 21.2601C68.75 21.2601 65.62 21.6101 63.36 23.7001C61.1 25.7901 59.88 27.5301 61.62 27.1801C63.36 26.8301 65.27 26.1401 65.62 26.6601C65.97 27.1801 61.1 28.2301 61.79 29.2701C62.49 30.3101 64.75 28.2301 64.92 29.6201C65.09 31.0101 63.88 31.8801 63.88 31.8801L63.71 34.4901C63.71 34.4901 62.14 34.8401 61.97 32.0501C61.97 32.0501 59.88 32.9201 59.36 31.5301C59.36 31.5301 58.84 34.6601 57.1 33.2701C57.1 33.2701 53.27 36.4001 51.01 35.0101C51.01 35.0101 47.53 38.1401 44.57 35.3601C41.61 32.5801 39.35 36.9301 40.22 36.9301C41.09 36.9301 43 37.2801 41.61 39.0201C40.22 40.7601 39.52 37.9801 37.96 39.0201C36.39 40.0601 32.91 40.0601 32.74 41.4601C32.57 42.8501 35 41.6301 35.18 42.3301C35.35 43.0301 31.87 44.4201 30.83 45.4601C29.79 46.5001 31.7 47.7201 31.53 49.1101C31.36 50.5001 30.49 52.4201 31.36 52.0701C32.23 51.7201 34.32 51.0301 34.67 52.0701C35.02 53.1101 34.67 53.9801 35.71 55.2001C36.75 56.4201 33.27 58.3301 35.19 58.5101C37.1 58.6801 37.63 56.0701 39.54 56.2501C41.45 56.4201 40.41 54.5101 41.8 54.5101C43.19 54.5101 44.32 54.6001 44.58 55.5501C44.84 56.5101 41.53 58.0701 40.66 59.1201C39.79 60.1601 37.27 62.3401 37.35 64.8601C37.44 67.3801 38.05 65.9901 38.13 67.3001C38.22 68.6101 40.22 63.9901 40.83 63.9901C41.44 63.9901 43.09 61.8101 43.44 61.0301C43.79 60.2501 46.4 60.6801 45.96 62.9401C45.53 65.2001 44.57 66.8601 45.18 70.6801C45.79 74.5101 42.74 70.9401 42.57 72.1601C42.4 73.3801 42.66 74.6001 44.4 74.4201C46.14 74.2501 47.71 71.3701 48.4 71.6401C49.09 71.9101 49.44 73.4701 47.01 75.9001C44.58 78.3301 43.7 76.9401 43.62 78.1601C43.53 79.3801 46.84 80.0701 49.01 77.8101C51.19 75.5501 51.27 75.6301 52.06 77.2001C52.84 78.7701 47.62 79.7201 45.53 83.2901C43.44 86.8601 42.66 85.2901 42.66 88.4201C42.66 91.5501 43.1 94.3401 43.1 94.3401C43.1 94.3401 48.76 89.9901 50.06 87.5501C51.37 85.1101 54.41 85.8101 55.28 86.3301C56.15 86.8501 61.46 85.2001 61.89 84.3301C62.32 83.4601 64.24 83.2001 64.24 86.3301C64.24 86.3301 67.63 86.4201 67.89 88.3301C68.15 90.2401 64.58 88.8501 64.5 92.3301C64.41 95.8101 63.11 95.8101 65.2 96.7701C67.29 97.7301 71.81 97.8101 72.16 95.0301C72.51 92.2501 73.55 92.0701 73.73 93.2001C73.9 94.3301 75.3 95.4601 77.3 94.5101C79.3 93.5501 80.69 95.0301 82.69 94.8601C84.69 94.6901 92.26 99.0401 94.52 92.8601C94.52 92.8601 95.48 88.9401 98.61 91.2901C101.74 93.6401 106.62 92.7701 107.14 92.4201C107.66 92.0701 107.92 90.6801 108.97 90.7701C110.01 90.8601 110.19 93.4701 113.32 92.9501C116.45 92.4301 116.54 92.9501 116.54 95.3901C116.54 97.8301 115.06 101.74 115.76 102.87C116.46 104 117.33 103.83 120.55 103.83C123.77 103.83 130.3 106.09 123.33 116.1C116.37 126.11 115.15 121.76 113.15 122.54C111.15 123.32 110.02 124.11 110.1 125.76C110.19 127.41 108.01 131.76 104.18 131.42C104.18 131.42 108.36 136.12 107.83 138.47C107.83 138.47 106.52 141.69 107.92 145.17C109.31 148.65 106.53 150.22 106.53 150.22C106.53 150.22 108.62 150.39 107.05 153.87C105.48 157.35 107.75 158.92 107.75 158.92C107.75 158.92 105.14 160.66 105.14 163.1C105.14 163.1 100.44 162.4 100.44 165.88C100.44 169.36 103.92 167.45 104.09 169.01C104.26 170.57 106.53 174.23 104.26 178.58C102 182.93 101.13 181.36 101.13 181.36C101.13 181.36 101.83 187.62 96.78 187.8C91.73 187.97 89.12 188.67 85.64 187.45C85.64 187.45 87.73 193.37 91.38 194.41C95.03 195.45 89.64 198.41 94.51 201.37C94.51 201.37 93.47 206.42 96.95 206.59C96.95 206.59 95.21 210.07 100.95 209.37C106.69 208.67 99.91 217.55 99.91 217.55C99.91 217.55 101.3 218.25 100.61 219.46C99.91 220.68 97.13 222.42 96.43 221.55C95.73 220.68 90.69 225.9 93.82 228.34C93.82 228.34 90.69 232.69 92.6 236C94.51 239.31 93.82 242.26 96.6 242.61C99.38 242.96 95.9 247.66 102.69 243.48C102.69 243.48 105.13 242.96 101.99 249.57C98.86 256.18 99.9 251.31 96.25 252.35C92.6 253.39 92.25 258.27 92.25 258.27C92.25 258.27 90.16 264.19 88.07 263.32C88.07 263.32 87.55 267.67 86.5 268.19C85.46 268.71 82.85 270.45 87.2 275.15L88.59 284.55C88.59 284.55 102.16 281.24 108.95 287.51C115.74 293.78 119.74 296.39 120.78 300.04C121.82 303.69 117.65 304.56 124.26 307.35C130.87 310.13 124.43 311.7 125.3 314.31C126.17 316.92 130.52 321.97 130.52 321.97C130.52 321.97 132.78 323.71 135.74 323.54C138.7 323.37 138.7 329.28 144.96 329.11C151.22 328.94 149.48 324.41 151.4 324.41C153.32 324.41 151.4 317.1 159.93 313.97C168.46 310.84 166.19 311.36 168.46 310.84C170.72 310.32 173.16 312.41 178.55 307.01C183.94 301.61 183.77 303.7 187.6 303.36C191.43 303.01 195.08 304.4 199.09 302.14C203.09 299.88 206.57 303.18 209.53 303.36C212.49 303.53 215.97 303.71 218.41 301.62C220.85 299.53 230.94 302.32 234.25 304.93C237.56 307.54 238.43 299.01 242.08 299.01C245.73 299.01 249.22 298.49 250.09 301.79C250.96 305.1 255.66 301.09 257.57 295.87C259.48 290.65 263.83 277.77 268.01 277.08C272.19 276.38 277.23 272.56 277.23 271.51C277.23 270.46 282.8 268.9 283.15 270.64C283.15 270.64 285.93 269.42 288.2 269.42C290.47 269.42 293.42 269.07 296.9 268.2C296.9 268.2 293.07 264.89 293.25 263.15C293.42 261.41 296.38 254.51 298.24 254.51C300.1 254.51 298.47 252.31 298.59 250.8C298.71 249.29 300.68 245.35 301.72 245.35C302.76 245.35 304.27 244.07 303.58 240.94C302.88 237.81 307.06 238.74 307.06 238.74C307.06 238.74 308.8 233.52 311.58 233.52C314.36 233.52 317.73 232.13 317.61 229.34C317.49 226.56 323.06 227.14 324.34 225.51C325.62 223.88 327.01 224.93 326.78 223.77C326.55 222.61 326.78 222.84 324.11 220.99C321.44 219.13 319.82 219.13 319.01 219.13C318.2 219.13 308.68 211.12 312.75 204.74C312.75 204.74 306.02 196.97 312.4 187.57C318.78 178.17 318.08 181.31 318.78 178.17C319.48 175.04 322.84 170.16 324.12 169.82C325.4 169.47 327.25 166.46 328.99 162.63C330.41 159.51 333.9 156.01 334.84 153.31C335.44 151.57 336.39 149.97 337.57 148.55L337.5 148.52Z" fill="white"/>
</mask>
<g mask="url(#mask0_2577_914)">
<path d="M82.9602 106.67C82.9602 106.67 76.3502 51.3299 95.1402 48.5499C113.93 45.7699 132.73 37.4099 143.52 34.2799C154.31 31.1499 190.16 48.8999 190.16 48.8999L214.52 31.1499L239.23 48.5499L242.36 58.9899L234.35 83.0099L261.32 84.5799L271.59 106.33L253.84 141.14L227.39 129.31L188.41 158.55L152.91 176.65L132.03 169.69L96.1802 166.91L97.9202 134.19L82.9502 106.69L82.9602 106.67Z" fill="#29385A"/>
<path d="M229.84 62.3C229.84 62.3 228.97 64.39 221.83 63.87C221.83 63.87 222.53 67.1801 220.26 68.2201C220.26 68.2201 220.09 71.3501 222.87 72.4001C225.65 73.4401 221.65 76.5801 220.43 76.5801C219.21 76.5801 220.08 82.6701 221.47 83.7201C222.86 84.7601 220.6 89.6401 226.52 87.3701C226.52 87.3701 227.22 92.76 229.65 88.07C232.08 83.38 232.78 85.81 232.78 86.68C232.78 87.5501 229.47 92.7701 236.78 90.5101C236.78 90.5101 238.17 84.42 242 84.42C245.83 84.42 247.22 86.6801 249.83 86.3301C252.44 85.9801 249.66 92.07 252.44 92.07C255.22 92.07 256.79 94.51 260.1 90.5C263.41 86.49 268.8 87.02 268.8 87.02L268.63 74.49L229.82 62.3101L229.84 62.3Z" fill="#29385A"/>
<path d="M238.54 62.8201C238.54 62.8201 240.63 72.9101 247.94 72.7401C255.25 72.5701 251.25 76.3901 252.99 76.2201C254.73 76.0501 256.47 75.1801 258.04 77.0901C259.61 79.0001 260.3 82.4801 265.17 82.3101C265.17 82.3101 268.48 82.8301 265.87 85.0901C263.26 87.3501 262.22 83.3501 261.35 84.5701C260.48 85.7901 257.7 86.3101 257.87 89.0901C258.04 91.8701 261.87 94.1401 261.87 94.1401L274.05 98.3201L282.58 91.5301L287.28 68.9101L299.11 54.4701L284.32 37.7601L266.05 31.8401L252.13 40.3701L238.56 62.8201H238.54Z" fill="#29385A"/>
<path d="M219.75 27.4901L206.87 36.5401C206.87 36.5401 207.74 44.7201 211.92 42.2801C216.1 39.8401 218.01 41.0601 218.01 41.0601C218.01 41.0601 218.18 44.0201 219.75 45.0601C221.32 46.1001 219.4 47.8401 223.06 49.5801C226.71 51.3201 223.23 53.0601 218.88 50.9701C214.53 48.8801 215.92 56.0201 218.36 55.3201C220.8 54.6201 218.71 58.6301 221.84 58.8001C224.97 58.9701 226.19 62.9801 227.41 62.9801C228.63 62.9801 228.11 69.4201 230.54 66.6301C232.98 63.8501 232.11 69.7601 234.19 69.7601C236.27 69.7601 242.72 72.5401 242.72 68.7201C242.72 64.9001 246.03 65.9401 246.37 61.5801C246.72 57.2301 248.11 54.9701 248.28 51.8301C248.45 48.7001 254.02 53.7401 254.2 48.8701C254.38 44.0001 259.07 45.3901 258.38 41.7301C257.68 38.0801 268.82 36.6801 263.77 32.6801C258.72 28.6801 223.4 20.3201 223.4 20.3201L219.75 27.4601V27.4901Z" fill="#29385A"/>
<path d="M166.15 37.06C166.15 37.06 163.71 41.06 166.5 44.02C169.28 46.98 171.37 49.41 175.72 47.33C180.07 45.24 180.07 47.85 181.46 49.42C182.85 50.99 185.64 50.46 185.64 50.46C185.64 50.46 185.29 57.42 187.9 56.9C190.51 56.38 191.03 58.81 192.25 58.12C193.47 57.43 198.86 58.12 197.82 53.94C196.78 49.76 192.95 48.55 196.43 46.8C199.91 45.06 203.57 41.06 203.57 41.06C203.57 41.06 208.79 43.15 210.01 42.63C211.23 42.11 206.88 37.58 211.75 36.71C216.62 35.84 224.63 23.66 224.63 23.66L202.7 13.04L175.9 22.96L172.77 34.45L166.16 37.06H166.15Z" fill="#6D94AA"/>
<path d="M98.1602 53.54C98.1602 53.54 105.35 50.76 107.21 53.31C109.07 55.86 115.56 53.31 116.26 50.53C116.96 47.75 120.67 47.05 121.6 47.51C122.53 47.97 122.99 46.35 125.31 46.12C127.63 45.89 129.02 48.67 132.5 48.67C135.98 48.67 135.75 52.85 138.53 47.05C138.53 47.05 145.26 49.83 146.19 46.82C147.12 43.8 149.44 46.12 151.99 45.43C154.54 44.73 157.09 43.57 158.49 40.33C158.49 40.33 160.11 41.03 163.59 39.4C167.07 37.78 166.37 41.26 168.69 40.33C171.01 39.4 169.62 35.69 174.03 35.69C178.44 35.69 176.81 27.57 176.81 27.57L121.59 18.75L89.9202 20.03L98.1602 53.56V53.54Z" fill="#6D94AA"/>
<path d="M97.7001 96.23C97.7001 96.23 96.3101 89.73 99.3201 84.86C102.34 79.99 103.03 81.38 105.12 81.61C107.21 81.84 109.99 75.58 106.98 75.58C103.97 75.58 104.2 72.8 104.43 70.71C104.66 68.62 100.72 70.48 98.8601 70.48C97.0001 70.48 97.9301 65.61 97.9301 64.68C97.9301 63.75 97.4701 60.74 99.7901 59.81C102.11 58.88 104.2 51.92 104.2 50.99C104.2 50.06 94.9201 49.37 100.02 45.89C105.12 42.41 106.05 40.79 102.11 41.25C98.1701 41.71 100.02 38.93 98.8601 38.7C97.7001 38.47 97.7001 36.61 96.0801 34.06C94.4601 31.51 92.1401 32.2 94.9201 29.65C97.7001 27.1 98.1701 21.53 98.1701 21.53C98.1701 21.53 81.4601 3.65998 69.4001 10.62C57.3301 17.58 43.8801 -2.37002 31.8101 27.33C19.7401 57.03 16.0301 87.19 26.7101 96.94C37.3801 106.69 32.7401 112.72 62.9101 106.69C93.0701 100.66 97.7201 96.25 97.7201 96.25L97.7001 96.23Z" fill="#29385A"/>
<path d="M147.82 168.63C147.82 168.63 153.85 167.7 155.71 169.33C157.57 170.95 158.03 166.08 161.05 166.08C164.07 166.08 166.39 167.47 167.55 163.06C168.71 158.65 169.87 163.99 171.49 164.45C173.11 164.91 175.43 166.54 177.99 162.59C179.18 160.75 181.82 162.01 200.15 141.94C210.95 130.11 207.92 126.16 207.92 126.16C207.92 126.16 208.62 122.68 215.35 121.06C222.08 119.44 224.4 121.99 226.95 119.44C229.5 116.89 229.5 122.22 234.84 121.53C240.18 120.83 234.14 126.17 240.41 127.8C246.67 129.42 248.3 132.67 251.08 128.96C253.86 125.25 258.27 121.3 260.83 122.93C263.38 124.55 282.41 160.75 282.41 160.75L287.28 186.04L298.42 214.35L285.89 239.41L256.42 261.22L232.98 259.13L173.12 243.58L153.63 220.84V201.35L147.83 168.63H147.82Z" fill="#29385A"/>
<path d="M242.49 257.96C242.49 257.96 245.74 249.37 248.06 247.52C250.38 245.66 251.08 241.72 252.7 241.49C254.32 241.26 256.41 242.42 257.8 241.26C259.19 240.1 262.21 237.78 264.06 239.4C265.92 241.02 271.49 241.49 271.72 237.54C271.95 233.59 271.26 229.42 273.34 227.79C275.43 226.17 279.14 224.77 281 223.85C282.86 222.92 289.12 229.88 289.12 231.74C289.12 233.6 294.92 257.03 294.92 257.03L304.9 269.1L296.55 276.99L270.56 283.25L254.32 276.99L242.49 257.96Z" fill="#29385A"/>
<path d="M95.1502 159.34C95.1502 159.34 109.54 167.23 113.02 161.2C116.5 155.17 121.37 151.69 124.85 153.54C128.33 155.4 128.79 161.2 131.81 159.81C134.83 158.42 138.07 159.35 139.93 161.67C141.79 163.99 145.03 165.85 148.05 162.6L150.6 162.37C150.6 162.37 148.51 167.47 151.76 168.4C151.76 168.4 150.6 176.75 148.05 177.68C148.05 177.68 151.99 176.98 152.23 179.54C152.46 182.09 154.32 183.95 156.64 181.63C158.96 179.31 158.5 187.89 156.18 189.52C156.18 189.52 163.14 199.27 165.23 198.34C167.32 197.41 170.57 195.32 170.57 195.32C170.57 195.32 172.66 199.26 169.64 202.51L172.19 206.92L167.32 205.76C167.32 205.76 165.46 208.08 165.7 210.63C165.93 213.18 161.52 211.09 161.52 211.09C161.52 211.09 162.22 215.27 164.77 215.5C167.32 215.73 165.93 219.21 162.91 219.21L159.89 226.4L142.72 259.81L77.7502 246.82L95.1502 159.34Z" fill="#29385A"/>
<path d="M101.93 249.55C101.93 249.55 109.76 250.07 111.85 250.07C113.94 250.07 112.55 253.2 117.77 250.77C122.99 248.33 119.51 256.34 126.12 254.95C132.73 253.56 133.08 252.86 133.78 248.69C134.48 244.51 139.7 246.6 139.7 246.6C139.7 246.6 142.14 250.43 143.88 246.95C145.62 243.47 140.75 238.94 144.92 235.46C149.1 231.98 155.01 228.5 155.01 225.71C155.01 222.92 161.27 224.32 163.71 227.1C166.15 229.88 168.93 231.62 172.76 233.36C176.59 235.1 178.33 240.32 183.9 239.45L185.29 237.19C185.29 237.19 194.69 240.32 197.65 238.06C200.61 235.8 204.61 239.45 206.7 237.02C208.79 234.58 210.01 239.63 211.57 237.54C213.14 235.45 213.48 234.93 216.27 235.28C219.05 235.63 222.19 233.54 222.19 233.54L224.8 237.19C224.8 237.19 222.89 234.23 225.32 234.06C227.76 233.89 230.89 232.67 230.89 231.28C230.89 231.28 232.11 234.59 236.63 233.54C236.63 233.54 236.28 237.54 238.72 237.54C241.16 237.54 238.72 241.37 240.63 241.89C242.54 242.41 242.02 245.2 240.8 245.89C239.58 246.59 238.02 249.89 238.02 249.89C238.02 249.89 239.76 251.8 241.33 251.46C242.9 251.11 244.81 251.46 246.72 253.72C248.63 255.98 250.9 258.24 253.86 257.72C256.82 257.2 256.82 258.42 254.73 263.11C252.64 267.8 259.6 275.64 263.08 275.29C266.56 274.94 269.17 283.99 269.17 283.99L247.59 316.88L201.18 316.42L155.24 336.84L108.83 315.49L77.7402 270.94L86.0902 251.45L101.93 249.54V249.55Z" fill="#29385A"/>
<path d="M174.62 162.94C174.62 162.94 175.78 162.13 175.66 160.27C175.54 158.41 176.47 160.73 177.75 160.62C179.03 160.5 178.91 156.79 178.91 156.79C178.91 156.79 182.39 157.37 182.39 156.09C182.39 154.81 182.16 150.64 183.32 149.48C184.48 148.32 189.7 143.45 189.82 141.36C189.82 141.36 193.42 141.71 193.42 140.2C193.42 138.69 194.23 132.54 197.36 132.31C200.49 132.08 204.32 125.23 206.29 125.23C208.26 125.23 212.09 129.52 211.74 131.84C211.39 134.16 210.12 135.09 210.12 136.6C210.12 138.11 207.22 140.2 208.03 140.78C208.84 141.36 210.93 143.22 209.77 145.3C209.77 145.3 213.13 145.07 213.25 147.16C213.37 149.25 214.18 151.45 217.08 151.8C217.08 151.8 217.31 155.63 219.52 155.51C221.72 155.39 218.01 159.92 218.01 161.54C218.01 163.16 219.29 161.77 220.45 161.31C221.61 160.85 223.47 168.74 221.73 169.32C219.99 169.9 217.67 170.71 216.74 170.13C215.81 169.55 211.98 169.9 211.87 170.71C211.75 171.52 209.78 170.25 208.39 171.41C207 172.57 204.79 173.61 204.21 174.19C203.63 174.77 200.61 175.35 200.61 174.54C200.61 173.73 203.86 172.45 204.55 170.83C205.25 169.21 202.11 168.28 200.61 167.81C199.1 167.35 198.64 166.07 196.78 166.07C194.92 166.07 192.49 164.79 192.02 164.79C191.55 164.79 187.96 160.85 185.76 162.24C183.56 163.63 181.93 164.33 181.12 160.85C181.12 160.85 178.22 166.07 174.62 162.94Z" fill="#29385A"/>
<path d="M282.63 175.82L280.77 169.32C280.77 169.32 269.17 163.98 266.38 161.89C263.59 159.8 261.74 154 264.06 153.07C266.38 152.14 264.76 148.89 264.76 148.89H268.7C268.7 148.89 271.02 142.62 268.7 138.68C266.38 134.74 265.22 129.17 257.1 125.22C257.1 125.22 251.3 127.54 250.14 123.36C248.98 119.18 251.42 118.49 251.42 116.05C251.42 113.61 252.46 113.79 253.68 113.79C254.9 113.79 253.85 117.79 257.33 114.66C257.33 114.66 256.29 114.14 256.11 110.14C255.93 106.14 257.15 108.57 258.55 107.01C259.95 105.45 262.73 103.88 262.73 102.31C262.73 100.74 259.95 99.5299 259.95 99.5299C259.95 99.5299 260.82 99.1799 260.3 96.3999C259.78 93.6199 259.08 91.0099 260.13 90.4799C261.17 89.9599 263.26 92.9199 265 92.2199C266.74 91.5199 269.35 93.9599 269.35 93.9599L274.05 93.7899C274.05 93.7899 278.23 89.6099 277.18 88.3999C276.13 87.1899 273.87 86.3099 273.7 84.5699C273.53 82.8299 273.35 77.6099 274.57 77.4299C275.79 77.2599 274.22 73.5999 275.96 72.0399C277.7 70.4699 276.66 66.4699 278.05 66.4699C279.44 66.4699 282.23 66.6399 282.92 62.9899C283.62 59.3399 288.31 61.0799 289.01 59.8599C289.71 58.6399 292.14 55.8599 291.97 53.0699C291.8 50.2799 298.41 49.4199 298.41 49.4199L346.44 62.8199L350.62 83.3499L329.04 134.17L326.26 159.93C326.26 159.93 296.56 202.74 282.64 175.82H282.63Z" fill="#29385A"/>
<path d="M341.39 61.6C341.39 61.6 339.48 65.6 341.22 69.43C342.96 73.26 342.26 77.09 340.18 81.61C338.09 86.13 332.87 91.01 334.26 93.79C335.65 96.57 327.3 100.4 327.3 104.58C327.3 108.76 332.17 104.58 331.13 109.1C330.09 113.62 328 114.32 328 118.15C328 121.98 322.78 125.81 325.91 131.72C329.04 137.64 323.47 142.86 325.91 144.25C328.35 145.64 334.77 153.26 334.77 153.26L390.3 131.02L431.72 103.87L429.98 62.45L349.93 48.53L341.4 61.58L341.39 61.6Z" fill="#29385A"/>
<path d="M369 88C343.8 89.2 337 85.5 340.5 81.5C342.179 79.5807 341.5 68.5 339.5 61C339.084 52.3876 340.5 46.5 340.5 46.5H384.5L437.5 63.5L434.5 83L427.5 85.5C414.5 75.5 400.5 86.5 369 88Z" fill="#C27653"/>
<path d="M292.84 258.77C292.84 258.77 285.88 254.94 287.27 246.94C288.66 238.93 283.44 241.72 283.79 237.89C284.14 234.06 283.09 226.75 286.23 226.75C289.37 226.75 289.01 217.35 286.93 216.66C284.85 215.97 276.49 214.22 278.23 207.96C279.97 201.7 283.8 199.61 272.66 197.52C261.52 195.43 271.96 187.77 277.18 184.29C282.4 180.81 276.83 174.54 284.84 173.15C292.85 171.76 286.58 178.02 290.41 178.02C294.24 178.02 288.67 172.1 292.85 171.76C297.03 171.41 300.16 169.67 300.51 164.8C300.51 164.8 305.5 164.34 305.73 162.13C305.96 159.92 305.61 159.23 306.89 159.23C308.17 159.23 308.51 156.33 306.66 154.82C304.8 153.31 307.7 152.96 308.63 153.2V148.79C308.63 148.79 305.5 148.21 306.08 145.77C306.66 143.33 307.47 146.35 308.63 145.89C309.79 145.43 309.44 140.55 310.95 140.55C312.46 140.55 313.39 142.87 316.63 142.64C319.88 142.41 319.65 143.45 321.62 142.76C323.59 142.06 326.38 141.95 327.3 142.53C328.23 143.11 339.02 155.87 339.02 155.87L333.92 213.53L341.58 233.72L292.85 258.78L292.84 258.77Z" fill="#29385A"/>
</g>
<path d="M337.5 148.52L338.44 147.4C338.44 147.4 345.05 146.01 346.45 144.62L345.23 143.23C345.23 143.23 344.19 142.19 342.45 142.19C340.71 142.19 341.58 140.1 343.32 138.71C345.06 137.32 349.76 127.75 354.98 128.62L356.72 129.66C356.72 129.66 357.94 126.53 362.64 126.53C367.34 126.53 370.65 123.05 376.21 122.53C381.77 122.01 385.43 120.62 387.35 117.66C389.26 114.7 391.35 111.4 395.18 110.35C399.01 109.31 404.23 105.65 408.41 103.21C412.59 100.77 415.55 99.7301 416.07 96.9501C416.07 96.9501 420.42 97.8201 420.42 92.2501C420.42 92.2501 418.51 90.3401 419.38 88.7701C420.25 87.2001 416.77 87.2001 416.77 85.4601C416.77 83.7201 417.12 79.0201 418.68 78.8501C420.25 78.6801 419.2 80.0701 420.07 80.0701C420.94 80.0701 422.33 78.8501 422.33 78.8501C422.33 78.8501 423.2 76.4101 420.59 76.7601C417.98 77.1101 418.15 73.4501 418.15 73.4501C418.15 73.4501 417.11 72.2301 415.71 72.7501C414.31 73.2701 414.32 70.1401 409.1 72.4001C403.88 74.6601 403.71 71.8801 403.88 74.6601C404.05 77.4401 400.92 76.0501 400.92 76.0501C400.92 76.0501 399.01 78.4901 397.44 77.0901C395.87 75.6901 392.74 72.9101 389.96 73.2601C387.18 73.6101 387.35 75.3501 385.44 75.5201C383.53 75.6901 381.44 74.8201 380.39 72.3901C379.35 69.9501 373.78 69.9501 372.04 71.8701C370.3 73.7801 364.21 73.0901 364.21 73.0901C364.21 73.0901 363.34 69.7801 364.91 69.2601C366.48 68.7401 364.74 61.7801 362.13 61.4301C359.52 61.0801 356.56 61.4301 356.56 61.4301C356.56 61.4301 354.82 57.9501 351.51 58.1201C348.2 58.2901 341.94 50.8101 341.42 57.7701V61.6001L333.24 62.3001L330.8 60.9101L329.06 62.8201L327.49 60.5601C327.49 60.5601 320.53 63.0001 319.14 61.7801C317.75 60.5601 313.57 58.3001 312.53 56.9101C311.49 55.5201 309.57 55.1701 307.66 57.0801C305.75 58.9901 304.18 56.7301 304.18 56.7301L302.44 57.9501L297.92 52.9001C297.92 52.9001 295.31 50.4601 291.83 50.2901C288.35 50.1201 287.65 48.5501 284.17 48.2001C280.69 47.8501 278.95 46.1101 278.95 44.8401C278.95 43.5701 277.44 45.0701 277.91 46.7001C278.37 48.3201 273.85 47.4001 274.43 45.3101C275.01 43.2201 276.87 42.9901 276.52 41.4801C276.17 39.9701 277.33 37.5401 274.66 37.6501C271.99 37.7701 271.99 35.3301 271.18 38.0001C271.18 38.0001 269.21 38.8101 268.74 36.1401C268.74 36.1401 268.28 35.2101 266.19 35.5601C266.19 35.5601 265.49 33.8201 263.06 33.9401C263.06 33.9401 264.51 30.8101 260.86 33.4201C257.21 36.0301 251.64 37.2501 250.07 36.3801C248.5 35.5101 246.42 35.8601 238.24 31.8601C230.06 27.8601 226.93 30.4701 226.23 33.4301C225.53 36.3901 222.75 32.9101 219.44 32.9101C216.13 32.9101 216.31 30.4701 214.57 31.1701C212.83 31.8701 212.66 27.3401 208.83 27.5201C205 27.6901 204.13 30.8301 201.17 31.0001C198.21 31.1701 200.82 27.5201 200.82 27.5201C200.82 27.5201 195.6 28.0401 193.86 29.9601C192.12 31.8701 175.41 32.4001 173.15 31.8701C170.89 31.3501 162.88 27.6901 157.31 28.7401C157.31 28.7401 155.22 25.6101 150.7 25.9601C146.18 26.3101 141.3 25.7901 141.3 25.7901C141.3 25.7901 139.04 21.9601 137.12 21.6101C135.21 21.2601 134.16 25.0901 131.55 24.9201C128.94 24.7501 125.98 25.7901 125.11 24.2201C125.11 24.2201 121.63 25.6101 118.15 25.0901C114.67 24.5701 105.45 24.2201 102.84 24.9201C100.23 25.6201 92.92 25.0901 92.92 25.0901C92.92 25.0901 89.61 22.1301 89.96 20.0401C90.31 17.9501 84.39 16.9101 83.35 19.5201C82.31 22.1301 81.78 21.0901 81.44 18.6501C81.09 16.2101 76.57 16.9101 76.05 17.9501C75.53 18.9901 72.74 22.6501 72.05 19.6901C72.05 19.6901 74.31 16.9101 73.27 15.8601C72.23 14.8101 72.05 18.1201 70.66 18.3001C69.27 18.4801 67.7 18.4701 68.75 21.2601C68.75 21.2601 65.62 21.6101 63.36 23.7001C61.1 25.7901 59.88 27.5301 61.62 27.1801C63.36 26.8301 65.27 26.1401 65.62 26.6601C65.97 27.1801 61.1 28.2301 61.79 29.2701C62.49 30.3101 64.75 28.2301 64.92 29.6201C65.09 31.0101 63.88 31.8801 63.88 31.8801L63.71 34.4901C63.71 34.4901 62.14 34.8401 61.97 32.0501C61.97 32.0501 59.88 32.9201 59.36 31.5301C59.36 31.5301 58.84 34.6601 57.1 33.2701C57.1 33.2701 53.27 36.4001 51.01 35.0101C51.01 35.0101 47.53 38.1401 44.57 35.3601C41.61 32.5801 39.35 36.9301 40.22 36.9301C41.09 36.9301 43 37.2801 41.61 39.0201C40.22 40.7601 39.52 37.9801 37.96 39.0201C36.39 40.0601 32.91 40.0601 32.74 41.4601C32.57 42.8501 35 41.6301 35.18 42.3301C35.35 43.0301 31.87 44.4201 30.83 45.4601C29.79 46.5001 31.7 47.7201 31.53 49.1101C31.36 50.5001 30.49 52.4201 31.36 52.0701C32.23 51.7201 34.32 51.0301 34.67 52.0701C35.02 53.1101 34.67 53.9801 35.71 55.2001C36.75 56.4201 33.27 58.3301 35.19 58.5101C37.1 58.6801 37.63 56.0701 39.54 56.2501C41.45 56.4201 40.41 54.5101 41.8 54.5101C43.19 54.5101 44.32 54.6001 44.58 55.5501C44.84 56.5101 41.53 58.0701 40.66 59.1201C39.79 60.1601 37.27 62.3401 37.35 64.8601C37.44 67.3801 38.05 65.9901 38.13 67.3001C38.22 68.6101 40.22 63.9901 40.83 63.9901C41.44 63.9901 43.09 61.8101 43.44 61.0301C43.79 60.2501 46.4 60.6801 45.96 62.9401C45.53 65.2001 44.57 66.8601 45.18 70.6801C45.79 74.5101 42.74 70.9401 42.57 72.1601C42.4 73.3801 42.66 74.6001 44.4 74.4201C46.14 74.2501 47.71 71.3701 48.4 71.6401C49.09 71.9101 49.44 73.4701 47.01 75.9001C44.58 78.3301 43.7 76.9401 43.62 78.1601C43.53 79.3801 46.84 80.0701 49.01 77.8101C51.19 75.5501 51.27 75.6301 52.06 77.2001C52.84 78.7701 47.62 79.7201 45.53 83.2901C43.44 86.8601 42.66 85.2901 42.66 88.4201C42.66 91.5501 43.1 94.3401 43.1 94.3401C43.1 94.3401 48.76 89.9901 50.06 87.5501C51.37 85.1101 54.41 85.8101 55.28 86.3301C56.15 86.8501 61.46 85.2001 61.89 84.3301C62.32 83.4601 64.24 83.2001 64.24 86.3301C64.24 86.3301 67.63 86.4201 67.89 88.3301C68.15 90.2401 64.58 88.8501 64.5 92.3301C64.41 95.8101 63.11 95.8101 65.2 96.7701C67.29 97.7301 71.81 97.8101 72.16 95.0301C72.51 92.2501 73.55 92.0701 73.73 93.2001C73.9 94.3301 75.3 95.4601 77.3 94.5101C79.3 93.5501 80.69 95.0301 82.69 94.8601C84.69 94.6901 92.26 99.0401 94.52 92.8601C94.52 92.8601 95.48 88.9401 98.61 91.2901C101.74 93.6401 106.62 92.7701 107.14 92.4201C107.66 92.0701 107.92 90.6801 108.97 90.7701C110.01 90.8601 110.19 93.4701 113.32 92.9501C116.45 92.4301 116.54 92.9501 116.54 95.3901C116.54 97.8301 115.06 101.74 115.76 102.87C116.46 104 117.33 103.83 120.55 103.83C123.77 103.83 130.3 106.09 123.33 116.1C116.37 126.11 115.15 121.76 113.15 122.54C111.15 123.32 110.02 124.11 110.1 125.76C110.19 127.41 108.01 131.76 104.18 131.42C104.18 131.42 108.36 136.12 107.83 138.47C107.83 138.47 106.52 141.69 107.92 145.17C109.31 148.65 106.53 150.22 106.53 150.22C106.53 150.22 108.62 150.39 107.05 153.87C105.48 157.35 107.75 158.92 107.75 158.92C107.75 158.92 105.14 160.66 105.14 163.1C105.14 163.1 100.44 162.4 100.44 165.88C100.44 169.36 103.92 167.45 104.09 169.01C104.26 170.57 106.53 174.23 104.26 178.58C102 182.93 101.13 181.36 101.13 181.36C101.13 181.36 101.83 187.62 96.78 187.8C91.73 187.97 89.12 188.67 85.64 187.45C85.64 187.45 87.73 193.37 91.38 194.41C95.03 195.45 89.64 198.41 94.51 201.37C94.51 201.37 93.47 206.42 96.95 206.59C96.95 206.59 95.21 210.07 100.95 209.37C106.69 208.67 99.91 217.55 99.91 217.55C99.91 217.55 101.3 218.25 100.61 219.46C99.91 220.68 97.13 222.42 96.43 221.55C95.73 220.68 90.69 225.9 93.82 228.34C93.82 228.34 90.69 232.69 92.6 236C94.51 239.31 93.82 242.26 96.6 242.61C99.38 242.96 95.9 247.66 102.69 243.48C102.69 243.48 105.13 242.96 101.99 249.57C98.86 256.18 99.9 251.31 96.25 252.35C92.6 253.39 92.25 258.27 92.25 258.27C92.25 258.27 90.16 264.19 88.07 263.32C88.07 263.32 87.55 267.67 86.5 268.19C85.46 268.71 82.85 270.45 87.2 275.15L88.59 284.55C88.59 284.55 102.16 281.24 108.95 287.51C115.74 293.78 119.74 296.39 120.78 300.04C121.82 303.69 117.65 304.56 124.26 307.35C130.87 310.13 124.43 311.7 125.3 314.31C126.17 316.92 130.52 321.97 130.52 321.97C130.52 321.97 132.78 323.71 135.74 323.54C138.7 323.37 138.7 329.28 144.96 329.11C151.22 328.94 149.48 324.41 151.4 324.41C153.32 324.41 151.4 317.1 159.93 313.97C168.46 310.84 166.19 311.36 168.46 310.84C170.72 310.32 173.16 312.41 178.55 307.01C183.94 301.61 183.77 303.7 187.6 303.36C191.43 303.01 195.08 304.4 199.09 302.14C203.09 299.88 206.57 303.18 209.53 303.36C212.49 303.53 215.97 303.71 218.41 301.62C220.85 299.53 230.94 302.32 234.25 304.93C237.56 307.54 238.43 299.01 242.08 299.01C245.73 299.01 249.22 298.49 250.09 301.79C250.96 305.1 255.66 301.09 257.57 295.87C259.48 290.65 263.83 277.77 268.01 277.08C272.19 276.38 277.23 272.56 277.23 271.51C277.23 270.46 282.8 268.9 283.15 270.64C283.15 270.64 285.93 269.42 288.2 269.42C290.47 269.42 293.42 269.07 296.9 268.2C296.9 268.2 293.07 264.89 293.25 263.15C293.42 261.41 296.38 254.51 298.24 254.51C300.1 254.51 298.47 252.31 298.59 250.8C298.71 249.29 300.68 245.35 301.72 245.35C302.76 245.35 304.27 244.07 303.58 240.94C302.88 237.81 307.06 238.74 307.06 238.74C307.06 238.74 308.8 233.52 311.58 233.52C314.36 233.52 317.73 232.13 317.61 229.34C317.49 226.56 323.06 227.14 324.34 225.51C325.62 223.88 327.01 224.93 326.78 223.77C326.55 222.61 326.78 222.84 324.11 220.99C321.44 219.13 319.82 219.13 319.01 219.13C318.2 219.13 308.68 211.12 312.75 204.74C312.75 204.74 306.02 196.97 312.4 187.57C318.78 178.17 318.08 181.31 318.78 178.17C319.48 175.04 322.84 170.16 324.12 169.82C325.4 169.47 327.25 166.46 328.99 162.63C330.41 159.51 333.9 156.01 334.84 153.31C335.44 151.57 336.39 149.97 337.57 148.55L337.5 148.52Z" stroke="white" stroke-width="2" stroke-linecap="round" stroke-linejoin="round"/>
<path d="M364.63 159.87C364.63 159.87 361.66 157.95 363.58 156.38C365.5 154.81 367.24 156.9 367.24 153.94C367.24 150.98 368.29 151.67 373 147.83C376.44 145.03 377.65 144.64 379.07 144.64C380.13 144.64 381.14 145.14 381.78 145.99C381.93 146.2 382.09 146.41 382.26 146.61C384.12 148.93 380.34 148.7 380.86 149.05C381.38 149.4 385.57 151.67 386.62 150.1C387.67 148.53 391.51 151.32 390.28 153.42C389.06 155.51 388.36 155.17 388.71 157.43C389.06 159.7 383.82 167.03 381.38 167.03C378.94 167.03 378.76 166.86 378.76 164.41C378.76 164.41 373.18 166.16 373 163.54C372.83 160.92 370.73 158.83 367.94 160.57C365.15 162.32 364.62 159.87 364.62 159.87H364.63Z" fill="white"/>
<path d="M400.24 139.45C400.24 139.45 397.97 139.45 397.97 140.67C397.97 141.89 400.41 140.84 400.41 142.42C400.41 144 400.41 143.99 403.03 143.99C405.65 143.99 411.06 148.88 411.41 146.26C411.76 143.64 410.71 143.29 409.14 140.68C407.57 138.06 400.24 139.46 400.24 139.46V139.45Z" fill="white"/>
<path d="M345.09 180.08C345.09 180.08 345.09 177.99 346.14 176.94C347.19 175.89 347.01 173.8 349.46 173.1C351.9 172.4 354.35 171.53 354.35 174.5C354.35 177.47 352.43 176.42 352.26 177.82C352.09 179.22 349.64 177.99 349.29 180.44C348.94 182.88 347.02 178.52 345.1 180.09L345.09 180.08Z" fill="white"/>
<path d="M351.38 184.97C351.38 184.97 349.81 183.57 349.63 185.14C349.46 186.71 348.58 189.33 349.98 188.46C351.38 187.59 353.64 188.98 353.47 187.59C353.3 186.19 351.38 184.97 351.38 184.97Z" fill="white"/>
<path d="M41.2402 331.65C41.2402 331.65 41.7702 328.44 39.4602 328.08C37.1502 327.72 41.7802 327.19 44.0902 328.08C46.4102 328.97 49.9702 327.72 50.8602 325.76C51.7502 323.8 54.4302 323.8 55.8502 323.26C57.2802 322.73 57.4502 323.97 54.4202 325.4C54.4202 325.4 54.0602 327.72 51.5702 327.9C51.5702 327.9 52.4602 329.86 51.0402 330.75C49.6102 331.64 51.4002 335.74 46.2302 337.17C46.2302 337.17 44.0902 338.77 43.9102 335.74C43.7302 332.71 41.2402 333.6 41.2402 331.64V331.65Z" fill="white"/>
<path d="M30.14 333.79C30.14 333.79 30.54 332.59 31.74 332.59C32.94 332.59 34.95 332.46 34.68 333.66C34.41 334.86 34.28 337 31.87 336.73C29.46 336.46 30.13 333.79 30.13 333.79H30.14Z" fill="white"/>
<path d="M17.3101 322.64C17.2501 321.68 17.0801 320.73 16.8001 319.81C16.5801 319.08 16.3701 318.17 16.3701 317.35C16.3701 315.61 16.5001 315.48 18.6401 316.15C20.7801 316.82 19.1701 315.08 20.6501 315.21C22.1201 315.34 22.6601 318.69 21.7201 318.95C20.7801 319.22 20.5201 321.49 20.5201 322.16C20.5201 322.83 19.9901 325.1 18.5101 325.1C17.6401 325.1 17.3801 323.75 17.3101 322.64Z" fill="white"/>
<path d="M58.09 343.71C58.09 343.71 57.29 341.44 59.43 339.7C61.57 337.96 60.1 335.82 62.24 335.69C64.38 335.56 63.98 336.76 65.98 336.76C67.98 336.76 67.05 338.63 67.18 340.24C67.31 341.85 67.98 344.52 66.11 345.45C64.24 346.39 64.64 348.39 63.3 347.99C61.96 347.59 58.35 346.52 58.09 343.71Z" fill="white"/>
<path d="M73.9199 332.25C73.9199 332.25 80.1999 331.45 80.1999 326.9C80.1999 322.35 81.6699 326.9 83.8099 320.22C85.9499 313.54 87.1499 316.61 88.2199 316.61C89.2899 316.61 88.7499 321.56 88.7499 321.56C88.7499 321.56 87.8099 322.76 88.6199 323.57C89.4199 324.37 86.8799 328.92 83.6699 329.18C80.4599 329.45 77.6499 333.99 77.6499 333.99C77.6499 333.99 73.7699 334.93 73.9099 332.25H73.9199Z" fill="white"/>
<path d="M90.1 312.73C90.1 312.73 87.03 313.67 88.09 311.39C89.16 309.12 87.29 308.18 90.23 307.51C93.17 306.84 95.44 307.91 95.44 306.44C95.44 304.97 96.24 304.03 96.64 304.17L97.04 304.3C97.04 304.3 98.64 304.3 97.44 307.11C96.58 309.12 95.24 310.45 93.61 311.09C92.62 311.48 91.68 311.99 90.77 312.54C90.58 312.65 90.36 312.73 90.09 312.73H90.1Z" fill="white"/>
<path d="M12.7201 344.66C12.7201 344.66 10.9401 343.23 12.7201 343.14C14.5001 343.05 14.0601 341 16.2001 341.27C18.3401 341.54 15.4901 343.14 15.4901 344.92C15.4901 346.7 14.9601 346.7 12.7301 344.65L12.7201 344.66Z" fill="white"/>
<path d="M106.12 298.62H0.5V360.91H106.12V298.62Z" stroke="white" stroke-miterlimit="10"/>
</g>
<path d="M140.75 8.04547C137.248 8.06998 133.574 8.90819 129.944 10.8286C114.017 20.0412 120.429 33.3622 121.595 36.876C123.668 39.3112 126.456 40.1377 129.013 41.4839L128.915 39.4718L130.78 40.1601L130.639 38.6664L132.78 38.6625L129.468 34.9431C130.445 33.609 130.739 30.817 130.983 29.3606L136.892 30.6433L142.477 30.0018C142.79 33.0371 143.263 36.0725 144.49 39.1077L151.439 42.9551L151.068 41.0421L153.432 41.4561L153.197 39.7746L155.531 39.8771L150.985 35.7091L151.031 31.5482C152.468 29.9637 155.511 29.8548 156.226 30.33C156.032 32.0026 156.6 32.7259 157.154 34.2342C157.864 36.1648 159.455 37.4801 160.921 38.8511L161.127 36.9814L163.365 37.3964L163.225 35.7634L165.661 36.0297L163.258 32.3103C163.307 30.2367 163.313 28.1632 163.034 26.0896C162.694 26.6564 162.193 27.1455 161.648 27.5464C160.606 28.3124 159.315 28.8234 158.037 28.7742C157.156 28.7402 153.781 29.1407 151.975 26.5172L153.452 25.5002C154.624 27.2027 156.753 26.9304 158.106 26.9826C158.808 27.0096 159.836 26.6532 160.586 26.1019C161.336 25.5505 161.716 24.8675 161.688 24.4859L161.655 24.04L161.992 23.7455C161.992 23.7455 162.385 23.4 162.777 22.9281C163.17 22.4564 163.469 21.8318 163.472 21.6838C163.473 21.6252 163.353 21.3295 163.129 20.8799C162.906 20.4304 162.597 19.6758 162.943 18.8927C163.178 18.3615 163.453 18.0688 163.598 17.8139C163.739 17.5671 163.839 17.3154 163.851 16.7325C163.809 16.3188 163.737 16.2102 163.572 16.0728C163.401 15.9293 163.013 15.7561 162.403 15.5625C162.085 15.4616 162.055 15.5065 161.8 15.7125C161.545 15.9185 161.243 16.3284 160.8 16.7272L160.479 17.0164L160.053 16.9454C157.988 16.6016 155.96 16.751 154.056 17.5039L153.699 17.6449L153.351 17.4846C152.122 16.9183 151.184 16.407 150.641 16.2911C150.369 16.2332 150.234 16.2483 150.093 16.3102C149.952 16.3719 149.754 16.5183 149.498 16.9006C149.188 17.3637 149.019 18.1061 149.126 18.7402C149.233 19.3744 149.531 19.8718 150.201 20.1643L149.483 21.8073C148.245 21.2665 147.545 20.1492 147.358 19.0384C147.171 17.9275 147.411 16.7945 148.008 15.903C148.388 15.3356 148.834 14.9044 149.374 14.6678C149.914 14.4311 150.499 14.4273 151.015 14.5374C151.943 14.7353 152.794 15.2224 153.782 15.7003C154.986 15.2711 156.227 15.0453 157.478 14.9964C153.62 11.0176 147.675 8.09797 141.088 8.04567C140.976 8.04474 140.863 8.04468 140.75 8.04547ZM159.524 18.2029C160.197 18.2029 160.742 18.8633 160.742 19.6779C160.742 20.4924 160.197 21.1528 159.524 21.1527C158.852 21.1527 158.307 20.4923 158.307 19.6779C158.307 18.8634 158.852 18.203 159.524 18.2029ZM154.67 18.7157C155.342 18.7158 155.888 19.3761 155.888 20.1906C155.888 21.0052 155.343 21.6655 154.67 21.6656C153.998 21.6656 153.452 21.0052 153.452 20.1906C153.452 19.376 153.998 18.7157 154.67 18.7157ZM157.768 22.7982C158.661 22.7816 159.402 23.1725 159.422 23.6713C159.434 23.9759 159.17 24.2651 158.72 24.4404L158.769 26.0215L156.977 26.0778L156.927 24.4665C156.475 24.3068 156.197 24.0315 156.185 23.7317C156.165 23.2328 156.874 22.8149 157.768 22.7982ZM131.886 31.3708L132.62 35.1245L136.459 37.6684L136.218 36.1842L137.929 36.4441L137.386 35.2521L139.244 35.3487L137.206 33.4197L137.067 32.7298L131.886 31.3708Z" fill="white"/>
<path d="M370.75 51.0455C367.248 51.07 363.574 51.9082 359.944 53.8286C344.017 63.0412 350.429 76.3622 351.595 79.876C353.668 82.3112 356.456 83.1377 359.013 84.4839L358.915 82.4718L360.78 83.1601L360.639 81.6664L362.78 81.6625L359.468 77.9431C360.445 76.609 360.739 73.817 360.983 72.3606L366.892 73.6433L372.477 73.0018C372.79 76.0371 373.263 79.0725 374.49 82.1077L381.439 85.9551L381.068 84.0421L383.432 84.4561L383.197 82.7746L385.531 82.8771L380.985 78.7091L381.031 74.5482C382.468 72.9637 385.511 72.8548 386.226 73.33C386.032 75.0026 386.6 75.7259 387.154 77.2342C387.864 79.1648 389.455 80.4801 390.921 81.8511L391.127 79.9814L393.365 80.3964L393.225 78.7634L395.661 79.0297L393.258 75.3103C393.307 73.2367 393.313 71.1632 393.034 69.0896C392.694 69.6564 392.193 70.1455 391.648 70.5464C390.606 71.3124 389.315 71.8234 388.037 71.7742C387.156 71.7402 383.781 72.1407 381.975 69.5172L383.452 68.5002C384.624 70.2027 386.753 69.9304 388.106 69.9826C388.808 70.0096 389.836 69.6532 390.586 69.1019C391.336 68.5505 391.716 67.8675 391.688 67.4859L391.655 67.04L391.992 66.7455C391.992 66.7455 392.385 66.4 392.777 65.9281C393.17 65.4564 393.469 64.8318 393.472 64.6838C393.473 64.6252 393.353 64.3295 393.129 63.8799C392.906 63.4304 392.597 62.6758 392.943 61.8927C393.178 61.3615 393.453 61.0688 393.598 60.8139C393.739 60.5671 393.839 60.3154 393.851 59.7325C393.809 59.3188 393.737 59.2102 393.572 59.0728C393.401 58.9293 393.013 58.7561 392.403 58.5625C392.085 58.4616 392.055 58.5065 391.8 58.7125C391.545 58.9185 391.243 59.3284 390.8 59.7272L390.479 60.0164L390.053 59.9454C387.988 59.6016 385.96 59.751 384.056 60.5039L383.699 60.6449L383.351 60.4846C382.122 59.9183 381.184 59.407 380.641 59.2911C380.369 59.2332 380.234 59.2483 380.093 59.3102C379.952 59.3719 379.754 59.5183 379.498 59.9006C379.188 60.3637 379.019 61.1061 379.126 61.7402C379.233 62.3744 379.531 62.8718 380.201 63.1643L379.483 64.8073C378.245 64.2665 377.545 63.1492 377.358 62.0384C377.171 60.9275 377.411 59.7945 378.008 58.903C378.388 58.3356 378.834 57.9044 379.374 57.6678C379.914 57.4311 380.499 57.4273 381.015 57.5374C381.943 57.7353 382.794 58.2224 383.782 58.7003C384.986 58.2711 386.227 58.0453 387.478 57.9964C383.62 54.0176 377.675 51.098 371.088 51.0457C370.976 51.0447 370.863 51.0447 370.75 51.0455ZM389.524 61.2029C390.197 61.2029 390.742 61.8633 390.742 62.6779C390.742 63.4924 390.197 64.1528 389.524 64.1527C388.852 64.1527 388.307 63.4923 388.307 62.6779C388.307 61.8634 388.852 61.203 389.524 61.2029ZM384.67 61.7157C385.342 61.7158 385.888 62.3761 385.888 63.1906C385.888 64.0052 385.343 64.6655 384.67 64.6656C383.998 64.6656 383.452 64.0052 383.452 63.1906C383.452 62.376 383.998 61.7157 384.67 61.7157ZM387.768 65.7982C388.661 65.7816 389.402 66.1725 389.422 66.6713C389.434 66.9759 389.17 67.2651 388.72 67.4404L388.769 69.0215L386.977 69.0778L386.927 67.4665C386.475 67.3068 386.197 67.0315 386.185 66.7317C386.165 66.2328 386.874 65.8149 387.768 65.7982ZM361.886 74.3708L362.62 78.1245L366.459 80.6684L366.218 79.1842L367.929 79.4441L367.386 78.2521L369.244 78.3487L367.206 76.4197L367.067 75.7298L361.886 74.3708Z" fill="white"/>
<defs>
<clipPath id="clip0_2577_914">
<rect width="431.71" height="352.41" fill="white" transform="translate(0 9)"/>
</clipPath>
</defs>
</svg>
