<svg width="69" height="85" viewBox="0 0 69 85" fill="none" xmlns="http://www.w3.org/2000/svg">
<path fill-rule="evenodd" clip-rule="evenodd" d="M19.8815 30.7755H15.3632C14.9099 30.7755 14.4983 30.9625 14.1993 31.2625C13.9004 31.5626 13.7142 31.9758 13.7142 32.4308C13.7142 32.8858 13.9004 33.299 14.1993 33.5991C14.4982 33.8991 14.9099 34.0861 15.3632 34.0861H15.3951C15.939 34.0861 16.4315 34.3074 16.7893 34.6665C17.147 35.0256 17.3676 35.52 17.3676 36.066V36.2726C17.3676 36.7153 17.2206 37.1236 16.9755 37.4556C16.7256 37.7901 16.3679 38.0459 15.9538 38.1688C15.177 38.4 14.5302 38.8624 14.0817 39.4674C13.6333 40.0725 13.3785 40.8251 13.3785 41.6416V45.7465H37.6684V44.4897C37.6684 44.015 38.0506 43.6313 38.5235 43.6313C38.9965 43.6313 39.3787 44.015 39.3787 44.4897V45.7465H42.3044V41.6416C42.3044 40.8226 42.0495 40.0725 41.6011 39.4674C41.1503 38.86 40.5059 38.4 39.7291 38.1688C39.315 38.0459 38.9572 37.7901 38.7073 37.4556C38.4623 37.126 38.3153 36.7153 38.3153 36.2726V36.066C38.3153 35.52 38.5358 35.0256 38.8936 34.6665C39.2513 34.3074 39.7438 34.0861 40.2878 34.0861H40.3197C40.773 34.0861 41.1846 33.8991 41.4836 33.5991C41.7825 33.299 41.9687 32.8858 41.9687 32.4308C41.9687 31.9758 41.7825 31.5626 41.4836 31.2625C41.1846 30.9625 40.773 30.7755 40.3197 30.7755H32.9592V40.6355C32.9592 41.4029 32.6481 42.0989 32.1433 42.6056C31.641 43.1098 30.9476 43.4246 30.1806 43.4246C29.4161 43.4246 28.7227 43.1123 28.2179 42.6056C27.7156 42.1014 27.402 41.4054 27.402 40.6355V31.7074C27.402 31.5426 27.3358 31.395 27.228 31.2844C27.1202 31.1761 26.9707 31.1097 26.8066 31.1097H26.0323C25.8681 31.1097 25.7211 31.1761 25.6108 31.2844C25.503 31.3926 25.4368 31.5426 25.4368 31.7074V35.6057C25.4368 36.3731 25.1256 37.0691 24.6209 37.5757C24.1186 38.0799 23.4227 38.3948 22.6582 38.3948C21.8937 38.3948 21.2003 38.0824 20.6955 37.5757C20.1932 37.0715 19.8796 36.373 19.8796 35.6057V30.7752L19.8815 30.7755ZM15.3632 29.0588H19.8815V19.8014L19.6169 18.8102C19.4184 18.0674 19.5409 17.3099 19.8987 16.6876L19.9011 16.6852H19.8987C20.2564 16.0629 20.8494 15.5784 21.5918 15.3792C22.0059 15.2685 22.4249 15.2587 22.8218 15.3325C22.8365 14.8627 22.9689 14.4102 23.1967 14.0142C23.5545 13.3894 24.1474 12.9025 24.8899 12.7057H24.8923C25.6151 12.5114 26.3551 12.6246 26.9677 12.9664C27.3181 12.3786 27.8816 11.9187 28.58 11.7145C28.6167 11.7022 28.6535 11.6924 28.6903 11.685C29.4131 11.5055 30.1457 11.6309 30.751 11.9826C31.1479 12.2138 31.491 12.5385 31.736 12.9393C32.0423 12.6737 32.4098 12.472 32.8239 12.3614C33.5664 12.1621 34.321 12.2851 34.941 12.6442C34.9606 12.654 34.9777 12.6663 34.9949 12.6786C35.5756 13.0328 36.0289 13.596 36.2298 14.2945L53.9183 9.53786C54.5872 9.35832 55.2708 9.46899 55.832 9.79365C56.3956 10.1208 56.8342 10.6594 57.013 11.3333L57.2556 12.2359C57.4345 12.9098 57.3242 13.5935 57.0008 14.1568C56.6749 14.7225 56.1383 15.1628 55.4669 15.3423L37.7809 20.0989C37.9598 20.8269 37.8373 21.5648 37.4869 22.1723L37.4845 22.1748H37.4869C37.1292 22.797 36.5362 23.2815 35.7938 23.4807C35.3797 23.5914 34.9607 23.6037 34.5638 23.5275C34.5491 23.9948 34.4167 24.4497 34.1889 24.8458C33.9071 25.3328 33.4832 25.7386 32.9564 25.987V29.0613H40.3168C41.2406 29.0613 42.081 29.4401 42.6887 30.05C43.2963 30.66 43.6737 31.5036 43.6737 32.4308C43.6737 33.3581 43.2963 34.2016 42.6887 34.8116C42.081 35.4215 41.2405 35.8003 40.3168 35.8003H40.285C40.2139 35.8003 40.1477 35.8298 40.1012 35.8765C40.0546 35.9232 40.0252 35.9896 40.0252 36.061V36.2676C40.0252 36.3266 40.0448 36.3807 40.0767 36.4225C40.111 36.4692 40.1575 36.5037 40.2114 36.5184C41.3582 36.8603 42.3089 37.5391 42.9729 38.4344C43.6394 39.3321 44.0167 40.4389 44.0167 41.6366V60.7717C44.0167 62.2424 43.4189 63.578 42.4559 64.5446C41.4929 65.5112 40.1625 66.1113 38.6971 66.1113H16.9854C15.5201 66.1113 14.1896 65.5112 13.2266 64.5446C12.2636 63.578 11.6658 62.2425 11.6658 60.7717V41.6366C11.6658 40.4413 12.0456 39.3321 12.7096 38.4344C13.3736 37.5391 14.3243 36.8603 15.4711 36.5184C15.5225 36.5037 15.5691 36.4692 15.6058 36.4225C15.6377 36.3807 15.6573 36.3266 15.6573 36.2676V36.061C15.6573 35.9896 15.6279 35.9232 15.5813 35.8765C15.5348 35.8298 15.4686 35.8003 15.3976 35.8003H15.3657C14.4419 35.8003 13.6015 35.4215 12.9939 34.8116C12.3862 34.2016 12.0088 33.358 12.0088 32.4308C12.0088 31.5035 12.3862 30.66 12.9939 30.05C13.6015 29.4401 14.442 29.0613 15.3657 29.0613L15.3632 29.0588ZM13.3736 47.461V60.772C13.3736 61.7705 13.7803 62.6756 14.4321 63.3323C15.0863 63.989 15.988 64.3948 16.9828 64.3948H38.6896C39.6844 64.3948 40.5861 63.9865 41.2404 63.3323C41.8946 62.6756 42.2989 61.7705 42.2989 60.772V47.461H39.3732V49.6671C39.3732 50.1418 38.991 50.5255 38.518 50.5255C38.0451 50.5255 37.6629 50.1418 37.6629 49.6671V47.461L13.3755 47.4585L13.3736 47.461ZM26.5319 23.0679C26.6838 23.6237 26.8284 24.182 26.9778 24.7378C27.0513 25.0133 27.2253 25.2371 27.4483 25.3773C27.4605 25.3847 27.4728 25.3896 27.485 25.397C27.7252 25.5372 28.0192 25.5839 28.3059 25.5052C28.5607 25.4363 28.7714 25.2814 28.9111 25.0797C29.0532 24.8756 29.1267 24.6198 29.1022 24.3566C29.0998 24.3222 29.0949 24.2927 29.09 24.2632C29.0851 24.2287 29.0777 24.1992 29.0704 24.1722L26.6691 15.1729C26.6618 15.1483 26.6544 15.1212 26.6471 15.0942C26.5637 14.8187 26.3824 14.6023 26.1545 14.4694C25.9242 14.3366 25.6424 14.2874 25.3656 14.3514C25.3435 14.3588 25.3215 14.3637 25.2969 14.3686C25.0225 14.4522 24.8069 14.6342 24.6746 14.863C24.5349 15.104 24.4884 15.3991 24.5668 15.6894L26.5368 23.0655L26.5319 23.0679ZM24.775 24.337C24.9122 24.0959 24.9588 23.8032 24.8828 23.5155L23.3587 17.8045C23.2828 17.5168 23.0941 17.2856 22.8515 17.1454V17.1429C22.6114 17.0052 22.3198 16.9585 22.0307 17.0347C21.744 17.111 21.5137 17.3003 21.374 17.5438H21.3715C21.2343 17.7849 21.1878 18.0775 21.2637 18.3678L21.5455 19.4278C21.5553 19.4573 21.5627 19.4868 21.57 19.5188L22.7878 24.0787C22.8638 24.3689 23.0524 24.6001 23.2901 24.7379C23.5302 24.8781 23.8243 24.9248 24.1134 24.8461C24.4001 24.7698 24.6304 24.5805 24.7701 24.337L24.775 24.337ZM25.6473 25.9233C25.8825 26.3021 26.2035 26.6169 26.576 26.8456C26.5931 26.8579 26.6103 26.8677 26.6299 26.88C27.2498 27.2391 28.0069 27.3621 28.7469 27.1629C29.4036 26.9858 29.9426 26.5849 30.3078 26.061C30.3445 26.0069 30.3813 25.9528 30.4156 25.8962C30.6729 26.0389 30.9497 26.1422 31.2413 26.1987V40.6361C31.2413 40.9288 31.1213 41.1969 30.9277 41.3912C30.7341 41.5855 30.467 41.706 30.1755 41.706C29.8839 41.706 29.6168 41.5855 29.4232 41.3912C29.2297 41.1969 29.1096 40.9288 29.1096 40.6361V31.708C29.1096 31.071 28.8499 30.4905 28.4333 30.0724C28.0168 29.6543 27.4385 29.3936 26.8039 29.3936H26.0296C25.3949 29.3936 24.8167 29.6543 24.4001 30.0724C23.9835 30.4905 23.7238 31.0709 23.7238 31.708V35.6063C23.7238 35.899 23.6038 36.1671 23.4102 36.3613C23.2166 36.5556 22.9495 36.6762 22.658 36.6762C22.3664 36.6762 22.0993 36.5556 21.9057 36.3613C21.7122 36.167 21.5921 35.899 21.5921 35.6063V25.456C21.8224 25.7684 22.114 26.0242 22.4448 26.2184C23.0647 26.5775 23.8194 26.7005 24.5594 26.5013C24.9735 26.3906 25.3435 26.1889 25.6498 25.9258L25.6473 25.9233ZM30.8444 15.79C30.6925 15.2563 30.5209 14.6562 30.3984 14.1201C30.3225 13.8299 30.1338 13.5987 29.8961 13.4609C29.656 13.3207 29.3619 13.274 29.0728 13.3527C28.7837 13.4314 28.5534 13.6183 28.4161 13.8569L28.4137 13.8594H28.4161C28.2765 14.1004 28.2299 14.3955 28.3059 14.6833C29.0973 17.7011 29.9157 20.7139 30.7219 23.7292C30.7978 24.0194 30.9865 24.2506 31.2242 24.3883L31.2266 24.3908V24.3883C31.43 24.5064 31.6726 24.558 31.9176 24.5236C31.9397 24.5187 31.9617 24.5162 31.9838 24.5113C32.0058 24.5064 32.0279 24.5015 32.0499 24.4966C32.3391 24.4203 32.5694 24.2309 32.7066 23.9924C32.8463 23.7513 32.8929 23.4562 32.8145 23.166L30.8444 15.79ZM32.6037 14.521C32.4665 14.762 32.4175 15.0547 32.4934 15.3424L34.0175 21.0534C34.091 21.3288 34.265 21.5527 34.488 21.6928C34.5002 21.7002 34.5125 21.7051 34.5247 21.7125C34.7648 21.8527 35.0589 21.8994 35.3456 21.8207C35.6322 21.7445 35.8626 21.5551 36.0023 21.3116H36.0047C36.1419 21.0706 36.1885 20.7779 36.1125 20.4877L34.5884 14.7792C34.5149 14.5037 34.341 14.2799 34.118 14.1398C34.1057 14.1324 34.0935 14.1275 34.0812 14.1201C33.8411 13.9799 33.5471 13.9331 33.2604 14.0119C32.9859 14.0856 32.763 14.2603 32.6233 14.4841C32.616 14.4964 32.611 14.5087 32.6037 14.521ZM36.6663 15.945L37.3328 18.4389L55.0187 13.6822C55.2392 13.6232 55.4132 13.4806 55.5161 13.301C55.6215 13.119 55.6558 12.8952 55.597 12.6738L55.3691 11.8155C55.3618 11.7909 55.3544 11.7638 55.3471 11.7392C55.2833 11.5351 55.1486 11.3703 54.9771 11.2719C54.8055 11.1711 54.5948 11.1342 54.3841 11.1809C54.3596 11.1883 54.3326 11.1957 54.3081 11.2006L36.6663 15.945ZM37.6611 53.6491V59.4387C37.6611 59.9134 38.0433 60.2971 38.5162 60.2971C38.9891 60.2971 39.3714 59.9134 39.3714 59.4387V53.6491C39.3714 53.1744 38.9891 52.7907 38.5162 52.7907C38.0433 52.7907 37.6611 53.1744 37.6611 53.6491Z" fill="white"/>
</svg>
