<svg width="47" height="35" viewBox="0 0 47 35" fill="none" xmlns="http://www.w3.org/2000/svg">
<path d="M21.7498 0.0454733C18.2481 0.0699772 14.574 0.90819 10.9438 2.82856C-4.98342 12.0412 1.42934 25.3622 2.59526 28.876C4.66813 31.3112 7.4562 32.1377 10.0131 33.4839L9.91546 31.4718L11.7801 32.1601L11.6393 30.6664L13.7796 30.6625L10.4676 26.9431C11.4454 25.609 11.7386 22.817 11.9827 21.3606L17.8924 22.6433L23.4773 22.0018C23.7902 25.0371 24.2634 28.0725 25.4904 31.1077L32.4391 34.9551L32.0682 33.0421L34.4318 33.4561L34.1971 31.7746L36.5306 31.8771L31.9845 27.7091L32.031 23.5482C33.4682 21.9637 36.511 21.8548 37.2264 22.33C37.0315 24.0026 37.5998 24.7259 38.1541 26.2342C38.8636 28.1648 40.4549 29.4801 41.9205 30.8511L42.1273 28.9814L44.3649 29.3964L44.2254 27.7634L46.6614 28.0297L44.2585 24.3103C44.3069 22.2367 44.3129 20.1632 44.0338 18.0896C43.6937 18.6564 43.1934 19.1455 42.648 19.5464C41.606 20.3124 40.3151 20.8234 39.037 20.7742C38.1561 20.7402 34.7814 21.1407 32.975 18.5172L34.4518 17.5002C35.624 19.2027 37.7527 18.9304 39.106 18.9826C39.8079 19.0096 40.836 18.6532 41.586 18.1019C42.3359 17.5505 42.7161 16.8675 42.688 16.4859L42.6552 16.04L42.9915 15.7455C42.9915 15.7455 43.3845 15.4 43.7774 14.9281C44.1702 14.4564 44.4687 13.8318 44.4715 13.6838C44.4726 13.6252 44.3531 13.3295 44.1295 12.8799C43.9059 12.4304 43.5974 11.6758 43.9431 10.8927C44.1777 10.3615 44.4529 10.0688 44.5983 9.81387C44.7391 9.56713 44.839 9.31542 44.8509 8.73251C44.8093 8.31883 44.7365 8.21016 44.5725 8.07279C44.4009 7.92926 44.013 7.75614 43.4028 7.5625C43.0851 7.46159 43.0545 7.50651 42.7997 7.71251C42.5449 7.9185 42.2429 8.32839 41.7999 8.72723L41.479 9.01639L41.0529 8.94537C38.9883 8.60162 36.9595 8.75104 35.0559 9.50388L34.6991 9.64493L34.3508 9.48456C33.1222 8.91828 32.1843 8.40698 31.641 8.29114C31.3692 8.23317 31.2344 8.24831 31.0933 8.31016C30.9523 8.37192 30.7542 8.51835 30.4981 8.90065C30.1881 9.36373 30.019 10.1061 30.126 10.7402C30.233 11.3744 30.5311 11.8718 31.2009 12.1643L30.4832 13.8073C29.2451 13.2665 28.5452 12.1492 28.3579 11.0384C28.1707 9.92752 28.4114 8.79446 29.0085 7.90296C29.3885 7.33559 29.8338 6.90438 30.3741 6.6678C30.9143 6.43113 31.4987 6.42735 32.0149 6.53742C32.9435 6.73534 33.7941 7.22243 34.7823 7.70025C35.986 7.27114 37.2269 7.04532 38.4776 6.99642C34.6203 3.01762 28.6747 0.0979681 22.0882 0.0456731C21.9757 0.0447435 21.8629 0.0446764 21.7498 0.0454733ZM40.5242 10.2029C41.1968 10.2029 41.7419 10.8633 41.7419 11.6779C41.7419 12.4924 41.1968 13.1528 40.5243 13.1527C39.8519 13.1527 39.3068 12.4923 39.3068 11.6779C39.3068 10.8634 39.8518 10.203 40.5242 10.2029ZM35.6701 10.7157C36.3424 10.7158 36.8876 11.3761 36.8876 12.1906C36.8876 13.0052 36.3425 13.6655 35.6701 13.6656C34.9976 13.6656 34.4524 13.0052 34.4524 12.1906C34.4524 11.376 34.9976 10.7157 35.6701 10.7157ZM38.7675 14.7982C39.6613 14.7816 40.4019 15.1725 40.4217 15.6713C40.4337 15.9759 40.1697 16.2651 39.7198 16.4404L39.7693 18.0215L37.9773 18.0778L37.9268 16.4665C37.4751 16.3068 37.1972 16.0315 37.185 15.7317C37.1652 15.2328 37.8737 14.8149 38.7675 14.7982ZM12.8862 23.3708L13.6198 27.1245L17.4593 29.6684L17.218 28.1842L18.9291 28.4441L18.3855 27.2521L20.2439 27.3487L18.2058 25.4197L18.0669 24.7298L12.8862 23.3708Z" fill="white"/>
</svg>
