<svg width="270" height="788" viewBox="0 0 270 788" fill="none" xmlns="http://www.w3.org/2000/svg">
<g clip-path="url(#clip0_1762_110)">
<g opacity="0.16">
<path fill-rule="evenodd" clip-rule="evenodd" d="M428.751 125.706C424.323 101.983 407.731 84.3559 386.526 79.2932C385.361 79.0101 384.328 78.9775 383.066 78.7379C380.204 78.1718 376.57 77.5077 373.067 77.9105C372.958 77.9105 372.806 77.9105 372.817 77.9105C370.042 78.248 367.246 78.346 364.298 78.8795C361.48 79.3803 358.607 80.4037 356.029 81.3618C355.398 81.6013 354.027 82.6465 353.309 82.4723L353.189 82.1893C349.805 78.8359 346.998 74.7531 343.43 71.5631C335.291 64.2468 323.171 58.9664 308.744 58.9881C302.847 58.9881 297.853 60.3382 292.696 61.1983C295.427 49.6794 288.942 39.1512 282.936 35.0902C280.619 33.5224 277.964 32.6079 275.277 31.3558V21.2741H285.156V10.637H275.277C275.277 7.14216 275.277 3.25534 275.157 0H264.788C264.669 3.25534 264.669 7.14216 264.669 10.637H254.79V21.2741H264.669V31.3558C261.981 32.6079 259.327 33.5115 257.009 35.0902C251.003 39.1512 244.53 49.6685 247.261 61.1983C242.093 60.3382 237.11 58.999 231.213 58.9881C216.796 58.9664 204.676 64.2359 196.527 71.5631C192.958 74.764 190.162 78.8359 186.767 82.1893L186.648 82.4723C185.93 82.6465 184.559 81.6013 183.928 81.3618C181.349 80.4037 178.477 79.3803 175.659 78.8795C172.71 78.346 169.914 78.248 167.14 77.9105C167.162 77.9105 166.998 77.9105 166.89 77.9105C163.386 77.5077 159.752 78.1718 156.891 78.7379C155.629 78.9884 154.595 79.0101 153.431 79.2932C132.226 84.3559 115.644 101.983 111.205 125.706C110.357 130.257 109.976 135.951 110.346 141.45C112 166.175 119.692 182.833 128.374 199.599C132.204 207.025 136.621 216.159 143.182 220.46C142.203 222.006 140.973 223.497 140.222 225.305C138.514 229.42 138.59 235.103 139.972 239.393C145.108 255.202 168.772 259.23 183.188 250.302C189.596 246.328 193.078 241.668 194.046 231.935C206.003 244.673 231.985 244.118 241.57 229.17C242.778 227.275 243.496 225.065 244.29 222.681C245.966 225.174 247.522 227.82 249.73 229.725C254.866 234.178 262.406 236.421 269.967 236.475C277.529 236.421 285.069 234.178 290.204 229.725C292.402 227.82 293.958 225.174 295.644 222.681C296.439 225.065 297.157 227.275 298.364 229.17C307.95 244.118 333.931 244.673 345.889 231.935C346.857 241.679 350.338 246.339 356.747 250.302C371.163 259.241 394.827 255.212 399.963 239.393C401.344 235.103 401.42 229.42 399.712 225.305C398.962 223.497 397.721 222.006 396.753 220.46C403.314 216.159 407.731 207.036 411.561 199.599C420.243 182.822 427.935 166.175 429.589 141.45C429.959 135.951 429.578 130.257 428.729 125.706H428.751ZM197.658 202.637C195.983 203.911 194.634 205.359 193.339 207.057C190.934 210.204 189.03 213.753 189.03 219.632C185.407 216.769 182.078 213.535 177.182 212.033C174.397 211.173 171.742 210.835 168.162 210.236C168.978 202.016 165.279 197.814 162.363 193.383C160.242 190.16 157.903 186.883 156.075 183.442C153.3 178.216 150.287 172.751 148.295 166.861C144.574 155.843 139.787 134.993 146.446 123.627C150.189 117.247 156.14 112.968 164.964 112.304C168.075 112.064 172.525 112.729 175.452 113.687C174.614 119.98 174.984 126.85 175.702 132.892C178.031 152.696 183.645 168.342 190.01 183.442C192.142 188.505 194.014 194.482 197.299 198.358C198.072 199.284 199.007 200.329 199.878 201.124C199.04 201.614 198.409 202.082 197.658 202.637ZM242.843 209.834C239.655 202.942 233.258 199.022 225.816 196.845C226.229 194.559 226.991 192.403 226.795 189.529C226.414 183.845 223.945 180.198 222.226 176.126C220.517 172.087 218.798 168.048 217.155 163.976C212.325 151.923 203.544 124.313 209.626 108.167C211.073 104.334 213.467 101.612 216.176 99.1845C220.887 94.9493 227.709 92.0642 236.783 92.8263C243.507 93.3815 249.11 95.5046 254.072 98.074V177.084C254.072 180.154 253.93 183.377 254.322 186.066C254.79 189.245 256.019 192.011 257.412 194.21C249.622 198.304 246.564 201.102 242.832 209.823L242.843 209.834ZM322.845 163.976C321.213 168.048 319.483 172.087 317.774 176.126C316.055 180.187 313.586 183.845 313.205 189.529C313.009 192.403 313.771 194.548 314.184 196.845C306.742 199.022 300.345 202.942 297.157 209.834C293.425 201.113 290.368 198.315 282.577 194.221C283.97 192.011 285.199 189.245 285.667 186.077C286.059 183.388 285.918 180.165 285.918 177.095V98.074C290.879 95.5046 296.482 93.3924 303.206 92.8263C312.28 92.0642 319.102 94.9493 323.813 99.1845C326.522 101.612 328.916 104.323 330.363 108.167C336.434 124.313 327.654 151.923 322.834 163.976H322.845ZM391.726 166.872C389.735 172.762 386.721 178.216 383.947 183.453C382.119 186.894 379.78 190.171 377.658 193.394C374.732 197.836 371.043 202.027 371.859 210.247C368.28 210.835 365.625 211.173 362.84 212.044C357.933 213.557 354.603 216.791 350.991 219.643C350.991 213.764 349.076 210.215 346.672 207.068C345.377 205.37 344.028 203.911 342.353 202.648C341.602 202.093 340.971 201.624 340.133 201.135C341.003 200.34 341.939 199.295 342.722 198.369C346.008 194.504 347.88 188.516 350.012 183.453C356.388 168.352 361.991 152.696 364.33 132.903C365.037 126.86 365.407 120.001 364.58 113.698C367.507 112.739 371.957 112.075 375.069 112.315C383.893 112.99 389.855 117.258 393.587 123.638C400.256 135.004 395.469 155.854 391.737 166.872H391.726Z" fill="white"/>
<path fill-rule="evenodd" clip-rule="evenodd" d="M125.371 691.254L123.902 690.046L118.223 697.667L119.692 698.865C123.576 702.044 126.938 703.187 129.027 700.378C131.061 697.634 129.495 694.629 125.36 691.243L125.371 691.254Z" fill="white"/>
<path fill-rule="evenodd" clip-rule="evenodd" d="M136.088 676.578L134.75 675.478L130.071 681.76L131.475 682.904C135.044 685.832 137.241 685.908 138.743 683.905C140.244 681.891 139.668 679.496 136.099 676.567L136.088 676.578Z" fill="white"/>
<path fill-rule="evenodd" clip-rule="evenodd" d="M57.7515 583.926C64.0401 582.01 68.8382 575.869 67.2498 569.195L66.1182 564.426L40.0604 571.242L41.192 576.022C42.8784 583.098 51.0493 585.951 57.7406 583.937L57.7515 583.926Z" fill="white"/>
<path fill-rule="evenodd" clip-rule="evenodd" d="M118.256 370.434C123.086 365.186 121.052 356.411 115.884 351.534C110.999 346.939 103.491 345.937 98.9434 350.88L95.6794 354.408L115.002 373.973L118.256 370.434Z" fill="white"/>
<path fill-rule="evenodd" clip-rule="evenodd" d="M44.8368 453.483C41.4531 452.667 39.1356 454.104 37.9171 459.635L37.4927 461.54L48.0573 464.088L48.4707 462.193C49.2541 458.633 48.2205 454.3 44.8259 453.483H44.8368Z" fill="white"/>
<path fill-rule="evenodd" clip-rule="evenodd" d="M180.707 725.963L182.568 710.307L172.732 722.24L180.707 725.963Z" fill="white"/>
<path fill-rule="evenodd" clip-rule="evenodd" d="M270.011 246.633C120.878 246.633 0 367.821 0 517.316C0 666.812 120.878 788.011 270.011 788.011C419.144 788.011 540.011 666.823 540.011 517.316C540.011 367.81 419.122 246.644 270.011 246.644V246.633ZM512.256 456.38L475.688 465.928L479.79 483.217L469.269 485.961L462.349 456.826L509.427 444.512L512.245 456.369L512.256 456.38ZM505.108 517.763C505.108 523.065 499.765 527.366 493.172 527.366C486.579 527.366 481.237 523.065 481.237 517.763C481.237 512.461 486.579 508.171 493.172 508.171C499.765 508.171 505.108 512.472 505.108 517.763ZM490.169 396.03C496.676 407.854 489.788 422.313 478.506 429.139C467.223 435.955 451.85 434.986 445.343 423.162C438.837 411.338 445.724 396.891 456.996 390.053C468.279 383.227 483.652 384.196 490.169 396.03ZM447.443 534.268C439.697 616.817 375.95 683.023 294.676 694.303L447.443 534.268ZM433.408 330.989L443.907 337.075L435.812 360.178L458.356 353.319L463.415 364.729L431.917 372.448L418.48 385.579L410.429 376.52L423.855 363.39L433.397 330.978L433.408 330.989ZM382.794 292.72L392.673 299.198L392.227 332.905L406.795 308.452L416.663 314.93L390.954 358.088L381.086 351.61L381.521 317.891L366.952 342.345L357.073 335.866L382.794 292.72ZM365.832 366.623L124.055 619.909C116.906 609.707 110.803 598.733 105.874 587.127L332.343 349.879C344.148 354.299 355.365 359.928 365.832 366.634V366.623ZM331.037 275.332L340.612 277.836L345.986 330.63L334.051 330.303L333.529 319.59L318.601 315.692L313.335 324.881L302.673 319.296L331.048 275.321L331.037 275.332ZM261.579 267.994H275.092C285.45 267.994 295.394 275.376 295.394 286.231C295.394 297.085 285.45 304.467 275.092 304.467H273.231V318.882H261.59V267.994H261.579ZM219.712 271.631C225.326 270.379 229.961 270.825 234.477 274.32L229.221 283.901C227.404 281.876 224.63 282.05 221.964 282.747C220.213 283.139 219.081 284.859 218.962 286.71C218.755 289.791 221.769 290.335 225.359 291.348L228.71 292.339C235.815 294.396 241.559 297.804 242.996 305.284C244.639 314.2 238.937 322.834 230.484 324.718C225.174 325.894 218.755 325.24 214.022 320.668L219.603 310.673C221.094 313.896 224.891 314.701 228.22 313.613C230.549 312.829 232.018 310.335 231.604 307.831C231.158 305.24 228.906 304.358 226.523 303.585L223.684 302.649C215.991 300.199 209.061 297.412 207.581 289.247C206.069 281.005 212.673 273.198 219.723 271.631H219.712ZM178.662 284.859L183.068 295.245L167.923 302.322L170.687 308.833L183.623 302.801L188.029 313.177L175.093 319.209L178.847 328.038L194.732 320.624L199.138 331.011L172.612 343.39L152.865 296.9L178.651 284.87L178.662 284.859ZM245.335 340.352L92.5568 500.376C100.303 417.827 164.05 351.621 245.324 340.341L245.335 340.352ZM91.1315 342.998C99.9553 333.428 114.654 333.689 124.076 342.638C133.847 351.936 135.207 368.398 126.046 378.349L114.698 390.674L79.7727 355.333L91.1206 342.998H91.1315ZM52.17 392.122C55.619 385.589 59.8948 381.877 66.771 380.244L69.861 390.478C65.8571 391.24 63.148 393.559 61.5051 397.544C58.8068 404.218 64.2795 410.304 70.2962 413.799C76.3129 417.294 84.3532 419.057 88.1069 412.993C90.3699 409.259 90.631 405.252 88.6944 401.409L99.3242 399.144C101.642 406.112 100.913 411.893 97.4637 418.415C91.2294 430.206 75.8341 431.153 64.5841 424.621C53.345 418.088 46.2512 403.314 52.17 392.111V392.122ZM27.3634 457.098C29.5503 447.18 38.0368 439.145 47.4915 441.431C52.7031 442.694 56.9898 446.951 58.5892 452.906L76.6501 443.271L79.3158 454.964L59.0244 464.861L58.6327 466.679L74.2456 470.457L71.6236 482.357L24.3279 470.914L27.3634 457.12V457.098ZM55.3687 517.556C55.3687 522.738 50.3639 526.941 44.1731 526.941C37.9823 526.941 32.9884 522.738 32.9884 517.556C32.9884 512.374 37.9932 508.182 44.1731 508.182C50.353 508.182 55.3687 512.384 55.3687 517.556ZM30.7036 578.765L26.7432 562.14L73.8431 549.826L77.7925 566.452C80.8607 579.375 72.853 592.309 60.6238 595.946C47.9267 599.691 33.8914 592.179 30.7036 578.765ZM88.4115 634.988L78.935 640.497L72.0805 627.519L64.0184 632.201L72.4504 648.162L62.9739 653.671L48.8951 627.029L91.3491 602.369L105.036 628.27L95.5488 633.779L87.5085 618.57L81.5679 622.021L88.4224 635.01L88.4115 634.988ZM137.459 693.508C140.516 698.494 141.028 704.286 137.535 708.968C131.856 716.589 121.563 714.836 113.664 708.347L102.382 699.104L132.258 659.006L142.583 667.465C149.906 673.475 154.758 682.403 149.536 689.414C146.544 693.421 142.181 694.586 137.448 693.497L137.459 693.508ZM189.781 750.906L178.085 748.413L179.336 737.765L165.301 731.211L158.588 739.3L149.003 731.853L184.232 693.726L193.252 697.928L189.792 750.896L189.781 750.906ZM174.212 668.053L415.978 414.779C423.115 424.969 429.23 435.944 434.148 447.55L207.679 684.787C195.885 680.378 184.678 674.749 174.223 668.053H174.212ZM239.166 763.786L228.34 743.263L226.578 742.97L224.075 759.562L212.575 757.646L220.158 707.389L233.508 709.61C243.083 711.2 251.33 719.529 249.817 729.578C248.991 735.109 245.237 739.888 239.677 741.979L250.111 760.193L239.166 763.775V763.786ZM290.128 764.853C277.311 765.79 268.172 752.768 267.269 739.322C266.377 725.865 274.33 711.592 286.516 710.699C293.621 710.177 298.93 711.919 303.978 717.079L297.472 725.375C294.676 722.273 291.358 721.151 287.267 721.881C280.456 723.143 278.573 731.276 279.041 738.462C279.531 745.648 282.49 753.683 289.388 753.683C293.599 753.628 296.95 751.679 298.974 747.88L306.568 755.991C302.249 761.827 297.222 764.32 290.117 764.842L290.128 764.853ZM331.048 756.916L316.85 708.26L343.843 699.605L347.009 710.471L331.157 715.555L333.148 722.36L346.683 718.016L349.86 728.881L336.314 733.214L339.012 742.458L355.648 737.134L358.814 748L331.048 756.895V756.916ZM384.992 735.806L361.458 691.298L371.642 685.375L389.931 719.943L404.782 711.309L410.037 721.249L384.992 735.795V735.806ZM441.905 696.861C432.548 706.344 417.49 702.838 408.449 693.018C399.397 683.198 396.568 667.313 405.936 657.83C415.303 648.347 430.351 651.853 439.403 661.673C448.444 671.493 451.273 687.378 441.905 696.861ZM489.484 630.502L457.344 631.798L481.411 645.777L475.764 656.458L433.31 631.798L438.957 621.117L471.096 619.811L447.03 605.831L452.687 595.162L495.141 619.822L489.495 630.502H489.484ZM504.661 597.241L461.74 569.043L463.796 558.928L513.942 551.46L514.062 563.969L503.856 564.905L500.658 580.66L509.612 585.864L504.661 597.252V597.241Z" fill="white"/>
<path fill-rule="evenodd" clip-rule="evenodd" d="M231.8 720.824L229.961 720.52L228.275 731.744L230.114 732.049C233.552 732.616 237.61 731.233 238.154 727.64C238.698 724.036 237.164 721.717 231.8 720.835V720.824Z" fill="white"/>
<path fill-rule="evenodd" clip-rule="evenodd" d="M365.832 366.624L124.055 619.909C137.459 639.049 154.519 655.435 174.212 668.042L415.978 414.768C402.574 395.628 385.525 379.242 365.832 366.624Z" fill="white"/>
<path fill-rule="evenodd" clip-rule="evenodd" d="M448.248 517.327C448.248 492.558 443.222 468.976 434.137 447.539L207.668 684.776C227.067 692.038 248.077 696.023 270.011 696.023C278.389 696.023 286.614 695.435 294.687 694.314L447.454 534.279C447.976 528.705 448.259 523.054 448.259 517.338L448.248 517.327Z" fill="white"/>
<path fill-rule="evenodd" clip-rule="evenodd" d="M270.011 338.621C261.633 338.621 253.397 339.209 245.335 340.33L92.5568 500.376C92.0346 505.961 91.7517 511.612 91.7517 517.327C91.7517 542.086 96.7783 565.679 105.863 587.116L332.332 349.868C312.933 342.606 291.934 338.621 270 338.621H270.011Z" fill="white"/>
</g>
</g>
<defs>
<clipPath id="clip0_1762_110">
<rect width="540" height="788" fill="white"/>
</clipPath>
</defs>
</svg>
