<svg width="432" height="353" viewBox="0 0 432 353" fill="none" xmlns="http://www.w3.org/2000/svg">
<g clip-path="url(#clip0_3048_101)">
<mask id="mask0_3048_101" style="mask-type:luminance" maskUnits="userSpaceOnUse" x="29" y="5" width="395" height="317">
<path d="M337.5 139.52L338.44 138.4C338.44 138.4 345.05 137.01 346.45 135.62L345.23 134.23C345.23 134.23 344.19 133.19 342.45 133.19C340.71 133.19 341.58 131.1 343.32 129.71C345.06 128.32 349.76 118.75 354.98 119.62L356.72 120.66C356.72 120.66 357.94 117.53 362.64 117.53C367.34 117.53 370.65 114.05 376.21 113.53C381.77 113.01 385.43 111.62 387.35 108.66C389.26 105.7 391.35 102.4 395.18 101.35C399.01 100.31 404.23 96.6501 408.41 94.2101C412.59 91.7701 415.55 90.7301 416.07 87.9501C416.07 87.9501 420.42 88.8201 420.42 83.2501C420.42 83.2501 418.51 81.3401 419.38 79.7701C420.25 78.2001 416.77 78.2001 416.77 76.4601C416.77 74.7201 417.12 70.0201 418.68 69.8501C420.25 69.6801 419.2 71.0701 420.07 71.0701C420.94 71.0701 422.33 69.8501 422.33 69.8501C422.33 69.8501 423.2 67.4101 420.59 67.7601C417.98 68.1101 418.15 64.4501 418.15 64.4501C418.15 64.4501 417.11 63.2301 415.71 63.7501C414.31 64.2701 414.32 61.1401 409.1 63.4001C403.88 65.6601 403.71 62.8801 403.88 65.6601C404.05 68.4401 400.92 67.0501 400.92 67.0501C400.92 67.0501 399.01 69.4901 397.44 68.0901C395.87 66.6901 392.74 63.9101 389.96 64.2601C387.18 64.6101 387.35 66.3501 385.44 66.5201C383.53 66.6901 381.44 65.8201 380.39 63.3901C379.35 60.9501 373.78 60.9501 372.04 62.8701C370.3 64.7801 364.21 64.0901 364.21 64.0901C364.21 64.0901 363.34 60.7801 364.91 60.2601C366.48 59.7401 364.74 52.7801 362.13 52.4301C359.52 52.0801 356.56 52.4301 356.56 52.4301C356.56 52.4301 354.82 48.9501 351.51 49.1201C348.2 49.2901 341.94 41.8101 341.42 48.7701V52.6001L333.24 53.3001L330.8 51.9101L329.06 53.8201L327.49 51.5601C327.49 51.5601 320.53 54.0001 319.14 52.7801C317.75 51.5601 313.57 49.3001 312.53 47.9101C311.49 46.5201 309.57 46.1701 307.66 48.0801C305.75 49.9901 304.18 47.7301 304.18 47.7301L302.44 48.9501L297.92 43.9001C297.92 43.9001 295.31 41.4601 291.83 41.2901C288.35 41.1201 287.65 39.5501 284.17 39.2001C280.69 38.8501 278.95 37.1101 278.95 35.8401C278.95 34.5701 277.44 36.0701 277.91 37.7001C278.37 39.3201 273.85 38.4001 274.43 36.3101C275.01 34.2201 276.87 33.9901 276.52 32.4801C276.17 30.9701 277.33 28.5401 274.66 28.6501C271.99 28.7701 271.99 26.3301 271.18 29.0001C271.18 29.0001 269.21 29.8101 268.74 27.1401C268.74 27.1401 268.28 26.2101 266.19 26.5601C266.19 26.5601 265.49 24.8201 263.06 24.9401C263.06 24.9401 264.51 21.8101 260.86 24.4201C257.21 27.0301 251.64 28.2501 250.07 27.3801C248.5 26.5101 246.42 26.8601 238.24 22.8601C230.06 18.8601 226.93 21.4701 226.23 24.4301C225.53 27.3901 222.75 23.9101 219.44 23.9101C216.13 23.9101 216.31 21.4701 214.57 22.1701C212.83 22.8701 212.66 18.3401 208.83 18.5201C205 18.6901 204.13 21.8301 201.17 22.0001C198.21 22.1701 200.82 18.5201 200.82 18.5201C200.82 18.5201 195.6 19.0401 193.86 20.9601C192.12 22.8701 175.41 23.4001 173.15 22.8701C170.89 22.3501 162.88 18.6901 157.31 19.7401C157.31 19.7401 155.22 16.6101 150.7 16.9601C146.18 17.3101 141.3 16.7901 141.3 16.7901C141.3 16.7901 139.04 12.9601 137.12 12.6101C135.21 12.2601 134.16 16.0901 131.55 15.9201C128.94 15.7501 125.98 16.7901 125.11 15.2201C125.11 15.2201 121.63 16.6101 118.15 16.0901C114.67 15.5701 105.45 15.2201 102.84 15.9201C100.23 16.6201 92.9198 16.0901 92.9198 16.0901C92.9198 16.0901 89.6098 13.1301 89.9598 11.0401C90.3098 8.9501 84.3898 7.9101 83.3498 10.5201C82.3098 13.1301 81.7798 12.0901 81.4398 9.6501C81.0898 7.2101 76.5698 7.9101 76.0498 8.9501C75.5298 9.9901 72.7398 13.6501 72.0498 10.6901C72.0498 10.6901 74.3098 7.9101 73.2698 6.8601C72.2298 5.8101 72.0498 9.1201 70.6598 9.3001C69.2698 9.4801 67.6998 9.4701 68.7498 12.2601C68.7498 12.2601 65.6198 12.6101 63.3598 14.7001C61.0998 16.7901 59.8798 18.5301 61.6198 18.1801C63.3598 17.8301 65.2698 17.1401 65.6198 17.6601C65.9698 18.1801 61.0998 19.2301 61.7898 20.2701C62.4898 21.3101 64.7498 19.2301 64.9198 20.6201C65.0898 22.0101 63.8798 22.8801 63.8798 22.8801L63.7098 25.4901C63.7098 25.4901 62.1398 25.8401 61.9698 23.0501C61.9698 23.0501 59.8798 23.9201 59.3598 22.5301C59.3598 22.5301 58.8398 25.6601 57.0998 24.2701C57.0998 24.2701 53.2698 27.4001 51.0098 26.0101C51.0098 26.0101 47.5298 29.1401 44.5698 26.3601C41.6098 23.5801 39.3498 27.9301 40.2198 27.9301C41.0898 27.9301 42.9998 28.2801 41.6098 30.0201C40.2198 31.7601 39.5198 28.9801 37.9598 30.0201C36.3898 31.0601 32.9098 31.0601 32.7398 32.4601C32.5698 33.8501 34.9998 32.6301 35.1798 33.3301C35.3498 34.0301 31.8698 35.4201 30.8298 36.4601C29.7898 37.5001 31.6998 38.7201 31.5298 40.1101C31.3598 41.5001 30.4898 43.4201 31.3598 43.0701C32.2298 42.7201 34.3198 42.0301 34.6698 43.0701C35.0198 44.1101 34.6698 44.9801 35.7098 46.2001C36.7498 47.4201 33.2698 49.3301 35.1898 49.5101C37.0998 49.6801 37.6298 47.0701 39.5398 47.2501C41.4498 47.4201 40.4098 45.5101 41.7998 45.5101C43.1898 45.5101 44.3198 45.6001 44.5798 46.5501C44.8398 47.5101 41.5298 49.0701 40.6598 50.1201C39.7898 51.1601 37.2698 53.3401 37.3498 55.8601C37.4398 58.3801 38.0498 56.9901 38.1298 58.3001C38.2198 59.6101 40.2198 54.9901 40.8298 54.9901C41.4398 54.9901 43.0898 52.8101 43.4398 52.0301C43.7898 51.2501 46.3998 51.6801 45.9598 53.9401C45.5298 56.2001 44.5698 57.8601 45.1798 61.6801C45.7898 65.5101 42.7398 61.9401 42.5698 63.1601C42.3998 64.3801 42.6598 65.6001 44.3998 65.4201C46.1398 65.2501 47.7098 62.3701 48.3998 62.6401C49.0898 62.9101 49.4398 64.4701 47.0098 66.9001C44.5798 69.3301 43.6998 67.9401 43.6198 69.1601C43.5298 70.3801 46.8398 71.0701 49.0098 68.8101C51.1898 66.5501 51.2698 66.6301 52.0598 68.2001C52.8398 69.7701 47.6198 70.7201 45.5298 74.2901C43.4398 77.8601 42.6598 76.2901 42.6598 79.4201C42.6598 82.5501 43.0998 85.3401 43.0998 85.3401C43.0998 85.3401 48.7598 80.9901 50.0598 78.5501C51.3698 76.1101 54.4098 76.8101 55.2798 77.3301C56.1498 77.8501 61.4598 76.2001 61.8898 75.3301C62.3198 74.4601 64.2398 74.2001 64.2398 77.3301C64.2398 77.3301 67.6298 77.4201 67.8898 79.3301C68.1498 81.2401 64.5798 79.8501 64.4998 83.3301C64.4098 86.8101 63.1098 86.8101 65.1998 87.7701C67.2898 88.7301 71.8098 88.8101 72.1598 86.0301C72.5098 83.2501 73.5498 83.0701 73.7298 84.2001C73.8998 85.3301 75.2998 86.4601 77.2998 85.5101C79.2998 84.5501 80.6898 86.0301 82.6898 85.8601C84.6898 85.6901 92.2598 90.0401 94.5198 83.8601C94.5198 83.8601 95.4798 79.9401 98.6098 82.2901C101.74 84.6401 106.62 83.7701 107.14 83.4201C107.66 83.0701 107.92 81.6801 108.97 81.7701C110.01 81.8601 110.19 84.4701 113.32 83.9501C116.45 83.4301 116.54 83.9501 116.54 86.3901C116.54 88.8301 115.06 92.7401 115.76 93.8701C116.46 95.0001 117.33 94.8301 120.55 94.8301C123.77 94.8301 130.3 97.0901 123.33 107.1C116.37 117.11 115.15 112.76 113.15 113.54C111.15 114.32 110.02 115.11 110.1 116.76C110.19 118.41 108.01 122.76 104.18 122.42C104.18 122.42 108.36 127.12 107.83 129.47C107.83 129.47 106.52 132.69 107.92 136.17C109.31 139.65 106.53 141.22 106.53 141.22C106.53 141.22 108.62 141.39 107.05 144.87C105.48 148.35 107.75 149.92 107.75 149.92C107.75 149.92 105.14 151.66 105.14 154.1C105.14 154.1 100.44 153.4 100.44 156.88C100.44 160.36 103.92 158.45 104.09 160.01C104.26 161.57 106.53 165.23 104.26 169.58C102 173.93 101.13 172.36 101.13 172.36C101.13 172.36 101.83 178.62 96.7798 178.8C91.7298 178.97 89.1198 179.67 85.6398 178.45C85.6398 178.45 87.7298 184.37 91.3798 185.41C95.0298 186.45 89.6398 189.41 94.5098 192.37C94.5098 192.37 93.4698 197.42 96.9498 197.59C96.9498 197.59 95.2098 201.07 100.95 200.37C106.69 199.67 99.9098 208.55 99.9098 208.55C99.9098 208.55 101.3 209.25 100.61 210.46C99.9098 211.68 97.1298 213.42 96.4298 212.55C95.7298 211.68 90.6898 216.9 93.8198 219.34C93.8198 219.34 90.6898 223.69 92.5998 227C94.5098 230.31 93.8198 233.26 96.5998 233.61C99.3798 233.96 95.8998 238.66 102.69 234.48C102.69 234.48 105.13 233.96 101.99 240.57C98.8598 247.18 99.8998 242.31 96.2498 243.35C92.5998 244.39 92.2498 249.27 92.2498 249.27C92.2498 249.27 90.1598 255.19 88.0698 254.32C88.0698 254.32 87.5498 258.67 86.4998 259.19C85.4598 259.71 82.8498 261.45 87.1998 266.15L88.5898 275.55C88.5898 275.55 102.16 272.24 108.95 278.51C115.74 284.78 119.74 287.39 120.78 291.04C121.82 294.69 117.65 295.56 124.26 298.35C130.87 301.13 124.43 302.7 125.3 305.31C126.17 307.92 130.52 312.97 130.52 312.97C130.52 312.97 132.78 314.71 135.74 314.54C138.7 314.37 138.7 320.28 144.96 320.11C151.22 319.94 149.48 315.41 151.4 315.41C153.32 315.41 151.4 308.1 159.93 304.97C168.46 301.84 166.19 302.36 168.46 301.84C170.72 301.32 173.16 303.41 178.55 298.01C183.94 292.61 183.77 294.7 187.6 294.36C191.43 294.01 195.08 295.4 199.09 293.14C203.09 290.88 206.57 294.18 209.53 294.36C212.49 294.53 215.97 294.71 218.41 292.62C220.85 290.53 230.94 293.32 234.25 295.93C237.56 298.54 238.43 290.01 242.08 290.01C245.73 290.01 249.22 289.49 250.09 292.79C250.96 296.1 255.66 292.09 257.57 286.87C259.48 281.65 263.83 268.77 268.01 268.08C272.19 267.38 277.23 263.56 277.23 262.51C277.23 261.46 282.8 259.9 283.15 261.64C283.15 261.64 285.93 260.42 288.2 260.42C290.47 260.42 293.42 260.07 296.9 259.2C296.9 259.2 293.07 255.89 293.25 254.15C293.42 252.41 296.38 245.51 298.24 245.51C300.1 245.51 298.47 243.31 298.59 241.8C298.71 240.29 300.68 236.35 301.72 236.35C302.76 236.35 304.27 235.07 303.58 231.94C302.88 228.81 307.06 229.74 307.06 229.74C307.06 229.74 308.8 224.52 311.58 224.52C314.36 224.52 317.73 223.13 317.61 220.34C317.49 217.56 323.06 218.14 324.34 216.51C325.62 214.88 327.01 215.93 326.78 214.77C326.55 213.61 326.78 213.84 324.11 211.99C321.44 210.13 319.82 210.13 319.01 210.13C318.2 210.13 308.68 202.12 312.75 195.74C312.75 195.74 306.02 187.97 312.4 178.57C318.78 169.17 318.08 172.31 318.78 169.17C319.48 166.04 322.84 161.16 324.12 160.82C325.4 160.47 327.25 157.46 328.99 153.63C330.41 150.51 333.9 147.01 334.84 144.31C335.44 142.57 336.39 140.97 337.57 139.55L337.5 139.52Z" fill="white"/>
<path d="M337.5 139.52L338.44 138.4C338.44 138.4 345.05 137.01 346.45 135.62L345.23 134.23C345.23 134.23 344.19 133.19 342.45 133.19C340.71 133.19 341.58 131.1 343.32 129.71C345.06 128.32 349.76 118.75 354.98 119.62L356.72 120.66C356.72 120.66 357.94 117.53 362.64 117.53C367.34 117.53 370.65 114.05 376.21 113.53C381.77 113.01 385.43 111.62 387.35 108.66C389.26 105.7 391.35 102.4 395.18 101.35C399.01 100.31 404.23 96.6501 408.41 94.2101C412.59 91.7701 415.55 90.7301 416.07 87.9501C416.07 87.9501 420.42 88.8201 420.42 83.2501C420.42 83.2501 418.51 81.3401 419.38 79.7701C420.25 78.2001 416.77 78.2001 416.77 76.4601C416.77 74.7201 417.12 70.0201 418.68 69.8501C420.25 69.6801 419.2 71.0701 420.07 71.0701C420.94 71.0701 422.33 69.8501 422.33 69.8501C422.33 69.8501 423.2 67.4101 420.59 67.7601C417.98 68.1101 418.15 64.4501 418.15 64.4501C418.15 64.4501 417.11 63.2301 415.71 63.7501C414.31 64.2701 414.32 61.1401 409.1 63.4001C403.88 65.6601 403.71 62.8801 403.88 65.6601C404.05 68.4401 400.92 67.0501 400.92 67.0501C400.92 67.0501 399.01 69.4901 397.44 68.0901C395.87 66.6901 392.74 63.9101 389.96 64.2601C387.18 64.6101 387.35 66.3501 385.44 66.5201C383.53 66.6901 381.44 65.8201 380.39 63.3901C379.35 60.9501 373.78 60.9501 372.04 62.8701C370.3 64.7801 364.21 64.0901 364.21 64.0901C364.21 64.0901 363.34 60.7801 364.91 60.2601C366.48 59.7401 364.74 52.7801 362.13 52.4301C359.52 52.0801 356.56 52.4301 356.56 52.4301C356.56 52.4301 354.82 48.9501 351.51 49.1201C348.2 49.2901 341.94 41.8101 341.42 48.7701V52.6001L333.24 53.3001L330.8 51.9101L329.06 53.8201L327.49 51.5601C327.49 51.5601 320.53 54.0001 319.14 52.7801C317.75 51.5601 313.57 49.3001 312.53 47.9101C311.49 46.5201 309.57 46.1701 307.66 48.0801C305.75 49.9901 304.18 47.7301 304.18 47.7301L302.44 48.9501L297.92 43.9001C297.92 43.9001 295.31 41.4601 291.83 41.2901C288.35 41.1201 287.65 39.5501 284.17 39.2001C280.69 38.8501 278.95 37.1101 278.95 35.8401C278.95 34.5701 277.44 36.0701 277.91 37.7001C278.37 39.3201 273.85 38.4001 274.43 36.3101C275.01 34.2201 276.87 33.9901 276.52 32.4801C276.17 30.9701 277.33 28.5401 274.66 28.6501C271.99 28.7701 271.99 26.3301 271.18 29.0001C271.18 29.0001 269.21 29.8101 268.74 27.1401C268.74 27.1401 268.28 26.2101 266.19 26.5601C266.19 26.5601 265.49 24.8201 263.06 24.9401C263.06 24.9401 264.51 21.8101 260.86 24.4201C257.21 27.0301 251.64 28.2501 250.07 27.3801C248.5 26.5101 246.42 26.8601 238.24 22.8601C230.06 18.8601 226.93 21.4701 226.23 24.4301C225.53 27.3901 222.75 23.9101 219.44 23.9101C216.13 23.9101 216.31 21.4701 214.57 22.1701C212.83 22.8701 212.66 18.3401 208.83 18.5201C205 18.6901 204.13 21.8301 201.17 22.0001C198.21 22.1701 200.82 18.5201 200.82 18.5201C200.82 18.5201 195.6 19.0401 193.86 20.9601C192.12 22.8701 175.41 23.4001 173.15 22.8701C170.89 22.3501 162.88 18.6901 157.31 19.7401C157.31 19.7401 155.22 16.6101 150.7 16.9601C146.18 17.3101 141.3 16.7901 141.3 16.7901C141.3 16.7901 139.04 12.9601 137.12 12.6101C135.21 12.2601 134.16 16.0901 131.55 15.9201C128.94 15.7501 125.98 16.7901 125.11 15.2201C125.11 15.2201 121.63 16.6101 118.15 16.0901C114.67 15.5701 105.45 15.2201 102.84 15.9201C100.23 16.6201 92.9198 16.0901 92.9198 16.0901C92.9198 16.0901 89.6098 13.1301 89.9598 11.0401C90.3098 8.9501 84.3898 7.9101 83.3498 10.5201C82.3098 13.1301 81.7798 12.0901 81.4398 9.6501C81.0898 7.2101 76.5698 7.9101 76.0498 8.9501C75.5298 9.9901 72.7398 13.6501 72.0498 10.6901C72.0498 10.6901 74.3098 7.9101 73.2698 6.8601C72.2298 5.8101 72.0498 9.1201 70.6598 9.3001C69.2698 9.4801 67.6998 9.4701 68.7498 12.2601C68.7498 12.2601 65.6198 12.6101 63.3598 14.7001C61.0998 16.7901 59.8798 18.5301 61.6198 18.1801C63.3598 17.8301 65.2698 17.1401 65.6198 17.6601C65.9698 18.1801 61.0998 19.2301 61.7898 20.2701C62.4898 21.3101 64.7498 19.2301 64.9198 20.6201C65.0898 22.0101 63.8798 22.8801 63.8798 22.8801L63.7098 25.4901C63.7098 25.4901 62.1398 25.8401 61.9698 23.0501C61.9698 23.0501 59.8798 23.9201 59.3598 22.5301C59.3598 22.5301 58.8398 25.6601 57.0998 24.2701C57.0998 24.2701 53.2698 27.4001 51.0098 26.0101C51.0098 26.0101 47.5298 29.1401 44.5698 26.3601C41.6098 23.5801 39.3498 27.9301 40.2198 27.9301C41.0898 27.9301 42.9998 28.2801 41.6098 30.0201C40.2198 31.7601 39.5198 28.9801 37.9598 30.0201C36.3898 31.0601 32.9098 31.0601 32.7398 32.4601C32.5698 33.8501 34.9998 32.6301 35.1798 33.3301C35.3498 34.0301 31.8698 35.4201 30.8298 36.4601C29.7898 37.5001 31.6998 38.7201 31.5298 40.1101C31.3598 41.5001 30.4898 43.4201 31.3598 43.0701C32.2298 42.7201 34.3198 42.0301 34.6698 43.0701C35.0198 44.1101 34.6698 44.9801 35.7098 46.2001C36.7498 47.4201 33.2698 49.3301 35.1898 49.5101C37.0998 49.6801 37.6298 47.0701 39.5398 47.2501C41.4498 47.4201 40.4098 45.5101 41.7998 45.5101C43.1898 45.5101 44.3198 45.6001 44.5798 46.5501C44.8398 47.5101 41.5298 49.0701 40.6598 50.1201C39.7898 51.1601 37.2698 53.3401 37.3498 55.8601C37.4398 58.3801 38.0498 56.9901 38.1298 58.3001C38.2198 59.6101 40.2198 54.9901 40.8298 54.9901C41.4398 54.9901 43.0898 52.8101 43.4398 52.0301C43.7898 51.2501 46.3998 51.6801 45.9598 53.9401C45.5298 56.2001 44.5698 57.8601 45.1798 61.6801C45.7898 65.5101 42.7398 61.9401 42.5698 63.1601C42.3998 64.3801 42.6598 65.6001 44.3998 65.4201C46.1398 65.2501 47.7098 62.3701 48.3998 62.6401C49.0898 62.9101 49.4398 64.4701 47.0098 66.9001C44.5798 69.3301 43.6998 67.9401 43.6198 69.1601C43.5298 70.3801 46.8398 71.0701 49.0098 68.8101C51.1898 66.5501 51.2698 66.6301 52.0598 68.2001C52.8398 69.7701 47.6198 70.7201 45.5298 74.2901C43.4398 77.8601 42.6598 76.2901 42.6598 79.4201C42.6598 82.5501 43.0998 85.3401 43.0998 85.3401C43.0998 85.3401 48.7598 80.9901 50.0598 78.5501C51.3698 76.1101 54.4098 76.8101 55.2798 77.3301C56.1498 77.8501 61.4598 76.2001 61.8898 75.3301C62.3198 74.4601 64.2398 74.2001 64.2398 77.3301C64.2398 77.3301 67.6298 77.4201 67.8898 79.3301C68.1498 81.2401 64.5798 79.8501 64.4998 83.3301C64.4098 86.8101 63.1098 86.8101 65.1998 87.7701C67.2898 88.7301 71.8098 88.8101 72.1598 86.0301C72.5098 83.2501 73.5498 83.0701 73.7298 84.2001C73.8998 85.3301 75.2998 86.4601 77.2998 85.5101C79.2998 84.5501 80.6898 86.0301 82.6898 85.8601C84.6898 85.6901 92.2598 90.0401 94.5198 83.8601C94.5198 83.8601 95.4798 79.9401 98.6098 82.2901C101.74 84.6401 106.62 83.7701 107.14 83.4201C107.66 83.0701 107.92 81.6801 108.97 81.7701C110.01 81.8601 110.19 84.4701 113.32 83.9501C116.45 83.4301 116.54 83.9501 116.54 86.3901C116.54 88.8301 115.06 92.7401 115.76 93.8701C116.46 95.0001 117.33 94.8301 120.55 94.8301C123.77 94.8301 130.3 97.0901 123.33 107.1C116.37 117.11 115.15 112.76 113.15 113.54C111.15 114.32 110.02 115.11 110.1 116.76C110.19 118.41 108.01 122.76 104.18 122.42C104.18 122.42 108.36 127.12 107.83 129.47C107.83 129.47 106.52 132.69 107.92 136.17C109.31 139.65 106.53 141.22 106.53 141.22C106.53 141.22 108.62 141.39 107.05 144.87C105.48 148.35 107.75 149.92 107.75 149.92C107.75 149.92 105.14 151.66 105.14 154.1C105.14 154.1 100.44 153.4 100.44 156.88C100.44 160.36 103.92 158.45 104.09 160.01C104.26 161.57 106.53 165.23 104.26 169.58C102 173.93 101.13 172.36 101.13 172.36C101.13 172.36 101.83 178.62 96.7798 178.8C91.7298 178.97 89.1198 179.67 85.6398 178.45C85.6398 178.45 87.7298 184.37 91.3798 185.41C95.0298 186.45 89.6398 189.41 94.5098 192.37C94.5098 192.37 93.4698 197.42 96.9498 197.59C96.9498 197.59 95.2098 201.07 100.95 200.37C106.69 199.67 99.9098 208.55 99.9098 208.55C99.9098 208.55 101.3 209.25 100.61 210.46C99.9098 211.68 97.1298 213.42 96.4298 212.55C95.7298 211.68 90.6898 216.9 93.8198 219.34C93.8198 219.34 90.6898 223.69 92.5998 227C94.5098 230.31 93.8198 233.26 96.5998 233.61C99.3798 233.96 95.8998 238.66 102.69 234.48C102.69 234.48 105.13 233.96 101.99 240.57C98.8598 247.18 99.8998 242.31 96.2498 243.35C92.5998 244.39 92.2498 249.27 92.2498 249.27C92.2498 249.27 90.1598 255.19 88.0698 254.32C88.0698 254.32 87.5498 258.67 86.4998 259.19C85.4598 259.71 82.8498 261.45 87.1998 266.15L88.5898 275.55C88.5898 275.55 102.16 272.24 108.95 278.51C115.74 284.78 119.74 287.39 120.78 291.04C121.82 294.69 117.65 295.56 124.26 298.35C130.87 301.13 124.43 302.7 125.3 305.31C126.17 307.92 130.52 312.97 130.52 312.97C130.52 312.97 132.78 314.71 135.74 314.54C138.7 314.37 138.7 320.28 144.96 320.11C151.22 319.94 149.48 315.41 151.4 315.41C153.32 315.41 151.4 308.1 159.93 304.97C168.46 301.84 166.19 302.36 168.46 301.84C170.72 301.32 173.16 303.41 178.55 298.01C183.94 292.61 183.77 294.7 187.6 294.36C191.43 294.01 195.08 295.4 199.09 293.14C203.09 290.88 206.57 294.18 209.53 294.36C212.49 294.53 215.97 294.71 218.41 292.62C220.85 290.53 230.94 293.32 234.25 295.93C237.56 298.54 238.43 290.01 242.08 290.01C245.73 290.01 249.22 289.49 250.09 292.79C250.96 296.1 255.66 292.09 257.57 286.87C259.48 281.65 263.83 268.77 268.01 268.08C272.19 267.38 277.23 263.56 277.23 262.51C277.23 261.46 282.8 259.9 283.15 261.64C283.15 261.64 285.93 260.42 288.2 260.42C290.47 260.42 293.42 260.07 296.9 259.2C296.9 259.2 293.07 255.89 293.25 254.15C293.42 252.41 296.38 245.51 298.24 245.51C300.1 245.51 298.47 243.31 298.59 241.8C298.71 240.29 300.68 236.35 301.72 236.35C302.76 236.35 304.27 235.07 303.58 231.94C302.88 228.81 307.06 229.74 307.06 229.74C307.06 229.74 308.8 224.52 311.58 224.52C314.36 224.52 317.73 223.13 317.61 220.34C317.49 217.56 323.06 218.14 324.34 216.51C325.62 214.88 327.01 215.93 326.78 214.77C326.55 213.61 326.78 213.84 324.11 211.99C321.44 210.13 319.82 210.13 319.01 210.13C318.2 210.13 308.68 202.12 312.75 195.74C312.75 195.74 306.02 187.97 312.4 178.57C318.78 169.17 318.08 172.31 318.78 169.17C319.48 166.04 322.84 161.16 324.12 160.82C325.4 160.47 327.25 157.46 328.99 153.63C330.41 150.51 333.9 147.01 334.84 144.31C335.44 142.57 336.39 140.97 337.57 139.55L337.5 139.52Z" stroke="white" stroke-width="2" stroke-linecap="round" stroke-linejoin="round"/>
</mask>
<g mask="url(#mask0_3048_101)">
<path d="M225.5 16L219 50V54L106.5 62.5L81 7L225.5 16Z" fill="white"/>
<path d="M238.8 39.8589L241.835 49.98L233.875 73.8521L233.669 74.4712L234.321 74.5093L260.994 76.061L271.033 97.3198L253.61 131.489L227.594 119.853L227.326 119.733L227.09 119.91L188.145 149.123L152.87 167.109L132.188 160.215L132.129 160.196L132.069 160.192L96.7046 157.449L98.4194 125.216L98.4272 125.075L98.3589 124.951L83.4507 97.563C83.4477 97.5371 83.4433 97.5009 83.438 97.4546C83.4262 97.3507 83.409 97.1957 83.3872 96.9937C83.3436 96.5897 83.2822 95.9963 83.2104 95.2397C83.0668 93.7257 82.8829 91.5582 82.7202 88.9487C82.3948 83.7279 82.1565 76.7434 82.5034 69.6772C82.8507 62.6029 83.7826 55.483 85.7798 49.9741C87.7837 44.4469 90.797 40.6978 95.2134 40.0444C104.635 38.6505 112.245 36.6867 119.6 34.9263C126.958 33.1652 134.068 31.6055 142.536 30.9985C146.079 30.7445 149.041 31.2189 152.727 31.7153C156.373 32.2062 160.675 32.7072 166.827 32.5044C172.2 36.9754 177.479 38.9879 182.39 39.4624C187.341 39.9406 191.882 38.8543 195.726 37.2056C199.568 35.5574 202.726 33.3417 204.921 31.5415C206.02 30.6407 206.88 29.842 207.466 29.2671C207.76 28.9795 207.985 28.7471 208.137 28.5864C208.213 28.5062 208.272 28.4439 208.311 28.4009C208.33 28.3807 208.344 28.3644 208.354 28.353L214.557 22.7876L238.8 39.8589Z" fill="#D48076" stroke="white"/>
<path d="M229.84 53.3C229.84 53.3 228.97 55.39 221.83 54.87C221.83 54.87 222.53 58.1801 220.26 59.2201C220.26 59.2201 220.09 62.3501 222.87 63.4001C225.65 64.4401 221.65 67.5801 220.43 67.5801C219.21 67.5801 220.08 73.6701 221.47 74.7201C222.86 75.7601 220.6 80.6401 226.52 78.3701C226.52 78.3701 227.22 83.76 229.65 79.07C232.08 74.38 232.78 76.81 232.78 77.68C232.78 78.5501 229.47 83.7701 236.78 81.5101C236.78 81.5101 238.17 75.42 242 75.42C245.83 75.42 247.22 77.6801 249.83 77.3301C252.44 76.9801 249.66 83.07 252.44 83.07C255.22 83.07 256.79 85.51 260.1 81.5C263.41 77.49 268.8 78.02 268.8 78.02L268.63 65.49L229.82 53.3101L229.84 53.3Z" fill="white"/>
<path d="M238.54 53.8201C238.54 53.8201 240.63 63.9101 247.94 63.7401C255.25 63.5701 251.25 67.3901 252.99 67.2201C254.73 67.0501 256.47 66.1801 258.04 68.0901C259.61 70.0001 260.3 73.4801 265.17 73.3101C265.17 73.3101 268.48 73.8301 265.87 76.0901C263.26 78.3501 262.22 74.3501 261.35 75.5701C260.48 76.7901 257.7 77.3101 257.87 80.0901C258.04 82.8701 261.87 85.1401 261.87 85.1401L274.05 89.3201L282.58 82.5301L287.28 59.9101L299.11 45.4701L284.32 28.7601L266.05 22.8401L252.13 31.3701L238.56 53.8201H238.54Z" fill="white"/>
<path d="M219.75 18.4901L206.87 27.5401C206.87 27.5401 207.74 35.7201 211.92 33.2801C216.1 30.8401 218.01 32.0601 218.01 32.0601C218.01 32.0601 218.18 35.0201 219.75 36.0601C221.32 37.1001 219.4 38.8401 223.06 40.5801C226.71 42.3201 223.23 44.0601 218.88 41.9701C214.53 39.8801 215.92 47.0201 218.36 46.3201C220.8 45.6201 218.71 49.6301 221.84 49.8001C224.97 49.9701 226.19 53.9801 227.41 53.9801C228.63 53.9801 228.11 60.4201 230.54 57.6301C232.98 54.8501 232.11 60.7601 234.19 60.7601C236.27 60.7601 242.72 63.5401 242.72 59.7201C242.72 55.9001 246.03 56.9401 246.37 52.5801C246.72 48.2301 248.11 45.9701 248.28 42.8301C248.45 39.7001 254.02 44.7401 254.2 39.8701C254.38 35.0001 259.07 36.3901 258.38 32.7301C257.68 29.0801 268.82 27.6801 263.77 23.6801C258.72 19.6801 223.4 11.3201 223.4 11.3201L219.75 18.4601V18.4901Z" fill="white"/>
<path d="M69.6494 2.05273C75.4111 -1.27242 82.3682 1.29853 88.04 4.8877C90.8521 6.66721 93.2952 8.66486 95.0371 10.2197C95.9074 10.9966 96.6019 11.6609 97.0771 12.1309C97.3145 12.3656 97.497 12.5519 97.6201 12.6787C97.6295 12.6884 97.6388 12.6981 97.6475 12.707C97.6471 12.7101 97.6478 12.7136 97.6475 12.7168C97.6298 12.8684 97.6012 13.0895 97.5586 13.3633C97.4732 13.9119 97.331 14.6694 97.1045 15.5029C96.6458 17.1908 95.864 19.1052 94.582 20.2812C93.8919 20.9143 93.4388 21.4128 93.2432 21.8535C93.1369 22.0931 93.0932 22.3454 93.1504 22.6025C93.2058 22.8513 93.3429 23.045 93.4844 23.1963C93.6235 23.345 93.7966 23.4831 93.9619 23.6113C94.1363 23.7466 94.3126 23.8784 94.5049 24.0381C94.8807 24.3502 95.2894 24.7477 95.6582 25.3281C96.4405 26.5596 96.8263 27.6131 97.1826 28.4463C97.356 28.8516 97.5362 29.2385 97.7666 29.54C98.0101 29.8586 98.3259 30.1038 98.7627 30.1904C98.7637 30.1906 98.7647 30.1902 98.7656 30.1904C98.7749 30.2083 98.7934 30.2528 98.8105 30.3486C98.8319 30.4678 98.8429 30.597 98.8623 30.7812C98.8803 30.9517 98.9051 31.1553 98.959 31.3604C99.0719 31.7903 99.3172 32.2442 99.8789 32.5254C100.406 32.789 101.145 32.8665 102.168 32.7471C103.154 32.6319 103.727 32.6641 103.991 32.7607C104.012 32.7684 104.027 32.7782 104.039 32.7842C104.033 32.8051 104.024 32.8353 104.005 32.875C103.866 33.163 103.469 33.6192 102.728 34.252C102.004 34.8694 101.006 35.6114 99.7383 36.4766C99.0757 36.9287 98.6035 37.3636 98.3184 37.7939C98.0252 38.2365 97.9168 38.6994 98.0391 39.1543C98.1556 39.5876 98.4591 39.9238 98.7969 40.1836C99.1385 40.4464 99.5616 40.6669 100 40.8555C100.872 41.2303 101.912 41.5242 102.679 41.7666C103.076 41.8921 103.389 42 103.599 42.0986C103.632 42.1144 103.659 42.13 103.683 42.1426C103.67 42.2266 103.65 42.3419 103.617 42.4902C103.558 42.7577 103.471 43.0991 103.357 43.4902C103.13 44.2724 102.801 45.2418 102.402 46.21C102.003 47.1805 101.537 48.1351 101.039 48.8965C100.527 49.6782 100.033 50.1736 99.6035 50.3457C98.2206 50.9002 97.6891 52.0821 97.498 53.1572C97.313 54.1988 97.4296 55.2956 97.4297 55.6797C97.4297 55.8793 97.3777 56.3107 97.3164 56.9297C97.2579 57.5206 97.1973 58.2364 97.1973 58.9287C97.1973 59.6097 97.2547 60.3207 97.4609 60.8779C97.5655 61.1603 97.7203 61.4359 97.9551 61.6436C98.2001 61.8602 98.5075 61.9805 98.8604 61.9805C99.3888 61.9804 100.035 61.8504 100.657 61.71C101.303 61.564 101.936 61.4026 102.513 61.3037C103.108 61.2016 103.526 61.1904 103.763 61.2676C103.862 61.2999 103.892 61.3363 103.904 61.3574C103.92 61.3846 103.954 61.4648 103.933 61.6553C103.82 62.6785 103.687 64.0026 104.012 65.0742C104.179 65.6269 104.476 66.1429 104.982 66.5156C105.488 66.8878 106.15 67.08 106.979 67.0801C107.267 67.0801 107.433 67.1537 107.532 67.2354C107.633 67.3184 107.718 67.4518 107.765 67.6631C107.864 68.1077 107.77 68.7744 107.494 69.5049C107.223 70.2222 106.805 70.9266 106.347 71.4277C105.864 71.955 105.447 72.1431 105.175 72.1133C104.685 72.0594 104.315 71.9434 103.861 71.8467C103.43 71.7546 102.955 71.6915 102.431 71.8418C101.909 71.9913 101.401 72.3329 100.844 72.9209C100.357 73.4343 99.8136 74.1565 99.1748 75.1523L98.8945 75.5967C97.3222 78.1406 96.9102 81.0873 96.8809 83.3652C96.8662 84.5085 96.9479 85.4957 97.0332 86.1982C97.0759 86.5497 97.12 86.8309 97.1533 87.0254C97.1548 87.0343 97.1567 87.0432 97.1582 87.0518C96.9874 87.1725 96.7074 87.3565 96.2783 87.5967C95.3979 88.0894 93.8978 88.8197 91.4492 89.7412C86.5507 91.5847 77.8758 94.1874 62.8115 97.1992C55.2768 98.7051 49.9423 99.4531 46.0098 99.582C42.0798 99.7109 39.5906 99.2201 37.7207 98.2852C35.8488 97.3491 34.5421 95.9424 33.0088 94.1045C31.4814 92.2737 29.7454 90.0371 27.0469 87.5713V87.5703C24.4824 85.229 22.7461 81.6286 21.793 77.0254C20.8405 72.4255 20.6786 66.8652 21.2266 60.6602C22.3224 48.2508 26.2519 33.3355 32.2734 18.5186C35.2752 11.1323 38.3362 6.90249 41.3828 4.56445C44.4087 2.24243 47.4687 1.74921 50.5732 1.94629C52.1343 2.04539 53.7032 2.31948 55.29 2.62598C56.8673 2.93063 58.473 3.27013 60.0645 3.48633C63.2595 3.92037 66.4934 3.87258 69.6494 2.05273Z" fill="#D48076" stroke="white"/>
<path d="M147.82 159.63C147.82 159.63 153.85 158.7 155.71 160.33C157.57 161.95 158.03 157.08 161.05 157.08C164.07 157.08 166.39 158.47 167.55 154.06C168.71 149.65 169.87 154.99 171.49 155.45C173.11 155.91 175.43 157.54 177.99 153.59C179.18 151.75 181.82 153.01 200.15 132.94C210.95 121.11 207.92 117.16 207.92 117.16C207.92 117.16 208.62 113.68 215.35 112.06C222.08 110.44 224.4 112.99 226.95 110.44C229.5 107.89 229.5 113.22 234.84 112.53C240.18 111.83 234.14 117.17 240.41 118.8C246.67 120.42 248.3 123.67 251.08 119.96C253.86 116.25 258.27 112.3 260.83 113.93C263.38 115.55 282.41 151.75 282.41 151.75L287.28 177.04L298.42 205.35L285.89 230.41L256.42 252.22L232.98 250.13L173.12 234.58L153.63 211.84V192.35L147.83 159.63H147.82Z" fill="white"/>
<path d="M242.49 248.96C242.49 248.96 245.74 240.37 248.06 238.52C250.38 236.66 251.08 232.72 252.7 232.49C254.32 232.26 256.41 233.42 257.8 232.26C259.19 231.1 262.21 228.78 264.06 230.4C265.92 232.02 271.49 232.49 271.72 228.54C271.95 224.59 271.26 220.42 273.34 218.79C275.43 217.17 279.14 215.77 281 214.85C282.86 213.92 289.12 220.88 289.12 222.74C289.12 224.6 294.92 248.03 294.92 248.03L304.9 260.1L296.55 267.99L270.56 274.25L254.32 267.99L242.49 248.96Z" fill="white"/>
<path d="M95.15 150.34C95.15 150.34 109.54 158.23 113.02 152.2C116.5 146.17 121.37 142.69 124.85 144.54C128.33 146.4 128.79 152.2 131.81 150.81C134.83 149.42 138.07 150.35 139.93 152.67C141.79 154.99 145.03 156.85 148.05 153.6L150.6 153.37C150.6 153.37 148.51 158.47 151.76 159.4C151.76 159.4 150.6 167.75 148.05 168.68C148.05 168.68 151.99 167.98 152.23 170.54C152.46 173.09 154.32 174.95 156.64 172.63C158.96 170.31 158.5 178.89 156.18 180.52C156.18 180.52 163.14 190.27 165.23 189.34C167.32 188.41 170.57 186.32 170.57 186.32C170.57 186.32 172.66 190.26 169.64 193.51L172.19 197.92L167.32 196.76C167.32 196.76 165.46 199.08 165.7 201.63C165.93 204.18 161.52 202.09 161.52 202.09C161.52 202.09 162.22 206.27 164.77 206.5C167.32 206.73 165.93 210.21 162.91 210.21L159.89 217.4L142.72 250.81L77.75 237.82L95.15 150.34Z" fill="white"/>
<path d="M101.93 240.55C101.93 240.55 109.76 241.07 111.85 241.07C113.94 241.07 112.55 244.2 117.77 241.77C122.99 239.33 119.51 247.34 126.12 245.95C132.73 244.56 133.08 243.86 133.78 239.69C134.48 235.51 139.7 237.6 139.7 237.6C139.7 237.6 142.14 241.43 143.88 237.95C145.62 234.47 140.75 229.94 144.92 226.46C149.1 222.98 155.01 219.5 155.01 216.71C155.01 213.92 161.27 215.32 163.71 218.1C166.15 220.88 168.93 222.62 172.76 224.36C176.59 226.1 178.33 231.32 183.9 230.45L185.29 228.19C185.29 228.19 194.69 231.32 197.65 229.06C200.61 226.8 204.61 230.45 206.7 228.02C208.79 225.58 210.01 230.63 211.57 228.54C213.14 226.45 213.48 225.93 216.27 226.28C219.05 226.63 222.19 224.54 222.19 224.54L224.8 228.19C224.8 228.19 222.89 225.23 225.32 225.06C227.76 224.89 230.89 223.67 230.89 222.28C230.89 222.28 232.11 225.59 236.63 224.54C236.63 224.54 236.28 228.54 238.72 228.54C241.16 228.54 238.72 232.37 240.63 232.89C242.54 233.41 242.02 236.2 240.8 236.89C239.58 237.59 238.02 240.89 238.02 240.89C238.02 240.89 239.76 242.8 241.33 242.46C242.9 242.11 244.81 242.46 246.72 244.72C248.63 246.98 250.9 249.24 253.86 248.72C256.82 248.2 256.82 249.42 254.73 254.11C252.64 258.8 259.6 266.64 263.08 266.29C266.56 265.94 269.17 274.99 269.17 274.99L247.59 307.88L201.18 307.42L155.24 327.84L108.83 306.49L77.7402 261.94L86.0902 242.45L101.93 240.54V240.55Z" fill="#D48076"/>
<path d="M174.62 153.94C174.62 153.94 175.78 153.13 175.66 151.27C175.54 149.41 176.47 151.73 177.75 151.62C179.03 151.5 178.91 147.79 178.91 147.79C178.91 147.79 182.39 148.37 182.39 147.09C182.39 145.81 182.16 141.64 183.32 140.48C184.48 139.32 189.7 134.45 189.82 132.36C189.82 132.36 193.42 132.71 193.42 131.2C193.42 129.69 194.23 123.54 197.36 123.31C200.49 123.08 204.32 116.23 206.29 116.23C208.26 116.23 212.09 120.52 211.74 122.84C211.39 125.16 210.12 126.09 210.12 127.6C210.12 129.11 207.22 131.2 208.03 131.78C208.84 132.36 210.93 134.22 209.77 136.3C209.77 136.3 213.13 136.07 213.25 138.16C213.37 140.25 214.18 142.45 217.08 142.8C217.08 142.8 217.31 146.63 219.52 146.51C221.72 146.39 218.01 150.92 218.01 152.54C218.01 154.16 219.29 152.77 220.45 152.31C221.61 151.85 223.47 159.74 221.73 160.32C219.99 160.9 217.67 161.71 216.74 161.13C215.81 160.55 211.98 160.9 211.87 161.71C211.75 162.52 209.78 161.25 208.39 162.41C207 163.57 204.79 164.61 204.21 165.19C203.63 165.77 200.61 166.35 200.61 165.54C200.61 164.73 203.86 163.45 204.55 161.83C205.25 160.21 202.11 159.28 200.61 158.81C199.1 158.35 198.64 157.07 196.78 157.07C194.92 157.07 192.49 155.79 192.02 155.79C191.55 155.79 187.96 151.85 185.76 153.24C183.56 154.63 181.93 155.33 181.12 151.85C181.12 151.85 178.22 157.07 174.62 153.94Z" fill="white"/>
<path d="M346.011 54.2188L350.099 74.2979L328.58 124.975L328.551 125.043L328.543 125.116L325.776 150.748C325.773 150.753 325.769 150.758 325.766 150.764C325.71 150.843 325.627 150.96 325.518 151.112C325.298 151.417 324.974 151.861 324.557 152.417C323.722 153.529 322.513 155.089 321.019 156.878C318.027 160.458 313.903 164.941 309.357 168.58C304.796 172.232 299.883 174.974 295.304 175.194C293.03 175.304 290.834 174.791 288.785 173.448C286.731 172.102 284.796 169.9 283.084 166.59L281.251 160.183L281.188 159.962L280.979 159.866V159.865H280.977C280.975 159.865 280.973 159.864 280.971 159.862C280.965 159.86 280.957 159.856 280.946 159.851C280.924 159.84 280.891 159.825 280.849 159.806C280.763 159.766 280.637 159.708 280.477 159.633C280.155 159.483 279.691 159.267 279.127 159.001C277.997 158.468 276.463 157.736 274.842 156.939C271.576 155.335 268.029 153.501 266.68 152.49C265.397 151.529 264.285 149.664 263.784 147.908C263.535 147.034 263.452 146.233 263.546 145.623C263.639 145.018 263.888 144.678 264.246 144.534C264.953 144.251 265.387 143.772 265.612 143.21C265.83 142.667 265.839 142.079 265.776 141.569C265.721 141.126 265.606 140.713 265.497 140.39H269.048L269.169 140.063V140.062L269.17 140.062C269.17 140.06 269.17 140.058 269.171 140.057C269.172 140.053 269.174 140.048 269.177 140.041C269.182 140.028 269.189 140.008 269.197 139.983C269.215 139.934 269.24 139.861 269.271 139.769C269.331 139.583 269.415 139.316 269.508 138.983C269.693 138.319 269.917 137.389 270.065 136.332C270.36 134.241 270.379 131.546 269.131 129.426C266.875 125.595 265.615 119.807 257.318 115.771L257.12 115.674L256.914 115.756H256.912C256.91 115.757 256.907 115.758 256.902 115.76C256.893 115.763 256.879 115.769 256.859 115.776C256.82 115.791 256.761 115.813 256.686 115.839C256.534 115.891 256.313 115.962 256.045 116.034C255.505 116.18 254.783 116.33 254.037 116.357C253.286 116.384 252.55 116.285 251.949 115.971C251.367 115.666 250.876 115.141 250.622 114.227C250.345 113.229 250.29 112.464 250.349 111.845C250.407 111.228 250.581 110.73 250.798 110.264C250.908 110.027 251.027 109.801 251.151 109.565C251.273 109.333 251.401 109.09 251.514 108.837C251.743 108.322 251.92 107.751 251.92 107.05C251.92 105.862 252.18 105.541 252.359 105.428C252.467 105.36 252.619 105.317 252.852 105.299C253.092 105.28 253.343 105.289 253.672 105.289C253.673 105.29 253.674 105.292 253.676 105.294C253.707 105.328 253.752 105.402 253.81 105.548C253.867 105.694 253.913 105.85 253.979 106.047C254.039 106.229 254.114 106.441 254.217 106.634C254.32 106.827 254.469 107.038 254.701 107.184C254.946 107.337 255.233 107.387 255.542 107.338C256.108 107.248 256.79 106.818 257.664 106.031L258.21 105.541L257.584 105.228C257.576 105.221 257.559 105.207 257.536 105.182C257.476 105.114 257.366 104.97 257.243 104.695C256.995 104.142 256.698 103.08 256.609 101.117C256.564 100.12 256.613 99.5986 256.696 99.3301C256.734 99.2067 256.769 99.174 256.772 99.1709C256.775 99.169 256.777 99.1675 256.782 99.165C256.789 99.162 256.803 99.1567 256.831 99.1514C257.047 99.11 258.072 99.2908 258.922 98.3438C259.248 97.9801 259.663 97.6078 260.118 97.2188C260.564 96.8379 261.059 96.4324 261.5 96.0352C261.943 95.6362 262.366 95.2154 262.68 94.7793C262.992 94.3457 263.229 93.8503 263.229 93.3096C263.229 92.7661 262.989 92.2898 262.689 91.9053C262.389 91.5196 262 91.1892 261.632 90.9248C261.304 90.6893 260.977 90.4972 260.717 90.3555C260.743 90.2989 260.769 90.2385 260.792 90.1729C260.985 89.6225 261.059 88.7415 260.791 87.3076C260.525 85.8869 260.23 84.5844 260.124 83.5459C260.071 83.0289 260.071 82.6257 260.13 82.3379C260.188 82.0543 260.283 81.9623 260.354 81.9258C260.378 81.9153 260.498 81.8885 260.853 82.0742C261.189 82.2505 261.564 82.5221 262.022 82.832C262.459 83.1266 262.958 83.4451 263.476 83.6387C263.999 83.8344 264.594 83.9221 265.187 83.6836C265.486 83.5632 265.856 83.5654 266.285 83.6797C266.713 83.7935 267.157 84.0079 267.57 84.2559C267.98 84.5022 268.342 84.771 268.603 84.9795C268.732 85.0832 268.835 85.1711 268.905 85.2324C268.94 85.263 268.967 85.2879 268.984 85.3037C268.993 85.3115 269 85.3166 269.004 85.3203C269.006 85.3222 269.008 85.3245 269.009 85.3252L269.16 85.4668L269.368 85.46L274.068 85.29L274.265 85.2822L274.404 85.1436V85.1426L274.417 85.1299C274.425 85.1214 274.437 85.1088 274.453 85.0928C274.485 85.0608 274.531 85.0146 274.588 84.9551C274.703 84.8358 274.865 84.6641 275.056 84.4551C275.437 84.0381 275.937 83.4664 276.406 82.8525C276.871 82.2444 277.324 81.5702 277.593 80.9521C277.727 80.6437 277.827 80.3203 277.846 80.0088C277.865 79.6908 277.799 79.3504 277.558 79.0723C277.261 78.7303 276.889 78.423 276.522 78.1396C276.14 77.8442 275.78 77.5864 275.427 77.2969C274.722 76.7183 274.261 76.1763 274.197 75.5215C274.114 74.6708 274.029 72.9564 274.113 71.4424C274.156 70.6817 274.24 70.0008 274.377 69.5117C274.446 69.2657 274.52 69.0987 274.588 68.999C274.655 68.9003 274.679 68.9194 274.643 68.9248L274.642 68.9238C274.944 68.8809 275.177 68.7191 275.328 68.4854C275.465 68.2745 275.523 68.0252 275.553 67.8008C275.611 67.3601 275.581 66.7774 275.57 66.2461C275.559 65.6837 275.566 65.1231 275.67 64.6172C275.773 64.1164 275.965 63.7073 276.294 63.4121L276.295 63.4111C276.827 62.9309 277.124 62.2859 277.306 61.6436C277.488 61.002 277.568 60.3153 277.633 59.7207C277.701 59.098 277.752 58.6097 277.858 58.2686C277.91 58.1024 277.962 58.0238 277.993 57.9912C278.008 57.9757 278.014 57.9697 278.05 57.9697C278.712 57.9697 279.873 58.0208 280.945 57.5576C282.07 57.0717 283.038 56.0546 283.411 54.084C283.562 53.2951 283.915 52.8386 284.348 52.5479C284.801 52.2433 285.382 52.0932 286.029 52.0098C286.349 51.9685 286.673 51.9446 286.994 51.9229C287.309 51.9015 287.631 51.8813 287.921 51.8467C288.209 51.8123 288.501 51.7602 288.757 51.6611C289.015 51.5609 289.279 51.3952 289.443 51.1084C289.606 50.8253 289.872 50.4484 290.205 49.958C290.531 49.4794 290.904 48.9159 291.252 48.2988C291.94 47.0763 292.563 45.5797 292.469 44.0391C292.44 43.5698 292.687 43.1339 293.216 42.7139C293.747 42.2925 294.495 41.9453 295.289 41.6709C296.076 41.3988 296.874 41.2095 297.479 41.0879C297.779 41.0273 298.03 40.9841 298.205 40.9561C298.275 40.9449 298.332 40.9352 298.376 40.9287L346.011 54.2188ZM257.556 105.214L257.559 105.215C257.56 105.216 257.562 105.217 257.563 105.218L257.554 105.213H257.555L257.556 105.214Z" fill="#D48076" stroke="white"/>
<path d="M429.497 53.8738L431.208 94.6062L390.069 121.573L334.917 143.662C334.902 143.644 334.886 143.625 334.869 143.605C334.688 143.393 334.427 143.089 334.105 142.719C333.464 141.981 332.582 140.982 331.623 139.938C330.665 138.895 329.625 137.804 328.67 136.885C327.726 135.976 326.828 135.197 326.157 134.815C325.959 134.702 325.865 134.57 325.816 134.41C325.761 134.229 325.754 133.976 325.813 133.621C325.936 132.889 326.282 131.993 326.646 130.834C327.329 128.656 327.973 125.816 326.501 122.781L326.352 122.486C324.883 119.713 325.36 117.447 326.242 115.348C326.465 114.819 326.712 114.301 326.963 113.787C327.211 113.276 327.465 112.763 327.689 112.259C328.137 111.252 328.5 110.216 328.5 109.15C328.5 107.353 328.98 106.306 329.615 105.12C330.264 103.909 331.08 102.547 331.617 100.212C331.881 99.0665 331.836 98.2312 331.323 97.7205C331.074 97.4721 330.764 97.3567 330.478 97.2966C330.196 97.2375 329.891 97.2231 329.624 97.2126C329.034 97.1896 328.61 97.1712 328.304 96.9861C328.07 96.8443 327.8 96.5281 327.8 95.5798C327.8 94.6993 328.243 93.7847 328.979 92.8259C329.713 91.8717 330.684 90.9407 331.646 90.0212C332.591 89.1192 333.544 88.2143 334.164 87.3533C334.774 86.506 335.187 85.5268 334.707 84.5662C334.448 84.0475 334.469 83.3799 334.775 82.5173C335.081 81.6573 335.641 80.6862 336.333 79.6257C337.69 77.5477 339.569 75.1235 340.634 72.8201V72.8191C342.738 68.2457 343.503 64.2479 341.675 60.2234C340.861 58.4319 340.895 56.5859 341.145 55.1658C341.269 54.4582 341.446 53.8648 341.591 53.45C341.663 53.243 341.727 53.081 341.772 52.9724C341.795 52.9182 341.813 52.8768 341.825 52.8503C341.831 52.838 341.835 52.8289 341.838 52.823L350.168 40.0779L429.497 53.8738Z" fill="#D48076" stroke="white"/>
<path d="M292.84 249.77C292.84 249.77 285.88 245.94 287.27 237.94C288.66 229.93 283.44 232.72 283.79 228.89C284.14 225.06 283.09 217.75 286.23 217.75C289.37 217.75 289.01 208.35 286.93 207.66C284.85 206.97 276.49 205.22 278.23 198.96C279.97 192.7 283.8 190.61 272.66 188.52C261.52 186.43 271.96 178.77 277.18 175.29C282.4 171.81 276.83 165.54 284.84 164.15C292.85 162.76 286.58 169.02 290.41 169.02C294.24 169.02 288.67 163.1 292.85 162.76C297.03 162.41 300.16 160.67 300.51 155.8C300.51 155.8 305.5 155.34 305.73 153.13C305.96 150.92 305.61 150.23 306.89 150.23C308.17 150.23 308.51 147.33 306.66 145.82C304.8 144.31 307.7 143.96 308.63 144.2V139.79C308.63 139.79 305.5 139.21 306.08 136.77C306.66 134.33 307.47 137.35 308.63 136.89C309.79 136.43 309.44 131.55 310.95 131.55C312.46 131.55 313.39 133.87 316.63 133.64C319.88 133.41 319.65 134.45 321.62 133.76C323.59 133.06 326.38 132.95 327.3 133.53C328.23 134.11 339.02 146.87 339.02 146.87L333.92 204.53L341.58 224.72L292.85 249.78L292.84 249.77Z" fill="white"/>
</g>
<path d="M364.63 150.87C364.63 150.87 361.66 148.95 363.58 147.38C365.5 145.81 367.24 147.9 367.24 144.94C367.24 141.98 368.29 142.67 373 138.83C376.44 136.03 377.65 135.64 379.07 135.64C380.13 135.64 381.14 136.14 381.78 136.99C381.93 137.2 382.09 137.41 382.26 137.61C384.12 139.93 380.34 139.7 380.86 140.05C381.38 140.4 385.57 142.67 386.62 141.1C387.67 139.53 391.51 142.32 390.28 144.42C389.06 146.51 388.36 146.17 388.71 148.43C389.06 150.7 383.82 158.03 381.38 158.03C378.94 158.03 378.76 157.86 378.76 155.41C378.76 155.41 373.18 157.16 373 154.54C372.83 151.92 370.73 149.83 367.94 151.57C365.15 153.32 364.62 150.87 364.62 150.87H364.63Z" fill="white"/>
<path d="M400.24 130.45C400.24 130.45 397.97 130.45 397.97 131.67C397.97 132.89 400.41 131.84 400.41 133.42C400.41 135 400.41 134.99 403.03 134.99C405.65 134.99 411.06 139.88 411.41 137.26C411.76 134.64 410.71 134.29 409.14 131.68C407.57 129.06 400.24 130.46 400.24 130.46V130.45Z" fill="white"/>
<path d="M345.09 171.08C345.09 171.08 345.09 168.99 346.14 167.94C347.19 166.89 347.01 164.8 349.46 164.1C351.9 163.4 354.35 162.53 354.35 165.5C354.35 168.47 352.43 167.42 352.26 168.82C352.09 170.22 349.64 168.99 349.29 171.44C348.94 173.88 347.02 169.52 345.1 171.09L345.09 171.08Z" fill="white"/>
<path d="M351.38 175.97C351.38 175.97 349.81 174.57 349.63 176.14C349.46 177.71 348.58 180.33 349.98 179.46C351.38 178.59 353.64 179.98 353.47 178.59C353.3 177.19 351.38 175.97 351.38 175.97Z" fill="white"/>
<path d="M41.2397 322.65C41.2397 322.65 41.7697 319.44 39.4597 319.08C37.1497 318.72 41.7797 318.19 44.0897 319.08C46.4097 319.97 49.9697 318.72 50.8597 316.76C51.7497 314.8 54.4297 314.8 55.8497 314.26C57.2797 313.73 57.4497 314.97 54.4197 316.4C54.4197 316.4 54.0597 318.72 51.5697 318.9C51.5697 318.9 52.4597 320.86 51.0397 321.75C49.6097 322.64 51.3997 326.74 46.2297 328.17C46.2297 328.17 44.0897 329.77 43.9097 326.74C43.7297 323.71 41.2397 324.6 41.2397 322.64V322.65Z" fill="white"/>
<path d="M30.14 324.79C30.14 324.79 30.54 323.59 31.74 323.59C32.94 323.59 34.95 323.46 34.68 324.66C34.41 325.86 34.28 328 31.87 327.73C29.46 327.46 30.13 324.79 30.13 324.79H30.14Z" fill="white"/>
<path d="M17.3096 313.64C17.2496 312.68 17.0796 311.73 16.7996 310.81C16.5796 310.08 16.3696 309.17 16.3696 308.35C16.3696 306.61 16.4996 306.48 18.6396 307.15C20.7796 307.82 19.1696 306.08 20.6496 306.21C22.1196 306.34 22.6596 309.69 21.7196 309.95C20.7796 310.22 20.5196 312.49 20.5196 313.16C20.5196 313.83 19.9896 316.1 18.5096 316.1C17.6396 316.1 17.3796 314.75 17.3096 313.64Z" fill="white"/>
<path d="M58.0898 334.71C58.0898 334.71 57.2898 332.44 59.4298 330.7C61.5698 328.96 60.0998 326.82 62.2398 326.69C64.3798 326.56 63.9798 327.76 65.9798 327.76C67.9798 327.76 67.0498 329.63 67.1798 331.24C67.3098 332.85 67.9798 335.52 66.1098 336.45C64.2398 337.39 64.6398 339.39 63.2998 338.99C61.9598 338.59 58.3498 337.52 58.0898 334.71Z" fill="white"/>
<path d="M73.9199 323.25C73.9199 323.25 80.1999 322.45 80.1999 317.9C80.1999 313.35 81.6699 317.9 83.8099 311.22C85.9499 304.54 87.1499 307.61 88.2199 307.61C89.2899 307.61 88.7499 312.56 88.7499 312.56C88.7499 312.56 87.8099 313.76 88.6199 314.57C89.4199 315.37 86.8799 319.92 83.6699 320.18C80.4599 320.45 77.6499 324.99 77.6499 324.99C77.6499 324.99 73.7699 325.93 73.9099 323.25H73.9199Z" fill="white"/>
<path d="M90.0998 303.73C90.0998 303.73 87.0298 304.67 88.0898 302.39C89.1598 300.12 87.2898 299.18 90.2298 298.51C93.1698 297.84 95.4398 298.91 95.4398 297.44C95.4398 295.97 96.2398 295.03 96.6398 295.17L97.0398 295.3C97.0398 295.3 98.6398 295.3 97.4398 298.11C96.5798 300.12 95.2398 301.45 93.6098 302.09C92.6198 302.48 91.6798 302.99 90.7698 303.54C90.5798 303.65 90.3598 303.73 90.0898 303.73H90.0998Z" fill="white"/>
<path d="M12.7198 335.66C12.7198 335.66 10.9398 334.23 12.7198 334.14C14.4998 334.05 14.0598 332 16.1998 332.27C18.3398 332.54 15.4898 334.14 15.4898 335.92C15.4898 337.7 14.9598 337.7 12.7298 335.65L12.7198 335.66Z" fill="white"/>
<path d="M106.12 289.62H0.5V351.91H106.12V289.62Z" stroke="white" stroke-miterlimit="10"/>
</g>
<defs>
<clipPath id="clip0_3048_101">
<rect width="431.71" height="352.41" fill="white"/>
</clipPath>
</defs>
</svg>
