<svg width="30" height="30" viewBox="0 0 30 30" fill="none" xmlns="http://www.w3.org/2000/svg">
<path d="M15.4125 5.56873C15.6762 5.30539 16.0336 5.15747 16.4062 5.15747C16.7789 5.15747 17.1363 5.30539 17.4 5.56873L25.3687 13.5375C25.6321 13.8012 25.78 14.1586 25.78 14.5312C25.78 14.9039 25.6321 15.2613 25.3687 15.525L17.4 23.4937C17.1335 23.7424 16.7808 23.8779 16.4163 23.8716C16.0518 23.8653 15.704 23.7177 15.4462 23.46C15.1885 23.2022 15.0409 22.8544 15.0346 22.4899C15.0283 22.1254 15.1638 21.7728 15.4125 21.5062L20.9812 15.9375H7.03125C6.65829 15.9375 6.3006 15.7893 6.03688 15.5256C5.77316 15.2619 5.625 14.9042 5.625 14.5312C5.625 14.1583 5.77316 13.8006 6.03688 13.5369C6.3006 13.2731 6.65829 13.125 7.03125 13.125H20.9812L15.4125 7.55623C15.1492 7.29256 15.0012 6.93514 15.0012 6.56248C15.0012 6.18983 15.1492 5.83241 15.4125 5.56873Z" fill="white"/>
</svg>
