<svg width="61" height="61" viewBox="0 0 61 61" fill="none" xmlns="http://www.w3.org/2000/svg">
<circle cx="30.5" cy="30.5" r="30.5" fill="#214068"/>
<path d="M43.8209 38.5014L32.5033 17.4838C31.7011 15.9937 29.5642 15.9937 28.7613 17.4838L17.4444 38.5014C17.2702 38.8249 17.1829 39.188 17.1909 39.5554C17.199 39.9227 17.3021 40.2816 17.4903 40.5972C17.6785 40.9128 17.9453 41.1741 18.2646 41.3558C18.584 41.5375 18.945 41.6333 19.3124 41.6338H41.9496C42.3173 41.6338 42.6787 41.5385 42.9985 41.357C43.3183 41.1756 43.5856 40.9143 43.7742 40.5986C43.9627 40.283 44.0662 39.9238 44.0744 39.5562C44.0826 39.1886 43.9953 38.8252 43.8209 38.5014ZM30.6327 38.3799C30.37 38.3799 30.1132 38.302 29.8948 38.1561C29.6764 38.0101 29.5062 37.8027 29.4056 37.56C29.3051 37.3173 29.2788 37.0503 29.3301 36.7927C29.3813 36.535 29.5078 36.2984 29.6935 36.1126C29.8793 35.9269 30.1159 35.8004 30.3736 35.7492C30.6312 35.6979 30.8982 35.7242 31.1409 35.8247C31.3836 35.9253 31.591 36.0955 31.737 36.3139C31.8829 36.5323 31.9608 36.7891 31.9608 37.0518C31.9608 37.404 31.8209 37.7418 31.5718 37.9909C31.3227 38.24 30.9849 38.3799 30.6327 38.3799ZM32.075 25.0223L31.6938 33.1238C31.6938 33.4056 31.5819 33.6759 31.3826 33.8751C31.1834 34.0744 30.9131 34.1863 30.6313 34.1863C30.3495 34.1863 30.0793 34.0744 29.88 33.8751C29.6808 33.6759 29.5688 33.4056 29.5688 33.1238L29.1877 25.0256C29.1791 24.8321 29.2096 24.6388 29.2773 24.4573C29.345 24.2758 29.4486 24.1099 29.5818 23.9692C29.715 23.8286 29.8752 23.7163 30.0528 23.6389C30.2304 23.5615 30.4217 23.5207 30.6154 23.5188H30.6293C30.8244 23.5187 31.0174 23.5581 31.1967 23.6347C31.3761 23.7112 31.5381 23.8233 31.673 23.9642C31.8078 24.1051 31.9127 24.2718 31.9814 24.4543C32.05 24.6369 32.081 24.8314 32.0724 25.0262L32.075 25.0223Z" fill="white"/>
</svg>
