<svg width="61" height="61" viewBox="0 0 61 61" fill="none" xmlns="http://www.w3.org/2000/svg">
<circle cx="30.5" cy="30.5" r="30.5" fill="#214068"/>
<path d="M30.0498 21.5C32.6732 21.5 34.7998 19.3734 34.7998 16.75C34.7998 14.1266 32.6732 12 30.0498 12C27.4265 12 25.2998 14.1266 25.2998 16.75C25.2998 19.3734 27.4265 21.5 30.0498 21.5Z" fill="white"/>
<path d="M39.4246 25.9271C41.4756 28.17 42.6123 31.0996 42.6109 34.1389C42.6109 40.9447 37.004 46.4661 30.0899 46.4661C23.1739 46.4661 17.5594 40.9447 17.5594 34.1389C17.5594 31.0172 18.745 28.171 20.6906 25.9993L17.9622 23.3374C15.3452 26.2573 13.8992 30.0412 13.9019 33.9622C13.9 42.8162 21.139 50.0001 30.0557 50.0001C38.9724 50.0001 46.2019 42.8181 46.2019 33.9622C46.2057 30.0227 44.7489 26.2216 42.1131 23.2937L39.4246 25.9271Z" fill="white"/>
<path d="M20.2993 19.1326L20.2461 22.4975C20.2461 22.4975 20.6641 24.2645 23.5711 25.1784C26.3964 26.0676 30.375 25.7484 33.1623 27.01C35.581 28.1025 36.4113 29.917 36.4113 29.917L36.4683 26.763C36.4683 26.763 36.2593 25.0986 34.0268 24.4089C31.7924 23.7211 28.0589 23.4969 23.7136 22.0054C21.7661 21.3366 20.2727 19.1839 20.2993 19.1326ZM23.4628 26.3488L23.3431 30.05C23.3431 30.05 23.6471 30.8385 26.3413 31.6194C27.9525 32.0868 32.7329 32.5067 35.2067 33.5156C37.3708 34.3972 38.3702 36.4682 38.3702 36.4682L38.5982 33.3845C37.8838 31.6365 37.0592 31.2033 34.1484 30.4509C32.1648 29.9379 29.8924 29.8467 28.1387 29.2634C24.6978 28.1177 23.4647 26.3507 23.4647 26.3507L23.4628 26.3488Z" fill="white"/>
<path d="M39.5347 19.106V22.4082C39.5347 22.4082 39.0711 23.9415 36.5783 24.8687C33.3673 26.0619 28.4596 25.9764 25.1707 27.8251C24.2986 28.3011 23.6438 29.0954 23.3429 30.0424L23.3942 26.2443C23.3942 26.2443 23.9642 24.8326 26.8712 23.9263C30.6028 22.7597 32.9702 23.2043 36.299 21.7831C38.465 20.8578 39.5594 19.1326 39.5347 19.106ZM21.2947 33.3066L21.1636 36.9508C21.1636 36.9508 21.7355 38.1098 23.4284 38.8318C26.6641 40.215 28.946 39.1985 33.6979 41.3626C35.843 42.3373 36.3484 43.9504 36.3484 43.9504L36.337 40.291C36.337 40.291 36.0577 39.17 33.9772 38.4803C31.8967 37.7925 27.35 37.3232 24.2625 36.1623C22.1402 35.3643 21.2681 33.28 21.2947 33.3066Z" fill="white"/>
<path d="M23.3694 43.5779L23.4207 40.0876C23.4207 40.0876 23.6601 39.0806 26.8977 38.047C29.9491 37.0742 33.7415 37.0932 35.518 36.356C37.2945 35.615 38.596 33.3806 38.596 33.3806L38.5827 37.0856C38.5827 37.0856 38.6758 38.408 35.9645 39.2706C32.4381 40.3916 30.2075 39.9926 26.7324 41.2941C24.764 42.0332 23.4207 43.6539 23.3694 43.5779ZM36.4718 26.761L36.5136 29.9416C36.5136 29.9416 36.0158 30.8764 33.8213 31.7656C30.8326 32.9816 28.1156 32.2938 24.308 33.9183C22.8868 34.5225 21.1616 36.9507 21.1616 36.9507L21.2623 33.1013C21.2623 33.1013 22.2864 31.4483 24.1313 30.7833C28.089 29.3545 29.5615 30.3995 33.6978 28.6933C35.0962 28.1138 36.43 26.9187 36.4718 26.761Z" fill="white"/>
</svg>
