<svg width="61" height="61" viewBox="0 0 61 61" fill="none" xmlns="http://www.w3.org/2000/svg">
<circle cx="30.5" cy="30.5" r="30.5" fill="#214068"/>
<path d="M9.4375 23.3334C9.4375 23.3334 17.5833 21.4167 23.3333 25.2501C23.3333 25.2501 24.2917 32.4376 28.125 32.4376V29.0834C28.125 29.0834 29.0833 31.0001 31 31.0001C32.9167 31.0001 33.875 29.0834 33.875 29.0834V32.4376C37.7083 32.4376 38.6667 25.2501 38.6667 25.2501C44.4167 21.4167 52.5625 23.3334 52.5625 23.3334C48.7292 25.2501 48.25 31.9584 48.25 31.9584C40.5833 31.9584 40.5833 38.1876 40.5833 38.1876C31 36.2709 31 43.4584 31 43.4584C31 43.4584 31 36.2709 21.4167 38.1876C21.4167 38.1876 21.4167 31.9584 13.75 31.9584C13.75 31.9584 13.2708 25.2501 9.4375 23.3334Z" fill="white"/>
</svg>
