<svg width="28" height="28" viewBox="0 0 28 28" fill="none" xmlns="http://www.w3.org/2000/svg">
<path d="M3.49881 9.64086V9.62511C3.49879 8.06947 3.95951 6.54866 4.82286 5.25457C5.6862 3.96048 6.91349 2.95108 8.34988 2.35373C9.78626 1.75637 11.3674 1.59782 12.8938 1.89808C14.4202 2.19834 15.8235 2.94396 16.9266 4.04087C17.7945 3.61249 18.7639 3.43237 19.7278 3.52043C20.6917 3.60848 21.6124 3.96128 22.3884 4.53983C23.1643 5.11839 23.7652 5.90018 24.1247 6.79884C24.4841 7.6975 24.5882 8.67803 24.4253 9.63212C24.6648 9.65434 24.8971 9.72568 25.1077 9.84169C25.3184 9.9577 25.5029 10.1159 25.6497 10.3064C25.7965 10.4968 25.9025 10.7155 25.961 10.9488C26.0195 11.1821 26.0293 11.4249 25.9898 11.6621C25.1988 16.4204 23.2423 19.4321 20.1238 20.6991V21.8751C20.1238 22.5713 19.8472 23.239 19.355 23.7313C18.8627 24.2236 18.195 24.5001 17.4988 24.5001H10.4988C9.80262 24.5001 9.13494 24.2236 8.64265 23.7313C8.15037 23.239 7.87381 22.5713 7.87381 21.8751V20.6991C4.75531 19.4321 2.79881 16.4204 2.00781 11.6621C1.96963 11.4312 1.97817 11.195 2.03291 10.9674C2.08765 10.7398 2.18749 10.5256 2.32651 10.3373C2.46553 10.149 2.64091 9.99046 2.84227 9.87115C3.04363 9.75183 3.26688 9.67412 3.49881 9.64262V9.64086ZM5.24881 9.62511H6.99881C6.99881 8.46479 7.45975 7.35199 8.28022 6.53152C9.10069 5.71105 10.2135 5.25012 11.3738 5.25012C12.5341 5.25012 13.6469 5.71105 14.4674 6.53152C15.2879 7.35199 15.7488 8.46479 15.7488 9.62511H17.4988C17.4988 8.00066 16.8535 6.44275 15.7048 5.29409C14.5562 4.14543 12.9983 3.50012 11.3738 3.50012C9.74936 3.50012 8.19144 4.14543 7.04278 5.29409C5.89412 6.44275 5.24881 8.00066 5.24881 9.62511ZM8.74881 9.62511H13.9988C13.9988 8.92892 13.7222 8.26124 13.23 7.76896C12.7377 7.27668 12.07 7.00012 11.3738 7.00012C10.6776 7.00012 10.0099 7.27668 9.51765 7.76896C9.02537 8.26124 8.74881 8.92892 8.74881 9.62511ZM20.7643 9.62511H22.6386C22.7707 9.10794 22.783 8.56743 22.6746 8.04478C22.5662 7.52212 22.3399 7.03111 22.0129 6.60916C21.686 6.18721 21.2671 5.84546 20.7881 5.60994C20.309 5.37442 19.7826 5.25135 19.2488 5.25012C18.8288 5.25012 18.4298 5.32362 18.0588 5.45837C18.3686 5.95537 18.6241 6.49087 18.8201 7.05262C19.1534 6.96995 19.5036 6.98697 19.8274 7.10157C20.1511 7.21617 20.434 7.42331 20.6411 7.69728C20.8482 7.97125 20.9702 8.29998 20.9921 8.6427C21.014 8.98541 20.9348 9.32701 20.7643 9.62511ZM18.3738 21.0001H9.62381V21.8751C9.62381 22.1072 9.716 22.3297 9.88009 22.4938C10.0442 22.6579 10.2667 22.7501 10.4988 22.7501H17.4988C17.7309 22.7501 17.9534 22.6579 18.1175 22.4938C18.2816 22.3297 18.3738 22.1072 18.3738 21.8751V21.0001ZM9.00781 19.2501H18.9898C21.7653 18.3576 23.5223 15.8341 24.2643 11.3751H3.73331C4.47531 15.8341 6.23231 18.3576 9.00781 19.2501Z" fill="#646464"/>
</svg>
