<svg width="232" height="55" viewBox="0 0 232 55" fill="none" xmlns="http://www.w3.org/2000/svg">
<g clip-path="url(#clip0_2080_109)">
<path d="M86.6768 11.2822H89.4112C90.5048 11.2822 91.5985 11.5521 92.4188 11.822C93.2392 12.0918 93.786 12.6315 94.3328 13.1713C94.8797 13.711 95.1532 14.7905 95.4265 15.8699C95.7 16.9493 95.7 18.2987 95.7 19.9179V54.4605H87.2237V11.2822H86.6768ZM69.7243 11.2822H72.4585C73.5523 11.2822 74.646 11.5521 75.1928 11.822C76.0132 12.0918 76.56 12.6315 77.1068 13.1713C77.6537 13.711 77.9272 14.7905 77.9272 15.8699C78.2005 16.9493 78.2005 18.2987 78.2005 19.9179V54.4605H69.7243V11.2822ZM54.4123 37.1892C54.4123 35.0302 54.1388 33.1412 53.8655 31.7919C53.592 30.4425 53.3185 29.0932 52.7717 28.2837C52.2248 27.4741 51.678 26.6645 51.1312 26.3945C50.5843 26.1248 49.764 25.8548 48.9437 25.8548C48.1235 25.8548 47.5765 26.1248 46.7563 26.3945C46.2095 26.6645 45.3892 27.4741 44.8423 28.2837C44.2955 29.0932 44.022 30.1728 43.7485 31.7919C43.4752 33.1412 43.2017 35.0302 43.2017 37.1892H54.4123ZM50.5843 52.0317C52.7717 52.0317 54.6857 51.4919 56.0528 50.4125C57.42 49.3331 58.7872 47.9837 59.8808 46.6344L61.7948 48.2535C61.248 49.0631 60.7012 49.8728 60.1543 50.6824C59.6075 51.4919 58.5137 52.3015 57.6935 52.8412C56.5997 53.3811 55.506 54.1905 54.1388 54.4605C52.7717 55.0002 51.1312 55.0002 49.4905 55.0002C47.0297 55.0002 45.1157 54.7303 43.2017 53.9208C41.2877 53.1111 39.6472 52.0317 38.5535 50.6824C37.1863 49.3331 36.0925 47.444 35.5457 45.555C34.7255 43.6659 34.452 41.507 34.452 39.0782C34.452 36.3796 34.7255 34.2206 35.5457 32.0618C36.366 30.1728 37.1863 28.2837 38.5535 27.2042C39.9205 25.8548 41.2877 24.7754 43.2017 24.2357C44.8423 23.4261 46.7563 23.1563 48.9437 23.1563C51.1312 23.1563 53.0452 23.4261 54.6857 24.2357C56.3263 24.7754 57.9668 25.8548 59.334 26.9344C60.7012 28.0138 61.5215 29.3631 62.3417 30.9822C63.162 32.6015 63.4355 34.4905 63.4355 36.3796C63.4355 36.9193 63.4355 37.459 63.4355 37.7289C63.4355 38.2686 63.4355 38.8083 63.4355 39.0782C63.4355 39.6179 63.4355 39.8877 63.4355 40.4276H43.4752C43.4752 44.7454 44.022 47.7138 45.3892 49.6028C46.7563 51.2221 48.3968 52.0317 50.5843 52.0317ZM16.9525 26.1248C14.4917 26.1248 12.8511 27.2042 11.2106 29.3631C9.84343 31.5221 9.02315 34.7603 9.02315 39.0782C9.02315 47.7138 11.7574 52.0317 17.226 52.0317C19.4135 52.0317 21.3275 51.4919 22.6945 50.4125C24.0617 49.3331 25.4288 47.9837 26.5225 46.6344L28.4365 48.2535C27.8897 49.0631 27.3428 49.8728 26.796 50.6824C26.2492 51.4919 25.1555 52.3015 24.3352 52.8412C23.2415 53.3811 22.1477 54.1905 20.7805 54.4605C19.4135 55.0002 17.7728 55.0002 15.8588 55.0002C13.1246 55.0002 10.9371 54.4605 9.02315 53.6508C7.10915 52.8412 5.46857 51.7618 4.10143 50.1427C2.73428 48.7934 1.64057 47.1741 1.09371 45.2851C0.273428 43.396 0 41.2371 0 39.0782C0 36.9193 0.273428 34.7603 1.09371 32.8713C1.64057 30.9822 2.73428 29.3631 4.10143 27.7439C5.46857 26.3945 7.10915 25.0453 9.02315 24.2357C10.9371 23.4261 13.1246 23.1563 15.8588 23.1563C18.3197 23.1563 20.5072 23.4261 22.1477 23.696C23.7883 23.9658 25.1555 24.5055 25.9757 25.585C26.796 26.3945 27.3428 27.4741 27.3428 28.8234C27.3428 30.1728 27.6163 32.0618 27.6163 34.4905H25.7023C25.4288 31.7919 24.6085 29.6329 22.968 28.2837C21.6008 26.6645 19.4135 26.1248 16.9525 26.1248Z" fill="white"/>
<path d="M182.29 40.5536L176.136 29.9234C175.334 28.2879 174.264 27.1976 173.194 26.38C172.124 25.5623 171.054 25.0171 170.25 24.7445V23.6542H176.404C178.544 23.6542 180.149 24.1994 181.486 25.0171C182.825 25.8348 183.895 27.1976 184.697 28.8331L187.907 34.2845L196.468 23.6542H200.748L189.779 37.2828L195.664 47.913C196.468 49.5485 197.538 50.6388 198.608 51.4565C199.678 52.2741 200.748 52.8193 201.55 53.0919V54.4547H195.398C193.257 54.4547 191.652 53.9096 190.314 53.0919C188.977 52.2741 187.907 50.9112 187.104 49.2759L183.895 43.8244L175.334 54.4547H171.054L182.29 40.5536ZM160.086 37.2828C160.086 35.1023 159.818 33.1942 159.551 31.8313C159.283 30.4685 159.016 29.1057 158.481 28.2879C157.946 27.4702 157.411 26.925 156.875 26.38C156.34 26.1074 155.537 25.8348 154.735 25.8348C153.932 25.8348 153.397 26.1074 152.595 26.38C152.06 26.6526 151.258 27.4702 150.723 28.2879C150.188 29.1057 149.92 30.196 149.653 31.8313C149.385 33.1942 149.118 35.1023 149.118 37.2828H160.086ZM156.34 52.0015C158.481 52.0015 160.353 51.4564 161.691 50.3662C163.028 49.2759 164.366 47.913 165.436 46.5502L167.308 48.1856C166.773 49.0033 166.238 49.821 165.703 50.6388C165.168 51.4565 164.098 52.2741 163.296 52.8193C162.226 53.3644 161.156 54.1822 159.818 54.4547C158.481 54.9999 156.875 54.9999 155.27 54.9999C152.862 54.9999 150.99 54.7273 149.118 53.9096C147.245 53.0919 145.639 52.0015 144.57 50.6388C143.232 49.2759 142.162 47.3678 141.627 45.4599C140.824 43.552 140.557 41.3713 140.557 39.1907C140.557 36.465 140.824 34.2845 141.627 32.1039C142.43 30.196 143.232 28.2879 144.57 27.1976C145.908 25.8348 147.245 24.7445 149.118 24.1994C150.723 23.3816 152.595 23.1092 154.735 23.1092C156.875 23.1092 158.747 23.3816 160.353 23.9268C161.958 24.4719 163.563 25.5623 164.901 26.6526C166.238 27.7428 167.041 29.1057 167.843 30.7411C168.645 32.3765 168.913 34.2845 168.913 36.1925C168.913 36.7376 168.913 37.2828 168.913 37.5554C168.913 38.1005 168.913 38.3731 168.913 38.9181C168.913 39.4633 168.913 39.736 168.913 40.281H149.653C149.653 44.6422 150.188 47.6404 151.525 49.5485C152.595 51.1838 154.2 52.0015 156.34 52.0015ZM120.226 25.8348C118.888 25.8348 117.551 26.1074 116.748 26.38C115.678 26.6526 114.876 27.1976 114.341 27.7428C114.341 28.0153 114.341 28.2879 114.608 28.5605C114.608 28.8331 114.876 29.3782 114.876 29.6508C114.876 30.196 114.876 30.4685 114.876 31.0137V53.9096H106.583V31.5589C106.583 30.4685 106.583 29.6508 106.315 28.8331C106.315 28.0153 106.048 27.1976 105.78 26.6526C105.513 26.1074 104.978 25.5623 104.443 25.2897C103.908 25.0171 103.105 24.7445 102.035 24.7445H101.5V23.3816H107.92C109.258 23.3816 110.595 23.6542 111.398 23.9268C112.201 24.1994 113.003 25.0171 113.271 25.8348C113.538 25.5622 114.073 25.0171 114.608 24.7445C115.143 24.4719 115.678 23.9268 116.481 23.6542C117.283 23.3816 118.086 23.1092 119.156 22.8366C120.226 22.564 121.296 22.564 122.634 22.564C126.646 22.564 129.856 23.3816 131.729 25.2897C133.869 27.1976 134.939 30.196 134.939 34.5571V53.9096H126.646V34.2845C126.646 31.0137 126.111 28.8331 124.774 27.4702C123.436 26.6526 121.831 25.8348 120.226 25.8348Z" fill="white"/>
<path d="M193.326 2.27332C210.014 -0.823253 225.113 11.8445 228.027 29.0163C228.291 30.1424 232 29.5794 232 28.1718C228.822 8.74795 211.074 -2.79379 193.062 0.584276C190.676 1.14729 190.942 2.83632 193.326 2.27332Z" fill="white"/>
<path d="M193.952 16.167C203.268 14.3111 213.995 20.1438 211.736 30.2182C211.455 31.5437 215.689 31.0135 215.689 30.2182C217.1 24.3856 214.278 19.6135 208.913 16.4321C204.115 13.5158 197.905 13.7809 192.541 14.8414C189.999 15.3716 192.258 16.4321 193.952 16.167Z" fill="white"/>
<path d="M192.907 8.08632C206.28 5.59044 218.585 15.574 220.992 29.1626C221.26 30.2719 225.004 29.1626 224.737 27.7761C222.062 12.2461 207.885 3.37188 193.442 6.14509C191.57 6.42241 190.231 8.36365 192.907 8.08632Z" fill="white"/>
</g>
<defs>
<clipPath id="clip0_2080_109">
<rect width="232" height="55" fill="white"/>
</clipPath>
</defs>
</svg>
