<svg width="241" height="31" viewBox="0 0 241 31" fill="none" xmlns="http://www.w3.org/2000/svg">
<path d="M230.115 28.3199C228.622 28.3199 227.875 27.8266 227.875 26.8399C227.875 26.2266 228.088 25.6133 228.515 24.9999C228.968 24.3866 229.502 23.8266 230.115 23.3199C230.728 22.8133 231.302 22.4266 231.835 22.1599C231.995 22.0799 232.208 21.9999 232.475 21.9199C232.768 21.8399 233.008 21.7999 233.195 21.7999C233.408 21.7999 233.515 21.8799 233.515 22.0399C233.515 22.1733 233.368 22.3199 233.075 22.4799C231.848 23.0666 230.888 23.7733 230.195 24.5999C229.528 25.3999 229.195 26.0533 229.195 26.5599C229.195 27.0399 229.608 27.2799 230.435 27.2799C231.128 27.2799 231.875 27.1066 232.675 26.7599C233.502 26.4133 234.275 25.9599 234.995 25.3999C235.742 24.8399 236.355 24.2399 236.835 23.5999C237.315 22.9599 237.555 22.3466 237.555 21.7599C237.555 21.3599 237.422 20.9999 237.155 20.6799C236.915 20.3599 236.515 20.1199 235.955 19.9599L233.315 19.1599C232.648 18.9466 232.168 18.6666 231.875 18.3199C231.582 17.9733 231.435 17.5866 231.435 17.1599C231.435 16.3599 231.728 15.6399 232.315 14.9999C232.928 14.3599 233.688 13.8533 234.595 13.4799C235.502 13.1066 236.382 12.9199 237.235 12.9199C238.088 12.9199 238.835 13.1333 239.475 13.5599C240.115 13.9599 240.435 14.5066 240.435 15.1999C240.435 15.5999 240.315 15.9733 240.075 16.3199C239.862 16.6666 239.608 16.8399 239.315 16.8399C238.862 16.8399 238.635 16.6533 238.635 16.2799C238.635 16.1466 238.702 15.9866 238.835 15.7999C238.995 15.5866 239.075 15.3866 239.075 15.1999C239.075 14.3999 238.462 13.9999 237.235 13.9999C236.568 13.9999 235.902 14.1466 235.235 14.4399C234.595 14.7066 234.062 15.0666 233.635 15.5199C233.208 15.9733 232.995 16.4666 232.995 16.9999C232.995 17.5333 233.528 17.9599 234.595 18.2799L237.155 19.0799C237.928 19.3199 238.462 19.6533 238.755 20.0799C239.048 20.4799 239.195 20.9333 239.195 21.4399C239.195 22.6399 238.462 23.8799 236.995 25.1599C234.622 27.2666 232.328 28.3199 230.115 28.3199Z" fill="white"/>
<path d="M212.871 27.4001C211.324 27.4001 210.551 26.6668 210.551 25.2001C210.551 24.2401 210.777 23.2135 211.231 22.1201C211.711 21.0001 212.351 19.9201 213.151 18.8801C213.951 17.8135 214.844 16.8535 215.831 16.0001C216.817 15.1201 217.831 14.4268 218.871 13.9201C219.911 13.3868 220.911 13.1201 221.871 13.1201C223.577 13.1201 224.431 13.9601 224.431 15.6401C224.431 16.7335 224.164 17.2801 223.631 17.2801C223.151 17.2801 222.911 17.0535 222.911 16.6001C222.911 16.4135 222.951 16.2268 223.031 16.0401C223.137 15.8268 223.191 15.6001 223.191 15.3601C223.191 14.6135 222.684 14.2401 221.671 14.2401C220.044 14.2401 218.004 15.4801 215.551 17.9601C214.964 18.5735 214.391 19.2935 213.831 20.1201C213.271 20.9468 212.804 21.7868 212.431 22.6401C212.084 23.4668 211.911 24.2535 211.911 25.0001C211.911 25.7201 212.311 26.0801 213.111 26.0801C213.804 26.0801 214.537 25.8668 215.311 25.4401C216.111 25.0135 216.804 24.5735 217.391 24.1201C218.564 23.2401 219.764 22.0401 220.991 20.5201C221.177 20.3068 221.417 20.0268 221.711 19.6801C222.004 19.3335 222.337 18.9468 222.711 18.5201C222.844 18.3868 223.004 18.3201 223.191 18.3201C223.617 18.3201 223.831 18.5335 223.831 18.9601L222.311 21.2401C221.297 22.7335 220.791 23.9601 220.791 24.9201C220.791 25.6134 221.124 25.9601 221.791 25.9601C222.351 25.9601 222.964 25.8135 223.631 25.5201C224.297 25.2268 224.844 24.9335 225.271 24.6401C226.124 24.0801 227.017 23.3868 227.951 22.5601C228.884 21.7068 229.777 20.8535 230.631 20.0001C230.737 19.8935 230.897 19.8401 231.111 19.8401C231.511 19.8401 231.711 20.0001 231.711 20.3201C231.711 20.6135 231.524 20.9468 231.151 21.3201C230.084 22.3868 229.124 23.3068 228.271 24.0801C227.417 24.8268 226.604 25.4401 225.831 25.9201C225.324 26.2134 224.697 26.5201 223.951 26.8401C223.204 27.1601 222.351 27.3201 221.391 27.3201C220.084 27.3201 219.431 26.6268 219.431 25.2401C219.431 24.7068 219.497 24.2668 219.631 23.9201C217.204 26.2401 214.951 27.4001 212.871 27.4001Z" fill="white"/>
<path d="M164.718 29.1202C164.185 29.1202 163.918 28.8668 163.918 28.3602C163.918 28.2268 163.971 28.0268 164.078 27.7602C164.211 27.5202 164.398 27.1735 164.638 26.7202L166.918 22.4802C168.145 20.2668 169.211 18.2402 170.118 16.4002C171.051 14.5335 171.851 12.8668 172.518 11.4002C174.518 6.84016 175.518 3.38682 175.518 1.04015C175.518 0.880155 175.625 0.693488 175.838 0.480154C176.078 0.266822 176.305 0.160156 176.518 0.160156C176.838 0.160156 176.998 0.466823 176.998 1.08016C176.998 2.81349 176.371 5.44016 175.118 8.96016C174.611 10.2935 174.091 11.5868 173.558 12.8402C173.025 14.0935 172.465 15.3068 171.878 16.4802C173.025 15.0935 174.211 13.7468 175.438 12.4402C176.665 11.1335 177.945 9.86682 179.278 8.64016C183.225 4.93349 186.105 3.08015 187.918 3.08015C189.065 3.08015 189.638 3.82682 189.638 5.32015C189.638 6.92016 188.851 9.80016 187.278 13.9602C185.251 19.1868 184.131 22.1868 183.918 22.9602C189.971 15.6268 196.131 10.2802 202.398 6.92015C203.251 6.46682 204.145 6.02682 205.078 5.60015C206.038 5.14682 206.771 4.92015 207.278 4.92015C208.025 4.92015 208.398 5.37349 208.398 6.28016C208.398 6.73349 208.318 7.28015 208.158 7.92015C207.998 8.56016 207.731 9.26682 207.358 10.0402L203.678 17.8402C203.331 18.5868 202.945 19.4135 202.518 20.3202C202.118 21.2268 201.731 22.1335 201.358 23.0402C201.011 23.9202 200.718 24.7202 200.478 25.4402C200.238 26.1335 200.118 26.6668 200.118 27.0402C200.118 27.4668 200.291 27.6802 200.638 27.6802C201.171 27.6802 201.838 27.3602 202.638 26.7202C203.465 26.0802 204.345 25.2668 205.278 24.2802C205.411 24.1202 205.585 23.9335 205.798 23.7202C206.038 23.5068 206.251 23.4002 206.438 23.4002C206.865 23.4002 207.078 23.6402 207.078 24.1202C207.078 24.2002 207.051 24.2935 206.998 24.4002C206.945 24.4802 206.825 24.6135 206.638 24.8002C206.291 25.1468 205.945 25.4935 205.598 25.8402C205.251 26.1868 204.931 26.4935 204.638 26.7602C203.945 27.3468 203.211 27.8668 202.438 28.3202C201.691 28.8002 200.971 29.0402 200.278 29.0402C199.185 29.0402 198.638 28.4268 198.638 27.2002C198.638 26.4535 198.905 25.2935 199.438 23.7202C199.971 22.1468 200.785 20.1602 201.878 17.7602L206.078 8.64016C206.371 8.02682 206.558 7.60016 206.638 7.36016C206.718 7.09349 206.758 6.90682 206.758 6.80016C206.758 6.64016 206.691 6.56015 206.558 6.56015C206.505 6.56015 206.358 6.60016 206.118 6.68016C205.905 6.73349 205.518 6.89349 204.958 7.16016C203.331 7.90682 201.545 8.90682 199.598 10.1602C197.651 11.4135 195.838 12.7735 194.158 14.2402C192.798 15.4135 191.585 16.5335 190.518 17.6002C189.451 18.6668 188.411 19.7735 187.398 20.9202C186.385 22.0668 185.265 23.3735 184.038 24.8402C183.691 25.2402 183.451 25.5202 183.318 25.6802C183.185 25.8135 182.971 25.8802 182.678 25.8802C182.225 25.8802 181.998 25.6402 181.998 25.1602C181.998 24.6535 182.105 23.9868 182.318 23.1602C182.531 22.3335 182.798 21.4935 183.118 20.6402L186.078 12.7202C186.798 10.7735 187.331 9.16016 187.678 7.88016C188.025 6.60016 188.198 5.64016 188.198 5.00016C188.198 4.46682 187.971 4.20015 187.518 4.20015C186.638 4.20015 184.651 5.61349 181.558 8.44016C180.491 9.42682 179.491 10.3735 178.558 11.2802C177.625 12.1868 176.771 13.0668 175.998 13.9202C174.958 15.0402 174.011 16.1068 173.158 17.1202C172.305 18.1335 171.478 19.1868 170.678 20.2802C169.905 21.3468 169.105 22.5335 168.278 23.8402C167.451 25.1468 166.558 26.6668 165.598 28.4002C165.331 28.8802 165.038 29.1202 164.718 29.1202Z" fill="white"/>
<path d="M144.409 27.7199C143.289 27.7199 142.409 27.3332 141.769 26.5599C141.129 25.7866 140.809 24.8399 140.809 23.7199C140.809 21.7999 141.449 19.8265 142.729 17.7999C143.075 17.2399 143.475 16.6932 143.929 16.1599C144.382 15.5999 144.875 15.0665 145.409 14.5599C146.209 13.7866 147.049 13.1466 147.929 12.6399C148.809 12.1332 149.662 11.8799 150.489 11.8799C151.849 11.8799 152.529 12.5199 152.529 13.7999C152.529 15.3999 151.595 16.8532 149.729 18.1599C147.995 19.3332 146.289 19.9199 144.609 19.9199C144.315 19.9199 144.049 19.9065 143.809 19.8799C143.595 19.8265 143.395 19.7732 143.209 19.7199C142.942 20.2265 142.702 20.8799 142.489 21.6799C142.275 22.4799 142.169 23.1732 142.169 23.7599C142.169 25.5199 142.942 26.3999 144.489 26.3999C145.742 26.3999 146.929 26.1865 148.049 25.7599C149.169 25.3065 150.502 24.4666 152.049 23.2399C153.009 22.4932 153.729 21.8932 154.209 21.4399C154.689 20.9865 155.209 20.5066 155.769 19.9999C155.929 19.8932 156.075 19.8399 156.209 19.8399C156.342 19.8399 156.475 19.8799 156.609 19.9599C156.742 20.0399 156.809 20.1599 156.809 20.3199C156.809 20.6132 156.542 21.0265 156.009 21.5599C155.555 21.9865 155.075 22.4399 154.569 22.9199C154.062 23.3732 153.262 24.0132 152.169 24.8399C150.995 25.7466 149.715 26.4532 148.329 26.9599C146.942 27.4665 145.635 27.7199 144.409 27.7199ZM144.369 18.6399C145.222 18.6399 146.035 18.5066 146.809 18.2399C147.582 17.9732 148.315 17.5866 149.009 17.0799C150.555 15.9332 151.329 14.8532 151.329 13.8399C151.329 13.3865 151.049 13.1599 150.489 13.1599C149.422 13.1599 148.182 13.8132 146.769 15.1199C146.075 15.7599 145.502 16.3465 145.049 16.8799C144.622 17.3865 144.222 17.9465 143.849 18.5599C144.009 18.6132 144.182 18.6399 144.369 18.6399Z" fill="white"/>
<path d="M136.61 30.5605C136.397 30.5605 136.13 30.4538 135.81 30.2405C135.517 30.0538 135.29 29.8671 135.13 29.6805C134.81 29.2805 134.597 28.8005 134.49 28.2405C134.383 27.6805 134.33 27.0671 134.33 26.4005C134.33 25.8405 134.343 25.2405 134.37 24.6005C134.423 23.9338 134.503 23.2271 134.61 22.4805C133.917 23.2805 133.13 24.0671 132.25 24.8405C131.397 25.5871 130.517 26.2005 129.61 26.6805C128.73 27.1605 127.89 27.4005 127.09 27.4005C125.09 27.4005 124.09 26.3338 124.09 24.2005C124.09 21.9871 124.863 19.8538 126.41 17.8005C127.183 16.7871 128.063 15.8138 129.05 14.8805C130.037 13.9471 131.077 13.1871 132.17 12.6005C133.263 12.0138 134.343 11.7205 135.41 11.7205C136.21 11.7205 136.917 12.0271 137.53 12.6405C137.583 12.5338 137.65 12.3605 137.73 12.1205C137.837 11.8805 137.983 11.5738 138.17 11.2005C138.81 9.8138 139.517 8.3738 140.29 6.88047C141.063 5.36047 141.757 4.10714 142.37 3.12047C143.063 2.02714 143.717 1.48047 144.33 1.48047C144.757 1.48047 144.97 1.8138 144.97 2.48047C144.97 3.62713 143.89 6.30713 141.73 10.5205C141.597 10.7605 141.357 11.2005 141.01 11.8405C140.69 12.4538 140.303 13.1738 139.85 14.0005C139.423 14.8005 138.983 15.6005 138.53 16.4005C138.077 17.2005 137.663 17.9205 137.29 18.5605C136.943 19.1738 136.69 19.6005 136.53 19.8405C136.237 21.0405 136.01 22.1871 135.85 23.2805C135.69 24.3471 135.61 25.4538 135.61 26.6005C135.61 27.0271 135.623 27.4138 135.65 27.7605C135.703 28.1338 135.81 28.4271 135.97 28.6405C136.103 28.8005 136.25 28.9205 136.41 29.0005C136.57 29.1071 136.757 29.2005 136.97 29.2805C137.29 29.3605 137.45 29.5471 137.45 29.8405C137.45 30.3205 137.17 30.5605 136.61 30.5605ZM138.49 13.8405C139.503 12.1071 140.397 10.4938 141.17 9.00047C141.943 7.48047 142.57 6.0538 143.05 4.72047C141.983 6.10714 141.09 7.5738 140.37 9.12047C139.65 10.6671 139.023 12.2405 138.49 13.8405ZM126.81 26.2005C127.583 26.2005 128.397 25.9471 129.25 25.4405C130.13 24.9071 130.957 24.2805 131.73 23.5605C132.423 22.9205 133.063 22.2671 133.65 21.6005C134.237 20.9071 134.783 20.2005 135.29 19.4805C135.503 18.5471 135.743 17.6271 136.01 16.7205C136.303 15.8138 136.623 14.9071 136.97 14.0005C136.543 13.3338 135.943 13.0005 135.17 13.0005C134.37 13.0005 133.477 13.3071 132.49 13.9205C131.53 14.5071 130.597 15.2405 129.69 16.1205C128.81 17.0005 128.05 17.8405 127.41 18.6405C126.077 20.4271 125.41 22.3205 125.41 24.3205C125.41 25.5738 125.877 26.2005 126.81 26.2005Z" fill="white"/>
<path d="M95.8786 27.4001C94.3319 27.4001 93.5586 26.6668 93.5586 25.2001C93.5586 24.2401 93.7853 23.2135 94.2386 22.1201C94.7186 21.0001 95.3586 19.9201 96.1586 18.8801C96.9586 17.8135 97.8519 16.8535 98.8386 16.0001C99.8253 15.1201 100.839 14.4268 101.879 13.9201C102.919 13.3868 103.919 13.1201 104.879 13.1201C106.585 13.1201 107.439 13.9601 107.439 15.6401C107.439 16.7335 107.172 17.2801 106.639 17.2801C106.159 17.2801 105.919 17.0535 105.919 16.6001C105.919 16.4135 105.959 16.2268 106.039 16.0401C106.145 15.8268 106.199 15.6001 106.199 15.3601C106.199 14.6135 105.692 14.2401 104.679 14.2401C103.052 14.2401 101.012 15.4801 98.5586 17.9601C97.9719 18.5735 97.3986 19.2935 96.8386 20.1201C96.2786 20.9468 95.8119 21.7868 95.4386 22.6401C95.0919 23.4668 94.9186 24.2535 94.9186 25.0001C94.9186 25.7201 95.3186 26.0801 96.1186 26.0801C96.8119 26.0801 97.5453 25.8668 98.3186 25.4401C99.1186 25.0135 99.8119 24.5735 100.399 24.1201C101.572 23.2401 102.772 22.0401 103.999 20.5201C104.185 20.3068 104.425 20.0268 104.719 19.6801C105.012 19.3335 105.345 18.9468 105.719 18.5201C105.852 18.3868 106.012 18.3201 106.199 18.3201C106.625 18.3201 106.839 18.5335 106.839 18.9601L105.319 21.2401C104.305 22.7335 103.799 23.9601 103.799 24.9201C103.799 25.6134 104.132 25.9601 104.799 25.9601C105.359 25.9601 105.972 25.8135 106.639 25.5201C107.305 25.2268 107.852 24.9335 108.279 24.6401C109.132 24.0801 110.025 23.3868 110.959 22.5601C111.892 21.7068 112.785 20.8535 113.639 20.0001C113.745 19.8935 113.905 19.8401 114.119 19.8401C114.519 19.8401 114.719 20.0001 114.719 20.3201C114.719 20.6135 114.532 20.9468 114.159 21.3201C113.092 22.3868 112.132 23.3068 111.279 24.0801C110.425 24.8268 109.612 25.4401 108.839 25.9201C108.332 26.2134 107.705 26.5201 106.959 26.8401C106.212 27.1601 105.359 27.3201 104.399 27.3201C103.092 27.3201 102.439 26.6268 102.439 25.2401C102.439 24.7068 102.505 24.2668 102.639 23.9201C100.212 26.2401 97.9586 27.4001 95.8786 27.4001Z" fill="white"/>
<path d="M92.9923 11.2398C92.5389 11.2398 92.3123 11.0131 92.3123 10.5598C92.3123 10.4265 92.4056 10.1865 92.5923 9.8398C92.7789 9.46647 92.9923 9.09314 93.2323 8.7198C93.4723 8.34647 93.6589 8.09314 93.7923 7.9598C94.2456 7.45314 94.5923 7.13314 94.8323 6.9998C95.0989 6.86647 95.3389 6.7998 95.5523 6.7998C96.1123 6.7998 96.3923 7.05314 96.3923 7.5598C96.3923 7.74647 96.2723 7.97314 96.0323 8.2398C95.8189 8.4798 95.5656 8.70647 95.2723 8.9198C94.8456 9.18647 94.5789 9.3998 94.4723 9.5598L93.5923 10.7998C93.5656 10.9065 93.4989 11.0131 93.3923 11.1198C93.3123 11.1998 93.1789 11.2398 92.9923 11.2398ZM86.1923 27.4398C85.4456 27.4398 84.8989 27.2931 84.5523 26.9998C84.2323 26.7065 84.0723 26.2665 84.0723 25.6798C84.0723 25.1198 84.2456 24.3598 84.5923 23.3998C84.9389 22.4131 85.3789 21.3598 85.9123 20.2398C86.4723 19.1198 87.0589 18.0531 87.6723 17.0398C88.2856 16.0265 88.8723 15.1998 89.4323 14.5598C90.0189 13.8931 90.4856 13.5598 90.8323 13.5598C91.3123 13.5598 91.5523 13.7731 91.5523 14.1998C91.5523 14.4665 91.3256 14.9731 90.8723 15.7198C90.4189 16.4665 89.9256 17.2398 89.3923 18.0398C89.1789 18.3331 88.8856 18.7331 88.5123 19.2398C88.1389 19.7465 87.7789 20.2265 87.4323 20.6798C87.0856 21.1065 86.8589 21.3998 86.7523 21.5598C86.4856 21.9598 86.2056 22.6131 85.9123 23.5198C85.5923 24.4265 85.4323 25.1198 85.4323 25.5998C85.4323 25.8131 85.4723 25.9731 85.5523 26.0798C85.6589 26.1865 85.8856 26.2398 86.2323 26.2398C86.8989 26.2398 87.6456 26.0265 88.4723 25.5998C89.2989 25.1731 90.1389 24.6398 90.9923 23.9998C91.8456 23.3331 92.6456 22.6531 93.3923 21.9598C94.1656 21.2665 94.8189 20.6665 95.3523 20.1598C95.4589 20.0531 95.6189 19.9998 95.8323 19.9998C96.2323 19.9998 96.4323 20.1598 96.4323 20.4798C96.4323 20.7731 96.2456 21.1065 95.8723 21.4798C95.1523 22.1998 94.4856 22.8398 93.8723 23.3998C93.2589 23.9598 92.6723 24.4531 92.1123 24.8798C91.2323 25.5198 90.2589 26.1065 89.1923 26.6398C88.1256 27.1731 87.1256 27.4398 86.1923 27.4398Z" fill="white"/>
<path d="M74.3305 27.7199C73.2105 27.7199 72.3305 27.3332 71.6905 26.5599C71.0505 25.7866 70.7305 24.8399 70.7305 23.7199C70.7305 21.7999 71.3705 19.8265 72.6505 17.7999C72.9971 17.2399 73.3971 16.6932 73.8505 16.1599C74.3038 15.5999 74.7971 15.0665 75.3305 14.5599C76.1305 13.7866 76.9705 13.1466 77.8505 12.6399C78.7305 12.1332 79.5838 11.8799 80.4105 11.8799C81.7705 11.8799 82.4505 12.5199 82.4505 13.7999C82.4505 15.3999 81.5171 16.8532 79.6505 18.1599C77.9171 19.3332 76.2105 19.9199 74.5305 19.9199C74.2371 19.9199 73.9705 19.9065 73.7305 19.8799C73.5171 19.8265 73.3171 19.7732 73.1305 19.7199C72.8638 20.2265 72.6238 20.8799 72.4105 21.6799C72.1971 22.4799 72.0905 23.1732 72.0905 23.7599C72.0905 25.5199 72.8638 26.3999 74.4105 26.3999C75.6638 26.3999 76.8505 26.1865 77.9705 25.7599C79.0905 25.3065 80.4238 24.4666 81.9705 23.2399C82.9305 22.4932 83.6505 21.8932 84.1305 21.4399C84.6105 20.9865 85.1305 20.5066 85.6905 19.9999C85.8505 19.8932 85.9971 19.8399 86.1305 19.8399C86.2638 19.8399 86.3971 19.8799 86.5305 19.9599C86.6638 20.0399 86.7305 20.1599 86.7305 20.3199C86.7305 20.6132 86.4638 21.0265 85.9305 21.5599C85.4771 21.9865 84.9971 22.4399 84.4905 22.9199C83.9838 23.3732 83.1838 24.0132 82.0905 24.8399C80.9171 25.7466 79.6371 26.4532 78.2505 26.9599C76.8638 27.4665 75.5571 27.7199 74.3305 27.7199ZM74.2905 18.6399C75.1438 18.6399 75.9571 18.5066 76.7305 18.2399C77.5038 17.9732 78.2371 17.5866 78.9305 17.0799C80.4771 15.9332 81.2505 14.8532 81.2505 13.8399C81.2505 13.3865 80.9705 13.1599 80.4105 13.1599C79.3438 13.1599 78.1038 13.8132 76.6905 15.1199C75.9971 15.7599 75.4238 16.3465 74.9705 16.8799C74.5438 17.3865 74.1438 17.9465 73.7705 18.5599C73.9305 18.6132 74.1038 18.6399 74.2905 18.6399Z" fill="white"/>
<path d="M56.0775 28.0004C55.6508 28.0004 55.4375 27.8271 55.4375 27.4804C55.4375 27.3204 55.4775 27.1604 55.5575 27.0004C55.6642 26.8404 55.7442 26.7071 55.7975 26.6004L59.4375 19.2404C60.9842 16.0937 61.7575 14.3471 61.7575 14.0004C61.7575 13.6271 61.9442 13.4404 62.3175 13.4404C62.8242 13.4404 63.0775 13.6937 63.0775 14.2004C63.0775 14.4671 62.9575 14.8937 62.7175 15.4804C62.4775 16.0671 62.1708 16.7471 61.7975 17.5204C61.1575 18.9071 60.6242 19.9737 60.1975 20.7204C60.9975 19.7871 61.8108 18.9071 62.6375 18.0804C63.4642 17.2537 64.3042 16.4671 65.1575 15.7204C67.6908 13.5071 69.6375 12.4004 70.9975 12.4004C71.9308 12.4004 72.3975 12.8404 72.3975 13.7204C72.3975 14.5737 72.1175 15.0004 71.5575 15.0004C71.2908 15.0004 71.0908 14.7737 70.9575 14.3204C70.8775 14.0004 70.6908 13.8404 70.3975 13.8404C69.9442 13.8404 69.0642 14.3337 67.7575 15.3204C66.3175 16.3871 64.8642 17.6537 63.3975 19.1204C61.9575 20.5871 60.4242 22.4537 58.7975 24.7204L56.7975 27.5204C56.6908 27.6537 56.5842 27.7604 56.4775 27.8404C56.3975 27.9471 56.2642 28.0004 56.0775 28.0004Z" fill="white"/>
<path d="M56.3126 11.2398C55.8592 11.2398 55.6326 11.0131 55.6326 10.5598C55.6326 10.4265 55.7259 10.1865 55.9126 9.8398C56.0992 9.46647 56.3126 9.09314 56.5526 8.7198C56.7926 8.34647 56.9792 8.09314 57.1126 7.9598C57.5659 7.45314 57.9126 7.13314 58.1526 6.9998C58.4192 6.86647 58.6592 6.7998 58.8726 6.7998C59.4326 6.7998 59.7126 7.05314 59.7126 7.5598C59.7126 7.74647 59.5926 7.97314 59.3526 8.2398C59.1392 8.4798 58.8859 8.70647 58.5926 8.9198C58.1659 9.18647 57.8992 9.3998 57.7926 9.5598L56.9126 10.7998C56.8859 10.9065 56.8192 11.0131 56.7126 11.1198C56.6326 11.1998 56.4992 11.2398 56.3126 11.2398ZM49.5126 27.4398C48.7659 27.4398 48.2192 27.2931 47.8726 26.9998C47.5526 26.7065 47.3926 26.2665 47.3926 25.6798C47.3926 25.1198 47.5659 24.3598 47.9126 23.3998C48.2592 22.4131 48.6992 21.3598 49.2326 20.2398C49.7926 19.1198 50.3792 18.0531 50.9926 17.0398C51.6059 16.0265 52.1926 15.1998 52.7526 14.5598C53.3392 13.8931 53.8059 13.5598 54.1526 13.5598C54.6326 13.5598 54.8726 13.7731 54.8726 14.1998C54.8726 14.4665 54.6459 14.9731 54.1926 15.7198C53.7392 16.4665 53.2459 17.2398 52.7126 18.0398C52.4992 18.3331 52.2059 18.7331 51.8326 19.2398C51.4592 19.7465 51.0992 20.2265 50.7526 20.6798C50.4059 21.1065 50.1792 21.3998 50.0726 21.5598C49.8059 21.9598 49.5259 22.6131 49.2326 23.5198C48.9126 24.4265 48.7526 25.1198 48.7526 25.5998C48.7526 25.8131 48.7926 25.9731 48.8726 26.0798C48.9792 26.1865 49.2059 26.2398 49.5526 26.2398C50.2192 26.2398 50.9659 26.0265 51.7926 25.5998C52.6192 25.1731 53.4592 24.6398 54.3126 23.9998C55.1659 23.3331 55.9659 22.6531 56.7126 21.9598C57.4859 21.2665 58.1392 20.6665 58.6726 20.1598C58.7792 20.0531 58.9392 19.9998 59.1526 19.9998C59.5526 19.9998 59.7526 20.1598 59.7526 20.4798C59.7526 20.7731 59.5659 21.1065 59.1926 21.4798C58.4726 22.1998 57.8059 22.8398 57.1926 23.3998C56.5792 23.9598 55.9926 24.4531 55.4326 24.8798C54.5526 25.5198 53.5792 26.1065 52.5126 26.6398C51.4459 27.1731 50.4459 27.4398 49.5126 27.4398Z" fill="white"/>
<path d="M1.28047 29.1202C0.747135 29.1202 0.480469 28.8668 0.480469 28.3602C0.480469 28.2268 0.533802 28.0268 0.640469 27.7602C0.773802 27.5202 0.960469 27.1735 1.20047 26.7202L3.48047 22.4802C4.70714 20.2668 5.7738 18.2402 6.68047 16.4002C7.6138 14.5335 8.4138 12.8668 9.08047 11.4002C11.0805 6.84016 12.0805 3.38682 12.0805 1.04015C12.0805 0.880155 12.1871 0.693488 12.4005 0.480154C12.6405 0.266822 12.8671 0.160156 13.0805 0.160156C13.4005 0.160156 13.5605 0.466823 13.5605 1.08016C13.5605 2.81349 12.9338 5.44016 11.6805 8.96016C11.1738 10.2935 10.6538 11.5868 10.1205 12.8402C9.58714 14.0935 9.02714 15.3068 8.44047 16.4802C9.58714 15.0935 10.7738 13.7468 12.0005 12.4402C13.2271 11.1335 14.5071 9.86682 15.8405 8.64016C19.7871 4.93349 22.6671 3.08015 24.4805 3.08015C25.6271 3.08015 26.2005 3.82682 26.2005 5.32015C26.2005 6.92016 25.4138 9.80016 23.8405 13.9602C21.8138 19.1868 20.6938 22.1868 20.4805 22.9602C26.5338 15.6268 32.6938 10.2802 38.9605 6.92015C39.8138 6.46682 40.7071 6.02682 41.6405 5.60015C42.6005 5.14682 43.3338 4.92015 43.8405 4.92015C44.5871 4.92015 44.9605 5.37349 44.9605 6.28016C44.9605 6.73349 44.8805 7.28015 44.7205 7.92015C44.5605 8.56016 44.2938 9.26682 43.9205 10.0402L40.2405 17.8402C39.8938 18.5868 39.5071 19.4135 39.0805 20.3202C38.6805 21.2268 38.2938 22.1335 37.9205 23.0402C37.5738 23.9202 37.2805 24.7202 37.0405 25.4402C36.8005 26.1335 36.6805 26.6668 36.6805 27.0402C36.6805 27.4668 36.8538 27.6802 37.2005 27.6802C37.7338 27.6802 38.4005 27.3602 39.2005 26.7202C40.0271 26.0802 40.9071 25.2668 41.8405 24.2802C41.9738 24.1202 42.1471 23.9335 42.3605 23.7202C42.6005 23.5068 42.8138 23.4002 43.0005 23.4002C43.4271 23.4002 43.6405 23.6402 43.6405 24.1202C43.6405 24.2002 43.6138 24.2935 43.5605 24.4002C43.5071 24.4802 43.3871 24.6135 43.2005 24.8002C42.8538 25.1468 42.5071 25.4935 42.1605 25.8402C41.8138 26.1868 41.4938 26.4935 41.2005 26.7602C40.5071 27.3468 39.7738 27.8668 39.0005 28.3202C38.2538 28.8002 37.5338 29.0402 36.8405 29.0402C35.7471 29.0402 35.2005 28.4268 35.2005 27.2002C35.2005 26.4535 35.4671 25.2935 36.0005 23.7202C36.5338 22.1468 37.3471 20.1602 38.4405 17.7602L42.6405 8.64016C42.9338 8.02682 43.1205 7.60016 43.2005 7.36016C43.2805 7.09349 43.3205 6.90682 43.3205 6.80016C43.3205 6.64016 43.2538 6.56015 43.1205 6.56015C43.0671 6.56015 42.9205 6.60016 42.6805 6.68016C42.4671 6.73349 42.0805 6.89349 41.5205 7.16016C39.8938 7.90682 38.1071 8.90682 36.1605 10.1602C34.2138 11.4135 32.4005 12.7735 30.7205 14.2402C29.3605 15.4135 28.1471 16.5335 27.0805 17.6002C26.0138 18.6668 24.9738 19.7735 23.9605 20.9202C22.9471 22.0668 21.8271 23.3735 20.6005 24.8402C20.2538 25.2402 20.0138 25.5202 19.8805 25.6802C19.7471 25.8135 19.5338 25.8802 19.2405 25.8802C18.7871 25.8802 18.5605 25.6402 18.5605 25.1602C18.5605 24.6535 18.6671 23.9868 18.8805 23.1602C19.0938 22.3335 19.3605 21.4935 19.6805 20.6402L22.6405 12.7202C23.3605 10.7735 23.8938 9.16016 24.2405 7.88016C24.5871 6.60016 24.7605 5.64016 24.7605 5.00016C24.7605 4.46682 24.5338 4.20015 24.0805 4.20015C23.2005 4.20015 21.2138 5.61349 18.1205 8.44016C17.0538 9.42682 16.0538 10.3735 15.1205 11.2802C14.1871 12.1868 13.3338 13.0668 12.5605 13.9202C11.5205 15.0402 10.5738 16.1068 9.72047 17.1202C8.86714 18.1335 8.04047 19.1868 7.24047 20.2802C6.46714 21.3468 5.66714 22.5335 4.84047 23.8402C4.0138 25.1468 3.12047 26.6668 2.16047 28.4002C1.8938 28.8802 1.60047 29.1202 1.28047 29.1202Z" fill="white"/>
</svg>
