<svg width="126" height="57" viewBox="0 0 126 57" fill="none" xmlns="http://www.w3.org/2000/svg">
<path d="M112.784 32.7176C107.864 32.7176 104.147 31.5696 101.632 29.2736C99.1722 26.9776 97.9422 23.7796 97.9422 19.6796C97.9422 15.9076 99.2269 12.7916 101.796 10.3316C104.366 7.8716 107.591 6.6416 111.472 6.6416C115.135 6.6416 118.333 8.09027 121.066 10.9876C123.854 13.8849 125.248 18.2036 125.248 23.9436C125.248 29.7383 124.401 34.8496 122.706 39.2776C121.012 43.7056 118.47 47.3409 115.08 50.1836C111.746 53.0263 107.618 54.9943 102.698 56.0876C102.316 56.1969 101.988 56.1969 101.714 56.0876C101.441 55.9236 101.304 55.7596 101.304 55.5956C101.304 55.3223 101.359 55.1036 101.468 54.9396C101.632 54.7209 101.906 54.5569 102.288 54.4476C106.716 53.4089 110.215 51.7689 112.784 49.5276C115.354 47.2316 117.185 44.7989 118.278 42.2296C119.426 39.6056 120 37.2823 120 35.2596C120 34.4943 119.782 33.8929 119.344 33.4556C118.907 32.9636 118.169 32.7176 117.13 32.7176H112.784ZM82.5262 32.8816C77.5516 32.8816 73.8069 31.7336 71.2922 29.4376C68.8322 27.0869 67.6022 23.8889 67.6022 19.8436C67.6022 16.0716 68.8869 12.9556 71.4562 10.4956C74.0256 7.98093 77.2782 6.7236 81.2142 6.7236C84.8769 6.7236 88.0749 8.17227 90.8082 11.0696C93.5962 13.9669 94.9902 18.3129 94.9902 24.1076C94.9902 29.8476 94.1429 34.9589 92.4482 39.4416C90.7536 43.8696 88.2116 47.5049 84.8222 50.3476C81.4876 53.1903 77.3329 55.1309 72.3582 56.1696C72.0302 56.2789 71.7296 56.2789 71.4562 56.1696C71.1829 56.0603 71.0462 55.8963 71.0462 55.6776C70.9916 55.4043 71.0462 55.1856 71.2102 55.0216C71.3742 54.8576 71.6476 54.7209 72.0302 54.6116C76.4582 53.5183 79.9569 51.8509 82.5262 49.6096C85.0956 47.3683 86.9269 44.9629 88.0202 42.3936C89.1136 39.7696 89.6602 37.4463 89.6602 35.4236C89.6602 34.6036 89.4416 33.9749 89.0042 33.5376C88.6216 33.1003 87.9109 32.8816 86.8722 32.8816H82.5262Z" fill="white"/>
<path d="M13.2157 23.534C18.1904 23.534 21.9077 24.682 24.3677 26.978C26.8824 29.274 28.1397 32.472 28.1397 36.572C28.1397 40.2893 26.855 43.4053 24.2857 45.92C21.7164 48.38 18.491 49.61 14.6097 49.61C10.947 49.61 7.72171 48.1613 4.93371 45.264C2.14571 42.3667 0.751709 38.048 0.751709 32.308C0.751709 26.5133 1.59904 21.402 3.29371 16.974C5.04304 12.546 7.58504 8.91067 10.9197 6.06801C14.309 3.22534 18.4637 1.25734 23.3837 0.164003C23.7664 0.0546708 24.0944 0.0546708 24.3677 0.164003C24.641 0.273335 24.7777 0.437333 24.7777 0.655996C24.7777 0.92933 24.6957 1.17533 24.5317 1.394C24.3677 1.558 24.1217 1.69467 23.7937 1.804C19.3657 2.84267 15.867 4.51 13.2977 6.806C10.7284 9.04733 8.86971 11.48 7.72171 14.104C6.62838 16.6733 6.08171 18.9693 6.08171 20.992C6.08171 21.7573 6.30038 22.386 6.73771 22.878C7.17504 23.3153 7.91304 23.534 8.95171 23.534H13.2157ZM43.5557 23.37C48.4757 23.37 52.1657 24.5453 54.6257 26.896C57.1404 29.192 58.3977 32.3627 58.3977 36.408C58.3977 40.1253 57.113 43.2413 54.5437 45.756C51.9744 48.2707 48.749 49.528 44.8677 49.528C41.205 49.528 37.9797 48.0793 35.1917 45.182C32.4584 42.23 31.0917 37.884 31.0917 32.144C31.0917 26.404 31.939 21.32 33.6337 16.892C35.3284 12.4093 37.843 8.74667 41.1777 5.904C44.567 3.06133 48.7217 1.12067 53.6417 0.0819989C54.079 -0.027333 54.407 -0.027333 54.6257 0.0819989C54.899 0.136668 55.0357 0.300669 55.0357 0.574002C55.0357 0.847335 54.9537 1.066 54.7897 1.23C54.6804 1.394 54.4344 1.53067 54.0517 1.64C49.6237 2.73334 46.125 4.40067 43.5557 6.642C40.9864 8.88334 39.1277 11.316 37.9797 13.94C36.8864 16.5093 36.3397 18.8053 36.3397 20.828C36.3397 21.648 36.5584 22.2767 36.9957 22.714C37.433 23.1513 38.171 23.37 39.2097 23.37H43.5557Z" fill="white"/>
</svg>
