<svg width="90" height="75" viewBox="0 0 90 75" fill="none" xmlns="http://www.w3.org/2000/svg">
<path d="M41.2801 30.0747L29.5415 18.3093C28.782 17.5401 28.3588 16.501 28.3648 15.42C28.3708 14.3391 28.8055 13.3047 29.5735 12.544C29.9486 12.1635 30.3952 11.8608 30.8876 11.6532C31.38 11.4456 31.9085 11.3372 32.4428 11.3342C32.9772 11.3313 33.5069 11.4338 34.0015 11.6359C34.4962 11.838 34.9461 12.1357 35.3255 12.512L56.0881 33.112C63.1761 40.216 67.2615 49.528 59.3495 59.1493L58.5068 59.9947C57.0304 61.475 55.2765 62.6495 53.3454 63.4509C51.4144 64.2523 49.3442 64.6648 47.2535 64.6648C45.1627 64.6648 43.0926 64.2523 41.1615 63.4509C39.2305 62.6495 37.4765 61.475 36.0001 59.9947L27.4988 51.5947C25.9175 50.0133 25.9521 47.4133 27.5708 45.7893C29.1041 44.2507 31.5175 44.1413 33.1095 45.4827M41.2801 30.0747L47.9735 36.7787M41.2801 30.0747C39.6988 28.4907 37.0401 28.528 35.4135 30.1573C33.7841 31.7893 33.7468 34.3947 35.3255 35.976L37.2668 37.9227M33.1095 45.4827L31.4428 43.8613C29.8615 42.2773 29.9015 39.672 31.5281 38.0427C33.1548 36.4133 35.6881 36.3387 37.2668 37.9227M33.1095 45.4827L36.1228 48.416M33.1095 45.4827C33.1984 45.5573 33.2828 45.6356 33.3628 45.7173M37.2668 37.9227L42.0241 42.688M45.3628 22.472C45.8108 18.3733 50.6641 14.1253 56.7228 17.0347C57.2988 17.312 57.7548 17.8347 57.7628 18.4747C57.7681 19.504 57.3175 20.776 55.8668 21.6213C53.7921 22.8267 50.3975 27.4347 54.9308 31.9813" stroke="#2B5C6C" stroke-width="4" stroke-linecap="round" stroke-linejoin="round"/>
</svg>
