<svg width="70" height="70" viewBox="0 0 70 70" fill="none" xmlns="http://www.w3.org/2000/svg">
<path d="M35 15L12.1 37.45C11.1702 38.3787 10.4326 39.4816 9.9294 40.6956C9.42616 41.9096 9.16713 43.2108 9.16713 44.525C9.16713 45.8392 9.42616 47.1404 9.9294 48.3544C10.4326 49.5684 11.1702 50.6713 12.1 51.6L18.4 57.9C19.3287 58.8298 20.4316 59.5674 21.6456 60.0706C22.8596 60.5738 24.1608 60.8329 25.475 60.8329C26.7892 60.8329 28.0904 60.5738 29.3044 60.0706C30.5184 59.5674 31.6213 58.8298 32.55 57.9L55 35M52.5 2.5L67.5 17.5M45 25L60 10M15.25 54.75L2.5 67.5M27.5 7.5L62.5 42.5" stroke="#2B5C6C" stroke-width="5" stroke-linecap="round" stroke-linejoin="round"/>
</svg>
