<svg width="90" height="75" viewBox="0 0 90 75" fill="none" xmlns="http://www.w3.org/2000/svg">
<path d="M13.3838 41.3024C13.6385 43.2969 14.6115 45.1302 16.1206 46.4589C17.6297 47.7876 19.5715 48.5206 21.5822 48.5206C23.5929 48.5206 25.5346 47.7876 27.0438 46.4589C28.5529 45.1302 29.5259 43.2969 29.7806 41.3024H13.3966H13.3838ZM58.043 57.9424C58.043 58.6464 57.467 59.2224 56.763 59.2224H32.8782C32.1742 59.2224 31.5982 58.6464 31.5982 57.9424C31.5982 57.2384 32.1742 56.6752 32.8782 56.6752H56.763C57.467 56.6752 58.043 57.2384 58.043 57.9424ZM31.7518 59.8752H57.915V63.5744H31.7518V59.8752ZM60.2446 41.3024C60.5025 43.2934 61.476 45.1225 62.9833 46.4485C64.4907 47.7745 66.429 48.5068 68.4366 48.5088C70.4449 48.5095 72.3847 47.7782 73.8926 46.4517C75.4006 45.1252 76.3733 43.2945 76.6286 41.3024H60.2446ZM76.1806 38.7296L69.4734 29.488H73.0574C73.9278 29.488 74.6318 28.7712 74.6318 27.888C74.6318 27.0176 73.9278 26.3008 73.0574 26.3008H54.0494C53.4879 24.7463 52.5257 23.3678 51.2603 22.3046C49.9948 21.2415 48.471 20.5314 46.843 20.2464V15.2544C46.843 14.3712 46.1262 13.6544 45.243 13.6544L45.0894 13.6672L44.9358 13.6544C44.0526 13.6544 43.3486 14.3584 43.3486 15.2544V20.2464C41.7215 20.5339 40.1989 21.2448 38.9338 22.3077C37.6688 23.3705 36.706 24.7477 36.1422 26.3008H17.1342C16.2638 26.3008 15.5598 27.0048 15.5598 27.888C15.5598 28.7712 16.2638 29.488 17.1342 29.488H20.5646L13.8574 38.7296H13.0254V40.432H30.1774V38.7296H29.3326L22.6254 29.488H38.203C38.203 29.1296 38.2414 28.7712 38.2926 28.4384C38.3438 28.2848 38.3822 28.1184 38.3822 27.952C38.6724 26.7361 39.2917 25.6235 40.1722 24.7362C41.0528 23.8489 42.1605 23.2211 43.3742 22.9216V40.4576H43.3102C43.1694 47.0496 40.0334 52.8096 35.387 56.0352H54.8558C50.1966 52.8096 47.0606 47.0496 46.9198 40.4576H46.8558V22.9216C49.3262 23.5232 51.259 25.4816 51.835 27.952C51.835 28.1184 51.8734 28.2848 51.9374 28.4384C51.9886 28.784 52.027 29.1296 52.027 29.488H67.4382L60.731 38.7296H59.899V40.432H77.0382V38.7296H76.2062H76.1806ZM20.9102 38.7296H15.5598L20.9102 31.3568V38.7424V38.7296ZM22.2798 38.7296V31.3568L27.6302 38.7424H22.2798V38.7296ZM67.7582 38.7296H62.395L67.7582 31.3568V38.7424V38.7296ZM69.1278 38.7296V31.3568L74.491 38.7424H69.1278V38.7296ZM23.1886 24.0736C23.1886 24.944 22.4718 25.6608 21.6014 25.6608C20.7182 25.6608 20.0014 24.944 20.0014 24.0736C20.0014 23.1904 20.7182 22.4736 21.6014 22.4736C22.4718 22.4736 23.1886 23.1904 23.1886 24.0736ZM70.0366 23.984C70.0366 24.8672 69.3198 25.5712 68.4494 25.5712C67.5662 25.5712 66.8622 24.8672 66.8622 23.984C66.8622 23.1008 67.5662 22.384 68.4494 22.384C69.3326 22.384 70.0366 23.1008 70.0366 23.984Z" fill="#2B5C6C"/>
</svg>
