<svg width="70" height="70" viewBox="0 0 70 70" fill="none" xmlns="http://www.w3.org/2000/svg">
<path d="M36.4583 23.3334V20.4167H39.375V17.5H36.4583V14.5834H33.5417V17.5H30.625V20.4167H33.5417V23.3334H36.4583Z" fill="#2B5C6C"/>
<path fill-rule="evenodd" clip-rule="evenodd" d="M35.9116 7.61252C35.653 7.40544 35.3315 7.2926 35.0002 7.2926C34.6688 7.2926 34.3474 7.40544 34.0887 7.61252L12.6147 24.7917H10.2085C9.82172 24.7917 9.45079 24.9453 9.1773 25.2188C8.90381 25.4923 8.75016 25.8633 8.75016 26.25V32.0834C8.75016 32.4701 8.90381 32.8411 9.1773 33.1146C9.45079 33.388 9.82172 33.5417 10.2085 33.5417H11.6668V48.125H10.2085C9.82172 48.125 9.45079 48.2787 9.1773 48.5522C8.90381 48.8257 8.75016 49.1966 8.75016 49.5834V53.9584H7.29183C6.90506 53.9584 6.53412 54.112 6.26063 54.3855C5.98714 54.659 5.8335 55.0299 5.8335 55.4167V61.25C5.8335 61.6368 5.98714 62.0077 6.26063 62.2812C6.53412 62.5547 6.90506 62.7084 7.29183 62.7084H62.7085C63.0953 62.7084 63.4662 62.5547 63.7397 62.2812C64.0132 62.0077 64.1668 61.6368 64.1668 61.25V55.4167C64.1668 55.0299 64.0132 54.659 63.7397 54.3855C63.4662 54.112 63.0953 53.9584 62.7085 53.9584H61.2502V49.5834C61.2502 49.1966 61.0965 48.8257 60.823 48.5522C60.5495 48.2787 60.1786 48.125 59.7918 48.125H58.3335V33.5417H59.7918C60.1786 33.5417 60.5495 33.388 60.823 33.1146C61.0965 32.8411 61.2502 32.4701 61.2502 32.0834V26.25C61.2502 25.8633 61.0965 25.4923 60.823 25.2188C60.5495 24.9453 60.1786 24.7917 59.7918 24.7917H57.3856L35.9116 7.61252ZM52.7175 24.7917L35.0002 10.6167L17.2814 24.7917H52.7175ZM11.6668 27.7084V30.625H58.3335V27.7084H11.6668ZM55.4168 33.5417H52.5002V48.125H55.4168V33.5417ZM49.5835 48.125V33.5417H20.4168V48.125H21.8752C22.2619 48.125 22.6329 48.2787 22.9064 48.5522C23.1799 48.8257 23.3335 49.1966 23.3335 49.5834V53.9584H29.1668V42.2917C29.1668 40.7446 29.7814 39.2609 30.8754 38.1669C31.9693 37.0729 33.4531 36.4584 35.0002 36.4584C36.5473 36.4584 38.031 37.0729 39.125 38.1669C40.2189 39.2609 40.8335 40.7446 40.8335 42.2917V53.9584H46.6668V49.5834C46.6668 49.1966 46.8205 48.8257 47.094 48.5522C47.3675 48.2787 47.7384 48.125 48.1252 48.125H49.5835ZM32.0835 42.2917V53.9584H37.9168V42.2917C37.9168 41.5181 37.6095 40.7763 37.0626 40.2293C36.5156 39.6823 35.7737 39.375 35.0002 39.375C34.2266 39.375 33.4848 39.6823 32.9378 40.2293C32.3908 40.7763 32.0835 41.5181 32.0835 42.2917ZM61.2502 56.875V59.7917H8.75016V56.875H61.2502ZM49.5835 51.0417V53.9584H58.3335V51.0417H49.5835ZM14.5835 48.125V33.5417H17.5002V48.125H14.5835ZM11.6668 51.0417H20.4168V53.9584H11.6668V51.0417Z" fill="#2B5C6C"/>
</svg>
