<svg width="70" height="70" viewBox="0 0 70 70" fill="none" xmlns="http://www.w3.org/2000/svg">
<path d="M52.9435 33.1187C53.8038 33.9789 54.4863 35.0002 54.952 36.1242C55.4176 37.2482 55.6573 38.4529 55.6573 39.6696C55.6573 40.8862 55.4176 42.0909 54.952 43.2149C54.4863 44.3389 53.8038 45.3602 52.9435 46.2204L52.9143 46.2496L35.0001 64.1666L17.0801 46.2466L17.0539 46.2204C16.1734 45.3407 15.4793 44.2923 15.0134 43.1382C14.5474 41.984 14.319 40.7477 14.3419 39.5032C14.3648 38.2587 14.6385 37.0316 15.1466 35.8954C15.6548 34.7591 16.3869 33.7371 17.2992 32.8903C18.2115 32.0436 19.2852 31.3896 20.4561 30.9674C21.6271 30.5453 22.8711 30.3637 24.1138 30.4334C25.3566 30.5032 26.5725 30.823 27.6888 31.3736C28.805 31.9242 29.7988 32.6943 30.6106 33.6379L35.0001 38.0304L39.2293 33.8012C40.0492 32.8003 41.0697 31.9822 42.225 31.3997C43.3803 30.8172 44.6448 30.4831 45.9371 30.4191C47.2294 30.3551 48.5208 30.5625 49.728 31.028C50.9352 31.4934 52.0316 32.2066 52.9464 33.1216L52.9435 33.1187ZM26.2472 14.5833C26.2472 15.7324 26.4735 16.8702 26.9133 17.9318C27.353 18.9934 27.9975 19.958 28.81 20.7705C29.6225 21.583 30.5871 22.2275 31.6487 22.6673C32.7103 23.107 33.8482 23.3333 34.9972 23.3333C36.1463 23.3333 37.2841 23.107 38.3457 22.6673C39.4073 22.2275 40.3719 21.583 41.1844 20.7705C41.9969 19.958 42.6414 18.9934 43.0812 17.9318C43.5209 16.8702 43.7472 15.7324 43.7472 14.5833C43.7472 13.4342 43.5209 12.2964 43.0812 11.2348C42.6414 10.1732 41.9969 9.20864 41.1844 8.39613C40.3719 7.58362 39.4073 6.9391 38.3457 6.49937C37.2841 6.05964 36.1463 5.83331 34.9972 5.83331C33.8482 5.83331 32.7103 6.05964 31.6487 6.49937C30.5871 6.9391 29.6225 7.58362 28.81 8.39613C27.9975 9.20864 27.353 10.1732 26.9133 11.2348C26.4735 12.2964 26.2472 13.4342 26.2472 14.5833Z" stroke="#2B5C6C" stroke-width="4.375"/>
</svg>
