<svg width="72" height="75" viewBox="0 0 72 75" fill="none" xmlns="http://www.w3.org/2000/svg">
<path d="M26.6667 64.6666C34.7668 64.6666 41.3333 58.1002 41.3333 50C41.3333 41.8998 34.7668 35.3333 26.6667 35.3333C18.5665 35.3333 12 41.8998 12 50C12 58.1002 18.5665 64.6666 26.6667 64.6666Z" stroke="#2B5C6C" stroke-width="4" stroke-linecap="round" stroke-linejoin="round"/>
<path d="M45.3334 64.6666C53.4336 64.6666 60.0001 58.1002 60.0001 50C60.0001 41.8998 53.4336 35.3333 45.3334 35.3333C37.2332 35.3333 30.6667 41.8998 30.6667 50C30.6667 58.1002 37.2332 64.6666 45.3334 64.6666Z" stroke="#2B5C6C" stroke-width="4" stroke-linecap="round" stroke-linejoin="round"/>
<path d="M35.9999 30C35.9999 30 46.6666 25.0586 46.6666 17.0373C46.6666 13.888 44.4213 11.3333 41.3333 11.3333C38.8079 11.3333 37.1226 12.432 35.9999 14.6266C34.8773 12.432 33.1919 11.3333 30.6666 11.3333C27.5786 11.3333 25.3333 13.888 25.3333 17.0373C25.3333 25.0586 35.9999 30 35.9999 30Z" stroke="#2B5C6C" stroke-width="4" stroke-linejoin="round"/>
</svg>
