<svg width="173" height="210" viewBox="0 0 173 210" fill="none" xmlns="http://www.w3.org/2000/svg">
<path d="M129 95L141.506 115.258C142.165 116.326 142.165 117.674 141.506 118.742L129 139L149.258 126.494C150.326 125.835 151.674 125.835 152.742 126.494L173 139L160.494 118.742C159.835 117.674 159.835 116.325 160.494 115.257L173 95L152.742 107.506C151.674 108.165 150.326 108.165 149.258 107.506L129 95Z" fill="white"/>
<path d="M-5.89876e-07 0L28.1386 45.5802C29.6216 47.9832 29.6216 51.0168 28.1386 53.4198L-5.89876e-07 99L45.5805 70.8617C47.9836 69.3786 51.0173 69.3786 53.4203 70.8617L99 98.9992L70.8614 53.419C69.3784 51.016 69.3784 47.9823 70.8614 45.5794L99 0L53.4195 28.1383C51.0164 29.6214 47.9827 29.6214 45.5797 28.1383L-5.89876e-07 0Z" fill="white"/>
<path d="M8.76864e-07 150L17.0537 177.624C17.9525 179.081 17.9525 180.919 17.0537 182.376L8.76864e-07 210L27.6246 192.946C29.0809 192.048 30.9196 192.048 32.3759 192.946L60 210L42.9463 182.375C42.0475 180.919 42.0475 179.08 42.9463 177.624L60 150L32.3754 167.054C30.9191 167.952 29.0804 167.952 27.6241 167.054L8.76864e-07 150Z" fill="white"/>
</svg>
